G04 #@! TF.FileFunction,Copper,L2,Bot,Signal*
%FSLAX46Y46*%
G04 Gerber Fmt 4.6, Leading zero omitted, Abs format (unit mm)*
G04 Created by KiCad (PCBNEW 4.0.2-4+6225~38~ubuntu14.04.1-stable) date vie 15 abr 2016 00:06:46 CEST*
%MOMM*%
G01*
G04 APERTURE LIST*
%ADD10C,0.100000*%
%ADD11R,0.600000X1.500000*%
%ADD12C,1.500000*%
%ADD13O,1.524000X1.200000*%
%ADD14C,1.699260*%
%ADD15R,1.699260X1.699260*%
%ADD16R,2.032000X1.727200*%
%ADD17O,2.032000X1.727200*%
%ADD18O,1.500000X2.000000*%
%ADD19C,3.000000*%
%ADD20C,1.200000*%
%ADD21O,1.600000X2.000000*%
%ADD22R,2.032000X2.032000*%
%ADD23O,2.032000X2.032000*%
%ADD24O,1.699260X3.500120*%
%ADD25O,2.000000X4.000000*%
%ADD26O,4.000000X2.000000*%
%ADD27R,1.300000X1.300000*%
%ADD28C,1.300000*%
%ADD29O,1.000000X1.501140*%
%ADD30O,0.900000X1.300000*%
%ADD31R,0.900000X1.300000*%
%ADD32C,0.900000*%
%ADD33C,0.762000*%
%ADD34C,0.406400*%
%ADD35C,0.254000*%
%ADD36C,0.203200*%
G04 APERTURE END LIST*
D10*
D11*
X145755000Y-61700000D03*
X147025000Y-61700000D03*
X148295000Y-61700000D03*
X149565000Y-61700000D03*
X150835000Y-61700000D03*
X152105000Y-61700000D03*
X153375000Y-61700000D03*
X154645000Y-61700000D03*
X154645000Y-67100000D03*
X153375000Y-67100000D03*
X152105000Y-67100000D03*
X150835000Y-67100000D03*
X149565000Y-67100000D03*
X148295000Y-67100000D03*
X147025000Y-67100000D03*
X145755000Y-67100000D03*
D12*
X148780000Y-42380000D03*
X146240000Y-42380000D03*
X143700000Y-42380000D03*
X141160000Y-42380000D03*
X138620000Y-42380000D03*
X136080000Y-42380000D03*
X133540000Y-42380000D03*
X131000000Y-42380000D03*
X128460000Y-42380000D03*
X125920000Y-42380000D03*
X123380000Y-42380000D03*
X120840000Y-42380000D03*
X118300000Y-42380000D03*
X115760000Y-42380000D03*
X113220000Y-42380000D03*
X113220000Y-57620000D03*
X115760000Y-57620000D03*
X118300000Y-57620000D03*
X120840000Y-57620000D03*
X123380000Y-57620000D03*
X125920000Y-57620000D03*
X128460000Y-57620000D03*
X131000000Y-57620000D03*
X133540000Y-57620000D03*
X136080000Y-57620000D03*
X138620000Y-57620000D03*
X141160000Y-57620000D03*
X143700000Y-57620000D03*
X146240000Y-57620000D03*
X148780000Y-57620000D03*
D13*
X170380000Y-44380000D03*
X170380000Y-46920000D03*
X170380000Y-49460000D03*
X170380000Y-52000000D03*
X170380000Y-54540000D03*
X170380000Y-57080000D03*
X178000000Y-44380000D03*
X178000000Y-46920000D03*
X178000000Y-49460000D03*
X178000000Y-52000000D03*
X178000000Y-54540000D03*
X178000000Y-57080000D03*
D14*
X112000000Y-65000000D03*
D15*
X122160000Y-65000000D03*
D16*
X207000000Y-54460000D03*
D17*
X207000000Y-57000000D03*
X207000000Y-59540000D03*
X207000000Y-62080000D03*
D18*
X200000000Y-66000000D03*
X202500000Y-66000000D03*
X197500000Y-66000000D03*
D19*
X205000000Y-73000000D03*
X195000000Y-73000000D03*
D20*
X130400000Y-69000000D03*
X127000000Y-69000000D03*
D21*
X146184600Y-70053200D03*
X156184600Y-70053200D03*
D22*
X207000000Y-48000000D03*
D23*
X207000000Y-45460000D03*
D24*
X136460000Y-76000000D03*
X139000000Y-76000000D03*
X133920000Y-76000000D03*
D25*
X121000000Y-73000000D03*
X114850000Y-73000000D03*
D26*
X118150000Y-78000000D03*
D27*
X135500000Y-69000000D03*
D28*
X137500000Y-69000000D03*
D27*
X127500000Y-76000000D03*
D28*
X125500000Y-76000000D03*
D27*
X143000000Y-62000000D03*
D28*
X140500000Y-62000000D03*
D29*
X184000000Y-64000000D03*
X182730000Y-64000000D03*
X185270000Y-64000000D03*
X177000000Y-64000000D03*
X175730000Y-64000000D03*
X178270000Y-64000000D03*
X191730000Y-64000000D03*
X190460000Y-64000000D03*
X193000000Y-64000000D03*
X170000000Y-64000000D03*
X168730000Y-64000000D03*
X171270000Y-64000000D03*
X162730000Y-64000000D03*
X161460000Y-64000000D03*
X164000000Y-64000000D03*
X199700000Y-60000000D03*
X198430000Y-60000000D03*
X200970000Y-60000000D03*
X199730000Y-55000000D03*
X198460000Y-55000000D03*
X201000000Y-55000000D03*
X199730000Y-50000000D03*
X198460000Y-50000000D03*
X201000000Y-50000000D03*
D12*
X194000000Y-52000000D03*
X183840000Y-52000000D03*
X194000000Y-55000000D03*
X183840000Y-55000000D03*
X194030600Y-58013600D03*
X183870600Y-58013600D03*
X183840000Y-43000000D03*
X194000000Y-43000000D03*
X183850000Y-49000000D03*
X194010000Y-49000000D03*
X183850000Y-46000000D03*
X194010000Y-46000000D03*
X173160000Y-76000000D03*
X163000000Y-76000000D03*
X165000000Y-46000000D03*
X154840000Y-46000000D03*
X173160000Y-70000000D03*
X163000000Y-70000000D03*
X165000000Y-55000000D03*
X154840000Y-55000000D03*
X173160000Y-73000000D03*
X163000000Y-73000000D03*
X164910000Y-43000000D03*
X154750000Y-43000000D03*
X165000000Y-49000000D03*
X154840000Y-49000000D03*
X165000000Y-52000000D03*
X154840000Y-52000000D03*
X165000000Y-58000000D03*
X154840000Y-58000000D03*
X190000000Y-70000000D03*
X179840000Y-70000000D03*
X190060000Y-76100000D03*
X179900000Y-76100000D03*
X190060000Y-73000000D03*
X179900000Y-73000000D03*
X134797800Y-62026800D03*
X124637800Y-62026800D03*
D30*
X199466200Y-44000000D03*
D31*
X200736200Y-44000000D03*
D30*
X198196200Y-44000000D03*
X202006200Y-44000000D03*
D32*
X151900000Y-65200000D03*
X147267561Y-63791606D03*
X159251868Y-45818301D03*
X158420848Y-48789721D03*
X159984931Y-51999190D03*
X148480658Y-74517506D03*
X135500000Y-72500000D03*
X142253171Y-66612645D03*
X132300000Y-55700000D03*
D33*
X138300000Y-64750000D02*
X136564300Y-64750000D01*
X136564300Y-64750000D02*
X132800000Y-68514300D01*
X132800000Y-68514300D02*
X132800000Y-68826702D01*
D34*
X130400000Y-69000000D02*
X132626702Y-69000000D01*
X132626702Y-69000000D02*
X132800000Y-68826702D01*
D33*
X132800000Y-68826702D02*
X132800000Y-72367940D01*
X132800000Y-72367940D02*
X133920000Y-73487940D01*
X133920000Y-73487940D02*
X133920000Y-76000000D01*
X197100000Y-79000000D02*
X200400000Y-75700000D01*
X202500000Y-68450000D02*
X202500000Y-66000000D01*
X200400000Y-75700000D02*
X200400000Y-70550000D01*
X200400000Y-70550000D02*
X202500000Y-68450000D01*
X143000000Y-62000000D02*
X143000000Y-63462000D01*
X143000000Y-63462000D02*
X141717223Y-64744777D01*
X141717223Y-64744777D02*
X138305223Y-64744777D01*
X138305223Y-64744777D02*
X138300000Y-64750000D01*
D34*
X200736200Y-44000000D02*
X200736200Y-45756611D01*
X200736200Y-45756611D02*
X207000000Y-52020411D01*
X207000000Y-52020411D02*
X207000000Y-53190000D01*
X207000000Y-53190000D02*
X207000000Y-54460000D01*
D35*
X152900000Y-65200000D02*
X153375000Y-65675000D01*
X153375000Y-65675000D02*
X153375000Y-67100000D01*
X151900000Y-65200000D02*
X152900000Y-65200000D01*
D34*
X141356400Y-64750000D02*
X138300000Y-64750000D01*
D33*
X143000000Y-62000000D02*
X143000000Y-59460000D01*
X143000000Y-59460000D02*
X141160000Y-57620000D01*
X202500000Y-66000000D02*
X204400000Y-64100000D01*
X204400000Y-64100000D02*
X204400000Y-55282000D01*
X204400000Y-55282000D02*
X205222000Y-54460000D01*
X205222000Y-54460000D02*
X207000000Y-54460000D01*
X129088000Y-79000000D02*
X197100000Y-79000000D01*
X127500000Y-76000000D02*
X127500000Y-77412000D01*
X127500000Y-77412000D02*
X129088000Y-79000000D01*
D34*
X143000000Y-63106400D02*
X141356400Y-64750000D01*
X133920000Y-75099570D02*
X133920000Y-76000000D01*
X145555000Y-66700000D02*
X144848600Y-66700000D01*
X144848600Y-66700000D02*
X143000000Y-64851400D01*
X143000000Y-64851400D02*
X143000000Y-63106400D01*
X143000000Y-63106400D02*
X143000000Y-62000000D01*
D35*
X147903957Y-63791606D02*
X147267561Y-63791606D01*
X147976606Y-63791606D02*
X147903957Y-63791606D01*
X150835000Y-66650000D02*
X147976606Y-63791606D01*
X150835000Y-67100000D02*
X150835000Y-66650000D01*
X124637800Y-62026800D02*
X120840000Y-58229000D01*
X120840000Y-58229000D02*
X120840000Y-57620000D01*
X127000000Y-69000000D02*
X124637800Y-66637800D01*
X124637800Y-66637800D02*
X124637800Y-62026800D01*
X165689574Y-73310426D02*
X165689574Y-69608010D01*
X159251868Y-51502369D02*
X159251868Y-46454697D01*
X159153929Y-51600308D02*
X159251868Y-51502369D01*
X161583769Y-67608010D02*
X159153929Y-65178170D01*
X163689575Y-67608011D02*
X161583769Y-67608010D01*
X163000000Y-76000000D02*
X165689574Y-73310426D01*
X165689574Y-69608010D02*
X163689575Y-67608011D01*
X159251868Y-46454697D02*
X159251868Y-45818301D01*
X159153929Y-65178170D02*
X159153929Y-51600308D01*
X163000000Y-73000000D02*
X164700000Y-71300000D01*
X161373343Y-68116020D02*
X158420848Y-65163525D01*
X158420848Y-65163525D02*
X158420848Y-49426117D01*
X158420848Y-49426117D02*
X158420848Y-48789721D01*
X164700000Y-71300000D02*
X164700000Y-69336872D01*
X164700000Y-69336872D02*
X163479150Y-68116022D01*
X163479150Y-68116022D02*
X161373343Y-68116020D01*
X171381330Y-77581330D02*
X167600000Y-73800000D01*
X159984931Y-52635586D02*
X159984931Y-51999190D01*
X161794195Y-67100000D02*
X159984931Y-65290736D01*
X163900000Y-67100000D02*
X161794195Y-67100000D01*
X167600000Y-70800000D02*
X163900000Y-67100000D01*
X174718670Y-77581330D02*
X171381330Y-77581330D01*
X167600000Y-73800000D02*
X167600000Y-70800000D01*
X179840000Y-70000000D02*
X176600000Y-73240000D01*
X176600000Y-75700000D02*
X174718670Y-77581330D01*
X159984931Y-65290736D02*
X159984931Y-52635586D01*
X176600000Y-73240000D02*
X176600000Y-75700000D01*
X126000000Y-41600000D02*
X126000000Y-42300000D01*
X126000000Y-42300000D02*
X125920000Y-42380000D01*
X126351001Y-41248999D02*
X126000000Y-41600000D01*
X204700000Y-44400000D02*
X201548999Y-41248999D01*
X201548999Y-41248999D02*
X126351001Y-41248999D01*
X204700000Y-46970000D02*
X204700000Y-44400000D01*
X207000000Y-48000000D02*
X205730000Y-48000000D01*
X205730000Y-48000000D02*
X204700000Y-46970000D01*
X207000000Y-45460000D02*
X205984001Y-44444001D01*
X205984001Y-44444001D02*
X205984001Y-44384001D01*
X205984001Y-44384001D02*
X202200474Y-40600474D01*
X202200474Y-40600474D02*
X125159526Y-40600474D01*
X125159526Y-40600474D02*
X124129999Y-41630001D01*
X124129999Y-41630001D02*
X123380000Y-42380000D01*
X148930657Y-74067507D02*
X148480658Y-74517506D01*
X152105000Y-70893164D02*
X148930657Y-74067507D01*
X152105000Y-67100000D02*
X152105000Y-70893164D01*
X147100000Y-73100000D02*
X148295000Y-71905000D01*
X148295000Y-71905000D02*
X148295000Y-68655000D01*
X140800000Y-73100000D02*
X147100000Y-73100000D01*
X140200000Y-72500000D02*
X140800000Y-73100000D01*
X135500000Y-72500000D02*
X137000000Y-72500000D01*
X137000000Y-72500000D02*
X140200000Y-72500000D01*
X148295000Y-68655000D02*
X148295000Y-67100000D01*
X194000000Y-43000000D02*
X195413492Y-43000000D01*
X195413492Y-43000000D02*
X201000000Y-48586508D01*
X201000000Y-48586508D02*
X201000000Y-50000000D01*
X195009489Y-49999489D02*
X194010000Y-49000000D01*
X197301786Y-52291786D02*
X195009489Y-49999489D01*
X198592776Y-52291786D02*
X197301786Y-52291786D01*
X201000000Y-54699010D02*
X198592776Y-52291786D01*
X201000000Y-55000000D02*
X201000000Y-54699010D01*
X194010000Y-46000000D02*
X196252834Y-48242834D01*
X196252834Y-49945579D02*
X198091030Y-51783775D01*
X196252834Y-48242834D02*
X196252834Y-49945579D01*
X198091030Y-51783775D02*
X199519180Y-51783775D01*
X199519180Y-51783775D02*
X202090586Y-54355181D01*
X202090586Y-54355181D02*
X202090586Y-59409414D01*
X202090586Y-59409414D02*
X201500000Y-60000000D01*
X201500000Y-60000000D02*
X200970000Y-60000000D01*
X162730000Y-64000000D02*
X162730000Y-65165756D01*
X162730000Y-65165756D02*
X168379444Y-70815200D01*
X168379444Y-70815200D02*
X168379444Y-73500713D01*
X168379444Y-73500713D02*
X170863529Y-75984798D01*
X170863529Y-75984798D02*
X173144798Y-75984798D01*
X173144798Y-75984798D02*
X173160000Y-76000000D01*
X173160000Y-73000000D02*
X170000000Y-69840000D01*
X170000000Y-69840000D02*
X170000000Y-64000000D01*
X191730000Y-64000000D02*
X191730000Y-68270000D01*
X191730000Y-68270000D02*
X190000000Y-70000000D01*
X177000000Y-64000000D02*
X177000000Y-65004570D01*
X189190783Y-75740783D02*
X189700783Y-75740783D01*
X177000000Y-65004570D02*
X179245430Y-67250000D01*
X179245430Y-67250000D02*
X180700000Y-67250000D01*
X180700000Y-67250000D02*
X189190783Y-75740783D01*
X184000000Y-64000000D02*
X184000000Y-67900000D01*
X184000000Y-67900000D02*
X189100000Y-73000000D01*
X189100000Y-73000000D02*
X190060000Y-73000000D01*
X147213011Y-59791989D02*
X145755000Y-61250000D01*
X151800000Y-57144692D02*
X149152703Y-59791989D01*
X149152703Y-59791989D02*
X147213011Y-59791989D01*
X151800000Y-49400000D02*
X151800000Y-57144692D01*
X145755000Y-61250000D02*
X145755000Y-61700000D01*
X151800000Y-49400000D02*
X151800000Y-49200000D01*
X152640000Y-48200000D02*
X153140000Y-47700000D01*
X153140000Y-47700000D02*
X154840000Y-46000000D01*
X151800000Y-49400000D02*
X151800000Y-49040000D01*
X151800000Y-49040000D02*
X153140000Y-47700000D01*
X152600000Y-48200000D02*
X151800000Y-49000000D01*
X151800000Y-49000000D02*
X151800000Y-49200000D01*
X152640000Y-48200000D02*
X152600000Y-48200000D01*
X163000000Y-70000000D02*
X160093554Y-70000000D01*
X160093554Y-70000000D02*
X154190457Y-64096903D01*
X154190457Y-64096903D02*
X150241903Y-64096903D01*
X150241903Y-64096903D02*
X148295000Y-62150000D01*
X148295000Y-62150000D02*
X148295000Y-61700000D01*
X150835000Y-60265000D02*
X153459509Y-57640491D01*
X153459509Y-56380491D02*
X153840511Y-55999489D01*
X153459509Y-57640491D02*
X153459509Y-56380491D01*
X153840511Y-55999489D02*
X154840000Y-55000000D01*
X150835000Y-61700000D02*
X150835000Y-60265000D01*
X144873999Y-62773999D02*
X146825000Y-64725000D01*
X146825000Y-64725000D02*
X146825000Y-66700000D01*
X144873999Y-60844323D02*
X144873999Y-62773999D01*
X146518322Y-59200000D02*
X144873999Y-60844323D01*
X148965617Y-59200000D02*
X146518322Y-59200000D01*
X151291990Y-48789576D02*
X151291990Y-56873627D01*
X152389575Y-47691991D02*
X151291990Y-48789576D01*
X152429576Y-47691990D02*
X152389575Y-47691991D01*
X152900000Y-47221566D02*
X152429576Y-47691990D01*
X151291990Y-56873627D02*
X148965617Y-59200000D01*
X152900000Y-44850000D02*
X152900000Y-47221566D01*
X154750000Y-43000000D02*
X152900000Y-44850000D01*
X152391989Y-57271139D02*
X152391990Y-51448010D01*
X149363128Y-60300000D02*
X152391989Y-57271139D01*
X153840511Y-49999489D02*
X154840000Y-49000000D01*
X147975000Y-60300000D02*
X149363128Y-60300000D01*
X147025000Y-61250000D02*
X147975000Y-60300000D01*
X152391990Y-51448010D02*
X153840511Y-49999489D01*
X147025000Y-61700000D02*
X147025000Y-61250000D01*
X149565000Y-61250000D02*
X149565000Y-61700000D01*
X152900000Y-53940000D02*
X152900000Y-57481564D01*
X150119000Y-60262564D02*
X150119000Y-60696000D01*
X150119000Y-60696000D02*
X149565000Y-61250000D01*
X154840000Y-52000000D02*
X152900000Y-53940000D01*
X152900000Y-57481564D02*
X150119000Y-60262564D01*
X152105000Y-61700000D02*
X152105000Y-60696000D01*
X152105000Y-60696000D02*
X152100000Y-60691000D01*
X152100000Y-60691000D02*
X152100000Y-59800000D01*
X152100000Y-59800000D02*
X153900000Y-58000000D01*
X153900000Y-58000000D02*
X154840000Y-58000000D01*
X154755000Y-58000000D02*
X154840000Y-58000000D01*
X145266682Y-69672200D02*
X145266682Y-69626156D01*
X145266682Y-69626156D02*
X142703170Y-67062644D01*
X142703170Y-67062644D02*
X142253171Y-66612645D01*
X145266682Y-69672200D02*
X145549600Y-69955118D01*
X146184600Y-70053200D02*
X145647682Y-70053200D01*
X145647682Y-70053200D02*
X145266682Y-69672200D01*
X136100000Y-47100000D02*
X136100000Y-46800000D01*
X136100000Y-43460660D02*
X136100000Y-46800000D01*
X136080000Y-42380000D02*
X136080000Y-43440660D01*
X136080000Y-43440660D02*
X136100000Y-43460660D01*
X132300000Y-50900000D02*
X136100000Y-47100000D01*
X132300000Y-55700000D02*
X132300000Y-50900000D01*
X168730000Y-64000000D02*
X168730000Y-50948000D01*
X168730000Y-50948000D02*
X170218000Y-49460000D01*
X170218000Y-49460000D02*
X170380000Y-49460000D01*
X178000000Y-49460000D02*
X179016000Y-49460000D01*
X179016000Y-49460000D02*
X181237262Y-51681262D01*
X181237262Y-51681262D02*
X181237262Y-60487262D01*
X181237262Y-60487262D02*
X183000000Y-62250000D01*
X183000000Y-62250000D02*
X188006420Y-62250000D01*
X188006420Y-62250000D02*
X189756420Y-64000000D01*
X189756420Y-64000000D02*
X190460000Y-64000000D01*
X178000000Y-57080000D02*
X176984000Y-57080000D01*
X176984000Y-57080000D02*
X175730000Y-58334000D01*
X175730000Y-58334000D02*
X175730000Y-62995430D01*
X175730000Y-62995430D02*
X175730000Y-64000000D01*
X182730000Y-63699010D02*
X182730000Y-64000000D01*
X178000000Y-55394000D02*
X179991989Y-57385989D01*
X178000000Y-54540000D02*
X178000000Y-55394000D01*
X179991989Y-60960999D02*
X182730000Y-63699010D01*
X179991989Y-57385989D02*
X179991989Y-60960999D01*
X173160000Y-70000000D02*
X173160000Y-56678000D01*
X173160000Y-56678000D02*
X177838000Y-52000000D01*
X177838000Y-52000000D02*
X178000000Y-52000000D01*
X161460000Y-64000000D02*
X161460000Y-63699010D01*
X161460000Y-63699010D02*
X163100000Y-62059010D01*
X163100000Y-62059010D02*
X165240990Y-62059010D01*
X165240990Y-62059010D02*
X167410582Y-59889418D01*
X169364000Y-44380000D02*
X170380000Y-44380000D01*
X167410582Y-59889418D02*
X167410582Y-46333418D01*
X167410582Y-46333418D02*
X169364000Y-44380000D01*
D36*
G36*
X123743633Y-41333867D02*
X123600882Y-41274592D01*
X123161047Y-41274208D01*
X122754546Y-41442171D01*
X122443264Y-41752910D01*
X122274592Y-42159118D01*
X122274208Y-42598953D01*
X122442171Y-43005454D01*
X122752910Y-43316736D01*
X123159118Y-43485408D01*
X123598953Y-43485792D01*
X124005454Y-43317829D01*
X124316736Y-43007090D01*
X124485408Y-42600882D01*
X124485792Y-42161047D01*
X124426047Y-42016453D01*
X125359426Y-41083074D01*
X125834427Y-41083074D01*
X125658750Y-41258750D01*
X125628351Y-41304245D01*
X125294546Y-41442171D01*
X124983264Y-41752910D01*
X124814592Y-42159118D01*
X124814208Y-42598953D01*
X124982171Y-43005454D01*
X125292910Y-43316736D01*
X125699118Y-43485408D01*
X126138953Y-43485792D01*
X126545454Y-43317829D01*
X126856736Y-43007090D01*
X127025408Y-42600882D01*
X127025792Y-42161047D01*
X126857829Y-41754546D01*
X126834922Y-41731599D01*
X127544612Y-41731599D01*
X127523264Y-41752910D01*
X127354592Y-42159118D01*
X127354208Y-42598953D01*
X127522171Y-43005454D01*
X127832910Y-43316736D01*
X128239118Y-43485408D01*
X128678953Y-43485792D01*
X129085454Y-43317829D01*
X129396736Y-43007090D01*
X129565408Y-42600882D01*
X129565792Y-42161047D01*
X129397829Y-41754546D01*
X129374922Y-41731599D01*
X130084612Y-41731599D01*
X130063264Y-41752910D01*
X129894592Y-42159118D01*
X129894208Y-42598953D01*
X130062171Y-43005454D01*
X130372910Y-43316736D01*
X130779118Y-43485408D01*
X131218953Y-43485792D01*
X131625454Y-43317829D01*
X131936736Y-43007090D01*
X132105408Y-42600882D01*
X132105792Y-42161047D01*
X131937829Y-41754546D01*
X131914922Y-41731599D01*
X132624612Y-41731599D01*
X132603264Y-41752910D01*
X132434592Y-42159118D01*
X132434208Y-42598953D01*
X132602171Y-43005454D01*
X132912910Y-43316736D01*
X133319118Y-43485408D01*
X133758953Y-43485792D01*
X134165454Y-43317829D01*
X134476736Y-43007090D01*
X134645408Y-42600882D01*
X134645792Y-42161047D01*
X134477829Y-41754546D01*
X134454922Y-41731599D01*
X135164612Y-41731599D01*
X135143264Y-41752910D01*
X134974592Y-42159118D01*
X134974208Y-42598953D01*
X135142171Y-43005454D01*
X135452910Y-43316736D01*
X135597400Y-43376733D01*
X135597400Y-43440660D01*
X135617400Y-43541206D01*
X135617400Y-46900101D01*
X131958750Y-50558750D01*
X131854136Y-50715317D01*
X131817400Y-50900000D01*
X131817400Y-55043460D01*
X131617443Y-55243068D01*
X131494540Y-55539053D01*
X131494260Y-55859541D01*
X131616647Y-56155740D01*
X131843068Y-56382557D01*
X132139053Y-56505460D01*
X132459541Y-56505740D01*
X132755740Y-56383353D01*
X132982557Y-56156932D01*
X133105460Y-55860947D01*
X133105740Y-55540459D01*
X132983353Y-55244260D01*
X132782600Y-55043156D01*
X132782600Y-51099900D01*
X136441247Y-47441252D01*
X136441250Y-47441250D01*
X136545864Y-47284683D01*
X136551940Y-47254136D01*
X136582601Y-47100000D01*
X136582600Y-47099995D01*
X136582600Y-43460660D01*
X136565677Y-43375584D01*
X136705454Y-43317829D01*
X137016736Y-43007090D01*
X137185408Y-42600882D01*
X137185792Y-42161047D01*
X137017829Y-41754546D01*
X136994922Y-41731599D01*
X137704612Y-41731599D01*
X137683264Y-41752910D01*
X137514592Y-42159118D01*
X137514208Y-42598953D01*
X137682171Y-43005454D01*
X137992910Y-43316736D01*
X138399118Y-43485408D01*
X138838953Y-43485792D01*
X139245454Y-43317829D01*
X139431635Y-43131972D01*
X140443949Y-43131972D01*
X140518130Y-43306671D01*
X140921612Y-43481766D01*
X141361385Y-43489127D01*
X141770500Y-43327633D01*
X141801870Y-43306671D01*
X141876051Y-43131972D01*
X141160000Y-42415921D01*
X140443949Y-43131972D01*
X139431635Y-43131972D01*
X139556736Y-43007090D01*
X139725408Y-42600882D01*
X139725792Y-42161047D01*
X139557829Y-41754546D01*
X139534922Y-41731599D01*
X140248710Y-41731599D01*
X140233329Y-41738130D01*
X140058234Y-42141612D01*
X140050873Y-42581385D01*
X140212367Y-42990500D01*
X140233329Y-43021870D01*
X140408028Y-43096051D01*
X141124079Y-42380000D01*
X141109937Y-42365858D01*
X141145858Y-42329937D01*
X141160000Y-42344079D01*
X141174143Y-42329937D01*
X141210064Y-42365858D01*
X141195921Y-42380000D01*
X141911972Y-43096051D01*
X142086671Y-43021870D01*
X142261766Y-42618388D01*
X142269127Y-42178615D01*
X142107633Y-41769500D01*
X142086671Y-41738130D01*
X142071290Y-41731599D01*
X142784612Y-41731599D01*
X142763264Y-41752910D01*
X142594592Y-42159118D01*
X142594208Y-42598953D01*
X142762171Y-43005454D01*
X143072910Y-43316736D01*
X143479118Y-43485408D01*
X143918953Y-43485792D01*
X144325454Y-43317829D01*
X144636736Y-43007090D01*
X144805408Y-42600882D01*
X144805792Y-42161047D01*
X144637829Y-41754546D01*
X144614922Y-41731599D01*
X145324612Y-41731599D01*
X145303264Y-41752910D01*
X145134592Y-42159118D01*
X145134208Y-42598953D01*
X145302171Y-43005454D01*
X145612910Y-43316736D01*
X146019118Y-43485408D01*
X146458953Y-43485792D01*
X146865454Y-43317829D01*
X147176736Y-43007090D01*
X147345408Y-42600882D01*
X147345792Y-42161047D01*
X147177829Y-41754546D01*
X147154922Y-41731599D01*
X147864612Y-41731599D01*
X147843264Y-41752910D01*
X147674592Y-42159118D01*
X147674208Y-42598953D01*
X147842171Y-43005454D01*
X148152910Y-43316736D01*
X148559118Y-43485408D01*
X148998953Y-43485792D01*
X149405454Y-43317829D01*
X149716736Y-43007090D01*
X149885408Y-42600882D01*
X149885792Y-42161047D01*
X149717829Y-41754546D01*
X149694922Y-41731599D01*
X201349099Y-41731599D01*
X204217400Y-44599899D01*
X204217400Y-46970000D01*
X204254136Y-47154683D01*
X204358750Y-47311250D01*
X205388750Y-48341250D01*
X205545317Y-48445864D01*
X205621434Y-48461005D01*
X205621434Y-49016000D01*
X205646230Y-49147777D01*
X205724110Y-49268807D01*
X205842942Y-49350001D01*
X205984000Y-49378566D01*
X208016000Y-49378566D01*
X208147777Y-49353770D01*
X208268807Y-49275890D01*
X208350001Y-49157058D01*
X208378566Y-49016000D01*
X208378566Y-46984000D01*
X208353770Y-46852223D01*
X208275890Y-46731193D01*
X208157058Y-46649999D01*
X208016000Y-46621434D01*
X207710040Y-46621434D01*
X207996739Y-46429868D01*
X208294064Y-45984889D01*
X208398471Y-45460000D01*
X208294064Y-44935111D01*
X207996739Y-44490132D01*
X207551760Y-44192807D01*
X207026871Y-44088400D01*
X206973129Y-44088400D01*
X206448240Y-44192807D01*
X206430878Y-44204408D01*
X206429865Y-44199318D01*
X206325251Y-44042751D01*
X202713100Y-40430600D01*
X209569400Y-40430600D01*
X209569400Y-79569400D01*
X197637883Y-79569400D01*
X197656776Y-79556776D01*
X200956776Y-76256776D01*
X201127463Y-76001325D01*
X201187400Y-75700000D01*
X201187400Y-73367482D01*
X203144079Y-73367482D01*
X203425982Y-74049740D01*
X203947515Y-74572184D01*
X204629279Y-74855277D01*
X205367482Y-74855921D01*
X206049740Y-74574018D01*
X206572184Y-74052485D01*
X206855277Y-73370721D01*
X206855921Y-72632518D01*
X206574018Y-71950260D01*
X206052485Y-71427816D01*
X205370721Y-71144723D01*
X204632518Y-71144079D01*
X203950260Y-71425982D01*
X203427816Y-71947515D01*
X203144723Y-72629279D01*
X203144079Y-73367482D01*
X201187400Y-73367482D01*
X201187400Y-70876152D01*
X203056776Y-69006776D01*
X203227463Y-68751325D01*
X203287400Y-68450000D01*
X203287400Y-67115495D01*
X203317698Y-67095251D01*
X203568374Y-66720088D01*
X203656400Y-66277553D01*
X203656400Y-65957152D01*
X204956776Y-64656776D01*
X205127463Y-64401325D01*
X205187400Y-64100000D01*
X205187400Y-62295771D01*
X205647646Y-62295771D01*
X205711486Y-62523101D01*
X205967535Y-62924144D01*
X206357566Y-63196674D01*
X206822200Y-63299200D01*
X206974600Y-63299200D01*
X206974600Y-62105400D01*
X207025400Y-62105400D01*
X207025400Y-63299200D01*
X207177800Y-63299200D01*
X207642434Y-63196674D01*
X208032465Y-62924144D01*
X208288514Y-62523101D01*
X208352354Y-62295771D01*
X208282415Y-62105400D01*
X207025400Y-62105400D01*
X206974600Y-62105400D01*
X205717585Y-62105400D01*
X205647646Y-62295771D01*
X205187400Y-62295771D01*
X205187400Y-61864229D01*
X205647646Y-61864229D01*
X205717585Y-62054600D01*
X206974600Y-62054600D01*
X206974600Y-60860800D01*
X207025400Y-60860800D01*
X207025400Y-62054600D01*
X208282415Y-62054600D01*
X208352354Y-61864229D01*
X208288514Y-61636899D01*
X208032465Y-61235856D01*
X207642434Y-60963326D01*
X207177800Y-60860800D01*
X207025400Y-60860800D01*
X206974600Y-60860800D01*
X206822200Y-60860800D01*
X206357566Y-60963326D01*
X205967535Y-61235856D01*
X205711486Y-61636899D01*
X205647646Y-61864229D01*
X205187400Y-61864229D01*
X205187400Y-59540000D01*
X205601529Y-59540000D01*
X205694335Y-60006568D01*
X205958624Y-60402105D01*
X206354161Y-60666394D01*
X206820729Y-60759200D01*
X207179271Y-60759200D01*
X207645839Y-60666394D01*
X208041376Y-60402105D01*
X208305665Y-60006568D01*
X208398471Y-59540000D01*
X208305665Y-59073432D01*
X208041376Y-58677895D01*
X207645839Y-58413606D01*
X207179271Y-58320800D01*
X206820729Y-58320800D01*
X206354161Y-58413606D01*
X205958624Y-58677895D01*
X205694335Y-59073432D01*
X205601529Y-59540000D01*
X205187400Y-59540000D01*
X205187400Y-57000000D01*
X205601529Y-57000000D01*
X205694335Y-57466568D01*
X205958624Y-57862105D01*
X206354161Y-58126394D01*
X206820729Y-58219200D01*
X207179271Y-58219200D01*
X207645839Y-58126394D01*
X208041376Y-57862105D01*
X208305665Y-57466568D01*
X208398471Y-57000000D01*
X208305665Y-56533432D01*
X208041376Y-56137895D01*
X207645839Y-55873606D01*
X207179271Y-55780800D01*
X206820729Y-55780800D01*
X206354161Y-55873606D01*
X205958624Y-56137895D01*
X205694335Y-56533432D01*
X205601529Y-57000000D01*
X205187400Y-57000000D01*
X205187400Y-55608152D01*
X205548152Y-55247400D01*
X205569639Y-55247400D01*
X205569639Y-55323600D01*
X205597977Y-55474203D01*
X205686983Y-55612522D01*
X205822790Y-55705315D01*
X205984000Y-55737961D01*
X208016000Y-55737961D01*
X208166603Y-55709623D01*
X208304922Y-55620617D01*
X208397715Y-55484810D01*
X208430361Y-55323600D01*
X208430361Y-53596400D01*
X208402023Y-53445797D01*
X208313017Y-53307478D01*
X208177210Y-53214685D01*
X208016000Y-53182039D01*
X207609600Y-53182039D01*
X207609600Y-52020411D01*
X207563197Y-51787127D01*
X207431052Y-51589359D01*
X201345800Y-45504107D01*
X201345800Y-45030234D01*
X201475122Y-44947017D01*
X201536997Y-44856459D01*
X201697910Y-44963978D01*
X202006200Y-45025301D01*
X202314490Y-44963978D01*
X202575845Y-44789346D01*
X202750477Y-44527991D01*
X202811800Y-44219701D01*
X202811800Y-43780299D01*
X202750477Y-43472009D01*
X202575845Y-43210654D01*
X202314490Y-43036022D01*
X202006200Y-42974699D01*
X201697910Y-43036022D01*
X201536496Y-43143876D01*
X201483217Y-43061078D01*
X201347410Y-42968285D01*
X201186200Y-42935639D01*
X200286200Y-42935639D01*
X200135597Y-42963977D01*
X199997278Y-43052983D01*
X199935403Y-43143541D01*
X199774490Y-43036022D01*
X199466200Y-42974699D01*
X199157910Y-43036022D01*
X198896555Y-43210654D01*
X198831200Y-43308465D01*
X198765845Y-43210654D01*
X198504490Y-43036022D01*
X198196200Y-42974699D01*
X197887910Y-43036022D01*
X197626555Y-43210654D01*
X197451923Y-43472009D01*
X197390600Y-43780299D01*
X197390600Y-44219701D01*
X197409200Y-44313208D01*
X195754742Y-42658750D01*
X195598175Y-42554136D01*
X195413492Y-42517400D01*
X194996855Y-42517400D01*
X194937829Y-42374546D01*
X194627090Y-42063264D01*
X194220882Y-41894592D01*
X193781047Y-41894208D01*
X193374546Y-42062171D01*
X193063264Y-42372910D01*
X192894592Y-42779118D01*
X192894208Y-43218953D01*
X193062171Y-43625454D01*
X193372910Y-43936736D01*
X193779118Y-44105408D01*
X194218953Y-44105792D01*
X194625454Y-43937829D01*
X194936736Y-43627090D01*
X194996733Y-43482600D01*
X195213592Y-43482600D01*
X200517400Y-48786407D01*
X200517400Y-49040973D01*
X200394999Y-49122758D01*
X200365000Y-49167655D01*
X200335001Y-49122758D01*
X200057424Y-48937288D01*
X199730000Y-48872159D01*
X199402576Y-48937288D01*
X199124999Y-49122758D01*
X199085978Y-49181158D01*
X199047040Y-49126469D01*
X198763957Y-48949239D01*
X198618874Y-48908710D01*
X198485400Y-48983151D01*
X198485400Y-49974600D01*
X198505400Y-49974600D01*
X198505400Y-50025400D01*
X198485400Y-50025400D01*
X198485400Y-51016849D01*
X198618874Y-51091290D01*
X198763957Y-51050761D01*
X199047040Y-50873531D01*
X199085978Y-50818842D01*
X199124999Y-50877242D01*
X199402576Y-51062712D01*
X199730000Y-51127841D01*
X200057424Y-51062712D01*
X200335001Y-50877242D01*
X200365000Y-50832345D01*
X200394999Y-50877242D01*
X200672576Y-51062712D01*
X201000000Y-51127841D01*
X201327424Y-51062712D01*
X201605001Y-50877242D01*
X201790471Y-50599665D01*
X201855600Y-50272241D01*
X201855600Y-49727759D01*
X201790471Y-49400335D01*
X201605001Y-49122758D01*
X201482600Y-49040973D01*
X201482600Y-48586508D01*
X201445864Y-48401825D01*
X201341250Y-48245258D01*
X201341247Y-48245256D01*
X198102693Y-45006701D01*
X198196200Y-45025301D01*
X198504490Y-44963978D01*
X198765845Y-44789346D01*
X198831200Y-44691535D01*
X198896555Y-44789346D01*
X199157910Y-44963978D01*
X199466200Y-45025301D01*
X199774490Y-44963978D01*
X199935904Y-44856124D01*
X199989183Y-44938922D01*
X200124990Y-45031715D01*
X200126600Y-45032041D01*
X200126600Y-45756611D01*
X200173003Y-45989895D01*
X200305148Y-46187663D01*
X206390400Y-52272915D01*
X206390400Y-53182039D01*
X205984000Y-53182039D01*
X205833397Y-53210377D01*
X205695078Y-53299383D01*
X205602285Y-53435190D01*
X205569639Y-53596400D01*
X205569639Y-53672600D01*
X205222000Y-53672600D01*
X204920675Y-53732537D01*
X204665224Y-53903224D01*
X203843224Y-54725224D01*
X203672537Y-54980675D01*
X203612600Y-55282000D01*
X203612600Y-63773848D01*
X202767243Y-64619205D01*
X202500000Y-64566047D01*
X202057465Y-64654073D01*
X201682302Y-64904749D01*
X201431626Y-65279912D01*
X201343600Y-65722447D01*
X201343600Y-66277553D01*
X201431626Y-66720088D01*
X201682302Y-67095251D01*
X201712600Y-67115495D01*
X201712600Y-68123848D01*
X199843224Y-69993224D01*
X199672537Y-70248675D01*
X199612600Y-70550000D01*
X199612600Y-75373848D01*
X196773848Y-78212600D01*
X129414152Y-78212600D01*
X128287400Y-77085848D01*
X128287400Y-77038507D01*
X128300603Y-77036023D01*
X128438922Y-76947017D01*
X128531715Y-76811210D01*
X128564361Y-76650000D01*
X128564361Y-75350000D01*
X128536023Y-75199397D01*
X128447017Y-75061078D01*
X128311210Y-74968285D01*
X128150000Y-74935639D01*
X126850000Y-74935639D01*
X126699397Y-74963977D01*
X126561078Y-75052983D01*
X126468285Y-75188790D01*
X126435639Y-75350000D01*
X126435639Y-75631464D01*
X126360673Y-75442791D01*
X126344160Y-75418077D01*
X126179852Y-75356069D01*
X125535921Y-76000000D01*
X126179852Y-76643931D01*
X126344160Y-76581923D01*
X126435639Y-76369823D01*
X126435639Y-76650000D01*
X126463977Y-76800603D01*
X126552983Y-76938922D01*
X126688790Y-77031715D01*
X126712600Y-77036537D01*
X126712600Y-77412000D01*
X126772537Y-77713325D01*
X126943224Y-77968776D01*
X128531224Y-79556776D01*
X128550117Y-79569400D01*
X110430600Y-79569400D01*
X110430600Y-78237113D01*
X115815298Y-78237113D01*
X115887869Y-78495300D01*
X116173486Y-78940594D01*
X116607768Y-79242691D01*
X117124600Y-79355600D01*
X118124600Y-79355600D01*
X118124600Y-78025400D01*
X118175400Y-78025400D01*
X118175400Y-79355600D01*
X119175400Y-79355600D01*
X119692232Y-79242691D01*
X120126514Y-78940594D01*
X120412131Y-78495300D01*
X120484702Y-78237113D01*
X120416445Y-78025400D01*
X118175400Y-78025400D01*
X118124600Y-78025400D01*
X115883555Y-78025400D01*
X115815298Y-78237113D01*
X110430600Y-78237113D01*
X110430600Y-77762887D01*
X115815298Y-77762887D01*
X115883555Y-77974600D01*
X118124600Y-77974600D01*
X118124600Y-76644400D01*
X118175400Y-76644400D01*
X118175400Y-77974600D01*
X120416445Y-77974600D01*
X120484702Y-77762887D01*
X120412131Y-77504700D01*
X120126514Y-77059406D01*
X119692232Y-76757309D01*
X119337679Y-76679852D01*
X124856069Y-76679852D01*
X124918077Y-76844160D01*
X125285419Y-77002595D01*
X125685430Y-77008393D01*
X126057209Y-76860673D01*
X126081923Y-76844160D01*
X126143931Y-76679852D01*
X125500000Y-76035921D01*
X124856069Y-76679852D01*
X119337679Y-76679852D01*
X119175400Y-76644400D01*
X118175400Y-76644400D01*
X118124600Y-76644400D01*
X117124600Y-76644400D01*
X116607768Y-76757309D01*
X116173486Y-77059406D01*
X115887869Y-77504700D01*
X115815298Y-77762887D01*
X110430600Y-77762887D01*
X110430600Y-76185430D01*
X124491607Y-76185430D01*
X124639327Y-76557209D01*
X124655840Y-76581923D01*
X124820148Y-76643931D01*
X125464079Y-76000000D01*
X124820148Y-75356069D01*
X124655840Y-75418077D01*
X124497405Y-75785419D01*
X124491607Y-76185430D01*
X110430600Y-76185430D01*
X110430600Y-73025400D01*
X113494400Y-73025400D01*
X113494400Y-74025400D01*
X113607309Y-74542232D01*
X113909406Y-74976514D01*
X114354700Y-75262131D01*
X114612887Y-75334702D01*
X114824600Y-75266445D01*
X114824600Y-73025400D01*
X114875400Y-73025400D01*
X114875400Y-75266445D01*
X115087113Y-75334702D01*
X115345300Y-75262131D01*
X115790594Y-74976514D01*
X116092691Y-74542232D01*
X116205600Y-74025400D01*
X116205600Y-73025400D01*
X114875400Y-73025400D01*
X114824600Y-73025400D01*
X113494400Y-73025400D01*
X110430600Y-73025400D01*
X110430600Y-71974600D01*
X113494400Y-71974600D01*
X113494400Y-72974600D01*
X114824600Y-72974600D01*
X114824600Y-70733555D01*
X114875400Y-70733555D01*
X114875400Y-72974600D01*
X116205600Y-72974600D01*
X116205600Y-71974600D01*
X116200850Y-71952856D01*
X119593600Y-71952856D01*
X119593600Y-74047144D01*
X119700656Y-74585350D01*
X120005525Y-75041619D01*
X120461794Y-75346488D01*
X121000000Y-75453544D01*
X121538206Y-75346488D01*
X121577626Y-75320148D01*
X124856069Y-75320148D01*
X125500000Y-75964079D01*
X126143931Y-75320148D01*
X126081923Y-75155840D01*
X125714581Y-74997405D01*
X125314570Y-74991607D01*
X124942791Y-75139327D01*
X124918077Y-75155840D01*
X124856069Y-75320148D01*
X121577626Y-75320148D01*
X121994475Y-75041619D01*
X122299344Y-74585350D01*
X122406400Y-74047144D01*
X122406400Y-71952856D01*
X122299344Y-71414650D01*
X121994475Y-70958381D01*
X121538206Y-70653512D01*
X121000000Y-70546456D01*
X120461794Y-70653512D01*
X120005525Y-70958381D01*
X119700656Y-71414650D01*
X119593600Y-71952856D01*
X116200850Y-71952856D01*
X116092691Y-71457768D01*
X115790594Y-71023486D01*
X115345300Y-70737869D01*
X115087113Y-70665298D01*
X114875400Y-70733555D01*
X114824600Y-70733555D01*
X114612887Y-70665298D01*
X114354700Y-70737869D01*
X113909406Y-71023486D01*
X113607309Y-71457768D01*
X113494400Y-71974600D01*
X110430600Y-71974600D01*
X110430600Y-65248744D01*
X110743753Y-65248744D01*
X110934569Y-65710554D01*
X111287587Y-66064189D01*
X111749064Y-66255811D01*
X112248744Y-66256247D01*
X112710554Y-66065431D01*
X113064189Y-65712413D01*
X113255811Y-65250936D01*
X113256247Y-64751256D01*
X113065431Y-64289446D01*
X112926598Y-64150370D01*
X120896009Y-64150370D01*
X120896009Y-65849630D01*
X120924347Y-66000233D01*
X121013353Y-66138552D01*
X121149160Y-66231345D01*
X121310370Y-66263991D01*
X123009630Y-66263991D01*
X123160233Y-66235653D01*
X123298552Y-66146647D01*
X123391345Y-66010840D01*
X123423991Y-65849630D01*
X123423991Y-64150370D01*
X123395653Y-63999767D01*
X123306647Y-63861448D01*
X123170840Y-63768655D01*
X123009630Y-63736009D01*
X121310370Y-63736009D01*
X121159767Y-63764347D01*
X121021448Y-63853353D01*
X120928655Y-63989160D01*
X120896009Y-64150370D01*
X112926598Y-64150370D01*
X112712413Y-63935811D01*
X112250936Y-63744189D01*
X111751256Y-63743753D01*
X111289446Y-63934569D01*
X110935811Y-64287587D01*
X110744189Y-64749064D01*
X110743753Y-65248744D01*
X110430600Y-65248744D01*
X110430600Y-57838953D01*
X112114208Y-57838953D01*
X112282171Y-58245454D01*
X112592910Y-58556736D01*
X112999118Y-58725408D01*
X113438953Y-58725792D01*
X113845454Y-58557829D01*
X114156736Y-58247090D01*
X114325408Y-57840882D01*
X114325409Y-57838953D01*
X114654208Y-57838953D01*
X114822171Y-58245454D01*
X115132910Y-58556736D01*
X115539118Y-58725408D01*
X115978953Y-58725792D01*
X116385454Y-58557829D01*
X116696736Y-58247090D01*
X116865408Y-57840882D01*
X116865409Y-57838953D01*
X117194208Y-57838953D01*
X117362171Y-58245454D01*
X117672910Y-58556736D01*
X118079118Y-58725408D01*
X118518953Y-58725792D01*
X118925454Y-58557829D01*
X119236736Y-58247090D01*
X119405408Y-57840882D01*
X119405409Y-57838953D01*
X119734208Y-57838953D01*
X119902171Y-58245454D01*
X120212910Y-58556736D01*
X120619118Y-58725408D01*
X120653938Y-58725438D01*
X123591667Y-61663167D01*
X123532392Y-61805918D01*
X123532008Y-62245753D01*
X123699971Y-62652254D01*
X124010710Y-62963536D01*
X124155200Y-63023533D01*
X124155200Y-66637800D01*
X124191936Y-66822483D01*
X124296550Y-66979050D01*
X126068632Y-68751132D01*
X126044567Y-68809086D01*
X126044235Y-69189247D01*
X126189410Y-69540597D01*
X126457989Y-69809646D01*
X126809086Y-69955433D01*
X127189247Y-69955765D01*
X127540597Y-69810590D01*
X127809646Y-69542011D01*
X127951947Y-69199307D01*
X129393425Y-69199307D01*
X129546318Y-69569335D01*
X129829176Y-69852687D01*
X130198936Y-70006225D01*
X130599307Y-70006575D01*
X130969335Y-69853682D01*
X131213843Y-69609600D01*
X132012600Y-69609600D01*
X132012600Y-72367940D01*
X132072537Y-72669265D01*
X132243224Y-72924716D01*
X133132600Y-73814092D01*
X133132600Y-74101858D01*
X133031853Y-74169175D01*
X132759580Y-74576660D01*
X132663970Y-75057322D01*
X132663970Y-76942678D01*
X132759580Y-77423340D01*
X133031853Y-77830825D01*
X133439338Y-78103098D01*
X133920000Y-78198708D01*
X134400662Y-78103098D01*
X134808147Y-77830825D01*
X135080420Y-77423340D01*
X135176030Y-76942678D01*
X135176030Y-76025400D01*
X135254770Y-76025400D01*
X135254770Y-76925830D01*
X135356233Y-77385118D01*
X135625734Y-77770617D01*
X136022245Y-78023638D01*
X136246415Y-78086583D01*
X136434600Y-78016471D01*
X136434600Y-76025400D01*
X136485400Y-76025400D01*
X136485400Y-78016471D01*
X136673585Y-78086583D01*
X136897755Y-78023638D01*
X137294266Y-77770617D01*
X137563767Y-77385118D01*
X137665230Y-76925830D01*
X137665230Y-76025400D01*
X136485400Y-76025400D01*
X136434600Y-76025400D01*
X135254770Y-76025400D01*
X135176030Y-76025400D01*
X135176030Y-75074170D01*
X135254770Y-75074170D01*
X135254770Y-75974600D01*
X136434600Y-75974600D01*
X136434600Y-73983529D01*
X136485400Y-73983529D01*
X136485400Y-75974600D01*
X137665230Y-75974600D01*
X137665230Y-75074170D01*
X137661509Y-75057322D01*
X137743970Y-75057322D01*
X137743970Y-76942678D01*
X137839580Y-77423340D01*
X138111853Y-77830825D01*
X138519338Y-78103098D01*
X139000000Y-78198708D01*
X139480662Y-78103098D01*
X139888147Y-77830825D01*
X140160420Y-77423340D01*
X140256030Y-76942678D01*
X140256030Y-75057322D01*
X140160420Y-74576660D01*
X139888147Y-74169175D01*
X139480662Y-73896902D01*
X139000000Y-73801292D01*
X138519338Y-73896902D01*
X138111853Y-74169175D01*
X137839580Y-74576660D01*
X137743970Y-75057322D01*
X137661509Y-75057322D01*
X137563767Y-74614882D01*
X137294266Y-74229383D01*
X136897755Y-73976362D01*
X136673585Y-73913417D01*
X136485400Y-73983529D01*
X136434600Y-73983529D01*
X136246415Y-73913417D01*
X136022245Y-73976362D01*
X135625734Y-74229383D01*
X135356233Y-74614882D01*
X135254770Y-75074170D01*
X135176030Y-75074170D01*
X135176030Y-75057322D01*
X135080420Y-74576660D01*
X134808147Y-74169175D01*
X134707400Y-74101858D01*
X134707400Y-73487940D01*
X134647463Y-73186615D01*
X134476776Y-72931164D01*
X133587400Y-72041788D01*
X133587400Y-68840452D01*
X134077852Y-68350000D01*
X134435639Y-68350000D01*
X134435639Y-69650000D01*
X134463977Y-69800603D01*
X134552983Y-69938922D01*
X134688790Y-70031715D01*
X134850000Y-70064361D01*
X136150000Y-70064361D01*
X136300603Y-70036023D01*
X136438922Y-69947017D01*
X136531715Y-69811210D01*
X136558315Y-69679852D01*
X136856069Y-69679852D01*
X136918077Y-69844160D01*
X137285419Y-70002595D01*
X137685430Y-70008393D01*
X138057209Y-69860673D01*
X138081923Y-69844160D01*
X138143931Y-69679852D01*
X137500000Y-69035921D01*
X136856069Y-69679852D01*
X136558315Y-69679852D01*
X136564361Y-69650000D01*
X136564361Y-69368536D01*
X136639327Y-69557209D01*
X136655840Y-69581923D01*
X136820148Y-69643931D01*
X137464079Y-69000000D01*
X137535921Y-69000000D01*
X138179852Y-69643931D01*
X138344160Y-69581923D01*
X138502595Y-69214581D01*
X138508393Y-68814570D01*
X138360673Y-68442791D01*
X138344160Y-68418077D01*
X138179852Y-68356069D01*
X137535921Y-69000000D01*
X137464079Y-69000000D01*
X136820148Y-68356069D01*
X136655840Y-68418077D01*
X136564361Y-68630177D01*
X136564361Y-68350000D01*
X136558744Y-68320148D01*
X136856069Y-68320148D01*
X137500000Y-68964079D01*
X138143931Y-68320148D01*
X138081923Y-68155840D01*
X137714581Y-67997405D01*
X137314570Y-67991607D01*
X136942791Y-68139327D01*
X136918077Y-68155840D01*
X136856069Y-68320148D01*
X136558744Y-68320148D01*
X136536023Y-68199397D01*
X136447017Y-68061078D01*
X136311210Y-67968285D01*
X136150000Y-67935639D01*
X134850000Y-67935639D01*
X134699397Y-67963977D01*
X134561078Y-68052983D01*
X134468285Y-68188790D01*
X134435639Y-68350000D01*
X134077852Y-68350000D01*
X135655666Y-66772186D01*
X141447431Y-66772186D01*
X141569818Y-67068385D01*
X141796239Y-67295202D01*
X142092224Y-67418105D01*
X142376379Y-67418353D01*
X144832715Y-69874688D01*
X144925432Y-70013450D01*
X145029000Y-70117018D01*
X145029000Y-70279758D01*
X145116965Y-70721987D01*
X145367467Y-71096891D01*
X145742371Y-71347393D01*
X146184600Y-71435358D01*
X146626829Y-71347393D01*
X147001733Y-71096891D01*
X147252235Y-70721987D01*
X147340200Y-70279758D01*
X147340200Y-69826642D01*
X147252235Y-69384413D01*
X147001733Y-69009509D01*
X146626829Y-68759007D01*
X146184600Y-68671042D01*
X145742371Y-68759007D01*
X145367467Y-69009509D01*
X145353475Y-69030450D01*
X143058664Y-66735638D01*
X143058911Y-66453104D01*
X142936524Y-66156905D01*
X142710103Y-65930088D01*
X142414118Y-65807185D01*
X142093630Y-65806905D01*
X141797431Y-65929292D01*
X141570614Y-66155713D01*
X141447711Y-66451698D01*
X141447431Y-66772186D01*
X135655666Y-66772186D01*
X136890452Y-65537400D01*
X138300000Y-65537400D01*
X138326258Y-65532177D01*
X141717223Y-65532177D01*
X142018548Y-65472240D01*
X142273999Y-65301553D01*
X142458458Y-65117094D01*
X142568948Y-65282452D01*
X144417548Y-67131052D01*
X144615316Y-67263197D01*
X144848600Y-67309600D01*
X145040639Y-67309600D01*
X145040639Y-67850000D01*
X145068977Y-68000603D01*
X145157983Y-68138922D01*
X145293790Y-68231715D01*
X145455000Y-68264361D01*
X146055000Y-68264361D01*
X146205603Y-68236023D01*
X146343922Y-68147017D01*
X146420984Y-68034233D01*
X146465110Y-68102807D01*
X146583942Y-68184001D01*
X146725000Y-68212566D01*
X147325000Y-68212566D01*
X147456777Y-68187770D01*
X147577807Y-68109890D01*
X147659001Y-67991058D01*
X147660007Y-67986092D01*
X147735110Y-68102807D01*
X147812400Y-68155617D01*
X147812400Y-71705100D01*
X146900100Y-72617400D01*
X140999900Y-72617400D01*
X140541250Y-72158750D01*
X140384683Y-72054136D01*
X140200000Y-72017400D01*
X136156540Y-72017400D01*
X135956932Y-71817443D01*
X135660947Y-71694540D01*
X135340459Y-71694260D01*
X135044260Y-71816647D01*
X134817443Y-72043068D01*
X134694540Y-72339053D01*
X134694260Y-72659541D01*
X134816647Y-72955740D01*
X135043068Y-73182557D01*
X135339053Y-73305460D01*
X135659541Y-73305740D01*
X135955740Y-73183353D01*
X136156844Y-72982600D01*
X140000100Y-72982600D01*
X140458750Y-73441250D01*
X140615317Y-73545864D01*
X140800000Y-73582600D01*
X147100000Y-73582600D01*
X147284683Y-73545864D01*
X147441250Y-73441250D01*
X148636250Y-72246250D01*
X148740864Y-72089683D01*
X148777600Y-71905000D01*
X148777600Y-68155067D01*
X148847807Y-68109890D01*
X148929001Y-67991058D01*
X148932130Y-67975607D01*
X148963537Y-68051431D01*
X149063569Y-68151463D01*
X149194267Y-68205600D01*
X149450700Y-68205600D01*
X149539600Y-68116700D01*
X149539600Y-67125400D01*
X149519600Y-67125400D01*
X149519600Y-67074600D01*
X149539600Y-67074600D01*
X149539600Y-67054600D01*
X149590400Y-67054600D01*
X149590400Y-67074600D01*
X149610400Y-67074600D01*
X149610400Y-67125400D01*
X149590400Y-67125400D01*
X149590400Y-68116700D01*
X149679300Y-68205600D01*
X149935733Y-68205600D01*
X150066431Y-68151463D01*
X150166463Y-68051431D01*
X150196632Y-67978597D01*
X150197230Y-67981777D01*
X150275110Y-68102807D01*
X150393942Y-68184001D01*
X150535000Y-68212566D01*
X151135000Y-68212566D01*
X151266777Y-68187770D01*
X151387807Y-68109890D01*
X151469001Y-67991058D01*
X151470007Y-67986092D01*
X151545110Y-68102807D01*
X151622400Y-68155617D01*
X151622400Y-70693264D01*
X148603651Y-73712013D01*
X148321117Y-73711766D01*
X148024918Y-73834153D01*
X147798101Y-74060574D01*
X147675198Y-74356559D01*
X147674918Y-74677047D01*
X147797305Y-74973246D01*
X148023726Y-75200063D01*
X148319711Y-75322966D01*
X148640199Y-75323246D01*
X148936398Y-75200859D01*
X149163215Y-74974438D01*
X149286118Y-74678453D01*
X149286366Y-74394298D01*
X152446250Y-71234414D01*
X152550864Y-71077847D01*
X152587600Y-70893164D01*
X152587600Y-70078600D01*
X155029000Y-70078600D01*
X155029000Y-70278600D01*
X155126685Y-70718896D01*
X155385428Y-71088294D01*
X155765838Y-71330556D01*
X155978781Y-71390324D01*
X156159200Y-71319598D01*
X156159200Y-70078600D01*
X156210000Y-70078600D01*
X156210000Y-71319598D01*
X156390419Y-71390324D01*
X156603362Y-71330556D01*
X156983772Y-71088294D01*
X157242515Y-70718896D01*
X157340200Y-70278600D01*
X157340200Y-70078600D01*
X156210000Y-70078600D01*
X156159200Y-70078600D01*
X155029000Y-70078600D01*
X152587600Y-70078600D01*
X152587600Y-69827800D01*
X155029000Y-69827800D01*
X155029000Y-70027800D01*
X156159200Y-70027800D01*
X156159200Y-68786802D01*
X156210000Y-68786802D01*
X156210000Y-70027800D01*
X157340200Y-70027800D01*
X157340200Y-69827800D01*
X157242515Y-69387504D01*
X156983772Y-69018106D01*
X156603362Y-68775844D01*
X156390419Y-68716076D01*
X156210000Y-68786802D01*
X156159200Y-68786802D01*
X155978781Y-68716076D01*
X155765838Y-68775844D01*
X155385428Y-69018106D01*
X155126685Y-69387504D01*
X155029000Y-69827800D01*
X152587600Y-69827800D01*
X152587600Y-68155067D01*
X152657807Y-68109890D01*
X152710076Y-68033392D01*
X152777983Y-68138922D01*
X152913790Y-68231715D01*
X153075000Y-68264361D01*
X153675000Y-68264361D01*
X153825603Y-68236023D01*
X153963922Y-68147017D01*
X154040984Y-68034233D01*
X154085110Y-68102807D01*
X154203942Y-68184001D01*
X154345000Y-68212566D01*
X154945000Y-68212566D01*
X155076777Y-68187770D01*
X155197807Y-68109890D01*
X155279001Y-67991058D01*
X155307566Y-67850000D01*
X155307566Y-66350000D01*
X155282770Y-66218223D01*
X155204890Y-66097193D01*
X155086058Y-66015999D01*
X154945000Y-65987434D01*
X154345000Y-65987434D01*
X154213223Y-66012230D01*
X154092193Y-66090110D01*
X154039924Y-66166608D01*
X153972017Y-66061078D01*
X153908400Y-66017610D01*
X153908400Y-65675000D01*
X153895349Y-65609389D01*
X153867797Y-65470876D01*
X153795618Y-65362853D01*
X153752171Y-65297829D01*
X153752168Y-65297827D01*
X153277171Y-64822829D01*
X153104123Y-64707203D01*
X152900000Y-64666600D01*
X152577607Y-64666600D01*
X152490662Y-64579503D01*
X153990557Y-64579503D01*
X159752304Y-70341250D01*
X159908871Y-70445864D01*
X160093554Y-70482600D01*
X162003145Y-70482600D01*
X162062171Y-70625454D01*
X162372910Y-70936736D01*
X162779118Y-71105408D01*
X163218953Y-71105792D01*
X163625454Y-70937829D01*
X163936736Y-70627090D01*
X164105408Y-70220882D01*
X164105792Y-69781047D01*
X163937829Y-69374546D01*
X163627090Y-69063264D01*
X163220882Y-68894592D01*
X162781047Y-68894208D01*
X162374546Y-69062171D01*
X162063264Y-69372910D01*
X162003267Y-69517400D01*
X160293454Y-69517400D01*
X154531707Y-63755653D01*
X154375140Y-63651039D01*
X154190457Y-63614303D01*
X150441802Y-63614303D01*
X149640065Y-62812566D01*
X149865000Y-62812566D01*
X149996777Y-62787770D01*
X150117807Y-62709890D01*
X150199001Y-62591058D01*
X150200007Y-62586092D01*
X150275110Y-62702807D01*
X150393942Y-62784001D01*
X150535000Y-62812566D01*
X151135000Y-62812566D01*
X151266777Y-62787770D01*
X151387807Y-62709890D01*
X151469001Y-62591058D01*
X151470007Y-62586092D01*
X151545110Y-62702807D01*
X151663942Y-62784001D01*
X151805000Y-62812566D01*
X152405000Y-62812566D01*
X152536777Y-62787770D01*
X152657807Y-62709890D01*
X152739001Y-62591058D01*
X152740007Y-62586092D01*
X152815110Y-62702807D01*
X152933942Y-62784001D01*
X153075000Y-62812566D01*
X153675000Y-62812566D01*
X153806777Y-62787770D01*
X153927807Y-62709890D01*
X154009001Y-62591058D01*
X154012130Y-62575607D01*
X154043537Y-62651431D01*
X154143569Y-62751463D01*
X154274267Y-62805600D01*
X154530700Y-62805600D01*
X154619600Y-62716700D01*
X154619600Y-61725400D01*
X154670400Y-61725400D01*
X154670400Y-62716700D01*
X154759300Y-62805600D01*
X155015733Y-62805600D01*
X155146431Y-62751463D01*
X155246463Y-62651431D01*
X155300600Y-62520733D01*
X155300600Y-61814300D01*
X155211700Y-61725400D01*
X154670400Y-61725400D01*
X154619600Y-61725400D01*
X154599600Y-61725400D01*
X154599600Y-61674600D01*
X154619600Y-61674600D01*
X154619600Y-60683300D01*
X154670400Y-60683300D01*
X154670400Y-61674600D01*
X155211700Y-61674600D01*
X155300600Y-61585700D01*
X155300600Y-60879267D01*
X155246463Y-60748569D01*
X155146431Y-60648537D01*
X155015733Y-60594400D01*
X154759300Y-60594400D01*
X154670400Y-60683300D01*
X154619600Y-60683300D01*
X154530700Y-60594400D01*
X154274267Y-60594400D01*
X154143569Y-60648537D01*
X154043537Y-60748569D01*
X154013368Y-60821403D01*
X154012770Y-60818223D01*
X153934890Y-60697193D01*
X153816058Y-60615999D01*
X153675000Y-60587434D01*
X153075000Y-60587434D01*
X152943223Y-60612230D01*
X152822193Y-60690110D01*
X152740999Y-60808942D01*
X152739993Y-60813908D01*
X152664890Y-60697193D01*
X152582600Y-60640967D01*
X152582600Y-59999900D01*
X153929584Y-58652915D01*
X154212910Y-58936736D01*
X154619118Y-59105408D01*
X155058953Y-59105792D01*
X155465454Y-58937829D01*
X155776736Y-58627090D01*
X155945408Y-58220882D01*
X155945792Y-57781047D01*
X155777829Y-57374546D01*
X155467090Y-57063264D01*
X155060882Y-56894592D01*
X154621047Y-56894208D01*
X154214546Y-57062171D01*
X153942109Y-57334133D01*
X153942109Y-56580391D01*
X154476367Y-56046133D01*
X154619118Y-56105408D01*
X155058953Y-56105792D01*
X155465454Y-55937829D01*
X155776736Y-55627090D01*
X155945408Y-55220882D01*
X155945792Y-54781047D01*
X155777829Y-54374546D01*
X155467090Y-54063264D01*
X155060882Y-53894592D01*
X154621047Y-53894208D01*
X154214546Y-54062171D01*
X153903264Y-54372910D01*
X153734592Y-54779118D01*
X153734208Y-55218953D01*
X153793953Y-55363547D01*
X153382600Y-55774900D01*
X153382600Y-54139900D01*
X154476367Y-53046133D01*
X154619118Y-53105408D01*
X155058953Y-53105792D01*
X155465454Y-52937829D01*
X155776736Y-52627090D01*
X155945408Y-52220882D01*
X155945792Y-51781047D01*
X155777829Y-51374546D01*
X155467090Y-51063264D01*
X155060882Y-50894592D01*
X154621047Y-50894208D01*
X154214546Y-51062171D01*
X153903264Y-51372910D01*
X153734592Y-51779118D01*
X153734208Y-52218953D01*
X153793953Y-52363547D01*
X152874590Y-53282910D01*
X152874590Y-51647910D01*
X154476367Y-50046133D01*
X154619118Y-50105408D01*
X155058953Y-50105792D01*
X155465454Y-49937829D01*
X155776736Y-49627090D01*
X155945408Y-49220882D01*
X155945645Y-48949262D01*
X157615108Y-48949262D01*
X157737495Y-49245461D01*
X157938248Y-49446565D01*
X157938248Y-65163525D01*
X157974984Y-65348208D01*
X158079598Y-65504775D01*
X161032091Y-68457267D01*
X161032093Y-68457270D01*
X161188660Y-68561884D01*
X161373343Y-68598620D01*
X163279250Y-68598622D01*
X164217400Y-69536771D01*
X164217400Y-71100100D01*
X163363633Y-71953867D01*
X163220882Y-71894592D01*
X162781047Y-71894208D01*
X162374546Y-72062171D01*
X162063264Y-72372910D01*
X161894592Y-72779118D01*
X161894208Y-73218953D01*
X162062171Y-73625454D01*
X162372910Y-73936736D01*
X162779118Y-74105408D01*
X163218953Y-74105792D01*
X163625454Y-73937829D01*
X163936736Y-73627090D01*
X164105408Y-73220882D01*
X164105792Y-72781047D01*
X164046047Y-72636453D01*
X165041250Y-71641250D01*
X165145864Y-71484683D01*
X165182600Y-71300000D01*
X165182600Y-69783536D01*
X165206974Y-69807910D01*
X165206974Y-73110526D01*
X163363633Y-74953867D01*
X163220882Y-74894592D01*
X162781047Y-74894208D01*
X162374546Y-75062171D01*
X162063264Y-75372910D01*
X161894592Y-75779118D01*
X161894208Y-76218953D01*
X162062171Y-76625454D01*
X162372910Y-76936736D01*
X162779118Y-77105408D01*
X163218953Y-77105792D01*
X163625454Y-76937829D01*
X163936736Y-76627090D01*
X164105408Y-76220882D01*
X164105792Y-75781047D01*
X164046047Y-75636453D01*
X166030824Y-73651676D01*
X166135438Y-73495109D01*
X166172174Y-73310426D01*
X166172174Y-70054674D01*
X167117400Y-70999900D01*
X167117400Y-73800000D01*
X167154136Y-73984683D01*
X167258750Y-74141250D01*
X171040080Y-77922580D01*
X171196647Y-78027194D01*
X171381330Y-78063930D01*
X174718670Y-78063930D01*
X174903353Y-78027194D01*
X175059920Y-77922580D01*
X176663546Y-76318953D01*
X178794208Y-76318953D01*
X178962171Y-76725454D01*
X179272910Y-77036736D01*
X179679118Y-77205408D01*
X180118953Y-77205792D01*
X180525454Y-77037829D01*
X180836736Y-76727090D01*
X181005408Y-76320882D01*
X181005792Y-75881047D01*
X180837829Y-75474546D01*
X180527090Y-75163264D01*
X180120882Y-74994592D01*
X179681047Y-74994208D01*
X179274546Y-75162171D01*
X178963264Y-75472910D01*
X178794592Y-75879118D01*
X178794208Y-76318953D01*
X176663546Y-76318953D01*
X176941247Y-76041252D01*
X176941250Y-76041250D01*
X177045864Y-75884683D01*
X177082600Y-75700000D01*
X177082600Y-73439900D01*
X177303547Y-73218953D01*
X178794208Y-73218953D01*
X178962171Y-73625454D01*
X179272910Y-73936736D01*
X179679118Y-74105408D01*
X180118953Y-74105792D01*
X180525454Y-73937829D01*
X180836736Y-73627090D01*
X181005408Y-73220882D01*
X181005792Y-72781047D01*
X180837829Y-72374546D01*
X180527090Y-72063264D01*
X180120882Y-71894592D01*
X179681047Y-71894208D01*
X179274546Y-72062171D01*
X178963264Y-72372910D01*
X178794592Y-72779118D01*
X178794208Y-73218953D01*
X177303547Y-73218953D01*
X179476367Y-71046133D01*
X179619118Y-71105408D01*
X180058953Y-71105792D01*
X180465454Y-70937829D01*
X180776736Y-70627090D01*
X180945408Y-70220882D01*
X180945792Y-69781047D01*
X180777829Y-69374546D01*
X180467090Y-69063264D01*
X180060882Y-68894592D01*
X179621047Y-68894208D01*
X179214546Y-69062171D01*
X178903264Y-69372910D01*
X178734592Y-69779118D01*
X178734208Y-70218953D01*
X178793953Y-70363547D01*
X176258750Y-72898750D01*
X176154136Y-73055317D01*
X176117400Y-73240000D01*
X176117400Y-75500101D01*
X174518770Y-77098730D01*
X173396044Y-77098730D01*
X173785454Y-76937829D01*
X174096736Y-76627090D01*
X174265408Y-76220882D01*
X174265792Y-75781047D01*
X174097829Y-75374546D01*
X173787090Y-75063264D01*
X173380882Y-74894592D01*
X172941047Y-74894208D01*
X172534546Y-75062171D01*
X172223264Y-75372910D01*
X172169579Y-75502198D01*
X171063429Y-75502198D01*
X168862044Y-73300813D01*
X168862044Y-70815200D01*
X168825308Y-70630517D01*
X168720694Y-70473950D01*
X163212600Y-64965856D01*
X163212600Y-64959027D01*
X163335001Y-64877242D01*
X163374022Y-64818842D01*
X163412960Y-64873531D01*
X163696043Y-65050761D01*
X163841126Y-65091290D01*
X163974600Y-65016849D01*
X163974600Y-64025400D01*
X164025400Y-64025400D01*
X164025400Y-65016849D01*
X164158874Y-65091290D01*
X164303957Y-65050761D01*
X164587040Y-64873531D01*
X164780751Y-64601460D01*
X164855600Y-64275970D01*
X164855600Y-64025400D01*
X164025400Y-64025400D01*
X163974600Y-64025400D01*
X163954600Y-64025400D01*
X163954600Y-63974600D01*
X163974600Y-63974600D01*
X163974600Y-62983151D01*
X164025400Y-62983151D01*
X164025400Y-63974600D01*
X164855600Y-63974600D01*
X164855600Y-63727759D01*
X167874400Y-63727759D01*
X167874400Y-64272241D01*
X167939529Y-64599665D01*
X168124999Y-64877242D01*
X168402576Y-65062712D01*
X168730000Y-65127841D01*
X169057424Y-65062712D01*
X169335001Y-64877242D01*
X169365000Y-64832345D01*
X169394999Y-64877242D01*
X169517400Y-64959027D01*
X169517400Y-69840000D01*
X169554136Y-70024683D01*
X169658750Y-70181250D01*
X172113867Y-72636367D01*
X172054592Y-72779118D01*
X172054208Y-73218953D01*
X172222171Y-73625454D01*
X172532910Y-73936736D01*
X172939118Y-74105408D01*
X173378953Y-74105792D01*
X173785454Y-73937829D01*
X174096736Y-73627090D01*
X174265408Y-73220882D01*
X174265792Y-72781047D01*
X174097829Y-72374546D01*
X173787090Y-72063264D01*
X173380882Y-71894592D01*
X172941047Y-71894208D01*
X172796453Y-71953953D01*
X171061453Y-70218953D01*
X172054208Y-70218953D01*
X172222171Y-70625454D01*
X172532910Y-70936736D01*
X172939118Y-71105408D01*
X173378953Y-71105792D01*
X173785454Y-70937829D01*
X174096736Y-70627090D01*
X174265408Y-70220882D01*
X174265792Y-69781047D01*
X174097829Y-69374546D01*
X173787090Y-69063264D01*
X173642600Y-69003267D01*
X173642600Y-63727759D01*
X174874400Y-63727759D01*
X174874400Y-64272241D01*
X174939529Y-64599665D01*
X175124999Y-64877242D01*
X175402576Y-65062712D01*
X175730000Y-65127841D01*
X176057424Y-65062712D01*
X176335001Y-64877242D01*
X176365000Y-64832345D01*
X176394999Y-64877242D01*
X176517400Y-64959027D01*
X176517400Y-65004570D01*
X176554136Y-65189253D01*
X176658750Y-65345820D01*
X178904178Y-67591247D01*
X178904180Y-67591250D01*
X179010964Y-67662600D01*
X179060747Y-67695864D01*
X179245430Y-67732601D01*
X179245435Y-67732600D01*
X180500100Y-67732600D01*
X188849531Y-76082030D01*
X188849533Y-76082033D01*
X188945064Y-76145864D01*
X188954354Y-76152071D01*
X188954208Y-76318953D01*
X189122171Y-76725454D01*
X189432910Y-77036736D01*
X189839118Y-77205408D01*
X190278953Y-77205792D01*
X190685454Y-77037829D01*
X190996736Y-76727090D01*
X191165408Y-76320882D01*
X191165792Y-75881047D01*
X190997829Y-75474546D01*
X190687090Y-75163264D01*
X190280882Y-74994592D01*
X189841047Y-74994208D01*
X189434546Y-75162171D01*
X189364547Y-75232048D01*
X181041250Y-66908750D01*
X180884683Y-66804136D01*
X180700000Y-66767400D01*
X179445329Y-66767400D01*
X177575131Y-64897201D01*
X177605001Y-64877242D01*
X177644022Y-64818842D01*
X177682960Y-64873531D01*
X177966043Y-65050761D01*
X178111126Y-65091290D01*
X178244600Y-65016849D01*
X178244600Y-64025400D01*
X178295400Y-64025400D01*
X178295400Y-65016849D01*
X178428874Y-65091290D01*
X178573957Y-65050761D01*
X178857040Y-64873531D01*
X179050751Y-64601460D01*
X179125600Y-64275970D01*
X179125600Y-64025400D01*
X178295400Y-64025400D01*
X178244600Y-64025400D01*
X178224600Y-64025400D01*
X178224600Y-63974600D01*
X178244600Y-63974600D01*
X178244600Y-62983151D01*
X178295400Y-62983151D01*
X178295400Y-63974600D01*
X179125600Y-63974600D01*
X179125600Y-63724030D01*
X179050751Y-63398540D01*
X178857040Y-63126469D01*
X178573957Y-62949239D01*
X178428874Y-62908710D01*
X178295400Y-62983151D01*
X178244600Y-62983151D01*
X178111126Y-62908710D01*
X177966043Y-62949239D01*
X177682960Y-63126469D01*
X177644022Y-63181158D01*
X177605001Y-63122758D01*
X177327424Y-62937288D01*
X177000000Y-62872159D01*
X176672576Y-62937288D01*
X176394999Y-63122758D01*
X176365000Y-63167655D01*
X176335001Y-63122758D01*
X176212600Y-63040973D01*
X176212600Y-58533900D01*
X177080471Y-57666029D01*
X177140394Y-57755711D01*
X177450413Y-57962859D01*
X177816105Y-58035600D01*
X178183895Y-58035600D01*
X178549587Y-57962859D01*
X178859606Y-57755711D01*
X179066754Y-57445692D01*
X179116932Y-57193432D01*
X179509389Y-57585889D01*
X179509389Y-60960999D01*
X179546125Y-61145682D01*
X179650739Y-61302249D01*
X181907889Y-63559399D01*
X181874400Y-63727759D01*
X181874400Y-64272241D01*
X181939529Y-64599665D01*
X182124999Y-64877242D01*
X182402576Y-65062712D01*
X182730000Y-65127841D01*
X183057424Y-65062712D01*
X183335001Y-64877242D01*
X183365000Y-64832345D01*
X183394999Y-64877242D01*
X183517400Y-64959027D01*
X183517400Y-67900000D01*
X183554136Y-68084683D01*
X183658750Y-68241250D01*
X188758750Y-73341250D01*
X188915317Y-73445864D01*
X189059844Y-73474613D01*
X189122171Y-73625454D01*
X189432910Y-73936736D01*
X189839118Y-74105408D01*
X190278953Y-74105792D01*
X190685454Y-73937829D01*
X190996736Y-73627090D01*
X191104534Y-73367482D01*
X193144079Y-73367482D01*
X193425982Y-74049740D01*
X193947515Y-74572184D01*
X194629279Y-74855277D01*
X195367482Y-74855921D01*
X196049740Y-74574018D01*
X196572184Y-74052485D01*
X196855277Y-73370721D01*
X196855921Y-72632518D01*
X196574018Y-71950260D01*
X196052485Y-71427816D01*
X195370721Y-71144723D01*
X194632518Y-71144079D01*
X193950260Y-71425982D01*
X193427816Y-71947515D01*
X193144723Y-72629279D01*
X193144079Y-73367482D01*
X191104534Y-73367482D01*
X191165408Y-73220882D01*
X191165792Y-72781047D01*
X190997829Y-72374546D01*
X190687090Y-72063264D01*
X190280882Y-71894592D01*
X189841047Y-71894208D01*
X189434546Y-72062171D01*
X189139351Y-72356851D01*
X184482600Y-67700100D01*
X184482600Y-64959027D01*
X184605001Y-64877242D01*
X184644022Y-64818842D01*
X184682960Y-64873531D01*
X184966043Y-65050761D01*
X185111126Y-65091290D01*
X185244600Y-65016849D01*
X185244600Y-64025400D01*
X185295400Y-64025400D01*
X185295400Y-65016849D01*
X185428874Y-65091290D01*
X185573957Y-65050761D01*
X185857040Y-64873531D01*
X186050751Y-64601460D01*
X186125600Y-64275970D01*
X186125600Y-64025400D01*
X185295400Y-64025400D01*
X185244600Y-64025400D01*
X185224600Y-64025400D01*
X185224600Y-63974600D01*
X185244600Y-63974600D01*
X185244600Y-62983151D01*
X185295400Y-62983151D01*
X185295400Y-63974600D01*
X186125600Y-63974600D01*
X186125600Y-63724030D01*
X186050751Y-63398540D01*
X185857040Y-63126469D01*
X185573957Y-62949239D01*
X185428874Y-62908710D01*
X185295400Y-62983151D01*
X185244600Y-62983151D01*
X185111126Y-62908710D01*
X184966043Y-62949239D01*
X184682960Y-63126469D01*
X184644022Y-63181158D01*
X184605001Y-63122758D01*
X184327424Y-62937288D01*
X184000000Y-62872159D01*
X183672576Y-62937288D01*
X183394999Y-63122758D01*
X183365000Y-63167655D01*
X183335001Y-63122758D01*
X183057424Y-62937288D01*
X182730000Y-62872159D01*
X182609598Y-62896108D01*
X180474589Y-60761099D01*
X180474589Y-57385989D01*
X180437853Y-57201306D01*
X180333239Y-57044739D01*
X178646562Y-55358062D01*
X178859606Y-55215711D01*
X179066754Y-54905692D01*
X179139495Y-54540000D01*
X179066754Y-54174308D01*
X178859606Y-53864289D01*
X178549587Y-53657141D01*
X178183895Y-53584400D01*
X177816105Y-53584400D01*
X177450413Y-53657141D01*
X177140394Y-53864289D01*
X176933246Y-54174308D01*
X176860505Y-54540000D01*
X176933246Y-54905692D01*
X177140394Y-55215711D01*
X177450413Y-55422859D01*
X177526137Y-55437921D01*
X177554136Y-55578683D01*
X177658750Y-55735250D01*
X178047900Y-56124400D01*
X177816105Y-56124400D01*
X177450413Y-56197141D01*
X177140394Y-56404289D01*
X177011361Y-56597400D01*
X176984005Y-56597400D01*
X176984000Y-56597399D01*
X176799317Y-56634136D01*
X176642750Y-56738750D01*
X175388750Y-57992750D01*
X175284136Y-58149317D01*
X175247400Y-58334000D01*
X175247400Y-63040973D01*
X175124999Y-63122758D01*
X174939529Y-63400335D01*
X174874400Y-63727759D01*
X173642600Y-63727759D01*
X173642600Y-56877900D01*
X177606578Y-52913922D01*
X177816105Y-52955600D01*
X178183895Y-52955600D01*
X178549587Y-52882859D01*
X178859606Y-52675711D01*
X179066754Y-52365692D01*
X179139495Y-52000000D01*
X179066754Y-51634308D01*
X178859606Y-51324289D01*
X178549587Y-51117141D01*
X178183895Y-51044400D01*
X177816105Y-51044400D01*
X177450413Y-51117141D01*
X177140394Y-51324289D01*
X176933246Y-51634308D01*
X176860505Y-52000000D01*
X176909448Y-52246052D01*
X172818750Y-56336750D01*
X172714136Y-56493317D01*
X172677400Y-56678000D01*
X172677400Y-69003145D01*
X172534546Y-69062171D01*
X172223264Y-69372910D01*
X172054592Y-69779118D01*
X172054208Y-70218953D01*
X171061453Y-70218953D01*
X170482600Y-69640100D01*
X170482600Y-64959027D01*
X170605001Y-64877242D01*
X170644022Y-64818842D01*
X170682960Y-64873531D01*
X170966043Y-65050761D01*
X171111126Y-65091290D01*
X171244600Y-65016849D01*
X171244600Y-64025400D01*
X171295400Y-64025400D01*
X171295400Y-65016849D01*
X171428874Y-65091290D01*
X171573957Y-65050761D01*
X171857040Y-64873531D01*
X172050751Y-64601460D01*
X172125600Y-64275970D01*
X172125600Y-64025400D01*
X171295400Y-64025400D01*
X171244600Y-64025400D01*
X171224600Y-64025400D01*
X171224600Y-63974600D01*
X171244600Y-63974600D01*
X171244600Y-62983151D01*
X171295400Y-62983151D01*
X171295400Y-63974600D01*
X172125600Y-63974600D01*
X172125600Y-63724030D01*
X172050751Y-63398540D01*
X171857040Y-63126469D01*
X171573957Y-62949239D01*
X171428874Y-62908710D01*
X171295400Y-62983151D01*
X171244600Y-62983151D01*
X171111126Y-62908710D01*
X170966043Y-62949239D01*
X170682960Y-63126469D01*
X170644022Y-63181158D01*
X170605001Y-63122758D01*
X170327424Y-62937288D01*
X170000000Y-62872159D01*
X169672576Y-62937288D01*
X169394999Y-63122758D01*
X169365000Y-63167655D01*
X169335001Y-63122758D01*
X169212600Y-63040973D01*
X169212600Y-57080000D01*
X169240505Y-57080000D01*
X169313246Y-57445692D01*
X169520394Y-57755711D01*
X169830413Y-57962859D01*
X170196105Y-58035600D01*
X170563895Y-58035600D01*
X170929587Y-57962859D01*
X171239606Y-57755711D01*
X171446754Y-57445692D01*
X171519495Y-57080000D01*
X171446754Y-56714308D01*
X171239606Y-56404289D01*
X170929587Y-56197141D01*
X170563895Y-56124400D01*
X170196105Y-56124400D01*
X169830413Y-56197141D01*
X169520394Y-56404289D01*
X169313246Y-56714308D01*
X169240505Y-57080000D01*
X169212600Y-57080000D01*
X169212600Y-54540000D01*
X169240505Y-54540000D01*
X169313246Y-54905692D01*
X169520394Y-55215711D01*
X169830413Y-55422859D01*
X170196105Y-55495600D01*
X170563895Y-55495600D01*
X170929587Y-55422859D01*
X171239606Y-55215711D01*
X171446754Y-54905692D01*
X171519495Y-54540000D01*
X171446754Y-54174308D01*
X171239606Y-53864289D01*
X170929587Y-53657141D01*
X170563895Y-53584400D01*
X170196105Y-53584400D01*
X169830413Y-53657141D01*
X169520394Y-53864289D01*
X169313246Y-54174308D01*
X169240505Y-54540000D01*
X169212600Y-54540000D01*
X169212600Y-52000000D01*
X169240505Y-52000000D01*
X169313246Y-52365692D01*
X169520394Y-52675711D01*
X169830413Y-52882859D01*
X170196105Y-52955600D01*
X170563895Y-52955600D01*
X170929587Y-52882859D01*
X171239606Y-52675711D01*
X171446754Y-52365692D01*
X171519495Y-52000000D01*
X171446754Y-51634308D01*
X171239606Y-51324289D01*
X170929587Y-51117141D01*
X170563895Y-51044400D01*
X170196105Y-51044400D01*
X169830413Y-51117141D01*
X169520394Y-51324289D01*
X169313246Y-51634308D01*
X169240505Y-52000000D01*
X169212600Y-52000000D01*
X169212600Y-51147900D01*
X169986578Y-50373922D01*
X170196105Y-50415600D01*
X170563895Y-50415600D01*
X170929587Y-50342859D01*
X171239606Y-50135711D01*
X171446754Y-49825692D01*
X171519495Y-49460000D01*
X176860505Y-49460000D01*
X176933246Y-49825692D01*
X177140394Y-50135711D01*
X177450413Y-50342859D01*
X177816105Y-50415600D01*
X178183895Y-50415600D01*
X178549587Y-50342859D01*
X178859606Y-50135711D01*
X178919529Y-50046029D01*
X180754662Y-51881162D01*
X180754662Y-60487262D01*
X180791398Y-60671945D01*
X180896012Y-60828512D01*
X182658750Y-62591250D01*
X182815317Y-62695864D01*
X183000000Y-62732600D01*
X187806520Y-62732600D01*
X189415170Y-64341250D01*
X189571737Y-64445864D01*
X189641704Y-64459782D01*
X189669529Y-64599665D01*
X189854999Y-64877242D01*
X190132576Y-65062712D01*
X190460000Y-65127841D01*
X190787424Y-65062712D01*
X191065001Y-64877242D01*
X191095000Y-64832345D01*
X191124999Y-64877242D01*
X191247400Y-64959027D01*
X191247400Y-68070101D01*
X190363633Y-68953867D01*
X190220882Y-68894592D01*
X189781047Y-68894208D01*
X189374546Y-69062171D01*
X189063264Y-69372910D01*
X188894592Y-69779118D01*
X188894208Y-70218953D01*
X189062171Y-70625454D01*
X189372910Y-70936736D01*
X189779118Y-71105408D01*
X190218953Y-71105792D01*
X190625454Y-70937829D01*
X190936736Y-70627090D01*
X191105408Y-70220882D01*
X191105792Y-69781047D01*
X191046047Y-69636453D01*
X192071247Y-68611252D01*
X192071250Y-68611250D01*
X192175864Y-68454683D01*
X192212600Y-68270000D01*
X192212600Y-66025400D01*
X196394400Y-66025400D01*
X196394400Y-66275400D01*
X196488279Y-66696561D01*
X196736183Y-67049737D01*
X197100371Y-67281161D01*
X197302004Y-67337726D01*
X197474600Y-67266383D01*
X197474600Y-66025400D01*
X197525400Y-66025400D01*
X197525400Y-67266383D01*
X197697996Y-67337726D01*
X197899629Y-67281161D01*
X198263817Y-67049737D01*
X198511721Y-66696561D01*
X198605600Y-66275400D01*
X198605600Y-66025400D01*
X197525400Y-66025400D01*
X197474600Y-66025400D01*
X196394400Y-66025400D01*
X192212600Y-66025400D01*
X192212600Y-65724600D01*
X196394400Y-65724600D01*
X196394400Y-65974600D01*
X197474600Y-65974600D01*
X197474600Y-64733617D01*
X197525400Y-64733617D01*
X197525400Y-65974600D01*
X198605600Y-65974600D01*
X198605600Y-65724600D01*
X198605342Y-65723442D01*
X198894400Y-65723442D01*
X198894400Y-66276558D01*
X198978559Y-66699653D01*
X199218223Y-67058335D01*
X199576905Y-67297999D01*
X200000000Y-67382158D01*
X200423095Y-67297999D01*
X200781777Y-67058335D01*
X201021441Y-66699653D01*
X201105600Y-66276558D01*
X201105600Y-65723442D01*
X201021441Y-65300347D01*
X200781777Y-64941665D01*
X200423095Y-64702001D01*
X200000000Y-64617842D01*
X199576905Y-64702001D01*
X199218223Y-64941665D01*
X198978559Y-65300347D01*
X198894400Y-65723442D01*
X198605342Y-65723442D01*
X198511721Y-65303439D01*
X198263817Y-64950263D01*
X197899629Y-64718839D01*
X197697996Y-64662274D01*
X197525400Y-64733617D01*
X197474600Y-64733617D01*
X197302004Y-64662274D01*
X197100371Y-64718839D01*
X196736183Y-64950263D01*
X196488279Y-65303439D01*
X196394400Y-65724600D01*
X192212600Y-65724600D01*
X192212600Y-64959027D01*
X192335001Y-64877242D01*
X192374022Y-64818842D01*
X192412960Y-64873531D01*
X192696043Y-65050761D01*
X192841126Y-65091290D01*
X192974600Y-65016849D01*
X192974600Y-64025400D01*
X193025400Y-64025400D01*
X193025400Y-65016849D01*
X193158874Y-65091290D01*
X193303957Y-65050761D01*
X193587040Y-64873531D01*
X193780751Y-64601460D01*
X193855600Y-64275970D01*
X193855600Y-64025400D01*
X193025400Y-64025400D01*
X192974600Y-64025400D01*
X192954600Y-64025400D01*
X192954600Y-63974600D01*
X192974600Y-63974600D01*
X192974600Y-62983151D01*
X193025400Y-62983151D01*
X193025400Y-63974600D01*
X193855600Y-63974600D01*
X193855600Y-63724030D01*
X193780751Y-63398540D01*
X193587040Y-63126469D01*
X193303957Y-62949239D01*
X193158874Y-62908710D01*
X193025400Y-62983151D01*
X192974600Y-62983151D01*
X192841126Y-62908710D01*
X192696043Y-62949239D01*
X192412960Y-63126469D01*
X192374022Y-63181158D01*
X192335001Y-63122758D01*
X192057424Y-62937288D01*
X191730000Y-62872159D01*
X191402576Y-62937288D01*
X191124999Y-63122758D01*
X191095000Y-63167655D01*
X191065001Y-63122758D01*
X190787424Y-62937288D01*
X190460000Y-62872159D01*
X190132576Y-62937288D01*
X189854999Y-63122758D01*
X189737511Y-63298591D01*
X188347670Y-61908750D01*
X188191103Y-61804136D01*
X188006420Y-61767400D01*
X183199900Y-61767400D01*
X181719862Y-60287362D01*
X181719862Y-60025400D01*
X197574400Y-60025400D01*
X197574400Y-60275970D01*
X197649249Y-60601460D01*
X197842960Y-60873531D01*
X198126043Y-61050761D01*
X198271126Y-61091290D01*
X198404600Y-61016849D01*
X198404600Y-60025400D01*
X197574400Y-60025400D01*
X181719862Y-60025400D01*
X181719862Y-59724030D01*
X197574400Y-59724030D01*
X197574400Y-59974600D01*
X198404600Y-59974600D01*
X198404600Y-58983151D01*
X198271126Y-58908710D01*
X198126043Y-58949239D01*
X197842960Y-59126469D01*
X197649249Y-59398540D01*
X197574400Y-59724030D01*
X181719862Y-59724030D01*
X181719862Y-58232553D01*
X182764808Y-58232553D01*
X182932771Y-58639054D01*
X183243510Y-58950336D01*
X183649718Y-59119008D01*
X184089553Y-59119392D01*
X184496054Y-58951429D01*
X184807336Y-58640690D01*
X184976008Y-58234482D01*
X184976009Y-58232553D01*
X192924808Y-58232553D01*
X193092771Y-58639054D01*
X193403510Y-58950336D01*
X193809718Y-59119008D01*
X194249553Y-59119392D01*
X194656054Y-58951429D01*
X194967336Y-58640690D01*
X195136008Y-58234482D01*
X195136392Y-57794647D01*
X194968429Y-57388146D01*
X194657690Y-57076864D01*
X194251482Y-56908192D01*
X193811647Y-56907808D01*
X193405146Y-57075771D01*
X193093864Y-57386510D01*
X192925192Y-57792718D01*
X192924808Y-58232553D01*
X184976009Y-58232553D01*
X184976392Y-57794647D01*
X184808429Y-57388146D01*
X184497690Y-57076864D01*
X184091482Y-56908192D01*
X183651647Y-56907808D01*
X183245146Y-57075771D01*
X182933864Y-57386510D01*
X182765192Y-57792718D01*
X182764808Y-58232553D01*
X181719862Y-58232553D01*
X181719862Y-55218953D01*
X182734208Y-55218953D01*
X182902171Y-55625454D01*
X183212910Y-55936736D01*
X183619118Y-56105408D01*
X184058953Y-56105792D01*
X184465454Y-55937829D01*
X184776736Y-55627090D01*
X184945408Y-55220882D01*
X184945409Y-55218953D01*
X192894208Y-55218953D01*
X193062171Y-55625454D01*
X193372910Y-55936736D01*
X193779118Y-56105408D01*
X194218953Y-56105792D01*
X194625454Y-55937829D01*
X194936736Y-55627090D01*
X195105408Y-55220882D01*
X195105578Y-55025400D01*
X197604400Y-55025400D01*
X197604400Y-55275970D01*
X197679249Y-55601460D01*
X197872960Y-55873531D01*
X198156043Y-56050761D01*
X198301126Y-56091290D01*
X198434600Y-56016849D01*
X198434600Y-55025400D01*
X197604400Y-55025400D01*
X195105578Y-55025400D01*
X195105792Y-54781047D01*
X195082234Y-54724030D01*
X197604400Y-54724030D01*
X197604400Y-54974600D01*
X198434600Y-54974600D01*
X198434600Y-53983151D01*
X198301126Y-53908710D01*
X198156043Y-53949239D01*
X197872960Y-54126469D01*
X197679249Y-54398540D01*
X197604400Y-54724030D01*
X195082234Y-54724030D01*
X194937829Y-54374546D01*
X194627090Y-54063264D01*
X194220882Y-53894592D01*
X193781047Y-53894208D01*
X193374546Y-54062171D01*
X193063264Y-54372910D01*
X192894592Y-54779118D01*
X192894208Y-55218953D01*
X184945409Y-55218953D01*
X184945792Y-54781047D01*
X184777829Y-54374546D01*
X184467090Y-54063264D01*
X184060882Y-53894592D01*
X183621047Y-53894208D01*
X183214546Y-54062171D01*
X182903264Y-54372910D01*
X182734592Y-54779118D01*
X182734208Y-55218953D01*
X181719862Y-55218953D01*
X181719862Y-52218953D01*
X182734208Y-52218953D01*
X182902171Y-52625454D01*
X183212910Y-52936736D01*
X183619118Y-53105408D01*
X184058953Y-53105792D01*
X184465454Y-52937829D01*
X184776736Y-52627090D01*
X184945408Y-52220882D01*
X184945409Y-52218953D01*
X192894208Y-52218953D01*
X193062171Y-52625454D01*
X193372910Y-52936736D01*
X193779118Y-53105408D01*
X194218953Y-53105792D01*
X194625454Y-52937829D01*
X194936736Y-52627090D01*
X195105408Y-52220882D01*
X195105792Y-51781047D01*
X194937829Y-51374546D01*
X194627090Y-51063264D01*
X194220882Y-50894592D01*
X193781047Y-50894208D01*
X193374546Y-51062171D01*
X193063264Y-51372910D01*
X192894592Y-51779118D01*
X192894208Y-52218953D01*
X184945409Y-52218953D01*
X184945792Y-51781047D01*
X184777829Y-51374546D01*
X184467090Y-51063264D01*
X184060882Y-50894592D01*
X183621047Y-50894208D01*
X183214546Y-51062171D01*
X182903264Y-51372910D01*
X182734592Y-51779118D01*
X182734208Y-52218953D01*
X181719862Y-52218953D01*
X181719862Y-51681262D01*
X181683126Y-51496579D01*
X181578512Y-51340012D01*
X179457453Y-49218953D01*
X182744208Y-49218953D01*
X182912171Y-49625454D01*
X183222910Y-49936736D01*
X183629118Y-50105408D01*
X184068953Y-50105792D01*
X184475454Y-49937829D01*
X184786736Y-49627090D01*
X184955408Y-49220882D01*
X184955792Y-48781047D01*
X184787829Y-48374546D01*
X184477090Y-48063264D01*
X184070882Y-47894592D01*
X183631047Y-47894208D01*
X183224546Y-48062171D01*
X182913264Y-48372910D01*
X182744592Y-48779118D01*
X182744208Y-49218953D01*
X179457453Y-49218953D01*
X179357250Y-49118750D01*
X179200683Y-49014136D01*
X179016000Y-48977400D01*
X178988639Y-48977400D01*
X178859606Y-48784289D01*
X178549587Y-48577141D01*
X178183895Y-48504400D01*
X177816105Y-48504400D01*
X177450413Y-48577141D01*
X177140394Y-48784289D01*
X176933246Y-49094308D01*
X176860505Y-49460000D01*
X171519495Y-49460000D01*
X171446754Y-49094308D01*
X171239606Y-48784289D01*
X170929587Y-48577141D01*
X170563895Y-48504400D01*
X170196105Y-48504400D01*
X169830413Y-48577141D01*
X169520394Y-48784289D01*
X169313246Y-49094308D01*
X169240505Y-49460000D01*
X169289448Y-49706052D01*
X168388750Y-50606750D01*
X168284136Y-50763317D01*
X168247400Y-50948000D01*
X168247400Y-63040973D01*
X168124999Y-63122758D01*
X167939529Y-63400335D01*
X167874400Y-63727759D01*
X164855600Y-63727759D01*
X164855600Y-63724030D01*
X164780751Y-63398540D01*
X164587040Y-63126469D01*
X164303957Y-62949239D01*
X164158874Y-62908710D01*
X164025400Y-62983151D01*
X163974600Y-62983151D01*
X163841126Y-62908710D01*
X163696043Y-62949239D01*
X163412960Y-63126469D01*
X163374022Y-63181158D01*
X163335001Y-63122758D01*
X163057424Y-62937288D01*
X162929640Y-62911870D01*
X163299900Y-62541610D01*
X165240990Y-62541610D01*
X165425673Y-62504874D01*
X165582240Y-62400260D01*
X167751829Y-60230670D01*
X167751832Y-60230668D01*
X167856446Y-60074101D01*
X167893182Y-59889418D01*
X167893182Y-46920000D01*
X169240505Y-46920000D01*
X169313246Y-47285692D01*
X169520394Y-47595711D01*
X169830413Y-47802859D01*
X170196105Y-47875600D01*
X170563895Y-47875600D01*
X170929587Y-47802859D01*
X171239606Y-47595711D01*
X171446754Y-47285692D01*
X171519495Y-46920000D01*
X176860505Y-46920000D01*
X176933246Y-47285692D01*
X177140394Y-47595711D01*
X177450413Y-47802859D01*
X177816105Y-47875600D01*
X178183895Y-47875600D01*
X178549587Y-47802859D01*
X178859606Y-47595711D01*
X179066754Y-47285692D01*
X179139495Y-46920000D01*
X179066754Y-46554308D01*
X178859606Y-46244289D01*
X178821688Y-46218953D01*
X182744208Y-46218953D01*
X182912171Y-46625454D01*
X183222910Y-46936736D01*
X183629118Y-47105408D01*
X184068953Y-47105792D01*
X184475454Y-46937829D01*
X184786736Y-46627090D01*
X184955408Y-46220882D01*
X184955409Y-46218953D01*
X192904208Y-46218953D01*
X193072171Y-46625454D01*
X193382910Y-46936736D01*
X193789118Y-47105408D01*
X194228953Y-47105792D01*
X194373547Y-47046047D01*
X195770234Y-48442734D01*
X195770234Y-49945579D01*
X195803049Y-50110549D01*
X195056133Y-49363633D01*
X195115408Y-49220882D01*
X195115792Y-48781047D01*
X194947829Y-48374546D01*
X194637090Y-48063264D01*
X194230882Y-47894592D01*
X193791047Y-47894208D01*
X193384546Y-48062171D01*
X193073264Y-48372910D01*
X192904592Y-48779118D01*
X192904208Y-49218953D01*
X193072171Y-49625454D01*
X193382910Y-49936736D01*
X193789118Y-50105408D01*
X194228953Y-50105792D01*
X194373547Y-50046047D01*
X194668239Y-50340739D01*
X196960534Y-52633033D01*
X196960536Y-52633036D01*
X197117103Y-52737650D01*
X197301786Y-52774387D01*
X197301791Y-52774386D01*
X198392876Y-52774386D01*
X199530360Y-53911870D01*
X199402576Y-53937288D01*
X199124999Y-54122758D01*
X199085978Y-54181158D01*
X199047040Y-54126469D01*
X198763957Y-53949239D01*
X198618874Y-53908710D01*
X198485400Y-53983151D01*
X198485400Y-54974600D01*
X198505400Y-54974600D01*
X198505400Y-55025400D01*
X198485400Y-55025400D01*
X198485400Y-56016849D01*
X198618874Y-56091290D01*
X198763957Y-56050761D01*
X199047040Y-55873531D01*
X199085978Y-55818842D01*
X199124999Y-55877242D01*
X199402576Y-56062712D01*
X199730000Y-56127841D01*
X200057424Y-56062712D01*
X200335001Y-55877242D01*
X200365000Y-55832345D01*
X200394999Y-55877242D01*
X200672576Y-56062712D01*
X201000000Y-56127841D01*
X201327424Y-56062712D01*
X201605001Y-55877242D01*
X201607986Y-55872775D01*
X201607986Y-59172124D01*
X201575001Y-59122758D01*
X201297424Y-58937288D01*
X200970000Y-58872159D01*
X200642576Y-58937288D01*
X200364999Y-59122758D01*
X200335000Y-59167655D01*
X200305001Y-59122758D01*
X200027424Y-58937288D01*
X199700000Y-58872159D01*
X199372576Y-58937288D01*
X199094999Y-59122758D01*
X199055978Y-59181158D01*
X199017040Y-59126469D01*
X198733957Y-58949239D01*
X198588874Y-58908710D01*
X198455400Y-58983151D01*
X198455400Y-59974600D01*
X198475400Y-59974600D01*
X198475400Y-60025400D01*
X198455400Y-60025400D01*
X198455400Y-61016849D01*
X198588874Y-61091290D01*
X198733957Y-61050761D01*
X199017040Y-60873531D01*
X199055978Y-60818842D01*
X199094999Y-60877242D01*
X199372576Y-61062712D01*
X199700000Y-61127841D01*
X200027424Y-61062712D01*
X200305001Y-60877242D01*
X200335000Y-60832345D01*
X200364999Y-60877242D01*
X200642576Y-61062712D01*
X200970000Y-61127841D01*
X201297424Y-61062712D01*
X201575001Y-60877242D01*
X201760471Y-60599665D01*
X201807370Y-60363888D01*
X201841250Y-60341250D01*
X202431836Y-59750664D01*
X202536450Y-59594097D01*
X202573187Y-59409414D01*
X202573186Y-59409409D01*
X202573186Y-54355181D01*
X202536450Y-54170498D01*
X202431836Y-54013931D01*
X199860430Y-51442525D01*
X199703863Y-51337911D01*
X199519180Y-51301175D01*
X198290930Y-51301175D01*
X197015155Y-50025400D01*
X197604400Y-50025400D01*
X197604400Y-50275970D01*
X197679249Y-50601460D01*
X197872960Y-50873531D01*
X198156043Y-51050761D01*
X198301126Y-51091290D01*
X198434600Y-51016849D01*
X198434600Y-50025400D01*
X197604400Y-50025400D01*
X197015155Y-50025400D01*
X196735434Y-49745679D01*
X196735434Y-49724030D01*
X197604400Y-49724030D01*
X197604400Y-49974600D01*
X198434600Y-49974600D01*
X198434600Y-48983151D01*
X198301126Y-48908710D01*
X198156043Y-48949239D01*
X197872960Y-49126469D01*
X197679249Y-49398540D01*
X197604400Y-49724030D01*
X196735434Y-49724030D01*
X196735434Y-48242834D01*
X196698698Y-48058151D01*
X196594084Y-47901584D01*
X195056133Y-46363633D01*
X195115408Y-46220882D01*
X195115792Y-45781047D01*
X194947829Y-45374546D01*
X194637090Y-45063264D01*
X194230882Y-44894592D01*
X193791047Y-44894208D01*
X193384546Y-45062171D01*
X193073264Y-45372910D01*
X192904592Y-45779118D01*
X192904208Y-46218953D01*
X184955409Y-46218953D01*
X184955792Y-45781047D01*
X184787829Y-45374546D01*
X184477090Y-45063264D01*
X184070882Y-44894592D01*
X183631047Y-44894208D01*
X183224546Y-45062171D01*
X182913264Y-45372910D01*
X182744592Y-45779118D01*
X182744208Y-46218953D01*
X178821688Y-46218953D01*
X178549587Y-46037141D01*
X178183895Y-45964400D01*
X177816105Y-45964400D01*
X177450413Y-46037141D01*
X177140394Y-46244289D01*
X176933246Y-46554308D01*
X176860505Y-46920000D01*
X171519495Y-46920000D01*
X171446754Y-46554308D01*
X171239606Y-46244289D01*
X170929587Y-46037141D01*
X170563895Y-45964400D01*
X170196105Y-45964400D01*
X169830413Y-46037141D01*
X169520394Y-46244289D01*
X169313246Y-46554308D01*
X169240505Y-46920000D01*
X167893182Y-46920000D01*
X167893182Y-46533318D01*
X169460471Y-44966029D01*
X169520394Y-45055711D01*
X169830413Y-45262859D01*
X170196105Y-45335600D01*
X170563895Y-45335600D01*
X170929587Y-45262859D01*
X171239606Y-45055711D01*
X171446754Y-44745692D01*
X171519495Y-44380000D01*
X176860505Y-44380000D01*
X176933246Y-44745692D01*
X177140394Y-45055711D01*
X177450413Y-45262859D01*
X177816105Y-45335600D01*
X178183895Y-45335600D01*
X178549587Y-45262859D01*
X178859606Y-45055711D01*
X179066754Y-44745692D01*
X179139495Y-44380000D01*
X179066754Y-44014308D01*
X178859606Y-43704289D01*
X178549587Y-43497141D01*
X178183895Y-43424400D01*
X177816105Y-43424400D01*
X177450413Y-43497141D01*
X177140394Y-43704289D01*
X176933246Y-44014308D01*
X176860505Y-44380000D01*
X171519495Y-44380000D01*
X171446754Y-44014308D01*
X171239606Y-43704289D01*
X170929587Y-43497141D01*
X170563895Y-43424400D01*
X170196105Y-43424400D01*
X169830413Y-43497141D01*
X169520394Y-43704289D01*
X169391361Y-43897400D01*
X169364000Y-43897400D01*
X169179317Y-43934136D01*
X169022750Y-44038750D01*
X167069332Y-45992168D01*
X166964718Y-46148735D01*
X166927982Y-46333418D01*
X166927982Y-59689519D01*
X165041090Y-61576410D01*
X163100000Y-61576410D01*
X162915317Y-61613146D01*
X162758750Y-61717760D01*
X161580402Y-62896108D01*
X161460000Y-62872159D01*
X161132576Y-62937288D01*
X160854999Y-63122758D01*
X160669529Y-63400335D01*
X160604400Y-63727759D01*
X160604400Y-64272241D01*
X160669529Y-64599665D01*
X160854999Y-64877242D01*
X161132576Y-65062712D01*
X161460000Y-65127841D01*
X161787424Y-65062712D01*
X162065001Y-64877242D01*
X162095000Y-64832345D01*
X162124999Y-64877242D01*
X162247400Y-64959027D01*
X162247400Y-65165756D01*
X162284136Y-65350439D01*
X162388750Y-65507006D01*
X163499144Y-66617400D01*
X161994095Y-66617400D01*
X160467531Y-65090836D01*
X160467531Y-58218953D01*
X163894208Y-58218953D01*
X164062171Y-58625454D01*
X164372910Y-58936736D01*
X164779118Y-59105408D01*
X165218953Y-59105792D01*
X165625454Y-58937829D01*
X165936736Y-58627090D01*
X166105408Y-58220882D01*
X166105792Y-57781047D01*
X165937829Y-57374546D01*
X165627090Y-57063264D01*
X165220882Y-56894592D01*
X164781047Y-56894208D01*
X164374546Y-57062171D01*
X164063264Y-57372910D01*
X163894592Y-57779118D01*
X163894208Y-58218953D01*
X160467531Y-58218953D01*
X160467531Y-55218953D01*
X163894208Y-55218953D01*
X164062171Y-55625454D01*
X164372910Y-55936736D01*
X164779118Y-56105408D01*
X165218953Y-56105792D01*
X165625454Y-55937829D01*
X165936736Y-55627090D01*
X166105408Y-55220882D01*
X166105792Y-54781047D01*
X165937829Y-54374546D01*
X165627090Y-54063264D01*
X165220882Y-53894592D01*
X164781047Y-53894208D01*
X164374546Y-54062171D01*
X164063264Y-54372910D01*
X163894592Y-54779118D01*
X163894208Y-55218953D01*
X160467531Y-55218953D01*
X160467531Y-52655730D01*
X160667488Y-52456122D01*
X160765968Y-52218953D01*
X163894208Y-52218953D01*
X164062171Y-52625454D01*
X164372910Y-52936736D01*
X164779118Y-53105408D01*
X165218953Y-53105792D01*
X165625454Y-52937829D01*
X165936736Y-52627090D01*
X166105408Y-52220882D01*
X166105792Y-51781047D01*
X165937829Y-51374546D01*
X165627090Y-51063264D01*
X165220882Y-50894592D01*
X164781047Y-50894208D01*
X164374546Y-51062171D01*
X164063264Y-51372910D01*
X163894592Y-51779118D01*
X163894208Y-52218953D01*
X160765968Y-52218953D01*
X160790391Y-52160137D01*
X160790671Y-51839649D01*
X160668284Y-51543450D01*
X160441863Y-51316633D01*
X160145878Y-51193730D01*
X159825390Y-51193450D01*
X159734468Y-51231018D01*
X159734468Y-49218953D01*
X163894208Y-49218953D01*
X164062171Y-49625454D01*
X164372910Y-49936736D01*
X164779118Y-50105408D01*
X165218953Y-50105792D01*
X165625454Y-49937829D01*
X165936736Y-49627090D01*
X166105408Y-49220882D01*
X166105792Y-48781047D01*
X165937829Y-48374546D01*
X165627090Y-48063264D01*
X165220882Y-47894592D01*
X164781047Y-47894208D01*
X164374546Y-48062171D01*
X164063264Y-48372910D01*
X163894592Y-48779118D01*
X163894208Y-49218953D01*
X159734468Y-49218953D01*
X159734468Y-46474841D01*
X159934425Y-46275233D01*
X159957794Y-46218953D01*
X163894208Y-46218953D01*
X164062171Y-46625454D01*
X164372910Y-46936736D01*
X164779118Y-47105408D01*
X165218953Y-47105792D01*
X165625454Y-46937829D01*
X165936736Y-46627090D01*
X166105408Y-46220882D01*
X166105792Y-45781047D01*
X165937829Y-45374546D01*
X165627090Y-45063264D01*
X165220882Y-44894592D01*
X164781047Y-44894208D01*
X164374546Y-45062171D01*
X164063264Y-45372910D01*
X163894592Y-45779118D01*
X163894208Y-46218953D01*
X159957794Y-46218953D01*
X160057328Y-45979248D01*
X160057608Y-45658760D01*
X159935221Y-45362561D01*
X159708800Y-45135744D01*
X159412815Y-45012841D01*
X159092327Y-45012561D01*
X158796128Y-45134948D01*
X158569311Y-45361369D01*
X158446408Y-45657354D01*
X158446128Y-45977842D01*
X158568515Y-46274041D01*
X158769268Y-46475145D01*
X158769268Y-48062106D01*
X158581795Y-47984261D01*
X158261307Y-47983981D01*
X157965108Y-48106368D01*
X157738291Y-48332789D01*
X157615388Y-48628774D01*
X157615108Y-48949262D01*
X155945645Y-48949262D01*
X155945792Y-48781047D01*
X155777829Y-48374546D01*
X155467090Y-48063264D01*
X155060882Y-47894592D01*
X154621047Y-47894208D01*
X154214546Y-48062171D01*
X153903264Y-48372910D01*
X153734592Y-48779118D01*
X153734208Y-49218953D01*
X153793953Y-49363547D01*
X152282600Y-50874900D01*
X152282600Y-49239900D01*
X154476367Y-47046133D01*
X154619118Y-47105408D01*
X155058953Y-47105792D01*
X155465454Y-46937829D01*
X155776736Y-46627090D01*
X155945408Y-46220882D01*
X155945792Y-45781047D01*
X155777829Y-45374546D01*
X155467090Y-45063264D01*
X155060882Y-44894592D01*
X154621047Y-44894208D01*
X154214546Y-45062171D01*
X153903264Y-45372910D01*
X153734592Y-45779118D01*
X153734208Y-46218953D01*
X153793953Y-46363547D01*
X153382600Y-46774900D01*
X153382600Y-45049900D01*
X154386367Y-44046133D01*
X154529118Y-44105408D01*
X154968953Y-44105792D01*
X155375454Y-43937829D01*
X155686736Y-43627090D01*
X155855408Y-43220882D01*
X155855409Y-43218953D01*
X163804208Y-43218953D01*
X163972171Y-43625454D01*
X164282910Y-43936736D01*
X164689118Y-44105408D01*
X165128953Y-44105792D01*
X165535454Y-43937829D01*
X165846736Y-43627090D01*
X166015408Y-43220882D01*
X166015409Y-43218953D01*
X182734208Y-43218953D01*
X182902171Y-43625454D01*
X183212910Y-43936736D01*
X183619118Y-44105408D01*
X184058953Y-44105792D01*
X184465454Y-43937829D01*
X184776736Y-43627090D01*
X184945408Y-43220882D01*
X184945792Y-42781047D01*
X184777829Y-42374546D01*
X184467090Y-42063264D01*
X184060882Y-41894592D01*
X183621047Y-41894208D01*
X183214546Y-42062171D01*
X182903264Y-42372910D01*
X182734592Y-42779118D01*
X182734208Y-43218953D01*
X166015409Y-43218953D01*
X166015792Y-42781047D01*
X165847829Y-42374546D01*
X165537090Y-42063264D01*
X165130882Y-41894592D01*
X164691047Y-41894208D01*
X164284546Y-42062171D01*
X163973264Y-42372910D01*
X163804592Y-42779118D01*
X163804208Y-43218953D01*
X155855409Y-43218953D01*
X155855792Y-42781047D01*
X155687829Y-42374546D01*
X155377090Y-42063264D01*
X154970882Y-41894592D01*
X154531047Y-41894208D01*
X154124546Y-42062171D01*
X153813264Y-42372910D01*
X153644592Y-42779118D01*
X153644208Y-43218953D01*
X153703953Y-43363547D01*
X152558750Y-44508750D01*
X152454136Y-44665317D01*
X152417400Y-44850000D01*
X152417400Y-47021666D01*
X152168873Y-47270193D01*
X152126066Y-47298797D01*
X152048326Y-47350741D01*
X152048319Y-47350748D01*
X152048316Y-47350750D01*
X152048314Y-47350753D01*
X150950740Y-48448326D01*
X150846126Y-48604893D01*
X150809390Y-48789576D01*
X150809390Y-56673727D01*
X149885620Y-57597497D01*
X149885792Y-57401047D01*
X149717829Y-56994546D01*
X149407090Y-56683264D01*
X149000882Y-56514592D01*
X148561047Y-56514208D01*
X148154546Y-56682171D01*
X147843264Y-56992910D01*
X147674592Y-57399118D01*
X147674208Y-57838953D01*
X147842171Y-58245454D01*
X148152910Y-58556736D01*
X148539833Y-58717400D01*
X146518322Y-58717400D01*
X146333639Y-58754136D01*
X146177072Y-58858750D01*
X144532749Y-60503073D01*
X144428135Y-60659640D01*
X144391399Y-60844323D01*
X144391399Y-62773999D01*
X144428135Y-62958682D01*
X144532749Y-63115249D01*
X146342400Y-64924900D01*
X146342400Y-66054507D01*
X146216210Y-65968285D01*
X146055000Y-65935639D01*
X145455000Y-65935639D01*
X145304397Y-65963977D01*
X145166078Y-66052983D01*
X145140512Y-66090400D01*
X145101104Y-66090400D01*
X143609600Y-64598896D01*
X143609600Y-63939719D01*
X143727463Y-63763325D01*
X143787400Y-63462000D01*
X143787400Y-63038507D01*
X143800603Y-63036023D01*
X143938922Y-62947017D01*
X144031715Y-62811210D01*
X144064361Y-62650000D01*
X144064361Y-61350000D01*
X144036023Y-61199397D01*
X143947017Y-61061078D01*
X143811210Y-60968285D01*
X143787400Y-60963463D01*
X143787400Y-59460000D01*
X143727463Y-59158675D01*
X143556776Y-58903224D01*
X143307839Y-58654287D01*
X143479118Y-58725408D01*
X143918953Y-58725792D01*
X144325454Y-58557829D01*
X144511635Y-58371972D01*
X145523949Y-58371972D01*
X145598130Y-58546671D01*
X146001612Y-58721766D01*
X146441385Y-58729127D01*
X146850500Y-58567633D01*
X146881870Y-58546671D01*
X146956051Y-58371972D01*
X146240000Y-57655921D01*
X145523949Y-58371972D01*
X144511635Y-58371972D01*
X144636736Y-58247090D01*
X144805408Y-57840882D01*
X144805425Y-57821385D01*
X145130873Y-57821385D01*
X145292367Y-58230500D01*
X145313329Y-58261870D01*
X145488028Y-58336051D01*
X146204079Y-57620000D01*
X146275921Y-57620000D01*
X146991972Y-58336051D01*
X147166671Y-58261870D01*
X147341766Y-57858388D01*
X147349127Y-57418615D01*
X147187633Y-57009500D01*
X147166671Y-56978130D01*
X146991972Y-56903949D01*
X146275921Y-57620000D01*
X146204079Y-57620000D01*
X145488028Y-56903949D01*
X145313329Y-56978130D01*
X145138234Y-57381612D01*
X145130873Y-57821385D01*
X144805425Y-57821385D01*
X144805792Y-57401047D01*
X144637829Y-56994546D01*
X144511532Y-56868028D01*
X145523949Y-56868028D01*
X146240000Y-57584079D01*
X146956051Y-56868028D01*
X146881870Y-56693329D01*
X146478388Y-56518234D01*
X146038615Y-56510873D01*
X145629500Y-56672367D01*
X145598130Y-56693329D01*
X145523949Y-56868028D01*
X144511532Y-56868028D01*
X144327090Y-56683264D01*
X143920882Y-56514592D01*
X143481047Y-56514208D01*
X143074546Y-56682171D01*
X142763264Y-56992910D01*
X142594592Y-57399118D01*
X142594208Y-57838953D01*
X142665821Y-58012269D01*
X142316363Y-57662811D01*
X142316600Y-57390987D01*
X142140920Y-56965808D01*
X141815903Y-56640224D01*
X141391031Y-56463801D01*
X140930987Y-56463400D01*
X140505808Y-56639080D01*
X140180224Y-56964097D01*
X140003801Y-57388969D01*
X140003400Y-57849013D01*
X140179080Y-58274192D01*
X140504097Y-58599776D01*
X140928969Y-58776199D01*
X141202886Y-58776438D01*
X142212600Y-59786152D01*
X142212600Y-60961493D01*
X142199397Y-60963977D01*
X142061078Y-61052983D01*
X141968285Y-61188790D01*
X141935639Y-61350000D01*
X141935639Y-62650000D01*
X141963977Y-62800603D01*
X142052983Y-62938922D01*
X142188790Y-63031715D01*
X142208574Y-63035721D01*
X141286919Y-63957377D01*
X138305223Y-63957377D01*
X138278965Y-63962600D01*
X136564300Y-63962600D01*
X136262975Y-64022537D01*
X136007524Y-64193224D01*
X132243224Y-67957524D01*
X132072537Y-68212975D01*
X132037245Y-68390400D01*
X131213487Y-68390400D01*
X130970824Y-68147313D01*
X130601064Y-67993775D01*
X130200693Y-67993425D01*
X129830665Y-68146318D01*
X129547313Y-68429176D01*
X129393775Y-68798936D01*
X129393425Y-69199307D01*
X127951947Y-69199307D01*
X127955433Y-69190914D01*
X127955765Y-68810753D01*
X127810590Y-68459403D01*
X127542011Y-68190354D01*
X127190914Y-68044567D01*
X126810753Y-68044235D01*
X126751300Y-68068800D01*
X125120400Y-66437900D01*
X125120400Y-63023655D01*
X125263254Y-62964629D01*
X125449435Y-62778772D01*
X134081749Y-62778772D01*
X134155930Y-62953471D01*
X134559412Y-63128566D01*
X134999185Y-63135927D01*
X135408300Y-62974433D01*
X135439670Y-62953471D01*
X135513851Y-62778772D01*
X134797800Y-62062721D01*
X134081749Y-62778772D01*
X125449435Y-62778772D01*
X125574536Y-62653890D01*
X125743208Y-62247682D01*
X125743225Y-62228185D01*
X133688673Y-62228185D01*
X133850167Y-62637300D01*
X133871129Y-62668670D01*
X134045828Y-62742851D01*
X134761879Y-62026800D01*
X134833721Y-62026800D01*
X135549772Y-62742851D01*
X135698136Y-62679852D01*
X139856069Y-62679852D01*
X139918077Y-62844160D01*
X140285419Y-63002595D01*
X140685430Y-63008393D01*
X141057209Y-62860673D01*
X141081923Y-62844160D01*
X141143931Y-62679852D01*
X140500000Y-62035921D01*
X139856069Y-62679852D01*
X135698136Y-62679852D01*
X135724471Y-62668670D01*
X135899566Y-62265188D01*
X135900901Y-62185430D01*
X139491607Y-62185430D01*
X139639327Y-62557209D01*
X139655840Y-62581923D01*
X139820148Y-62643931D01*
X140464079Y-62000000D01*
X140535921Y-62000000D01*
X141179852Y-62643931D01*
X141344160Y-62581923D01*
X141502595Y-62214581D01*
X141508393Y-61814570D01*
X141360673Y-61442791D01*
X141344160Y-61418077D01*
X141179852Y-61356069D01*
X140535921Y-62000000D01*
X140464079Y-62000000D01*
X139820148Y-61356069D01*
X139655840Y-61418077D01*
X139497405Y-61785419D01*
X139491607Y-62185430D01*
X135900901Y-62185430D01*
X135906927Y-61825415D01*
X135745433Y-61416300D01*
X135724471Y-61384930D01*
X135571907Y-61320148D01*
X139856069Y-61320148D01*
X140500000Y-61964079D01*
X141143931Y-61320148D01*
X141081923Y-61155840D01*
X140714581Y-60997405D01*
X140314570Y-60991607D01*
X139942791Y-61139327D01*
X139918077Y-61155840D01*
X139856069Y-61320148D01*
X135571907Y-61320148D01*
X135549772Y-61310749D01*
X134833721Y-62026800D01*
X134761879Y-62026800D01*
X134045828Y-61310749D01*
X133871129Y-61384930D01*
X133696034Y-61788412D01*
X133688673Y-62228185D01*
X125743225Y-62228185D01*
X125743592Y-61807847D01*
X125575629Y-61401346D01*
X125449332Y-61274828D01*
X134081749Y-61274828D01*
X134797800Y-61990879D01*
X135513851Y-61274828D01*
X135439670Y-61100129D01*
X135036188Y-60925034D01*
X134596415Y-60917673D01*
X134187300Y-61079167D01*
X134155930Y-61100129D01*
X134081749Y-61274828D01*
X125449332Y-61274828D01*
X125264890Y-61090064D01*
X124858682Y-60921392D01*
X124418847Y-60921008D01*
X124274253Y-60980753D01*
X121658560Y-58365060D01*
X121776736Y-58247090D01*
X121945408Y-57840882D01*
X121945409Y-57838953D01*
X122274208Y-57838953D01*
X122442171Y-58245454D01*
X122752910Y-58556736D01*
X123159118Y-58725408D01*
X123598953Y-58725792D01*
X124005454Y-58557829D01*
X124316736Y-58247090D01*
X124485408Y-57840882D01*
X124485409Y-57838953D01*
X124814208Y-57838953D01*
X124982171Y-58245454D01*
X125292910Y-58556736D01*
X125699118Y-58725408D01*
X126138953Y-58725792D01*
X126545454Y-58557829D01*
X126856736Y-58247090D01*
X127025408Y-57840882D01*
X127025409Y-57838953D01*
X127354208Y-57838953D01*
X127522171Y-58245454D01*
X127832910Y-58556736D01*
X128239118Y-58725408D01*
X128678953Y-58725792D01*
X129085454Y-58557829D01*
X129396736Y-58247090D01*
X129565408Y-57840882D01*
X129565409Y-57838953D01*
X129894208Y-57838953D01*
X130062171Y-58245454D01*
X130372910Y-58556736D01*
X130779118Y-58725408D01*
X131218953Y-58725792D01*
X131625454Y-58557829D01*
X131936736Y-58247090D01*
X132105408Y-57840882D01*
X132105409Y-57838953D01*
X132434208Y-57838953D01*
X132602171Y-58245454D01*
X132912910Y-58556736D01*
X133319118Y-58725408D01*
X133758953Y-58725792D01*
X134165454Y-58557829D01*
X134476736Y-58247090D01*
X134645408Y-57840882D01*
X134645409Y-57838953D01*
X134974208Y-57838953D01*
X135142171Y-58245454D01*
X135452910Y-58556736D01*
X135859118Y-58725408D01*
X136298953Y-58725792D01*
X136705454Y-58557829D01*
X137016736Y-58247090D01*
X137185408Y-57840882D01*
X137185409Y-57838953D01*
X137514208Y-57838953D01*
X137682171Y-58245454D01*
X137992910Y-58556736D01*
X138399118Y-58725408D01*
X138838953Y-58725792D01*
X139245454Y-58557829D01*
X139556736Y-58247090D01*
X139725408Y-57840882D01*
X139725792Y-57401047D01*
X139557829Y-56994546D01*
X139247090Y-56683264D01*
X138840882Y-56514592D01*
X138401047Y-56514208D01*
X137994546Y-56682171D01*
X137683264Y-56992910D01*
X137514592Y-57399118D01*
X137514208Y-57838953D01*
X137185409Y-57838953D01*
X137185792Y-57401047D01*
X137017829Y-56994546D01*
X136707090Y-56683264D01*
X136300882Y-56514592D01*
X135861047Y-56514208D01*
X135454546Y-56682171D01*
X135143264Y-56992910D01*
X134974592Y-57399118D01*
X134974208Y-57838953D01*
X134645409Y-57838953D01*
X134645792Y-57401047D01*
X134477829Y-56994546D01*
X134167090Y-56683264D01*
X133760882Y-56514592D01*
X133321047Y-56514208D01*
X132914546Y-56682171D01*
X132603264Y-56992910D01*
X132434592Y-57399118D01*
X132434208Y-57838953D01*
X132105409Y-57838953D01*
X132105792Y-57401047D01*
X131937829Y-56994546D01*
X131627090Y-56683264D01*
X131220882Y-56514592D01*
X130781047Y-56514208D01*
X130374546Y-56682171D01*
X130063264Y-56992910D01*
X129894592Y-57399118D01*
X129894208Y-57838953D01*
X129565409Y-57838953D01*
X129565792Y-57401047D01*
X129397829Y-56994546D01*
X129087090Y-56683264D01*
X128680882Y-56514592D01*
X128241047Y-56514208D01*
X127834546Y-56682171D01*
X127523264Y-56992910D01*
X127354592Y-57399118D01*
X127354208Y-57838953D01*
X127025409Y-57838953D01*
X127025792Y-57401047D01*
X126857829Y-56994546D01*
X126547090Y-56683264D01*
X126140882Y-56514592D01*
X125701047Y-56514208D01*
X125294546Y-56682171D01*
X124983264Y-56992910D01*
X124814592Y-57399118D01*
X124814208Y-57838953D01*
X124485409Y-57838953D01*
X124485792Y-57401047D01*
X124317829Y-56994546D01*
X124007090Y-56683264D01*
X123600882Y-56514592D01*
X123161047Y-56514208D01*
X122754546Y-56682171D01*
X122443264Y-56992910D01*
X122274592Y-57399118D01*
X122274208Y-57838953D01*
X121945409Y-57838953D01*
X121945792Y-57401047D01*
X121777829Y-56994546D01*
X121467090Y-56683264D01*
X121060882Y-56514592D01*
X120621047Y-56514208D01*
X120214546Y-56682171D01*
X119903264Y-56992910D01*
X119734592Y-57399118D01*
X119734208Y-57838953D01*
X119405409Y-57838953D01*
X119405792Y-57401047D01*
X119237829Y-56994546D01*
X118927090Y-56683264D01*
X118520882Y-56514592D01*
X118081047Y-56514208D01*
X117674546Y-56682171D01*
X117363264Y-56992910D01*
X117194592Y-57399118D01*
X117194208Y-57838953D01*
X116865409Y-57838953D01*
X116865792Y-57401047D01*
X116697829Y-56994546D01*
X116387090Y-56683264D01*
X115980882Y-56514592D01*
X115541047Y-56514208D01*
X115134546Y-56682171D01*
X114823264Y-56992910D01*
X114654592Y-57399118D01*
X114654208Y-57838953D01*
X114325409Y-57838953D01*
X114325792Y-57401047D01*
X114157829Y-56994546D01*
X113847090Y-56683264D01*
X113440882Y-56514592D01*
X113001047Y-56514208D01*
X112594546Y-56682171D01*
X112283264Y-56992910D01*
X112114592Y-57399118D01*
X112114208Y-57838953D01*
X110430600Y-57838953D01*
X110430600Y-42598953D01*
X112114208Y-42598953D01*
X112282171Y-43005454D01*
X112592910Y-43316736D01*
X112999118Y-43485408D01*
X113438953Y-43485792D01*
X113845454Y-43317829D01*
X114156736Y-43007090D01*
X114325408Y-42600882D01*
X114325409Y-42598953D01*
X114654208Y-42598953D01*
X114822171Y-43005454D01*
X115132910Y-43316736D01*
X115539118Y-43485408D01*
X115978953Y-43485792D01*
X116385454Y-43317829D01*
X116696736Y-43007090D01*
X116865408Y-42600882D01*
X116865409Y-42598953D01*
X117194208Y-42598953D01*
X117362171Y-43005454D01*
X117672910Y-43316736D01*
X118079118Y-43485408D01*
X118518953Y-43485792D01*
X118925454Y-43317829D01*
X119236736Y-43007090D01*
X119405408Y-42600882D01*
X119405409Y-42598953D01*
X119734208Y-42598953D01*
X119902171Y-43005454D01*
X120212910Y-43316736D01*
X120619118Y-43485408D01*
X121058953Y-43485792D01*
X121465454Y-43317829D01*
X121776736Y-43007090D01*
X121945408Y-42600882D01*
X121945792Y-42161047D01*
X121777829Y-41754546D01*
X121467090Y-41443264D01*
X121060882Y-41274592D01*
X120621047Y-41274208D01*
X120214546Y-41442171D01*
X119903264Y-41752910D01*
X119734592Y-42159118D01*
X119734208Y-42598953D01*
X119405409Y-42598953D01*
X119405792Y-42161047D01*
X119237829Y-41754546D01*
X118927090Y-41443264D01*
X118520882Y-41274592D01*
X118081047Y-41274208D01*
X117674546Y-41442171D01*
X117363264Y-41752910D01*
X117194592Y-42159118D01*
X117194208Y-42598953D01*
X116865409Y-42598953D01*
X116865792Y-42161047D01*
X116697829Y-41754546D01*
X116387090Y-41443264D01*
X115980882Y-41274592D01*
X115541047Y-41274208D01*
X115134546Y-41442171D01*
X114823264Y-41752910D01*
X114654592Y-42159118D01*
X114654208Y-42598953D01*
X114325409Y-42598953D01*
X114325792Y-42161047D01*
X114157829Y-41754546D01*
X113847090Y-41443264D01*
X113440882Y-41274592D01*
X113001047Y-41274208D01*
X112594546Y-41442171D01*
X112283264Y-41752910D01*
X112114592Y-42159118D01*
X112114208Y-42598953D01*
X110430600Y-42598953D01*
X110430600Y-40430600D01*
X124646900Y-40430600D01*
X123743633Y-41333867D01*
X123743633Y-41333867D01*
G37*
X123743633Y-41333867D02*
X123600882Y-41274592D01*
X123161047Y-41274208D01*
X122754546Y-41442171D01*
X122443264Y-41752910D01*
X122274592Y-42159118D01*
X122274208Y-42598953D01*
X122442171Y-43005454D01*
X122752910Y-43316736D01*
X123159118Y-43485408D01*
X123598953Y-43485792D01*
X124005454Y-43317829D01*
X124316736Y-43007090D01*
X124485408Y-42600882D01*
X124485792Y-42161047D01*
X124426047Y-42016453D01*
X125359426Y-41083074D01*
X125834427Y-41083074D01*
X125658750Y-41258750D01*
X125628351Y-41304245D01*
X125294546Y-41442171D01*
X124983264Y-41752910D01*
X124814592Y-42159118D01*
X124814208Y-42598953D01*
X124982171Y-43005454D01*
X125292910Y-43316736D01*
X125699118Y-43485408D01*
X126138953Y-43485792D01*
X126545454Y-43317829D01*
X126856736Y-43007090D01*
X127025408Y-42600882D01*
X127025792Y-42161047D01*
X126857829Y-41754546D01*
X126834922Y-41731599D01*
X127544612Y-41731599D01*
X127523264Y-41752910D01*
X127354592Y-42159118D01*
X127354208Y-42598953D01*
X127522171Y-43005454D01*
X127832910Y-43316736D01*
X128239118Y-43485408D01*
X128678953Y-43485792D01*
X129085454Y-43317829D01*
X129396736Y-43007090D01*
X129565408Y-42600882D01*
X129565792Y-42161047D01*
X129397829Y-41754546D01*
X129374922Y-41731599D01*
X130084612Y-41731599D01*
X130063264Y-41752910D01*
X129894592Y-42159118D01*
X129894208Y-42598953D01*
X130062171Y-43005454D01*
X130372910Y-43316736D01*
X130779118Y-43485408D01*
X131218953Y-43485792D01*
X131625454Y-43317829D01*
X131936736Y-43007090D01*
X132105408Y-42600882D01*
X132105792Y-42161047D01*
X131937829Y-41754546D01*
X131914922Y-41731599D01*
X132624612Y-41731599D01*
X132603264Y-41752910D01*
X132434592Y-42159118D01*
X132434208Y-42598953D01*
X132602171Y-43005454D01*
X132912910Y-43316736D01*
X133319118Y-43485408D01*
X133758953Y-43485792D01*
X134165454Y-43317829D01*
X134476736Y-43007090D01*
X134645408Y-42600882D01*
X134645792Y-42161047D01*
X134477829Y-41754546D01*
X134454922Y-41731599D01*
X135164612Y-41731599D01*
X135143264Y-41752910D01*
X134974592Y-42159118D01*
X134974208Y-42598953D01*
X135142171Y-43005454D01*
X135452910Y-43316736D01*
X135597400Y-43376733D01*
X135597400Y-43440660D01*
X135617400Y-43541206D01*
X135617400Y-46900101D01*
X131958750Y-50558750D01*
X131854136Y-50715317D01*
X131817400Y-50900000D01*
X131817400Y-55043460D01*
X131617443Y-55243068D01*
X131494540Y-55539053D01*
X131494260Y-55859541D01*
X131616647Y-56155740D01*
X131843068Y-56382557D01*
X132139053Y-56505460D01*
X132459541Y-56505740D01*
X132755740Y-56383353D01*
X132982557Y-56156932D01*
X133105460Y-55860947D01*
X133105740Y-55540459D01*
X132983353Y-55244260D01*
X132782600Y-55043156D01*
X132782600Y-51099900D01*
X136441247Y-47441252D01*
X136441250Y-47441250D01*
X136545864Y-47284683D01*
X136551940Y-47254136D01*
X136582601Y-47100000D01*
X136582600Y-47099995D01*
X136582600Y-43460660D01*
X136565677Y-43375584D01*
X136705454Y-43317829D01*
X137016736Y-43007090D01*
X137185408Y-42600882D01*
X137185792Y-42161047D01*
X137017829Y-41754546D01*
X136994922Y-41731599D01*
X137704612Y-41731599D01*
X137683264Y-41752910D01*
X137514592Y-42159118D01*
X137514208Y-42598953D01*
X137682171Y-43005454D01*
X137992910Y-43316736D01*
X138399118Y-43485408D01*
X138838953Y-43485792D01*
X139245454Y-43317829D01*
X139431635Y-43131972D01*
X140443949Y-43131972D01*
X140518130Y-43306671D01*
X140921612Y-43481766D01*
X141361385Y-43489127D01*
X141770500Y-43327633D01*
X141801870Y-43306671D01*
X141876051Y-43131972D01*
X141160000Y-42415921D01*
X140443949Y-43131972D01*
X139431635Y-43131972D01*
X139556736Y-43007090D01*
X139725408Y-42600882D01*
X139725792Y-42161047D01*
X139557829Y-41754546D01*
X139534922Y-41731599D01*
X140248710Y-41731599D01*
X140233329Y-41738130D01*
X140058234Y-42141612D01*
X140050873Y-42581385D01*
X140212367Y-42990500D01*
X140233329Y-43021870D01*
X140408028Y-43096051D01*
X141124079Y-42380000D01*
X141109937Y-42365858D01*
X141145858Y-42329937D01*
X141160000Y-42344079D01*
X141174143Y-42329937D01*
X141210064Y-42365858D01*
X141195921Y-42380000D01*
X141911972Y-43096051D01*
X142086671Y-43021870D01*
X142261766Y-42618388D01*
X142269127Y-42178615D01*
X142107633Y-41769500D01*
X142086671Y-41738130D01*
X142071290Y-41731599D01*
X142784612Y-41731599D01*
X142763264Y-41752910D01*
X142594592Y-42159118D01*
X142594208Y-42598953D01*
X142762171Y-43005454D01*
X143072910Y-43316736D01*
X143479118Y-43485408D01*
X143918953Y-43485792D01*
X144325454Y-43317829D01*
X144636736Y-43007090D01*
X144805408Y-42600882D01*
X144805792Y-42161047D01*
X144637829Y-41754546D01*
X144614922Y-41731599D01*
X145324612Y-41731599D01*
X145303264Y-41752910D01*
X145134592Y-42159118D01*
X145134208Y-42598953D01*
X145302171Y-43005454D01*
X145612910Y-43316736D01*
X146019118Y-43485408D01*
X146458953Y-43485792D01*
X146865454Y-43317829D01*
X147176736Y-43007090D01*
X147345408Y-42600882D01*
X147345792Y-42161047D01*
X147177829Y-41754546D01*
X147154922Y-41731599D01*
X147864612Y-41731599D01*
X147843264Y-41752910D01*
X147674592Y-42159118D01*
X147674208Y-42598953D01*
X147842171Y-43005454D01*
X148152910Y-43316736D01*
X148559118Y-43485408D01*
X148998953Y-43485792D01*
X149405454Y-43317829D01*
X149716736Y-43007090D01*
X149885408Y-42600882D01*
X149885792Y-42161047D01*
X149717829Y-41754546D01*
X149694922Y-41731599D01*
X201349099Y-41731599D01*
X204217400Y-44599899D01*
X204217400Y-46970000D01*
X204254136Y-47154683D01*
X204358750Y-47311250D01*
X205388750Y-48341250D01*
X205545317Y-48445864D01*
X205621434Y-48461005D01*
X205621434Y-49016000D01*
X205646230Y-49147777D01*
X205724110Y-49268807D01*
X205842942Y-49350001D01*
X205984000Y-49378566D01*
X208016000Y-49378566D01*
X208147777Y-49353770D01*
X208268807Y-49275890D01*
X208350001Y-49157058D01*
X208378566Y-49016000D01*
X208378566Y-46984000D01*
X208353770Y-46852223D01*
X208275890Y-46731193D01*
X208157058Y-46649999D01*
X208016000Y-46621434D01*
X207710040Y-46621434D01*
X207996739Y-46429868D01*
X208294064Y-45984889D01*
X208398471Y-45460000D01*
X208294064Y-44935111D01*
X207996739Y-44490132D01*
X207551760Y-44192807D01*
X207026871Y-44088400D01*
X206973129Y-44088400D01*
X206448240Y-44192807D01*
X206430878Y-44204408D01*
X206429865Y-44199318D01*
X206325251Y-44042751D01*
X202713100Y-40430600D01*
X209569400Y-40430600D01*
X209569400Y-79569400D01*
X197637883Y-79569400D01*
X197656776Y-79556776D01*
X200956776Y-76256776D01*
X201127463Y-76001325D01*
X201187400Y-75700000D01*
X201187400Y-73367482D01*
X203144079Y-73367482D01*
X203425982Y-74049740D01*
X203947515Y-74572184D01*
X204629279Y-74855277D01*
X205367482Y-74855921D01*
X206049740Y-74574018D01*
X206572184Y-74052485D01*
X206855277Y-73370721D01*
X206855921Y-72632518D01*
X206574018Y-71950260D01*
X206052485Y-71427816D01*
X205370721Y-71144723D01*
X204632518Y-71144079D01*
X203950260Y-71425982D01*
X203427816Y-71947515D01*
X203144723Y-72629279D01*
X203144079Y-73367482D01*
X201187400Y-73367482D01*
X201187400Y-70876152D01*
X203056776Y-69006776D01*
X203227463Y-68751325D01*
X203287400Y-68450000D01*
X203287400Y-67115495D01*
X203317698Y-67095251D01*
X203568374Y-66720088D01*
X203656400Y-66277553D01*
X203656400Y-65957152D01*
X204956776Y-64656776D01*
X205127463Y-64401325D01*
X205187400Y-64100000D01*
X205187400Y-62295771D01*
X205647646Y-62295771D01*
X205711486Y-62523101D01*
X205967535Y-62924144D01*
X206357566Y-63196674D01*
X206822200Y-63299200D01*
X206974600Y-63299200D01*
X206974600Y-62105400D01*
X207025400Y-62105400D01*
X207025400Y-63299200D01*
X207177800Y-63299200D01*
X207642434Y-63196674D01*
X208032465Y-62924144D01*
X208288514Y-62523101D01*
X208352354Y-62295771D01*
X208282415Y-62105400D01*
X207025400Y-62105400D01*
X206974600Y-62105400D01*
X205717585Y-62105400D01*
X205647646Y-62295771D01*
X205187400Y-62295771D01*
X205187400Y-61864229D01*
X205647646Y-61864229D01*
X205717585Y-62054600D01*
X206974600Y-62054600D01*
X206974600Y-60860800D01*
X207025400Y-60860800D01*
X207025400Y-62054600D01*
X208282415Y-62054600D01*
X208352354Y-61864229D01*
X208288514Y-61636899D01*
X208032465Y-61235856D01*
X207642434Y-60963326D01*
X207177800Y-60860800D01*
X207025400Y-60860800D01*
X206974600Y-60860800D01*
X206822200Y-60860800D01*
X206357566Y-60963326D01*
X205967535Y-61235856D01*
X205711486Y-61636899D01*
X205647646Y-61864229D01*
X205187400Y-61864229D01*
X205187400Y-59540000D01*
X205601529Y-59540000D01*
X205694335Y-60006568D01*
X205958624Y-60402105D01*
X206354161Y-60666394D01*
X206820729Y-60759200D01*
X207179271Y-60759200D01*
X207645839Y-60666394D01*
X208041376Y-60402105D01*
X208305665Y-60006568D01*
X208398471Y-59540000D01*
X208305665Y-59073432D01*
X208041376Y-58677895D01*
X207645839Y-58413606D01*
X207179271Y-58320800D01*
X206820729Y-58320800D01*
X206354161Y-58413606D01*
X205958624Y-58677895D01*
X205694335Y-59073432D01*
X205601529Y-59540000D01*
X205187400Y-59540000D01*
X205187400Y-57000000D01*
X205601529Y-57000000D01*
X205694335Y-57466568D01*
X205958624Y-57862105D01*
X206354161Y-58126394D01*
X206820729Y-58219200D01*
X207179271Y-58219200D01*
X207645839Y-58126394D01*
X208041376Y-57862105D01*
X208305665Y-57466568D01*
X208398471Y-57000000D01*
X208305665Y-56533432D01*
X208041376Y-56137895D01*
X207645839Y-55873606D01*
X207179271Y-55780800D01*
X206820729Y-55780800D01*
X206354161Y-55873606D01*
X205958624Y-56137895D01*
X205694335Y-56533432D01*
X205601529Y-57000000D01*
X205187400Y-57000000D01*
X205187400Y-55608152D01*
X205548152Y-55247400D01*
X205569639Y-55247400D01*
X205569639Y-55323600D01*
X205597977Y-55474203D01*
X205686983Y-55612522D01*
X205822790Y-55705315D01*
X205984000Y-55737961D01*
X208016000Y-55737961D01*
X208166603Y-55709623D01*
X208304922Y-55620617D01*
X208397715Y-55484810D01*
X208430361Y-55323600D01*
X208430361Y-53596400D01*
X208402023Y-53445797D01*
X208313017Y-53307478D01*
X208177210Y-53214685D01*
X208016000Y-53182039D01*
X207609600Y-53182039D01*
X207609600Y-52020411D01*
X207563197Y-51787127D01*
X207431052Y-51589359D01*
X201345800Y-45504107D01*
X201345800Y-45030234D01*
X201475122Y-44947017D01*
X201536997Y-44856459D01*
X201697910Y-44963978D01*
X202006200Y-45025301D01*
X202314490Y-44963978D01*
X202575845Y-44789346D01*
X202750477Y-44527991D01*
X202811800Y-44219701D01*
X202811800Y-43780299D01*
X202750477Y-43472009D01*
X202575845Y-43210654D01*
X202314490Y-43036022D01*
X202006200Y-42974699D01*
X201697910Y-43036022D01*
X201536496Y-43143876D01*
X201483217Y-43061078D01*
X201347410Y-42968285D01*
X201186200Y-42935639D01*
X200286200Y-42935639D01*
X200135597Y-42963977D01*
X199997278Y-43052983D01*
X199935403Y-43143541D01*
X199774490Y-43036022D01*
X199466200Y-42974699D01*
X199157910Y-43036022D01*
X198896555Y-43210654D01*
X198831200Y-43308465D01*
X198765845Y-43210654D01*
X198504490Y-43036022D01*
X198196200Y-42974699D01*
X197887910Y-43036022D01*
X197626555Y-43210654D01*
X197451923Y-43472009D01*
X197390600Y-43780299D01*
X197390600Y-44219701D01*
X197409200Y-44313208D01*
X195754742Y-42658750D01*
X195598175Y-42554136D01*
X195413492Y-42517400D01*
X194996855Y-42517400D01*
X194937829Y-42374546D01*
X194627090Y-42063264D01*
X194220882Y-41894592D01*
X193781047Y-41894208D01*
X193374546Y-42062171D01*
X193063264Y-42372910D01*
X192894592Y-42779118D01*
X192894208Y-43218953D01*
X193062171Y-43625454D01*
X193372910Y-43936736D01*
X193779118Y-44105408D01*
X194218953Y-44105792D01*
X194625454Y-43937829D01*
X194936736Y-43627090D01*
X194996733Y-43482600D01*
X195213592Y-43482600D01*
X200517400Y-48786407D01*
X200517400Y-49040973D01*
X200394999Y-49122758D01*
X200365000Y-49167655D01*
X200335001Y-49122758D01*
X200057424Y-48937288D01*
X199730000Y-48872159D01*
X199402576Y-48937288D01*
X199124999Y-49122758D01*
X199085978Y-49181158D01*
X199047040Y-49126469D01*
X198763957Y-48949239D01*
X198618874Y-48908710D01*
X198485400Y-48983151D01*
X198485400Y-49974600D01*
X198505400Y-49974600D01*
X198505400Y-50025400D01*
X198485400Y-50025400D01*
X198485400Y-51016849D01*
X198618874Y-51091290D01*
X198763957Y-51050761D01*
X199047040Y-50873531D01*
X199085978Y-50818842D01*
X199124999Y-50877242D01*
X199402576Y-51062712D01*
X199730000Y-51127841D01*
X200057424Y-51062712D01*
X200335001Y-50877242D01*
X200365000Y-50832345D01*
X200394999Y-50877242D01*
X200672576Y-51062712D01*
X201000000Y-51127841D01*
X201327424Y-51062712D01*
X201605001Y-50877242D01*
X201790471Y-50599665D01*
X201855600Y-50272241D01*
X201855600Y-49727759D01*
X201790471Y-49400335D01*
X201605001Y-49122758D01*
X201482600Y-49040973D01*
X201482600Y-48586508D01*
X201445864Y-48401825D01*
X201341250Y-48245258D01*
X201341247Y-48245256D01*
X198102693Y-45006701D01*
X198196200Y-45025301D01*
X198504490Y-44963978D01*
X198765845Y-44789346D01*
X198831200Y-44691535D01*
X198896555Y-44789346D01*
X199157910Y-44963978D01*
X199466200Y-45025301D01*
X199774490Y-44963978D01*
X199935904Y-44856124D01*
X199989183Y-44938922D01*
X200124990Y-45031715D01*
X200126600Y-45032041D01*
X200126600Y-45756611D01*
X200173003Y-45989895D01*
X200305148Y-46187663D01*
X206390400Y-52272915D01*
X206390400Y-53182039D01*
X205984000Y-53182039D01*
X205833397Y-53210377D01*
X205695078Y-53299383D01*
X205602285Y-53435190D01*
X205569639Y-53596400D01*
X205569639Y-53672600D01*
X205222000Y-53672600D01*
X204920675Y-53732537D01*
X204665224Y-53903224D01*
X203843224Y-54725224D01*
X203672537Y-54980675D01*
X203612600Y-55282000D01*
X203612600Y-63773848D01*
X202767243Y-64619205D01*
X202500000Y-64566047D01*
X202057465Y-64654073D01*
X201682302Y-64904749D01*
X201431626Y-65279912D01*
X201343600Y-65722447D01*
X201343600Y-66277553D01*
X201431626Y-66720088D01*
X201682302Y-67095251D01*
X201712600Y-67115495D01*
X201712600Y-68123848D01*
X199843224Y-69993224D01*
X199672537Y-70248675D01*
X199612600Y-70550000D01*
X199612600Y-75373848D01*
X196773848Y-78212600D01*
X129414152Y-78212600D01*
X128287400Y-77085848D01*
X128287400Y-77038507D01*
X128300603Y-77036023D01*
X128438922Y-76947017D01*
X128531715Y-76811210D01*
X128564361Y-76650000D01*
X128564361Y-75350000D01*
X128536023Y-75199397D01*
X128447017Y-75061078D01*
X128311210Y-74968285D01*
X128150000Y-74935639D01*
X126850000Y-74935639D01*
X126699397Y-74963977D01*
X126561078Y-75052983D01*
X126468285Y-75188790D01*
X126435639Y-75350000D01*
X126435639Y-75631464D01*
X126360673Y-75442791D01*
X126344160Y-75418077D01*
X126179852Y-75356069D01*
X125535921Y-76000000D01*
X126179852Y-76643931D01*
X126344160Y-76581923D01*
X126435639Y-76369823D01*
X126435639Y-76650000D01*
X126463977Y-76800603D01*
X126552983Y-76938922D01*
X126688790Y-77031715D01*
X126712600Y-77036537D01*
X126712600Y-77412000D01*
X126772537Y-77713325D01*
X126943224Y-77968776D01*
X128531224Y-79556776D01*
X128550117Y-79569400D01*
X110430600Y-79569400D01*
X110430600Y-78237113D01*
X115815298Y-78237113D01*
X115887869Y-78495300D01*
X116173486Y-78940594D01*
X116607768Y-79242691D01*
X117124600Y-79355600D01*
X118124600Y-79355600D01*
X118124600Y-78025400D01*
X118175400Y-78025400D01*
X118175400Y-79355600D01*
X119175400Y-79355600D01*
X119692232Y-79242691D01*
X120126514Y-78940594D01*
X120412131Y-78495300D01*
X120484702Y-78237113D01*
X120416445Y-78025400D01*
X118175400Y-78025400D01*
X118124600Y-78025400D01*
X115883555Y-78025400D01*
X115815298Y-78237113D01*
X110430600Y-78237113D01*
X110430600Y-77762887D01*
X115815298Y-77762887D01*
X115883555Y-77974600D01*
X118124600Y-77974600D01*
X118124600Y-76644400D01*
X118175400Y-76644400D01*
X118175400Y-77974600D01*
X120416445Y-77974600D01*
X120484702Y-77762887D01*
X120412131Y-77504700D01*
X120126514Y-77059406D01*
X119692232Y-76757309D01*
X119337679Y-76679852D01*
X124856069Y-76679852D01*
X124918077Y-76844160D01*
X125285419Y-77002595D01*
X125685430Y-77008393D01*
X126057209Y-76860673D01*
X126081923Y-76844160D01*
X126143931Y-76679852D01*
X125500000Y-76035921D01*
X124856069Y-76679852D01*
X119337679Y-76679852D01*
X119175400Y-76644400D01*
X118175400Y-76644400D01*
X118124600Y-76644400D01*
X117124600Y-76644400D01*
X116607768Y-76757309D01*
X116173486Y-77059406D01*
X115887869Y-77504700D01*
X115815298Y-77762887D01*
X110430600Y-77762887D01*
X110430600Y-76185430D01*
X124491607Y-76185430D01*
X124639327Y-76557209D01*
X124655840Y-76581923D01*
X124820148Y-76643931D01*
X125464079Y-76000000D01*
X124820148Y-75356069D01*
X124655840Y-75418077D01*
X124497405Y-75785419D01*
X124491607Y-76185430D01*
X110430600Y-76185430D01*
X110430600Y-73025400D01*
X113494400Y-73025400D01*
X113494400Y-74025400D01*
X113607309Y-74542232D01*
X113909406Y-74976514D01*
X114354700Y-75262131D01*
X114612887Y-75334702D01*
X114824600Y-75266445D01*
X114824600Y-73025400D01*
X114875400Y-73025400D01*
X114875400Y-75266445D01*
X115087113Y-75334702D01*
X115345300Y-75262131D01*
X115790594Y-74976514D01*
X116092691Y-74542232D01*
X116205600Y-74025400D01*
X116205600Y-73025400D01*
X114875400Y-73025400D01*
X114824600Y-73025400D01*
X113494400Y-73025400D01*
X110430600Y-73025400D01*
X110430600Y-71974600D01*
X113494400Y-71974600D01*
X113494400Y-72974600D01*
X114824600Y-72974600D01*
X114824600Y-70733555D01*
X114875400Y-70733555D01*
X114875400Y-72974600D01*
X116205600Y-72974600D01*
X116205600Y-71974600D01*
X116200850Y-71952856D01*
X119593600Y-71952856D01*
X119593600Y-74047144D01*
X119700656Y-74585350D01*
X120005525Y-75041619D01*
X120461794Y-75346488D01*
X121000000Y-75453544D01*
X121538206Y-75346488D01*
X121577626Y-75320148D01*
X124856069Y-75320148D01*
X125500000Y-75964079D01*
X126143931Y-75320148D01*
X126081923Y-75155840D01*
X125714581Y-74997405D01*
X125314570Y-74991607D01*
X124942791Y-75139327D01*
X124918077Y-75155840D01*
X124856069Y-75320148D01*
X121577626Y-75320148D01*
X121994475Y-75041619D01*
X122299344Y-74585350D01*
X122406400Y-74047144D01*
X122406400Y-71952856D01*
X122299344Y-71414650D01*
X121994475Y-70958381D01*
X121538206Y-70653512D01*
X121000000Y-70546456D01*
X120461794Y-70653512D01*
X120005525Y-70958381D01*
X119700656Y-71414650D01*
X119593600Y-71952856D01*
X116200850Y-71952856D01*
X116092691Y-71457768D01*
X115790594Y-71023486D01*
X115345300Y-70737869D01*
X115087113Y-70665298D01*
X114875400Y-70733555D01*
X114824600Y-70733555D01*
X114612887Y-70665298D01*
X114354700Y-70737869D01*
X113909406Y-71023486D01*
X113607309Y-71457768D01*
X113494400Y-71974600D01*
X110430600Y-71974600D01*
X110430600Y-65248744D01*
X110743753Y-65248744D01*
X110934569Y-65710554D01*
X111287587Y-66064189D01*
X111749064Y-66255811D01*
X112248744Y-66256247D01*
X112710554Y-66065431D01*
X113064189Y-65712413D01*
X113255811Y-65250936D01*
X113256247Y-64751256D01*
X113065431Y-64289446D01*
X112926598Y-64150370D01*
X120896009Y-64150370D01*
X120896009Y-65849630D01*
X120924347Y-66000233D01*
X121013353Y-66138552D01*
X121149160Y-66231345D01*
X121310370Y-66263991D01*
X123009630Y-66263991D01*
X123160233Y-66235653D01*
X123298552Y-66146647D01*
X123391345Y-66010840D01*
X123423991Y-65849630D01*
X123423991Y-64150370D01*
X123395653Y-63999767D01*
X123306647Y-63861448D01*
X123170840Y-63768655D01*
X123009630Y-63736009D01*
X121310370Y-63736009D01*
X121159767Y-63764347D01*
X121021448Y-63853353D01*
X120928655Y-63989160D01*
X120896009Y-64150370D01*
X112926598Y-64150370D01*
X112712413Y-63935811D01*
X112250936Y-63744189D01*
X111751256Y-63743753D01*
X111289446Y-63934569D01*
X110935811Y-64287587D01*
X110744189Y-64749064D01*
X110743753Y-65248744D01*
X110430600Y-65248744D01*
X110430600Y-57838953D01*
X112114208Y-57838953D01*
X112282171Y-58245454D01*
X112592910Y-58556736D01*
X112999118Y-58725408D01*
X113438953Y-58725792D01*
X113845454Y-58557829D01*
X114156736Y-58247090D01*
X114325408Y-57840882D01*
X114325409Y-57838953D01*
X114654208Y-57838953D01*
X114822171Y-58245454D01*
X115132910Y-58556736D01*
X115539118Y-58725408D01*
X115978953Y-58725792D01*
X116385454Y-58557829D01*
X116696736Y-58247090D01*
X116865408Y-57840882D01*
X116865409Y-57838953D01*
X117194208Y-57838953D01*
X117362171Y-58245454D01*
X117672910Y-58556736D01*
X118079118Y-58725408D01*
X118518953Y-58725792D01*
X118925454Y-58557829D01*
X119236736Y-58247090D01*
X119405408Y-57840882D01*
X119405409Y-57838953D01*
X119734208Y-57838953D01*
X119902171Y-58245454D01*
X120212910Y-58556736D01*
X120619118Y-58725408D01*
X120653938Y-58725438D01*
X123591667Y-61663167D01*
X123532392Y-61805918D01*
X123532008Y-62245753D01*
X123699971Y-62652254D01*
X124010710Y-62963536D01*
X124155200Y-63023533D01*
X124155200Y-66637800D01*
X124191936Y-66822483D01*
X124296550Y-66979050D01*
X126068632Y-68751132D01*
X126044567Y-68809086D01*
X126044235Y-69189247D01*
X126189410Y-69540597D01*
X126457989Y-69809646D01*
X126809086Y-69955433D01*
X127189247Y-69955765D01*
X127540597Y-69810590D01*
X127809646Y-69542011D01*
X127951947Y-69199307D01*
X129393425Y-69199307D01*
X129546318Y-69569335D01*
X129829176Y-69852687D01*
X130198936Y-70006225D01*
X130599307Y-70006575D01*
X130969335Y-69853682D01*
X131213843Y-69609600D01*
X132012600Y-69609600D01*
X132012600Y-72367940D01*
X132072537Y-72669265D01*
X132243224Y-72924716D01*
X133132600Y-73814092D01*
X133132600Y-74101858D01*
X133031853Y-74169175D01*
X132759580Y-74576660D01*
X132663970Y-75057322D01*
X132663970Y-76942678D01*
X132759580Y-77423340D01*
X133031853Y-77830825D01*
X133439338Y-78103098D01*
X133920000Y-78198708D01*
X134400662Y-78103098D01*
X134808147Y-77830825D01*
X135080420Y-77423340D01*
X135176030Y-76942678D01*
X135176030Y-76025400D01*
X135254770Y-76025400D01*
X135254770Y-76925830D01*
X135356233Y-77385118D01*
X135625734Y-77770617D01*
X136022245Y-78023638D01*
X136246415Y-78086583D01*
X136434600Y-78016471D01*
X136434600Y-76025400D01*
X136485400Y-76025400D01*
X136485400Y-78016471D01*
X136673585Y-78086583D01*
X136897755Y-78023638D01*
X137294266Y-77770617D01*
X137563767Y-77385118D01*
X137665230Y-76925830D01*
X137665230Y-76025400D01*
X136485400Y-76025400D01*
X136434600Y-76025400D01*
X135254770Y-76025400D01*
X135176030Y-76025400D01*
X135176030Y-75074170D01*
X135254770Y-75074170D01*
X135254770Y-75974600D01*
X136434600Y-75974600D01*
X136434600Y-73983529D01*
X136485400Y-73983529D01*
X136485400Y-75974600D01*
X137665230Y-75974600D01*
X137665230Y-75074170D01*
X137661509Y-75057322D01*
X137743970Y-75057322D01*
X137743970Y-76942678D01*
X137839580Y-77423340D01*
X138111853Y-77830825D01*
X138519338Y-78103098D01*
X139000000Y-78198708D01*
X139480662Y-78103098D01*
X139888147Y-77830825D01*
X140160420Y-77423340D01*
X140256030Y-76942678D01*
X140256030Y-75057322D01*
X140160420Y-74576660D01*
X139888147Y-74169175D01*
X139480662Y-73896902D01*
X139000000Y-73801292D01*
X138519338Y-73896902D01*
X138111853Y-74169175D01*
X137839580Y-74576660D01*
X137743970Y-75057322D01*
X137661509Y-75057322D01*
X137563767Y-74614882D01*
X137294266Y-74229383D01*
X136897755Y-73976362D01*
X136673585Y-73913417D01*
X136485400Y-73983529D01*
X136434600Y-73983529D01*
X136246415Y-73913417D01*
X136022245Y-73976362D01*
X135625734Y-74229383D01*
X135356233Y-74614882D01*
X135254770Y-75074170D01*
X135176030Y-75074170D01*
X135176030Y-75057322D01*
X135080420Y-74576660D01*
X134808147Y-74169175D01*
X134707400Y-74101858D01*
X134707400Y-73487940D01*
X134647463Y-73186615D01*
X134476776Y-72931164D01*
X133587400Y-72041788D01*
X133587400Y-68840452D01*
X134077852Y-68350000D01*
X134435639Y-68350000D01*
X134435639Y-69650000D01*
X134463977Y-69800603D01*
X134552983Y-69938922D01*
X134688790Y-70031715D01*
X134850000Y-70064361D01*
X136150000Y-70064361D01*
X136300603Y-70036023D01*
X136438922Y-69947017D01*
X136531715Y-69811210D01*
X136558315Y-69679852D01*
X136856069Y-69679852D01*
X136918077Y-69844160D01*
X137285419Y-70002595D01*
X137685430Y-70008393D01*
X138057209Y-69860673D01*
X138081923Y-69844160D01*
X138143931Y-69679852D01*
X137500000Y-69035921D01*
X136856069Y-69679852D01*
X136558315Y-69679852D01*
X136564361Y-69650000D01*
X136564361Y-69368536D01*
X136639327Y-69557209D01*
X136655840Y-69581923D01*
X136820148Y-69643931D01*
X137464079Y-69000000D01*
X137535921Y-69000000D01*
X138179852Y-69643931D01*
X138344160Y-69581923D01*
X138502595Y-69214581D01*
X138508393Y-68814570D01*
X138360673Y-68442791D01*
X138344160Y-68418077D01*
X138179852Y-68356069D01*
X137535921Y-69000000D01*
X137464079Y-69000000D01*
X136820148Y-68356069D01*
X136655840Y-68418077D01*
X136564361Y-68630177D01*
X136564361Y-68350000D01*
X136558744Y-68320148D01*
X136856069Y-68320148D01*
X137500000Y-68964079D01*
X138143931Y-68320148D01*
X138081923Y-68155840D01*
X137714581Y-67997405D01*
X137314570Y-67991607D01*
X136942791Y-68139327D01*
X136918077Y-68155840D01*
X136856069Y-68320148D01*
X136558744Y-68320148D01*
X136536023Y-68199397D01*
X136447017Y-68061078D01*
X136311210Y-67968285D01*
X136150000Y-67935639D01*
X134850000Y-67935639D01*
X134699397Y-67963977D01*
X134561078Y-68052983D01*
X134468285Y-68188790D01*
X134435639Y-68350000D01*
X134077852Y-68350000D01*
X135655666Y-66772186D01*
X141447431Y-66772186D01*
X141569818Y-67068385D01*
X141796239Y-67295202D01*
X142092224Y-67418105D01*
X142376379Y-67418353D01*
X144832715Y-69874688D01*
X144925432Y-70013450D01*
X145029000Y-70117018D01*
X145029000Y-70279758D01*
X145116965Y-70721987D01*
X145367467Y-71096891D01*
X145742371Y-71347393D01*
X146184600Y-71435358D01*
X146626829Y-71347393D01*
X147001733Y-71096891D01*
X147252235Y-70721987D01*
X147340200Y-70279758D01*
X147340200Y-69826642D01*
X147252235Y-69384413D01*
X147001733Y-69009509D01*
X146626829Y-68759007D01*
X146184600Y-68671042D01*
X145742371Y-68759007D01*
X145367467Y-69009509D01*
X145353475Y-69030450D01*
X143058664Y-66735638D01*
X143058911Y-66453104D01*
X142936524Y-66156905D01*
X142710103Y-65930088D01*
X142414118Y-65807185D01*
X142093630Y-65806905D01*
X141797431Y-65929292D01*
X141570614Y-66155713D01*
X141447711Y-66451698D01*
X141447431Y-66772186D01*
X135655666Y-66772186D01*
X136890452Y-65537400D01*
X138300000Y-65537400D01*
X138326258Y-65532177D01*
X141717223Y-65532177D01*
X142018548Y-65472240D01*
X142273999Y-65301553D01*
X142458458Y-65117094D01*
X142568948Y-65282452D01*
X144417548Y-67131052D01*
X144615316Y-67263197D01*
X144848600Y-67309600D01*
X145040639Y-67309600D01*
X145040639Y-67850000D01*
X145068977Y-68000603D01*
X145157983Y-68138922D01*
X145293790Y-68231715D01*
X145455000Y-68264361D01*
X146055000Y-68264361D01*
X146205603Y-68236023D01*
X146343922Y-68147017D01*
X146420984Y-68034233D01*
X146465110Y-68102807D01*
X146583942Y-68184001D01*
X146725000Y-68212566D01*
X147325000Y-68212566D01*
X147456777Y-68187770D01*
X147577807Y-68109890D01*
X147659001Y-67991058D01*
X147660007Y-67986092D01*
X147735110Y-68102807D01*
X147812400Y-68155617D01*
X147812400Y-71705100D01*
X146900100Y-72617400D01*
X140999900Y-72617400D01*
X140541250Y-72158750D01*
X140384683Y-72054136D01*
X140200000Y-72017400D01*
X136156540Y-72017400D01*
X135956932Y-71817443D01*
X135660947Y-71694540D01*
X135340459Y-71694260D01*
X135044260Y-71816647D01*
X134817443Y-72043068D01*
X134694540Y-72339053D01*
X134694260Y-72659541D01*
X134816647Y-72955740D01*
X135043068Y-73182557D01*
X135339053Y-73305460D01*
X135659541Y-73305740D01*
X135955740Y-73183353D01*
X136156844Y-72982600D01*
X140000100Y-72982600D01*
X140458750Y-73441250D01*
X140615317Y-73545864D01*
X140800000Y-73582600D01*
X147100000Y-73582600D01*
X147284683Y-73545864D01*
X147441250Y-73441250D01*
X148636250Y-72246250D01*
X148740864Y-72089683D01*
X148777600Y-71905000D01*
X148777600Y-68155067D01*
X148847807Y-68109890D01*
X148929001Y-67991058D01*
X148932130Y-67975607D01*
X148963537Y-68051431D01*
X149063569Y-68151463D01*
X149194267Y-68205600D01*
X149450700Y-68205600D01*
X149539600Y-68116700D01*
X149539600Y-67125400D01*
X149519600Y-67125400D01*
X149519600Y-67074600D01*
X149539600Y-67074600D01*
X149539600Y-67054600D01*
X149590400Y-67054600D01*
X149590400Y-67074600D01*
X149610400Y-67074600D01*
X149610400Y-67125400D01*
X149590400Y-67125400D01*
X149590400Y-68116700D01*
X149679300Y-68205600D01*
X149935733Y-68205600D01*
X150066431Y-68151463D01*
X150166463Y-68051431D01*
X150196632Y-67978597D01*
X150197230Y-67981777D01*
X150275110Y-68102807D01*
X150393942Y-68184001D01*
X150535000Y-68212566D01*
X151135000Y-68212566D01*
X151266777Y-68187770D01*
X151387807Y-68109890D01*
X151469001Y-67991058D01*
X151470007Y-67986092D01*
X151545110Y-68102807D01*
X151622400Y-68155617D01*
X151622400Y-70693264D01*
X148603651Y-73712013D01*
X148321117Y-73711766D01*
X148024918Y-73834153D01*
X147798101Y-74060574D01*
X147675198Y-74356559D01*
X147674918Y-74677047D01*
X147797305Y-74973246D01*
X148023726Y-75200063D01*
X148319711Y-75322966D01*
X148640199Y-75323246D01*
X148936398Y-75200859D01*
X149163215Y-74974438D01*
X149286118Y-74678453D01*
X149286366Y-74394298D01*
X152446250Y-71234414D01*
X152550864Y-71077847D01*
X152587600Y-70893164D01*
X152587600Y-70078600D01*
X155029000Y-70078600D01*
X155029000Y-70278600D01*
X155126685Y-70718896D01*
X155385428Y-71088294D01*
X155765838Y-71330556D01*
X155978781Y-71390324D01*
X156159200Y-71319598D01*
X156159200Y-70078600D01*
X156210000Y-70078600D01*
X156210000Y-71319598D01*
X156390419Y-71390324D01*
X156603362Y-71330556D01*
X156983772Y-71088294D01*
X157242515Y-70718896D01*
X157340200Y-70278600D01*
X157340200Y-70078600D01*
X156210000Y-70078600D01*
X156159200Y-70078600D01*
X155029000Y-70078600D01*
X152587600Y-70078600D01*
X152587600Y-69827800D01*
X155029000Y-69827800D01*
X155029000Y-70027800D01*
X156159200Y-70027800D01*
X156159200Y-68786802D01*
X156210000Y-68786802D01*
X156210000Y-70027800D01*
X157340200Y-70027800D01*
X157340200Y-69827800D01*
X157242515Y-69387504D01*
X156983772Y-69018106D01*
X156603362Y-68775844D01*
X156390419Y-68716076D01*
X156210000Y-68786802D01*
X156159200Y-68786802D01*
X155978781Y-68716076D01*
X155765838Y-68775844D01*
X155385428Y-69018106D01*
X155126685Y-69387504D01*
X155029000Y-69827800D01*
X152587600Y-69827800D01*
X152587600Y-68155067D01*
X152657807Y-68109890D01*
X152710076Y-68033392D01*
X152777983Y-68138922D01*
X152913790Y-68231715D01*
X153075000Y-68264361D01*
X153675000Y-68264361D01*
X153825603Y-68236023D01*
X153963922Y-68147017D01*
X154040984Y-68034233D01*
X154085110Y-68102807D01*
X154203942Y-68184001D01*
X154345000Y-68212566D01*
X154945000Y-68212566D01*
X155076777Y-68187770D01*
X155197807Y-68109890D01*
X155279001Y-67991058D01*
X155307566Y-67850000D01*
X155307566Y-66350000D01*
X155282770Y-66218223D01*
X155204890Y-66097193D01*
X155086058Y-66015999D01*
X154945000Y-65987434D01*
X154345000Y-65987434D01*
X154213223Y-66012230D01*
X154092193Y-66090110D01*
X154039924Y-66166608D01*
X153972017Y-66061078D01*
X153908400Y-66017610D01*
X153908400Y-65675000D01*
X153895349Y-65609389D01*
X153867797Y-65470876D01*
X153795618Y-65362853D01*
X153752171Y-65297829D01*
X153752168Y-65297827D01*
X153277171Y-64822829D01*
X153104123Y-64707203D01*
X152900000Y-64666600D01*
X152577607Y-64666600D01*
X152490662Y-64579503D01*
X153990557Y-64579503D01*
X159752304Y-70341250D01*
X159908871Y-70445864D01*
X160093554Y-70482600D01*
X162003145Y-70482600D01*
X162062171Y-70625454D01*
X162372910Y-70936736D01*
X162779118Y-71105408D01*
X163218953Y-71105792D01*
X163625454Y-70937829D01*
X163936736Y-70627090D01*
X164105408Y-70220882D01*
X164105792Y-69781047D01*
X163937829Y-69374546D01*
X163627090Y-69063264D01*
X163220882Y-68894592D01*
X162781047Y-68894208D01*
X162374546Y-69062171D01*
X162063264Y-69372910D01*
X162003267Y-69517400D01*
X160293454Y-69517400D01*
X154531707Y-63755653D01*
X154375140Y-63651039D01*
X154190457Y-63614303D01*
X150441802Y-63614303D01*
X149640065Y-62812566D01*
X149865000Y-62812566D01*
X149996777Y-62787770D01*
X150117807Y-62709890D01*
X150199001Y-62591058D01*
X150200007Y-62586092D01*
X150275110Y-62702807D01*
X150393942Y-62784001D01*
X150535000Y-62812566D01*
X151135000Y-62812566D01*
X151266777Y-62787770D01*
X151387807Y-62709890D01*
X151469001Y-62591058D01*
X151470007Y-62586092D01*
X151545110Y-62702807D01*
X151663942Y-62784001D01*
X151805000Y-62812566D01*
X152405000Y-62812566D01*
X152536777Y-62787770D01*
X152657807Y-62709890D01*
X152739001Y-62591058D01*
X152740007Y-62586092D01*
X152815110Y-62702807D01*
X152933942Y-62784001D01*
X153075000Y-62812566D01*
X153675000Y-62812566D01*
X153806777Y-62787770D01*
X153927807Y-62709890D01*
X154009001Y-62591058D01*
X154012130Y-62575607D01*
X154043537Y-62651431D01*
X154143569Y-62751463D01*
X154274267Y-62805600D01*
X154530700Y-62805600D01*
X154619600Y-62716700D01*
X154619600Y-61725400D01*
X154670400Y-61725400D01*
X154670400Y-62716700D01*
X154759300Y-62805600D01*
X155015733Y-62805600D01*
X155146431Y-62751463D01*
X155246463Y-62651431D01*
X155300600Y-62520733D01*
X155300600Y-61814300D01*
X155211700Y-61725400D01*
X154670400Y-61725400D01*
X154619600Y-61725400D01*
X154599600Y-61725400D01*
X154599600Y-61674600D01*
X154619600Y-61674600D01*
X154619600Y-60683300D01*
X154670400Y-60683300D01*
X154670400Y-61674600D01*
X155211700Y-61674600D01*
X155300600Y-61585700D01*
X155300600Y-60879267D01*
X155246463Y-60748569D01*
X155146431Y-60648537D01*
X155015733Y-60594400D01*
X154759300Y-60594400D01*
X154670400Y-60683300D01*
X154619600Y-60683300D01*
X154530700Y-60594400D01*
X154274267Y-60594400D01*
X154143569Y-60648537D01*
X154043537Y-60748569D01*
X154013368Y-60821403D01*
X154012770Y-60818223D01*
X153934890Y-60697193D01*
X153816058Y-60615999D01*
X153675000Y-60587434D01*
X153075000Y-60587434D01*
X152943223Y-60612230D01*
X152822193Y-60690110D01*
X152740999Y-60808942D01*
X152739993Y-60813908D01*
X152664890Y-60697193D01*
X152582600Y-60640967D01*
X152582600Y-59999900D01*
X153929584Y-58652915D01*
X154212910Y-58936736D01*
X154619118Y-59105408D01*
X155058953Y-59105792D01*
X155465454Y-58937829D01*
X155776736Y-58627090D01*
X155945408Y-58220882D01*
X155945792Y-57781047D01*
X155777829Y-57374546D01*
X155467090Y-57063264D01*
X155060882Y-56894592D01*
X154621047Y-56894208D01*
X154214546Y-57062171D01*
X153942109Y-57334133D01*
X153942109Y-56580391D01*
X154476367Y-56046133D01*
X154619118Y-56105408D01*
X155058953Y-56105792D01*
X155465454Y-55937829D01*
X155776736Y-55627090D01*
X155945408Y-55220882D01*
X155945792Y-54781047D01*
X155777829Y-54374546D01*
X155467090Y-54063264D01*
X155060882Y-53894592D01*
X154621047Y-53894208D01*
X154214546Y-54062171D01*
X153903264Y-54372910D01*
X153734592Y-54779118D01*
X153734208Y-55218953D01*
X153793953Y-55363547D01*
X153382600Y-55774900D01*
X153382600Y-54139900D01*
X154476367Y-53046133D01*
X154619118Y-53105408D01*
X155058953Y-53105792D01*
X155465454Y-52937829D01*
X155776736Y-52627090D01*
X155945408Y-52220882D01*
X155945792Y-51781047D01*
X155777829Y-51374546D01*
X155467090Y-51063264D01*
X155060882Y-50894592D01*
X154621047Y-50894208D01*
X154214546Y-51062171D01*
X153903264Y-51372910D01*
X153734592Y-51779118D01*
X153734208Y-52218953D01*
X153793953Y-52363547D01*
X152874590Y-53282910D01*
X152874590Y-51647910D01*
X154476367Y-50046133D01*
X154619118Y-50105408D01*
X155058953Y-50105792D01*
X155465454Y-49937829D01*
X155776736Y-49627090D01*
X155945408Y-49220882D01*
X155945645Y-48949262D01*
X157615108Y-48949262D01*
X157737495Y-49245461D01*
X157938248Y-49446565D01*
X157938248Y-65163525D01*
X157974984Y-65348208D01*
X158079598Y-65504775D01*
X161032091Y-68457267D01*
X161032093Y-68457270D01*
X161188660Y-68561884D01*
X161373343Y-68598620D01*
X163279250Y-68598622D01*
X164217400Y-69536771D01*
X164217400Y-71100100D01*
X163363633Y-71953867D01*
X163220882Y-71894592D01*
X162781047Y-71894208D01*
X162374546Y-72062171D01*
X162063264Y-72372910D01*
X161894592Y-72779118D01*
X161894208Y-73218953D01*
X162062171Y-73625454D01*
X162372910Y-73936736D01*
X162779118Y-74105408D01*
X163218953Y-74105792D01*
X163625454Y-73937829D01*
X163936736Y-73627090D01*
X164105408Y-73220882D01*
X164105792Y-72781047D01*
X164046047Y-72636453D01*
X165041250Y-71641250D01*
X165145864Y-71484683D01*
X165182600Y-71300000D01*
X165182600Y-69783536D01*
X165206974Y-69807910D01*
X165206974Y-73110526D01*
X163363633Y-74953867D01*
X163220882Y-74894592D01*
X162781047Y-74894208D01*
X162374546Y-75062171D01*
X162063264Y-75372910D01*
X161894592Y-75779118D01*
X161894208Y-76218953D01*
X162062171Y-76625454D01*
X162372910Y-76936736D01*
X162779118Y-77105408D01*
X163218953Y-77105792D01*
X163625454Y-76937829D01*
X163936736Y-76627090D01*
X164105408Y-76220882D01*
X164105792Y-75781047D01*
X164046047Y-75636453D01*
X166030824Y-73651676D01*
X166135438Y-73495109D01*
X166172174Y-73310426D01*
X166172174Y-70054674D01*
X167117400Y-70999900D01*
X167117400Y-73800000D01*
X167154136Y-73984683D01*
X167258750Y-74141250D01*
X171040080Y-77922580D01*
X171196647Y-78027194D01*
X171381330Y-78063930D01*
X174718670Y-78063930D01*
X174903353Y-78027194D01*
X175059920Y-77922580D01*
X176663546Y-76318953D01*
X178794208Y-76318953D01*
X178962171Y-76725454D01*
X179272910Y-77036736D01*
X179679118Y-77205408D01*
X180118953Y-77205792D01*
X180525454Y-77037829D01*
X180836736Y-76727090D01*
X181005408Y-76320882D01*
X181005792Y-75881047D01*
X180837829Y-75474546D01*
X180527090Y-75163264D01*
X180120882Y-74994592D01*
X179681047Y-74994208D01*
X179274546Y-75162171D01*
X178963264Y-75472910D01*
X178794592Y-75879118D01*
X178794208Y-76318953D01*
X176663546Y-76318953D01*
X176941247Y-76041252D01*
X176941250Y-76041250D01*
X177045864Y-75884683D01*
X177082600Y-75700000D01*
X177082600Y-73439900D01*
X177303547Y-73218953D01*
X178794208Y-73218953D01*
X178962171Y-73625454D01*
X179272910Y-73936736D01*
X179679118Y-74105408D01*
X180118953Y-74105792D01*
X180525454Y-73937829D01*
X180836736Y-73627090D01*
X181005408Y-73220882D01*
X181005792Y-72781047D01*
X180837829Y-72374546D01*
X180527090Y-72063264D01*
X180120882Y-71894592D01*
X179681047Y-71894208D01*
X179274546Y-72062171D01*
X178963264Y-72372910D01*
X178794592Y-72779118D01*
X178794208Y-73218953D01*
X177303547Y-73218953D01*
X179476367Y-71046133D01*
X179619118Y-71105408D01*
X180058953Y-71105792D01*
X180465454Y-70937829D01*
X180776736Y-70627090D01*
X180945408Y-70220882D01*
X180945792Y-69781047D01*
X180777829Y-69374546D01*
X180467090Y-69063264D01*
X180060882Y-68894592D01*
X179621047Y-68894208D01*
X179214546Y-69062171D01*
X178903264Y-69372910D01*
X178734592Y-69779118D01*
X178734208Y-70218953D01*
X178793953Y-70363547D01*
X176258750Y-72898750D01*
X176154136Y-73055317D01*
X176117400Y-73240000D01*
X176117400Y-75500101D01*
X174518770Y-77098730D01*
X173396044Y-77098730D01*
X173785454Y-76937829D01*
X174096736Y-76627090D01*
X174265408Y-76220882D01*
X174265792Y-75781047D01*
X174097829Y-75374546D01*
X173787090Y-75063264D01*
X173380882Y-74894592D01*
X172941047Y-74894208D01*
X172534546Y-75062171D01*
X172223264Y-75372910D01*
X172169579Y-75502198D01*
X171063429Y-75502198D01*
X168862044Y-73300813D01*
X168862044Y-70815200D01*
X168825308Y-70630517D01*
X168720694Y-70473950D01*
X163212600Y-64965856D01*
X163212600Y-64959027D01*
X163335001Y-64877242D01*
X163374022Y-64818842D01*
X163412960Y-64873531D01*
X163696043Y-65050761D01*
X163841126Y-65091290D01*
X163974600Y-65016849D01*
X163974600Y-64025400D01*
X164025400Y-64025400D01*
X164025400Y-65016849D01*
X164158874Y-65091290D01*
X164303957Y-65050761D01*
X164587040Y-64873531D01*
X164780751Y-64601460D01*
X164855600Y-64275970D01*
X164855600Y-64025400D01*
X164025400Y-64025400D01*
X163974600Y-64025400D01*
X163954600Y-64025400D01*
X163954600Y-63974600D01*
X163974600Y-63974600D01*
X163974600Y-62983151D01*
X164025400Y-62983151D01*
X164025400Y-63974600D01*
X164855600Y-63974600D01*
X164855600Y-63727759D01*
X167874400Y-63727759D01*
X167874400Y-64272241D01*
X167939529Y-64599665D01*
X168124999Y-64877242D01*
X168402576Y-65062712D01*
X168730000Y-65127841D01*
X169057424Y-65062712D01*
X169335001Y-64877242D01*
X169365000Y-64832345D01*
X169394999Y-64877242D01*
X169517400Y-64959027D01*
X169517400Y-69840000D01*
X169554136Y-70024683D01*
X169658750Y-70181250D01*
X172113867Y-72636367D01*
X172054592Y-72779118D01*
X172054208Y-73218953D01*
X172222171Y-73625454D01*
X172532910Y-73936736D01*
X172939118Y-74105408D01*
X173378953Y-74105792D01*
X173785454Y-73937829D01*
X174096736Y-73627090D01*
X174265408Y-73220882D01*
X174265792Y-72781047D01*
X174097829Y-72374546D01*
X173787090Y-72063264D01*
X173380882Y-71894592D01*
X172941047Y-71894208D01*
X172796453Y-71953953D01*
X171061453Y-70218953D01*
X172054208Y-70218953D01*
X172222171Y-70625454D01*
X172532910Y-70936736D01*
X172939118Y-71105408D01*
X173378953Y-71105792D01*
X173785454Y-70937829D01*
X174096736Y-70627090D01*
X174265408Y-70220882D01*
X174265792Y-69781047D01*
X174097829Y-69374546D01*
X173787090Y-69063264D01*
X173642600Y-69003267D01*
X173642600Y-63727759D01*
X174874400Y-63727759D01*
X174874400Y-64272241D01*
X174939529Y-64599665D01*
X175124999Y-64877242D01*
X175402576Y-65062712D01*
X175730000Y-65127841D01*
X176057424Y-65062712D01*
X176335001Y-64877242D01*
X176365000Y-64832345D01*
X176394999Y-64877242D01*
X176517400Y-64959027D01*
X176517400Y-65004570D01*
X176554136Y-65189253D01*
X176658750Y-65345820D01*
X178904178Y-67591247D01*
X178904180Y-67591250D01*
X179010964Y-67662600D01*
X179060747Y-67695864D01*
X179245430Y-67732601D01*
X179245435Y-67732600D01*
X180500100Y-67732600D01*
X188849531Y-76082030D01*
X188849533Y-76082033D01*
X188945064Y-76145864D01*
X188954354Y-76152071D01*
X188954208Y-76318953D01*
X189122171Y-76725454D01*
X189432910Y-77036736D01*
X189839118Y-77205408D01*
X190278953Y-77205792D01*
X190685454Y-77037829D01*
X190996736Y-76727090D01*
X191165408Y-76320882D01*
X191165792Y-75881047D01*
X190997829Y-75474546D01*
X190687090Y-75163264D01*
X190280882Y-74994592D01*
X189841047Y-74994208D01*
X189434546Y-75162171D01*
X189364547Y-75232048D01*
X181041250Y-66908750D01*
X180884683Y-66804136D01*
X180700000Y-66767400D01*
X179445329Y-66767400D01*
X177575131Y-64897201D01*
X177605001Y-64877242D01*
X177644022Y-64818842D01*
X177682960Y-64873531D01*
X177966043Y-65050761D01*
X178111126Y-65091290D01*
X178244600Y-65016849D01*
X178244600Y-64025400D01*
X178295400Y-64025400D01*
X178295400Y-65016849D01*
X178428874Y-65091290D01*
X178573957Y-65050761D01*
X178857040Y-64873531D01*
X179050751Y-64601460D01*
X179125600Y-64275970D01*
X179125600Y-64025400D01*
X178295400Y-64025400D01*
X178244600Y-64025400D01*
X178224600Y-64025400D01*
X178224600Y-63974600D01*
X178244600Y-63974600D01*
X178244600Y-62983151D01*
X178295400Y-62983151D01*
X178295400Y-63974600D01*
X179125600Y-63974600D01*
X179125600Y-63724030D01*
X179050751Y-63398540D01*
X178857040Y-63126469D01*
X178573957Y-62949239D01*
X178428874Y-62908710D01*
X178295400Y-62983151D01*
X178244600Y-62983151D01*
X178111126Y-62908710D01*
X177966043Y-62949239D01*
X177682960Y-63126469D01*
X177644022Y-63181158D01*
X177605001Y-63122758D01*
X177327424Y-62937288D01*
X177000000Y-62872159D01*
X176672576Y-62937288D01*
X176394999Y-63122758D01*
X176365000Y-63167655D01*
X176335001Y-63122758D01*
X176212600Y-63040973D01*
X176212600Y-58533900D01*
X177080471Y-57666029D01*
X177140394Y-57755711D01*
X177450413Y-57962859D01*
X177816105Y-58035600D01*
X178183895Y-58035600D01*
X178549587Y-57962859D01*
X178859606Y-57755711D01*
X179066754Y-57445692D01*
X179116932Y-57193432D01*
X179509389Y-57585889D01*
X179509389Y-60960999D01*
X179546125Y-61145682D01*
X179650739Y-61302249D01*
X181907889Y-63559399D01*
X181874400Y-63727759D01*
X181874400Y-64272241D01*
X181939529Y-64599665D01*
X182124999Y-64877242D01*
X182402576Y-65062712D01*
X182730000Y-65127841D01*
X183057424Y-65062712D01*
X183335001Y-64877242D01*
X183365000Y-64832345D01*
X183394999Y-64877242D01*
X183517400Y-64959027D01*
X183517400Y-67900000D01*
X183554136Y-68084683D01*
X183658750Y-68241250D01*
X188758750Y-73341250D01*
X188915317Y-73445864D01*
X189059844Y-73474613D01*
X189122171Y-73625454D01*
X189432910Y-73936736D01*
X189839118Y-74105408D01*
X190278953Y-74105792D01*
X190685454Y-73937829D01*
X190996736Y-73627090D01*
X191104534Y-73367482D01*
X193144079Y-73367482D01*
X193425982Y-74049740D01*
X193947515Y-74572184D01*
X194629279Y-74855277D01*
X195367482Y-74855921D01*
X196049740Y-74574018D01*
X196572184Y-74052485D01*
X196855277Y-73370721D01*
X196855921Y-72632518D01*
X196574018Y-71950260D01*
X196052485Y-71427816D01*
X195370721Y-71144723D01*
X194632518Y-71144079D01*
X193950260Y-71425982D01*
X193427816Y-71947515D01*
X193144723Y-72629279D01*
X193144079Y-73367482D01*
X191104534Y-73367482D01*
X191165408Y-73220882D01*
X191165792Y-72781047D01*
X190997829Y-72374546D01*
X190687090Y-72063264D01*
X190280882Y-71894592D01*
X189841047Y-71894208D01*
X189434546Y-72062171D01*
X189139351Y-72356851D01*
X184482600Y-67700100D01*
X184482600Y-64959027D01*
X184605001Y-64877242D01*
X184644022Y-64818842D01*
X184682960Y-64873531D01*
X184966043Y-65050761D01*
X185111126Y-65091290D01*
X185244600Y-65016849D01*
X185244600Y-64025400D01*
X185295400Y-64025400D01*
X185295400Y-65016849D01*
X185428874Y-65091290D01*
X185573957Y-65050761D01*
X185857040Y-64873531D01*
X186050751Y-64601460D01*
X186125600Y-64275970D01*
X186125600Y-64025400D01*
X185295400Y-64025400D01*
X185244600Y-64025400D01*
X185224600Y-64025400D01*
X185224600Y-63974600D01*
X185244600Y-63974600D01*
X185244600Y-62983151D01*
X185295400Y-62983151D01*
X185295400Y-63974600D01*
X186125600Y-63974600D01*
X186125600Y-63724030D01*
X186050751Y-63398540D01*
X185857040Y-63126469D01*
X185573957Y-62949239D01*
X185428874Y-62908710D01*
X185295400Y-62983151D01*
X185244600Y-62983151D01*
X185111126Y-62908710D01*
X184966043Y-62949239D01*
X184682960Y-63126469D01*
X184644022Y-63181158D01*
X184605001Y-63122758D01*
X184327424Y-62937288D01*
X184000000Y-62872159D01*
X183672576Y-62937288D01*
X183394999Y-63122758D01*
X183365000Y-63167655D01*
X183335001Y-63122758D01*
X183057424Y-62937288D01*
X182730000Y-62872159D01*
X182609598Y-62896108D01*
X180474589Y-60761099D01*
X180474589Y-57385989D01*
X180437853Y-57201306D01*
X180333239Y-57044739D01*
X178646562Y-55358062D01*
X178859606Y-55215711D01*
X179066754Y-54905692D01*
X179139495Y-54540000D01*
X179066754Y-54174308D01*
X178859606Y-53864289D01*
X178549587Y-53657141D01*
X178183895Y-53584400D01*
X177816105Y-53584400D01*
X177450413Y-53657141D01*
X177140394Y-53864289D01*
X176933246Y-54174308D01*
X176860505Y-54540000D01*
X176933246Y-54905692D01*
X177140394Y-55215711D01*
X177450413Y-55422859D01*
X177526137Y-55437921D01*
X177554136Y-55578683D01*
X177658750Y-55735250D01*
X178047900Y-56124400D01*
X177816105Y-56124400D01*
X177450413Y-56197141D01*
X177140394Y-56404289D01*
X177011361Y-56597400D01*
X176984005Y-56597400D01*
X176984000Y-56597399D01*
X176799317Y-56634136D01*
X176642750Y-56738750D01*
X175388750Y-57992750D01*
X175284136Y-58149317D01*
X175247400Y-58334000D01*
X175247400Y-63040973D01*
X175124999Y-63122758D01*
X174939529Y-63400335D01*
X174874400Y-63727759D01*
X173642600Y-63727759D01*
X173642600Y-56877900D01*
X177606578Y-52913922D01*
X177816105Y-52955600D01*
X178183895Y-52955600D01*
X178549587Y-52882859D01*
X178859606Y-52675711D01*
X179066754Y-52365692D01*
X179139495Y-52000000D01*
X179066754Y-51634308D01*
X178859606Y-51324289D01*
X178549587Y-51117141D01*
X178183895Y-51044400D01*
X177816105Y-51044400D01*
X177450413Y-51117141D01*
X177140394Y-51324289D01*
X176933246Y-51634308D01*
X176860505Y-52000000D01*
X176909448Y-52246052D01*
X172818750Y-56336750D01*
X172714136Y-56493317D01*
X172677400Y-56678000D01*
X172677400Y-69003145D01*
X172534546Y-69062171D01*
X172223264Y-69372910D01*
X172054592Y-69779118D01*
X172054208Y-70218953D01*
X171061453Y-70218953D01*
X170482600Y-69640100D01*
X170482600Y-64959027D01*
X170605001Y-64877242D01*
X170644022Y-64818842D01*
X170682960Y-64873531D01*
X170966043Y-65050761D01*
X171111126Y-65091290D01*
X171244600Y-65016849D01*
X171244600Y-64025400D01*
X171295400Y-64025400D01*
X171295400Y-65016849D01*
X171428874Y-65091290D01*
X171573957Y-65050761D01*
X171857040Y-64873531D01*
X172050751Y-64601460D01*
X172125600Y-64275970D01*
X172125600Y-64025400D01*
X171295400Y-64025400D01*
X171244600Y-64025400D01*
X171224600Y-64025400D01*
X171224600Y-63974600D01*
X171244600Y-63974600D01*
X171244600Y-62983151D01*
X171295400Y-62983151D01*
X171295400Y-63974600D01*
X172125600Y-63974600D01*
X172125600Y-63724030D01*
X172050751Y-63398540D01*
X171857040Y-63126469D01*
X171573957Y-62949239D01*
X171428874Y-62908710D01*
X171295400Y-62983151D01*
X171244600Y-62983151D01*
X171111126Y-62908710D01*
X170966043Y-62949239D01*
X170682960Y-63126469D01*
X170644022Y-63181158D01*
X170605001Y-63122758D01*
X170327424Y-62937288D01*
X170000000Y-62872159D01*
X169672576Y-62937288D01*
X169394999Y-63122758D01*
X169365000Y-63167655D01*
X169335001Y-63122758D01*
X169212600Y-63040973D01*
X169212600Y-57080000D01*
X169240505Y-57080000D01*
X169313246Y-57445692D01*
X169520394Y-57755711D01*
X169830413Y-57962859D01*
X170196105Y-58035600D01*
X170563895Y-58035600D01*
X170929587Y-57962859D01*
X171239606Y-57755711D01*
X171446754Y-57445692D01*
X171519495Y-57080000D01*
X171446754Y-56714308D01*
X171239606Y-56404289D01*
X170929587Y-56197141D01*
X170563895Y-56124400D01*
X170196105Y-56124400D01*
X169830413Y-56197141D01*
X169520394Y-56404289D01*
X169313246Y-56714308D01*
X169240505Y-57080000D01*
X169212600Y-57080000D01*
X169212600Y-54540000D01*
X169240505Y-54540000D01*
X169313246Y-54905692D01*
X169520394Y-55215711D01*
X169830413Y-55422859D01*
X170196105Y-55495600D01*
X170563895Y-55495600D01*
X170929587Y-55422859D01*
X171239606Y-55215711D01*
X171446754Y-54905692D01*
X171519495Y-54540000D01*
X171446754Y-54174308D01*
X171239606Y-53864289D01*
X170929587Y-53657141D01*
X170563895Y-53584400D01*
X170196105Y-53584400D01*
X169830413Y-53657141D01*
X169520394Y-53864289D01*
X169313246Y-54174308D01*
X169240505Y-54540000D01*
X169212600Y-54540000D01*
X169212600Y-52000000D01*
X169240505Y-52000000D01*
X169313246Y-52365692D01*
X169520394Y-52675711D01*
X169830413Y-52882859D01*
X170196105Y-52955600D01*
X170563895Y-52955600D01*
X170929587Y-52882859D01*
X171239606Y-52675711D01*
X171446754Y-52365692D01*
X171519495Y-52000000D01*
X171446754Y-51634308D01*
X171239606Y-51324289D01*
X170929587Y-51117141D01*
X170563895Y-51044400D01*
X170196105Y-51044400D01*
X169830413Y-51117141D01*
X169520394Y-51324289D01*
X169313246Y-51634308D01*
X169240505Y-52000000D01*
X169212600Y-52000000D01*
X169212600Y-51147900D01*
X169986578Y-50373922D01*
X170196105Y-50415600D01*
X170563895Y-50415600D01*
X170929587Y-50342859D01*
X171239606Y-50135711D01*
X171446754Y-49825692D01*
X171519495Y-49460000D01*
X176860505Y-49460000D01*
X176933246Y-49825692D01*
X177140394Y-50135711D01*
X177450413Y-50342859D01*
X177816105Y-50415600D01*
X178183895Y-50415600D01*
X178549587Y-50342859D01*
X178859606Y-50135711D01*
X178919529Y-50046029D01*
X180754662Y-51881162D01*
X180754662Y-60487262D01*
X180791398Y-60671945D01*
X180896012Y-60828512D01*
X182658750Y-62591250D01*
X182815317Y-62695864D01*
X183000000Y-62732600D01*
X187806520Y-62732600D01*
X189415170Y-64341250D01*
X189571737Y-64445864D01*
X189641704Y-64459782D01*
X189669529Y-64599665D01*
X189854999Y-64877242D01*
X190132576Y-65062712D01*
X190460000Y-65127841D01*
X190787424Y-65062712D01*
X191065001Y-64877242D01*
X191095000Y-64832345D01*
X191124999Y-64877242D01*
X191247400Y-64959027D01*
X191247400Y-68070101D01*
X190363633Y-68953867D01*
X190220882Y-68894592D01*
X189781047Y-68894208D01*
X189374546Y-69062171D01*
X189063264Y-69372910D01*
X188894592Y-69779118D01*
X188894208Y-70218953D01*
X189062171Y-70625454D01*
X189372910Y-70936736D01*
X189779118Y-71105408D01*
X190218953Y-71105792D01*
X190625454Y-70937829D01*
X190936736Y-70627090D01*
X191105408Y-70220882D01*
X191105792Y-69781047D01*
X191046047Y-69636453D01*
X192071247Y-68611252D01*
X192071250Y-68611250D01*
X192175864Y-68454683D01*
X192212600Y-68270000D01*
X192212600Y-66025400D01*
X196394400Y-66025400D01*
X196394400Y-66275400D01*
X196488279Y-66696561D01*
X196736183Y-67049737D01*
X197100371Y-67281161D01*
X197302004Y-67337726D01*
X197474600Y-67266383D01*
X197474600Y-66025400D01*
X197525400Y-66025400D01*
X197525400Y-67266383D01*
X197697996Y-67337726D01*
X197899629Y-67281161D01*
X198263817Y-67049737D01*
X198511721Y-66696561D01*
X198605600Y-66275400D01*
X198605600Y-66025400D01*
X197525400Y-66025400D01*
X197474600Y-66025400D01*
X196394400Y-66025400D01*
X192212600Y-66025400D01*
X192212600Y-65724600D01*
X196394400Y-65724600D01*
X196394400Y-65974600D01*
X197474600Y-65974600D01*
X197474600Y-64733617D01*
X197525400Y-64733617D01*
X197525400Y-65974600D01*
X198605600Y-65974600D01*
X198605600Y-65724600D01*
X198605342Y-65723442D01*
X198894400Y-65723442D01*
X198894400Y-66276558D01*
X198978559Y-66699653D01*
X199218223Y-67058335D01*
X199576905Y-67297999D01*
X200000000Y-67382158D01*
X200423095Y-67297999D01*
X200781777Y-67058335D01*
X201021441Y-66699653D01*
X201105600Y-66276558D01*
X201105600Y-65723442D01*
X201021441Y-65300347D01*
X200781777Y-64941665D01*
X200423095Y-64702001D01*
X200000000Y-64617842D01*
X199576905Y-64702001D01*
X199218223Y-64941665D01*
X198978559Y-65300347D01*
X198894400Y-65723442D01*
X198605342Y-65723442D01*
X198511721Y-65303439D01*
X198263817Y-64950263D01*
X197899629Y-64718839D01*
X197697996Y-64662274D01*
X197525400Y-64733617D01*
X197474600Y-64733617D01*
X197302004Y-64662274D01*
X197100371Y-64718839D01*
X196736183Y-64950263D01*
X196488279Y-65303439D01*
X196394400Y-65724600D01*
X192212600Y-65724600D01*
X192212600Y-64959027D01*
X192335001Y-64877242D01*
X192374022Y-64818842D01*
X192412960Y-64873531D01*
X192696043Y-65050761D01*
X192841126Y-65091290D01*
X192974600Y-65016849D01*
X192974600Y-64025400D01*
X193025400Y-64025400D01*
X193025400Y-65016849D01*
X193158874Y-65091290D01*
X193303957Y-65050761D01*
X193587040Y-64873531D01*
X193780751Y-64601460D01*
X193855600Y-64275970D01*
X193855600Y-64025400D01*
X193025400Y-64025400D01*
X192974600Y-64025400D01*
X192954600Y-64025400D01*
X192954600Y-63974600D01*
X192974600Y-63974600D01*
X192974600Y-62983151D01*
X193025400Y-62983151D01*
X193025400Y-63974600D01*
X193855600Y-63974600D01*
X193855600Y-63724030D01*
X193780751Y-63398540D01*
X193587040Y-63126469D01*
X193303957Y-62949239D01*
X193158874Y-62908710D01*
X193025400Y-62983151D01*
X192974600Y-62983151D01*
X192841126Y-62908710D01*
X192696043Y-62949239D01*
X192412960Y-63126469D01*
X192374022Y-63181158D01*
X192335001Y-63122758D01*
X192057424Y-62937288D01*
X191730000Y-62872159D01*
X191402576Y-62937288D01*
X191124999Y-63122758D01*
X191095000Y-63167655D01*
X191065001Y-63122758D01*
X190787424Y-62937288D01*
X190460000Y-62872159D01*
X190132576Y-62937288D01*
X189854999Y-63122758D01*
X189737511Y-63298591D01*
X188347670Y-61908750D01*
X188191103Y-61804136D01*
X188006420Y-61767400D01*
X183199900Y-61767400D01*
X181719862Y-60287362D01*
X181719862Y-60025400D01*
X197574400Y-60025400D01*
X197574400Y-60275970D01*
X197649249Y-60601460D01*
X197842960Y-60873531D01*
X198126043Y-61050761D01*
X198271126Y-61091290D01*
X198404600Y-61016849D01*
X198404600Y-60025400D01*
X197574400Y-60025400D01*
X181719862Y-60025400D01*
X181719862Y-59724030D01*
X197574400Y-59724030D01*
X197574400Y-59974600D01*
X198404600Y-59974600D01*
X198404600Y-58983151D01*
X198271126Y-58908710D01*
X198126043Y-58949239D01*
X197842960Y-59126469D01*
X197649249Y-59398540D01*
X197574400Y-59724030D01*
X181719862Y-59724030D01*
X181719862Y-58232553D01*
X182764808Y-58232553D01*
X182932771Y-58639054D01*
X183243510Y-58950336D01*
X183649718Y-59119008D01*
X184089553Y-59119392D01*
X184496054Y-58951429D01*
X184807336Y-58640690D01*
X184976008Y-58234482D01*
X184976009Y-58232553D01*
X192924808Y-58232553D01*
X193092771Y-58639054D01*
X193403510Y-58950336D01*
X193809718Y-59119008D01*
X194249553Y-59119392D01*
X194656054Y-58951429D01*
X194967336Y-58640690D01*
X195136008Y-58234482D01*
X195136392Y-57794647D01*
X194968429Y-57388146D01*
X194657690Y-57076864D01*
X194251482Y-56908192D01*
X193811647Y-56907808D01*
X193405146Y-57075771D01*
X193093864Y-57386510D01*
X192925192Y-57792718D01*
X192924808Y-58232553D01*
X184976009Y-58232553D01*
X184976392Y-57794647D01*
X184808429Y-57388146D01*
X184497690Y-57076864D01*
X184091482Y-56908192D01*
X183651647Y-56907808D01*
X183245146Y-57075771D01*
X182933864Y-57386510D01*
X182765192Y-57792718D01*
X182764808Y-58232553D01*
X181719862Y-58232553D01*
X181719862Y-55218953D01*
X182734208Y-55218953D01*
X182902171Y-55625454D01*
X183212910Y-55936736D01*
X183619118Y-56105408D01*
X184058953Y-56105792D01*
X184465454Y-55937829D01*
X184776736Y-55627090D01*
X184945408Y-55220882D01*
X184945409Y-55218953D01*
X192894208Y-55218953D01*
X193062171Y-55625454D01*
X193372910Y-55936736D01*
X193779118Y-56105408D01*
X194218953Y-56105792D01*
X194625454Y-55937829D01*
X194936736Y-55627090D01*
X195105408Y-55220882D01*
X195105578Y-55025400D01*
X197604400Y-55025400D01*
X197604400Y-55275970D01*
X197679249Y-55601460D01*
X197872960Y-55873531D01*
X198156043Y-56050761D01*
X198301126Y-56091290D01*
X198434600Y-56016849D01*
X198434600Y-55025400D01*
X197604400Y-55025400D01*
X195105578Y-55025400D01*
X195105792Y-54781047D01*
X195082234Y-54724030D01*
X197604400Y-54724030D01*
X197604400Y-54974600D01*
X198434600Y-54974600D01*
X198434600Y-53983151D01*
X198301126Y-53908710D01*
X198156043Y-53949239D01*
X197872960Y-54126469D01*
X197679249Y-54398540D01*
X197604400Y-54724030D01*
X195082234Y-54724030D01*
X194937829Y-54374546D01*
X194627090Y-54063264D01*
X194220882Y-53894592D01*
X193781047Y-53894208D01*
X193374546Y-54062171D01*
X193063264Y-54372910D01*
X192894592Y-54779118D01*
X192894208Y-55218953D01*
X184945409Y-55218953D01*
X184945792Y-54781047D01*
X184777829Y-54374546D01*
X184467090Y-54063264D01*
X184060882Y-53894592D01*
X183621047Y-53894208D01*
X183214546Y-54062171D01*
X182903264Y-54372910D01*
X182734592Y-54779118D01*
X182734208Y-55218953D01*
X181719862Y-55218953D01*
X181719862Y-52218953D01*
X182734208Y-52218953D01*
X182902171Y-52625454D01*
X183212910Y-52936736D01*
X183619118Y-53105408D01*
X184058953Y-53105792D01*
X184465454Y-52937829D01*
X184776736Y-52627090D01*
X184945408Y-52220882D01*
X184945409Y-52218953D01*
X192894208Y-52218953D01*
X193062171Y-52625454D01*
X193372910Y-52936736D01*
X193779118Y-53105408D01*
X194218953Y-53105792D01*
X194625454Y-52937829D01*
X194936736Y-52627090D01*
X195105408Y-52220882D01*
X195105792Y-51781047D01*
X194937829Y-51374546D01*
X194627090Y-51063264D01*
X194220882Y-50894592D01*
X193781047Y-50894208D01*
X193374546Y-51062171D01*
X193063264Y-51372910D01*
X192894592Y-51779118D01*
X192894208Y-52218953D01*
X184945409Y-52218953D01*
X184945792Y-51781047D01*
X184777829Y-51374546D01*
X184467090Y-51063264D01*
X184060882Y-50894592D01*
X183621047Y-50894208D01*
X183214546Y-51062171D01*
X182903264Y-51372910D01*
X182734592Y-51779118D01*
X182734208Y-52218953D01*
X181719862Y-52218953D01*
X181719862Y-51681262D01*
X181683126Y-51496579D01*
X181578512Y-51340012D01*
X179457453Y-49218953D01*
X182744208Y-49218953D01*
X182912171Y-49625454D01*
X183222910Y-49936736D01*
X183629118Y-50105408D01*
X184068953Y-50105792D01*
X184475454Y-49937829D01*
X184786736Y-49627090D01*
X184955408Y-49220882D01*
X184955792Y-48781047D01*
X184787829Y-48374546D01*
X184477090Y-48063264D01*
X184070882Y-47894592D01*
X183631047Y-47894208D01*
X183224546Y-48062171D01*
X182913264Y-48372910D01*
X182744592Y-48779118D01*
X182744208Y-49218953D01*
X179457453Y-49218953D01*
X179357250Y-49118750D01*
X179200683Y-49014136D01*
X179016000Y-48977400D01*
X178988639Y-48977400D01*
X178859606Y-48784289D01*
X178549587Y-48577141D01*
X178183895Y-48504400D01*
X177816105Y-48504400D01*
X177450413Y-48577141D01*
X177140394Y-48784289D01*
X176933246Y-49094308D01*
X176860505Y-49460000D01*
X171519495Y-49460000D01*
X171446754Y-49094308D01*
X171239606Y-48784289D01*
X170929587Y-48577141D01*
X170563895Y-48504400D01*
X170196105Y-48504400D01*
X169830413Y-48577141D01*
X169520394Y-48784289D01*
X169313246Y-49094308D01*
X169240505Y-49460000D01*
X169289448Y-49706052D01*
X168388750Y-50606750D01*
X168284136Y-50763317D01*
X168247400Y-50948000D01*
X168247400Y-63040973D01*
X168124999Y-63122758D01*
X167939529Y-63400335D01*
X167874400Y-63727759D01*
X164855600Y-63727759D01*
X164855600Y-63724030D01*
X164780751Y-63398540D01*
X164587040Y-63126469D01*
X164303957Y-62949239D01*
X164158874Y-62908710D01*
X164025400Y-62983151D01*
X163974600Y-62983151D01*
X163841126Y-62908710D01*
X163696043Y-62949239D01*
X163412960Y-63126469D01*
X163374022Y-63181158D01*
X163335001Y-63122758D01*
X163057424Y-62937288D01*
X162929640Y-62911870D01*
X163299900Y-62541610D01*
X165240990Y-62541610D01*
X165425673Y-62504874D01*
X165582240Y-62400260D01*
X167751829Y-60230670D01*
X167751832Y-60230668D01*
X167856446Y-60074101D01*
X167893182Y-59889418D01*
X167893182Y-46920000D01*
X169240505Y-46920000D01*
X169313246Y-47285692D01*
X169520394Y-47595711D01*
X169830413Y-47802859D01*
X170196105Y-47875600D01*
X170563895Y-47875600D01*
X170929587Y-47802859D01*
X171239606Y-47595711D01*
X171446754Y-47285692D01*
X171519495Y-46920000D01*
X176860505Y-46920000D01*
X176933246Y-47285692D01*
X177140394Y-47595711D01*
X177450413Y-47802859D01*
X177816105Y-47875600D01*
X178183895Y-47875600D01*
X178549587Y-47802859D01*
X178859606Y-47595711D01*
X179066754Y-47285692D01*
X179139495Y-46920000D01*
X179066754Y-46554308D01*
X178859606Y-46244289D01*
X178821688Y-46218953D01*
X182744208Y-46218953D01*
X182912171Y-46625454D01*
X183222910Y-46936736D01*
X183629118Y-47105408D01*
X184068953Y-47105792D01*
X184475454Y-46937829D01*
X184786736Y-46627090D01*
X184955408Y-46220882D01*
X184955409Y-46218953D01*
X192904208Y-46218953D01*
X193072171Y-46625454D01*
X193382910Y-46936736D01*
X193789118Y-47105408D01*
X194228953Y-47105792D01*
X194373547Y-47046047D01*
X195770234Y-48442734D01*
X195770234Y-49945579D01*
X195803049Y-50110549D01*
X195056133Y-49363633D01*
X195115408Y-49220882D01*
X195115792Y-48781047D01*
X194947829Y-48374546D01*
X194637090Y-48063264D01*
X194230882Y-47894592D01*
X193791047Y-47894208D01*
X193384546Y-48062171D01*
X193073264Y-48372910D01*
X192904592Y-48779118D01*
X192904208Y-49218953D01*
X193072171Y-49625454D01*
X193382910Y-49936736D01*
X193789118Y-50105408D01*
X194228953Y-50105792D01*
X194373547Y-50046047D01*
X194668239Y-50340739D01*
X196960534Y-52633033D01*
X196960536Y-52633036D01*
X197117103Y-52737650D01*
X197301786Y-52774387D01*
X197301791Y-52774386D01*
X198392876Y-52774386D01*
X199530360Y-53911870D01*
X199402576Y-53937288D01*
X199124999Y-54122758D01*
X199085978Y-54181158D01*
X199047040Y-54126469D01*
X198763957Y-53949239D01*
X198618874Y-53908710D01*
X198485400Y-53983151D01*
X198485400Y-54974600D01*
X198505400Y-54974600D01*
X198505400Y-55025400D01*
X198485400Y-55025400D01*
X198485400Y-56016849D01*
X198618874Y-56091290D01*
X198763957Y-56050761D01*
X199047040Y-55873531D01*
X199085978Y-55818842D01*
X199124999Y-55877242D01*
X199402576Y-56062712D01*
X199730000Y-56127841D01*
X200057424Y-56062712D01*
X200335001Y-55877242D01*
X200365000Y-55832345D01*
X200394999Y-55877242D01*
X200672576Y-56062712D01*
X201000000Y-56127841D01*
X201327424Y-56062712D01*
X201605001Y-55877242D01*
X201607986Y-55872775D01*
X201607986Y-59172124D01*
X201575001Y-59122758D01*
X201297424Y-58937288D01*
X200970000Y-58872159D01*
X200642576Y-58937288D01*
X200364999Y-59122758D01*
X200335000Y-59167655D01*
X200305001Y-59122758D01*
X200027424Y-58937288D01*
X199700000Y-58872159D01*
X199372576Y-58937288D01*
X199094999Y-59122758D01*
X199055978Y-59181158D01*
X199017040Y-59126469D01*
X198733957Y-58949239D01*
X198588874Y-58908710D01*
X198455400Y-58983151D01*
X198455400Y-59974600D01*
X198475400Y-59974600D01*
X198475400Y-60025400D01*
X198455400Y-60025400D01*
X198455400Y-61016849D01*
X198588874Y-61091290D01*
X198733957Y-61050761D01*
X199017040Y-60873531D01*
X199055978Y-60818842D01*
X199094999Y-60877242D01*
X199372576Y-61062712D01*
X199700000Y-61127841D01*
X200027424Y-61062712D01*
X200305001Y-60877242D01*
X200335000Y-60832345D01*
X200364999Y-60877242D01*
X200642576Y-61062712D01*
X200970000Y-61127841D01*
X201297424Y-61062712D01*
X201575001Y-60877242D01*
X201760471Y-60599665D01*
X201807370Y-60363888D01*
X201841250Y-60341250D01*
X202431836Y-59750664D01*
X202536450Y-59594097D01*
X202573187Y-59409414D01*
X202573186Y-59409409D01*
X202573186Y-54355181D01*
X202536450Y-54170498D01*
X202431836Y-54013931D01*
X199860430Y-51442525D01*
X199703863Y-51337911D01*
X199519180Y-51301175D01*
X198290930Y-51301175D01*
X197015155Y-50025400D01*
X197604400Y-50025400D01*
X197604400Y-50275970D01*
X197679249Y-50601460D01*
X197872960Y-50873531D01*
X198156043Y-51050761D01*
X198301126Y-51091290D01*
X198434600Y-51016849D01*
X198434600Y-50025400D01*
X197604400Y-50025400D01*
X197015155Y-50025400D01*
X196735434Y-49745679D01*
X196735434Y-49724030D01*
X197604400Y-49724030D01*
X197604400Y-49974600D01*
X198434600Y-49974600D01*
X198434600Y-48983151D01*
X198301126Y-48908710D01*
X198156043Y-48949239D01*
X197872960Y-49126469D01*
X197679249Y-49398540D01*
X197604400Y-49724030D01*
X196735434Y-49724030D01*
X196735434Y-48242834D01*
X196698698Y-48058151D01*
X196594084Y-47901584D01*
X195056133Y-46363633D01*
X195115408Y-46220882D01*
X195115792Y-45781047D01*
X194947829Y-45374546D01*
X194637090Y-45063264D01*
X194230882Y-44894592D01*
X193791047Y-44894208D01*
X193384546Y-45062171D01*
X193073264Y-45372910D01*
X192904592Y-45779118D01*
X192904208Y-46218953D01*
X184955409Y-46218953D01*
X184955792Y-45781047D01*
X184787829Y-45374546D01*
X184477090Y-45063264D01*
X184070882Y-44894592D01*
X183631047Y-44894208D01*
X183224546Y-45062171D01*
X182913264Y-45372910D01*
X182744592Y-45779118D01*
X182744208Y-46218953D01*
X178821688Y-46218953D01*
X178549587Y-46037141D01*
X178183895Y-45964400D01*
X177816105Y-45964400D01*
X177450413Y-46037141D01*
X177140394Y-46244289D01*
X176933246Y-46554308D01*
X176860505Y-46920000D01*
X171519495Y-46920000D01*
X171446754Y-46554308D01*
X171239606Y-46244289D01*
X170929587Y-46037141D01*
X170563895Y-45964400D01*
X170196105Y-45964400D01*
X169830413Y-46037141D01*
X169520394Y-46244289D01*
X169313246Y-46554308D01*
X169240505Y-46920000D01*
X167893182Y-46920000D01*
X167893182Y-46533318D01*
X169460471Y-44966029D01*
X169520394Y-45055711D01*
X169830413Y-45262859D01*
X170196105Y-45335600D01*
X170563895Y-45335600D01*
X170929587Y-45262859D01*
X171239606Y-45055711D01*
X171446754Y-44745692D01*
X171519495Y-44380000D01*
X176860505Y-44380000D01*
X176933246Y-44745692D01*
X177140394Y-45055711D01*
X177450413Y-45262859D01*
X177816105Y-45335600D01*
X178183895Y-45335600D01*
X178549587Y-45262859D01*
X178859606Y-45055711D01*
X179066754Y-44745692D01*
X179139495Y-44380000D01*
X179066754Y-44014308D01*
X178859606Y-43704289D01*
X178549587Y-43497141D01*
X178183895Y-43424400D01*
X177816105Y-43424400D01*
X177450413Y-43497141D01*
X177140394Y-43704289D01*
X176933246Y-44014308D01*
X176860505Y-44380000D01*
X171519495Y-44380000D01*
X171446754Y-44014308D01*
X171239606Y-43704289D01*
X170929587Y-43497141D01*
X170563895Y-43424400D01*
X170196105Y-43424400D01*
X169830413Y-43497141D01*
X169520394Y-43704289D01*
X169391361Y-43897400D01*
X169364000Y-43897400D01*
X169179317Y-43934136D01*
X169022750Y-44038750D01*
X167069332Y-45992168D01*
X166964718Y-46148735D01*
X166927982Y-46333418D01*
X166927982Y-59689519D01*
X165041090Y-61576410D01*
X163100000Y-61576410D01*
X162915317Y-61613146D01*
X162758750Y-61717760D01*
X161580402Y-62896108D01*
X161460000Y-62872159D01*
X161132576Y-62937288D01*
X160854999Y-63122758D01*
X160669529Y-63400335D01*
X160604400Y-63727759D01*
X160604400Y-64272241D01*
X160669529Y-64599665D01*
X160854999Y-64877242D01*
X161132576Y-65062712D01*
X161460000Y-65127841D01*
X161787424Y-65062712D01*
X162065001Y-64877242D01*
X162095000Y-64832345D01*
X162124999Y-64877242D01*
X162247400Y-64959027D01*
X162247400Y-65165756D01*
X162284136Y-65350439D01*
X162388750Y-65507006D01*
X163499144Y-66617400D01*
X161994095Y-66617400D01*
X160467531Y-65090836D01*
X160467531Y-58218953D01*
X163894208Y-58218953D01*
X164062171Y-58625454D01*
X164372910Y-58936736D01*
X164779118Y-59105408D01*
X165218953Y-59105792D01*
X165625454Y-58937829D01*
X165936736Y-58627090D01*
X166105408Y-58220882D01*
X166105792Y-57781047D01*
X165937829Y-57374546D01*
X165627090Y-57063264D01*
X165220882Y-56894592D01*
X164781047Y-56894208D01*
X164374546Y-57062171D01*
X164063264Y-57372910D01*
X163894592Y-57779118D01*
X163894208Y-58218953D01*
X160467531Y-58218953D01*
X160467531Y-55218953D01*
X163894208Y-55218953D01*
X164062171Y-55625454D01*
X164372910Y-55936736D01*
X164779118Y-56105408D01*
X165218953Y-56105792D01*
X165625454Y-55937829D01*
X165936736Y-55627090D01*
X166105408Y-55220882D01*
X166105792Y-54781047D01*
X165937829Y-54374546D01*
X165627090Y-54063264D01*
X165220882Y-53894592D01*
X164781047Y-53894208D01*
X164374546Y-54062171D01*
X164063264Y-54372910D01*
X163894592Y-54779118D01*
X163894208Y-55218953D01*
X160467531Y-55218953D01*
X160467531Y-52655730D01*
X160667488Y-52456122D01*
X160765968Y-52218953D01*
X163894208Y-52218953D01*
X164062171Y-52625454D01*
X164372910Y-52936736D01*
X164779118Y-53105408D01*
X165218953Y-53105792D01*
X165625454Y-52937829D01*
X165936736Y-52627090D01*
X166105408Y-52220882D01*
X166105792Y-51781047D01*
X165937829Y-51374546D01*
X165627090Y-51063264D01*
X165220882Y-50894592D01*
X164781047Y-50894208D01*
X164374546Y-51062171D01*
X164063264Y-51372910D01*
X163894592Y-51779118D01*
X163894208Y-52218953D01*
X160765968Y-52218953D01*
X160790391Y-52160137D01*
X160790671Y-51839649D01*
X160668284Y-51543450D01*
X160441863Y-51316633D01*
X160145878Y-51193730D01*
X159825390Y-51193450D01*
X159734468Y-51231018D01*
X159734468Y-49218953D01*
X163894208Y-49218953D01*
X164062171Y-49625454D01*
X164372910Y-49936736D01*
X164779118Y-50105408D01*
X165218953Y-50105792D01*
X165625454Y-49937829D01*
X165936736Y-49627090D01*
X166105408Y-49220882D01*
X166105792Y-48781047D01*
X165937829Y-48374546D01*
X165627090Y-48063264D01*
X165220882Y-47894592D01*
X164781047Y-47894208D01*
X164374546Y-48062171D01*
X164063264Y-48372910D01*
X163894592Y-48779118D01*
X163894208Y-49218953D01*
X159734468Y-49218953D01*
X159734468Y-46474841D01*
X159934425Y-46275233D01*
X159957794Y-46218953D01*
X163894208Y-46218953D01*
X164062171Y-46625454D01*
X164372910Y-46936736D01*
X164779118Y-47105408D01*
X165218953Y-47105792D01*
X165625454Y-46937829D01*
X165936736Y-46627090D01*
X166105408Y-46220882D01*
X166105792Y-45781047D01*
X165937829Y-45374546D01*
X165627090Y-45063264D01*
X165220882Y-44894592D01*
X164781047Y-44894208D01*
X164374546Y-45062171D01*
X164063264Y-45372910D01*
X163894592Y-45779118D01*
X163894208Y-46218953D01*
X159957794Y-46218953D01*
X160057328Y-45979248D01*
X160057608Y-45658760D01*
X159935221Y-45362561D01*
X159708800Y-45135744D01*
X159412815Y-45012841D01*
X159092327Y-45012561D01*
X158796128Y-45134948D01*
X158569311Y-45361369D01*
X158446408Y-45657354D01*
X158446128Y-45977842D01*
X158568515Y-46274041D01*
X158769268Y-46475145D01*
X158769268Y-48062106D01*
X158581795Y-47984261D01*
X158261307Y-47983981D01*
X157965108Y-48106368D01*
X157738291Y-48332789D01*
X157615388Y-48628774D01*
X157615108Y-48949262D01*
X155945645Y-48949262D01*
X155945792Y-48781047D01*
X155777829Y-48374546D01*
X155467090Y-48063264D01*
X155060882Y-47894592D01*
X154621047Y-47894208D01*
X154214546Y-48062171D01*
X153903264Y-48372910D01*
X153734592Y-48779118D01*
X153734208Y-49218953D01*
X153793953Y-49363547D01*
X152282600Y-50874900D01*
X152282600Y-49239900D01*
X154476367Y-47046133D01*
X154619118Y-47105408D01*
X155058953Y-47105792D01*
X155465454Y-46937829D01*
X155776736Y-46627090D01*
X155945408Y-46220882D01*
X155945792Y-45781047D01*
X155777829Y-45374546D01*
X155467090Y-45063264D01*
X155060882Y-44894592D01*
X154621047Y-44894208D01*
X154214546Y-45062171D01*
X153903264Y-45372910D01*
X153734592Y-45779118D01*
X153734208Y-46218953D01*
X153793953Y-46363547D01*
X153382600Y-46774900D01*
X153382600Y-45049900D01*
X154386367Y-44046133D01*
X154529118Y-44105408D01*
X154968953Y-44105792D01*
X155375454Y-43937829D01*
X155686736Y-43627090D01*
X155855408Y-43220882D01*
X155855409Y-43218953D01*
X163804208Y-43218953D01*
X163972171Y-43625454D01*
X164282910Y-43936736D01*
X164689118Y-44105408D01*
X165128953Y-44105792D01*
X165535454Y-43937829D01*
X165846736Y-43627090D01*
X166015408Y-43220882D01*
X166015409Y-43218953D01*
X182734208Y-43218953D01*
X182902171Y-43625454D01*
X183212910Y-43936736D01*
X183619118Y-44105408D01*
X184058953Y-44105792D01*
X184465454Y-43937829D01*
X184776736Y-43627090D01*
X184945408Y-43220882D01*
X184945792Y-42781047D01*
X184777829Y-42374546D01*
X184467090Y-42063264D01*
X184060882Y-41894592D01*
X183621047Y-41894208D01*
X183214546Y-42062171D01*
X182903264Y-42372910D01*
X182734592Y-42779118D01*
X182734208Y-43218953D01*
X166015409Y-43218953D01*
X166015792Y-42781047D01*
X165847829Y-42374546D01*
X165537090Y-42063264D01*
X165130882Y-41894592D01*
X164691047Y-41894208D01*
X164284546Y-42062171D01*
X163973264Y-42372910D01*
X163804592Y-42779118D01*
X163804208Y-43218953D01*
X155855409Y-43218953D01*
X155855792Y-42781047D01*
X155687829Y-42374546D01*
X155377090Y-42063264D01*
X154970882Y-41894592D01*
X154531047Y-41894208D01*
X154124546Y-42062171D01*
X153813264Y-42372910D01*
X153644592Y-42779118D01*
X153644208Y-43218953D01*
X153703953Y-43363547D01*
X152558750Y-44508750D01*
X152454136Y-44665317D01*
X152417400Y-44850000D01*
X152417400Y-47021666D01*
X152168873Y-47270193D01*
X152126066Y-47298797D01*
X152048326Y-47350741D01*
X152048319Y-47350748D01*
X152048316Y-47350750D01*
X152048314Y-47350753D01*
X150950740Y-48448326D01*
X150846126Y-48604893D01*
X150809390Y-48789576D01*
X150809390Y-56673727D01*
X149885620Y-57597497D01*
X149885792Y-57401047D01*
X149717829Y-56994546D01*
X149407090Y-56683264D01*
X149000882Y-56514592D01*
X148561047Y-56514208D01*
X148154546Y-56682171D01*
X147843264Y-56992910D01*
X147674592Y-57399118D01*
X147674208Y-57838953D01*
X147842171Y-58245454D01*
X148152910Y-58556736D01*
X148539833Y-58717400D01*
X146518322Y-58717400D01*
X146333639Y-58754136D01*
X146177072Y-58858750D01*
X144532749Y-60503073D01*
X144428135Y-60659640D01*
X144391399Y-60844323D01*
X144391399Y-62773999D01*
X144428135Y-62958682D01*
X144532749Y-63115249D01*
X146342400Y-64924900D01*
X146342400Y-66054507D01*
X146216210Y-65968285D01*
X146055000Y-65935639D01*
X145455000Y-65935639D01*
X145304397Y-65963977D01*
X145166078Y-66052983D01*
X145140512Y-66090400D01*
X145101104Y-66090400D01*
X143609600Y-64598896D01*
X143609600Y-63939719D01*
X143727463Y-63763325D01*
X143787400Y-63462000D01*
X143787400Y-63038507D01*
X143800603Y-63036023D01*
X143938922Y-62947017D01*
X144031715Y-62811210D01*
X144064361Y-62650000D01*
X144064361Y-61350000D01*
X144036023Y-61199397D01*
X143947017Y-61061078D01*
X143811210Y-60968285D01*
X143787400Y-60963463D01*
X143787400Y-59460000D01*
X143727463Y-59158675D01*
X143556776Y-58903224D01*
X143307839Y-58654287D01*
X143479118Y-58725408D01*
X143918953Y-58725792D01*
X144325454Y-58557829D01*
X144511635Y-58371972D01*
X145523949Y-58371972D01*
X145598130Y-58546671D01*
X146001612Y-58721766D01*
X146441385Y-58729127D01*
X146850500Y-58567633D01*
X146881870Y-58546671D01*
X146956051Y-58371972D01*
X146240000Y-57655921D01*
X145523949Y-58371972D01*
X144511635Y-58371972D01*
X144636736Y-58247090D01*
X144805408Y-57840882D01*
X144805425Y-57821385D01*
X145130873Y-57821385D01*
X145292367Y-58230500D01*
X145313329Y-58261870D01*
X145488028Y-58336051D01*
X146204079Y-57620000D01*
X146275921Y-57620000D01*
X146991972Y-58336051D01*
X147166671Y-58261870D01*
X147341766Y-57858388D01*
X147349127Y-57418615D01*
X147187633Y-57009500D01*
X147166671Y-56978130D01*
X146991972Y-56903949D01*
X146275921Y-57620000D01*
X146204079Y-57620000D01*
X145488028Y-56903949D01*
X145313329Y-56978130D01*
X145138234Y-57381612D01*
X145130873Y-57821385D01*
X144805425Y-57821385D01*
X144805792Y-57401047D01*
X144637829Y-56994546D01*
X144511532Y-56868028D01*
X145523949Y-56868028D01*
X146240000Y-57584079D01*
X146956051Y-56868028D01*
X146881870Y-56693329D01*
X146478388Y-56518234D01*
X146038615Y-56510873D01*
X145629500Y-56672367D01*
X145598130Y-56693329D01*
X145523949Y-56868028D01*
X144511532Y-56868028D01*
X144327090Y-56683264D01*
X143920882Y-56514592D01*
X143481047Y-56514208D01*
X143074546Y-56682171D01*
X142763264Y-56992910D01*
X142594592Y-57399118D01*
X142594208Y-57838953D01*
X142665821Y-58012269D01*
X142316363Y-57662811D01*
X142316600Y-57390987D01*
X142140920Y-56965808D01*
X141815903Y-56640224D01*
X141391031Y-56463801D01*
X140930987Y-56463400D01*
X140505808Y-56639080D01*
X140180224Y-56964097D01*
X140003801Y-57388969D01*
X140003400Y-57849013D01*
X140179080Y-58274192D01*
X140504097Y-58599776D01*
X140928969Y-58776199D01*
X141202886Y-58776438D01*
X142212600Y-59786152D01*
X142212600Y-60961493D01*
X142199397Y-60963977D01*
X142061078Y-61052983D01*
X141968285Y-61188790D01*
X141935639Y-61350000D01*
X141935639Y-62650000D01*
X141963977Y-62800603D01*
X142052983Y-62938922D01*
X142188790Y-63031715D01*
X142208574Y-63035721D01*
X141286919Y-63957377D01*
X138305223Y-63957377D01*
X138278965Y-63962600D01*
X136564300Y-63962600D01*
X136262975Y-64022537D01*
X136007524Y-64193224D01*
X132243224Y-67957524D01*
X132072537Y-68212975D01*
X132037245Y-68390400D01*
X131213487Y-68390400D01*
X130970824Y-68147313D01*
X130601064Y-67993775D01*
X130200693Y-67993425D01*
X129830665Y-68146318D01*
X129547313Y-68429176D01*
X129393775Y-68798936D01*
X129393425Y-69199307D01*
X127951947Y-69199307D01*
X127955433Y-69190914D01*
X127955765Y-68810753D01*
X127810590Y-68459403D01*
X127542011Y-68190354D01*
X127190914Y-68044567D01*
X126810753Y-68044235D01*
X126751300Y-68068800D01*
X125120400Y-66437900D01*
X125120400Y-63023655D01*
X125263254Y-62964629D01*
X125449435Y-62778772D01*
X134081749Y-62778772D01*
X134155930Y-62953471D01*
X134559412Y-63128566D01*
X134999185Y-63135927D01*
X135408300Y-62974433D01*
X135439670Y-62953471D01*
X135513851Y-62778772D01*
X134797800Y-62062721D01*
X134081749Y-62778772D01*
X125449435Y-62778772D01*
X125574536Y-62653890D01*
X125743208Y-62247682D01*
X125743225Y-62228185D01*
X133688673Y-62228185D01*
X133850167Y-62637300D01*
X133871129Y-62668670D01*
X134045828Y-62742851D01*
X134761879Y-62026800D01*
X134833721Y-62026800D01*
X135549772Y-62742851D01*
X135698136Y-62679852D01*
X139856069Y-62679852D01*
X139918077Y-62844160D01*
X140285419Y-63002595D01*
X140685430Y-63008393D01*
X141057209Y-62860673D01*
X141081923Y-62844160D01*
X141143931Y-62679852D01*
X140500000Y-62035921D01*
X139856069Y-62679852D01*
X135698136Y-62679852D01*
X135724471Y-62668670D01*
X135899566Y-62265188D01*
X135900901Y-62185430D01*
X139491607Y-62185430D01*
X139639327Y-62557209D01*
X139655840Y-62581923D01*
X139820148Y-62643931D01*
X140464079Y-62000000D01*
X140535921Y-62000000D01*
X141179852Y-62643931D01*
X141344160Y-62581923D01*
X141502595Y-62214581D01*
X141508393Y-61814570D01*
X141360673Y-61442791D01*
X141344160Y-61418077D01*
X141179852Y-61356069D01*
X140535921Y-62000000D01*
X140464079Y-62000000D01*
X139820148Y-61356069D01*
X139655840Y-61418077D01*
X139497405Y-61785419D01*
X139491607Y-62185430D01*
X135900901Y-62185430D01*
X135906927Y-61825415D01*
X135745433Y-61416300D01*
X135724471Y-61384930D01*
X135571907Y-61320148D01*
X139856069Y-61320148D01*
X140500000Y-61964079D01*
X141143931Y-61320148D01*
X141081923Y-61155840D01*
X140714581Y-60997405D01*
X140314570Y-60991607D01*
X139942791Y-61139327D01*
X139918077Y-61155840D01*
X139856069Y-61320148D01*
X135571907Y-61320148D01*
X135549772Y-61310749D01*
X134833721Y-62026800D01*
X134761879Y-62026800D01*
X134045828Y-61310749D01*
X133871129Y-61384930D01*
X133696034Y-61788412D01*
X133688673Y-62228185D01*
X125743225Y-62228185D01*
X125743592Y-61807847D01*
X125575629Y-61401346D01*
X125449332Y-61274828D01*
X134081749Y-61274828D01*
X134797800Y-61990879D01*
X135513851Y-61274828D01*
X135439670Y-61100129D01*
X135036188Y-60925034D01*
X134596415Y-60917673D01*
X134187300Y-61079167D01*
X134155930Y-61100129D01*
X134081749Y-61274828D01*
X125449332Y-61274828D01*
X125264890Y-61090064D01*
X124858682Y-60921392D01*
X124418847Y-60921008D01*
X124274253Y-60980753D01*
X121658560Y-58365060D01*
X121776736Y-58247090D01*
X121945408Y-57840882D01*
X121945409Y-57838953D01*
X122274208Y-57838953D01*
X122442171Y-58245454D01*
X122752910Y-58556736D01*
X123159118Y-58725408D01*
X123598953Y-58725792D01*
X124005454Y-58557829D01*
X124316736Y-58247090D01*
X124485408Y-57840882D01*
X124485409Y-57838953D01*
X124814208Y-57838953D01*
X124982171Y-58245454D01*
X125292910Y-58556736D01*
X125699118Y-58725408D01*
X126138953Y-58725792D01*
X126545454Y-58557829D01*
X126856736Y-58247090D01*
X127025408Y-57840882D01*
X127025409Y-57838953D01*
X127354208Y-57838953D01*
X127522171Y-58245454D01*
X127832910Y-58556736D01*
X128239118Y-58725408D01*
X128678953Y-58725792D01*
X129085454Y-58557829D01*
X129396736Y-58247090D01*
X129565408Y-57840882D01*
X129565409Y-57838953D01*
X129894208Y-57838953D01*
X130062171Y-58245454D01*
X130372910Y-58556736D01*
X130779118Y-58725408D01*
X131218953Y-58725792D01*
X131625454Y-58557829D01*
X131936736Y-58247090D01*
X132105408Y-57840882D01*
X132105409Y-57838953D01*
X132434208Y-57838953D01*
X132602171Y-58245454D01*
X132912910Y-58556736D01*
X133319118Y-58725408D01*
X133758953Y-58725792D01*
X134165454Y-58557829D01*
X134476736Y-58247090D01*
X134645408Y-57840882D01*
X134645409Y-57838953D01*
X134974208Y-57838953D01*
X135142171Y-58245454D01*
X135452910Y-58556736D01*
X135859118Y-58725408D01*
X136298953Y-58725792D01*
X136705454Y-58557829D01*
X137016736Y-58247090D01*
X137185408Y-57840882D01*
X137185409Y-57838953D01*
X137514208Y-57838953D01*
X137682171Y-58245454D01*
X137992910Y-58556736D01*
X138399118Y-58725408D01*
X138838953Y-58725792D01*
X139245454Y-58557829D01*
X139556736Y-58247090D01*
X139725408Y-57840882D01*
X139725792Y-57401047D01*
X139557829Y-56994546D01*
X139247090Y-56683264D01*
X138840882Y-56514592D01*
X138401047Y-56514208D01*
X137994546Y-56682171D01*
X137683264Y-56992910D01*
X137514592Y-57399118D01*
X137514208Y-57838953D01*
X137185409Y-57838953D01*
X137185792Y-57401047D01*
X137017829Y-56994546D01*
X136707090Y-56683264D01*
X136300882Y-56514592D01*
X135861047Y-56514208D01*
X135454546Y-56682171D01*
X135143264Y-56992910D01*
X134974592Y-57399118D01*
X134974208Y-57838953D01*
X134645409Y-57838953D01*
X134645792Y-57401047D01*
X134477829Y-56994546D01*
X134167090Y-56683264D01*
X133760882Y-56514592D01*
X133321047Y-56514208D01*
X132914546Y-56682171D01*
X132603264Y-56992910D01*
X132434592Y-57399118D01*
X132434208Y-57838953D01*
X132105409Y-57838953D01*
X132105792Y-57401047D01*
X131937829Y-56994546D01*
X131627090Y-56683264D01*
X131220882Y-56514592D01*
X130781047Y-56514208D01*
X130374546Y-56682171D01*
X130063264Y-56992910D01*
X129894592Y-57399118D01*
X129894208Y-57838953D01*
X129565409Y-57838953D01*
X129565792Y-57401047D01*
X129397829Y-56994546D01*
X129087090Y-56683264D01*
X128680882Y-56514592D01*
X128241047Y-56514208D01*
X127834546Y-56682171D01*
X127523264Y-56992910D01*
X127354592Y-57399118D01*
X127354208Y-57838953D01*
X127025409Y-57838953D01*
X127025792Y-57401047D01*
X126857829Y-56994546D01*
X126547090Y-56683264D01*
X126140882Y-56514592D01*
X125701047Y-56514208D01*
X125294546Y-56682171D01*
X124983264Y-56992910D01*
X124814592Y-57399118D01*
X124814208Y-57838953D01*
X124485409Y-57838953D01*
X124485792Y-57401047D01*
X124317829Y-56994546D01*
X124007090Y-56683264D01*
X123600882Y-56514592D01*
X123161047Y-56514208D01*
X122754546Y-56682171D01*
X122443264Y-56992910D01*
X122274592Y-57399118D01*
X122274208Y-57838953D01*
X121945409Y-57838953D01*
X121945792Y-57401047D01*
X121777829Y-56994546D01*
X121467090Y-56683264D01*
X121060882Y-56514592D01*
X120621047Y-56514208D01*
X120214546Y-56682171D01*
X119903264Y-56992910D01*
X119734592Y-57399118D01*
X119734208Y-57838953D01*
X119405409Y-57838953D01*
X119405792Y-57401047D01*
X119237829Y-56994546D01*
X118927090Y-56683264D01*
X118520882Y-56514592D01*
X118081047Y-56514208D01*
X117674546Y-56682171D01*
X117363264Y-56992910D01*
X117194592Y-57399118D01*
X117194208Y-57838953D01*
X116865409Y-57838953D01*
X116865792Y-57401047D01*
X116697829Y-56994546D01*
X116387090Y-56683264D01*
X115980882Y-56514592D01*
X115541047Y-56514208D01*
X115134546Y-56682171D01*
X114823264Y-56992910D01*
X114654592Y-57399118D01*
X114654208Y-57838953D01*
X114325409Y-57838953D01*
X114325792Y-57401047D01*
X114157829Y-56994546D01*
X113847090Y-56683264D01*
X113440882Y-56514592D01*
X113001047Y-56514208D01*
X112594546Y-56682171D01*
X112283264Y-56992910D01*
X112114592Y-57399118D01*
X112114208Y-57838953D01*
X110430600Y-57838953D01*
X110430600Y-42598953D01*
X112114208Y-42598953D01*
X112282171Y-43005454D01*
X112592910Y-43316736D01*
X112999118Y-43485408D01*
X113438953Y-43485792D01*
X113845454Y-43317829D01*
X114156736Y-43007090D01*
X114325408Y-42600882D01*
X114325409Y-42598953D01*
X114654208Y-42598953D01*
X114822171Y-43005454D01*
X115132910Y-43316736D01*
X115539118Y-43485408D01*
X115978953Y-43485792D01*
X116385454Y-43317829D01*
X116696736Y-43007090D01*
X116865408Y-42600882D01*
X116865409Y-42598953D01*
X117194208Y-42598953D01*
X117362171Y-43005454D01*
X117672910Y-43316736D01*
X118079118Y-43485408D01*
X118518953Y-43485792D01*
X118925454Y-43317829D01*
X119236736Y-43007090D01*
X119405408Y-42600882D01*
X119405409Y-42598953D01*
X119734208Y-42598953D01*
X119902171Y-43005454D01*
X120212910Y-43316736D01*
X120619118Y-43485408D01*
X121058953Y-43485792D01*
X121465454Y-43317829D01*
X121776736Y-43007090D01*
X121945408Y-42600882D01*
X121945792Y-42161047D01*
X121777829Y-41754546D01*
X121467090Y-41443264D01*
X121060882Y-41274592D01*
X120621047Y-41274208D01*
X120214546Y-41442171D01*
X119903264Y-41752910D01*
X119734592Y-42159118D01*
X119734208Y-42598953D01*
X119405409Y-42598953D01*
X119405792Y-42161047D01*
X119237829Y-41754546D01*
X118927090Y-41443264D01*
X118520882Y-41274592D01*
X118081047Y-41274208D01*
X117674546Y-41442171D01*
X117363264Y-41752910D01*
X117194592Y-42159118D01*
X117194208Y-42598953D01*
X116865409Y-42598953D01*
X116865792Y-42161047D01*
X116697829Y-41754546D01*
X116387090Y-41443264D01*
X115980882Y-41274592D01*
X115541047Y-41274208D01*
X115134546Y-41442171D01*
X114823264Y-41752910D01*
X114654592Y-42159118D01*
X114654208Y-42598953D01*
X114325409Y-42598953D01*
X114325792Y-42161047D01*
X114157829Y-41754546D01*
X113847090Y-41443264D01*
X113440882Y-41274592D01*
X113001047Y-41274208D01*
X112594546Y-41442171D01*
X112283264Y-41752910D01*
X112114592Y-42159118D01*
X112114208Y-42598953D01*
X110430600Y-42598953D01*
X110430600Y-40430600D01*
X124646900Y-40430600D01*
X123743633Y-41333867D01*
M02*
