M48
;DRILL file {KiCad 4.0.2-4+6225~38~ubuntu14.04.1-stable} date lun 14 mar 2016 23:35:27 CET
;FORMAT={-:-/ absolute / metric / decimal}
FMAT,2
METRIC,TZ
T1C0.500
T2C0.600
T3C0.701
T4C0.800
T5C0.800
T6C1.000
T7C1.001
T8C1.016
T9C2.200
%
G90
G05
M71
T1
X132.3Y-55.7
X135.5Y-72.5
X142.253Y-66.613
X147.268Y-63.792
X148.481Y-74.518
X151.9Y-65.2
X158.421Y-48.79
X159.252Y-45.818
X159.985Y-51.999
X198.196Y-44.
X199.466Y-44.
X200.736Y-44.
X202.006Y-44.
T2
X127.Y-69.
X130.4Y-69.
X161.46Y-64.
X162.73Y-64.
X164.Y-64.
X168.73Y-64.
X170.Y-64.
X170.38Y-44.38
X170.38Y-46.92
X170.38Y-49.46
X170.38Y-52.
X170.38Y-54.54
X170.38Y-57.08
X171.27Y-64.
X175.73Y-64.
X177.Y-64.
X178.Y-44.38
X178.Y-46.92
X178.Y-49.46
X178.Y-52.
X178.Y-54.54
X178.Y-57.08
X178.27Y-64.
X182.73Y-64.
X184.Y-64.
X185.27Y-64.
X190.46Y-64.
X191.73Y-64.
X193.Y-64.
X198.43Y-60.
X198.46Y-50.
X198.46Y-55.
X199.7Y-60.
X199.73Y-50.
X199.73Y-55.
X200.97Y-60.
X201.Y-50.
X201.Y-55.
T3
X112.Y-65.
X122.16Y-65.
T4
X125.5Y-76.
X127.5Y-76.
X135.5Y-69.
X137.5Y-69.
X143.Y-62.
T5
X140.5Y-62.
T6
X113.22Y-42.38
X113.22Y-57.62
X115.76Y-42.38
X115.76Y-57.62
X118.3Y-42.38
X118.3Y-57.62
X120.84Y-42.38
X120.84Y-57.62
X123.38Y-42.38
X123.38Y-57.62
X125.92Y-42.38
X125.92Y-57.62
X128.46Y-42.38
X128.46Y-57.62
X131.Y-42.38
X131.Y-57.62
X133.54Y-42.38
X133.54Y-57.62
X136.08Y-42.38
X136.08Y-57.62
X138.62Y-42.38
X138.62Y-57.62
X141.16Y-42.38
X141.16Y-57.62
X143.7Y-42.38
X143.7Y-57.62
X146.185Y-70.053
X146.24Y-42.38
X146.24Y-57.62
X148.78Y-42.38
X148.78Y-57.62
X156.185Y-70.053
X197.5Y-66.
X200.Y-66.
X202.5Y-66.
T7
X124.638Y-62.027
X133.92Y-76.
X134.798Y-62.027
X136.46Y-76.
X139.Y-76.
X154.75Y-43.
X154.84Y-46.
X154.84Y-49.
X154.84Y-52.
X154.84Y-55.
X154.84Y-58.
X163.Y-70.
X163.Y-73.
X163.Y-76.
X164.91Y-43.
X165.Y-46.
X165.Y-49.
X165.Y-52.
X165.Y-55.
X165.Y-58.
X173.16Y-70.
X173.16Y-73.
X173.16Y-76.
X179.84Y-70.
X179.9Y-73.
X179.9Y-76.1
X183.84Y-43.
X183.84Y-52.
X183.84Y-55.
X183.85Y-46.
X183.85Y-49.
X183.871Y-58.014
X190.Y-70.
X190.06Y-73.
X190.06Y-76.1
X194.Y-43.
X194.Y-52.
X194.Y-55.
X194.01Y-46.
X194.01Y-49.
X194.031Y-58.014
T8
X207.Y-45.46
X207.Y-48.
X207.Y-54.46
X207.Y-57.
X207.Y-59.54
X207.Y-62.08
T9
X195.Y-73.
X205.Y-73.
T6
X114.85Y-74.G85X114.85Y-72.
G05
X117.15Y-78.G85X119.15Y-78.
G05
X121.Y-74.G85X121.Y-72.
G05
T0
M30
