G04 #@! TF.FileFunction,Soldermask,Top*
%FSLAX46Y46*%
G04 Gerber Fmt 4.6, Leading zero omitted, Abs format (unit mm)*
G04 Created by KiCad (PCBNEW 4.0.2-4+6225~38~ubuntu14.04.1-stable) date dom 13 mar 2016 03:05:58 CET*
%MOMM*%
G01*
G04 APERTURE LIST*
%ADD10C,0.100000*%
%ADD11C,1.703200*%
%ADD12O,1.727200X1.403200*%
%ADD13C,1.902460*%
%ADD14R,1.902460X1.902460*%
%ADD15R,2.235200X1.930400*%
%ADD16O,2.235200X1.930400*%
%ADD17O,1.102360X1.704340*%
%ADD18C,2.202180*%
%ADD19O,1.103200X1.403200*%
%ADD20R,1.103200X1.403200*%
%ADD21O,1.703200X2.203200*%
%ADD22C,3.203200*%
%ADD23C,1.403200*%
%ADD24O,1.803200X2.203200*%
%ADD25R,2.235200X2.235200*%
%ADD26O,2.235200X2.235200*%
%ADD27O,1.902460X3.703320*%
%ADD28O,2.203200X4.203200*%
%ADD29O,4.203200X2.203200*%
%ADD30R,1.503200X1.503200*%
%ADD31C,1.503200*%
%ADD32C,0.903200*%
G04 APERTURE END LIST*
D10*
D11*
X148780000Y-42380000D03*
X146240000Y-42380000D03*
X143700000Y-42380000D03*
X141160000Y-42380000D03*
X138620000Y-42380000D03*
X136080000Y-42380000D03*
X133540000Y-42380000D03*
X131000000Y-42380000D03*
X128460000Y-42380000D03*
X125920000Y-42380000D03*
X123380000Y-42380000D03*
X120840000Y-42380000D03*
X118300000Y-42380000D03*
X115760000Y-42380000D03*
X113220000Y-42380000D03*
X113220000Y-57620000D03*
X115760000Y-57620000D03*
X118300000Y-57620000D03*
X120840000Y-57620000D03*
X123380000Y-57620000D03*
X125920000Y-57620000D03*
X128460000Y-57620000D03*
X131000000Y-57620000D03*
X133540000Y-57620000D03*
X136080000Y-57620000D03*
X138620000Y-57620000D03*
X141160000Y-57620000D03*
X143700000Y-57620000D03*
X146240000Y-57620000D03*
X148780000Y-57620000D03*
D12*
X170380000Y-44380000D03*
X170380000Y-46920000D03*
X170380000Y-49460000D03*
X170380000Y-52000000D03*
X170380000Y-54540000D03*
X170380000Y-57080000D03*
X178000000Y-44380000D03*
X178000000Y-46920000D03*
X178000000Y-49460000D03*
X178000000Y-52000000D03*
X178000000Y-54540000D03*
X178000000Y-57080000D03*
D13*
X112000000Y-65000000D03*
D14*
X122160000Y-65000000D03*
D15*
X207000000Y-54460000D03*
D16*
X207000000Y-57000000D03*
X207000000Y-59540000D03*
X207000000Y-62080000D03*
D17*
X199730000Y-50000000D03*
X198460000Y-50000000D03*
X201000000Y-50000000D03*
X199730000Y-55000000D03*
X198460000Y-55000000D03*
X201000000Y-55000000D03*
X199700000Y-60000000D03*
X198430000Y-60000000D03*
X200970000Y-60000000D03*
X162730000Y-64000000D03*
X161460000Y-64000000D03*
X164000000Y-64000000D03*
X170000000Y-64000000D03*
X168730000Y-64000000D03*
X171270000Y-64000000D03*
X191730000Y-64000000D03*
X190460000Y-64000000D03*
X193000000Y-64000000D03*
X177000000Y-64000000D03*
X175730000Y-64000000D03*
X178270000Y-64000000D03*
X184000000Y-64000000D03*
X182730000Y-64000000D03*
X185270000Y-64000000D03*
D18*
X194000000Y-52000000D03*
X183840000Y-52000000D03*
X194000000Y-55000000D03*
X183840000Y-55000000D03*
X194030600Y-58013600D03*
X183870600Y-58013600D03*
X183840000Y-43000000D03*
X194000000Y-43000000D03*
X183850000Y-49000000D03*
X194010000Y-49000000D03*
X183850000Y-46000000D03*
X194010000Y-46000000D03*
X173160000Y-76000000D03*
X163000000Y-76000000D03*
X165000000Y-46000000D03*
X154840000Y-46000000D03*
X173160000Y-70000000D03*
X163000000Y-70000000D03*
X165000000Y-55000000D03*
X154840000Y-55000000D03*
X173160000Y-73000000D03*
X163000000Y-73000000D03*
X164910000Y-43000000D03*
X154750000Y-43000000D03*
X165000000Y-49000000D03*
X154840000Y-49000000D03*
X165000000Y-52000000D03*
X154840000Y-52000000D03*
X165000000Y-58000000D03*
X154840000Y-58000000D03*
X190000000Y-70000000D03*
X179840000Y-70000000D03*
X190060000Y-76100000D03*
X179900000Y-76100000D03*
X190060000Y-73000000D03*
X179900000Y-73000000D03*
X134797800Y-62026800D03*
X124637800Y-62026800D03*
D19*
X199466200Y-44000000D03*
D20*
X200736200Y-44000000D03*
D19*
X198196200Y-44000000D03*
X202006200Y-44000000D03*
D21*
X200000000Y-66000000D03*
X202500000Y-66000000D03*
X197500000Y-66000000D03*
D22*
X205000000Y-73000000D03*
X195000000Y-73000000D03*
D23*
X130400000Y-69000000D03*
X127000000Y-69000000D03*
D24*
X146184600Y-70053200D03*
X156184600Y-70053200D03*
D25*
X207000000Y-48000000D03*
D26*
X207000000Y-45460000D03*
D27*
X136460000Y-76000000D03*
X139000000Y-76000000D03*
X133920000Y-76000000D03*
D28*
X121000000Y-73000000D03*
X114850000Y-73000000D03*
D29*
X118150000Y-78000000D03*
D30*
X135500000Y-69000000D03*
D31*
X137500000Y-69000000D03*
D30*
X127500000Y-76000000D03*
D31*
X125500000Y-76000000D03*
D30*
X143000000Y-62000000D03*
D31*
X140500000Y-62000000D03*
D32*
X151900000Y-65200000D03*
X146600000Y-63300000D03*
X159251868Y-45818301D03*
X158520798Y-48789721D03*
X160108196Y-51483239D03*
X148545822Y-74539031D03*
X135500000Y-72500000D03*
X142497241Y-66902759D03*
X132300000Y-55700000D03*
M02*
