G04 #@! TF.FileFunction,Copper,L1,Top,Signal*
%FSLAX46Y46*%
G04 Gerber Fmt 4.6, Leading zero omitted, Abs format (unit mm)*
G04 Created by KiCad (PCBNEW 4.0.2-4+6225~38~ubuntu14.04.1-stable) date vie 15 abr 2016 00:06:46 CEST*
%MOMM*%
G01*
G04 APERTURE LIST*
%ADD10C,0.100000*%
%ADD11C,1.500000*%
%ADD12O,1.524000X1.200000*%
%ADD13C,1.699260*%
%ADD14R,1.699260X1.699260*%
%ADD15R,2.032000X1.727200*%
%ADD16O,2.032000X1.727200*%
%ADD17O,1.500000X2.000000*%
%ADD18C,3.000000*%
%ADD19C,1.200000*%
%ADD20O,1.600000X2.000000*%
%ADD21R,2.032000X2.032000*%
%ADD22O,2.032000X2.032000*%
%ADD23O,1.699260X3.500120*%
%ADD24O,2.000000X4.000000*%
%ADD25O,4.000000X2.000000*%
%ADD26R,1.300000X1.300000*%
%ADD27C,1.300000*%
%ADD28O,1.000000X1.501140*%
%ADD29O,0.900000X1.300000*%
%ADD30R,0.900000X1.300000*%
%ADD31C,0.900000*%
%ADD32C,0.254000*%
%ADD33C,0.762000*%
%ADD34C,0.203200*%
G04 APERTURE END LIST*
D10*
D11*
X148780000Y-42380000D03*
X146240000Y-42380000D03*
X143700000Y-42380000D03*
X141160000Y-42380000D03*
X138620000Y-42380000D03*
X136080000Y-42380000D03*
X133540000Y-42380000D03*
X131000000Y-42380000D03*
X128460000Y-42380000D03*
X125920000Y-42380000D03*
X123380000Y-42380000D03*
X120840000Y-42380000D03*
X118300000Y-42380000D03*
X115760000Y-42380000D03*
X113220000Y-42380000D03*
X113220000Y-57620000D03*
X115760000Y-57620000D03*
X118300000Y-57620000D03*
X120840000Y-57620000D03*
X123380000Y-57620000D03*
X125920000Y-57620000D03*
X128460000Y-57620000D03*
X131000000Y-57620000D03*
X133540000Y-57620000D03*
X136080000Y-57620000D03*
X138620000Y-57620000D03*
X141160000Y-57620000D03*
X143700000Y-57620000D03*
X146240000Y-57620000D03*
X148780000Y-57620000D03*
D12*
X170380000Y-44380000D03*
X170380000Y-46920000D03*
X170380000Y-49460000D03*
X170380000Y-52000000D03*
X170380000Y-54540000D03*
X170380000Y-57080000D03*
X178000000Y-44380000D03*
X178000000Y-46920000D03*
X178000000Y-49460000D03*
X178000000Y-52000000D03*
X178000000Y-54540000D03*
X178000000Y-57080000D03*
D13*
X112000000Y-65000000D03*
D14*
X122160000Y-65000000D03*
D15*
X207000000Y-54460000D03*
D16*
X207000000Y-57000000D03*
X207000000Y-59540000D03*
X207000000Y-62080000D03*
D17*
X200000000Y-66000000D03*
X202500000Y-66000000D03*
X197500000Y-66000000D03*
D18*
X205000000Y-73000000D03*
X195000000Y-73000000D03*
D19*
X130400000Y-69000000D03*
X127000000Y-69000000D03*
D20*
X146184600Y-70053200D03*
X156184600Y-70053200D03*
D21*
X207000000Y-48000000D03*
D22*
X207000000Y-45460000D03*
D23*
X136460000Y-76000000D03*
X139000000Y-76000000D03*
X133920000Y-76000000D03*
D24*
X121000000Y-73000000D03*
X114850000Y-73000000D03*
D25*
X118150000Y-78000000D03*
D26*
X135500000Y-69000000D03*
D27*
X137500000Y-69000000D03*
D26*
X127500000Y-76000000D03*
D27*
X125500000Y-76000000D03*
D26*
X143000000Y-62000000D03*
D27*
X140500000Y-62000000D03*
D28*
X184000000Y-64000000D03*
X182730000Y-64000000D03*
X185270000Y-64000000D03*
X177000000Y-64000000D03*
X175730000Y-64000000D03*
X178270000Y-64000000D03*
X191730000Y-64000000D03*
X190460000Y-64000000D03*
X193000000Y-64000000D03*
X170000000Y-64000000D03*
X168730000Y-64000000D03*
X171270000Y-64000000D03*
X162730000Y-64000000D03*
X161460000Y-64000000D03*
X164000000Y-64000000D03*
X199700000Y-60000000D03*
X198430000Y-60000000D03*
X200970000Y-60000000D03*
X199730000Y-55000000D03*
X198460000Y-55000000D03*
X201000000Y-55000000D03*
X199730000Y-50000000D03*
X198460000Y-50000000D03*
X201000000Y-50000000D03*
D11*
X194000000Y-52000000D03*
X183840000Y-52000000D03*
X194000000Y-55000000D03*
X183840000Y-55000000D03*
X194030600Y-58013600D03*
X183870600Y-58013600D03*
X183840000Y-43000000D03*
X194000000Y-43000000D03*
X183850000Y-49000000D03*
X194010000Y-49000000D03*
X183850000Y-46000000D03*
X194010000Y-46000000D03*
X173160000Y-76000000D03*
X163000000Y-76000000D03*
X165000000Y-46000000D03*
X154840000Y-46000000D03*
X173160000Y-70000000D03*
X163000000Y-70000000D03*
X165000000Y-55000000D03*
X154840000Y-55000000D03*
X173160000Y-73000000D03*
X163000000Y-73000000D03*
X164910000Y-43000000D03*
X154750000Y-43000000D03*
X165000000Y-49000000D03*
X154840000Y-49000000D03*
X165000000Y-52000000D03*
X154840000Y-52000000D03*
X165000000Y-58000000D03*
X154840000Y-58000000D03*
X190000000Y-70000000D03*
X179840000Y-70000000D03*
X190060000Y-76100000D03*
X179900000Y-76100000D03*
X190060000Y-73000000D03*
X179900000Y-73000000D03*
X134797800Y-62026800D03*
X124637800Y-62026800D03*
D29*
X199466200Y-44000000D03*
D30*
X200736200Y-44000000D03*
D29*
X198196200Y-44000000D03*
X202006200Y-44000000D03*
D31*
X151900000Y-65200000D03*
X147267561Y-63791606D03*
X159251868Y-45818301D03*
X158420848Y-48789721D03*
X159984931Y-51999190D03*
X148480658Y-74517506D03*
X135500000Y-72500000D03*
X142253171Y-66612645D03*
X132300000Y-55700000D03*
D32*
X143000000Y-62000000D02*
X143000000Y-62954000D01*
X143000000Y-62954000D02*
X145246000Y-65200000D01*
X145246000Y-65200000D02*
X151900000Y-65200000D01*
D33*
X127500000Y-76000000D02*
X133920000Y-76000000D01*
D32*
X146817562Y-63341607D02*
X147267561Y-63791606D01*
X143212827Y-59736872D02*
X146817562Y-63341607D01*
X140736872Y-59736872D02*
X143212827Y-59736872D01*
X138620000Y-57620000D02*
X140736872Y-59736872D01*
X207000000Y-59540000D02*
X206847600Y-59540000D01*
X206847600Y-59540000D02*
X203617600Y-62770000D01*
X203617600Y-62770000D02*
X197930000Y-62770000D01*
X197930000Y-62770000D02*
X193415859Y-67284141D01*
X134823920Y-59900358D02*
X133540000Y-58616438D01*
X133540000Y-58616438D02*
X133540000Y-57620000D01*
X193415859Y-67284141D02*
X144139803Y-67284141D01*
X144139803Y-67284141D02*
X136756020Y-59900358D01*
X136756020Y-59900358D02*
X134823920Y-59900358D01*
X208900000Y-62800000D02*
X208900000Y-58747600D01*
X138692101Y-64976644D02*
X141507609Y-67792152D01*
X131000000Y-57620000D02*
X131000000Y-60883128D01*
X135093516Y-64976644D02*
X138692101Y-64976644D01*
X131000000Y-60883128D02*
X135093516Y-64976644D01*
X141507609Y-67792152D02*
X193626284Y-67792152D01*
X193626284Y-67792152D02*
X196850246Y-64568190D01*
X196850246Y-64568190D02*
X207131810Y-64568190D01*
X207131810Y-64568190D02*
X208900000Y-62800000D01*
X208900000Y-58747600D02*
X207152400Y-57000000D01*
X207152400Y-57000000D02*
X207000000Y-57000000D01*
X127160000Y-69000000D02*
X127000000Y-69000000D01*
D33*
X135500000Y-69000000D02*
X135500000Y-70412000D01*
X139000000Y-73912000D02*
X139000000Y-76000000D01*
X135500000Y-70412000D02*
X139000000Y-73912000D01*
X122160000Y-65000000D02*
X122160000Y-67219800D01*
X122160000Y-67219800D02*
X125653800Y-70713600D01*
X125653800Y-70713600D02*
X132283200Y-70713600D01*
X132283200Y-70713600D02*
X133996800Y-69000000D01*
X133996800Y-69000000D02*
X135500000Y-69000000D01*
D32*
X138620000Y-42380000D02*
X140245353Y-44005353D01*
X155616704Y-41546741D02*
X159251868Y-45181905D01*
X140245353Y-44005353D02*
X151617158Y-44005353D01*
X151617158Y-44005353D02*
X154075770Y-41546741D01*
X159251868Y-45181905D02*
X159251868Y-45818301D01*
X154075770Y-41546741D02*
X155616704Y-41546741D01*
X133540000Y-42380000D02*
X135673364Y-44513364D01*
X135673364Y-44513364D02*
X155522302Y-44513364D01*
X155522302Y-44513364D02*
X158420848Y-47411910D01*
X158420848Y-47411910D02*
X158420848Y-48153325D01*
X158420848Y-48153325D02*
X158420848Y-48789721D01*
X131000000Y-42380000D02*
X139104127Y-50484127D01*
X139104127Y-50484127D02*
X158469868Y-50484127D01*
X158469868Y-50484127D02*
X159534932Y-51549191D01*
X159534932Y-51549191D02*
X159984931Y-51999190D01*
X183840000Y-52000000D02*
X182459509Y-50619509D01*
X182459509Y-50619509D02*
X163199114Y-50619509D01*
X163199114Y-50619509D02*
X162242242Y-49662637D01*
X162242242Y-49662637D02*
X157701501Y-49662637D01*
X157701501Y-49662637D02*
X155521345Y-47482481D01*
X155521345Y-47482481D02*
X136820915Y-47482481D01*
X136820915Y-47482481D02*
X132215609Y-42877175D01*
X132215609Y-42877175D02*
X132215609Y-41769582D01*
X132215609Y-41769582D02*
X131695026Y-41248999D01*
X131695026Y-41248999D02*
X121971001Y-41248999D01*
X121971001Y-41248999D02*
X121589999Y-41630001D01*
X121589999Y-41630001D02*
X120840000Y-42380000D01*
X154970120Y-60851684D02*
X177988316Y-60851684D01*
X129946028Y-54026028D02*
X148144465Y-54026029D01*
X182840511Y-55999489D02*
X183840000Y-55000000D01*
X177988316Y-60851684D02*
X182840511Y-55999489D01*
X118300000Y-42380000D02*
X129946028Y-54026028D01*
X148144465Y-54026029D02*
X154970120Y-60851684D01*
X127914039Y-54534039D02*
X147934039Y-54534039D01*
X147934039Y-54534039D02*
X154759694Y-61359694D01*
X115760000Y-42380000D02*
X127914039Y-54534039D01*
X154759694Y-61359694D02*
X180640306Y-61359694D01*
X180640306Y-61359694D02*
X184000000Y-58000000D01*
X119600000Y-59700000D02*
X127331277Y-67431277D01*
X145162198Y-74517506D02*
X147844262Y-74517506D01*
X113220000Y-42380000D02*
X119600000Y-48760000D01*
X138075969Y-67431277D02*
X145162198Y-74517506D01*
X147844262Y-74517506D02*
X148480658Y-74517506D01*
X127331277Y-67431277D02*
X138075969Y-67431277D01*
X119600000Y-48760000D02*
X119600000Y-59700000D01*
X113220000Y-61020000D02*
X124700000Y-72500000D01*
X124700000Y-72500000D02*
X135500000Y-72500000D01*
X113220000Y-57620000D02*
X113220000Y-61020000D01*
X194000000Y-52000000D02*
X199100000Y-52000000D01*
X199100000Y-52000000D02*
X199730000Y-51370000D01*
X199730000Y-51370000D02*
X199730000Y-50000000D01*
X194000000Y-55000000D02*
X195500000Y-53500000D01*
X195500000Y-53500000D02*
X198530990Y-53500000D01*
X198530990Y-53500000D02*
X199730000Y-54699010D01*
X199730000Y-54699010D02*
X199730000Y-55000000D01*
X194160000Y-58000000D02*
X199050000Y-58000000D01*
X199050000Y-58000000D02*
X199700000Y-58650000D01*
X199700000Y-58650000D02*
X199700000Y-60000000D01*
X165000000Y-49000000D02*
X167080000Y-46920000D01*
X167080000Y-46920000D02*
X170380000Y-46920000D01*
X183850000Y-46000000D02*
X184849489Y-45000511D01*
X197860790Y-41091990D02*
X199466200Y-42697400D01*
X184849489Y-45000511D02*
X185383645Y-45000511D01*
X185383645Y-45000511D02*
X189292166Y-41091990D01*
X189292166Y-41091990D02*
X197860790Y-41091990D01*
X199466200Y-42697400D02*
X199466200Y-44000000D01*
X183850000Y-49000000D02*
X186100000Y-46750000D01*
X186100000Y-46750000D02*
X186100000Y-45026068D01*
X189526068Y-41600000D02*
X196900000Y-41600000D01*
X186100000Y-45026068D02*
X189526068Y-41600000D01*
X196900000Y-41600000D02*
X198196200Y-42896200D01*
X198196200Y-42896200D02*
X198196200Y-44000000D01*
X183840000Y-43000000D02*
X186665720Y-43000000D01*
X186665720Y-43000000D02*
X189081741Y-40583979D01*
X189081741Y-40583979D02*
X199994379Y-40583979D01*
X199994379Y-40583979D02*
X202006200Y-42595800D01*
X202006200Y-42595800D02*
X202006200Y-44000000D01*
X148879540Y-73666521D02*
X153829041Y-78616022D01*
X200000000Y-67254000D02*
X200000000Y-66000000D01*
X123380000Y-57620000D02*
X132576022Y-66816022D01*
X200000000Y-74200000D02*
X200000000Y-67254000D01*
X153829041Y-78616022D02*
X195583978Y-78616022D01*
X145029649Y-73666521D02*
X148879540Y-73666521D01*
X195583978Y-78616022D02*
X200000000Y-74200000D01*
X132576022Y-66816022D02*
X138179150Y-66816022D01*
X138179150Y-66816022D02*
X145029649Y-73666521D01*
D33*
X121000000Y-73000000D02*
X120000000Y-73000000D01*
X118750000Y-71750000D02*
X112000000Y-65000000D01*
X120000000Y-73000000D02*
X118750000Y-71750000D01*
D32*
X141803172Y-66162646D02*
X142253171Y-66612645D01*
X136095710Y-60455184D02*
X141803172Y-66162646D01*
X134255184Y-60455184D02*
X136095710Y-60455184D01*
X132300000Y-55700000D02*
X132300000Y-58500000D01*
X132300000Y-58500000D02*
X134255184Y-60455184D01*
X178000000Y-46920000D02*
X178000000Y-46276960D01*
X178000000Y-46276960D02*
X177223040Y-45500000D01*
X177223040Y-45500000D02*
X166913492Y-45500000D01*
X166413492Y-46000000D02*
X165000000Y-46000000D01*
X166913492Y-45500000D02*
X166413492Y-46000000D01*
X166913492Y-54500000D02*
X166953492Y-54540000D01*
X166953492Y-54540000D02*
X170380000Y-54540000D01*
X165000000Y-55000000D02*
X166413492Y-55000000D01*
X166413492Y-55000000D02*
X166913492Y-54500000D01*
X178000000Y-44380000D02*
X178000000Y-43526000D01*
X178000000Y-43526000D02*
X176224000Y-41750000D01*
X176224000Y-41750000D02*
X167573492Y-41750000D01*
X167573492Y-41750000D02*
X166323492Y-43000000D01*
X166323492Y-43000000D02*
X164910000Y-43000000D01*
X165000000Y-52000000D02*
X166413492Y-52000000D01*
X166413492Y-52000000D02*
X170380000Y-52000000D01*
X165000000Y-58000000D02*
X166500000Y-58000000D01*
X166500000Y-58000000D02*
X167420000Y-57080000D01*
X167420000Y-57080000D02*
X170380000Y-57080000D01*
X178900511Y-77099489D02*
X179900000Y-76100000D01*
X149089966Y-73158511D02*
X153819957Y-77888502D01*
X145240074Y-73158510D02*
X149089966Y-73158511D01*
X125920000Y-58680660D02*
X133547351Y-66308011D01*
X125920000Y-57620000D02*
X125920000Y-58680660D01*
X133547351Y-66308011D02*
X138389576Y-66308012D01*
X153819957Y-77888502D02*
X178111498Y-77888502D01*
X178111498Y-77888502D02*
X178900511Y-77099489D01*
X138389576Y-66308012D02*
X145240074Y-73158510D01*
X128460000Y-59960000D02*
X128460000Y-58680660D01*
X134300000Y-65800000D02*
X128460000Y-59960000D01*
X138797021Y-65800000D02*
X134300000Y-65800000D01*
X145597021Y-72600000D02*
X138797021Y-65800000D01*
X154280491Y-77380491D02*
X149500000Y-72600000D01*
X179900000Y-73000000D02*
X175519509Y-77380491D01*
X175519509Y-77380491D02*
X154280491Y-77380491D01*
X149500000Y-72600000D02*
X145597021Y-72600000D01*
X128460000Y-58680660D02*
X128460000Y-57620000D01*
D34*
G36*
X186465820Y-42517400D02*
X184836855Y-42517400D01*
X184777829Y-42374546D01*
X184467090Y-42063264D01*
X184060882Y-41894592D01*
X183621047Y-41894208D01*
X183214546Y-42062171D01*
X182903264Y-42372910D01*
X182734592Y-42779118D01*
X182734208Y-43218953D01*
X182902171Y-43625454D01*
X183212910Y-43936736D01*
X183619118Y-44105408D01*
X184058953Y-44105792D01*
X184465454Y-43937829D01*
X184776736Y-43627090D01*
X184836733Y-43482600D01*
X186219056Y-43482600D01*
X185183745Y-44517911D01*
X184849489Y-44517911D01*
X184664806Y-44554647D01*
X184508239Y-44659261D01*
X184213633Y-44953867D01*
X184070882Y-44894592D01*
X183631047Y-44894208D01*
X183224546Y-45062171D01*
X182913264Y-45372910D01*
X182744592Y-45779118D01*
X182744208Y-46218953D01*
X182912171Y-46625454D01*
X183222910Y-46936736D01*
X183629118Y-47105408D01*
X184068953Y-47105792D01*
X184475454Y-46937829D01*
X184786736Y-46627090D01*
X184955408Y-46220882D01*
X184955792Y-45781047D01*
X184896047Y-45636453D01*
X185049389Y-45483111D01*
X185383645Y-45483111D01*
X185568328Y-45446375D01*
X185617400Y-45413586D01*
X185617400Y-46550101D01*
X184213633Y-47953867D01*
X184070882Y-47894592D01*
X183631047Y-47894208D01*
X183224546Y-48062171D01*
X182913264Y-48372910D01*
X182744592Y-48779118D01*
X182744208Y-49218953D01*
X182912171Y-49625454D01*
X183222910Y-49936736D01*
X183629118Y-50105408D01*
X184068953Y-50105792D01*
X184475454Y-49937829D01*
X184786736Y-49627090D01*
X184955408Y-49220882D01*
X184955409Y-49218953D01*
X192904208Y-49218953D01*
X193072171Y-49625454D01*
X193382910Y-49936736D01*
X193789118Y-50105408D01*
X194228953Y-50105792D01*
X194423516Y-50025400D01*
X197604400Y-50025400D01*
X197604400Y-50275970D01*
X197679249Y-50601460D01*
X197872960Y-50873531D01*
X198156043Y-51050761D01*
X198301126Y-51091290D01*
X198434600Y-51016849D01*
X198434600Y-50025400D01*
X197604400Y-50025400D01*
X194423516Y-50025400D01*
X194635454Y-49937829D01*
X194849626Y-49724030D01*
X197604400Y-49724030D01*
X197604400Y-49974600D01*
X198434600Y-49974600D01*
X198434600Y-48983151D01*
X198301126Y-48908710D01*
X198156043Y-48949239D01*
X197872960Y-49126469D01*
X197679249Y-49398540D01*
X197604400Y-49724030D01*
X194849626Y-49724030D01*
X194946736Y-49627090D01*
X195115408Y-49220882D01*
X195115792Y-48781047D01*
X194947829Y-48374546D01*
X194637090Y-48063264D01*
X194230882Y-47894592D01*
X193791047Y-47894208D01*
X193384546Y-48062171D01*
X193073264Y-48372910D01*
X192904592Y-48779118D01*
X192904208Y-49218953D01*
X184955409Y-49218953D01*
X184955792Y-48781047D01*
X184896047Y-48636453D01*
X186441247Y-47091252D01*
X186441250Y-47091250D01*
X186545864Y-46934683D01*
X186548785Y-46920000D01*
X186582601Y-46750000D01*
X186582600Y-46749995D01*
X186582600Y-46218953D01*
X192904208Y-46218953D01*
X193072171Y-46625454D01*
X193382910Y-46936736D01*
X193789118Y-47105408D01*
X194228953Y-47105792D01*
X194635454Y-46937829D01*
X194946736Y-46627090D01*
X195115408Y-46220882D01*
X195115792Y-45781047D01*
X194983138Y-45460000D01*
X205601529Y-45460000D01*
X205705936Y-45984889D01*
X206003261Y-46429868D01*
X206289960Y-46621434D01*
X205984000Y-46621434D01*
X205852223Y-46646230D01*
X205731193Y-46724110D01*
X205649999Y-46842942D01*
X205621434Y-46984000D01*
X205621434Y-49016000D01*
X205646230Y-49147777D01*
X205724110Y-49268807D01*
X205842942Y-49350001D01*
X205984000Y-49378566D01*
X208016000Y-49378566D01*
X208147777Y-49353770D01*
X208268807Y-49275890D01*
X208350001Y-49157058D01*
X208378566Y-49016000D01*
X208378566Y-46984000D01*
X208353770Y-46852223D01*
X208275890Y-46731193D01*
X208157058Y-46649999D01*
X208016000Y-46621434D01*
X207710040Y-46621434D01*
X207996739Y-46429868D01*
X208294064Y-45984889D01*
X208398471Y-45460000D01*
X208294064Y-44935111D01*
X207996739Y-44490132D01*
X207551760Y-44192807D01*
X207026871Y-44088400D01*
X206973129Y-44088400D01*
X206448240Y-44192807D01*
X206003261Y-44490132D01*
X205705936Y-44935111D01*
X205601529Y-45460000D01*
X194983138Y-45460000D01*
X194947829Y-45374546D01*
X194637090Y-45063264D01*
X194230882Y-44894592D01*
X193791047Y-44894208D01*
X193384546Y-45062171D01*
X193073264Y-45372910D01*
X192904592Y-45779118D01*
X192904208Y-46218953D01*
X186582600Y-46218953D01*
X186582600Y-45225968D01*
X189725968Y-42082600D01*
X193354081Y-42082600D01*
X193063264Y-42372910D01*
X192894592Y-42779118D01*
X192894208Y-43218953D01*
X193062171Y-43625454D01*
X193372910Y-43936736D01*
X193779118Y-44105408D01*
X194218953Y-44105792D01*
X194625454Y-43937829D01*
X194936736Y-43627090D01*
X195105408Y-43220882D01*
X195105792Y-42781047D01*
X194937829Y-42374546D01*
X194646392Y-42082600D01*
X196700100Y-42082600D01*
X197713600Y-43096099D01*
X197713600Y-43152492D01*
X197626555Y-43210654D01*
X197451923Y-43472009D01*
X197390600Y-43780299D01*
X197390600Y-44219701D01*
X197451923Y-44527991D01*
X197626555Y-44789346D01*
X197887910Y-44963978D01*
X198196200Y-45025301D01*
X198504490Y-44963978D01*
X198765845Y-44789346D01*
X198831200Y-44691535D01*
X198896555Y-44789346D01*
X199157910Y-44963978D01*
X199466200Y-45025301D01*
X199774490Y-44963978D01*
X199935904Y-44856124D01*
X199989183Y-44938922D01*
X200124990Y-45031715D01*
X200286200Y-45064361D01*
X201186200Y-45064361D01*
X201336803Y-45036023D01*
X201475122Y-44947017D01*
X201536997Y-44856459D01*
X201697910Y-44963978D01*
X202006200Y-45025301D01*
X202314490Y-44963978D01*
X202575845Y-44789346D01*
X202750477Y-44527991D01*
X202811800Y-44219701D01*
X202811800Y-43780299D01*
X202750477Y-43472009D01*
X202575845Y-43210654D01*
X202488800Y-43152492D01*
X202488800Y-42595805D01*
X202488801Y-42595800D01*
X202452064Y-42411117D01*
X202407271Y-42344079D01*
X202347450Y-42254550D01*
X202347447Y-42254548D01*
X200523500Y-40430600D01*
X209569400Y-40430600D01*
X209569400Y-79569400D01*
X110430600Y-79569400D01*
X110430600Y-78237113D01*
X115815298Y-78237113D01*
X115887869Y-78495300D01*
X116173486Y-78940594D01*
X116607768Y-79242691D01*
X117124600Y-79355600D01*
X118124600Y-79355600D01*
X118124600Y-78025400D01*
X118175400Y-78025400D01*
X118175400Y-79355600D01*
X119175400Y-79355600D01*
X119692232Y-79242691D01*
X120126514Y-78940594D01*
X120412131Y-78495300D01*
X120484702Y-78237113D01*
X120416445Y-78025400D01*
X118175400Y-78025400D01*
X118124600Y-78025400D01*
X115883555Y-78025400D01*
X115815298Y-78237113D01*
X110430600Y-78237113D01*
X110430600Y-77762887D01*
X115815298Y-77762887D01*
X115883555Y-77974600D01*
X118124600Y-77974600D01*
X118124600Y-76644400D01*
X118175400Y-76644400D01*
X118175400Y-77974600D01*
X120416445Y-77974600D01*
X120484702Y-77762887D01*
X120412131Y-77504700D01*
X120126514Y-77059406D01*
X119692232Y-76757309D01*
X119337679Y-76679852D01*
X124856069Y-76679852D01*
X124918077Y-76844160D01*
X125285419Y-77002595D01*
X125685430Y-77008393D01*
X126057209Y-76860673D01*
X126081923Y-76844160D01*
X126143931Y-76679852D01*
X125500000Y-76035921D01*
X124856069Y-76679852D01*
X119337679Y-76679852D01*
X119175400Y-76644400D01*
X118175400Y-76644400D01*
X118124600Y-76644400D01*
X117124600Y-76644400D01*
X116607768Y-76757309D01*
X116173486Y-77059406D01*
X115887869Y-77504700D01*
X115815298Y-77762887D01*
X110430600Y-77762887D01*
X110430600Y-76185430D01*
X124491607Y-76185430D01*
X124639327Y-76557209D01*
X124655840Y-76581923D01*
X124820148Y-76643931D01*
X125464079Y-76000000D01*
X125535921Y-76000000D01*
X126179852Y-76643931D01*
X126344160Y-76581923D01*
X126435639Y-76369823D01*
X126435639Y-76650000D01*
X126463977Y-76800603D01*
X126552983Y-76938922D01*
X126688790Y-77031715D01*
X126850000Y-77064361D01*
X128150000Y-77064361D01*
X128300603Y-77036023D01*
X128438922Y-76947017D01*
X128531715Y-76811210D01*
X128536537Y-76787400D01*
X132663970Y-76787400D01*
X132663970Y-76942678D01*
X132759580Y-77423340D01*
X133031853Y-77830825D01*
X133439338Y-78103098D01*
X133920000Y-78198708D01*
X134400662Y-78103098D01*
X134808147Y-77830825D01*
X135080420Y-77423340D01*
X135176030Y-76942678D01*
X135176030Y-76025400D01*
X135254770Y-76025400D01*
X135254770Y-76925830D01*
X135356233Y-77385118D01*
X135625734Y-77770617D01*
X136022245Y-78023638D01*
X136246415Y-78086583D01*
X136434600Y-78016471D01*
X136434600Y-76025400D01*
X136485400Y-76025400D01*
X136485400Y-78016471D01*
X136673585Y-78086583D01*
X136897755Y-78023638D01*
X137294266Y-77770617D01*
X137563767Y-77385118D01*
X137665230Y-76925830D01*
X137665230Y-76025400D01*
X136485400Y-76025400D01*
X136434600Y-76025400D01*
X135254770Y-76025400D01*
X135176030Y-76025400D01*
X135176030Y-75074170D01*
X135254770Y-75074170D01*
X135254770Y-75974600D01*
X136434600Y-75974600D01*
X136434600Y-73983529D01*
X136485400Y-73983529D01*
X136485400Y-75974600D01*
X137665230Y-75974600D01*
X137665230Y-75074170D01*
X137563767Y-74614882D01*
X137294266Y-74229383D01*
X136897755Y-73976362D01*
X136673585Y-73913417D01*
X136485400Y-73983529D01*
X136434600Y-73983529D01*
X136246415Y-73913417D01*
X136022245Y-73976362D01*
X135625734Y-74229383D01*
X135356233Y-74614882D01*
X135254770Y-75074170D01*
X135176030Y-75074170D01*
X135176030Y-75057322D01*
X135080420Y-74576660D01*
X134808147Y-74169175D01*
X134400662Y-73896902D01*
X133920000Y-73801292D01*
X133439338Y-73896902D01*
X133031853Y-74169175D01*
X132759580Y-74576660D01*
X132663970Y-75057322D01*
X132663970Y-75212600D01*
X128538507Y-75212600D01*
X128536023Y-75199397D01*
X128447017Y-75061078D01*
X128311210Y-74968285D01*
X128150000Y-74935639D01*
X126850000Y-74935639D01*
X126699397Y-74963977D01*
X126561078Y-75052983D01*
X126468285Y-75188790D01*
X126435639Y-75350000D01*
X126435639Y-75631464D01*
X126360673Y-75442791D01*
X126344160Y-75418077D01*
X126179852Y-75356069D01*
X125535921Y-76000000D01*
X125464079Y-76000000D01*
X124820148Y-75356069D01*
X124655840Y-75418077D01*
X124497405Y-75785419D01*
X124491607Y-76185430D01*
X110430600Y-76185430D01*
X110430600Y-73025400D01*
X113494400Y-73025400D01*
X113494400Y-74025400D01*
X113607309Y-74542232D01*
X113909406Y-74976514D01*
X114354700Y-75262131D01*
X114612887Y-75334702D01*
X114824600Y-75266445D01*
X114824600Y-73025400D01*
X114875400Y-73025400D01*
X114875400Y-75266445D01*
X115087113Y-75334702D01*
X115345300Y-75262131D01*
X115790594Y-74976514D01*
X116092691Y-74542232D01*
X116205600Y-74025400D01*
X116205600Y-73025400D01*
X114875400Y-73025400D01*
X114824600Y-73025400D01*
X113494400Y-73025400D01*
X110430600Y-73025400D01*
X110430600Y-71974600D01*
X113494400Y-71974600D01*
X113494400Y-72974600D01*
X114824600Y-72974600D01*
X114824600Y-70733555D01*
X114875400Y-70733555D01*
X114875400Y-72974600D01*
X116205600Y-72974600D01*
X116205600Y-71974600D01*
X116092691Y-71457768D01*
X115790594Y-71023486D01*
X115345300Y-70737869D01*
X115087113Y-70665298D01*
X114875400Y-70733555D01*
X114824600Y-70733555D01*
X114612887Y-70665298D01*
X114354700Y-70737869D01*
X113909406Y-71023486D01*
X113607309Y-71457768D01*
X113494400Y-71974600D01*
X110430600Y-71974600D01*
X110430600Y-65248744D01*
X110743753Y-65248744D01*
X110934569Y-65710554D01*
X111287587Y-66064189D01*
X111749064Y-66255811D01*
X112142602Y-66256154D01*
X119443224Y-73556776D01*
X119593600Y-73657254D01*
X119593600Y-74047144D01*
X119700656Y-74585350D01*
X120005525Y-75041619D01*
X120461794Y-75346488D01*
X121000000Y-75453544D01*
X121538206Y-75346488D01*
X121577626Y-75320148D01*
X124856069Y-75320148D01*
X125500000Y-75964079D01*
X126143931Y-75320148D01*
X126081923Y-75155840D01*
X125714581Y-74997405D01*
X125314570Y-74991607D01*
X124942791Y-75139327D01*
X124918077Y-75155840D01*
X124856069Y-75320148D01*
X121577626Y-75320148D01*
X121994475Y-75041619D01*
X122299344Y-74585350D01*
X122406400Y-74047144D01*
X122406400Y-71952856D01*
X122299344Y-71414650D01*
X121994475Y-70958381D01*
X121538206Y-70653512D01*
X121000000Y-70546456D01*
X120461794Y-70653512D01*
X120005525Y-70958381D01*
X119700656Y-71414650D01*
X119672044Y-71558492D01*
X113255906Y-65142354D01*
X113256247Y-64751256D01*
X113065431Y-64289446D01*
X112712413Y-63935811D01*
X112250936Y-63744189D01*
X111751256Y-63743753D01*
X111289446Y-63934569D01*
X110935811Y-64287587D01*
X110744189Y-64749064D01*
X110743753Y-65248744D01*
X110430600Y-65248744D01*
X110430600Y-42598953D01*
X112114208Y-42598953D01*
X112282171Y-43005454D01*
X112592910Y-43316736D01*
X112999118Y-43485408D01*
X113438953Y-43485792D01*
X113583547Y-43426047D01*
X119117400Y-48959899D01*
X119117400Y-56873907D01*
X118927090Y-56683264D01*
X118520882Y-56514592D01*
X118081047Y-56514208D01*
X117674546Y-56682171D01*
X117363264Y-56992910D01*
X117194592Y-57399118D01*
X117194208Y-57838953D01*
X117362171Y-58245454D01*
X117672910Y-58556736D01*
X118079118Y-58725408D01*
X118518953Y-58725792D01*
X118925454Y-58557829D01*
X119117400Y-58366218D01*
X119117400Y-59700000D01*
X119154136Y-59884683D01*
X119258750Y-60041250D01*
X122953509Y-63736009D01*
X121310370Y-63736009D01*
X121159767Y-63764347D01*
X121021448Y-63853353D01*
X120928655Y-63989160D01*
X120896009Y-64150370D01*
X120896009Y-65849630D01*
X120924347Y-66000233D01*
X121013353Y-66138552D01*
X121149160Y-66231345D01*
X121310370Y-66263991D01*
X121372600Y-66263991D01*
X121372600Y-67219800D01*
X121432537Y-67521125D01*
X121603224Y-67776576D01*
X125097024Y-71270376D01*
X125352475Y-71441063D01*
X125653800Y-71501000D01*
X132283200Y-71501000D01*
X132584525Y-71441063D01*
X132839976Y-71270376D01*
X134322952Y-69787400D01*
X134461493Y-69787400D01*
X134463977Y-69800603D01*
X134552983Y-69938922D01*
X134688790Y-70031715D01*
X134712600Y-70036537D01*
X134712600Y-70412000D01*
X134772537Y-70713325D01*
X134943224Y-70968776D01*
X135674698Y-71700250D01*
X135660947Y-71694540D01*
X135340459Y-71694260D01*
X135044260Y-71816647D01*
X134843156Y-72017400D01*
X124899900Y-72017400D01*
X113702600Y-60820100D01*
X113702600Y-58616855D01*
X113845454Y-58557829D01*
X114156736Y-58247090D01*
X114325408Y-57840882D01*
X114325409Y-57838953D01*
X114654208Y-57838953D01*
X114822171Y-58245454D01*
X115132910Y-58556736D01*
X115539118Y-58725408D01*
X115978953Y-58725792D01*
X116385454Y-58557829D01*
X116696736Y-58247090D01*
X116865408Y-57840882D01*
X116865792Y-57401047D01*
X116697829Y-56994546D01*
X116387090Y-56683264D01*
X115980882Y-56514592D01*
X115541047Y-56514208D01*
X115134546Y-56682171D01*
X114823264Y-56992910D01*
X114654592Y-57399118D01*
X114654208Y-57838953D01*
X114325409Y-57838953D01*
X114325792Y-57401047D01*
X114157829Y-56994546D01*
X113847090Y-56683264D01*
X113440882Y-56514592D01*
X113001047Y-56514208D01*
X112594546Y-56682171D01*
X112283264Y-56992910D01*
X112114592Y-57399118D01*
X112114208Y-57838953D01*
X112282171Y-58245454D01*
X112592910Y-58556736D01*
X112737400Y-58616733D01*
X112737400Y-61020000D01*
X112774136Y-61204683D01*
X112878750Y-61361250D01*
X124358750Y-72841250D01*
X124515317Y-72945864D01*
X124700000Y-72982601D01*
X124700005Y-72982600D01*
X134843460Y-72982600D01*
X135043068Y-73182557D01*
X135339053Y-73305460D01*
X135659541Y-73305740D01*
X135955740Y-73183353D01*
X136182557Y-72956932D01*
X136305460Y-72660947D01*
X136305740Y-72340459D01*
X136299285Y-72324837D01*
X138130898Y-74156450D01*
X138111853Y-74169175D01*
X137839580Y-74576660D01*
X137743970Y-75057322D01*
X137743970Y-76942678D01*
X137839580Y-77423340D01*
X138111853Y-77830825D01*
X138519338Y-78103098D01*
X139000000Y-78198708D01*
X139480662Y-78103098D01*
X139888147Y-77830825D01*
X140160420Y-77423340D01*
X140256030Y-76942678D01*
X140256030Y-75057322D01*
X140160420Y-74576660D01*
X139888147Y-74169175D01*
X139787400Y-74101858D01*
X139787400Y-73912000D01*
X139727463Y-73610675D01*
X139556776Y-73355224D01*
X136287400Y-70085848D01*
X136287400Y-70038507D01*
X136300603Y-70036023D01*
X136438922Y-69947017D01*
X136531715Y-69811210D01*
X136558315Y-69679852D01*
X136856069Y-69679852D01*
X136918077Y-69844160D01*
X137285419Y-70002595D01*
X137685430Y-70008393D01*
X138057209Y-69860673D01*
X138081923Y-69844160D01*
X138143931Y-69679852D01*
X137500000Y-69035921D01*
X136856069Y-69679852D01*
X136558315Y-69679852D01*
X136564361Y-69650000D01*
X136564361Y-69368536D01*
X136639327Y-69557209D01*
X136655840Y-69581923D01*
X136820148Y-69643931D01*
X137464079Y-69000000D01*
X137535921Y-69000000D01*
X138179852Y-69643931D01*
X138344160Y-69581923D01*
X138502595Y-69214581D01*
X138508393Y-68814570D01*
X138360673Y-68442791D01*
X138344160Y-68418077D01*
X138179852Y-68356069D01*
X137535921Y-69000000D01*
X137464079Y-69000000D01*
X136820148Y-68356069D01*
X136655840Y-68418077D01*
X136564361Y-68630177D01*
X136564361Y-68350000D01*
X136558744Y-68320148D01*
X136856069Y-68320148D01*
X137500000Y-68964079D01*
X138143931Y-68320148D01*
X138081923Y-68155840D01*
X137714581Y-67997405D01*
X137314570Y-67991607D01*
X136942791Y-68139327D01*
X136918077Y-68155840D01*
X136856069Y-68320148D01*
X136558744Y-68320148D01*
X136536023Y-68199397D01*
X136447017Y-68061078D01*
X136311210Y-67968285D01*
X136150000Y-67935639D01*
X134850000Y-67935639D01*
X134699397Y-67963977D01*
X134561078Y-68052983D01*
X134468285Y-68188790D01*
X134463463Y-68212600D01*
X133996800Y-68212600D01*
X133695475Y-68272537D01*
X133440024Y-68443224D01*
X131957048Y-69926200D01*
X130793829Y-69926200D01*
X130969335Y-69853682D01*
X131252687Y-69570824D01*
X131406225Y-69201064D01*
X131406575Y-68800693D01*
X131253682Y-68430665D01*
X130970824Y-68147313D01*
X130601064Y-67993775D01*
X130200693Y-67993425D01*
X129830665Y-68146318D01*
X129547313Y-68429176D01*
X129393775Y-68798936D01*
X129393425Y-69199307D01*
X129546318Y-69569335D01*
X129829176Y-69852687D01*
X130006215Y-69926200D01*
X127260800Y-69926200D01*
X127540597Y-69810590D01*
X127809646Y-69542011D01*
X127955433Y-69190914D01*
X127955765Y-68810753D01*
X127810590Y-68459403D01*
X127542011Y-68190354D01*
X127190914Y-68044567D01*
X126810753Y-68044235D01*
X126459403Y-68189410D01*
X126190354Y-68457989D01*
X126044567Y-68809086D01*
X126044235Y-69189247D01*
X126189410Y-69540597D01*
X126457989Y-69809646D01*
X126738685Y-69926200D01*
X125979952Y-69926200D01*
X122947400Y-66893648D01*
X122947400Y-66263991D01*
X123009630Y-66263991D01*
X123160233Y-66235653D01*
X123298552Y-66146647D01*
X123391345Y-66010840D01*
X123423991Y-65849630D01*
X123423991Y-64206491D01*
X126990027Y-67772527D01*
X127146594Y-67877141D01*
X127331277Y-67913878D01*
X127331282Y-67913877D01*
X137876069Y-67913877D01*
X144820948Y-74858756D01*
X144977515Y-74963370D01*
X145162198Y-75000106D01*
X147824118Y-75000106D01*
X148023726Y-75200063D01*
X148319711Y-75322966D01*
X148640199Y-75323246D01*
X148936398Y-75200859D01*
X149163215Y-74974438D01*
X149263483Y-74732964D01*
X153487789Y-78957269D01*
X153487791Y-78957272D01*
X153644358Y-79061886D01*
X153829041Y-79098622D01*
X195583978Y-79098622D01*
X195768661Y-79061886D01*
X195925228Y-78957272D01*
X200341250Y-74541250D01*
X200445864Y-74384683D01*
X200482600Y-74200000D01*
X200482600Y-73367482D01*
X203144079Y-73367482D01*
X203425982Y-74049740D01*
X203947515Y-74572184D01*
X204629279Y-74855277D01*
X205367482Y-74855921D01*
X206049740Y-74574018D01*
X206572184Y-74052485D01*
X206855277Y-73370721D01*
X206855921Y-72632518D01*
X206574018Y-71950260D01*
X206052485Y-71427816D01*
X205370721Y-71144723D01*
X204632518Y-71144079D01*
X203950260Y-71425982D01*
X203427816Y-71947515D01*
X203144723Y-72629279D01*
X203144079Y-73367482D01*
X200482600Y-73367482D01*
X200482600Y-67258239D01*
X200781777Y-67058335D01*
X201021441Y-66699653D01*
X201105600Y-66276558D01*
X201105600Y-65723442D01*
X201021441Y-65300347D01*
X200854692Y-65050790D01*
X201584720Y-65050790D01*
X201431626Y-65279912D01*
X201343600Y-65722447D01*
X201343600Y-66277553D01*
X201431626Y-66720088D01*
X201682302Y-67095251D01*
X202057465Y-67345927D01*
X202500000Y-67433953D01*
X202942535Y-67345927D01*
X203317698Y-67095251D01*
X203568374Y-66720088D01*
X203656400Y-66277553D01*
X203656400Y-65722447D01*
X203568374Y-65279912D01*
X203415280Y-65050790D01*
X207131810Y-65050790D01*
X207316493Y-65014054D01*
X207473060Y-64909440D01*
X209241250Y-63141250D01*
X209345864Y-62984683D01*
X209382600Y-62800000D01*
X209382600Y-58747605D01*
X209382601Y-58747600D01*
X209345864Y-58562917D01*
X209267652Y-58445864D01*
X209241250Y-58406350D01*
X209241247Y-58406348D01*
X208303984Y-57469084D01*
X208305665Y-57466568D01*
X208398471Y-57000000D01*
X208305665Y-56533432D01*
X208041376Y-56137895D01*
X207645839Y-55873606D01*
X207179271Y-55780800D01*
X206820729Y-55780800D01*
X206354161Y-55873606D01*
X205958624Y-56137895D01*
X205694335Y-56533432D01*
X205601529Y-57000000D01*
X205694335Y-57466568D01*
X205958624Y-57862105D01*
X206354161Y-58126394D01*
X206820729Y-58219200D01*
X207179271Y-58219200D01*
X207604514Y-58134614D01*
X208417400Y-58947499D01*
X208417400Y-62600100D01*
X206931910Y-64085590D01*
X197296909Y-64085590D01*
X198129899Y-63252600D01*
X203617600Y-63252600D01*
X203802283Y-63215864D01*
X203958850Y-63111250D01*
X204774329Y-62295771D01*
X205647646Y-62295771D01*
X205711486Y-62523101D01*
X205967535Y-62924144D01*
X206357566Y-63196674D01*
X206822200Y-63299200D01*
X206974600Y-63299200D01*
X206974600Y-62105400D01*
X207025400Y-62105400D01*
X207025400Y-63299200D01*
X207177800Y-63299200D01*
X207642434Y-63196674D01*
X208032465Y-62924144D01*
X208288514Y-62523101D01*
X208352354Y-62295771D01*
X208282415Y-62105400D01*
X207025400Y-62105400D01*
X206974600Y-62105400D01*
X205717585Y-62105400D01*
X205647646Y-62295771D01*
X204774329Y-62295771D01*
X205205871Y-61864229D01*
X205647646Y-61864229D01*
X205717585Y-62054600D01*
X206974600Y-62054600D01*
X206974600Y-60860800D01*
X207025400Y-60860800D01*
X207025400Y-62054600D01*
X208282415Y-62054600D01*
X208352354Y-61864229D01*
X208288514Y-61636899D01*
X208032465Y-61235856D01*
X207642434Y-60963326D01*
X207177800Y-60860800D01*
X207025400Y-60860800D01*
X206974600Y-60860800D01*
X206822200Y-60860800D01*
X206357566Y-60963326D01*
X205967535Y-61235856D01*
X205711486Y-61636899D01*
X205647646Y-61864229D01*
X205205871Y-61864229D01*
X206395486Y-60674614D01*
X206820729Y-60759200D01*
X207179271Y-60759200D01*
X207645839Y-60666394D01*
X208041376Y-60402105D01*
X208305665Y-60006568D01*
X208398471Y-59540000D01*
X208305665Y-59073432D01*
X208041376Y-58677895D01*
X207645839Y-58413606D01*
X207179271Y-58320800D01*
X206820729Y-58320800D01*
X206354161Y-58413606D01*
X205958624Y-58677895D01*
X205694335Y-59073432D01*
X205601529Y-59540000D01*
X205694335Y-60006568D01*
X205696016Y-60009084D01*
X203417700Y-62287400D01*
X197930000Y-62287400D01*
X197745317Y-62324136D01*
X197588750Y-62428750D01*
X197588748Y-62428753D01*
X193215959Y-66801541D01*
X144339703Y-66801541D01*
X140544512Y-63006350D01*
X140685430Y-63008393D01*
X141057209Y-62860673D01*
X141081923Y-62844160D01*
X141143931Y-62679852D01*
X140500000Y-62035921D01*
X140485858Y-62050064D01*
X140449937Y-62014143D01*
X140464079Y-62000000D01*
X140535921Y-62000000D01*
X141179852Y-62643931D01*
X141344160Y-62581923D01*
X141502595Y-62214581D01*
X141508393Y-61814570D01*
X141360673Y-61442791D01*
X141344160Y-61418077D01*
X141179852Y-61356069D01*
X140535921Y-62000000D01*
X140464079Y-62000000D01*
X139820148Y-61356069D01*
X139655840Y-61418077D01*
X139497405Y-61785419D01*
X139494921Y-61956759D01*
X138858310Y-61320148D01*
X139856069Y-61320148D01*
X140500000Y-61964079D01*
X141143931Y-61320148D01*
X141081923Y-61155840D01*
X140714581Y-60997405D01*
X140314570Y-60991607D01*
X139942791Y-61139327D01*
X139918077Y-61155840D01*
X139856069Y-61320148D01*
X138858310Y-61320148D01*
X137097270Y-59559108D01*
X136940703Y-59454494D01*
X136756020Y-59417758D01*
X135023820Y-59417758D01*
X134164348Y-58558286D01*
X134165454Y-58557829D01*
X134476736Y-58247090D01*
X134645408Y-57840882D01*
X134645409Y-57838953D01*
X134974208Y-57838953D01*
X135142171Y-58245454D01*
X135452910Y-58556736D01*
X135859118Y-58725408D01*
X136298953Y-58725792D01*
X136705454Y-58557829D01*
X137016736Y-58247090D01*
X137185408Y-57840882D01*
X137185409Y-57838953D01*
X137514208Y-57838953D01*
X137682171Y-58245454D01*
X137992910Y-58556736D01*
X138399118Y-58725408D01*
X138838953Y-58725792D01*
X138983547Y-58666047D01*
X140395622Y-60078122D01*
X140552189Y-60182736D01*
X140736872Y-60219472D01*
X143012927Y-60219472D01*
X143749178Y-60955723D01*
X143650000Y-60935639D01*
X142350000Y-60935639D01*
X142199397Y-60963977D01*
X142061078Y-61052983D01*
X141968285Y-61188790D01*
X141935639Y-61350000D01*
X141935639Y-62650000D01*
X141963977Y-62800603D01*
X142052983Y-62938922D01*
X142188790Y-63031715D01*
X142350000Y-63064361D01*
X142488552Y-63064361D01*
X142507203Y-63158123D01*
X142622829Y-63331171D01*
X144868829Y-65577171D01*
X145041877Y-65692797D01*
X145246000Y-65733401D01*
X145246005Y-65733400D01*
X151222393Y-65733400D01*
X151414255Y-65925597D01*
X151728904Y-66056251D01*
X152069601Y-66056548D01*
X152384478Y-65926444D01*
X152625597Y-65685745D01*
X152756251Y-65371096D01*
X152756548Y-65030399D01*
X152626444Y-64715522D01*
X152385745Y-64474403D01*
X152071096Y-64343749D01*
X151730399Y-64343452D01*
X151415522Y-64473556D01*
X151222141Y-64666600D01*
X145466942Y-64666600D01*
X143822363Y-63022021D01*
X143938922Y-62947017D01*
X144031715Y-62811210D01*
X144064361Y-62650000D01*
X144064361Y-61350000D01*
X144046029Y-61252574D01*
X146462068Y-63668613D01*
X146461821Y-63951147D01*
X146584208Y-64247346D01*
X146810629Y-64474163D01*
X147106614Y-64597066D01*
X147427102Y-64597346D01*
X147723301Y-64474959D01*
X147950118Y-64248538D01*
X148073021Y-63952553D01*
X148073217Y-63727759D01*
X160604400Y-63727759D01*
X160604400Y-64272241D01*
X160669529Y-64599665D01*
X160854999Y-64877242D01*
X161132576Y-65062712D01*
X161460000Y-65127841D01*
X161787424Y-65062712D01*
X162065001Y-64877242D01*
X162095000Y-64832345D01*
X162124999Y-64877242D01*
X162402576Y-65062712D01*
X162730000Y-65127841D01*
X163057424Y-65062712D01*
X163335001Y-64877242D01*
X163374022Y-64818842D01*
X163412960Y-64873531D01*
X163696043Y-65050761D01*
X163841126Y-65091290D01*
X163974600Y-65016849D01*
X163974600Y-64025400D01*
X164025400Y-64025400D01*
X164025400Y-65016849D01*
X164158874Y-65091290D01*
X164303957Y-65050761D01*
X164587040Y-64873531D01*
X164780751Y-64601460D01*
X164855600Y-64275970D01*
X164855600Y-64025400D01*
X164025400Y-64025400D01*
X163974600Y-64025400D01*
X163954600Y-64025400D01*
X163954600Y-63974600D01*
X163974600Y-63974600D01*
X163974600Y-62983151D01*
X164025400Y-62983151D01*
X164025400Y-63974600D01*
X164855600Y-63974600D01*
X164855600Y-63727759D01*
X167874400Y-63727759D01*
X167874400Y-64272241D01*
X167939529Y-64599665D01*
X168124999Y-64877242D01*
X168402576Y-65062712D01*
X168730000Y-65127841D01*
X169057424Y-65062712D01*
X169335001Y-64877242D01*
X169365000Y-64832345D01*
X169394999Y-64877242D01*
X169672576Y-65062712D01*
X170000000Y-65127841D01*
X170327424Y-65062712D01*
X170605001Y-64877242D01*
X170644022Y-64818842D01*
X170682960Y-64873531D01*
X170966043Y-65050761D01*
X171111126Y-65091290D01*
X171244600Y-65016849D01*
X171244600Y-64025400D01*
X171295400Y-64025400D01*
X171295400Y-65016849D01*
X171428874Y-65091290D01*
X171573957Y-65050761D01*
X171857040Y-64873531D01*
X172050751Y-64601460D01*
X172125600Y-64275970D01*
X172125600Y-64025400D01*
X171295400Y-64025400D01*
X171244600Y-64025400D01*
X171224600Y-64025400D01*
X171224600Y-63974600D01*
X171244600Y-63974600D01*
X171244600Y-62983151D01*
X171295400Y-62983151D01*
X171295400Y-63974600D01*
X172125600Y-63974600D01*
X172125600Y-63727759D01*
X174874400Y-63727759D01*
X174874400Y-64272241D01*
X174939529Y-64599665D01*
X175124999Y-64877242D01*
X175402576Y-65062712D01*
X175730000Y-65127841D01*
X176057424Y-65062712D01*
X176335001Y-64877242D01*
X176365000Y-64832345D01*
X176394999Y-64877242D01*
X176672576Y-65062712D01*
X177000000Y-65127841D01*
X177327424Y-65062712D01*
X177605001Y-64877242D01*
X177644022Y-64818842D01*
X177682960Y-64873531D01*
X177966043Y-65050761D01*
X178111126Y-65091290D01*
X178244600Y-65016849D01*
X178244600Y-64025400D01*
X178295400Y-64025400D01*
X178295400Y-65016849D01*
X178428874Y-65091290D01*
X178573957Y-65050761D01*
X178857040Y-64873531D01*
X179050751Y-64601460D01*
X179125600Y-64275970D01*
X179125600Y-64025400D01*
X178295400Y-64025400D01*
X178244600Y-64025400D01*
X178224600Y-64025400D01*
X178224600Y-63974600D01*
X178244600Y-63974600D01*
X178244600Y-62983151D01*
X178295400Y-62983151D01*
X178295400Y-63974600D01*
X179125600Y-63974600D01*
X179125600Y-63727759D01*
X181874400Y-63727759D01*
X181874400Y-64272241D01*
X181939529Y-64599665D01*
X182124999Y-64877242D01*
X182402576Y-65062712D01*
X182730000Y-65127841D01*
X183057424Y-65062712D01*
X183335001Y-64877242D01*
X183365000Y-64832345D01*
X183394999Y-64877242D01*
X183672576Y-65062712D01*
X184000000Y-65127841D01*
X184327424Y-65062712D01*
X184605001Y-64877242D01*
X184644022Y-64818842D01*
X184682960Y-64873531D01*
X184966043Y-65050761D01*
X185111126Y-65091290D01*
X185244600Y-65016849D01*
X185244600Y-64025400D01*
X185295400Y-64025400D01*
X185295400Y-65016849D01*
X185428874Y-65091290D01*
X185573957Y-65050761D01*
X185857040Y-64873531D01*
X186050751Y-64601460D01*
X186125600Y-64275970D01*
X186125600Y-64025400D01*
X185295400Y-64025400D01*
X185244600Y-64025400D01*
X185224600Y-64025400D01*
X185224600Y-63974600D01*
X185244600Y-63974600D01*
X185244600Y-62983151D01*
X185295400Y-62983151D01*
X185295400Y-63974600D01*
X186125600Y-63974600D01*
X186125600Y-63727759D01*
X189604400Y-63727759D01*
X189604400Y-64272241D01*
X189669529Y-64599665D01*
X189854999Y-64877242D01*
X190132576Y-65062712D01*
X190460000Y-65127841D01*
X190787424Y-65062712D01*
X191065001Y-64877242D01*
X191095000Y-64832345D01*
X191124999Y-64877242D01*
X191402576Y-65062712D01*
X191730000Y-65127841D01*
X192057424Y-65062712D01*
X192335001Y-64877242D01*
X192374022Y-64818842D01*
X192412960Y-64873531D01*
X192696043Y-65050761D01*
X192841126Y-65091290D01*
X192974600Y-65016849D01*
X192974600Y-64025400D01*
X193025400Y-64025400D01*
X193025400Y-65016849D01*
X193158874Y-65091290D01*
X193303957Y-65050761D01*
X193587040Y-64873531D01*
X193780751Y-64601460D01*
X193855600Y-64275970D01*
X193855600Y-64025400D01*
X193025400Y-64025400D01*
X192974600Y-64025400D01*
X192954600Y-64025400D01*
X192954600Y-63974600D01*
X192974600Y-63974600D01*
X192974600Y-62983151D01*
X193025400Y-62983151D01*
X193025400Y-63974600D01*
X193855600Y-63974600D01*
X193855600Y-63724030D01*
X193780751Y-63398540D01*
X193587040Y-63126469D01*
X193303957Y-62949239D01*
X193158874Y-62908710D01*
X193025400Y-62983151D01*
X192974600Y-62983151D01*
X192841126Y-62908710D01*
X192696043Y-62949239D01*
X192412960Y-63126469D01*
X192374022Y-63181158D01*
X192335001Y-63122758D01*
X192057424Y-62937288D01*
X191730000Y-62872159D01*
X191402576Y-62937288D01*
X191124999Y-63122758D01*
X191095000Y-63167655D01*
X191065001Y-63122758D01*
X190787424Y-62937288D01*
X190460000Y-62872159D01*
X190132576Y-62937288D01*
X189854999Y-63122758D01*
X189669529Y-63400335D01*
X189604400Y-63727759D01*
X186125600Y-63727759D01*
X186125600Y-63724030D01*
X186050751Y-63398540D01*
X185857040Y-63126469D01*
X185573957Y-62949239D01*
X185428874Y-62908710D01*
X185295400Y-62983151D01*
X185244600Y-62983151D01*
X185111126Y-62908710D01*
X184966043Y-62949239D01*
X184682960Y-63126469D01*
X184644022Y-63181158D01*
X184605001Y-63122758D01*
X184327424Y-62937288D01*
X184000000Y-62872159D01*
X183672576Y-62937288D01*
X183394999Y-63122758D01*
X183365000Y-63167655D01*
X183335001Y-63122758D01*
X183057424Y-62937288D01*
X182730000Y-62872159D01*
X182402576Y-62937288D01*
X182124999Y-63122758D01*
X181939529Y-63400335D01*
X181874400Y-63727759D01*
X179125600Y-63727759D01*
X179125600Y-63724030D01*
X179050751Y-63398540D01*
X178857040Y-63126469D01*
X178573957Y-62949239D01*
X178428874Y-62908710D01*
X178295400Y-62983151D01*
X178244600Y-62983151D01*
X178111126Y-62908710D01*
X177966043Y-62949239D01*
X177682960Y-63126469D01*
X177644022Y-63181158D01*
X177605001Y-63122758D01*
X177327424Y-62937288D01*
X177000000Y-62872159D01*
X176672576Y-62937288D01*
X176394999Y-63122758D01*
X176365000Y-63167655D01*
X176335001Y-63122758D01*
X176057424Y-62937288D01*
X175730000Y-62872159D01*
X175402576Y-62937288D01*
X175124999Y-63122758D01*
X174939529Y-63400335D01*
X174874400Y-63727759D01*
X172125600Y-63727759D01*
X172125600Y-63724030D01*
X172050751Y-63398540D01*
X171857040Y-63126469D01*
X171573957Y-62949239D01*
X171428874Y-62908710D01*
X171295400Y-62983151D01*
X171244600Y-62983151D01*
X171111126Y-62908710D01*
X170966043Y-62949239D01*
X170682960Y-63126469D01*
X170644022Y-63181158D01*
X170605001Y-63122758D01*
X170327424Y-62937288D01*
X170000000Y-62872159D01*
X169672576Y-62937288D01*
X169394999Y-63122758D01*
X169365000Y-63167655D01*
X169335001Y-63122758D01*
X169057424Y-62937288D01*
X168730000Y-62872159D01*
X168402576Y-62937288D01*
X168124999Y-63122758D01*
X167939529Y-63400335D01*
X167874400Y-63727759D01*
X164855600Y-63727759D01*
X164855600Y-63724030D01*
X164780751Y-63398540D01*
X164587040Y-63126469D01*
X164303957Y-62949239D01*
X164158874Y-62908710D01*
X164025400Y-62983151D01*
X163974600Y-62983151D01*
X163841126Y-62908710D01*
X163696043Y-62949239D01*
X163412960Y-63126469D01*
X163374022Y-63181158D01*
X163335001Y-63122758D01*
X163057424Y-62937288D01*
X162730000Y-62872159D01*
X162402576Y-62937288D01*
X162124999Y-63122758D01*
X162095000Y-63167655D01*
X162065001Y-63122758D01*
X161787424Y-62937288D01*
X161460000Y-62872159D01*
X161132576Y-62937288D01*
X160854999Y-63122758D01*
X160669529Y-63400335D01*
X160604400Y-63727759D01*
X148073217Y-63727759D01*
X148073301Y-63632065D01*
X147950914Y-63335866D01*
X147724493Y-63109049D01*
X147428508Y-62986146D01*
X147144353Y-62985898D01*
X143554077Y-59395622D01*
X143397510Y-59291008D01*
X143212827Y-59254272D01*
X140936772Y-59254272D01*
X139666133Y-57983633D01*
X139722031Y-57849013D01*
X140003400Y-57849013D01*
X140179080Y-58274192D01*
X140504097Y-58599776D01*
X140928969Y-58776199D01*
X141389013Y-58776600D01*
X141814192Y-58600920D01*
X142139776Y-58275903D01*
X142316199Y-57851031D01*
X142316209Y-57838953D01*
X142594208Y-57838953D01*
X142762171Y-58245454D01*
X143072910Y-58556736D01*
X143479118Y-58725408D01*
X143918953Y-58725792D01*
X144325454Y-58557829D01*
X144511635Y-58371972D01*
X145523949Y-58371972D01*
X145598130Y-58546671D01*
X146001612Y-58721766D01*
X146441385Y-58729127D01*
X146850500Y-58567633D01*
X146881870Y-58546671D01*
X146956051Y-58371972D01*
X146240000Y-57655921D01*
X145523949Y-58371972D01*
X144511635Y-58371972D01*
X144636736Y-58247090D01*
X144805408Y-57840882D01*
X144805425Y-57821385D01*
X145130873Y-57821385D01*
X145292367Y-58230500D01*
X145313329Y-58261870D01*
X145488028Y-58336051D01*
X146204079Y-57620000D01*
X146275921Y-57620000D01*
X146991972Y-58336051D01*
X147166671Y-58261870D01*
X147341766Y-57858388D01*
X147349127Y-57418615D01*
X147187633Y-57009500D01*
X147166671Y-56978130D01*
X146991972Y-56903949D01*
X146275921Y-57620000D01*
X146204079Y-57620000D01*
X145488028Y-56903949D01*
X145313329Y-56978130D01*
X145138234Y-57381612D01*
X145130873Y-57821385D01*
X144805425Y-57821385D01*
X144805792Y-57401047D01*
X144637829Y-56994546D01*
X144511532Y-56868028D01*
X145523949Y-56868028D01*
X146240000Y-57584079D01*
X146956051Y-56868028D01*
X146881870Y-56693329D01*
X146478388Y-56518234D01*
X146038615Y-56510873D01*
X145629500Y-56672367D01*
X145598130Y-56693329D01*
X145523949Y-56868028D01*
X144511532Y-56868028D01*
X144327090Y-56683264D01*
X143920882Y-56514592D01*
X143481047Y-56514208D01*
X143074546Y-56682171D01*
X142763264Y-56992910D01*
X142594592Y-57399118D01*
X142594208Y-57838953D01*
X142316209Y-57838953D01*
X142316600Y-57390987D01*
X142140920Y-56965808D01*
X141815903Y-56640224D01*
X141391031Y-56463801D01*
X140930987Y-56463400D01*
X140505808Y-56639080D01*
X140180224Y-56964097D01*
X140003801Y-57388969D01*
X140003400Y-57849013D01*
X139722031Y-57849013D01*
X139725408Y-57840882D01*
X139725792Y-57401047D01*
X139557829Y-56994546D01*
X139247090Y-56683264D01*
X138840882Y-56514592D01*
X138401047Y-56514208D01*
X137994546Y-56682171D01*
X137683264Y-56992910D01*
X137514592Y-57399118D01*
X137514208Y-57838953D01*
X137185409Y-57838953D01*
X137185792Y-57401047D01*
X137017829Y-56994546D01*
X136707090Y-56683264D01*
X136300882Y-56514592D01*
X135861047Y-56514208D01*
X135454546Y-56682171D01*
X135143264Y-56992910D01*
X134974592Y-57399118D01*
X134974208Y-57838953D01*
X134645409Y-57838953D01*
X134645792Y-57401047D01*
X134477829Y-56994546D01*
X134167090Y-56683264D01*
X133760882Y-56514592D01*
X133321047Y-56514208D01*
X132914546Y-56682171D01*
X132782600Y-56813887D01*
X132782600Y-56356540D01*
X132982557Y-56156932D01*
X133105460Y-55860947D01*
X133105740Y-55540459D01*
X132983353Y-55244260D01*
X132756932Y-55017443D01*
X132754996Y-55016639D01*
X147734139Y-55016639D01*
X149396272Y-56678772D01*
X149000882Y-56514592D01*
X148561047Y-56514208D01*
X148154546Y-56682171D01*
X147843264Y-56992910D01*
X147674592Y-57399118D01*
X147674208Y-57838953D01*
X147842171Y-58245454D01*
X148152910Y-58556736D01*
X148559118Y-58725408D01*
X148998953Y-58725792D01*
X149405454Y-58557829D01*
X149716736Y-58247090D01*
X149885408Y-57840882D01*
X149885792Y-57401047D01*
X149721901Y-57004401D01*
X154418444Y-61700944D01*
X154575011Y-61805558D01*
X154759694Y-61842294D01*
X180640306Y-61842294D01*
X180824989Y-61805558D01*
X180981556Y-61700944D01*
X182657100Y-60025400D01*
X197574400Y-60025400D01*
X197574400Y-60275970D01*
X197649249Y-60601460D01*
X197842960Y-60873531D01*
X198126043Y-61050761D01*
X198271126Y-61091290D01*
X198404600Y-61016849D01*
X198404600Y-60025400D01*
X197574400Y-60025400D01*
X182657100Y-60025400D01*
X182958470Y-59724030D01*
X197574400Y-59724030D01*
X197574400Y-59974600D01*
X198404600Y-59974600D01*
X198404600Y-58983151D01*
X198271126Y-58908710D01*
X198126043Y-58949239D01*
X197842960Y-59126469D01*
X197649249Y-59398540D01*
X197574400Y-59724030D01*
X182958470Y-59724030D01*
X183588791Y-59093709D01*
X183649718Y-59119008D01*
X184089553Y-59119392D01*
X184496054Y-58951429D01*
X184807336Y-58640690D01*
X184976008Y-58234482D01*
X184976009Y-58232553D01*
X192924808Y-58232553D01*
X193092771Y-58639054D01*
X193403510Y-58950336D01*
X193809718Y-59119008D01*
X194249553Y-59119392D01*
X194656054Y-58951429D01*
X194967336Y-58640690D01*
X195032981Y-58482600D01*
X198850100Y-58482600D01*
X199217400Y-58849900D01*
X199217400Y-59040973D01*
X199094999Y-59122758D01*
X199055978Y-59181158D01*
X199017040Y-59126469D01*
X198733957Y-58949239D01*
X198588874Y-58908710D01*
X198455400Y-58983151D01*
X198455400Y-59974600D01*
X198475400Y-59974600D01*
X198475400Y-60025400D01*
X198455400Y-60025400D01*
X198455400Y-61016849D01*
X198588874Y-61091290D01*
X198733957Y-61050761D01*
X199017040Y-60873531D01*
X199055978Y-60818842D01*
X199094999Y-60877242D01*
X199372576Y-61062712D01*
X199700000Y-61127841D01*
X200027424Y-61062712D01*
X200305001Y-60877242D01*
X200335000Y-60832345D01*
X200364999Y-60877242D01*
X200642576Y-61062712D01*
X200970000Y-61127841D01*
X201297424Y-61062712D01*
X201575001Y-60877242D01*
X201760471Y-60599665D01*
X201825600Y-60272241D01*
X201825600Y-59727759D01*
X201760471Y-59400335D01*
X201575001Y-59122758D01*
X201297424Y-58937288D01*
X200970000Y-58872159D01*
X200642576Y-58937288D01*
X200364999Y-59122758D01*
X200335000Y-59167655D01*
X200305001Y-59122758D01*
X200182600Y-59040973D01*
X200182600Y-58650005D01*
X200182601Y-58650000D01*
X200145864Y-58465317D01*
X200041250Y-58308750D01*
X199391250Y-57658750D01*
X199234683Y-57554136D01*
X199050000Y-57517400D01*
X195021836Y-57517400D01*
X194968429Y-57388146D01*
X194657690Y-57076864D01*
X194251482Y-56908192D01*
X193811647Y-56907808D01*
X193405146Y-57075771D01*
X193093864Y-57386510D01*
X192925192Y-57792718D01*
X192924808Y-58232553D01*
X184976009Y-58232553D01*
X184976392Y-57794647D01*
X184808429Y-57388146D01*
X184497690Y-57076864D01*
X184091482Y-56908192D01*
X183651647Y-56907808D01*
X183245146Y-57075771D01*
X182933864Y-57386510D01*
X182765192Y-57792718D01*
X182764808Y-58232553D01*
X182858411Y-58459089D01*
X180440406Y-60877094D01*
X178645406Y-60877094D01*
X183476367Y-56046133D01*
X183619118Y-56105408D01*
X184058953Y-56105792D01*
X184465454Y-55937829D01*
X184776736Y-55627090D01*
X184945408Y-55220882D01*
X184945409Y-55218953D01*
X192894208Y-55218953D01*
X193062171Y-55625454D01*
X193372910Y-55936736D01*
X193779118Y-56105408D01*
X194218953Y-56105792D01*
X194625454Y-55937829D01*
X194936736Y-55627090D01*
X195105408Y-55220882D01*
X195105578Y-55025400D01*
X197604400Y-55025400D01*
X197604400Y-55275970D01*
X197679249Y-55601460D01*
X197872960Y-55873531D01*
X198156043Y-56050761D01*
X198301126Y-56091290D01*
X198434600Y-56016849D01*
X198434600Y-55025400D01*
X197604400Y-55025400D01*
X195105578Y-55025400D01*
X195105792Y-54781047D01*
X195046047Y-54636453D01*
X195699899Y-53982600D01*
X198102757Y-53982600D01*
X197872960Y-54126469D01*
X197679249Y-54398540D01*
X197604400Y-54724030D01*
X197604400Y-54974600D01*
X198434600Y-54974600D01*
X198434600Y-54954600D01*
X198485400Y-54954600D01*
X198485400Y-54974600D01*
X198505400Y-54974600D01*
X198505400Y-55025400D01*
X198485400Y-55025400D01*
X198485400Y-56016849D01*
X198618874Y-56091290D01*
X198763957Y-56050761D01*
X199047040Y-55873531D01*
X199085978Y-55818842D01*
X199124999Y-55877242D01*
X199402576Y-56062712D01*
X199730000Y-56127841D01*
X200057424Y-56062712D01*
X200335001Y-55877242D01*
X200365000Y-55832345D01*
X200394999Y-55877242D01*
X200672576Y-56062712D01*
X201000000Y-56127841D01*
X201327424Y-56062712D01*
X201605001Y-55877242D01*
X201790471Y-55599665D01*
X201855600Y-55272241D01*
X201855600Y-54727759D01*
X201790471Y-54400335D01*
X201605001Y-54122758D01*
X201327424Y-53937288D01*
X201000000Y-53872159D01*
X200672576Y-53937288D01*
X200394999Y-54122758D01*
X200365000Y-54167655D01*
X200335001Y-54122758D01*
X200057424Y-53937288D01*
X199730000Y-53872159D01*
X199609598Y-53896108D01*
X199309890Y-53596400D01*
X205569639Y-53596400D01*
X205569639Y-55323600D01*
X205597977Y-55474203D01*
X205686983Y-55612522D01*
X205822790Y-55705315D01*
X205984000Y-55737961D01*
X208016000Y-55737961D01*
X208166603Y-55709623D01*
X208304922Y-55620617D01*
X208397715Y-55484810D01*
X208430361Y-55323600D01*
X208430361Y-53596400D01*
X208402023Y-53445797D01*
X208313017Y-53307478D01*
X208177210Y-53214685D01*
X208016000Y-53182039D01*
X205984000Y-53182039D01*
X205833397Y-53210377D01*
X205695078Y-53299383D01*
X205602285Y-53435190D01*
X205569639Y-53596400D01*
X199309890Y-53596400D01*
X198872240Y-53158750D01*
X198715673Y-53054136D01*
X198530990Y-53017400D01*
X195500000Y-53017400D01*
X195315317Y-53054136D01*
X195158750Y-53158750D01*
X195158748Y-53158753D01*
X194363633Y-53953867D01*
X194220882Y-53894592D01*
X193781047Y-53894208D01*
X193374546Y-54062171D01*
X193063264Y-54372910D01*
X192894592Y-54779118D01*
X192894208Y-55218953D01*
X184945409Y-55218953D01*
X184945792Y-54781047D01*
X184777829Y-54374546D01*
X184467090Y-54063264D01*
X184060882Y-53894592D01*
X183621047Y-53894208D01*
X183214546Y-54062171D01*
X182903264Y-54372910D01*
X182734592Y-54779118D01*
X182734208Y-55218953D01*
X182793953Y-55363547D01*
X177788416Y-60369084D01*
X155170020Y-60369084D01*
X153019889Y-58218953D01*
X153734208Y-58218953D01*
X153902171Y-58625454D01*
X154212910Y-58936736D01*
X154619118Y-59105408D01*
X155058953Y-59105792D01*
X155465454Y-58937829D01*
X155776736Y-58627090D01*
X155945408Y-58220882D01*
X155945409Y-58218953D01*
X163894208Y-58218953D01*
X164062171Y-58625454D01*
X164372910Y-58936736D01*
X164779118Y-59105408D01*
X165218953Y-59105792D01*
X165625454Y-58937829D01*
X165936736Y-58627090D01*
X165996733Y-58482600D01*
X166500000Y-58482600D01*
X166684683Y-58445864D01*
X166841250Y-58341250D01*
X167619899Y-57562600D01*
X169391361Y-57562600D01*
X169520394Y-57755711D01*
X169830413Y-57962859D01*
X170196105Y-58035600D01*
X170563895Y-58035600D01*
X170929587Y-57962859D01*
X171239606Y-57755711D01*
X171446754Y-57445692D01*
X171519495Y-57080000D01*
X176860505Y-57080000D01*
X176933246Y-57445692D01*
X177140394Y-57755711D01*
X177450413Y-57962859D01*
X177816105Y-58035600D01*
X178183895Y-58035600D01*
X178549587Y-57962859D01*
X178859606Y-57755711D01*
X179066754Y-57445692D01*
X179139495Y-57080000D01*
X179066754Y-56714308D01*
X178859606Y-56404289D01*
X178549587Y-56197141D01*
X178183895Y-56124400D01*
X177816105Y-56124400D01*
X177450413Y-56197141D01*
X177140394Y-56404289D01*
X176933246Y-56714308D01*
X176860505Y-57080000D01*
X171519495Y-57080000D01*
X171446754Y-56714308D01*
X171239606Y-56404289D01*
X170929587Y-56197141D01*
X170563895Y-56124400D01*
X170196105Y-56124400D01*
X169830413Y-56197141D01*
X169520394Y-56404289D01*
X169391361Y-56597400D01*
X167420000Y-56597400D01*
X167235317Y-56634136D01*
X167078750Y-56738750D01*
X167078748Y-56738753D01*
X166300100Y-57517400D01*
X165996855Y-57517400D01*
X165937829Y-57374546D01*
X165627090Y-57063264D01*
X165220882Y-56894592D01*
X164781047Y-56894208D01*
X164374546Y-57062171D01*
X164063264Y-57372910D01*
X163894592Y-57779118D01*
X163894208Y-58218953D01*
X155945409Y-58218953D01*
X155945792Y-57781047D01*
X155777829Y-57374546D01*
X155467090Y-57063264D01*
X155060882Y-56894592D01*
X154621047Y-56894208D01*
X154214546Y-57062171D01*
X153903264Y-57372910D01*
X153734592Y-57779118D01*
X153734208Y-58218953D01*
X153019889Y-58218953D01*
X150019889Y-55218953D01*
X153734208Y-55218953D01*
X153902171Y-55625454D01*
X154212910Y-55936736D01*
X154619118Y-56105408D01*
X155058953Y-56105792D01*
X155465454Y-55937829D01*
X155776736Y-55627090D01*
X155945408Y-55220882D01*
X155945409Y-55218953D01*
X163894208Y-55218953D01*
X164062171Y-55625454D01*
X164372910Y-55936736D01*
X164779118Y-56105408D01*
X165218953Y-56105792D01*
X165625454Y-55937829D01*
X165936736Y-55627090D01*
X165996733Y-55482600D01*
X166413492Y-55482600D01*
X166598175Y-55445864D01*
X166754742Y-55341250D01*
X167073392Y-55022600D01*
X169391361Y-55022600D01*
X169520394Y-55215711D01*
X169830413Y-55422859D01*
X170196105Y-55495600D01*
X170563895Y-55495600D01*
X170929587Y-55422859D01*
X171239606Y-55215711D01*
X171446754Y-54905692D01*
X171519495Y-54540000D01*
X176860505Y-54540000D01*
X176933246Y-54905692D01*
X177140394Y-55215711D01*
X177450413Y-55422859D01*
X177816105Y-55495600D01*
X178183895Y-55495600D01*
X178549587Y-55422859D01*
X178859606Y-55215711D01*
X179066754Y-54905692D01*
X179139495Y-54540000D01*
X179066754Y-54174308D01*
X178859606Y-53864289D01*
X178549587Y-53657141D01*
X178183895Y-53584400D01*
X177816105Y-53584400D01*
X177450413Y-53657141D01*
X177140394Y-53864289D01*
X176933246Y-54174308D01*
X176860505Y-54540000D01*
X171519495Y-54540000D01*
X171446754Y-54174308D01*
X171239606Y-53864289D01*
X170929587Y-53657141D01*
X170563895Y-53584400D01*
X170196105Y-53584400D01*
X169830413Y-53657141D01*
X169520394Y-53864289D01*
X169391361Y-54057400D01*
X167103060Y-54057400D01*
X167098175Y-54054136D01*
X166913492Y-54017399D01*
X166728809Y-54054136D01*
X166572242Y-54158750D01*
X166213592Y-54517400D01*
X165996855Y-54517400D01*
X165937829Y-54374546D01*
X165627090Y-54063264D01*
X165220882Y-53894592D01*
X164781047Y-53894208D01*
X164374546Y-54062171D01*
X164063264Y-54372910D01*
X163894592Y-54779118D01*
X163894208Y-55218953D01*
X155945409Y-55218953D01*
X155945792Y-54781047D01*
X155777829Y-54374546D01*
X155467090Y-54063264D01*
X155060882Y-53894592D01*
X154621047Y-53894208D01*
X154214546Y-54062171D01*
X153903264Y-54372910D01*
X153734592Y-54779118D01*
X153734208Y-55218953D01*
X150019889Y-55218953D01*
X148485715Y-53684779D01*
X148329148Y-53580165D01*
X148144465Y-53543429D01*
X130145928Y-53543428D01*
X119346133Y-42743633D01*
X119405408Y-42600882D01*
X119405409Y-42598953D01*
X119734208Y-42598953D01*
X119902171Y-43005454D01*
X120212910Y-43316736D01*
X120619118Y-43485408D01*
X121058953Y-43485792D01*
X121465454Y-43317829D01*
X121776736Y-43007090D01*
X121945408Y-42600882D01*
X121945792Y-42161047D01*
X121886047Y-42016453D01*
X122170901Y-41731599D01*
X122464612Y-41731599D01*
X122443264Y-41752910D01*
X122274592Y-42159118D01*
X122274208Y-42598953D01*
X122442171Y-43005454D01*
X122752910Y-43316736D01*
X123159118Y-43485408D01*
X123598953Y-43485792D01*
X124005454Y-43317829D01*
X124316736Y-43007090D01*
X124485408Y-42600882D01*
X124485792Y-42161047D01*
X124317829Y-41754546D01*
X124294922Y-41731599D01*
X125004612Y-41731599D01*
X124983264Y-41752910D01*
X124814592Y-42159118D01*
X124814208Y-42598953D01*
X124982171Y-43005454D01*
X125292910Y-43316736D01*
X125699118Y-43485408D01*
X126138953Y-43485792D01*
X126545454Y-43317829D01*
X126856736Y-43007090D01*
X127025408Y-42600882D01*
X127025792Y-42161047D01*
X126857829Y-41754546D01*
X126834922Y-41731599D01*
X127544612Y-41731599D01*
X127523264Y-41752910D01*
X127354592Y-42159118D01*
X127354208Y-42598953D01*
X127522171Y-43005454D01*
X127832910Y-43316736D01*
X128239118Y-43485408D01*
X128678953Y-43485792D01*
X129085454Y-43317829D01*
X129396736Y-43007090D01*
X129565408Y-42600882D01*
X129565792Y-42161047D01*
X129397829Y-41754546D01*
X129374922Y-41731599D01*
X130084612Y-41731599D01*
X130063264Y-41752910D01*
X129894592Y-42159118D01*
X129894208Y-42598953D01*
X130062171Y-43005454D01*
X130372910Y-43316736D01*
X130779118Y-43485408D01*
X131218953Y-43485792D01*
X131363547Y-43426047D01*
X138762877Y-50825377D01*
X138919444Y-50929991D01*
X139104127Y-50966727D01*
X154445538Y-50966727D01*
X154214546Y-51062171D01*
X153903264Y-51372910D01*
X153734592Y-51779118D01*
X153734208Y-52218953D01*
X153902171Y-52625454D01*
X154212910Y-52936736D01*
X154619118Y-53105408D01*
X155058953Y-53105792D01*
X155465454Y-52937829D01*
X155776736Y-52627090D01*
X155945408Y-52220882D01*
X155945792Y-51781047D01*
X155777829Y-51374546D01*
X155467090Y-51063264D01*
X155234603Y-50966727D01*
X158269968Y-50966727D01*
X159179438Y-51876197D01*
X159179191Y-52158731D01*
X159301578Y-52454930D01*
X159527999Y-52681747D01*
X159823984Y-52804650D01*
X160144472Y-52804930D01*
X160440671Y-52682543D01*
X160667488Y-52456122D01*
X160790391Y-52160137D01*
X160790671Y-51839649D01*
X160668284Y-51543450D01*
X160441863Y-51316633D01*
X160145878Y-51193730D01*
X159861723Y-51193482D01*
X158813478Y-50145237D01*
X162042342Y-50145237D01*
X162857862Y-50960756D01*
X162857864Y-50960759D01*
X163014431Y-51065373D01*
X163199114Y-51102109D01*
X164334538Y-51102109D01*
X164063264Y-51372910D01*
X163894592Y-51779118D01*
X163894208Y-52218953D01*
X164062171Y-52625454D01*
X164372910Y-52936736D01*
X164779118Y-53105408D01*
X165218953Y-53105792D01*
X165625454Y-52937829D01*
X165936736Y-52627090D01*
X165996733Y-52482600D01*
X169391361Y-52482600D01*
X169520394Y-52675711D01*
X169830413Y-52882859D01*
X170196105Y-52955600D01*
X170563895Y-52955600D01*
X170929587Y-52882859D01*
X171239606Y-52675711D01*
X171446754Y-52365692D01*
X171519495Y-52000000D01*
X171446754Y-51634308D01*
X171239606Y-51324289D01*
X170929587Y-51117141D01*
X170854016Y-51102109D01*
X177525984Y-51102109D01*
X177450413Y-51117141D01*
X177140394Y-51324289D01*
X176933246Y-51634308D01*
X176860505Y-52000000D01*
X176933246Y-52365692D01*
X177140394Y-52675711D01*
X177450413Y-52882859D01*
X177816105Y-52955600D01*
X178183895Y-52955600D01*
X178549587Y-52882859D01*
X178859606Y-52675711D01*
X179066754Y-52365692D01*
X179139495Y-52000000D01*
X179066754Y-51634308D01*
X178859606Y-51324289D01*
X178549587Y-51117141D01*
X178474016Y-51102109D01*
X182259609Y-51102109D01*
X182793867Y-51636367D01*
X182734592Y-51779118D01*
X182734208Y-52218953D01*
X182902171Y-52625454D01*
X183212910Y-52936736D01*
X183619118Y-53105408D01*
X184058953Y-53105792D01*
X184465454Y-52937829D01*
X184776736Y-52627090D01*
X184945408Y-52220882D01*
X184945409Y-52218953D01*
X192894208Y-52218953D01*
X193062171Y-52625454D01*
X193372910Y-52936736D01*
X193779118Y-53105408D01*
X194218953Y-53105792D01*
X194625454Y-52937829D01*
X194936736Y-52627090D01*
X194996733Y-52482600D01*
X199100000Y-52482600D01*
X199284683Y-52445864D01*
X199441250Y-52341250D01*
X200071247Y-51711252D01*
X200071250Y-51711250D01*
X200175864Y-51554683D01*
X200183280Y-51517400D01*
X200212601Y-51370000D01*
X200212600Y-51369995D01*
X200212600Y-50959027D01*
X200335001Y-50877242D01*
X200365000Y-50832345D01*
X200394999Y-50877242D01*
X200672576Y-51062712D01*
X201000000Y-51127841D01*
X201327424Y-51062712D01*
X201605001Y-50877242D01*
X201790471Y-50599665D01*
X201855600Y-50272241D01*
X201855600Y-49727759D01*
X201790471Y-49400335D01*
X201605001Y-49122758D01*
X201327424Y-48937288D01*
X201000000Y-48872159D01*
X200672576Y-48937288D01*
X200394999Y-49122758D01*
X200365000Y-49167655D01*
X200335001Y-49122758D01*
X200057424Y-48937288D01*
X199730000Y-48872159D01*
X199402576Y-48937288D01*
X199124999Y-49122758D01*
X199085978Y-49181158D01*
X199047040Y-49126469D01*
X198763957Y-48949239D01*
X198618874Y-48908710D01*
X198485400Y-48983151D01*
X198485400Y-49974600D01*
X198505400Y-49974600D01*
X198505400Y-50025400D01*
X198485400Y-50025400D01*
X198485400Y-51016849D01*
X198618874Y-51091290D01*
X198763957Y-51050761D01*
X199047040Y-50873531D01*
X199085978Y-50818842D01*
X199124999Y-50877242D01*
X199247400Y-50959027D01*
X199247400Y-51170101D01*
X198900100Y-51517400D01*
X194996855Y-51517400D01*
X194937829Y-51374546D01*
X194627090Y-51063264D01*
X194220882Y-50894592D01*
X193781047Y-50894208D01*
X193374546Y-51062171D01*
X193063264Y-51372910D01*
X192894592Y-51779118D01*
X192894208Y-52218953D01*
X184945409Y-52218953D01*
X184945792Y-51781047D01*
X184777829Y-51374546D01*
X184467090Y-51063264D01*
X184060882Y-50894592D01*
X183621047Y-50894208D01*
X183476453Y-50953953D01*
X182800759Y-50278259D01*
X182644192Y-50173645D01*
X182459509Y-50136909D01*
X178857813Y-50136909D01*
X178859606Y-50135711D01*
X179066754Y-49825692D01*
X179139495Y-49460000D01*
X179066754Y-49094308D01*
X178859606Y-48784289D01*
X178549587Y-48577141D01*
X178183895Y-48504400D01*
X177816105Y-48504400D01*
X177450413Y-48577141D01*
X177140394Y-48784289D01*
X176933246Y-49094308D01*
X176860505Y-49460000D01*
X176933246Y-49825692D01*
X177140394Y-50135711D01*
X177142187Y-50136909D01*
X171237813Y-50136909D01*
X171239606Y-50135711D01*
X171446754Y-49825692D01*
X171519495Y-49460000D01*
X171446754Y-49094308D01*
X171239606Y-48784289D01*
X170929587Y-48577141D01*
X170563895Y-48504400D01*
X170196105Y-48504400D01*
X169830413Y-48577141D01*
X169520394Y-48784289D01*
X169313246Y-49094308D01*
X169240505Y-49460000D01*
X169313246Y-49825692D01*
X169520394Y-50135711D01*
X169522187Y-50136909D01*
X163399013Y-50136909D01*
X162583492Y-49321387D01*
X162426925Y-49216773D01*
X162242242Y-49180037D01*
X159131066Y-49180037D01*
X159226308Y-48950668D01*
X159226588Y-48630180D01*
X159104201Y-48333981D01*
X158903448Y-48132877D01*
X158903448Y-47411910D01*
X158866712Y-47227227D01*
X158762098Y-47070660D01*
X155863552Y-44172114D01*
X155706985Y-44067500D01*
X155522302Y-44030764D01*
X155150534Y-44030764D01*
X155375454Y-43937829D01*
X155686736Y-43627090D01*
X155855408Y-43220882D01*
X155855792Y-42781047D01*
X155687829Y-42374546D01*
X155377090Y-42063264D01*
X155295394Y-42029341D01*
X155416804Y-42029341D01*
X158659150Y-45271687D01*
X158569311Y-45361369D01*
X158446408Y-45657354D01*
X158446128Y-45977842D01*
X158568515Y-46274041D01*
X158794936Y-46500858D01*
X159090921Y-46623761D01*
X159411409Y-46624041D01*
X159707608Y-46501654D01*
X159934425Y-46275233D01*
X160057328Y-45979248D01*
X160057608Y-45658760D01*
X159935221Y-45362561D01*
X159729388Y-45156368D01*
X159697732Y-44997222D01*
X159593118Y-44840655D01*
X157971416Y-43218953D01*
X163804208Y-43218953D01*
X163972171Y-43625454D01*
X164282910Y-43936736D01*
X164689118Y-44105408D01*
X165128953Y-44105792D01*
X165535454Y-43937829D01*
X165846736Y-43627090D01*
X165906733Y-43482600D01*
X166323492Y-43482600D01*
X166508175Y-43445864D01*
X166664742Y-43341250D01*
X167773392Y-42232600D01*
X176024100Y-42232600D01*
X177353438Y-43561938D01*
X177140394Y-43704289D01*
X176933246Y-44014308D01*
X176860505Y-44380000D01*
X176933246Y-44745692D01*
X177114795Y-45017400D01*
X171265205Y-45017400D01*
X171446754Y-44745692D01*
X171519495Y-44380000D01*
X171446754Y-44014308D01*
X171239606Y-43704289D01*
X170929587Y-43497141D01*
X170563895Y-43424400D01*
X170196105Y-43424400D01*
X169830413Y-43497141D01*
X169520394Y-43704289D01*
X169313246Y-44014308D01*
X169240505Y-44380000D01*
X169313246Y-44745692D01*
X169494795Y-45017400D01*
X166913497Y-45017400D01*
X166913492Y-45017399D01*
X166728809Y-45054136D01*
X166572242Y-45158750D01*
X166213592Y-45517400D01*
X165996855Y-45517400D01*
X165937829Y-45374546D01*
X165627090Y-45063264D01*
X165220882Y-44894592D01*
X164781047Y-44894208D01*
X164374546Y-45062171D01*
X164063264Y-45372910D01*
X163894592Y-45779118D01*
X163894208Y-46218953D01*
X164062171Y-46625454D01*
X164372910Y-46936736D01*
X164779118Y-47105408D01*
X165218953Y-47105792D01*
X165625454Y-46937829D01*
X165936736Y-46627090D01*
X165996733Y-46482600D01*
X166413492Y-46482600D01*
X166598175Y-46445864D01*
X166754742Y-46341250D01*
X167113392Y-45982600D01*
X170104608Y-45982600D01*
X169830413Y-46037141D01*
X169520394Y-46244289D01*
X169391361Y-46437400D01*
X167080000Y-46437400D01*
X166895317Y-46474136D01*
X166738750Y-46578750D01*
X165363633Y-47953867D01*
X165220882Y-47894592D01*
X164781047Y-47894208D01*
X164374546Y-48062171D01*
X164063264Y-48372910D01*
X163894592Y-48779118D01*
X163894208Y-49218953D01*
X164062171Y-49625454D01*
X164372910Y-49936736D01*
X164779118Y-50105408D01*
X165218953Y-50105792D01*
X165625454Y-49937829D01*
X165936736Y-49627090D01*
X166105408Y-49220882D01*
X166105792Y-48781047D01*
X166046047Y-48636453D01*
X167279900Y-47402600D01*
X169391361Y-47402600D01*
X169520394Y-47595711D01*
X169830413Y-47802859D01*
X170196105Y-47875600D01*
X170563895Y-47875600D01*
X170929587Y-47802859D01*
X171239606Y-47595711D01*
X171446754Y-47285692D01*
X171519495Y-46920000D01*
X171446754Y-46554308D01*
X171239606Y-46244289D01*
X170929587Y-46037141D01*
X170655392Y-45982600D01*
X177023140Y-45982600D01*
X177226977Y-46186436D01*
X177140394Y-46244289D01*
X176933246Y-46554308D01*
X176860505Y-46920000D01*
X176933246Y-47285692D01*
X177140394Y-47595711D01*
X177450413Y-47802859D01*
X177816105Y-47875600D01*
X178183895Y-47875600D01*
X178549587Y-47802859D01*
X178859606Y-47595711D01*
X179066754Y-47285692D01*
X179139495Y-46920000D01*
X179066754Y-46554308D01*
X178859606Y-46244289D01*
X178549587Y-46037141D01*
X178387478Y-46004895D01*
X178341250Y-45935710D01*
X178341247Y-45935708D01*
X177722526Y-45316986D01*
X177816105Y-45335600D01*
X178183895Y-45335600D01*
X178549587Y-45262859D01*
X178859606Y-45055711D01*
X179066754Y-44745692D01*
X179139495Y-44380000D01*
X179066754Y-44014308D01*
X178859606Y-43704289D01*
X178549587Y-43497141D01*
X178473863Y-43482079D01*
X178445864Y-43341317D01*
X178341250Y-43184750D01*
X176565250Y-41408750D01*
X176408683Y-41304136D01*
X176224000Y-41267400D01*
X167573492Y-41267400D01*
X167388809Y-41304136D01*
X167232242Y-41408750D01*
X166123592Y-42517400D01*
X165906855Y-42517400D01*
X165847829Y-42374546D01*
X165537090Y-42063264D01*
X165130882Y-41894592D01*
X164691047Y-41894208D01*
X164284546Y-42062171D01*
X163973264Y-42372910D01*
X163804592Y-42779118D01*
X163804208Y-43218953D01*
X157971416Y-43218953D01*
X155957954Y-41205491D01*
X155801387Y-41100877D01*
X155616704Y-41064141D01*
X154075770Y-41064141D01*
X153891087Y-41100877D01*
X153734520Y-41205491D01*
X153734518Y-41205494D01*
X151417258Y-43522753D01*
X140445253Y-43522753D01*
X140054472Y-43131972D01*
X140443949Y-43131972D01*
X140518130Y-43306671D01*
X140921612Y-43481766D01*
X141361385Y-43489127D01*
X141770500Y-43327633D01*
X141801870Y-43306671D01*
X141876051Y-43131972D01*
X141160000Y-42415921D01*
X140443949Y-43131972D01*
X140054472Y-43131972D01*
X139666133Y-42743633D01*
X139725408Y-42600882D01*
X139725425Y-42581385D01*
X140050873Y-42581385D01*
X140212367Y-42990500D01*
X140233329Y-43021870D01*
X140408028Y-43096051D01*
X141124079Y-42380000D01*
X141195921Y-42380000D01*
X141911972Y-43096051D01*
X142086671Y-43021870D01*
X142261766Y-42618388D01*
X142262091Y-42598953D01*
X142594208Y-42598953D01*
X142762171Y-43005454D01*
X143072910Y-43316736D01*
X143479118Y-43485408D01*
X143918953Y-43485792D01*
X144325454Y-43317829D01*
X144636736Y-43007090D01*
X144805408Y-42600882D01*
X144805409Y-42598953D01*
X145134208Y-42598953D01*
X145302171Y-43005454D01*
X145612910Y-43316736D01*
X146019118Y-43485408D01*
X146458953Y-43485792D01*
X146865454Y-43317829D01*
X147176736Y-43007090D01*
X147345408Y-42600882D01*
X147345409Y-42598953D01*
X147674208Y-42598953D01*
X147842171Y-43005454D01*
X148152910Y-43316736D01*
X148559118Y-43485408D01*
X148998953Y-43485792D01*
X149405454Y-43317829D01*
X149716736Y-43007090D01*
X149885408Y-42600882D01*
X149885792Y-42161047D01*
X149717829Y-41754546D01*
X149407090Y-41443264D01*
X149000882Y-41274592D01*
X148561047Y-41274208D01*
X148154546Y-41442171D01*
X147843264Y-41752910D01*
X147674592Y-42159118D01*
X147674208Y-42598953D01*
X147345409Y-42598953D01*
X147345792Y-42161047D01*
X147177829Y-41754546D01*
X146867090Y-41443264D01*
X146460882Y-41274592D01*
X146021047Y-41274208D01*
X145614546Y-41442171D01*
X145303264Y-41752910D01*
X145134592Y-42159118D01*
X145134208Y-42598953D01*
X144805409Y-42598953D01*
X144805792Y-42161047D01*
X144637829Y-41754546D01*
X144327090Y-41443264D01*
X143920882Y-41274592D01*
X143481047Y-41274208D01*
X143074546Y-41442171D01*
X142763264Y-41752910D01*
X142594592Y-42159118D01*
X142594208Y-42598953D01*
X142262091Y-42598953D01*
X142269127Y-42178615D01*
X142107633Y-41769500D01*
X142086671Y-41738130D01*
X141911972Y-41663949D01*
X141195921Y-42380000D01*
X141124079Y-42380000D01*
X140408028Y-41663949D01*
X140233329Y-41738130D01*
X140058234Y-42141612D01*
X140050873Y-42581385D01*
X139725425Y-42581385D01*
X139725792Y-42161047D01*
X139557829Y-41754546D01*
X139431532Y-41628028D01*
X140443949Y-41628028D01*
X141160000Y-42344079D01*
X141876051Y-41628028D01*
X141801870Y-41453329D01*
X141398388Y-41278234D01*
X140958615Y-41270873D01*
X140549500Y-41432367D01*
X140518130Y-41453329D01*
X140443949Y-41628028D01*
X139431532Y-41628028D01*
X139247090Y-41443264D01*
X138840882Y-41274592D01*
X138401047Y-41274208D01*
X137994546Y-41442171D01*
X137683264Y-41752910D01*
X137514592Y-42159118D01*
X137514208Y-42598953D01*
X137682171Y-43005454D01*
X137992910Y-43316736D01*
X138399118Y-43485408D01*
X138838953Y-43485792D01*
X138983547Y-43426047D01*
X139588264Y-44030764D01*
X135873264Y-44030764D01*
X134586133Y-42743633D01*
X134645408Y-42600882D01*
X134645409Y-42598953D01*
X134974208Y-42598953D01*
X135142171Y-43005454D01*
X135452910Y-43316736D01*
X135859118Y-43485408D01*
X136298953Y-43485792D01*
X136705454Y-43317829D01*
X137016736Y-43007090D01*
X137185408Y-42600882D01*
X137185792Y-42161047D01*
X137017829Y-41754546D01*
X136707090Y-41443264D01*
X136300882Y-41274592D01*
X135861047Y-41274208D01*
X135454546Y-41442171D01*
X135143264Y-41752910D01*
X134974592Y-42159118D01*
X134974208Y-42598953D01*
X134645409Y-42598953D01*
X134645792Y-42161047D01*
X134477829Y-41754546D01*
X134167090Y-41443264D01*
X133760882Y-41274592D01*
X133321047Y-41274208D01*
X132914546Y-41442171D01*
X132679713Y-41676594D01*
X132661473Y-41584899D01*
X132573561Y-41453329D01*
X132556859Y-41428332D01*
X132556856Y-41428330D01*
X132036276Y-40907749D01*
X131879709Y-40803135D01*
X131695026Y-40766399D01*
X121971001Y-40766399D01*
X121786318Y-40803135D01*
X121629751Y-40907749D01*
X121203633Y-41333867D01*
X121060882Y-41274592D01*
X120621047Y-41274208D01*
X120214546Y-41442171D01*
X119903264Y-41752910D01*
X119734592Y-42159118D01*
X119734208Y-42598953D01*
X119405409Y-42598953D01*
X119405792Y-42161047D01*
X119237829Y-41754546D01*
X118927090Y-41443264D01*
X118520882Y-41274592D01*
X118081047Y-41274208D01*
X117674546Y-41442171D01*
X117363264Y-41752910D01*
X117194592Y-42159118D01*
X117194208Y-42598953D01*
X117362171Y-43005454D01*
X117672910Y-43316736D01*
X118079118Y-43485408D01*
X118518953Y-43485792D01*
X118663547Y-43426047D01*
X129288939Y-54051439D01*
X128113939Y-54051439D01*
X116806133Y-42743633D01*
X116865408Y-42600882D01*
X116865792Y-42161047D01*
X116697829Y-41754546D01*
X116387090Y-41443264D01*
X115980882Y-41274592D01*
X115541047Y-41274208D01*
X115134546Y-41442171D01*
X114823264Y-41752910D01*
X114654592Y-42159118D01*
X114654208Y-42598953D01*
X114822171Y-43005454D01*
X115132910Y-43316736D01*
X115539118Y-43485408D01*
X115978953Y-43485792D01*
X116123547Y-43426047D01*
X127572789Y-54875289D01*
X127729356Y-54979903D01*
X127914039Y-55016640D01*
X127914044Y-55016639D01*
X131844279Y-55016639D01*
X131844260Y-55016647D01*
X131617443Y-55243068D01*
X131494540Y-55539053D01*
X131494260Y-55859541D01*
X131616647Y-56155740D01*
X131817400Y-56356844D01*
X131817400Y-56873907D01*
X131627090Y-56683264D01*
X131220882Y-56514592D01*
X130781047Y-56514208D01*
X130374546Y-56682171D01*
X130063264Y-56992910D01*
X129894592Y-57399118D01*
X129894208Y-57838953D01*
X130062171Y-58245454D01*
X130372910Y-58556736D01*
X130517400Y-58616733D01*
X130517400Y-60883128D01*
X130554136Y-61067811D01*
X130658750Y-61224378D01*
X134751772Y-65317400D01*
X134499900Y-65317400D01*
X128942600Y-59760100D01*
X128942600Y-58616855D01*
X129085454Y-58557829D01*
X129396736Y-58247090D01*
X129565408Y-57840882D01*
X129565792Y-57401047D01*
X129397829Y-56994546D01*
X129087090Y-56683264D01*
X128680882Y-56514592D01*
X128241047Y-56514208D01*
X127834546Y-56682171D01*
X127523264Y-56992910D01*
X127354592Y-57399118D01*
X127354208Y-57838953D01*
X127522171Y-58245454D01*
X127832910Y-58556736D01*
X127977400Y-58616733D01*
X127977400Y-59960000D01*
X128001128Y-60079288D01*
X126498903Y-58577063D01*
X126545454Y-58557829D01*
X126856736Y-58247090D01*
X127025408Y-57840882D01*
X127025792Y-57401047D01*
X126857829Y-56994546D01*
X126547090Y-56683264D01*
X126140882Y-56514592D01*
X125701047Y-56514208D01*
X125294546Y-56682171D01*
X124983264Y-56992910D01*
X124814592Y-57399118D01*
X124814208Y-57838953D01*
X124982171Y-58245454D01*
X125292910Y-58556736D01*
X125437400Y-58616733D01*
X125437400Y-58680660D01*
X125474136Y-58865343D01*
X125578750Y-59021910D01*
X132890262Y-66333422D01*
X132775922Y-66333422D01*
X124426133Y-57983633D01*
X124485408Y-57840882D01*
X124485792Y-57401047D01*
X124317829Y-56994546D01*
X124007090Y-56683264D01*
X123600882Y-56514592D01*
X123161047Y-56514208D01*
X122754546Y-56682171D01*
X122443264Y-56992910D01*
X122274592Y-57399118D01*
X122274208Y-57838953D01*
X122442171Y-58245454D01*
X122752910Y-58556736D01*
X123159118Y-58725408D01*
X123598953Y-58725792D01*
X123743547Y-58666047D01*
X132026177Y-66948677D01*
X127531177Y-66948677D01*
X122828253Y-62245753D01*
X123532008Y-62245753D01*
X123699971Y-62652254D01*
X124010710Y-62963536D01*
X124416918Y-63132208D01*
X124856753Y-63132592D01*
X125263254Y-62964629D01*
X125574536Y-62653890D01*
X125743208Y-62247682D01*
X125743592Y-61807847D01*
X125575629Y-61401346D01*
X125264890Y-61090064D01*
X124858682Y-60921392D01*
X124418847Y-60921008D01*
X124012346Y-61088971D01*
X123701064Y-61399710D01*
X123532392Y-61805918D01*
X123532008Y-62245753D01*
X122828253Y-62245753D01*
X120082600Y-59500100D01*
X120082600Y-58426198D01*
X120212910Y-58556736D01*
X120619118Y-58725408D01*
X121058953Y-58725792D01*
X121465454Y-58557829D01*
X121776736Y-58247090D01*
X121945408Y-57840882D01*
X121945792Y-57401047D01*
X121777829Y-56994546D01*
X121467090Y-56683264D01*
X121060882Y-56514592D01*
X120621047Y-56514208D01*
X120214546Y-56682171D01*
X120082600Y-56813887D01*
X120082600Y-48760005D01*
X120082601Y-48760000D01*
X120045864Y-48575317D01*
X119991914Y-48494575D01*
X119941250Y-48418750D01*
X119941247Y-48418748D01*
X114266133Y-42743633D01*
X114325408Y-42600882D01*
X114325792Y-42161047D01*
X114157829Y-41754546D01*
X113847090Y-41443264D01*
X113440882Y-41274592D01*
X113001047Y-41274208D01*
X112594546Y-41442171D01*
X112283264Y-41752910D01*
X112114592Y-42159118D01*
X112114208Y-42598953D01*
X110430600Y-42598953D01*
X110430600Y-40430600D01*
X188552621Y-40430600D01*
X186465820Y-42517400D01*
X186465820Y-42517400D01*
G37*
X186465820Y-42517400D02*
X184836855Y-42517400D01*
X184777829Y-42374546D01*
X184467090Y-42063264D01*
X184060882Y-41894592D01*
X183621047Y-41894208D01*
X183214546Y-42062171D01*
X182903264Y-42372910D01*
X182734592Y-42779118D01*
X182734208Y-43218953D01*
X182902171Y-43625454D01*
X183212910Y-43936736D01*
X183619118Y-44105408D01*
X184058953Y-44105792D01*
X184465454Y-43937829D01*
X184776736Y-43627090D01*
X184836733Y-43482600D01*
X186219056Y-43482600D01*
X185183745Y-44517911D01*
X184849489Y-44517911D01*
X184664806Y-44554647D01*
X184508239Y-44659261D01*
X184213633Y-44953867D01*
X184070882Y-44894592D01*
X183631047Y-44894208D01*
X183224546Y-45062171D01*
X182913264Y-45372910D01*
X182744592Y-45779118D01*
X182744208Y-46218953D01*
X182912171Y-46625454D01*
X183222910Y-46936736D01*
X183629118Y-47105408D01*
X184068953Y-47105792D01*
X184475454Y-46937829D01*
X184786736Y-46627090D01*
X184955408Y-46220882D01*
X184955792Y-45781047D01*
X184896047Y-45636453D01*
X185049389Y-45483111D01*
X185383645Y-45483111D01*
X185568328Y-45446375D01*
X185617400Y-45413586D01*
X185617400Y-46550101D01*
X184213633Y-47953867D01*
X184070882Y-47894592D01*
X183631047Y-47894208D01*
X183224546Y-48062171D01*
X182913264Y-48372910D01*
X182744592Y-48779118D01*
X182744208Y-49218953D01*
X182912171Y-49625454D01*
X183222910Y-49936736D01*
X183629118Y-50105408D01*
X184068953Y-50105792D01*
X184475454Y-49937829D01*
X184786736Y-49627090D01*
X184955408Y-49220882D01*
X184955409Y-49218953D01*
X192904208Y-49218953D01*
X193072171Y-49625454D01*
X193382910Y-49936736D01*
X193789118Y-50105408D01*
X194228953Y-50105792D01*
X194423516Y-50025400D01*
X197604400Y-50025400D01*
X197604400Y-50275970D01*
X197679249Y-50601460D01*
X197872960Y-50873531D01*
X198156043Y-51050761D01*
X198301126Y-51091290D01*
X198434600Y-51016849D01*
X198434600Y-50025400D01*
X197604400Y-50025400D01*
X194423516Y-50025400D01*
X194635454Y-49937829D01*
X194849626Y-49724030D01*
X197604400Y-49724030D01*
X197604400Y-49974600D01*
X198434600Y-49974600D01*
X198434600Y-48983151D01*
X198301126Y-48908710D01*
X198156043Y-48949239D01*
X197872960Y-49126469D01*
X197679249Y-49398540D01*
X197604400Y-49724030D01*
X194849626Y-49724030D01*
X194946736Y-49627090D01*
X195115408Y-49220882D01*
X195115792Y-48781047D01*
X194947829Y-48374546D01*
X194637090Y-48063264D01*
X194230882Y-47894592D01*
X193791047Y-47894208D01*
X193384546Y-48062171D01*
X193073264Y-48372910D01*
X192904592Y-48779118D01*
X192904208Y-49218953D01*
X184955409Y-49218953D01*
X184955792Y-48781047D01*
X184896047Y-48636453D01*
X186441247Y-47091252D01*
X186441250Y-47091250D01*
X186545864Y-46934683D01*
X186548785Y-46920000D01*
X186582601Y-46750000D01*
X186582600Y-46749995D01*
X186582600Y-46218953D01*
X192904208Y-46218953D01*
X193072171Y-46625454D01*
X193382910Y-46936736D01*
X193789118Y-47105408D01*
X194228953Y-47105792D01*
X194635454Y-46937829D01*
X194946736Y-46627090D01*
X195115408Y-46220882D01*
X195115792Y-45781047D01*
X194983138Y-45460000D01*
X205601529Y-45460000D01*
X205705936Y-45984889D01*
X206003261Y-46429868D01*
X206289960Y-46621434D01*
X205984000Y-46621434D01*
X205852223Y-46646230D01*
X205731193Y-46724110D01*
X205649999Y-46842942D01*
X205621434Y-46984000D01*
X205621434Y-49016000D01*
X205646230Y-49147777D01*
X205724110Y-49268807D01*
X205842942Y-49350001D01*
X205984000Y-49378566D01*
X208016000Y-49378566D01*
X208147777Y-49353770D01*
X208268807Y-49275890D01*
X208350001Y-49157058D01*
X208378566Y-49016000D01*
X208378566Y-46984000D01*
X208353770Y-46852223D01*
X208275890Y-46731193D01*
X208157058Y-46649999D01*
X208016000Y-46621434D01*
X207710040Y-46621434D01*
X207996739Y-46429868D01*
X208294064Y-45984889D01*
X208398471Y-45460000D01*
X208294064Y-44935111D01*
X207996739Y-44490132D01*
X207551760Y-44192807D01*
X207026871Y-44088400D01*
X206973129Y-44088400D01*
X206448240Y-44192807D01*
X206003261Y-44490132D01*
X205705936Y-44935111D01*
X205601529Y-45460000D01*
X194983138Y-45460000D01*
X194947829Y-45374546D01*
X194637090Y-45063264D01*
X194230882Y-44894592D01*
X193791047Y-44894208D01*
X193384546Y-45062171D01*
X193073264Y-45372910D01*
X192904592Y-45779118D01*
X192904208Y-46218953D01*
X186582600Y-46218953D01*
X186582600Y-45225968D01*
X189725968Y-42082600D01*
X193354081Y-42082600D01*
X193063264Y-42372910D01*
X192894592Y-42779118D01*
X192894208Y-43218953D01*
X193062171Y-43625454D01*
X193372910Y-43936736D01*
X193779118Y-44105408D01*
X194218953Y-44105792D01*
X194625454Y-43937829D01*
X194936736Y-43627090D01*
X195105408Y-43220882D01*
X195105792Y-42781047D01*
X194937829Y-42374546D01*
X194646392Y-42082600D01*
X196700100Y-42082600D01*
X197713600Y-43096099D01*
X197713600Y-43152492D01*
X197626555Y-43210654D01*
X197451923Y-43472009D01*
X197390600Y-43780299D01*
X197390600Y-44219701D01*
X197451923Y-44527991D01*
X197626555Y-44789346D01*
X197887910Y-44963978D01*
X198196200Y-45025301D01*
X198504490Y-44963978D01*
X198765845Y-44789346D01*
X198831200Y-44691535D01*
X198896555Y-44789346D01*
X199157910Y-44963978D01*
X199466200Y-45025301D01*
X199774490Y-44963978D01*
X199935904Y-44856124D01*
X199989183Y-44938922D01*
X200124990Y-45031715D01*
X200286200Y-45064361D01*
X201186200Y-45064361D01*
X201336803Y-45036023D01*
X201475122Y-44947017D01*
X201536997Y-44856459D01*
X201697910Y-44963978D01*
X202006200Y-45025301D01*
X202314490Y-44963978D01*
X202575845Y-44789346D01*
X202750477Y-44527991D01*
X202811800Y-44219701D01*
X202811800Y-43780299D01*
X202750477Y-43472009D01*
X202575845Y-43210654D01*
X202488800Y-43152492D01*
X202488800Y-42595805D01*
X202488801Y-42595800D01*
X202452064Y-42411117D01*
X202407271Y-42344079D01*
X202347450Y-42254550D01*
X202347447Y-42254548D01*
X200523500Y-40430600D01*
X209569400Y-40430600D01*
X209569400Y-79569400D01*
X110430600Y-79569400D01*
X110430600Y-78237113D01*
X115815298Y-78237113D01*
X115887869Y-78495300D01*
X116173486Y-78940594D01*
X116607768Y-79242691D01*
X117124600Y-79355600D01*
X118124600Y-79355600D01*
X118124600Y-78025400D01*
X118175400Y-78025400D01*
X118175400Y-79355600D01*
X119175400Y-79355600D01*
X119692232Y-79242691D01*
X120126514Y-78940594D01*
X120412131Y-78495300D01*
X120484702Y-78237113D01*
X120416445Y-78025400D01*
X118175400Y-78025400D01*
X118124600Y-78025400D01*
X115883555Y-78025400D01*
X115815298Y-78237113D01*
X110430600Y-78237113D01*
X110430600Y-77762887D01*
X115815298Y-77762887D01*
X115883555Y-77974600D01*
X118124600Y-77974600D01*
X118124600Y-76644400D01*
X118175400Y-76644400D01*
X118175400Y-77974600D01*
X120416445Y-77974600D01*
X120484702Y-77762887D01*
X120412131Y-77504700D01*
X120126514Y-77059406D01*
X119692232Y-76757309D01*
X119337679Y-76679852D01*
X124856069Y-76679852D01*
X124918077Y-76844160D01*
X125285419Y-77002595D01*
X125685430Y-77008393D01*
X126057209Y-76860673D01*
X126081923Y-76844160D01*
X126143931Y-76679852D01*
X125500000Y-76035921D01*
X124856069Y-76679852D01*
X119337679Y-76679852D01*
X119175400Y-76644400D01*
X118175400Y-76644400D01*
X118124600Y-76644400D01*
X117124600Y-76644400D01*
X116607768Y-76757309D01*
X116173486Y-77059406D01*
X115887869Y-77504700D01*
X115815298Y-77762887D01*
X110430600Y-77762887D01*
X110430600Y-76185430D01*
X124491607Y-76185430D01*
X124639327Y-76557209D01*
X124655840Y-76581923D01*
X124820148Y-76643931D01*
X125464079Y-76000000D01*
X125535921Y-76000000D01*
X126179852Y-76643931D01*
X126344160Y-76581923D01*
X126435639Y-76369823D01*
X126435639Y-76650000D01*
X126463977Y-76800603D01*
X126552983Y-76938922D01*
X126688790Y-77031715D01*
X126850000Y-77064361D01*
X128150000Y-77064361D01*
X128300603Y-77036023D01*
X128438922Y-76947017D01*
X128531715Y-76811210D01*
X128536537Y-76787400D01*
X132663970Y-76787400D01*
X132663970Y-76942678D01*
X132759580Y-77423340D01*
X133031853Y-77830825D01*
X133439338Y-78103098D01*
X133920000Y-78198708D01*
X134400662Y-78103098D01*
X134808147Y-77830825D01*
X135080420Y-77423340D01*
X135176030Y-76942678D01*
X135176030Y-76025400D01*
X135254770Y-76025400D01*
X135254770Y-76925830D01*
X135356233Y-77385118D01*
X135625734Y-77770617D01*
X136022245Y-78023638D01*
X136246415Y-78086583D01*
X136434600Y-78016471D01*
X136434600Y-76025400D01*
X136485400Y-76025400D01*
X136485400Y-78016471D01*
X136673585Y-78086583D01*
X136897755Y-78023638D01*
X137294266Y-77770617D01*
X137563767Y-77385118D01*
X137665230Y-76925830D01*
X137665230Y-76025400D01*
X136485400Y-76025400D01*
X136434600Y-76025400D01*
X135254770Y-76025400D01*
X135176030Y-76025400D01*
X135176030Y-75074170D01*
X135254770Y-75074170D01*
X135254770Y-75974600D01*
X136434600Y-75974600D01*
X136434600Y-73983529D01*
X136485400Y-73983529D01*
X136485400Y-75974600D01*
X137665230Y-75974600D01*
X137665230Y-75074170D01*
X137563767Y-74614882D01*
X137294266Y-74229383D01*
X136897755Y-73976362D01*
X136673585Y-73913417D01*
X136485400Y-73983529D01*
X136434600Y-73983529D01*
X136246415Y-73913417D01*
X136022245Y-73976362D01*
X135625734Y-74229383D01*
X135356233Y-74614882D01*
X135254770Y-75074170D01*
X135176030Y-75074170D01*
X135176030Y-75057322D01*
X135080420Y-74576660D01*
X134808147Y-74169175D01*
X134400662Y-73896902D01*
X133920000Y-73801292D01*
X133439338Y-73896902D01*
X133031853Y-74169175D01*
X132759580Y-74576660D01*
X132663970Y-75057322D01*
X132663970Y-75212600D01*
X128538507Y-75212600D01*
X128536023Y-75199397D01*
X128447017Y-75061078D01*
X128311210Y-74968285D01*
X128150000Y-74935639D01*
X126850000Y-74935639D01*
X126699397Y-74963977D01*
X126561078Y-75052983D01*
X126468285Y-75188790D01*
X126435639Y-75350000D01*
X126435639Y-75631464D01*
X126360673Y-75442791D01*
X126344160Y-75418077D01*
X126179852Y-75356069D01*
X125535921Y-76000000D01*
X125464079Y-76000000D01*
X124820148Y-75356069D01*
X124655840Y-75418077D01*
X124497405Y-75785419D01*
X124491607Y-76185430D01*
X110430600Y-76185430D01*
X110430600Y-73025400D01*
X113494400Y-73025400D01*
X113494400Y-74025400D01*
X113607309Y-74542232D01*
X113909406Y-74976514D01*
X114354700Y-75262131D01*
X114612887Y-75334702D01*
X114824600Y-75266445D01*
X114824600Y-73025400D01*
X114875400Y-73025400D01*
X114875400Y-75266445D01*
X115087113Y-75334702D01*
X115345300Y-75262131D01*
X115790594Y-74976514D01*
X116092691Y-74542232D01*
X116205600Y-74025400D01*
X116205600Y-73025400D01*
X114875400Y-73025400D01*
X114824600Y-73025400D01*
X113494400Y-73025400D01*
X110430600Y-73025400D01*
X110430600Y-71974600D01*
X113494400Y-71974600D01*
X113494400Y-72974600D01*
X114824600Y-72974600D01*
X114824600Y-70733555D01*
X114875400Y-70733555D01*
X114875400Y-72974600D01*
X116205600Y-72974600D01*
X116205600Y-71974600D01*
X116092691Y-71457768D01*
X115790594Y-71023486D01*
X115345300Y-70737869D01*
X115087113Y-70665298D01*
X114875400Y-70733555D01*
X114824600Y-70733555D01*
X114612887Y-70665298D01*
X114354700Y-70737869D01*
X113909406Y-71023486D01*
X113607309Y-71457768D01*
X113494400Y-71974600D01*
X110430600Y-71974600D01*
X110430600Y-65248744D01*
X110743753Y-65248744D01*
X110934569Y-65710554D01*
X111287587Y-66064189D01*
X111749064Y-66255811D01*
X112142602Y-66256154D01*
X119443224Y-73556776D01*
X119593600Y-73657254D01*
X119593600Y-74047144D01*
X119700656Y-74585350D01*
X120005525Y-75041619D01*
X120461794Y-75346488D01*
X121000000Y-75453544D01*
X121538206Y-75346488D01*
X121577626Y-75320148D01*
X124856069Y-75320148D01*
X125500000Y-75964079D01*
X126143931Y-75320148D01*
X126081923Y-75155840D01*
X125714581Y-74997405D01*
X125314570Y-74991607D01*
X124942791Y-75139327D01*
X124918077Y-75155840D01*
X124856069Y-75320148D01*
X121577626Y-75320148D01*
X121994475Y-75041619D01*
X122299344Y-74585350D01*
X122406400Y-74047144D01*
X122406400Y-71952856D01*
X122299344Y-71414650D01*
X121994475Y-70958381D01*
X121538206Y-70653512D01*
X121000000Y-70546456D01*
X120461794Y-70653512D01*
X120005525Y-70958381D01*
X119700656Y-71414650D01*
X119672044Y-71558492D01*
X113255906Y-65142354D01*
X113256247Y-64751256D01*
X113065431Y-64289446D01*
X112712413Y-63935811D01*
X112250936Y-63744189D01*
X111751256Y-63743753D01*
X111289446Y-63934569D01*
X110935811Y-64287587D01*
X110744189Y-64749064D01*
X110743753Y-65248744D01*
X110430600Y-65248744D01*
X110430600Y-42598953D01*
X112114208Y-42598953D01*
X112282171Y-43005454D01*
X112592910Y-43316736D01*
X112999118Y-43485408D01*
X113438953Y-43485792D01*
X113583547Y-43426047D01*
X119117400Y-48959899D01*
X119117400Y-56873907D01*
X118927090Y-56683264D01*
X118520882Y-56514592D01*
X118081047Y-56514208D01*
X117674546Y-56682171D01*
X117363264Y-56992910D01*
X117194592Y-57399118D01*
X117194208Y-57838953D01*
X117362171Y-58245454D01*
X117672910Y-58556736D01*
X118079118Y-58725408D01*
X118518953Y-58725792D01*
X118925454Y-58557829D01*
X119117400Y-58366218D01*
X119117400Y-59700000D01*
X119154136Y-59884683D01*
X119258750Y-60041250D01*
X122953509Y-63736009D01*
X121310370Y-63736009D01*
X121159767Y-63764347D01*
X121021448Y-63853353D01*
X120928655Y-63989160D01*
X120896009Y-64150370D01*
X120896009Y-65849630D01*
X120924347Y-66000233D01*
X121013353Y-66138552D01*
X121149160Y-66231345D01*
X121310370Y-66263991D01*
X121372600Y-66263991D01*
X121372600Y-67219800D01*
X121432537Y-67521125D01*
X121603224Y-67776576D01*
X125097024Y-71270376D01*
X125352475Y-71441063D01*
X125653800Y-71501000D01*
X132283200Y-71501000D01*
X132584525Y-71441063D01*
X132839976Y-71270376D01*
X134322952Y-69787400D01*
X134461493Y-69787400D01*
X134463977Y-69800603D01*
X134552983Y-69938922D01*
X134688790Y-70031715D01*
X134712600Y-70036537D01*
X134712600Y-70412000D01*
X134772537Y-70713325D01*
X134943224Y-70968776D01*
X135674698Y-71700250D01*
X135660947Y-71694540D01*
X135340459Y-71694260D01*
X135044260Y-71816647D01*
X134843156Y-72017400D01*
X124899900Y-72017400D01*
X113702600Y-60820100D01*
X113702600Y-58616855D01*
X113845454Y-58557829D01*
X114156736Y-58247090D01*
X114325408Y-57840882D01*
X114325409Y-57838953D01*
X114654208Y-57838953D01*
X114822171Y-58245454D01*
X115132910Y-58556736D01*
X115539118Y-58725408D01*
X115978953Y-58725792D01*
X116385454Y-58557829D01*
X116696736Y-58247090D01*
X116865408Y-57840882D01*
X116865792Y-57401047D01*
X116697829Y-56994546D01*
X116387090Y-56683264D01*
X115980882Y-56514592D01*
X115541047Y-56514208D01*
X115134546Y-56682171D01*
X114823264Y-56992910D01*
X114654592Y-57399118D01*
X114654208Y-57838953D01*
X114325409Y-57838953D01*
X114325792Y-57401047D01*
X114157829Y-56994546D01*
X113847090Y-56683264D01*
X113440882Y-56514592D01*
X113001047Y-56514208D01*
X112594546Y-56682171D01*
X112283264Y-56992910D01*
X112114592Y-57399118D01*
X112114208Y-57838953D01*
X112282171Y-58245454D01*
X112592910Y-58556736D01*
X112737400Y-58616733D01*
X112737400Y-61020000D01*
X112774136Y-61204683D01*
X112878750Y-61361250D01*
X124358750Y-72841250D01*
X124515317Y-72945864D01*
X124700000Y-72982601D01*
X124700005Y-72982600D01*
X134843460Y-72982600D01*
X135043068Y-73182557D01*
X135339053Y-73305460D01*
X135659541Y-73305740D01*
X135955740Y-73183353D01*
X136182557Y-72956932D01*
X136305460Y-72660947D01*
X136305740Y-72340459D01*
X136299285Y-72324837D01*
X138130898Y-74156450D01*
X138111853Y-74169175D01*
X137839580Y-74576660D01*
X137743970Y-75057322D01*
X137743970Y-76942678D01*
X137839580Y-77423340D01*
X138111853Y-77830825D01*
X138519338Y-78103098D01*
X139000000Y-78198708D01*
X139480662Y-78103098D01*
X139888147Y-77830825D01*
X140160420Y-77423340D01*
X140256030Y-76942678D01*
X140256030Y-75057322D01*
X140160420Y-74576660D01*
X139888147Y-74169175D01*
X139787400Y-74101858D01*
X139787400Y-73912000D01*
X139727463Y-73610675D01*
X139556776Y-73355224D01*
X136287400Y-70085848D01*
X136287400Y-70038507D01*
X136300603Y-70036023D01*
X136438922Y-69947017D01*
X136531715Y-69811210D01*
X136558315Y-69679852D01*
X136856069Y-69679852D01*
X136918077Y-69844160D01*
X137285419Y-70002595D01*
X137685430Y-70008393D01*
X138057209Y-69860673D01*
X138081923Y-69844160D01*
X138143931Y-69679852D01*
X137500000Y-69035921D01*
X136856069Y-69679852D01*
X136558315Y-69679852D01*
X136564361Y-69650000D01*
X136564361Y-69368536D01*
X136639327Y-69557209D01*
X136655840Y-69581923D01*
X136820148Y-69643931D01*
X137464079Y-69000000D01*
X137535921Y-69000000D01*
X138179852Y-69643931D01*
X138344160Y-69581923D01*
X138502595Y-69214581D01*
X138508393Y-68814570D01*
X138360673Y-68442791D01*
X138344160Y-68418077D01*
X138179852Y-68356069D01*
X137535921Y-69000000D01*
X137464079Y-69000000D01*
X136820148Y-68356069D01*
X136655840Y-68418077D01*
X136564361Y-68630177D01*
X136564361Y-68350000D01*
X136558744Y-68320148D01*
X136856069Y-68320148D01*
X137500000Y-68964079D01*
X138143931Y-68320148D01*
X138081923Y-68155840D01*
X137714581Y-67997405D01*
X137314570Y-67991607D01*
X136942791Y-68139327D01*
X136918077Y-68155840D01*
X136856069Y-68320148D01*
X136558744Y-68320148D01*
X136536023Y-68199397D01*
X136447017Y-68061078D01*
X136311210Y-67968285D01*
X136150000Y-67935639D01*
X134850000Y-67935639D01*
X134699397Y-67963977D01*
X134561078Y-68052983D01*
X134468285Y-68188790D01*
X134463463Y-68212600D01*
X133996800Y-68212600D01*
X133695475Y-68272537D01*
X133440024Y-68443224D01*
X131957048Y-69926200D01*
X130793829Y-69926200D01*
X130969335Y-69853682D01*
X131252687Y-69570824D01*
X131406225Y-69201064D01*
X131406575Y-68800693D01*
X131253682Y-68430665D01*
X130970824Y-68147313D01*
X130601064Y-67993775D01*
X130200693Y-67993425D01*
X129830665Y-68146318D01*
X129547313Y-68429176D01*
X129393775Y-68798936D01*
X129393425Y-69199307D01*
X129546318Y-69569335D01*
X129829176Y-69852687D01*
X130006215Y-69926200D01*
X127260800Y-69926200D01*
X127540597Y-69810590D01*
X127809646Y-69542011D01*
X127955433Y-69190914D01*
X127955765Y-68810753D01*
X127810590Y-68459403D01*
X127542011Y-68190354D01*
X127190914Y-68044567D01*
X126810753Y-68044235D01*
X126459403Y-68189410D01*
X126190354Y-68457989D01*
X126044567Y-68809086D01*
X126044235Y-69189247D01*
X126189410Y-69540597D01*
X126457989Y-69809646D01*
X126738685Y-69926200D01*
X125979952Y-69926200D01*
X122947400Y-66893648D01*
X122947400Y-66263991D01*
X123009630Y-66263991D01*
X123160233Y-66235653D01*
X123298552Y-66146647D01*
X123391345Y-66010840D01*
X123423991Y-65849630D01*
X123423991Y-64206491D01*
X126990027Y-67772527D01*
X127146594Y-67877141D01*
X127331277Y-67913878D01*
X127331282Y-67913877D01*
X137876069Y-67913877D01*
X144820948Y-74858756D01*
X144977515Y-74963370D01*
X145162198Y-75000106D01*
X147824118Y-75000106D01*
X148023726Y-75200063D01*
X148319711Y-75322966D01*
X148640199Y-75323246D01*
X148936398Y-75200859D01*
X149163215Y-74974438D01*
X149263483Y-74732964D01*
X153487789Y-78957269D01*
X153487791Y-78957272D01*
X153644358Y-79061886D01*
X153829041Y-79098622D01*
X195583978Y-79098622D01*
X195768661Y-79061886D01*
X195925228Y-78957272D01*
X200341250Y-74541250D01*
X200445864Y-74384683D01*
X200482600Y-74200000D01*
X200482600Y-73367482D01*
X203144079Y-73367482D01*
X203425982Y-74049740D01*
X203947515Y-74572184D01*
X204629279Y-74855277D01*
X205367482Y-74855921D01*
X206049740Y-74574018D01*
X206572184Y-74052485D01*
X206855277Y-73370721D01*
X206855921Y-72632518D01*
X206574018Y-71950260D01*
X206052485Y-71427816D01*
X205370721Y-71144723D01*
X204632518Y-71144079D01*
X203950260Y-71425982D01*
X203427816Y-71947515D01*
X203144723Y-72629279D01*
X203144079Y-73367482D01*
X200482600Y-73367482D01*
X200482600Y-67258239D01*
X200781777Y-67058335D01*
X201021441Y-66699653D01*
X201105600Y-66276558D01*
X201105600Y-65723442D01*
X201021441Y-65300347D01*
X200854692Y-65050790D01*
X201584720Y-65050790D01*
X201431626Y-65279912D01*
X201343600Y-65722447D01*
X201343600Y-66277553D01*
X201431626Y-66720088D01*
X201682302Y-67095251D01*
X202057465Y-67345927D01*
X202500000Y-67433953D01*
X202942535Y-67345927D01*
X203317698Y-67095251D01*
X203568374Y-66720088D01*
X203656400Y-66277553D01*
X203656400Y-65722447D01*
X203568374Y-65279912D01*
X203415280Y-65050790D01*
X207131810Y-65050790D01*
X207316493Y-65014054D01*
X207473060Y-64909440D01*
X209241250Y-63141250D01*
X209345864Y-62984683D01*
X209382600Y-62800000D01*
X209382600Y-58747605D01*
X209382601Y-58747600D01*
X209345864Y-58562917D01*
X209267652Y-58445864D01*
X209241250Y-58406350D01*
X209241247Y-58406348D01*
X208303984Y-57469084D01*
X208305665Y-57466568D01*
X208398471Y-57000000D01*
X208305665Y-56533432D01*
X208041376Y-56137895D01*
X207645839Y-55873606D01*
X207179271Y-55780800D01*
X206820729Y-55780800D01*
X206354161Y-55873606D01*
X205958624Y-56137895D01*
X205694335Y-56533432D01*
X205601529Y-57000000D01*
X205694335Y-57466568D01*
X205958624Y-57862105D01*
X206354161Y-58126394D01*
X206820729Y-58219200D01*
X207179271Y-58219200D01*
X207604514Y-58134614D01*
X208417400Y-58947499D01*
X208417400Y-62600100D01*
X206931910Y-64085590D01*
X197296909Y-64085590D01*
X198129899Y-63252600D01*
X203617600Y-63252600D01*
X203802283Y-63215864D01*
X203958850Y-63111250D01*
X204774329Y-62295771D01*
X205647646Y-62295771D01*
X205711486Y-62523101D01*
X205967535Y-62924144D01*
X206357566Y-63196674D01*
X206822200Y-63299200D01*
X206974600Y-63299200D01*
X206974600Y-62105400D01*
X207025400Y-62105400D01*
X207025400Y-63299200D01*
X207177800Y-63299200D01*
X207642434Y-63196674D01*
X208032465Y-62924144D01*
X208288514Y-62523101D01*
X208352354Y-62295771D01*
X208282415Y-62105400D01*
X207025400Y-62105400D01*
X206974600Y-62105400D01*
X205717585Y-62105400D01*
X205647646Y-62295771D01*
X204774329Y-62295771D01*
X205205871Y-61864229D01*
X205647646Y-61864229D01*
X205717585Y-62054600D01*
X206974600Y-62054600D01*
X206974600Y-60860800D01*
X207025400Y-60860800D01*
X207025400Y-62054600D01*
X208282415Y-62054600D01*
X208352354Y-61864229D01*
X208288514Y-61636899D01*
X208032465Y-61235856D01*
X207642434Y-60963326D01*
X207177800Y-60860800D01*
X207025400Y-60860800D01*
X206974600Y-60860800D01*
X206822200Y-60860800D01*
X206357566Y-60963326D01*
X205967535Y-61235856D01*
X205711486Y-61636899D01*
X205647646Y-61864229D01*
X205205871Y-61864229D01*
X206395486Y-60674614D01*
X206820729Y-60759200D01*
X207179271Y-60759200D01*
X207645839Y-60666394D01*
X208041376Y-60402105D01*
X208305665Y-60006568D01*
X208398471Y-59540000D01*
X208305665Y-59073432D01*
X208041376Y-58677895D01*
X207645839Y-58413606D01*
X207179271Y-58320800D01*
X206820729Y-58320800D01*
X206354161Y-58413606D01*
X205958624Y-58677895D01*
X205694335Y-59073432D01*
X205601529Y-59540000D01*
X205694335Y-60006568D01*
X205696016Y-60009084D01*
X203417700Y-62287400D01*
X197930000Y-62287400D01*
X197745317Y-62324136D01*
X197588750Y-62428750D01*
X197588748Y-62428753D01*
X193215959Y-66801541D01*
X144339703Y-66801541D01*
X140544512Y-63006350D01*
X140685430Y-63008393D01*
X141057209Y-62860673D01*
X141081923Y-62844160D01*
X141143931Y-62679852D01*
X140500000Y-62035921D01*
X140485858Y-62050064D01*
X140449937Y-62014143D01*
X140464079Y-62000000D01*
X140535921Y-62000000D01*
X141179852Y-62643931D01*
X141344160Y-62581923D01*
X141502595Y-62214581D01*
X141508393Y-61814570D01*
X141360673Y-61442791D01*
X141344160Y-61418077D01*
X141179852Y-61356069D01*
X140535921Y-62000000D01*
X140464079Y-62000000D01*
X139820148Y-61356069D01*
X139655840Y-61418077D01*
X139497405Y-61785419D01*
X139494921Y-61956759D01*
X138858310Y-61320148D01*
X139856069Y-61320148D01*
X140500000Y-61964079D01*
X141143931Y-61320148D01*
X141081923Y-61155840D01*
X140714581Y-60997405D01*
X140314570Y-60991607D01*
X139942791Y-61139327D01*
X139918077Y-61155840D01*
X139856069Y-61320148D01*
X138858310Y-61320148D01*
X137097270Y-59559108D01*
X136940703Y-59454494D01*
X136756020Y-59417758D01*
X135023820Y-59417758D01*
X134164348Y-58558286D01*
X134165454Y-58557829D01*
X134476736Y-58247090D01*
X134645408Y-57840882D01*
X134645409Y-57838953D01*
X134974208Y-57838953D01*
X135142171Y-58245454D01*
X135452910Y-58556736D01*
X135859118Y-58725408D01*
X136298953Y-58725792D01*
X136705454Y-58557829D01*
X137016736Y-58247090D01*
X137185408Y-57840882D01*
X137185409Y-57838953D01*
X137514208Y-57838953D01*
X137682171Y-58245454D01*
X137992910Y-58556736D01*
X138399118Y-58725408D01*
X138838953Y-58725792D01*
X138983547Y-58666047D01*
X140395622Y-60078122D01*
X140552189Y-60182736D01*
X140736872Y-60219472D01*
X143012927Y-60219472D01*
X143749178Y-60955723D01*
X143650000Y-60935639D01*
X142350000Y-60935639D01*
X142199397Y-60963977D01*
X142061078Y-61052983D01*
X141968285Y-61188790D01*
X141935639Y-61350000D01*
X141935639Y-62650000D01*
X141963977Y-62800603D01*
X142052983Y-62938922D01*
X142188790Y-63031715D01*
X142350000Y-63064361D01*
X142488552Y-63064361D01*
X142507203Y-63158123D01*
X142622829Y-63331171D01*
X144868829Y-65577171D01*
X145041877Y-65692797D01*
X145246000Y-65733401D01*
X145246005Y-65733400D01*
X151222393Y-65733400D01*
X151414255Y-65925597D01*
X151728904Y-66056251D01*
X152069601Y-66056548D01*
X152384478Y-65926444D01*
X152625597Y-65685745D01*
X152756251Y-65371096D01*
X152756548Y-65030399D01*
X152626444Y-64715522D01*
X152385745Y-64474403D01*
X152071096Y-64343749D01*
X151730399Y-64343452D01*
X151415522Y-64473556D01*
X151222141Y-64666600D01*
X145466942Y-64666600D01*
X143822363Y-63022021D01*
X143938922Y-62947017D01*
X144031715Y-62811210D01*
X144064361Y-62650000D01*
X144064361Y-61350000D01*
X144046029Y-61252574D01*
X146462068Y-63668613D01*
X146461821Y-63951147D01*
X146584208Y-64247346D01*
X146810629Y-64474163D01*
X147106614Y-64597066D01*
X147427102Y-64597346D01*
X147723301Y-64474959D01*
X147950118Y-64248538D01*
X148073021Y-63952553D01*
X148073217Y-63727759D01*
X160604400Y-63727759D01*
X160604400Y-64272241D01*
X160669529Y-64599665D01*
X160854999Y-64877242D01*
X161132576Y-65062712D01*
X161460000Y-65127841D01*
X161787424Y-65062712D01*
X162065001Y-64877242D01*
X162095000Y-64832345D01*
X162124999Y-64877242D01*
X162402576Y-65062712D01*
X162730000Y-65127841D01*
X163057424Y-65062712D01*
X163335001Y-64877242D01*
X163374022Y-64818842D01*
X163412960Y-64873531D01*
X163696043Y-65050761D01*
X163841126Y-65091290D01*
X163974600Y-65016849D01*
X163974600Y-64025400D01*
X164025400Y-64025400D01*
X164025400Y-65016849D01*
X164158874Y-65091290D01*
X164303957Y-65050761D01*
X164587040Y-64873531D01*
X164780751Y-64601460D01*
X164855600Y-64275970D01*
X164855600Y-64025400D01*
X164025400Y-64025400D01*
X163974600Y-64025400D01*
X163954600Y-64025400D01*
X163954600Y-63974600D01*
X163974600Y-63974600D01*
X163974600Y-62983151D01*
X164025400Y-62983151D01*
X164025400Y-63974600D01*
X164855600Y-63974600D01*
X164855600Y-63727759D01*
X167874400Y-63727759D01*
X167874400Y-64272241D01*
X167939529Y-64599665D01*
X168124999Y-64877242D01*
X168402576Y-65062712D01*
X168730000Y-65127841D01*
X169057424Y-65062712D01*
X169335001Y-64877242D01*
X169365000Y-64832345D01*
X169394999Y-64877242D01*
X169672576Y-65062712D01*
X170000000Y-65127841D01*
X170327424Y-65062712D01*
X170605001Y-64877242D01*
X170644022Y-64818842D01*
X170682960Y-64873531D01*
X170966043Y-65050761D01*
X171111126Y-65091290D01*
X171244600Y-65016849D01*
X171244600Y-64025400D01*
X171295400Y-64025400D01*
X171295400Y-65016849D01*
X171428874Y-65091290D01*
X171573957Y-65050761D01*
X171857040Y-64873531D01*
X172050751Y-64601460D01*
X172125600Y-64275970D01*
X172125600Y-64025400D01*
X171295400Y-64025400D01*
X171244600Y-64025400D01*
X171224600Y-64025400D01*
X171224600Y-63974600D01*
X171244600Y-63974600D01*
X171244600Y-62983151D01*
X171295400Y-62983151D01*
X171295400Y-63974600D01*
X172125600Y-63974600D01*
X172125600Y-63727759D01*
X174874400Y-63727759D01*
X174874400Y-64272241D01*
X174939529Y-64599665D01*
X175124999Y-64877242D01*
X175402576Y-65062712D01*
X175730000Y-65127841D01*
X176057424Y-65062712D01*
X176335001Y-64877242D01*
X176365000Y-64832345D01*
X176394999Y-64877242D01*
X176672576Y-65062712D01*
X177000000Y-65127841D01*
X177327424Y-65062712D01*
X177605001Y-64877242D01*
X177644022Y-64818842D01*
X177682960Y-64873531D01*
X177966043Y-65050761D01*
X178111126Y-65091290D01*
X178244600Y-65016849D01*
X178244600Y-64025400D01*
X178295400Y-64025400D01*
X178295400Y-65016849D01*
X178428874Y-65091290D01*
X178573957Y-65050761D01*
X178857040Y-64873531D01*
X179050751Y-64601460D01*
X179125600Y-64275970D01*
X179125600Y-64025400D01*
X178295400Y-64025400D01*
X178244600Y-64025400D01*
X178224600Y-64025400D01*
X178224600Y-63974600D01*
X178244600Y-63974600D01*
X178244600Y-62983151D01*
X178295400Y-62983151D01*
X178295400Y-63974600D01*
X179125600Y-63974600D01*
X179125600Y-63727759D01*
X181874400Y-63727759D01*
X181874400Y-64272241D01*
X181939529Y-64599665D01*
X182124999Y-64877242D01*
X182402576Y-65062712D01*
X182730000Y-65127841D01*
X183057424Y-65062712D01*
X183335001Y-64877242D01*
X183365000Y-64832345D01*
X183394999Y-64877242D01*
X183672576Y-65062712D01*
X184000000Y-65127841D01*
X184327424Y-65062712D01*
X184605001Y-64877242D01*
X184644022Y-64818842D01*
X184682960Y-64873531D01*
X184966043Y-65050761D01*
X185111126Y-65091290D01*
X185244600Y-65016849D01*
X185244600Y-64025400D01*
X185295400Y-64025400D01*
X185295400Y-65016849D01*
X185428874Y-65091290D01*
X185573957Y-65050761D01*
X185857040Y-64873531D01*
X186050751Y-64601460D01*
X186125600Y-64275970D01*
X186125600Y-64025400D01*
X185295400Y-64025400D01*
X185244600Y-64025400D01*
X185224600Y-64025400D01*
X185224600Y-63974600D01*
X185244600Y-63974600D01*
X185244600Y-62983151D01*
X185295400Y-62983151D01*
X185295400Y-63974600D01*
X186125600Y-63974600D01*
X186125600Y-63727759D01*
X189604400Y-63727759D01*
X189604400Y-64272241D01*
X189669529Y-64599665D01*
X189854999Y-64877242D01*
X190132576Y-65062712D01*
X190460000Y-65127841D01*
X190787424Y-65062712D01*
X191065001Y-64877242D01*
X191095000Y-64832345D01*
X191124999Y-64877242D01*
X191402576Y-65062712D01*
X191730000Y-65127841D01*
X192057424Y-65062712D01*
X192335001Y-64877242D01*
X192374022Y-64818842D01*
X192412960Y-64873531D01*
X192696043Y-65050761D01*
X192841126Y-65091290D01*
X192974600Y-65016849D01*
X192974600Y-64025400D01*
X193025400Y-64025400D01*
X193025400Y-65016849D01*
X193158874Y-65091290D01*
X193303957Y-65050761D01*
X193587040Y-64873531D01*
X193780751Y-64601460D01*
X193855600Y-64275970D01*
X193855600Y-64025400D01*
X193025400Y-64025400D01*
X192974600Y-64025400D01*
X192954600Y-64025400D01*
X192954600Y-63974600D01*
X192974600Y-63974600D01*
X192974600Y-62983151D01*
X193025400Y-62983151D01*
X193025400Y-63974600D01*
X193855600Y-63974600D01*
X193855600Y-63724030D01*
X193780751Y-63398540D01*
X193587040Y-63126469D01*
X193303957Y-62949239D01*
X193158874Y-62908710D01*
X193025400Y-62983151D01*
X192974600Y-62983151D01*
X192841126Y-62908710D01*
X192696043Y-62949239D01*
X192412960Y-63126469D01*
X192374022Y-63181158D01*
X192335001Y-63122758D01*
X192057424Y-62937288D01*
X191730000Y-62872159D01*
X191402576Y-62937288D01*
X191124999Y-63122758D01*
X191095000Y-63167655D01*
X191065001Y-63122758D01*
X190787424Y-62937288D01*
X190460000Y-62872159D01*
X190132576Y-62937288D01*
X189854999Y-63122758D01*
X189669529Y-63400335D01*
X189604400Y-63727759D01*
X186125600Y-63727759D01*
X186125600Y-63724030D01*
X186050751Y-63398540D01*
X185857040Y-63126469D01*
X185573957Y-62949239D01*
X185428874Y-62908710D01*
X185295400Y-62983151D01*
X185244600Y-62983151D01*
X185111126Y-62908710D01*
X184966043Y-62949239D01*
X184682960Y-63126469D01*
X184644022Y-63181158D01*
X184605001Y-63122758D01*
X184327424Y-62937288D01*
X184000000Y-62872159D01*
X183672576Y-62937288D01*
X183394999Y-63122758D01*
X183365000Y-63167655D01*
X183335001Y-63122758D01*
X183057424Y-62937288D01*
X182730000Y-62872159D01*
X182402576Y-62937288D01*
X182124999Y-63122758D01*
X181939529Y-63400335D01*
X181874400Y-63727759D01*
X179125600Y-63727759D01*
X179125600Y-63724030D01*
X179050751Y-63398540D01*
X178857040Y-63126469D01*
X178573957Y-62949239D01*
X178428874Y-62908710D01*
X178295400Y-62983151D01*
X178244600Y-62983151D01*
X178111126Y-62908710D01*
X177966043Y-62949239D01*
X177682960Y-63126469D01*
X177644022Y-63181158D01*
X177605001Y-63122758D01*
X177327424Y-62937288D01*
X177000000Y-62872159D01*
X176672576Y-62937288D01*
X176394999Y-63122758D01*
X176365000Y-63167655D01*
X176335001Y-63122758D01*
X176057424Y-62937288D01*
X175730000Y-62872159D01*
X175402576Y-62937288D01*
X175124999Y-63122758D01*
X174939529Y-63400335D01*
X174874400Y-63727759D01*
X172125600Y-63727759D01*
X172125600Y-63724030D01*
X172050751Y-63398540D01*
X171857040Y-63126469D01*
X171573957Y-62949239D01*
X171428874Y-62908710D01*
X171295400Y-62983151D01*
X171244600Y-62983151D01*
X171111126Y-62908710D01*
X170966043Y-62949239D01*
X170682960Y-63126469D01*
X170644022Y-63181158D01*
X170605001Y-63122758D01*
X170327424Y-62937288D01*
X170000000Y-62872159D01*
X169672576Y-62937288D01*
X169394999Y-63122758D01*
X169365000Y-63167655D01*
X169335001Y-63122758D01*
X169057424Y-62937288D01*
X168730000Y-62872159D01*
X168402576Y-62937288D01*
X168124999Y-63122758D01*
X167939529Y-63400335D01*
X167874400Y-63727759D01*
X164855600Y-63727759D01*
X164855600Y-63724030D01*
X164780751Y-63398540D01*
X164587040Y-63126469D01*
X164303957Y-62949239D01*
X164158874Y-62908710D01*
X164025400Y-62983151D01*
X163974600Y-62983151D01*
X163841126Y-62908710D01*
X163696043Y-62949239D01*
X163412960Y-63126469D01*
X163374022Y-63181158D01*
X163335001Y-63122758D01*
X163057424Y-62937288D01*
X162730000Y-62872159D01*
X162402576Y-62937288D01*
X162124999Y-63122758D01*
X162095000Y-63167655D01*
X162065001Y-63122758D01*
X161787424Y-62937288D01*
X161460000Y-62872159D01*
X161132576Y-62937288D01*
X160854999Y-63122758D01*
X160669529Y-63400335D01*
X160604400Y-63727759D01*
X148073217Y-63727759D01*
X148073301Y-63632065D01*
X147950914Y-63335866D01*
X147724493Y-63109049D01*
X147428508Y-62986146D01*
X147144353Y-62985898D01*
X143554077Y-59395622D01*
X143397510Y-59291008D01*
X143212827Y-59254272D01*
X140936772Y-59254272D01*
X139666133Y-57983633D01*
X139722031Y-57849013D01*
X140003400Y-57849013D01*
X140179080Y-58274192D01*
X140504097Y-58599776D01*
X140928969Y-58776199D01*
X141389013Y-58776600D01*
X141814192Y-58600920D01*
X142139776Y-58275903D01*
X142316199Y-57851031D01*
X142316209Y-57838953D01*
X142594208Y-57838953D01*
X142762171Y-58245454D01*
X143072910Y-58556736D01*
X143479118Y-58725408D01*
X143918953Y-58725792D01*
X144325454Y-58557829D01*
X144511635Y-58371972D01*
X145523949Y-58371972D01*
X145598130Y-58546671D01*
X146001612Y-58721766D01*
X146441385Y-58729127D01*
X146850500Y-58567633D01*
X146881870Y-58546671D01*
X146956051Y-58371972D01*
X146240000Y-57655921D01*
X145523949Y-58371972D01*
X144511635Y-58371972D01*
X144636736Y-58247090D01*
X144805408Y-57840882D01*
X144805425Y-57821385D01*
X145130873Y-57821385D01*
X145292367Y-58230500D01*
X145313329Y-58261870D01*
X145488028Y-58336051D01*
X146204079Y-57620000D01*
X146275921Y-57620000D01*
X146991972Y-58336051D01*
X147166671Y-58261870D01*
X147341766Y-57858388D01*
X147349127Y-57418615D01*
X147187633Y-57009500D01*
X147166671Y-56978130D01*
X146991972Y-56903949D01*
X146275921Y-57620000D01*
X146204079Y-57620000D01*
X145488028Y-56903949D01*
X145313329Y-56978130D01*
X145138234Y-57381612D01*
X145130873Y-57821385D01*
X144805425Y-57821385D01*
X144805792Y-57401047D01*
X144637829Y-56994546D01*
X144511532Y-56868028D01*
X145523949Y-56868028D01*
X146240000Y-57584079D01*
X146956051Y-56868028D01*
X146881870Y-56693329D01*
X146478388Y-56518234D01*
X146038615Y-56510873D01*
X145629500Y-56672367D01*
X145598130Y-56693329D01*
X145523949Y-56868028D01*
X144511532Y-56868028D01*
X144327090Y-56683264D01*
X143920882Y-56514592D01*
X143481047Y-56514208D01*
X143074546Y-56682171D01*
X142763264Y-56992910D01*
X142594592Y-57399118D01*
X142594208Y-57838953D01*
X142316209Y-57838953D01*
X142316600Y-57390987D01*
X142140920Y-56965808D01*
X141815903Y-56640224D01*
X141391031Y-56463801D01*
X140930987Y-56463400D01*
X140505808Y-56639080D01*
X140180224Y-56964097D01*
X140003801Y-57388969D01*
X140003400Y-57849013D01*
X139722031Y-57849013D01*
X139725408Y-57840882D01*
X139725792Y-57401047D01*
X139557829Y-56994546D01*
X139247090Y-56683264D01*
X138840882Y-56514592D01*
X138401047Y-56514208D01*
X137994546Y-56682171D01*
X137683264Y-56992910D01*
X137514592Y-57399118D01*
X137514208Y-57838953D01*
X137185409Y-57838953D01*
X137185792Y-57401047D01*
X137017829Y-56994546D01*
X136707090Y-56683264D01*
X136300882Y-56514592D01*
X135861047Y-56514208D01*
X135454546Y-56682171D01*
X135143264Y-56992910D01*
X134974592Y-57399118D01*
X134974208Y-57838953D01*
X134645409Y-57838953D01*
X134645792Y-57401047D01*
X134477829Y-56994546D01*
X134167090Y-56683264D01*
X133760882Y-56514592D01*
X133321047Y-56514208D01*
X132914546Y-56682171D01*
X132782600Y-56813887D01*
X132782600Y-56356540D01*
X132982557Y-56156932D01*
X133105460Y-55860947D01*
X133105740Y-55540459D01*
X132983353Y-55244260D01*
X132756932Y-55017443D01*
X132754996Y-55016639D01*
X147734139Y-55016639D01*
X149396272Y-56678772D01*
X149000882Y-56514592D01*
X148561047Y-56514208D01*
X148154546Y-56682171D01*
X147843264Y-56992910D01*
X147674592Y-57399118D01*
X147674208Y-57838953D01*
X147842171Y-58245454D01*
X148152910Y-58556736D01*
X148559118Y-58725408D01*
X148998953Y-58725792D01*
X149405454Y-58557829D01*
X149716736Y-58247090D01*
X149885408Y-57840882D01*
X149885792Y-57401047D01*
X149721901Y-57004401D01*
X154418444Y-61700944D01*
X154575011Y-61805558D01*
X154759694Y-61842294D01*
X180640306Y-61842294D01*
X180824989Y-61805558D01*
X180981556Y-61700944D01*
X182657100Y-60025400D01*
X197574400Y-60025400D01*
X197574400Y-60275970D01*
X197649249Y-60601460D01*
X197842960Y-60873531D01*
X198126043Y-61050761D01*
X198271126Y-61091290D01*
X198404600Y-61016849D01*
X198404600Y-60025400D01*
X197574400Y-60025400D01*
X182657100Y-60025400D01*
X182958470Y-59724030D01*
X197574400Y-59724030D01*
X197574400Y-59974600D01*
X198404600Y-59974600D01*
X198404600Y-58983151D01*
X198271126Y-58908710D01*
X198126043Y-58949239D01*
X197842960Y-59126469D01*
X197649249Y-59398540D01*
X197574400Y-59724030D01*
X182958470Y-59724030D01*
X183588791Y-59093709D01*
X183649718Y-59119008D01*
X184089553Y-59119392D01*
X184496054Y-58951429D01*
X184807336Y-58640690D01*
X184976008Y-58234482D01*
X184976009Y-58232553D01*
X192924808Y-58232553D01*
X193092771Y-58639054D01*
X193403510Y-58950336D01*
X193809718Y-59119008D01*
X194249553Y-59119392D01*
X194656054Y-58951429D01*
X194967336Y-58640690D01*
X195032981Y-58482600D01*
X198850100Y-58482600D01*
X199217400Y-58849900D01*
X199217400Y-59040973D01*
X199094999Y-59122758D01*
X199055978Y-59181158D01*
X199017040Y-59126469D01*
X198733957Y-58949239D01*
X198588874Y-58908710D01*
X198455400Y-58983151D01*
X198455400Y-59974600D01*
X198475400Y-59974600D01*
X198475400Y-60025400D01*
X198455400Y-60025400D01*
X198455400Y-61016849D01*
X198588874Y-61091290D01*
X198733957Y-61050761D01*
X199017040Y-60873531D01*
X199055978Y-60818842D01*
X199094999Y-60877242D01*
X199372576Y-61062712D01*
X199700000Y-61127841D01*
X200027424Y-61062712D01*
X200305001Y-60877242D01*
X200335000Y-60832345D01*
X200364999Y-60877242D01*
X200642576Y-61062712D01*
X200970000Y-61127841D01*
X201297424Y-61062712D01*
X201575001Y-60877242D01*
X201760471Y-60599665D01*
X201825600Y-60272241D01*
X201825600Y-59727759D01*
X201760471Y-59400335D01*
X201575001Y-59122758D01*
X201297424Y-58937288D01*
X200970000Y-58872159D01*
X200642576Y-58937288D01*
X200364999Y-59122758D01*
X200335000Y-59167655D01*
X200305001Y-59122758D01*
X200182600Y-59040973D01*
X200182600Y-58650005D01*
X200182601Y-58650000D01*
X200145864Y-58465317D01*
X200041250Y-58308750D01*
X199391250Y-57658750D01*
X199234683Y-57554136D01*
X199050000Y-57517400D01*
X195021836Y-57517400D01*
X194968429Y-57388146D01*
X194657690Y-57076864D01*
X194251482Y-56908192D01*
X193811647Y-56907808D01*
X193405146Y-57075771D01*
X193093864Y-57386510D01*
X192925192Y-57792718D01*
X192924808Y-58232553D01*
X184976009Y-58232553D01*
X184976392Y-57794647D01*
X184808429Y-57388146D01*
X184497690Y-57076864D01*
X184091482Y-56908192D01*
X183651647Y-56907808D01*
X183245146Y-57075771D01*
X182933864Y-57386510D01*
X182765192Y-57792718D01*
X182764808Y-58232553D01*
X182858411Y-58459089D01*
X180440406Y-60877094D01*
X178645406Y-60877094D01*
X183476367Y-56046133D01*
X183619118Y-56105408D01*
X184058953Y-56105792D01*
X184465454Y-55937829D01*
X184776736Y-55627090D01*
X184945408Y-55220882D01*
X184945409Y-55218953D01*
X192894208Y-55218953D01*
X193062171Y-55625454D01*
X193372910Y-55936736D01*
X193779118Y-56105408D01*
X194218953Y-56105792D01*
X194625454Y-55937829D01*
X194936736Y-55627090D01*
X195105408Y-55220882D01*
X195105578Y-55025400D01*
X197604400Y-55025400D01*
X197604400Y-55275970D01*
X197679249Y-55601460D01*
X197872960Y-55873531D01*
X198156043Y-56050761D01*
X198301126Y-56091290D01*
X198434600Y-56016849D01*
X198434600Y-55025400D01*
X197604400Y-55025400D01*
X195105578Y-55025400D01*
X195105792Y-54781047D01*
X195046047Y-54636453D01*
X195699899Y-53982600D01*
X198102757Y-53982600D01*
X197872960Y-54126469D01*
X197679249Y-54398540D01*
X197604400Y-54724030D01*
X197604400Y-54974600D01*
X198434600Y-54974600D01*
X198434600Y-54954600D01*
X198485400Y-54954600D01*
X198485400Y-54974600D01*
X198505400Y-54974600D01*
X198505400Y-55025400D01*
X198485400Y-55025400D01*
X198485400Y-56016849D01*
X198618874Y-56091290D01*
X198763957Y-56050761D01*
X199047040Y-55873531D01*
X199085978Y-55818842D01*
X199124999Y-55877242D01*
X199402576Y-56062712D01*
X199730000Y-56127841D01*
X200057424Y-56062712D01*
X200335001Y-55877242D01*
X200365000Y-55832345D01*
X200394999Y-55877242D01*
X200672576Y-56062712D01*
X201000000Y-56127841D01*
X201327424Y-56062712D01*
X201605001Y-55877242D01*
X201790471Y-55599665D01*
X201855600Y-55272241D01*
X201855600Y-54727759D01*
X201790471Y-54400335D01*
X201605001Y-54122758D01*
X201327424Y-53937288D01*
X201000000Y-53872159D01*
X200672576Y-53937288D01*
X200394999Y-54122758D01*
X200365000Y-54167655D01*
X200335001Y-54122758D01*
X200057424Y-53937288D01*
X199730000Y-53872159D01*
X199609598Y-53896108D01*
X199309890Y-53596400D01*
X205569639Y-53596400D01*
X205569639Y-55323600D01*
X205597977Y-55474203D01*
X205686983Y-55612522D01*
X205822790Y-55705315D01*
X205984000Y-55737961D01*
X208016000Y-55737961D01*
X208166603Y-55709623D01*
X208304922Y-55620617D01*
X208397715Y-55484810D01*
X208430361Y-55323600D01*
X208430361Y-53596400D01*
X208402023Y-53445797D01*
X208313017Y-53307478D01*
X208177210Y-53214685D01*
X208016000Y-53182039D01*
X205984000Y-53182039D01*
X205833397Y-53210377D01*
X205695078Y-53299383D01*
X205602285Y-53435190D01*
X205569639Y-53596400D01*
X199309890Y-53596400D01*
X198872240Y-53158750D01*
X198715673Y-53054136D01*
X198530990Y-53017400D01*
X195500000Y-53017400D01*
X195315317Y-53054136D01*
X195158750Y-53158750D01*
X195158748Y-53158753D01*
X194363633Y-53953867D01*
X194220882Y-53894592D01*
X193781047Y-53894208D01*
X193374546Y-54062171D01*
X193063264Y-54372910D01*
X192894592Y-54779118D01*
X192894208Y-55218953D01*
X184945409Y-55218953D01*
X184945792Y-54781047D01*
X184777829Y-54374546D01*
X184467090Y-54063264D01*
X184060882Y-53894592D01*
X183621047Y-53894208D01*
X183214546Y-54062171D01*
X182903264Y-54372910D01*
X182734592Y-54779118D01*
X182734208Y-55218953D01*
X182793953Y-55363547D01*
X177788416Y-60369084D01*
X155170020Y-60369084D01*
X153019889Y-58218953D01*
X153734208Y-58218953D01*
X153902171Y-58625454D01*
X154212910Y-58936736D01*
X154619118Y-59105408D01*
X155058953Y-59105792D01*
X155465454Y-58937829D01*
X155776736Y-58627090D01*
X155945408Y-58220882D01*
X155945409Y-58218953D01*
X163894208Y-58218953D01*
X164062171Y-58625454D01*
X164372910Y-58936736D01*
X164779118Y-59105408D01*
X165218953Y-59105792D01*
X165625454Y-58937829D01*
X165936736Y-58627090D01*
X165996733Y-58482600D01*
X166500000Y-58482600D01*
X166684683Y-58445864D01*
X166841250Y-58341250D01*
X167619899Y-57562600D01*
X169391361Y-57562600D01*
X169520394Y-57755711D01*
X169830413Y-57962859D01*
X170196105Y-58035600D01*
X170563895Y-58035600D01*
X170929587Y-57962859D01*
X171239606Y-57755711D01*
X171446754Y-57445692D01*
X171519495Y-57080000D01*
X176860505Y-57080000D01*
X176933246Y-57445692D01*
X177140394Y-57755711D01*
X177450413Y-57962859D01*
X177816105Y-58035600D01*
X178183895Y-58035600D01*
X178549587Y-57962859D01*
X178859606Y-57755711D01*
X179066754Y-57445692D01*
X179139495Y-57080000D01*
X179066754Y-56714308D01*
X178859606Y-56404289D01*
X178549587Y-56197141D01*
X178183895Y-56124400D01*
X177816105Y-56124400D01*
X177450413Y-56197141D01*
X177140394Y-56404289D01*
X176933246Y-56714308D01*
X176860505Y-57080000D01*
X171519495Y-57080000D01*
X171446754Y-56714308D01*
X171239606Y-56404289D01*
X170929587Y-56197141D01*
X170563895Y-56124400D01*
X170196105Y-56124400D01*
X169830413Y-56197141D01*
X169520394Y-56404289D01*
X169391361Y-56597400D01*
X167420000Y-56597400D01*
X167235317Y-56634136D01*
X167078750Y-56738750D01*
X167078748Y-56738753D01*
X166300100Y-57517400D01*
X165996855Y-57517400D01*
X165937829Y-57374546D01*
X165627090Y-57063264D01*
X165220882Y-56894592D01*
X164781047Y-56894208D01*
X164374546Y-57062171D01*
X164063264Y-57372910D01*
X163894592Y-57779118D01*
X163894208Y-58218953D01*
X155945409Y-58218953D01*
X155945792Y-57781047D01*
X155777829Y-57374546D01*
X155467090Y-57063264D01*
X155060882Y-56894592D01*
X154621047Y-56894208D01*
X154214546Y-57062171D01*
X153903264Y-57372910D01*
X153734592Y-57779118D01*
X153734208Y-58218953D01*
X153019889Y-58218953D01*
X150019889Y-55218953D01*
X153734208Y-55218953D01*
X153902171Y-55625454D01*
X154212910Y-55936736D01*
X154619118Y-56105408D01*
X155058953Y-56105792D01*
X155465454Y-55937829D01*
X155776736Y-55627090D01*
X155945408Y-55220882D01*
X155945409Y-55218953D01*
X163894208Y-55218953D01*
X164062171Y-55625454D01*
X164372910Y-55936736D01*
X164779118Y-56105408D01*
X165218953Y-56105792D01*
X165625454Y-55937829D01*
X165936736Y-55627090D01*
X165996733Y-55482600D01*
X166413492Y-55482600D01*
X166598175Y-55445864D01*
X166754742Y-55341250D01*
X167073392Y-55022600D01*
X169391361Y-55022600D01*
X169520394Y-55215711D01*
X169830413Y-55422859D01*
X170196105Y-55495600D01*
X170563895Y-55495600D01*
X170929587Y-55422859D01*
X171239606Y-55215711D01*
X171446754Y-54905692D01*
X171519495Y-54540000D01*
X176860505Y-54540000D01*
X176933246Y-54905692D01*
X177140394Y-55215711D01*
X177450413Y-55422859D01*
X177816105Y-55495600D01*
X178183895Y-55495600D01*
X178549587Y-55422859D01*
X178859606Y-55215711D01*
X179066754Y-54905692D01*
X179139495Y-54540000D01*
X179066754Y-54174308D01*
X178859606Y-53864289D01*
X178549587Y-53657141D01*
X178183895Y-53584400D01*
X177816105Y-53584400D01*
X177450413Y-53657141D01*
X177140394Y-53864289D01*
X176933246Y-54174308D01*
X176860505Y-54540000D01*
X171519495Y-54540000D01*
X171446754Y-54174308D01*
X171239606Y-53864289D01*
X170929587Y-53657141D01*
X170563895Y-53584400D01*
X170196105Y-53584400D01*
X169830413Y-53657141D01*
X169520394Y-53864289D01*
X169391361Y-54057400D01*
X167103060Y-54057400D01*
X167098175Y-54054136D01*
X166913492Y-54017399D01*
X166728809Y-54054136D01*
X166572242Y-54158750D01*
X166213592Y-54517400D01*
X165996855Y-54517400D01*
X165937829Y-54374546D01*
X165627090Y-54063264D01*
X165220882Y-53894592D01*
X164781047Y-53894208D01*
X164374546Y-54062171D01*
X164063264Y-54372910D01*
X163894592Y-54779118D01*
X163894208Y-55218953D01*
X155945409Y-55218953D01*
X155945792Y-54781047D01*
X155777829Y-54374546D01*
X155467090Y-54063264D01*
X155060882Y-53894592D01*
X154621047Y-53894208D01*
X154214546Y-54062171D01*
X153903264Y-54372910D01*
X153734592Y-54779118D01*
X153734208Y-55218953D01*
X150019889Y-55218953D01*
X148485715Y-53684779D01*
X148329148Y-53580165D01*
X148144465Y-53543429D01*
X130145928Y-53543428D01*
X119346133Y-42743633D01*
X119405408Y-42600882D01*
X119405409Y-42598953D01*
X119734208Y-42598953D01*
X119902171Y-43005454D01*
X120212910Y-43316736D01*
X120619118Y-43485408D01*
X121058953Y-43485792D01*
X121465454Y-43317829D01*
X121776736Y-43007090D01*
X121945408Y-42600882D01*
X121945792Y-42161047D01*
X121886047Y-42016453D01*
X122170901Y-41731599D01*
X122464612Y-41731599D01*
X122443264Y-41752910D01*
X122274592Y-42159118D01*
X122274208Y-42598953D01*
X122442171Y-43005454D01*
X122752910Y-43316736D01*
X123159118Y-43485408D01*
X123598953Y-43485792D01*
X124005454Y-43317829D01*
X124316736Y-43007090D01*
X124485408Y-42600882D01*
X124485792Y-42161047D01*
X124317829Y-41754546D01*
X124294922Y-41731599D01*
X125004612Y-41731599D01*
X124983264Y-41752910D01*
X124814592Y-42159118D01*
X124814208Y-42598953D01*
X124982171Y-43005454D01*
X125292910Y-43316736D01*
X125699118Y-43485408D01*
X126138953Y-43485792D01*
X126545454Y-43317829D01*
X126856736Y-43007090D01*
X127025408Y-42600882D01*
X127025792Y-42161047D01*
X126857829Y-41754546D01*
X126834922Y-41731599D01*
X127544612Y-41731599D01*
X127523264Y-41752910D01*
X127354592Y-42159118D01*
X127354208Y-42598953D01*
X127522171Y-43005454D01*
X127832910Y-43316736D01*
X128239118Y-43485408D01*
X128678953Y-43485792D01*
X129085454Y-43317829D01*
X129396736Y-43007090D01*
X129565408Y-42600882D01*
X129565792Y-42161047D01*
X129397829Y-41754546D01*
X129374922Y-41731599D01*
X130084612Y-41731599D01*
X130063264Y-41752910D01*
X129894592Y-42159118D01*
X129894208Y-42598953D01*
X130062171Y-43005454D01*
X130372910Y-43316736D01*
X130779118Y-43485408D01*
X131218953Y-43485792D01*
X131363547Y-43426047D01*
X138762877Y-50825377D01*
X138919444Y-50929991D01*
X139104127Y-50966727D01*
X154445538Y-50966727D01*
X154214546Y-51062171D01*
X153903264Y-51372910D01*
X153734592Y-51779118D01*
X153734208Y-52218953D01*
X153902171Y-52625454D01*
X154212910Y-52936736D01*
X154619118Y-53105408D01*
X155058953Y-53105792D01*
X155465454Y-52937829D01*
X155776736Y-52627090D01*
X155945408Y-52220882D01*
X155945792Y-51781047D01*
X155777829Y-51374546D01*
X155467090Y-51063264D01*
X155234603Y-50966727D01*
X158269968Y-50966727D01*
X159179438Y-51876197D01*
X159179191Y-52158731D01*
X159301578Y-52454930D01*
X159527999Y-52681747D01*
X159823984Y-52804650D01*
X160144472Y-52804930D01*
X160440671Y-52682543D01*
X160667488Y-52456122D01*
X160790391Y-52160137D01*
X160790671Y-51839649D01*
X160668284Y-51543450D01*
X160441863Y-51316633D01*
X160145878Y-51193730D01*
X159861723Y-51193482D01*
X158813478Y-50145237D01*
X162042342Y-50145237D01*
X162857862Y-50960756D01*
X162857864Y-50960759D01*
X163014431Y-51065373D01*
X163199114Y-51102109D01*
X164334538Y-51102109D01*
X164063264Y-51372910D01*
X163894592Y-51779118D01*
X163894208Y-52218953D01*
X164062171Y-52625454D01*
X164372910Y-52936736D01*
X164779118Y-53105408D01*
X165218953Y-53105792D01*
X165625454Y-52937829D01*
X165936736Y-52627090D01*
X165996733Y-52482600D01*
X169391361Y-52482600D01*
X169520394Y-52675711D01*
X169830413Y-52882859D01*
X170196105Y-52955600D01*
X170563895Y-52955600D01*
X170929587Y-52882859D01*
X171239606Y-52675711D01*
X171446754Y-52365692D01*
X171519495Y-52000000D01*
X171446754Y-51634308D01*
X171239606Y-51324289D01*
X170929587Y-51117141D01*
X170854016Y-51102109D01*
X177525984Y-51102109D01*
X177450413Y-51117141D01*
X177140394Y-51324289D01*
X176933246Y-51634308D01*
X176860505Y-52000000D01*
X176933246Y-52365692D01*
X177140394Y-52675711D01*
X177450413Y-52882859D01*
X177816105Y-52955600D01*
X178183895Y-52955600D01*
X178549587Y-52882859D01*
X178859606Y-52675711D01*
X179066754Y-52365692D01*
X179139495Y-52000000D01*
X179066754Y-51634308D01*
X178859606Y-51324289D01*
X178549587Y-51117141D01*
X178474016Y-51102109D01*
X182259609Y-51102109D01*
X182793867Y-51636367D01*
X182734592Y-51779118D01*
X182734208Y-52218953D01*
X182902171Y-52625454D01*
X183212910Y-52936736D01*
X183619118Y-53105408D01*
X184058953Y-53105792D01*
X184465454Y-52937829D01*
X184776736Y-52627090D01*
X184945408Y-52220882D01*
X184945409Y-52218953D01*
X192894208Y-52218953D01*
X193062171Y-52625454D01*
X193372910Y-52936736D01*
X193779118Y-53105408D01*
X194218953Y-53105792D01*
X194625454Y-52937829D01*
X194936736Y-52627090D01*
X194996733Y-52482600D01*
X199100000Y-52482600D01*
X199284683Y-52445864D01*
X199441250Y-52341250D01*
X200071247Y-51711252D01*
X200071250Y-51711250D01*
X200175864Y-51554683D01*
X200183280Y-51517400D01*
X200212601Y-51370000D01*
X200212600Y-51369995D01*
X200212600Y-50959027D01*
X200335001Y-50877242D01*
X200365000Y-50832345D01*
X200394999Y-50877242D01*
X200672576Y-51062712D01*
X201000000Y-51127841D01*
X201327424Y-51062712D01*
X201605001Y-50877242D01*
X201790471Y-50599665D01*
X201855600Y-50272241D01*
X201855600Y-49727759D01*
X201790471Y-49400335D01*
X201605001Y-49122758D01*
X201327424Y-48937288D01*
X201000000Y-48872159D01*
X200672576Y-48937288D01*
X200394999Y-49122758D01*
X200365000Y-49167655D01*
X200335001Y-49122758D01*
X200057424Y-48937288D01*
X199730000Y-48872159D01*
X199402576Y-48937288D01*
X199124999Y-49122758D01*
X199085978Y-49181158D01*
X199047040Y-49126469D01*
X198763957Y-48949239D01*
X198618874Y-48908710D01*
X198485400Y-48983151D01*
X198485400Y-49974600D01*
X198505400Y-49974600D01*
X198505400Y-50025400D01*
X198485400Y-50025400D01*
X198485400Y-51016849D01*
X198618874Y-51091290D01*
X198763957Y-51050761D01*
X199047040Y-50873531D01*
X199085978Y-50818842D01*
X199124999Y-50877242D01*
X199247400Y-50959027D01*
X199247400Y-51170101D01*
X198900100Y-51517400D01*
X194996855Y-51517400D01*
X194937829Y-51374546D01*
X194627090Y-51063264D01*
X194220882Y-50894592D01*
X193781047Y-50894208D01*
X193374546Y-51062171D01*
X193063264Y-51372910D01*
X192894592Y-51779118D01*
X192894208Y-52218953D01*
X184945409Y-52218953D01*
X184945792Y-51781047D01*
X184777829Y-51374546D01*
X184467090Y-51063264D01*
X184060882Y-50894592D01*
X183621047Y-50894208D01*
X183476453Y-50953953D01*
X182800759Y-50278259D01*
X182644192Y-50173645D01*
X182459509Y-50136909D01*
X178857813Y-50136909D01*
X178859606Y-50135711D01*
X179066754Y-49825692D01*
X179139495Y-49460000D01*
X179066754Y-49094308D01*
X178859606Y-48784289D01*
X178549587Y-48577141D01*
X178183895Y-48504400D01*
X177816105Y-48504400D01*
X177450413Y-48577141D01*
X177140394Y-48784289D01*
X176933246Y-49094308D01*
X176860505Y-49460000D01*
X176933246Y-49825692D01*
X177140394Y-50135711D01*
X177142187Y-50136909D01*
X171237813Y-50136909D01*
X171239606Y-50135711D01*
X171446754Y-49825692D01*
X171519495Y-49460000D01*
X171446754Y-49094308D01*
X171239606Y-48784289D01*
X170929587Y-48577141D01*
X170563895Y-48504400D01*
X170196105Y-48504400D01*
X169830413Y-48577141D01*
X169520394Y-48784289D01*
X169313246Y-49094308D01*
X169240505Y-49460000D01*
X169313246Y-49825692D01*
X169520394Y-50135711D01*
X169522187Y-50136909D01*
X163399013Y-50136909D01*
X162583492Y-49321387D01*
X162426925Y-49216773D01*
X162242242Y-49180037D01*
X159131066Y-49180037D01*
X159226308Y-48950668D01*
X159226588Y-48630180D01*
X159104201Y-48333981D01*
X158903448Y-48132877D01*
X158903448Y-47411910D01*
X158866712Y-47227227D01*
X158762098Y-47070660D01*
X155863552Y-44172114D01*
X155706985Y-44067500D01*
X155522302Y-44030764D01*
X155150534Y-44030764D01*
X155375454Y-43937829D01*
X155686736Y-43627090D01*
X155855408Y-43220882D01*
X155855792Y-42781047D01*
X155687829Y-42374546D01*
X155377090Y-42063264D01*
X155295394Y-42029341D01*
X155416804Y-42029341D01*
X158659150Y-45271687D01*
X158569311Y-45361369D01*
X158446408Y-45657354D01*
X158446128Y-45977842D01*
X158568515Y-46274041D01*
X158794936Y-46500858D01*
X159090921Y-46623761D01*
X159411409Y-46624041D01*
X159707608Y-46501654D01*
X159934425Y-46275233D01*
X160057328Y-45979248D01*
X160057608Y-45658760D01*
X159935221Y-45362561D01*
X159729388Y-45156368D01*
X159697732Y-44997222D01*
X159593118Y-44840655D01*
X157971416Y-43218953D01*
X163804208Y-43218953D01*
X163972171Y-43625454D01*
X164282910Y-43936736D01*
X164689118Y-44105408D01*
X165128953Y-44105792D01*
X165535454Y-43937829D01*
X165846736Y-43627090D01*
X165906733Y-43482600D01*
X166323492Y-43482600D01*
X166508175Y-43445864D01*
X166664742Y-43341250D01*
X167773392Y-42232600D01*
X176024100Y-42232600D01*
X177353438Y-43561938D01*
X177140394Y-43704289D01*
X176933246Y-44014308D01*
X176860505Y-44380000D01*
X176933246Y-44745692D01*
X177114795Y-45017400D01*
X171265205Y-45017400D01*
X171446754Y-44745692D01*
X171519495Y-44380000D01*
X171446754Y-44014308D01*
X171239606Y-43704289D01*
X170929587Y-43497141D01*
X170563895Y-43424400D01*
X170196105Y-43424400D01*
X169830413Y-43497141D01*
X169520394Y-43704289D01*
X169313246Y-44014308D01*
X169240505Y-44380000D01*
X169313246Y-44745692D01*
X169494795Y-45017400D01*
X166913497Y-45017400D01*
X166913492Y-45017399D01*
X166728809Y-45054136D01*
X166572242Y-45158750D01*
X166213592Y-45517400D01*
X165996855Y-45517400D01*
X165937829Y-45374546D01*
X165627090Y-45063264D01*
X165220882Y-44894592D01*
X164781047Y-44894208D01*
X164374546Y-45062171D01*
X164063264Y-45372910D01*
X163894592Y-45779118D01*
X163894208Y-46218953D01*
X164062171Y-46625454D01*
X164372910Y-46936736D01*
X164779118Y-47105408D01*
X165218953Y-47105792D01*
X165625454Y-46937829D01*
X165936736Y-46627090D01*
X165996733Y-46482600D01*
X166413492Y-46482600D01*
X166598175Y-46445864D01*
X166754742Y-46341250D01*
X167113392Y-45982600D01*
X170104608Y-45982600D01*
X169830413Y-46037141D01*
X169520394Y-46244289D01*
X169391361Y-46437400D01*
X167080000Y-46437400D01*
X166895317Y-46474136D01*
X166738750Y-46578750D01*
X165363633Y-47953867D01*
X165220882Y-47894592D01*
X164781047Y-47894208D01*
X164374546Y-48062171D01*
X164063264Y-48372910D01*
X163894592Y-48779118D01*
X163894208Y-49218953D01*
X164062171Y-49625454D01*
X164372910Y-49936736D01*
X164779118Y-50105408D01*
X165218953Y-50105792D01*
X165625454Y-49937829D01*
X165936736Y-49627090D01*
X166105408Y-49220882D01*
X166105792Y-48781047D01*
X166046047Y-48636453D01*
X167279900Y-47402600D01*
X169391361Y-47402600D01*
X169520394Y-47595711D01*
X169830413Y-47802859D01*
X170196105Y-47875600D01*
X170563895Y-47875600D01*
X170929587Y-47802859D01*
X171239606Y-47595711D01*
X171446754Y-47285692D01*
X171519495Y-46920000D01*
X171446754Y-46554308D01*
X171239606Y-46244289D01*
X170929587Y-46037141D01*
X170655392Y-45982600D01*
X177023140Y-45982600D01*
X177226977Y-46186436D01*
X177140394Y-46244289D01*
X176933246Y-46554308D01*
X176860505Y-46920000D01*
X176933246Y-47285692D01*
X177140394Y-47595711D01*
X177450413Y-47802859D01*
X177816105Y-47875600D01*
X178183895Y-47875600D01*
X178549587Y-47802859D01*
X178859606Y-47595711D01*
X179066754Y-47285692D01*
X179139495Y-46920000D01*
X179066754Y-46554308D01*
X178859606Y-46244289D01*
X178549587Y-46037141D01*
X178387478Y-46004895D01*
X178341250Y-45935710D01*
X178341247Y-45935708D01*
X177722526Y-45316986D01*
X177816105Y-45335600D01*
X178183895Y-45335600D01*
X178549587Y-45262859D01*
X178859606Y-45055711D01*
X179066754Y-44745692D01*
X179139495Y-44380000D01*
X179066754Y-44014308D01*
X178859606Y-43704289D01*
X178549587Y-43497141D01*
X178473863Y-43482079D01*
X178445864Y-43341317D01*
X178341250Y-43184750D01*
X176565250Y-41408750D01*
X176408683Y-41304136D01*
X176224000Y-41267400D01*
X167573492Y-41267400D01*
X167388809Y-41304136D01*
X167232242Y-41408750D01*
X166123592Y-42517400D01*
X165906855Y-42517400D01*
X165847829Y-42374546D01*
X165537090Y-42063264D01*
X165130882Y-41894592D01*
X164691047Y-41894208D01*
X164284546Y-42062171D01*
X163973264Y-42372910D01*
X163804592Y-42779118D01*
X163804208Y-43218953D01*
X157971416Y-43218953D01*
X155957954Y-41205491D01*
X155801387Y-41100877D01*
X155616704Y-41064141D01*
X154075770Y-41064141D01*
X153891087Y-41100877D01*
X153734520Y-41205491D01*
X153734518Y-41205494D01*
X151417258Y-43522753D01*
X140445253Y-43522753D01*
X140054472Y-43131972D01*
X140443949Y-43131972D01*
X140518130Y-43306671D01*
X140921612Y-43481766D01*
X141361385Y-43489127D01*
X141770500Y-43327633D01*
X141801870Y-43306671D01*
X141876051Y-43131972D01*
X141160000Y-42415921D01*
X140443949Y-43131972D01*
X140054472Y-43131972D01*
X139666133Y-42743633D01*
X139725408Y-42600882D01*
X139725425Y-42581385D01*
X140050873Y-42581385D01*
X140212367Y-42990500D01*
X140233329Y-43021870D01*
X140408028Y-43096051D01*
X141124079Y-42380000D01*
X141195921Y-42380000D01*
X141911972Y-43096051D01*
X142086671Y-43021870D01*
X142261766Y-42618388D01*
X142262091Y-42598953D01*
X142594208Y-42598953D01*
X142762171Y-43005454D01*
X143072910Y-43316736D01*
X143479118Y-43485408D01*
X143918953Y-43485792D01*
X144325454Y-43317829D01*
X144636736Y-43007090D01*
X144805408Y-42600882D01*
X144805409Y-42598953D01*
X145134208Y-42598953D01*
X145302171Y-43005454D01*
X145612910Y-43316736D01*
X146019118Y-43485408D01*
X146458953Y-43485792D01*
X146865454Y-43317829D01*
X147176736Y-43007090D01*
X147345408Y-42600882D01*
X147345409Y-42598953D01*
X147674208Y-42598953D01*
X147842171Y-43005454D01*
X148152910Y-43316736D01*
X148559118Y-43485408D01*
X148998953Y-43485792D01*
X149405454Y-43317829D01*
X149716736Y-43007090D01*
X149885408Y-42600882D01*
X149885792Y-42161047D01*
X149717829Y-41754546D01*
X149407090Y-41443264D01*
X149000882Y-41274592D01*
X148561047Y-41274208D01*
X148154546Y-41442171D01*
X147843264Y-41752910D01*
X147674592Y-42159118D01*
X147674208Y-42598953D01*
X147345409Y-42598953D01*
X147345792Y-42161047D01*
X147177829Y-41754546D01*
X146867090Y-41443264D01*
X146460882Y-41274592D01*
X146021047Y-41274208D01*
X145614546Y-41442171D01*
X145303264Y-41752910D01*
X145134592Y-42159118D01*
X145134208Y-42598953D01*
X144805409Y-42598953D01*
X144805792Y-42161047D01*
X144637829Y-41754546D01*
X144327090Y-41443264D01*
X143920882Y-41274592D01*
X143481047Y-41274208D01*
X143074546Y-41442171D01*
X142763264Y-41752910D01*
X142594592Y-42159118D01*
X142594208Y-42598953D01*
X142262091Y-42598953D01*
X142269127Y-42178615D01*
X142107633Y-41769500D01*
X142086671Y-41738130D01*
X141911972Y-41663949D01*
X141195921Y-42380000D01*
X141124079Y-42380000D01*
X140408028Y-41663949D01*
X140233329Y-41738130D01*
X140058234Y-42141612D01*
X140050873Y-42581385D01*
X139725425Y-42581385D01*
X139725792Y-42161047D01*
X139557829Y-41754546D01*
X139431532Y-41628028D01*
X140443949Y-41628028D01*
X141160000Y-42344079D01*
X141876051Y-41628028D01*
X141801870Y-41453329D01*
X141398388Y-41278234D01*
X140958615Y-41270873D01*
X140549500Y-41432367D01*
X140518130Y-41453329D01*
X140443949Y-41628028D01*
X139431532Y-41628028D01*
X139247090Y-41443264D01*
X138840882Y-41274592D01*
X138401047Y-41274208D01*
X137994546Y-41442171D01*
X137683264Y-41752910D01*
X137514592Y-42159118D01*
X137514208Y-42598953D01*
X137682171Y-43005454D01*
X137992910Y-43316736D01*
X138399118Y-43485408D01*
X138838953Y-43485792D01*
X138983547Y-43426047D01*
X139588264Y-44030764D01*
X135873264Y-44030764D01*
X134586133Y-42743633D01*
X134645408Y-42600882D01*
X134645409Y-42598953D01*
X134974208Y-42598953D01*
X135142171Y-43005454D01*
X135452910Y-43316736D01*
X135859118Y-43485408D01*
X136298953Y-43485792D01*
X136705454Y-43317829D01*
X137016736Y-43007090D01*
X137185408Y-42600882D01*
X137185792Y-42161047D01*
X137017829Y-41754546D01*
X136707090Y-41443264D01*
X136300882Y-41274592D01*
X135861047Y-41274208D01*
X135454546Y-41442171D01*
X135143264Y-41752910D01*
X134974592Y-42159118D01*
X134974208Y-42598953D01*
X134645409Y-42598953D01*
X134645792Y-42161047D01*
X134477829Y-41754546D01*
X134167090Y-41443264D01*
X133760882Y-41274592D01*
X133321047Y-41274208D01*
X132914546Y-41442171D01*
X132679713Y-41676594D01*
X132661473Y-41584899D01*
X132573561Y-41453329D01*
X132556859Y-41428332D01*
X132556856Y-41428330D01*
X132036276Y-40907749D01*
X131879709Y-40803135D01*
X131695026Y-40766399D01*
X121971001Y-40766399D01*
X121786318Y-40803135D01*
X121629751Y-40907749D01*
X121203633Y-41333867D01*
X121060882Y-41274592D01*
X120621047Y-41274208D01*
X120214546Y-41442171D01*
X119903264Y-41752910D01*
X119734592Y-42159118D01*
X119734208Y-42598953D01*
X119405409Y-42598953D01*
X119405792Y-42161047D01*
X119237829Y-41754546D01*
X118927090Y-41443264D01*
X118520882Y-41274592D01*
X118081047Y-41274208D01*
X117674546Y-41442171D01*
X117363264Y-41752910D01*
X117194592Y-42159118D01*
X117194208Y-42598953D01*
X117362171Y-43005454D01*
X117672910Y-43316736D01*
X118079118Y-43485408D01*
X118518953Y-43485792D01*
X118663547Y-43426047D01*
X129288939Y-54051439D01*
X128113939Y-54051439D01*
X116806133Y-42743633D01*
X116865408Y-42600882D01*
X116865792Y-42161047D01*
X116697829Y-41754546D01*
X116387090Y-41443264D01*
X115980882Y-41274592D01*
X115541047Y-41274208D01*
X115134546Y-41442171D01*
X114823264Y-41752910D01*
X114654592Y-42159118D01*
X114654208Y-42598953D01*
X114822171Y-43005454D01*
X115132910Y-43316736D01*
X115539118Y-43485408D01*
X115978953Y-43485792D01*
X116123547Y-43426047D01*
X127572789Y-54875289D01*
X127729356Y-54979903D01*
X127914039Y-55016640D01*
X127914044Y-55016639D01*
X131844279Y-55016639D01*
X131844260Y-55016647D01*
X131617443Y-55243068D01*
X131494540Y-55539053D01*
X131494260Y-55859541D01*
X131616647Y-56155740D01*
X131817400Y-56356844D01*
X131817400Y-56873907D01*
X131627090Y-56683264D01*
X131220882Y-56514592D01*
X130781047Y-56514208D01*
X130374546Y-56682171D01*
X130063264Y-56992910D01*
X129894592Y-57399118D01*
X129894208Y-57838953D01*
X130062171Y-58245454D01*
X130372910Y-58556736D01*
X130517400Y-58616733D01*
X130517400Y-60883128D01*
X130554136Y-61067811D01*
X130658750Y-61224378D01*
X134751772Y-65317400D01*
X134499900Y-65317400D01*
X128942600Y-59760100D01*
X128942600Y-58616855D01*
X129085454Y-58557829D01*
X129396736Y-58247090D01*
X129565408Y-57840882D01*
X129565792Y-57401047D01*
X129397829Y-56994546D01*
X129087090Y-56683264D01*
X128680882Y-56514592D01*
X128241047Y-56514208D01*
X127834546Y-56682171D01*
X127523264Y-56992910D01*
X127354592Y-57399118D01*
X127354208Y-57838953D01*
X127522171Y-58245454D01*
X127832910Y-58556736D01*
X127977400Y-58616733D01*
X127977400Y-59960000D01*
X128001128Y-60079288D01*
X126498903Y-58577063D01*
X126545454Y-58557829D01*
X126856736Y-58247090D01*
X127025408Y-57840882D01*
X127025792Y-57401047D01*
X126857829Y-56994546D01*
X126547090Y-56683264D01*
X126140882Y-56514592D01*
X125701047Y-56514208D01*
X125294546Y-56682171D01*
X124983264Y-56992910D01*
X124814592Y-57399118D01*
X124814208Y-57838953D01*
X124982171Y-58245454D01*
X125292910Y-58556736D01*
X125437400Y-58616733D01*
X125437400Y-58680660D01*
X125474136Y-58865343D01*
X125578750Y-59021910D01*
X132890262Y-66333422D01*
X132775922Y-66333422D01*
X124426133Y-57983633D01*
X124485408Y-57840882D01*
X124485792Y-57401047D01*
X124317829Y-56994546D01*
X124007090Y-56683264D01*
X123600882Y-56514592D01*
X123161047Y-56514208D01*
X122754546Y-56682171D01*
X122443264Y-56992910D01*
X122274592Y-57399118D01*
X122274208Y-57838953D01*
X122442171Y-58245454D01*
X122752910Y-58556736D01*
X123159118Y-58725408D01*
X123598953Y-58725792D01*
X123743547Y-58666047D01*
X132026177Y-66948677D01*
X127531177Y-66948677D01*
X122828253Y-62245753D01*
X123532008Y-62245753D01*
X123699971Y-62652254D01*
X124010710Y-62963536D01*
X124416918Y-63132208D01*
X124856753Y-63132592D01*
X125263254Y-62964629D01*
X125574536Y-62653890D01*
X125743208Y-62247682D01*
X125743592Y-61807847D01*
X125575629Y-61401346D01*
X125264890Y-61090064D01*
X124858682Y-60921392D01*
X124418847Y-60921008D01*
X124012346Y-61088971D01*
X123701064Y-61399710D01*
X123532392Y-61805918D01*
X123532008Y-62245753D01*
X122828253Y-62245753D01*
X120082600Y-59500100D01*
X120082600Y-58426198D01*
X120212910Y-58556736D01*
X120619118Y-58725408D01*
X121058953Y-58725792D01*
X121465454Y-58557829D01*
X121776736Y-58247090D01*
X121945408Y-57840882D01*
X121945792Y-57401047D01*
X121777829Y-56994546D01*
X121467090Y-56683264D01*
X121060882Y-56514592D01*
X120621047Y-56514208D01*
X120214546Y-56682171D01*
X120082600Y-56813887D01*
X120082600Y-48760005D01*
X120082601Y-48760000D01*
X120045864Y-48575317D01*
X119991914Y-48494575D01*
X119941250Y-48418750D01*
X119941247Y-48418748D01*
X114266133Y-42743633D01*
X114325408Y-42600882D01*
X114325792Y-42161047D01*
X114157829Y-41754546D01*
X113847090Y-41443264D01*
X113440882Y-41274592D01*
X113001047Y-41274208D01*
X112594546Y-41442171D01*
X112283264Y-41752910D01*
X112114592Y-42159118D01*
X112114208Y-42598953D01*
X110430600Y-42598953D01*
X110430600Y-40430600D01*
X188552621Y-40430600D01*
X186465820Y-42517400D01*
G36*
X198978559Y-65300347D02*
X198894400Y-65723442D01*
X198894400Y-66276558D01*
X198978559Y-66699653D01*
X199218223Y-67058335D01*
X199517400Y-67258239D01*
X199517400Y-74000100D01*
X195384078Y-78133422D01*
X178549078Y-78133422D01*
X179536367Y-77146133D01*
X179679118Y-77205408D01*
X180118953Y-77205792D01*
X180525454Y-77037829D01*
X180836736Y-76727090D01*
X181005408Y-76320882D01*
X181005409Y-76318953D01*
X188954208Y-76318953D01*
X189122171Y-76725454D01*
X189432910Y-77036736D01*
X189839118Y-77205408D01*
X190278953Y-77205792D01*
X190685454Y-77037829D01*
X190996736Y-76727090D01*
X191165408Y-76320882D01*
X191165792Y-75881047D01*
X190997829Y-75474546D01*
X190687090Y-75163264D01*
X190280882Y-74994592D01*
X189841047Y-74994208D01*
X189434546Y-75162171D01*
X189123264Y-75472910D01*
X188954592Y-75879118D01*
X188954208Y-76318953D01*
X181005409Y-76318953D01*
X181005792Y-75881047D01*
X180837829Y-75474546D01*
X180527090Y-75163264D01*
X180120882Y-74994592D01*
X179681047Y-74994208D01*
X179274546Y-75162171D01*
X178963264Y-75472910D01*
X178794592Y-75879118D01*
X178794208Y-76318953D01*
X178853953Y-76463547D01*
X177911598Y-77405902D01*
X176176598Y-77405902D01*
X179536367Y-74046133D01*
X179679118Y-74105408D01*
X180118953Y-74105792D01*
X180525454Y-73937829D01*
X180836736Y-73627090D01*
X181005408Y-73220882D01*
X181005409Y-73218953D01*
X188954208Y-73218953D01*
X189122171Y-73625454D01*
X189432910Y-73936736D01*
X189839118Y-74105408D01*
X190278953Y-74105792D01*
X190685454Y-73937829D01*
X190996736Y-73627090D01*
X191104534Y-73367482D01*
X193144079Y-73367482D01*
X193425982Y-74049740D01*
X193947515Y-74572184D01*
X194629279Y-74855277D01*
X195367482Y-74855921D01*
X196049740Y-74574018D01*
X196572184Y-74052485D01*
X196855277Y-73370721D01*
X196855921Y-72632518D01*
X196574018Y-71950260D01*
X196052485Y-71427816D01*
X195370721Y-71144723D01*
X194632518Y-71144079D01*
X193950260Y-71425982D01*
X193427816Y-71947515D01*
X193144723Y-72629279D01*
X193144079Y-73367482D01*
X191104534Y-73367482D01*
X191165408Y-73220882D01*
X191165792Y-72781047D01*
X190997829Y-72374546D01*
X190687090Y-72063264D01*
X190280882Y-71894592D01*
X189841047Y-71894208D01*
X189434546Y-72062171D01*
X189123264Y-72372910D01*
X188954592Y-72779118D01*
X188954208Y-73218953D01*
X181005409Y-73218953D01*
X181005792Y-72781047D01*
X180837829Y-72374546D01*
X180527090Y-72063264D01*
X180120882Y-71894592D01*
X179681047Y-71894208D01*
X179274546Y-72062171D01*
X178963264Y-72372910D01*
X178794592Y-72779118D01*
X178794208Y-73218953D01*
X178853953Y-73363547D01*
X175319609Y-76897891D01*
X173825462Y-76897891D01*
X174096736Y-76627090D01*
X174265408Y-76220882D01*
X174265792Y-75781047D01*
X174097829Y-75374546D01*
X173787090Y-75063264D01*
X173380882Y-74894592D01*
X172941047Y-74894208D01*
X172534546Y-75062171D01*
X172223264Y-75372910D01*
X172054592Y-75779118D01*
X172054208Y-76218953D01*
X172222171Y-76625454D01*
X172494133Y-76897891D01*
X163665462Y-76897891D01*
X163936736Y-76627090D01*
X164105408Y-76220882D01*
X164105792Y-75781047D01*
X163937829Y-75374546D01*
X163627090Y-75063264D01*
X163220882Y-74894592D01*
X162781047Y-74894208D01*
X162374546Y-75062171D01*
X162063264Y-75372910D01*
X161894592Y-75779118D01*
X161894208Y-76218953D01*
X162062171Y-76625454D01*
X162334133Y-76897891D01*
X154480391Y-76897891D01*
X150801453Y-73218953D01*
X161894208Y-73218953D01*
X162062171Y-73625454D01*
X162372910Y-73936736D01*
X162779118Y-74105408D01*
X163218953Y-74105792D01*
X163625454Y-73937829D01*
X163936736Y-73627090D01*
X164105408Y-73220882D01*
X164105409Y-73218953D01*
X172054208Y-73218953D01*
X172222171Y-73625454D01*
X172532910Y-73936736D01*
X172939118Y-74105408D01*
X173378953Y-74105792D01*
X173785454Y-73937829D01*
X174096736Y-73627090D01*
X174265408Y-73220882D01*
X174265792Y-72781047D01*
X174097829Y-72374546D01*
X173787090Y-72063264D01*
X173380882Y-71894592D01*
X172941047Y-71894208D01*
X172534546Y-72062171D01*
X172223264Y-72372910D01*
X172054592Y-72779118D01*
X172054208Y-73218953D01*
X164105409Y-73218953D01*
X164105792Y-72781047D01*
X163937829Y-72374546D01*
X163627090Y-72063264D01*
X163220882Y-71894592D01*
X162781047Y-71894208D01*
X162374546Y-72062171D01*
X162063264Y-72372910D01*
X161894592Y-72779118D01*
X161894208Y-73218953D01*
X150801453Y-73218953D01*
X149841250Y-72258750D01*
X149684683Y-72154136D01*
X149500000Y-72117400D01*
X145796921Y-72117400D01*
X143506163Y-69826642D01*
X145029000Y-69826642D01*
X145029000Y-70279758D01*
X145116965Y-70721987D01*
X145367467Y-71096891D01*
X145742371Y-71347393D01*
X146184600Y-71435358D01*
X146626829Y-71347393D01*
X147001733Y-71096891D01*
X147252235Y-70721987D01*
X147340200Y-70279758D01*
X147340200Y-70078600D01*
X155029000Y-70078600D01*
X155029000Y-70278600D01*
X155126685Y-70718896D01*
X155385428Y-71088294D01*
X155765838Y-71330556D01*
X155978781Y-71390324D01*
X156159200Y-71319598D01*
X156159200Y-70078600D01*
X156210000Y-70078600D01*
X156210000Y-71319598D01*
X156390419Y-71390324D01*
X156603362Y-71330556D01*
X156983772Y-71088294D01*
X157242515Y-70718896D01*
X157340200Y-70278600D01*
X157340200Y-70218953D01*
X161894208Y-70218953D01*
X162062171Y-70625454D01*
X162372910Y-70936736D01*
X162779118Y-71105408D01*
X163218953Y-71105792D01*
X163625454Y-70937829D01*
X163936736Y-70627090D01*
X164105408Y-70220882D01*
X164105409Y-70218953D01*
X172054208Y-70218953D01*
X172222171Y-70625454D01*
X172532910Y-70936736D01*
X172939118Y-71105408D01*
X173378953Y-71105792D01*
X173785454Y-70937829D01*
X174096736Y-70627090D01*
X174265408Y-70220882D01*
X174265409Y-70218953D01*
X178734208Y-70218953D01*
X178902171Y-70625454D01*
X179212910Y-70936736D01*
X179619118Y-71105408D01*
X180058953Y-71105792D01*
X180465454Y-70937829D01*
X180776736Y-70627090D01*
X180945408Y-70220882D01*
X180945409Y-70218953D01*
X188894208Y-70218953D01*
X189062171Y-70625454D01*
X189372910Y-70936736D01*
X189779118Y-71105408D01*
X190218953Y-71105792D01*
X190625454Y-70937829D01*
X190936736Y-70627090D01*
X191105408Y-70220882D01*
X191105792Y-69781047D01*
X190937829Y-69374546D01*
X190627090Y-69063264D01*
X190220882Y-68894592D01*
X189781047Y-68894208D01*
X189374546Y-69062171D01*
X189063264Y-69372910D01*
X188894592Y-69779118D01*
X188894208Y-70218953D01*
X180945409Y-70218953D01*
X180945792Y-69781047D01*
X180777829Y-69374546D01*
X180467090Y-69063264D01*
X180060882Y-68894592D01*
X179621047Y-68894208D01*
X179214546Y-69062171D01*
X178903264Y-69372910D01*
X178734592Y-69779118D01*
X178734208Y-70218953D01*
X174265409Y-70218953D01*
X174265792Y-69781047D01*
X174097829Y-69374546D01*
X173787090Y-69063264D01*
X173380882Y-68894592D01*
X172941047Y-68894208D01*
X172534546Y-69062171D01*
X172223264Y-69372910D01*
X172054592Y-69779118D01*
X172054208Y-70218953D01*
X164105409Y-70218953D01*
X164105792Y-69781047D01*
X163937829Y-69374546D01*
X163627090Y-69063264D01*
X163220882Y-68894592D01*
X162781047Y-68894208D01*
X162374546Y-69062171D01*
X162063264Y-69372910D01*
X161894592Y-69779118D01*
X161894208Y-70218953D01*
X157340200Y-70218953D01*
X157340200Y-70078600D01*
X156210000Y-70078600D01*
X156159200Y-70078600D01*
X155029000Y-70078600D01*
X147340200Y-70078600D01*
X147340200Y-69827800D01*
X155029000Y-69827800D01*
X155029000Y-70027800D01*
X156159200Y-70027800D01*
X156159200Y-68786802D01*
X156210000Y-68786802D01*
X156210000Y-70027800D01*
X157340200Y-70027800D01*
X157340200Y-69827800D01*
X157242515Y-69387504D01*
X156983772Y-69018106D01*
X156603362Y-68775844D01*
X156390419Y-68716076D01*
X156210000Y-68786802D01*
X156159200Y-68786802D01*
X155978781Y-68716076D01*
X155765838Y-68775844D01*
X155385428Y-69018106D01*
X155126685Y-69387504D01*
X155029000Y-69827800D01*
X147340200Y-69827800D01*
X147340200Y-69826642D01*
X147252235Y-69384413D01*
X147001733Y-69009509D01*
X146626829Y-68759007D01*
X146184600Y-68671042D01*
X145742371Y-68759007D01*
X145367467Y-69009509D01*
X145116965Y-69384413D01*
X145029000Y-69826642D01*
X143506163Y-69826642D01*
X141954273Y-68274752D01*
X193626284Y-68274752D01*
X193810967Y-68238016D01*
X193967534Y-68133402D01*
X196075536Y-66025400D01*
X196394400Y-66025400D01*
X196394400Y-66275400D01*
X196488279Y-66696561D01*
X196736183Y-67049737D01*
X197100371Y-67281161D01*
X197302004Y-67337726D01*
X197474600Y-67266383D01*
X197474600Y-66025400D01*
X197525400Y-66025400D01*
X197525400Y-67266383D01*
X197697996Y-67337726D01*
X197899629Y-67281161D01*
X198263817Y-67049737D01*
X198511721Y-66696561D01*
X198605600Y-66275400D01*
X198605600Y-66025400D01*
X197525400Y-66025400D01*
X197474600Y-66025400D01*
X196394400Y-66025400D01*
X196075536Y-66025400D01*
X196399582Y-65701354D01*
X196394400Y-65724600D01*
X196394400Y-65974600D01*
X197474600Y-65974600D01*
X197474600Y-65954600D01*
X197525400Y-65954600D01*
X197525400Y-65974600D01*
X198605600Y-65974600D01*
X198605600Y-65724600D01*
X198511721Y-65303439D01*
X198334380Y-65050790D01*
X199145308Y-65050790D01*
X198978559Y-65300347D01*
X198978559Y-65300347D01*
G37*
X198978559Y-65300347D02*
X198894400Y-65723442D01*
X198894400Y-66276558D01*
X198978559Y-66699653D01*
X199218223Y-67058335D01*
X199517400Y-67258239D01*
X199517400Y-74000100D01*
X195384078Y-78133422D01*
X178549078Y-78133422D01*
X179536367Y-77146133D01*
X179679118Y-77205408D01*
X180118953Y-77205792D01*
X180525454Y-77037829D01*
X180836736Y-76727090D01*
X181005408Y-76320882D01*
X181005409Y-76318953D01*
X188954208Y-76318953D01*
X189122171Y-76725454D01*
X189432910Y-77036736D01*
X189839118Y-77205408D01*
X190278953Y-77205792D01*
X190685454Y-77037829D01*
X190996736Y-76727090D01*
X191165408Y-76320882D01*
X191165792Y-75881047D01*
X190997829Y-75474546D01*
X190687090Y-75163264D01*
X190280882Y-74994592D01*
X189841047Y-74994208D01*
X189434546Y-75162171D01*
X189123264Y-75472910D01*
X188954592Y-75879118D01*
X188954208Y-76318953D01*
X181005409Y-76318953D01*
X181005792Y-75881047D01*
X180837829Y-75474546D01*
X180527090Y-75163264D01*
X180120882Y-74994592D01*
X179681047Y-74994208D01*
X179274546Y-75162171D01*
X178963264Y-75472910D01*
X178794592Y-75879118D01*
X178794208Y-76318953D01*
X178853953Y-76463547D01*
X177911598Y-77405902D01*
X176176598Y-77405902D01*
X179536367Y-74046133D01*
X179679118Y-74105408D01*
X180118953Y-74105792D01*
X180525454Y-73937829D01*
X180836736Y-73627090D01*
X181005408Y-73220882D01*
X181005409Y-73218953D01*
X188954208Y-73218953D01*
X189122171Y-73625454D01*
X189432910Y-73936736D01*
X189839118Y-74105408D01*
X190278953Y-74105792D01*
X190685454Y-73937829D01*
X190996736Y-73627090D01*
X191104534Y-73367482D01*
X193144079Y-73367482D01*
X193425982Y-74049740D01*
X193947515Y-74572184D01*
X194629279Y-74855277D01*
X195367482Y-74855921D01*
X196049740Y-74574018D01*
X196572184Y-74052485D01*
X196855277Y-73370721D01*
X196855921Y-72632518D01*
X196574018Y-71950260D01*
X196052485Y-71427816D01*
X195370721Y-71144723D01*
X194632518Y-71144079D01*
X193950260Y-71425982D01*
X193427816Y-71947515D01*
X193144723Y-72629279D01*
X193144079Y-73367482D01*
X191104534Y-73367482D01*
X191165408Y-73220882D01*
X191165792Y-72781047D01*
X190997829Y-72374546D01*
X190687090Y-72063264D01*
X190280882Y-71894592D01*
X189841047Y-71894208D01*
X189434546Y-72062171D01*
X189123264Y-72372910D01*
X188954592Y-72779118D01*
X188954208Y-73218953D01*
X181005409Y-73218953D01*
X181005792Y-72781047D01*
X180837829Y-72374546D01*
X180527090Y-72063264D01*
X180120882Y-71894592D01*
X179681047Y-71894208D01*
X179274546Y-72062171D01*
X178963264Y-72372910D01*
X178794592Y-72779118D01*
X178794208Y-73218953D01*
X178853953Y-73363547D01*
X175319609Y-76897891D01*
X173825462Y-76897891D01*
X174096736Y-76627090D01*
X174265408Y-76220882D01*
X174265792Y-75781047D01*
X174097829Y-75374546D01*
X173787090Y-75063264D01*
X173380882Y-74894592D01*
X172941047Y-74894208D01*
X172534546Y-75062171D01*
X172223264Y-75372910D01*
X172054592Y-75779118D01*
X172054208Y-76218953D01*
X172222171Y-76625454D01*
X172494133Y-76897891D01*
X163665462Y-76897891D01*
X163936736Y-76627090D01*
X164105408Y-76220882D01*
X164105792Y-75781047D01*
X163937829Y-75374546D01*
X163627090Y-75063264D01*
X163220882Y-74894592D01*
X162781047Y-74894208D01*
X162374546Y-75062171D01*
X162063264Y-75372910D01*
X161894592Y-75779118D01*
X161894208Y-76218953D01*
X162062171Y-76625454D01*
X162334133Y-76897891D01*
X154480391Y-76897891D01*
X150801453Y-73218953D01*
X161894208Y-73218953D01*
X162062171Y-73625454D01*
X162372910Y-73936736D01*
X162779118Y-74105408D01*
X163218953Y-74105792D01*
X163625454Y-73937829D01*
X163936736Y-73627090D01*
X164105408Y-73220882D01*
X164105409Y-73218953D01*
X172054208Y-73218953D01*
X172222171Y-73625454D01*
X172532910Y-73936736D01*
X172939118Y-74105408D01*
X173378953Y-74105792D01*
X173785454Y-73937829D01*
X174096736Y-73627090D01*
X174265408Y-73220882D01*
X174265792Y-72781047D01*
X174097829Y-72374546D01*
X173787090Y-72063264D01*
X173380882Y-71894592D01*
X172941047Y-71894208D01*
X172534546Y-72062171D01*
X172223264Y-72372910D01*
X172054592Y-72779118D01*
X172054208Y-73218953D01*
X164105409Y-73218953D01*
X164105792Y-72781047D01*
X163937829Y-72374546D01*
X163627090Y-72063264D01*
X163220882Y-71894592D01*
X162781047Y-71894208D01*
X162374546Y-72062171D01*
X162063264Y-72372910D01*
X161894592Y-72779118D01*
X161894208Y-73218953D01*
X150801453Y-73218953D01*
X149841250Y-72258750D01*
X149684683Y-72154136D01*
X149500000Y-72117400D01*
X145796921Y-72117400D01*
X143506163Y-69826642D01*
X145029000Y-69826642D01*
X145029000Y-70279758D01*
X145116965Y-70721987D01*
X145367467Y-71096891D01*
X145742371Y-71347393D01*
X146184600Y-71435358D01*
X146626829Y-71347393D01*
X147001733Y-71096891D01*
X147252235Y-70721987D01*
X147340200Y-70279758D01*
X147340200Y-70078600D01*
X155029000Y-70078600D01*
X155029000Y-70278600D01*
X155126685Y-70718896D01*
X155385428Y-71088294D01*
X155765838Y-71330556D01*
X155978781Y-71390324D01*
X156159200Y-71319598D01*
X156159200Y-70078600D01*
X156210000Y-70078600D01*
X156210000Y-71319598D01*
X156390419Y-71390324D01*
X156603362Y-71330556D01*
X156983772Y-71088294D01*
X157242515Y-70718896D01*
X157340200Y-70278600D01*
X157340200Y-70218953D01*
X161894208Y-70218953D01*
X162062171Y-70625454D01*
X162372910Y-70936736D01*
X162779118Y-71105408D01*
X163218953Y-71105792D01*
X163625454Y-70937829D01*
X163936736Y-70627090D01*
X164105408Y-70220882D01*
X164105409Y-70218953D01*
X172054208Y-70218953D01*
X172222171Y-70625454D01*
X172532910Y-70936736D01*
X172939118Y-71105408D01*
X173378953Y-71105792D01*
X173785454Y-70937829D01*
X174096736Y-70627090D01*
X174265408Y-70220882D01*
X174265409Y-70218953D01*
X178734208Y-70218953D01*
X178902171Y-70625454D01*
X179212910Y-70936736D01*
X179619118Y-71105408D01*
X180058953Y-71105792D01*
X180465454Y-70937829D01*
X180776736Y-70627090D01*
X180945408Y-70220882D01*
X180945409Y-70218953D01*
X188894208Y-70218953D01*
X189062171Y-70625454D01*
X189372910Y-70936736D01*
X189779118Y-71105408D01*
X190218953Y-71105792D01*
X190625454Y-70937829D01*
X190936736Y-70627090D01*
X191105408Y-70220882D01*
X191105792Y-69781047D01*
X190937829Y-69374546D01*
X190627090Y-69063264D01*
X190220882Y-68894592D01*
X189781047Y-68894208D01*
X189374546Y-69062171D01*
X189063264Y-69372910D01*
X188894592Y-69779118D01*
X188894208Y-70218953D01*
X180945409Y-70218953D01*
X180945792Y-69781047D01*
X180777829Y-69374546D01*
X180467090Y-69063264D01*
X180060882Y-68894592D01*
X179621047Y-68894208D01*
X179214546Y-69062171D01*
X178903264Y-69372910D01*
X178734592Y-69779118D01*
X178734208Y-70218953D01*
X174265409Y-70218953D01*
X174265792Y-69781047D01*
X174097829Y-69374546D01*
X173787090Y-69063264D01*
X173380882Y-68894592D01*
X172941047Y-68894208D01*
X172534546Y-69062171D01*
X172223264Y-69372910D01*
X172054592Y-69779118D01*
X172054208Y-70218953D01*
X164105409Y-70218953D01*
X164105792Y-69781047D01*
X163937829Y-69374546D01*
X163627090Y-69063264D01*
X163220882Y-68894592D01*
X162781047Y-68894208D01*
X162374546Y-69062171D01*
X162063264Y-69372910D01*
X161894592Y-69779118D01*
X161894208Y-70218953D01*
X157340200Y-70218953D01*
X157340200Y-70078600D01*
X156210000Y-70078600D01*
X156159200Y-70078600D01*
X155029000Y-70078600D01*
X147340200Y-70078600D01*
X147340200Y-69827800D01*
X155029000Y-69827800D01*
X155029000Y-70027800D01*
X156159200Y-70027800D01*
X156159200Y-68786802D01*
X156210000Y-68786802D01*
X156210000Y-70027800D01*
X157340200Y-70027800D01*
X157340200Y-69827800D01*
X157242515Y-69387504D01*
X156983772Y-69018106D01*
X156603362Y-68775844D01*
X156390419Y-68716076D01*
X156210000Y-68786802D01*
X156159200Y-68786802D01*
X155978781Y-68716076D01*
X155765838Y-68775844D01*
X155385428Y-69018106D01*
X155126685Y-69387504D01*
X155029000Y-69827800D01*
X147340200Y-69827800D01*
X147340200Y-69826642D01*
X147252235Y-69384413D01*
X147001733Y-69009509D01*
X146626829Y-68759007D01*
X146184600Y-68671042D01*
X145742371Y-68759007D01*
X145367467Y-69009509D01*
X145116965Y-69384413D01*
X145029000Y-69826642D01*
X143506163Y-69826642D01*
X141954273Y-68274752D01*
X193626284Y-68274752D01*
X193810967Y-68238016D01*
X193967534Y-68133402D01*
X196075536Y-66025400D01*
X196394400Y-66025400D01*
X196394400Y-66275400D01*
X196488279Y-66696561D01*
X196736183Y-67049737D01*
X197100371Y-67281161D01*
X197302004Y-67337726D01*
X197474600Y-67266383D01*
X197474600Y-66025400D01*
X197525400Y-66025400D01*
X197525400Y-67266383D01*
X197697996Y-67337726D01*
X197899629Y-67281161D01*
X198263817Y-67049737D01*
X198511721Y-66696561D01*
X198605600Y-66275400D01*
X198605600Y-66025400D01*
X197525400Y-66025400D01*
X197474600Y-66025400D01*
X196394400Y-66025400D01*
X196075536Y-66025400D01*
X196399582Y-65701354D01*
X196394400Y-65724600D01*
X196394400Y-65974600D01*
X197474600Y-65974600D01*
X197474600Y-65954600D01*
X197525400Y-65954600D01*
X197525400Y-65974600D01*
X198605600Y-65974600D01*
X198605600Y-65724600D01*
X198511721Y-65303439D01*
X198334380Y-65050790D01*
X199145308Y-65050790D01*
X198978559Y-65300347D01*
G36*
X131817400Y-58500000D02*
X131854136Y-58684683D01*
X131958750Y-58841250D01*
X133913934Y-60796434D01*
X134070501Y-60901048D01*
X134255184Y-60937785D01*
X134255189Y-60937784D01*
X134545468Y-60937784D01*
X134187300Y-61079167D01*
X134155930Y-61100129D01*
X134081749Y-61274828D01*
X134797800Y-61990879D01*
X135513851Y-61274828D01*
X135439670Y-61100129D01*
X135065569Y-60937784D01*
X135895810Y-60937784D01*
X141447678Y-66489652D01*
X141447431Y-66772186D01*
X141569818Y-67068385D01*
X141796239Y-67295202D01*
X141830798Y-67309552D01*
X141707508Y-67309552D01*
X139033351Y-64635394D01*
X138876784Y-64530780D01*
X138692101Y-64494044D01*
X135293416Y-64494044D01*
X133578144Y-62778772D01*
X134081749Y-62778772D01*
X134155930Y-62953471D01*
X134559412Y-63128566D01*
X134999185Y-63135927D01*
X135408300Y-62974433D01*
X135439670Y-62953471D01*
X135513851Y-62778772D01*
X134797800Y-62062721D01*
X134081749Y-62778772D01*
X133578144Y-62778772D01*
X133027557Y-62228185D01*
X133688673Y-62228185D01*
X133850167Y-62637300D01*
X133871129Y-62668670D01*
X134045828Y-62742851D01*
X134761879Y-62026800D01*
X134833721Y-62026800D01*
X135549772Y-62742851D01*
X135724471Y-62668670D01*
X135899566Y-62265188D01*
X135906927Y-61825415D01*
X135745433Y-61416300D01*
X135724471Y-61384930D01*
X135549772Y-61310749D01*
X134833721Y-62026800D01*
X134761879Y-62026800D01*
X134045828Y-61310749D01*
X133871129Y-61384930D01*
X133696034Y-61788412D01*
X133688673Y-62228185D01*
X133027557Y-62228185D01*
X131482600Y-60683228D01*
X131482600Y-58616855D01*
X131625454Y-58557829D01*
X131817400Y-58366218D01*
X131817400Y-58500000D01*
X131817400Y-58500000D01*
G37*
X131817400Y-58500000D02*
X131854136Y-58684683D01*
X131958750Y-58841250D01*
X133913934Y-60796434D01*
X134070501Y-60901048D01*
X134255184Y-60937785D01*
X134255189Y-60937784D01*
X134545468Y-60937784D01*
X134187300Y-61079167D01*
X134155930Y-61100129D01*
X134081749Y-61274828D01*
X134797800Y-61990879D01*
X135513851Y-61274828D01*
X135439670Y-61100129D01*
X135065569Y-60937784D01*
X135895810Y-60937784D01*
X141447678Y-66489652D01*
X141447431Y-66772186D01*
X141569818Y-67068385D01*
X141796239Y-67295202D01*
X141830798Y-67309552D01*
X141707508Y-67309552D01*
X139033351Y-64635394D01*
X138876784Y-64530780D01*
X138692101Y-64494044D01*
X135293416Y-64494044D01*
X133578144Y-62778772D01*
X134081749Y-62778772D01*
X134155930Y-62953471D01*
X134559412Y-63128566D01*
X134999185Y-63135927D01*
X135408300Y-62974433D01*
X135439670Y-62953471D01*
X135513851Y-62778772D01*
X134797800Y-62062721D01*
X134081749Y-62778772D01*
X133578144Y-62778772D01*
X133027557Y-62228185D01*
X133688673Y-62228185D01*
X133850167Y-62637300D01*
X133871129Y-62668670D01*
X134045828Y-62742851D01*
X134761879Y-62026800D01*
X134833721Y-62026800D01*
X135549772Y-62742851D01*
X135724471Y-62668670D01*
X135899566Y-62265188D01*
X135906927Y-61825415D01*
X135745433Y-61416300D01*
X135724471Y-61384930D01*
X135549772Y-61310749D01*
X134833721Y-62026800D01*
X134761879Y-62026800D01*
X134045828Y-61310749D01*
X133871129Y-61384930D01*
X133696034Y-61788412D01*
X133688673Y-62228185D01*
X133027557Y-62228185D01*
X131482600Y-60683228D01*
X131482600Y-58616855D01*
X131625454Y-58557829D01*
X131817400Y-58366218D01*
X131817400Y-58500000D01*
M02*
