G04 #@! TF.FileFunction,Copper,L1,Top,Signal*
%FSLAX46Y46*%
G04 Gerber Fmt 4.6, Leading zero omitted, Abs format (unit mm)*
G04 Created by KiCad (PCBNEW 4.0.2-4+6225~38~ubuntu14.04.1-stable) date dom 13 mar 2016 16:30:14 CET*
%MOMM*%
G01*
G04 APERTURE LIST*
%ADD10C,0.100000*%
%ADD11C,1.500000*%
%ADD12O,1.524000X1.200000*%
%ADD13C,1.699260*%
%ADD14R,1.699260X1.699260*%
%ADD15R,2.032000X1.727200*%
%ADD16O,2.032000X1.727200*%
%ADD17O,0.899160X1.501140*%
%ADD18C,1.998980*%
%ADD19O,0.900000X1.200000*%
%ADD20R,0.900000X1.200000*%
%ADD21O,1.500000X2.000000*%
%ADD22C,3.000000*%
%ADD23C,1.200000*%
%ADD24O,1.600000X2.000000*%
%ADD25R,2.032000X2.032000*%
%ADD26O,2.032000X2.032000*%
%ADD27O,1.699260X3.500120*%
%ADD28O,2.000000X4.000000*%
%ADD29O,4.000000X2.000000*%
%ADD30R,1.300000X1.300000*%
%ADD31C,1.300000*%
%ADD32C,0.700000*%
%ADD33C,0.254000*%
%ADD34C,0.762000*%
%ADD35C,0.203200*%
G04 APERTURE END LIST*
D10*
D11*
X148780000Y-42380000D03*
X146240000Y-42380000D03*
X143700000Y-42380000D03*
X141160000Y-42380000D03*
X138620000Y-42380000D03*
X136080000Y-42380000D03*
X133540000Y-42380000D03*
X131000000Y-42380000D03*
X128460000Y-42380000D03*
X125920000Y-42380000D03*
X123380000Y-42380000D03*
X120840000Y-42380000D03*
X118300000Y-42380000D03*
X115760000Y-42380000D03*
X113220000Y-42380000D03*
X113220000Y-57620000D03*
X115760000Y-57620000D03*
X118300000Y-57620000D03*
X120840000Y-57620000D03*
X123380000Y-57620000D03*
X125920000Y-57620000D03*
X128460000Y-57620000D03*
X131000000Y-57620000D03*
X133540000Y-57620000D03*
X136080000Y-57620000D03*
X138620000Y-57620000D03*
X141160000Y-57620000D03*
X143700000Y-57620000D03*
X146240000Y-57620000D03*
X148780000Y-57620000D03*
D12*
X170380000Y-44380000D03*
X170380000Y-46920000D03*
X170380000Y-49460000D03*
X170380000Y-52000000D03*
X170380000Y-54540000D03*
X170380000Y-57080000D03*
X178000000Y-44380000D03*
X178000000Y-46920000D03*
X178000000Y-49460000D03*
X178000000Y-52000000D03*
X178000000Y-54540000D03*
X178000000Y-57080000D03*
D13*
X112000000Y-65000000D03*
D14*
X122160000Y-65000000D03*
D15*
X207000000Y-54460000D03*
D16*
X207000000Y-57000000D03*
X207000000Y-59540000D03*
X207000000Y-62080000D03*
D17*
X199730000Y-50000000D03*
X198460000Y-50000000D03*
X201000000Y-50000000D03*
X199730000Y-55000000D03*
X198460000Y-55000000D03*
X201000000Y-55000000D03*
X199700000Y-60000000D03*
X198430000Y-60000000D03*
X200970000Y-60000000D03*
X162730000Y-64000000D03*
X161460000Y-64000000D03*
X164000000Y-64000000D03*
X170000000Y-64000000D03*
X168730000Y-64000000D03*
X171270000Y-64000000D03*
X191730000Y-64000000D03*
X190460000Y-64000000D03*
X193000000Y-64000000D03*
X177000000Y-64000000D03*
X175730000Y-64000000D03*
X178270000Y-64000000D03*
X184000000Y-64000000D03*
X182730000Y-64000000D03*
X185270000Y-64000000D03*
D18*
X194000000Y-52000000D03*
X183840000Y-52000000D03*
X194000000Y-55000000D03*
X183840000Y-55000000D03*
X194030600Y-58013600D03*
X183870600Y-58013600D03*
X183840000Y-43000000D03*
X194000000Y-43000000D03*
X183850000Y-49000000D03*
X194010000Y-49000000D03*
X183850000Y-46000000D03*
X194010000Y-46000000D03*
X173160000Y-76000000D03*
X163000000Y-76000000D03*
X165000000Y-46000000D03*
X154840000Y-46000000D03*
X173160000Y-70000000D03*
X163000000Y-70000000D03*
X165000000Y-55000000D03*
X154840000Y-55000000D03*
X173160000Y-73000000D03*
X163000000Y-73000000D03*
X164910000Y-43000000D03*
X154750000Y-43000000D03*
X165000000Y-49000000D03*
X154840000Y-49000000D03*
X165000000Y-52000000D03*
X154840000Y-52000000D03*
X165000000Y-58000000D03*
X154840000Y-58000000D03*
X190000000Y-70000000D03*
X179840000Y-70000000D03*
X190060000Y-76100000D03*
X179900000Y-76100000D03*
X190060000Y-73000000D03*
X179900000Y-73000000D03*
X134797800Y-62026800D03*
X124637800Y-62026800D03*
D19*
X199466200Y-44000000D03*
D20*
X200736200Y-44000000D03*
D19*
X198196200Y-44000000D03*
X202006200Y-44000000D03*
D21*
X200000000Y-66000000D03*
X202500000Y-66000000D03*
X197500000Y-66000000D03*
D22*
X205000000Y-73000000D03*
X195000000Y-73000000D03*
D23*
X130400000Y-69000000D03*
X127000000Y-69000000D03*
D24*
X146184600Y-70053200D03*
X156184600Y-70053200D03*
D25*
X207000000Y-48000000D03*
D26*
X207000000Y-45460000D03*
D27*
X136460000Y-76000000D03*
X139000000Y-76000000D03*
X133920000Y-76000000D03*
D28*
X121000000Y-73000000D03*
X114850000Y-73000000D03*
D29*
X118150000Y-78000000D03*
D30*
X135500000Y-69000000D03*
D31*
X137500000Y-69000000D03*
D30*
X127500000Y-76000000D03*
D31*
X125500000Y-76000000D03*
D30*
X143000000Y-62000000D03*
D31*
X140500000Y-62000000D03*
D32*
X151900000Y-65200000D03*
X146600000Y-63300000D03*
X159251868Y-45818301D03*
X158520798Y-48789721D03*
X160108196Y-51483239D03*
X148545822Y-74539031D03*
X135500000Y-72500000D03*
X142497241Y-66902759D03*
X132300000Y-55700000D03*
D33*
X143000000Y-62000000D02*
X143000000Y-62954000D01*
X143000000Y-62954000D02*
X145246000Y-65200000D01*
X145246000Y-65200000D02*
X151900000Y-65200000D01*
D34*
X127500000Y-76000000D02*
X133920000Y-76000000D01*
D33*
X140736872Y-59736872D02*
X139369999Y-58369999D01*
X139369999Y-58369999D02*
X138620000Y-57620000D01*
X146600000Y-63300000D02*
X143036872Y-59736872D01*
X143036872Y-59736872D02*
X140736872Y-59736872D01*
X207000000Y-59540000D02*
X206847600Y-59540000D01*
X206847600Y-59540000D02*
X203617600Y-62770000D01*
X203617600Y-62770000D02*
X197930000Y-62770000D01*
X136217672Y-59589373D02*
X134427987Y-59589373D01*
X197930000Y-62770000D02*
X193068199Y-67631801D01*
X193068199Y-67631801D02*
X144260100Y-67631801D01*
X144260100Y-67631801D02*
X136217672Y-59589373D01*
X134427987Y-59589373D02*
X133540000Y-58701386D01*
X133540000Y-58701386D02*
X133540000Y-57620000D01*
X131000000Y-57620000D02*
X131000000Y-60883128D01*
X131000000Y-60883128D02*
X135093516Y-64976644D01*
X135093516Y-64976644D02*
X139158208Y-64976644D01*
X196850246Y-64568190D02*
X207131810Y-64568190D01*
X139158208Y-64976644D02*
X142689574Y-68508010D01*
X207131810Y-64568190D02*
X208900000Y-62800000D01*
X142689574Y-68508010D02*
X192910426Y-68508010D01*
X192910426Y-68508010D02*
X196850246Y-64568190D01*
X208900000Y-62800000D02*
X208900000Y-58747600D01*
X208900000Y-58747600D02*
X207152400Y-57000000D01*
X207152400Y-57000000D02*
X207000000Y-57000000D01*
X127160000Y-69000000D02*
X127000000Y-69000000D01*
D34*
X135500000Y-69000000D02*
X135500000Y-70412000D01*
X139000000Y-73912000D02*
X139000000Y-76000000D01*
X135500000Y-70412000D02*
X139000000Y-73912000D01*
X122160000Y-65000000D02*
X122160000Y-67219800D01*
X122160000Y-67219800D02*
X125653800Y-70713600D01*
X125653800Y-70713600D02*
X132283200Y-70713600D01*
X132283200Y-70713600D02*
X133996800Y-69000000D01*
X133996800Y-69000000D02*
X135500000Y-69000000D01*
D33*
X158901869Y-45468302D02*
X159251868Y-45818301D01*
X157814058Y-44380491D02*
X158901869Y-45468302D01*
X138620000Y-42380000D02*
X140620491Y-44380491D01*
X140620491Y-44380491D02*
X157814058Y-44380491D01*
X138779509Y-47619509D02*
X157350586Y-47619509D01*
X157350586Y-47619509D02*
X158170799Y-48439722D01*
X158170799Y-48439722D02*
X158520798Y-48789721D01*
X133540000Y-42380000D02*
X138779509Y-47619509D01*
X139181040Y-50561040D02*
X159185997Y-50561040D01*
X131000000Y-42380000D02*
X139181040Y-50561040D01*
X159758197Y-51133240D02*
X160108196Y-51483239D01*
X159185997Y-50561040D02*
X159758197Y-51133240D01*
X163980491Y-50619509D02*
X161219509Y-53380491D01*
X161219509Y-53380491D02*
X131840491Y-53380491D01*
X131840491Y-53380491D02*
X121589999Y-43129999D01*
X121589999Y-43129999D02*
X120840000Y-42380000D01*
X183840000Y-52000000D02*
X182459509Y-50619509D01*
X182459509Y-50619509D02*
X163980491Y-50619509D01*
X182840511Y-54000511D02*
X183840000Y-55000000D01*
X160019509Y-56380491D02*
X162841010Y-53558990D01*
X150498927Y-56380491D02*
X160019509Y-56380491D01*
X182398990Y-53558990D02*
X182840511Y-54000511D01*
X148144465Y-54026029D02*
X150498927Y-56380491D01*
X129946028Y-54026028D02*
X148144465Y-54026029D01*
X118300000Y-42380000D02*
X129946028Y-54026028D01*
X162841010Y-53558990D02*
X182398990Y-53558990D01*
X147934039Y-54534039D02*
X153200000Y-59800000D01*
X127914039Y-54534039D02*
X147934039Y-54534039D01*
X115760000Y-42380000D02*
X127914039Y-54534039D01*
X153200000Y-59800000D02*
X182200000Y-59800000D01*
X182200000Y-59800000D02*
X184000000Y-58000000D01*
X145183723Y-74539031D02*
X148050848Y-74539031D01*
X138075969Y-67431277D02*
X145183723Y-74539031D01*
X127331277Y-67431277D02*
X138075969Y-67431277D01*
X119600000Y-59700000D02*
X127331277Y-67431277D01*
X113220000Y-42380000D02*
X119600000Y-48760000D01*
X119600000Y-48760000D02*
X119600000Y-59700000D01*
X148050848Y-74539031D02*
X148545822Y-74539031D01*
X113220000Y-61020000D02*
X124700000Y-72500000D01*
X124700000Y-72500000D02*
X135500000Y-72500000D01*
X113220000Y-57620000D02*
X113220000Y-61020000D01*
X194000000Y-52000000D02*
X199100000Y-52000000D01*
X199100000Y-52000000D02*
X199730000Y-51370000D01*
X199730000Y-51370000D02*
X199730000Y-50000000D01*
X194000000Y-55000000D02*
X195500000Y-53500000D01*
X195500000Y-53500000D02*
X198530990Y-53500000D01*
X198530990Y-53500000D02*
X199730000Y-54699010D01*
X199730000Y-54699010D02*
X199730000Y-55000000D01*
X194160000Y-58000000D02*
X199050000Y-58000000D01*
X199050000Y-58000000D02*
X199700000Y-58650000D01*
X199700000Y-58650000D02*
X199700000Y-60000000D01*
X165000000Y-49000000D02*
X167080000Y-46920000D01*
X167080000Y-46920000D02*
X170380000Y-46920000D01*
X183850000Y-46000000D02*
X184849489Y-45000511D01*
X197860790Y-41091990D02*
X199466200Y-42697400D01*
X184849489Y-45000511D02*
X185383645Y-45000511D01*
X185383645Y-45000511D02*
X189292166Y-41091990D01*
X189292166Y-41091990D02*
X197860790Y-41091990D01*
X199466200Y-42697400D02*
X199466200Y-44000000D01*
X183850000Y-49000000D02*
X186100000Y-46750000D01*
X186100000Y-46750000D02*
X186100000Y-45026068D01*
X189526068Y-41600000D02*
X196900000Y-41600000D01*
X186100000Y-45026068D02*
X189526068Y-41600000D01*
X196900000Y-41600000D02*
X198196200Y-42896200D01*
X198196200Y-42896200D02*
X198196200Y-44000000D01*
X183840000Y-43000000D02*
X186665720Y-43000000D01*
X186665720Y-43000000D02*
X189081741Y-40583979D01*
X189081741Y-40583979D02*
X199994379Y-40583979D01*
X199994379Y-40583979D02*
X202006200Y-42595800D01*
X202006200Y-42595800D02*
X202006200Y-44000000D01*
X200000000Y-67254000D02*
X200000000Y-66000000D01*
X132576022Y-66816022D02*
X138179150Y-66816022D01*
X200000000Y-74200000D02*
X200000000Y-67254000D01*
X195583978Y-78616022D02*
X200000000Y-74200000D01*
X148679150Y-73616022D02*
X153679150Y-78616022D01*
X153679150Y-78616022D02*
X195583978Y-78616022D01*
X144979150Y-73616022D02*
X148679150Y-73616022D01*
X123380000Y-57620000D02*
X132576022Y-66816022D01*
X138179150Y-66816022D02*
X144979150Y-73616022D01*
D34*
X121000000Y-73000000D02*
X120000000Y-73000000D01*
X118750000Y-71750000D02*
X112000000Y-65000000D01*
X120000000Y-73000000D02*
X118750000Y-71750000D01*
D33*
X134255184Y-60455184D02*
X136049666Y-60455184D01*
X132300000Y-55700000D02*
X132300000Y-58500000D01*
X142147242Y-66552760D02*
X142497241Y-66902759D01*
X132300000Y-58500000D02*
X134255184Y-60455184D01*
X136049666Y-60455184D02*
X142147242Y-66552760D01*
X178000000Y-46920000D02*
X178000000Y-46276960D01*
X178000000Y-46276960D02*
X177223040Y-45500000D01*
X177223040Y-45500000D02*
X166913492Y-45500000D01*
X166413492Y-46000000D02*
X165000000Y-46000000D01*
X166913492Y-45500000D02*
X166413492Y-46000000D01*
X166913492Y-54500000D02*
X166953492Y-54540000D01*
X166953492Y-54540000D02*
X170380000Y-54540000D01*
X165000000Y-55000000D02*
X166413492Y-55000000D01*
X166413492Y-55000000D02*
X166913492Y-54500000D01*
X178000000Y-44380000D02*
X178000000Y-43526000D01*
X178000000Y-43526000D02*
X176224000Y-41750000D01*
X176224000Y-41750000D02*
X167573492Y-41750000D01*
X167573492Y-41750000D02*
X166323492Y-43000000D01*
X166323492Y-43000000D02*
X164910000Y-43000000D01*
X165000000Y-52000000D02*
X166413492Y-52000000D01*
X166413492Y-52000000D02*
X170380000Y-52000000D01*
X165000000Y-58000000D02*
X166500000Y-58000000D01*
X166500000Y-58000000D02*
X167420000Y-57080000D01*
X167420000Y-57080000D02*
X170380000Y-57080000D01*
X178900511Y-77099489D02*
X179900000Y-76100000D01*
X178111498Y-77888502D02*
X178900511Y-77099489D01*
X153670066Y-77888502D02*
X178111498Y-77888502D01*
X133547351Y-66308011D02*
X138389575Y-66308011D01*
X145189575Y-73108011D02*
X148889575Y-73108011D01*
X138389575Y-66308011D02*
X145189575Y-73108011D01*
X125920000Y-58680660D02*
X133547351Y-66308011D01*
X125920000Y-57620000D02*
X125920000Y-58680660D01*
X148889575Y-73108011D02*
X153670066Y-77888502D01*
X134300000Y-65800000D02*
X128460000Y-59960000D01*
X128460000Y-59960000D02*
X128460000Y-57620000D01*
X138900000Y-65800000D02*
X134300000Y-65800000D01*
X139900000Y-66800000D02*
X138900000Y-65800000D01*
X139929800Y-66800000D02*
X139900000Y-66800000D01*
X145729800Y-72600000D02*
X139929800Y-66800000D01*
X149500000Y-72600000D02*
X145729800Y-72600000D01*
X154280491Y-77380491D02*
X149500000Y-72600000D01*
X172119509Y-74380491D02*
X169119509Y-77380491D01*
X169119509Y-77380491D02*
X154280491Y-77380491D01*
X179900000Y-73000000D02*
X178519509Y-74380491D01*
X178519509Y-74380491D02*
X172119509Y-74380491D01*
D35*
G36*
X186465820Y-42517400D02*
X185106803Y-42517400D01*
X184989459Y-42233406D01*
X184608599Y-41851880D01*
X184110727Y-41645146D01*
X183571638Y-41644675D01*
X183073406Y-41850541D01*
X182691880Y-42231401D01*
X182485146Y-42729273D01*
X182484675Y-43268362D01*
X182690541Y-43766594D01*
X183071401Y-44148120D01*
X183569273Y-44354854D01*
X184108362Y-44355325D01*
X184606594Y-44149459D01*
X184988120Y-43768599D01*
X185106877Y-43482600D01*
X186219056Y-43482600D01*
X185183745Y-44517911D01*
X184849489Y-44517911D01*
X184664806Y-44554647D01*
X184508239Y-44659261D01*
X184404515Y-44762985D01*
X184120727Y-44645146D01*
X183581638Y-44644675D01*
X183083406Y-44850541D01*
X182701880Y-45231401D01*
X182495146Y-45729273D01*
X182494675Y-46268362D01*
X182700541Y-46766594D01*
X183081401Y-47148120D01*
X183579273Y-47354854D01*
X184118362Y-47355325D01*
X184616594Y-47149459D01*
X184998120Y-46768599D01*
X185204854Y-46270727D01*
X185205325Y-45731638D01*
X185102635Y-45483111D01*
X185383645Y-45483111D01*
X185568328Y-45446375D01*
X185617400Y-45413586D01*
X185617400Y-46550101D01*
X184404515Y-47762985D01*
X184120727Y-47645146D01*
X183581638Y-47644675D01*
X183083406Y-47850541D01*
X182701880Y-48231401D01*
X182495146Y-48729273D01*
X182494675Y-49268362D01*
X182700541Y-49766594D01*
X183081401Y-50148120D01*
X183579273Y-50354854D01*
X184118362Y-50355325D01*
X184616594Y-50149459D01*
X184998120Y-49768599D01*
X185204854Y-49270727D01*
X185204856Y-49268362D01*
X192654675Y-49268362D01*
X192860541Y-49766594D01*
X193241401Y-50148120D01*
X193739273Y-50354854D01*
X194278362Y-50355325D01*
X194776594Y-50149459D01*
X194900869Y-50025400D01*
X197654820Y-50025400D01*
X197654820Y-50326390D01*
X197725831Y-50632586D01*
X197908613Y-50888299D01*
X198175338Y-51054599D01*
X198309018Y-51091887D01*
X198434600Y-51016820D01*
X198434600Y-50025400D01*
X197654820Y-50025400D01*
X194900869Y-50025400D01*
X195158120Y-49768599D01*
X195197562Y-49673610D01*
X197654820Y-49673610D01*
X197654820Y-49974600D01*
X198434600Y-49974600D01*
X198434600Y-48983180D01*
X198309018Y-48908113D01*
X198175338Y-48945401D01*
X197908613Y-49111701D01*
X197725831Y-49367414D01*
X197654820Y-49673610D01*
X195197562Y-49673610D01*
X195364854Y-49270727D01*
X195365325Y-48731638D01*
X195159459Y-48233406D01*
X194778599Y-47851880D01*
X194280727Y-47645146D01*
X193741638Y-47644675D01*
X193243406Y-47850541D01*
X192861880Y-48231401D01*
X192655146Y-48729273D01*
X192654675Y-49268362D01*
X185204856Y-49268362D01*
X185205325Y-48731638D01*
X185087067Y-48445433D01*
X186441247Y-47091252D01*
X186441250Y-47091250D01*
X186545864Y-46934683D01*
X186548785Y-46920000D01*
X186582601Y-46750000D01*
X186582600Y-46749995D01*
X186582600Y-46268362D01*
X192654675Y-46268362D01*
X192860541Y-46766594D01*
X193241401Y-47148120D01*
X193739273Y-47354854D01*
X194278362Y-47355325D01*
X194776594Y-47149459D01*
X195158120Y-46768599D01*
X195364854Y-46270727D01*
X195365325Y-45731638D01*
X195253087Y-45460000D01*
X205601529Y-45460000D01*
X205705936Y-45984889D01*
X206003261Y-46429868D01*
X206289960Y-46621434D01*
X205984000Y-46621434D01*
X205852223Y-46646230D01*
X205731193Y-46724110D01*
X205649999Y-46842942D01*
X205621434Y-46984000D01*
X205621434Y-49016000D01*
X205646230Y-49147777D01*
X205724110Y-49268807D01*
X205842942Y-49350001D01*
X205984000Y-49378566D01*
X208016000Y-49378566D01*
X208147777Y-49353770D01*
X208268807Y-49275890D01*
X208350001Y-49157058D01*
X208378566Y-49016000D01*
X208378566Y-46984000D01*
X208353770Y-46852223D01*
X208275890Y-46731193D01*
X208157058Y-46649999D01*
X208016000Y-46621434D01*
X207710040Y-46621434D01*
X207996739Y-46429868D01*
X208294064Y-45984889D01*
X208398471Y-45460000D01*
X208294064Y-44935111D01*
X207996739Y-44490132D01*
X207551760Y-44192807D01*
X207026871Y-44088400D01*
X206973129Y-44088400D01*
X206448240Y-44192807D01*
X206003261Y-44490132D01*
X205705936Y-44935111D01*
X205601529Y-45460000D01*
X195253087Y-45460000D01*
X195159459Y-45233406D01*
X194778599Y-44851880D01*
X194280727Y-44645146D01*
X193741638Y-44644675D01*
X193243406Y-44850541D01*
X192861880Y-45231401D01*
X192655146Y-45729273D01*
X192654675Y-46268362D01*
X186582600Y-46268362D01*
X186582600Y-45225968D01*
X189725968Y-42082600D01*
X193000941Y-42082600D01*
X192851880Y-42231401D01*
X192645146Y-42729273D01*
X192644675Y-43268362D01*
X192850541Y-43766594D01*
X193231401Y-44148120D01*
X193729273Y-44354854D01*
X194268362Y-44355325D01*
X194766594Y-44149459D01*
X195148120Y-43768599D01*
X195354854Y-43270727D01*
X195355325Y-42731638D01*
X195149459Y-42233406D01*
X194998916Y-42082600D01*
X196700100Y-42082600D01*
X197713600Y-43096099D01*
X197713600Y-43203472D01*
X197626555Y-43261634D01*
X197451923Y-43522989D01*
X197390600Y-43831279D01*
X197390600Y-44168721D01*
X197451923Y-44477011D01*
X197626555Y-44738366D01*
X197887910Y-44912998D01*
X198196200Y-44974321D01*
X198504490Y-44912998D01*
X198765845Y-44738366D01*
X198831200Y-44640555D01*
X198896555Y-44738366D01*
X199157910Y-44912998D01*
X199466200Y-44974321D01*
X199774490Y-44912998D01*
X199935463Y-44805439D01*
X199989183Y-44888922D01*
X200124990Y-44981715D01*
X200286200Y-45014361D01*
X201186200Y-45014361D01*
X201336803Y-44986023D01*
X201475122Y-44897017D01*
X201537457Y-44805787D01*
X201697910Y-44912998D01*
X202006200Y-44974321D01*
X202314490Y-44912998D01*
X202575845Y-44738366D01*
X202750477Y-44477011D01*
X202811800Y-44168721D01*
X202811800Y-43831279D01*
X202750477Y-43522989D01*
X202575845Y-43261634D01*
X202488800Y-43203472D01*
X202488800Y-42595805D01*
X202488801Y-42595800D01*
X202452064Y-42411117D01*
X202407271Y-42344079D01*
X202347450Y-42254550D01*
X202347447Y-42254548D01*
X200523500Y-40430600D01*
X209569400Y-40430600D01*
X209569400Y-79569400D01*
X110430600Y-79569400D01*
X110430600Y-78237113D01*
X115815298Y-78237113D01*
X115887869Y-78495300D01*
X116173486Y-78940594D01*
X116607768Y-79242691D01*
X117124600Y-79355600D01*
X118124600Y-79355600D01*
X118124600Y-78025400D01*
X118175400Y-78025400D01*
X118175400Y-79355600D01*
X119175400Y-79355600D01*
X119692232Y-79242691D01*
X120126514Y-78940594D01*
X120412131Y-78495300D01*
X120484702Y-78237113D01*
X120416445Y-78025400D01*
X118175400Y-78025400D01*
X118124600Y-78025400D01*
X115883555Y-78025400D01*
X115815298Y-78237113D01*
X110430600Y-78237113D01*
X110430600Y-77762887D01*
X115815298Y-77762887D01*
X115883555Y-77974600D01*
X118124600Y-77974600D01*
X118124600Y-76644400D01*
X118175400Y-76644400D01*
X118175400Y-77974600D01*
X120416445Y-77974600D01*
X120484702Y-77762887D01*
X120412131Y-77504700D01*
X120126514Y-77059406D01*
X119692232Y-76757309D01*
X119337679Y-76679852D01*
X124856069Y-76679852D01*
X124918077Y-76844160D01*
X125285419Y-77002595D01*
X125685430Y-77008393D01*
X126057209Y-76860673D01*
X126081923Y-76844160D01*
X126143931Y-76679852D01*
X125500000Y-76035921D01*
X124856069Y-76679852D01*
X119337679Y-76679852D01*
X119175400Y-76644400D01*
X118175400Y-76644400D01*
X118124600Y-76644400D01*
X117124600Y-76644400D01*
X116607768Y-76757309D01*
X116173486Y-77059406D01*
X115887869Y-77504700D01*
X115815298Y-77762887D01*
X110430600Y-77762887D01*
X110430600Y-76185430D01*
X124491607Y-76185430D01*
X124639327Y-76557209D01*
X124655840Y-76581923D01*
X124820148Y-76643931D01*
X125464079Y-76000000D01*
X125535921Y-76000000D01*
X126179852Y-76643931D01*
X126344160Y-76581923D01*
X126435639Y-76369823D01*
X126435639Y-76650000D01*
X126463977Y-76800603D01*
X126552983Y-76938922D01*
X126688790Y-77031715D01*
X126850000Y-77064361D01*
X128150000Y-77064361D01*
X128300603Y-77036023D01*
X128438922Y-76947017D01*
X128531715Y-76811210D01*
X128536537Y-76787400D01*
X132663970Y-76787400D01*
X132663970Y-76942678D01*
X132759580Y-77423340D01*
X133031853Y-77830825D01*
X133439338Y-78103098D01*
X133920000Y-78198708D01*
X134400662Y-78103098D01*
X134808147Y-77830825D01*
X135080420Y-77423340D01*
X135176030Y-76942678D01*
X135176030Y-76025400D01*
X135254770Y-76025400D01*
X135254770Y-76925830D01*
X135356233Y-77385118D01*
X135625734Y-77770617D01*
X136022245Y-78023638D01*
X136246415Y-78086583D01*
X136434600Y-78016471D01*
X136434600Y-76025400D01*
X136485400Y-76025400D01*
X136485400Y-78016471D01*
X136673585Y-78086583D01*
X136897755Y-78023638D01*
X137294266Y-77770617D01*
X137563767Y-77385118D01*
X137665230Y-76925830D01*
X137665230Y-76025400D01*
X136485400Y-76025400D01*
X136434600Y-76025400D01*
X135254770Y-76025400D01*
X135176030Y-76025400D01*
X135176030Y-75074170D01*
X135254770Y-75074170D01*
X135254770Y-75974600D01*
X136434600Y-75974600D01*
X136434600Y-73983529D01*
X136485400Y-73983529D01*
X136485400Y-75974600D01*
X137665230Y-75974600D01*
X137665230Y-75074170D01*
X137563767Y-74614882D01*
X137294266Y-74229383D01*
X136897755Y-73976362D01*
X136673585Y-73913417D01*
X136485400Y-73983529D01*
X136434600Y-73983529D01*
X136246415Y-73913417D01*
X136022245Y-73976362D01*
X135625734Y-74229383D01*
X135356233Y-74614882D01*
X135254770Y-75074170D01*
X135176030Y-75074170D01*
X135176030Y-75057322D01*
X135080420Y-74576660D01*
X134808147Y-74169175D01*
X134400662Y-73896902D01*
X133920000Y-73801292D01*
X133439338Y-73896902D01*
X133031853Y-74169175D01*
X132759580Y-74576660D01*
X132663970Y-75057322D01*
X132663970Y-75212600D01*
X128538507Y-75212600D01*
X128536023Y-75199397D01*
X128447017Y-75061078D01*
X128311210Y-74968285D01*
X128150000Y-74935639D01*
X126850000Y-74935639D01*
X126699397Y-74963977D01*
X126561078Y-75052983D01*
X126468285Y-75188790D01*
X126435639Y-75350000D01*
X126435639Y-75631464D01*
X126360673Y-75442791D01*
X126344160Y-75418077D01*
X126179852Y-75356069D01*
X125535921Y-76000000D01*
X125464079Y-76000000D01*
X124820148Y-75356069D01*
X124655840Y-75418077D01*
X124497405Y-75785419D01*
X124491607Y-76185430D01*
X110430600Y-76185430D01*
X110430600Y-73025400D01*
X113494400Y-73025400D01*
X113494400Y-74025400D01*
X113607309Y-74542232D01*
X113909406Y-74976514D01*
X114354700Y-75262131D01*
X114612887Y-75334702D01*
X114824600Y-75266445D01*
X114824600Y-73025400D01*
X114875400Y-73025400D01*
X114875400Y-75266445D01*
X115087113Y-75334702D01*
X115345300Y-75262131D01*
X115790594Y-74976514D01*
X116092691Y-74542232D01*
X116205600Y-74025400D01*
X116205600Y-73025400D01*
X114875400Y-73025400D01*
X114824600Y-73025400D01*
X113494400Y-73025400D01*
X110430600Y-73025400D01*
X110430600Y-71974600D01*
X113494400Y-71974600D01*
X113494400Y-72974600D01*
X114824600Y-72974600D01*
X114824600Y-70733555D01*
X114875400Y-70733555D01*
X114875400Y-72974600D01*
X116205600Y-72974600D01*
X116205600Y-71974600D01*
X116092691Y-71457768D01*
X115790594Y-71023486D01*
X115345300Y-70737869D01*
X115087113Y-70665298D01*
X114875400Y-70733555D01*
X114824600Y-70733555D01*
X114612887Y-70665298D01*
X114354700Y-70737869D01*
X113909406Y-71023486D01*
X113607309Y-71457768D01*
X113494400Y-71974600D01*
X110430600Y-71974600D01*
X110430600Y-65248744D01*
X110743753Y-65248744D01*
X110934569Y-65710554D01*
X111287587Y-66064189D01*
X111749064Y-66255811D01*
X112142602Y-66256154D01*
X119443224Y-73556776D01*
X119593600Y-73657254D01*
X119593600Y-74047144D01*
X119700656Y-74585350D01*
X120005525Y-75041619D01*
X120461794Y-75346488D01*
X121000000Y-75453544D01*
X121538206Y-75346488D01*
X121577626Y-75320148D01*
X124856069Y-75320148D01*
X125500000Y-75964079D01*
X126143931Y-75320148D01*
X126081923Y-75155840D01*
X125714581Y-74997405D01*
X125314570Y-74991607D01*
X124942791Y-75139327D01*
X124918077Y-75155840D01*
X124856069Y-75320148D01*
X121577626Y-75320148D01*
X121994475Y-75041619D01*
X122299344Y-74585350D01*
X122406400Y-74047144D01*
X122406400Y-71952856D01*
X122299344Y-71414650D01*
X121994475Y-70958381D01*
X121538206Y-70653512D01*
X121000000Y-70546456D01*
X120461794Y-70653512D01*
X120005525Y-70958381D01*
X119700656Y-71414650D01*
X119672044Y-71558492D01*
X113255906Y-65142354D01*
X113256247Y-64751256D01*
X113065431Y-64289446D01*
X112712413Y-63935811D01*
X112250936Y-63744189D01*
X111751256Y-63743753D01*
X111289446Y-63934569D01*
X110935811Y-64287587D01*
X110744189Y-64749064D01*
X110743753Y-65248744D01*
X110430600Y-65248744D01*
X110430600Y-42598953D01*
X112114208Y-42598953D01*
X112282171Y-43005454D01*
X112592910Y-43316736D01*
X112999118Y-43485408D01*
X113438953Y-43485792D01*
X113583547Y-43426047D01*
X119117400Y-48959899D01*
X119117400Y-56873907D01*
X118927090Y-56683264D01*
X118520882Y-56514592D01*
X118081047Y-56514208D01*
X117674546Y-56682171D01*
X117363264Y-56992910D01*
X117194592Y-57399118D01*
X117194208Y-57838953D01*
X117362171Y-58245454D01*
X117672910Y-58556736D01*
X118079118Y-58725408D01*
X118518953Y-58725792D01*
X118925454Y-58557829D01*
X119117400Y-58366218D01*
X119117400Y-59700000D01*
X119154136Y-59884683D01*
X119258750Y-60041250D01*
X122953509Y-63736009D01*
X121310370Y-63736009D01*
X121159767Y-63764347D01*
X121021448Y-63853353D01*
X120928655Y-63989160D01*
X120896009Y-64150370D01*
X120896009Y-65849630D01*
X120924347Y-66000233D01*
X121013353Y-66138552D01*
X121149160Y-66231345D01*
X121310370Y-66263991D01*
X121372600Y-66263991D01*
X121372600Y-67219800D01*
X121432537Y-67521125D01*
X121603224Y-67776576D01*
X125097024Y-71270376D01*
X125352475Y-71441063D01*
X125653800Y-71501000D01*
X132283200Y-71501000D01*
X132584525Y-71441063D01*
X132839976Y-71270376D01*
X134322952Y-69787400D01*
X134461493Y-69787400D01*
X134463977Y-69800603D01*
X134552983Y-69938922D01*
X134688790Y-70031715D01*
X134712600Y-70036537D01*
X134712600Y-70412000D01*
X134772537Y-70713325D01*
X134943224Y-70968776D01*
X135859864Y-71885416D01*
X135640968Y-71794522D01*
X135360263Y-71794277D01*
X135100832Y-71901472D01*
X134984702Y-72017400D01*
X124899900Y-72017400D01*
X113702600Y-60820100D01*
X113702600Y-58616855D01*
X113845454Y-58557829D01*
X114156736Y-58247090D01*
X114325408Y-57840882D01*
X114325409Y-57838953D01*
X114654208Y-57838953D01*
X114822171Y-58245454D01*
X115132910Y-58556736D01*
X115539118Y-58725408D01*
X115978953Y-58725792D01*
X116385454Y-58557829D01*
X116696736Y-58247090D01*
X116865408Y-57840882D01*
X116865792Y-57401047D01*
X116697829Y-56994546D01*
X116387090Y-56683264D01*
X115980882Y-56514592D01*
X115541047Y-56514208D01*
X115134546Y-56682171D01*
X114823264Y-56992910D01*
X114654592Y-57399118D01*
X114654208Y-57838953D01*
X114325409Y-57838953D01*
X114325792Y-57401047D01*
X114157829Y-56994546D01*
X113847090Y-56683264D01*
X113440882Y-56514592D01*
X113001047Y-56514208D01*
X112594546Y-56682171D01*
X112283264Y-56992910D01*
X112114592Y-57399118D01*
X112114208Y-57838953D01*
X112282171Y-58245454D01*
X112592910Y-58556736D01*
X112737400Y-58616733D01*
X112737400Y-61020000D01*
X112774136Y-61204683D01*
X112878750Y-61361250D01*
X124358750Y-72841250D01*
X124515317Y-72945864D01*
X124700000Y-72982601D01*
X124700005Y-72982600D01*
X134984759Y-72982600D01*
X135099788Y-73097830D01*
X135359032Y-73205478D01*
X135639737Y-73205723D01*
X135899168Y-73098528D01*
X136097830Y-72900212D01*
X136205478Y-72640968D01*
X136205723Y-72360263D01*
X136114898Y-72140450D01*
X138130898Y-74156450D01*
X138111853Y-74169175D01*
X137839580Y-74576660D01*
X137743970Y-75057322D01*
X137743970Y-76942678D01*
X137839580Y-77423340D01*
X138111853Y-77830825D01*
X138519338Y-78103098D01*
X139000000Y-78198708D01*
X139480662Y-78103098D01*
X139888147Y-77830825D01*
X140160420Y-77423340D01*
X140256030Y-76942678D01*
X140256030Y-75057322D01*
X140160420Y-74576660D01*
X139888147Y-74169175D01*
X139787400Y-74101858D01*
X139787400Y-73912000D01*
X139727463Y-73610675D01*
X139556776Y-73355224D01*
X136287400Y-70085848D01*
X136287400Y-70038507D01*
X136300603Y-70036023D01*
X136438922Y-69947017D01*
X136531715Y-69811210D01*
X136558315Y-69679852D01*
X136856069Y-69679852D01*
X136918077Y-69844160D01*
X137285419Y-70002595D01*
X137685430Y-70008393D01*
X138057209Y-69860673D01*
X138081923Y-69844160D01*
X138143931Y-69679852D01*
X137500000Y-69035921D01*
X136856069Y-69679852D01*
X136558315Y-69679852D01*
X136564361Y-69650000D01*
X136564361Y-69368536D01*
X136639327Y-69557209D01*
X136655840Y-69581923D01*
X136820148Y-69643931D01*
X137464079Y-69000000D01*
X137535921Y-69000000D01*
X138179852Y-69643931D01*
X138344160Y-69581923D01*
X138502595Y-69214581D01*
X138508393Y-68814570D01*
X138360673Y-68442791D01*
X138344160Y-68418077D01*
X138179852Y-68356069D01*
X137535921Y-69000000D01*
X137464079Y-69000000D01*
X136820148Y-68356069D01*
X136655840Y-68418077D01*
X136564361Y-68630177D01*
X136564361Y-68350000D01*
X136558744Y-68320148D01*
X136856069Y-68320148D01*
X137500000Y-68964079D01*
X138143931Y-68320148D01*
X138081923Y-68155840D01*
X137714581Y-67997405D01*
X137314570Y-67991607D01*
X136942791Y-68139327D01*
X136918077Y-68155840D01*
X136856069Y-68320148D01*
X136558744Y-68320148D01*
X136536023Y-68199397D01*
X136447017Y-68061078D01*
X136311210Y-67968285D01*
X136150000Y-67935639D01*
X134850000Y-67935639D01*
X134699397Y-67963977D01*
X134561078Y-68052983D01*
X134468285Y-68188790D01*
X134463463Y-68212600D01*
X133996800Y-68212600D01*
X133695475Y-68272537D01*
X133440024Y-68443224D01*
X131957048Y-69926200D01*
X130793829Y-69926200D01*
X130969335Y-69853682D01*
X131252687Y-69570824D01*
X131406225Y-69201064D01*
X131406575Y-68800693D01*
X131253682Y-68430665D01*
X130970824Y-68147313D01*
X130601064Y-67993775D01*
X130200693Y-67993425D01*
X129830665Y-68146318D01*
X129547313Y-68429176D01*
X129393775Y-68798936D01*
X129393425Y-69199307D01*
X129546318Y-69569335D01*
X129829176Y-69852687D01*
X130006215Y-69926200D01*
X127260800Y-69926200D01*
X127540597Y-69810590D01*
X127809646Y-69542011D01*
X127955433Y-69190914D01*
X127955765Y-68810753D01*
X127810590Y-68459403D01*
X127542011Y-68190354D01*
X127190914Y-68044567D01*
X126810753Y-68044235D01*
X126459403Y-68189410D01*
X126190354Y-68457989D01*
X126044567Y-68809086D01*
X126044235Y-69189247D01*
X126189410Y-69540597D01*
X126457989Y-69809646D01*
X126738685Y-69926200D01*
X125979952Y-69926200D01*
X122947400Y-66893648D01*
X122947400Y-66263991D01*
X123009630Y-66263991D01*
X123160233Y-66235653D01*
X123298552Y-66146647D01*
X123391345Y-66010840D01*
X123423991Y-65849630D01*
X123423991Y-64206491D01*
X126990027Y-67772527D01*
X127146594Y-67877141D01*
X127331277Y-67913878D01*
X127331282Y-67913877D01*
X137876069Y-67913877D01*
X144842473Y-74880281D01*
X144999040Y-74984895D01*
X145183723Y-75021631D01*
X148030581Y-75021631D01*
X148145610Y-75136861D01*
X148404854Y-75244509D01*
X148685559Y-75244754D01*
X148944990Y-75137559D01*
X149143652Y-74939243D01*
X149195356Y-74814728D01*
X153337900Y-78957272D01*
X153494467Y-79061886D01*
X153679150Y-79098623D01*
X153679155Y-79098622D01*
X195583978Y-79098622D01*
X195768661Y-79061886D01*
X195925228Y-78957272D01*
X200341250Y-74541250D01*
X200445864Y-74384683D01*
X200482600Y-74200000D01*
X200482600Y-73367482D01*
X203144079Y-73367482D01*
X203425982Y-74049740D01*
X203947515Y-74572184D01*
X204629279Y-74855277D01*
X205367482Y-74855921D01*
X206049740Y-74574018D01*
X206572184Y-74052485D01*
X206855277Y-73370721D01*
X206855921Y-72632518D01*
X206574018Y-71950260D01*
X206052485Y-71427816D01*
X205370721Y-71144723D01*
X204632518Y-71144079D01*
X203950260Y-71425982D01*
X203427816Y-71947515D01*
X203144723Y-72629279D01*
X203144079Y-73367482D01*
X200482600Y-73367482D01*
X200482600Y-67258239D01*
X200781777Y-67058335D01*
X201021441Y-66699653D01*
X201105600Y-66276558D01*
X201105600Y-65723442D01*
X201021441Y-65300347D01*
X200854692Y-65050790D01*
X201584720Y-65050790D01*
X201431626Y-65279912D01*
X201343600Y-65722447D01*
X201343600Y-66277553D01*
X201431626Y-66720088D01*
X201682302Y-67095251D01*
X202057465Y-67345927D01*
X202500000Y-67433953D01*
X202942535Y-67345927D01*
X203317698Y-67095251D01*
X203568374Y-66720088D01*
X203656400Y-66277553D01*
X203656400Y-65722447D01*
X203568374Y-65279912D01*
X203415280Y-65050790D01*
X207131810Y-65050790D01*
X207316493Y-65014054D01*
X207473060Y-64909440D01*
X209241250Y-63141250D01*
X209345864Y-62984683D01*
X209382600Y-62800000D01*
X209382600Y-58747605D01*
X209382601Y-58747600D01*
X209345864Y-58562917D01*
X209246098Y-58413606D01*
X209241250Y-58406350D01*
X209241247Y-58406348D01*
X208303984Y-57469084D01*
X208305665Y-57466568D01*
X208398471Y-57000000D01*
X208305665Y-56533432D01*
X208041376Y-56137895D01*
X207645839Y-55873606D01*
X207179271Y-55780800D01*
X206820729Y-55780800D01*
X206354161Y-55873606D01*
X205958624Y-56137895D01*
X205694335Y-56533432D01*
X205601529Y-57000000D01*
X205694335Y-57466568D01*
X205958624Y-57862105D01*
X206354161Y-58126394D01*
X206820729Y-58219200D01*
X207179271Y-58219200D01*
X207604514Y-58134614D01*
X208417400Y-58947499D01*
X208417400Y-62600100D01*
X206931910Y-64085590D01*
X197296910Y-64085590D01*
X198129900Y-63252600D01*
X203617600Y-63252600D01*
X203802283Y-63215864D01*
X203958850Y-63111250D01*
X204774329Y-62295771D01*
X205647646Y-62295771D01*
X205711486Y-62523101D01*
X205967535Y-62924144D01*
X206357566Y-63196674D01*
X206822200Y-63299200D01*
X206974600Y-63299200D01*
X206974600Y-62105400D01*
X207025400Y-62105400D01*
X207025400Y-63299200D01*
X207177800Y-63299200D01*
X207642434Y-63196674D01*
X208032465Y-62924144D01*
X208288514Y-62523101D01*
X208352354Y-62295771D01*
X208282415Y-62105400D01*
X207025400Y-62105400D01*
X206974600Y-62105400D01*
X205717585Y-62105400D01*
X205647646Y-62295771D01*
X204774329Y-62295771D01*
X205205871Y-61864229D01*
X205647646Y-61864229D01*
X205717585Y-62054600D01*
X206974600Y-62054600D01*
X206974600Y-60860800D01*
X207025400Y-60860800D01*
X207025400Y-62054600D01*
X208282415Y-62054600D01*
X208352354Y-61864229D01*
X208288514Y-61636899D01*
X208032465Y-61235856D01*
X207642434Y-60963326D01*
X207177800Y-60860800D01*
X207025400Y-60860800D01*
X206974600Y-60860800D01*
X206822200Y-60860800D01*
X206357566Y-60963326D01*
X205967535Y-61235856D01*
X205711486Y-61636899D01*
X205647646Y-61864229D01*
X205205871Y-61864229D01*
X206395486Y-60674614D01*
X206820729Y-60759200D01*
X207179271Y-60759200D01*
X207645839Y-60666394D01*
X208041376Y-60402105D01*
X208305665Y-60006568D01*
X208398471Y-59540000D01*
X208305665Y-59073432D01*
X208041376Y-58677895D01*
X207645839Y-58413606D01*
X207179271Y-58320800D01*
X206820729Y-58320800D01*
X206354161Y-58413606D01*
X205958624Y-58677895D01*
X205694335Y-59073432D01*
X205601529Y-59540000D01*
X205694335Y-60006568D01*
X205696016Y-60009084D01*
X203417700Y-62287400D01*
X197930000Y-62287400D01*
X197745317Y-62324136D01*
X197588750Y-62428750D01*
X192868299Y-67149201D01*
X144460000Y-67149201D01*
X140313805Y-63003006D01*
X140685430Y-63008393D01*
X141057209Y-62860673D01*
X141081923Y-62844160D01*
X141143931Y-62679852D01*
X140500000Y-62035921D01*
X140485858Y-62050064D01*
X140449937Y-62014143D01*
X140464079Y-62000000D01*
X140535921Y-62000000D01*
X141179852Y-62643931D01*
X141344160Y-62581923D01*
X141502595Y-62214581D01*
X141508393Y-61814570D01*
X141360673Y-61442791D01*
X141344160Y-61418077D01*
X141179852Y-61356069D01*
X140535921Y-62000000D01*
X140464079Y-62000000D01*
X139820148Y-61356069D01*
X139655840Y-61418077D01*
X139497405Y-61785419D01*
X139491673Y-62180874D01*
X138630947Y-61320148D01*
X139856069Y-61320148D01*
X140500000Y-61964079D01*
X141143931Y-61320148D01*
X141081923Y-61155840D01*
X140714581Y-60997405D01*
X140314570Y-60991607D01*
X139942791Y-61139327D01*
X139918077Y-61155840D01*
X139856069Y-61320148D01*
X138630947Y-61320148D01*
X136558922Y-59248123D01*
X136402355Y-59143509D01*
X136217672Y-59106773D01*
X134627887Y-59106773D01*
X134104237Y-58583123D01*
X134165454Y-58557829D01*
X134476736Y-58247090D01*
X134645408Y-57840882D01*
X134645409Y-57838953D01*
X134974208Y-57838953D01*
X135142171Y-58245454D01*
X135452910Y-58556736D01*
X135859118Y-58725408D01*
X136298953Y-58725792D01*
X136705454Y-58557829D01*
X137016736Y-58247090D01*
X137185408Y-57840882D01*
X137185409Y-57838953D01*
X137514208Y-57838953D01*
X137682171Y-58245454D01*
X137992910Y-58556736D01*
X138399118Y-58725408D01*
X138838953Y-58725792D01*
X138983547Y-58666047D01*
X139028749Y-58711249D01*
X140395620Y-60078119D01*
X140395622Y-60078122D01*
X140552189Y-60182736D01*
X140736872Y-60219472D01*
X142836972Y-60219472D01*
X143553139Y-60935639D01*
X142350000Y-60935639D01*
X142199397Y-60963977D01*
X142061078Y-61052983D01*
X141968285Y-61188790D01*
X141935639Y-61350000D01*
X141935639Y-62650000D01*
X141963977Y-62800603D01*
X142052983Y-62938922D01*
X142188790Y-63031715D01*
X142350000Y-63064361D01*
X142488552Y-63064361D01*
X142507203Y-63158123D01*
X142622829Y-63331171D01*
X144868829Y-65577171D01*
X145041877Y-65692797D01*
X145246000Y-65733401D01*
X145246005Y-65733400D01*
X151363690Y-65733400D01*
X151470974Y-65840871D01*
X151748883Y-65956269D01*
X152049797Y-65956531D01*
X152327907Y-65841619D01*
X152540871Y-65629026D01*
X152656269Y-65351117D01*
X152656531Y-65050203D01*
X152541619Y-64772093D01*
X152329026Y-64559129D01*
X152051117Y-64443731D01*
X151750203Y-64443469D01*
X151472093Y-64558381D01*
X151363685Y-64666600D01*
X145466942Y-64666600D01*
X143822363Y-63022021D01*
X143938922Y-62947017D01*
X144031715Y-62811210D01*
X144064361Y-62650000D01*
X144064361Y-61446861D01*
X145894419Y-63276919D01*
X145894277Y-63439737D01*
X146001472Y-63699168D01*
X146199788Y-63897830D01*
X146459032Y-64005478D01*
X146739737Y-64005723D01*
X146999168Y-63898528D01*
X147197830Y-63700212D01*
X147207327Y-63677339D01*
X160654820Y-63677339D01*
X160654820Y-64322661D01*
X160716111Y-64630790D01*
X160890652Y-64892009D01*
X161151871Y-65066550D01*
X161460000Y-65127841D01*
X161768129Y-65066550D01*
X162029348Y-64892009D01*
X162095000Y-64793754D01*
X162160652Y-64892009D01*
X162421871Y-65066550D01*
X162730000Y-65127841D01*
X163038129Y-65066550D01*
X163299348Y-64892009D01*
X163372746Y-64782161D01*
X163448613Y-64888299D01*
X163715338Y-65054599D01*
X163849018Y-65091887D01*
X163974600Y-65016820D01*
X163974600Y-64025400D01*
X164025400Y-64025400D01*
X164025400Y-65016820D01*
X164150982Y-65091887D01*
X164284662Y-65054599D01*
X164551387Y-64888299D01*
X164734169Y-64632586D01*
X164805180Y-64326390D01*
X164805180Y-64025400D01*
X164025400Y-64025400D01*
X163974600Y-64025400D01*
X163954600Y-64025400D01*
X163954600Y-63974600D01*
X163974600Y-63974600D01*
X163974600Y-62983180D01*
X164025400Y-62983180D01*
X164025400Y-63974600D01*
X164805180Y-63974600D01*
X164805180Y-63677339D01*
X167924820Y-63677339D01*
X167924820Y-64322661D01*
X167986111Y-64630790D01*
X168160652Y-64892009D01*
X168421871Y-65066550D01*
X168730000Y-65127841D01*
X169038129Y-65066550D01*
X169299348Y-64892009D01*
X169365000Y-64793754D01*
X169430652Y-64892009D01*
X169691871Y-65066550D01*
X170000000Y-65127841D01*
X170308129Y-65066550D01*
X170569348Y-64892009D01*
X170642746Y-64782161D01*
X170718613Y-64888299D01*
X170985338Y-65054599D01*
X171119018Y-65091887D01*
X171244600Y-65016820D01*
X171244600Y-64025400D01*
X171295400Y-64025400D01*
X171295400Y-65016820D01*
X171420982Y-65091887D01*
X171554662Y-65054599D01*
X171821387Y-64888299D01*
X172004169Y-64632586D01*
X172075180Y-64326390D01*
X172075180Y-64025400D01*
X171295400Y-64025400D01*
X171244600Y-64025400D01*
X171224600Y-64025400D01*
X171224600Y-63974600D01*
X171244600Y-63974600D01*
X171244600Y-62983180D01*
X171295400Y-62983180D01*
X171295400Y-63974600D01*
X172075180Y-63974600D01*
X172075180Y-63677339D01*
X174924820Y-63677339D01*
X174924820Y-64322661D01*
X174986111Y-64630790D01*
X175160652Y-64892009D01*
X175421871Y-65066550D01*
X175730000Y-65127841D01*
X176038129Y-65066550D01*
X176299348Y-64892009D01*
X176365000Y-64793754D01*
X176430652Y-64892009D01*
X176691871Y-65066550D01*
X177000000Y-65127841D01*
X177308129Y-65066550D01*
X177569348Y-64892009D01*
X177642746Y-64782161D01*
X177718613Y-64888299D01*
X177985338Y-65054599D01*
X178119018Y-65091887D01*
X178244600Y-65016820D01*
X178244600Y-64025400D01*
X178295400Y-64025400D01*
X178295400Y-65016820D01*
X178420982Y-65091887D01*
X178554662Y-65054599D01*
X178821387Y-64888299D01*
X179004169Y-64632586D01*
X179075180Y-64326390D01*
X179075180Y-64025400D01*
X178295400Y-64025400D01*
X178244600Y-64025400D01*
X178224600Y-64025400D01*
X178224600Y-63974600D01*
X178244600Y-63974600D01*
X178244600Y-62983180D01*
X178295400Y-62983180D01*
X178295400Y-63974600D01*
X179075180Y-63974600D01*
X179075180Y-63677339D01*
X181924820Y-63677339D01*
X181924820Y-64322661D01*
X181986111Y-64630790D01*
X182160652Y-64892009D01*
X182421871Y-65066550D01*
X182730000Y-65127841D01*
X183038129Y-65066550D01*
X183299348Y-64892009D01*
X183365000Y-64793754D01*
X183430652Y-64892009D01*
X183691871Y-65066550D01*
X184000000Y-65127841D01*
X184308129Y-65066550D01*
X184569348Y-64892009D01*
X184642746Y-64782161D01*
X184718613Y-64888299D01*
X184985338Y-65054599D01*
X185119018Y-65091887D01*
X185244600Y-65016820D01*
X185244600Y-64025400D01*
X185295400Y-64025400D01*
X185295400Y-65016820D01*
X185420982Y-65091887D01*
X185554662Y-65054599D01*
X185821387Y-64888299D01*
X186004169Y-64632586D01*
X186075180Y-64326390D01*
X186075180Y-64025400D01*
X185295400Y-64025400D01*
X185244600Y-64025400D01*
X185224600Y-64025400D01*
X185224600Y-63974600D01*
X185244600Y-63974600D01*
X185244600Y-62983180D01*
X185295400Y-62983180D01*
X185295400Y-63974600D01*
X186075180Y-63974600D01*
X186075180Y-63677339D01*
X189654820Y-63677339D01*
X189654820Y-64322661D01*
X189716111Y-64630790D01*
X189890652Y-64892009D01*
X190151871Y-65066550D01*
X190460000Y-65127841D01*
X190768129Y-65066550D01*
X191029348Y-64892009D01*
X191095000Y-64793754D01*
X191160652Y-64892009D01*
X191421871Y-65066550D01*
X191730000Y-65127841D01*
X192038129Y-65066550D01*
X192299348Y-64892009D01*
X192372746Y-64782161D01*
X192448613Y-64888299D01*
X192715338Y-65054599D01*
X192849018Y-65091887D01*
X192974600Y-65016820D01*
X192974600Y-64025400D01*
X193025400Y-64025400D01*
X193025400Y-65016820D01*
X193150982Y-65091887D01*
X193284662Y-65054599D01*
X193551387Y-64888299D01*
X193734169Y-64632586D01*
X193805180Y-64326390D01*
X193805180Y-64025400D01*
X193025400Y-64025400D01*
X192974600Y-64025400D01*
X192954600Y-64025400D01*
X192954600Y-63974600D01*
X192974600Y-63974600D01*
X192974600Y-62983180D01*
X193025400Y-62983180D01*
X193025400Y-63974600D01*
X193805180Y-63974600D01*
X193805180Y-63673610D01*
X193734169Y-63367414D01*
X193551387Y-63111701D01*
X193284662Y-62945401D01*
X193150982Y-62908113D01*
X193025400Y-62983180D01*
X192974600Y-62983180D01*
X192849018Y-62908113D01*
X192715338Y-62945401D01*
X192448613Y-63111701D01*
X192372746Y-63217839D01*
X192299348Y-63107991D01*
X192038129Y-62933450D01*
X191730000Y-62872159D01*
X191421871Y-62933450D01*
X191160652Y-63107991D01*
X191095000Y-63206246D01*
X191029348Y-63107991D01*
X190768129Y-62933450D01*
X190460000Y-62872159D01*
X190151871Y-62933450D01*
X189890652Y-63107991D01*
X189716111Y-63369210D01*
X189654820Y-63677339D01*
X186075180Y-63677339D01*
X186075180Y-63673610D01*
X186004169Y-63367414D01*
X185821387Y-63111701D01*
X185554662Y-62945401D01*
X185420982Y-62908113D01*
X185295400Y-62983180D01*
X185244600Y-62983180D01*
X185119018Y-62908113D01*
X184985338Y-62945401D01*
X184718613Y-63111701D01*
X184642746Y-63217839D01*
X184569348Y-63107991D01*
X184308129Y-62933450D01*
X184000000Y-62872159D01*
X183691871Y-62933450D01*
X183430652Y-63107991D01*
X183365000Y-63206246D01*
X183299348Y-63107991D01*
X183038129Y-62933450D01*
X182730000Y-62872159D01*
X182421871Y-62933450D01*
X182160652Y-63107991D01*
X181986111Y-63369210D01*
X181924820Y-63677339D01*
X179075180Y-63677339D01*
X179075180Y-63673610D01*
X179004169Y-63367414D01*
X178821387Y-63111701D01*
X178554662Y-62945401D01*
X178420982Y-62908113D01*
X178295400Y-62983180D01*
X178244600Y-62983180D01*
X178119018Y-62908113D01*
X177985338Y-62945401D01*
X177718613Y-63111701D01*
X177642746Y-63217839D01*
X177569348Y-63107991D01*
X177308129Y-62933450D01*
X177000000Y-62872159D01*
X176691871Y-62933450D01*
X176430652Y-63107991D01*
X176365000Y-63206246D01*
X176299348Y-63107991D01*
X176038129Y-62933450D01*
X175730000Y-62872159D01*
X175421871Y-62933450D01*
X175160652Y-63107991D01*
X174986111Y-63369210D01*
X174924820Y-63677339D01*
X172075180Y-63677339D01*
X172075180Y-63673610D01*
X172004169Y-63367414D01*
X171821387Y-63111701D01*
X171554662Y-62945401D01*
X171420982Y-62908113D01*
X171295400Y-62983180D01*
X171244600Y-62983180D01*
X171119018Y-62908113D01*
X170985338Y-62945401D01*
X170718613Y-63111701D01*
X170642746Y-63217839D01*
X170569348Y-63107991D01*
X170308129Y-62933450D01*
X170000000Y-62872159D01*
X169691871Y-62933450D01*
X169430652Y-63107991D01*
X169365000Y-63206246D01*
X169299348Y-63107991D01*
X169038129Y-62933450D01*
X168730000Y-62872159D01*
X168421871Y-62933450D01*
X168160652Y-63107991D01*
X167986111Y-63369210D01*
X167924820Y-63677339D01*
X164805180Y-63677339D01*
X164805180Y-63673610D01*
X164734169Y-63367414D01*
X164551387Y-63111701D01*
X164284662Y-62945401D01*
X164150982Y-62908113D01*
X164025400Y-62983180D01*
X163974600Y-62983180D01*
X163849018Y-62908113D01*
X163715338Y-62945401D01*
X163448613Y-63111701D01*
X163372746Y-63217839D01*
X163299348Y-63107991D01*
X163038129Y-62933450D01*
X162730000Y-62872159D01*
X162421871Y-62933450D01*
X162160652Y-63107991D01*
X162095000Y-63206246D01*
X162029348Y-63107991D01*
X161768129Y-62933450D01*
X161460000Y-62872159D01*
X161151871Y-62933450D01*
X160890652Y-63107991D01*
X160716111Y-63369210D01*
X160654820Y-63677339D01*
X147207327Y-63677339D01*
X147305478Y-63440968D01*
X147305723Y-63160263D01*
X147198528Y-62900832D01*
X147000212Y-62702170D01*
X146740968Y-62594522D01*
X146576879Y-62594379D01*
X143378122Y-59395622D01*
X143221555Y-59291008D01*
X143036872Y-59254272D01*
X140936771Y-59254272D01*
X139711249Y-58028749D01*
X139666133Y-57983633D01*
X139722031Y-57849013D01*
X140003400Y-57849013D01*
X140179080Y-58274192D01*
X140504097Y-58599776D01*
X140928969Y-58776199D01*
X141389013Y-58776600D01*
X141814192Y-58600920D01*
X142139776Y-58275903D01*
X142316199Y-57851031D01*
X142316209Y-57838953D01*
X142594208Y-57838953D01*
X142762171Y-58245454D01*
X143072910Y-58556736D01*
X143479118Y-58725408D01*
X143918953Y-58725792D01*
X144325454Y-58557829D01*
X144511635Y-58371972D01*
X145523949Y-58371972D01*
X145598130Y-58546671D01*
X146001612Y-58721766D01*
X146441385Y-58729127D01*
X146850500Y-58567633D01*
X146881870Y-58546671D01*
X146956051Y-58371972D01*
X146240000Y-57655921D01*
X145523949Y-58371972D01*
X144511635Y-58371972D01*
X144636736Y-58247090D01*
X144805408Y-57840882D01*
X144805425Y-57821385D01*
X145130873Y-57821385D01*
X145292367Y-58230500D01*
X145313329Y-58261870D01*
X145488028Y-58336051D01*
X146204079Y-57620000D01*
X146275921Y-57620000D01*
X146991972Y-58336051D01*
X147166671Y-58261870D01*
X147341766Y-57858388D01*
X147349127Y-57418615D01*
X147187633Y-57009500D01*
X147166671Y-56978130D01*
X146991972Y-56903949D01*
X146275921Y-57620000D01*
X146204079Y-57620000D01*
X145488028Y-56903949D01*
X145313329Y-56978130D01*
X145138234Y-57381612D01*
X145130873Y-57821385D01*
X144805425Y-57821385D01*
X144805792Y-57401047D01*
X144637829Y-56994546D01*
X144511532Y-56868028D01*
X145523949Y-56868028D01*
X146240000Y-57584079D01*
X146956051Y-56868028D01*
X146881870Y-56693329D01*
X146478388Y-56518234D01*
X146038615Y-56510873D01*
X145629500Y-56672367D01*
X145598130Y-56693329D01*
X145523949Y-56868028D01*
X144511532Y-56868028D01*
X144327090Y-56683264D01*
X143920882Y-56514592D01*
X143481047Y-56514208D01*
X143074546Y-56682171D01*
X142763264Y-56992910D01*
X142594592Y-57399118D01*
X142594208Y-57838953D01*
X142316209Y-57838953D01*
X142316600Y-57390987D01*
X142140920Y-56965808D01*
X141815903Y-56640224D01*
X141391031Y-56463801D01*
X140930987Y-56463400D01*
X140505808Y-56639080D01*
X140180224Y-56964097D01*
X140003801Y-57388969D01*
X140003400Y-57849013D01*
X139722031Y-57849013D01*
X139725408Y-57840882D01*
X139725792Y-57401047D01*
X139557829Y-56994546D01*
X139247090Y-56683264D01*
X138840882Y-56514592D01*
X138401047Y-56514208D01*
X137994546Y-56682171D01*
X137683264Y-56992910D01*
X137514592Y-57399118D01*
X137514208Y-57838953D01*
X137185409Y-57838953D01*
X137185792Y-57401047D01*
X137017829Y-56994546D01*
X136707090Y-56683264D01*
X136300882Y-56514592D01*
X135861047Y-56514208D01*
X135454546Y-56682171D01*
X135143264Y-56992910D01*
X134974592Y-57399118D01*
X134974208Y-57838953D01*
X134645409Y-57838953D01*
X134645792Y-57401047D01*
X134477829Y-56994546D01*
X134167090Y-56683264D01*
X133760882Y-56514592D01*
X133321047Y-56514208D01*
X132914546Y-56682171D01*
X132782600Y-56813887D01*
X132782600Y-56215241D01*
X132897830Y-56100212D01*
X133005478Y-55840968D01*
X133005723Y-55560263D01*
X132898528Y-55300832D01*
X132700212Y-55102170D01*
X132494231Y-55016639D01*
X147734139Y-55016639D01*
X149396273Y-56678772D01*
X149000882Y-56514592D01*
X148561047Y-56514208D01*
X148154546Y-56682171D01*
X147843264Y-56992910D01*
X147674592Y-57399118D01*
X147674208Y-57838953D01*
X147842171Y-58245454D01*
X148152910Y-58556736D01*
X148559118Y-58725408D01*
X148998953Y-58725792D01*
X149405454Y-58557829D01*
X149716736Y-58247090D01*
X149885408Y-57840882D01*
X149885792Y-57401047D01*
X149721901Y-57004400D01*
X152858748Y-60141247D01*
X152858750Y-60141250D01*
X153015317Y-60245864D01*
X153200000Y-60282600D01*
X182200000Y-60282600D01*
X182384683Y-60245864D01*
X182541250Y-60141250D01*
X182541251Y-60141249D01*
X182657099Y-60025400D01*
X197624820Y-60025400D01*
X197624820Y-60326390D01*
X197695831Y-60632586D01*
X197878613Y-60888299D01*
X198145338Y-61054599D01*
X198279018Y-61091887D01*
X198404600Y-61016820D01*
X198404600Y-60025400D01*
X197624820Y-60025400D01*
X182657099Y-60025400D01*
X183008889Y-59673610D01*
X197624820Y-59673610D01*
X197624820Y-59974600D01*
X198404600Y-59974600D01*
X198404600Y-58983180D01*
X198279018Y-58908113D01*
X198145338Y-58945401D01*
X197878613Y-59111701D01*
X197695831Y-59367414D01*
X197624820Y-59673610D01*
X183008889Y-59673610D01*
X183397908Y-59284591D01*
X183599873Y-59368454D01*
X184138962Y-59368925D01*
X184637194Y-59163059D01*
X185018720Y-58782199D01*
X185225454Y-58284327D01*
X185225456Y-58281962D01*
X192675275Y-58281962D01*
X192881141Y-58780194D01*
X193262001Y-59161720D01*
X193759873Y-59368454D01*
X194298962Y-59368925D01*
X194797194Y-59163059D01*
X195178720Y-58782199D01*
X195303124Y-58482600D01*
X198850100Y-58482600D01*
X199217400Y-58849900D01*
X199217400Y-59050028D01*
X199130652Y-59107991D01*
X199057254Y-59217839D01*
X198981387Y-59111701D01*
X198714662Y-58945401D01*
X198580982Y-58908113D01*
X198455400Y-58983180D01*
X198455400Y-59974600D01*
X198475400Y-59974600D01*
X198475400Y-60025400D01*
X198455400Y-60025400D01*
X198455400Y-61016820D01*
X198580982Y-61091887D01*
X198714662Y-61054599D01*
X198981387Y-60888299D01*
X199057254Y-60782161D01*
X199130652Y-60892009D01*
X199391871Y-61066550D01*
X199700000Y-61127841D01*
X200008129Y-61066550D01*
X200269348Y-60892009D01*
X200335000Y-60793754D01*
X200400652Y-60892009D01*
X200661871Y-61066550D01*
X200970000Y-61127841D01*
X201278129Y-61066550D01*
X201539348Y-60892009D01*
X201713889Y-60630790D01*
X201775180Y-60322661D01*
X201775180Y-59677339D01*
X201713889Y-59369210D01*
X201539348Y-59107991D01*
X201278129Y-58933450D01*
X200970000Y-58872159D01*
X200661871Y-58933450D01*
X200400652Y-59107991D01*
X200335000Y-59206246D01*
X200269348Y-59107991D01*
X200182600Y-59050028D01*
X200182600Y-58650005D01*
X200182601Y-58650000D01*
X200145864Y-58465317D01*
X200041250Y-58308750D01*
X199391250Y-57658750D01*
X199234683Y-57554136D01*
X199050000Y-57517400D01*
X195291784Y-57517400D01*
X195180059Y-57247006D01*
X194799199Y-56865480D01*
X194301327Y-56658746D01*
X193762238Y-56658275D01*
X193264006Y-56864141D01*
X192882480Y-57245001D01*
X192675746Y-57742873D01*
X192675275Y-58281962D01*
X185225456Y-58281962D01*
X185225925Y-57745238D01*
X185020059Y-57247006D01*
X184639199Y-56865480D01*
X184141327Y-56658746D01*
X183602238Y-56658275D01*
X183104006Y-56864141D01*
X182722480Y-57245001D01*
X182515746Y-57742873D01*
X182515275Y-58281962D01*
X182667391Y-58650109D01*
X182000100Y-59317400D01*
X165360147Y-59317400D01*
X165766594Y-59149459D01*
X166148120Y-58768599D01*
X166266877Y-58482600D01*
X166500000Y-58482600D01*
X166684683Y-58445864D01*
X166841250Y-58341250D01*
X167619899Y-57562600D01*
X169391361Y-57562600D01*
X169520394Y-57755711D01*
X169830413Y-57962859D01*
X170196105Y-58035600D01*
X170563895Y-58035600D01*
X170929587Y-57962859D01*
X171239606Y-57755711D01*
X171446754Y-57445692D01*
X171519495Y-57080000D01*
X176860505Y-57080000D01*
X176933246Y-57445692D01*
X177140394Y-57755711D01*
X177450413Y-57962859D01*
X177816105Y-58035600D01*
X178183895Y-58035600D01*
X178549587Y-57962859D01*
X178859606Y-57755711D01*
X179066754Y-57445692D01*
X179139495Y-57080000D01*
X179066754Y-56714308D01*
X178859606Y-56404289D01*
X178549587Y-56197141D01*
X178183895Y-56124400D01*
X177816105Y-56124400D01*
X177450413Y-56197141D01*
X177140394Y-56404289D01*
X176933246Y-56714308D01*
X176860505Y-57080000D01*
X171519495Y-57080000D01*
X171446754Y-56714308D01*
X171239606Y-56404289D01*
X170929587Y-56197141D01*
X170563895Y-56124400D01*
X170196105Y-56124400D01*
X169830413Y-56197141D01*
X169520394Y-56404289D01*
X169391361Y-56597400D01*
X167420000Y-56597400D01*
X167235317Y-56634136D01*
X167078750Y-56738750D01*
X167078748Y-56738753D01*
X166300100Y-57517400D01*
X166266803Y-57517400D01*
X166149459Y-57233406D01*
X165768599Y-56851880D01*
X165270727Y-56645146D01*
X164731638Y-56644675D01*
X164233406Y-56850541D01*
X163851880Y-57231401D01*
X163645146Y-57729273D01*
X163644675Y-58268362D01*
X163850541Y-58766594D01*
X164231401Y-59148120D01*
X164639074Y-59317400D01*
X155200147Y-59317400D01*
X155606594Y-59149459D01*
X155988120Y-58768599D01*
X156194854Y-58270727D01*
X156195325Y-57731638D01*
X155989459Y-57233406D01*
X155619790Y-56863091D01*
X160019509Y-56863091D01*
X160204192Y-56826355D01*
X160360759Y-56721741D01*
X163040910Y-54041590D01*
X164042023Y-54041590D01*
X163851880Y-54231401D01*
X163645146Y-54729273D01*
X163644675Y-55268362D01*
X163850541Y-55766594D01*
X164231401Y-56148120D01*
X164729273Y-56354854D01*
X165268362Y-56355325D01*
X165766594Y-56149459D01*
X166148120Y-55768599D01*
X166266877Y-55482600D01*
X166413492Y-55482600D01*
X166598175Y-55445864D01*
X166754742Y-55341250D01*
X167073392Y-55022600D01*
X169391361Y-55022600D01*
X169520394Y-55215711D01*
X169830413Y-55422859D01*
X170196105Y-55495600D01*
X170563895Y-55495600D01*
X170929587Y-55422859D01*
X171239606Y-55215711D01*
X171446754Y-54905692D01*
X171519495Y-54540000D01*
X171446754Y-54174308D01*
X171358075Y-54041590D01*
X177021925Y-54041590D01*
X176933246Y-54174308D01*
X176860505Y-54540000D01*
X176933246Y-54905692D01*
X177140394Y-55215711D01*
X177450413Y-55422859D01*
X177816105Y-55495600D01*
X178183895Y-55495600D01*
X178549587Y-55422859D01*
X178859606Y-55215711D01*
X179066754Y-54905692D01*
X179139495Y-54540000D01*
X179066754Y-54174308D01*
X178978075Y-54041590D01*
X182199090Y-54041590D01*
X182602985Y-54445485D01*
X182485146Y-54729273D01*
X182484675Y-55268362D01*
X182690541Y-55766594D01*
X183071401Y-56148120D01*
X183569273Y-56354854D01*
X184108362Y-56355325D01*
X184606594Y-56149459D01*
X184988120Y-55768599D01*
X185194854Y-55270727D01*
X185194856Y-55268362D01*
X192644675Y-55268362D01*
X192850541Y-55766594D01*
X193231401Y-56148120D01*
X193729273Y-56354854D01*
X194268362Y-56355325D01*
X194766594Y-56149459D01*
X195148120Y-55768599D01*
X195354854Y-55270727D01*
X195355068Y-55025400D01*
X197654820Y-55025400D01*
X197654820Y-55326390D01*
X197725831Y-55632586D01*
X197908613Y-55888299D01*
X198175338Y-56054599D01*
X198309018Y-56091887D01*
X198434600Y-56016820D01*
X198434600Y-55025400D01*
X197654820Y-55025400D01*
X195355068Y-55025400D01*
X195355325Y-54731638D01*
X195237067Y-54445433D01*
X195699899Y-53982600D01*
X198115675Y-53982600D01*
X197908613Y-54111701D01*
X197725831Y-54367414D01*
X197654820Y-54673610D01*
X197654820Y-54974600D01*
X198434600Y-54974600D01*
X198434600Y-54954600D01*
X198485400Y-54954600D01*
X198485400Y-54974600D01*
X198505400Y-54974600D01*
X198505400Y-55025400D01*
X198485400Y-55025400D01*
X198485400Y-56016820D01*
X198610982Y-56091887D01*
X198744662Y-56054599D01*
X199011387Y-55888299D01*
X199087254Y-55782161D01*
X199160652Y-55892009D01*
X199421871Y-56066550D01*
X199730000Y-56127841D01*
X200038129Y-56066550D01*
X200299348Y-55892009D01*
X200365000Y-55793754D01*
X200430652Y-55892009D01*
X200691871Y-56066550D01*
X201000000Y-56127841D01*
X201308129Y-56066550D01*
X201569348Y-55892009D01*
X201743889Y-55630790D01*
X201805180Y-55322661D01*
X201805180Y-54677339D01*
X201743889Y-54369210D01*
X201569348Y-54107991D01*
X201308129Y-53933450D01*
X201000000Y-53872159D01*
X200691871Y-53933450D01*
X200430652Y-54107991D01*
X200365000Y-54206246D01*
X200299348Y-54107991D01*
X200038129Y-53933450D01*
X199730000Y-53872159D01*
X199609598Y-53896108D01*
X199309890Y-53596400D01*
X205569639Y-53596400D01*
X205569639Y-55323600D01*
X205597977Y-55474203D01*
X205686983Y-55612522D01*
X205822790Y-55705315D01*
X205984000Y-55737961D01*
X208016000Y-55737961D01*
X208166603Y-55709623D01*
X208304922Y-55620617D01*
X208397715Y-55484810D01*
X208430361Y-55323600D01*
X208430361Y-53596400D01*
X208402023Y-53445797D01*
X208313017Y-53307478D01*
X208177210Y-53214685D01*
X208016000Y-53182039D01*
X205984000Y-53182039D01*
X205833397Y-53210377D01*
X205695078Y-53299383D01*
X205602285Y-53435190D01*
X205569639Y-53596400D01*
X199309890Y-53596400D01*
X198872240Y-53158750D01*
X198715673Y-53054136D01*
X198530990Y-53017400D01*
X195500000Y-53017400D01*
X195315317Y-53054136D01*
X195158750Y-53158750D01*
X195158748Y-53158753D01*
X194554516Y-53762985D01*
X194270727Y-53645146D01*
X193731638Y-53644675D01*
X193233406Y-53850541D01*
X192851880Y-54231401D01*
X192645146Y-54729273D01*
X192644675Y-55268362D01*
X185194856Y-55268362D01*
X185195325Y-54731638D01*
X184989459Y-54233406D01*
X184608599Y-53851880D01*
X184110727Y-53645146D01*
X183571638Y-53644675D01*
X183285433Y-53762933D01*
X182740240Y-53217740D01*
X182583673Y-53113126D01*
X182398990Y-53076390D01*
X165839791Y-53076390D01*
X166148120Y-52768599D01*
X166266877Y-52482600D01*
X169391361Y-52482600D01*
X169520394Y-52675711D01*
X169830413Y-52882859D01*
X170196105Y-52955600D01*
X170563895Y-52955600D01*
X170929587Y-52882859D01*
X171239606Y-52675711D01*
X171446754Y-52365692D01*
X171519495Y-52000000D01*
X171446754Y-51634308D01*
X171239606Y-51324289D01*
X170929587Y-51117141D01*
X170854016Y-51102109D01*
X177525984Y-51102109D01*
X177450413Y-51117141D01*
X177140394Y-51324289D01*
X176933246Y-51634308D01*
X176860505Y-52000000D01*
X176933246Y-52365692D01*
X177140394Y-52675711D01*
X177450413Y-52882859D01*
X177816105Y-52955600D01*
X178183895Y-52955600D01*
X178549587Y-52882859D01*
X178859606Y-52675711D01*
X179066754Y-52365692D01*
X179139495Y-52000000D01*
X179066754Y-51634308D01*
X178859606Y-51324289D01*
X178549587Y-51117141D01*
X178474016Y-51102109D01*
X182259609Y-51102109D01*
X182602985Y-51445485D01*
X182485146Y-51729273D01*
X182484675Y-52268362D01*
X182690541Y-52766594D01*
X183071401Y-53148120D01*
X183569273Y-53354854D01*
X184108362Y-53355325D01*
X184606594Y-53149459D01*
X184988120Y-52768599D01*
X185194854Y-52270727D01*
X185194856Y-52268362D01*
X192644675Y-52268362D01*
X192850541Y-52766594D01*
X193231401Y-53148120D01*
X193729273Y-53354854D01*
X194268362Y-53355325D01*
X194766594Y-53149459D01*
X195148120Y-52768599D01*
X195266877Y-52482600D01*
X199100000Y-52482600D01*
X199284683Y-52445864D01*
X199441250Y-52341250D01*
X200071247Y-51711252D01*
X200071250Y-51711250D01*
X200175864Y-51554683D01*
X200183280Y-51517400D01*
X200212601Y-51370000D01*
X200212600Y-51369995D01*
X200212600Y-50949972D01*
X200299348Y-50892009D01*
X200365000Y-50793754D01*
X200430652Y-50892009D01*
X200691871Y-51066550D01*
X201000000Y-51127841D01*
X201308129Y-51066550D01*
X201569348Y-50892009D01*
X201743889Y-50630790D01*
X201805180Y-50322661D01*
X201805180Y-49677339D01*
X201743889Y-49369210D01*
X201569348Y-49107991D01*
X201308129Y-48933450D01*
X201000000Y-48872159D01*
X200691871Y-48933450D01*
X200430652Y-49107991D01*
X200365000Y-49206246D01*
X200299348Y-49107991D01*
X200038129Y-48933450D01*
X199730000Y-48872159D01*
X199421871Y-48933450D01*
X199160652Y-49107991D01*
X199087254Y-49217839D01*
X199011387Y-49111701D01*
X198744662Y-48945401D01*
X198610982Y-48908113D01*
X198485400Y-48983180D01*
X198485400Y-49974600D01*
X198505400Y-49974600D01*
X198505400Y-50025400D01*
X198485400Y-50025400D01*
X198485400Y-51016820D01*
X198610982Y-51091887D01*
X198744662Y-51054599D01*
X199011387Y-50888299D01*
X199087254Y-50782161D01*
X199160652Y-50892009D01*
X199247400Y-50949972D01*
X199247400Y-51170101D01*
X198900100Y-51517400D01*
X195266803Y-51517400D01*
X195149459Y-51233406D01*
X194768599Y-50851880D01*
X194270727Y-50645146D01*
X193731638Y-50644675D01*
X193233406Y-50850541D01*
X192851880Y-51231401D01*
X192645146Y-51729273D01*
X192644675Y-52268362D01*
X185194856Y-52268362D01*
X185195325Y-51731638D01*
X184989459Y-51233406D01*
X184608599Y-50851880D01*
X184110727Y-50645146D01*
X183571638Y-50644675D01*
X183285433Y-50762933D01*
X182800759Y-50278259D01*
X182644192Y-50173645D01*
X182459509Y-50136909D01*
X178857813Y-50136909D01*
X178859606Y-50135711D01*
X179066754Y-49825692D01*
X179139495Y-49460000D01*
X179066754Y-49094308D01*
X178859606Y-48784289D01*
X178549587Y-48577141D01*
X178183895Y-48504400D01*
X177816105Y-48504400D01*
X177450413Y-48577141D01*
X177140394Y-48784289D01*
X176933246Y-49094308D01*
X176860505Y-49460000D01*
X176933246Y-49825692D01*
X177140394Y-50135711D01*
X177142187Y-50136909D01*
X171237813Y-50136909D01*
X171239606Y-50135711D01*
X171446754Y-49825692D01*
X171519495Y-49460000D01*
X171446754Y-49094308D01*
X171239606Y-48784289D01*
X170929587Y-48577141D01*
X170563895Y-48504400D01*
X170196105Y-48504400D01*
X169830413Y-48577141D01*
X169520394Y-48784289D01*
X169313246Y-49094308D01*
X169240505Y-49460000D01*
X169313246Y-49825692D01*
X169520394Y-50135711D01*
X169522187Y-50136909D01*
X165779166Y-50136909D01*
X166148120Y-49768599D01*
X166354854Y-49270727D01*
X166355325Y-48731638D01*
X166237067Y-48445433D01*
X167279900Y-47402600D01*
X169391361Y-47402600D01*
X169520394Y-47595711D01*
X169830413Y-47802859D01*
X170196105Y-47875600D01*
X170563895Y-47875600D01*
X170929587Y-47802859D01*
X171239606Y-47595711D01*
X171446754Y-47285692D01*
X171519495Y-46920000D01*
X171446754Y-46554308D01*
X171239606Y-46244289D01*
X170929587Y-46037141D01*
X170655392Y-45982600D01*
X177023140Y-45982600D01*
X177226977Y-46186436D01*
X177140394Y-46244289D01*
X176933246Y-46554308D01*
X176860505Y-46920000D01*
X176933246Y-47285692D01*
X177140394Y-47595711D01*
X177450413Y-47802859D01*
X177816105Y-47875600D01*
X178183895Y-47875600D01*
X178549587Y-47802859D01*
X178859606Y-47595711D01*
X179066754Y-47285692D01*
X179139495Y-46920000D01*
X179066754Y-46554308D01*
X178859606Y-46244289D01*
X178549587Y-46037141D01*
X178387478Y-46004895D01*
X178341250Y-45935710D01*
X178341247Y-45935708D01*
X177722526Y-45316986D01*
X177816105Y-45335600D01*
X178183895Y-45335600D01*
X178549587Y-45262859D01*
X178859606Y-45055711D01*
X179066754Y-44745692D01*
X179139495Y-44380000D01*
X179066754Y-44014308D01*
X178859606Y-43704289D01*
X178549587Y-43497141D01*
X178473863Y-43482079D01*
X178445864Y-43341317D01*
X178341250Y-43184750D01*
X176565250Y-41408750D01*
X176408683Y-41304136D01*
X176224000Y-41267400D01*
X167573492Y-41267400D01*
X167388809Y-41304136D01*
X167232242Y-41408750D01*
X166161245Y-42479747D01*
X166059459Y-42233406D01*
X165678599Y-41851880D01*
X165180727Y-41645146D01*
X164641638Y-41644675D01*
X164143406Y-41850541D01*
X163761880Y-42231401D01*
X163555146Y-42729273D01*
X163554675Y-43268362D01*
X163760541Y-43766594D01*
X164141401Y-44148120D01*
X164639273Y-44354854D01*
X165178362Y-44355325D01*
X165676594Y-44149459D01*
X166058120Y-43768599D01*
X166176877Y-43482600D01*
X166323492Y-43482600D01*
X166508175Y-43445864D01*
X166664742Y-43341250D01*
X167773392Y-42232600D01*
X176024100Y-42232600D01*
X177353438Y-43561938D01*
X177140394Y-43704289D01*
X176933246Y-44014308D01*
X176860505Y-44380000D01*
X176933246Y-44745692D01*
X177114795Y-45017400D01*
X171265205Y-45017400D01*
X171446754Y-44745692D01*
X171519495Y-44380000D01*
X171446754Y-44014308D01*
X171239606Y-43704289D01*
X170929587Y-43497141D01*
X170563895Y-43424400D01*
X170196105Y-43424400D01*
X169830413Y-43497141D01*
X169520394Y-43704289D01*
X169313246Y-44014308D01*
X169240505Y-44380000D01*
X169313246Y-44745692D01*
X169494795Y-45017400D01*
X166913497Y-45017400D01*
X166913492Y-45017399D01*
X166728809Y-45054136D01*
X166572242Y-45158750D01*
X166251245Y-45479747D01*
X166149459Y-45233406D01*
X165768599Y-44851880D01*
X165270727Y-44645146D01*
X164731638Y-44644675D01*
X164233406Y-44850541D01*
X163851880Y-45231401D01*
X163645146Y-45729273D01*
X163644675Y-46268362D01*
X163850541Y-46766594D01*
X164231401Y-47148120D01*
X164729273Y-47354854D01*
X165268362Y-47355325D01*
X165766594Y-47149459D01*
X166148120Y-46768599D01*
X166266877Y-46482600D01*
X166413492Y-46482600D01*
X166598175Y-46445864D01*
X166754742Y-46341250D01*
X167113392Y-45982600D01*
X170104608Y-45982600D01*
X169830413Y-46037141D01*
X169520394Y-46244289D01*
X169391361Y-46437400D01*
X167080000Y-46437400D01*
X166895317Y-46474136D01*
X166738750Y-46578750D01*
X165554515Y-47762985D01*
X165270727Y-47645146D01*
X164731638Y-47644675D01*
X164233406Y-47850541D01*
X163851880Y-48231401D01*
X163645146Y-48729273D01*
X163644675Y-49268362D01*
X163850541Y-49766594D01*
X164220210Y-50136909D01*
X163980491Y-50136909D01*
X163795808Y-50173645D01*
X163639241Y-50278259D01*
X161019609Y-52897891D01*
X155858602Y-52897891D01*
X155988120Y-52768599D01*
X156194854Y-52270727D01*
X156195325Y-51731638D01*
X155989459Y-51233406D01*
X155800024Y-51043640D01*
X158986097Y-51043640D01*
X159402615Y-51460158D01*
X159402473Y-51622976D01*
X159509668Y-51882407D01*
X159707984Y-52081069D01*
X159967228Y-52188717D01*
X160247933Y-52188962D01*
X160507364Y-52081767D01*
X160706026Y-51883451D01*
X160813674Y-51624207D01*
X160813919Y-51343502D01*
X160706724Y-51084071D01*
X160508408Y-50885409D01*
X160249164Y-50777761D01*
X160085075Y-50777618D01*
X159527247Y-50219790D01*
X159370680Y-50115176D01*
X159185997Y-50078440D01*
X155677737Y-50078440D01*
X155988120Y-49768599D01*
X156194854Y-49270727D01*
X156195325Y-48731638D01*
X155989459Y-48233406D01*
X155858391Y-48102109D01*
X157150686Y-48102109D01*
X157815217Y-48766639D01*
X157815075Y-48929458D01*
X157922270Y-49188889D01*
X158120586Y-49387551D01*
X158379830Y-49495199D01*
X158660535Y-49495444D01*
X158919966Y-49388249D01*
X159118628Y-49189933D01*
X159226276Y-48930689D01*
X159226521Y-48649984D01*
X159119326Y-48390553D01*
X158921010Y-48191891D01*
X158661766Y-48084243D01*
X158497676Y-48084100D01*
X157691836Y-47278259D01*
X157535269Y-47173645D01*
X157350586Y-47136909D01*
X155619166Y-47136909D01*
X155988120Y-46768599D01*
X156194854Y-46270727D01*
X156195325Y-45731638D01*
X155989459Y-45233406D01*
X155619790Y-44863091D01*
X157614158Y-44863091D01*
X158546287Y-45795220D01*
X158546145Y-45958038D01*
X158653340Y-46217469D01*
X158851656Y-46416131D01*
X159110900Y-46523779D01*
X159391605Y-46524024D01*
X159651036Y-46416829D01*
X159849698Y-46218513D01*
X159957346Y-45959269D01*
X159957591Y-45678564D01*
X159850396Y-45419133D01*
X159652080Y-45220471D01*
X159392836Y-45112823D01*
X159228747Y-45112680D01*
X158155308Y-44039241D01*
X157998741Y-43934627D01*
X157814058Y-43897891D01*
X155768602Y-43897891D01*
X155898120Y-43768599D01*
X156104854Y-43270727D01*
X156105325Y-42731638D01*
X155899459Y-42233406D01*
X155518599Y-41851880D01*
X155020727Y-41645146D01*
X154481638Y-41644675D01*
X153983406Y-41850541D01*
X153601880Y-42231401D01*
X153395146Y-42729273D01*
X153394675Y-43268362D01*
X153600541Y-43766594D01*
X153731609Y-43897891D01*
X140820390Y-43897891D01*
X140054472Y-43131972D01*
X140443949Y-43131972D01*
X140518130Y-43306671D01*
X140921612Y-43481766D01*
X141361385Y-43489127D01*
X141770500Y-43327633D01*
X141801870Y-43306671D01*
X141876051Y-43131972D01*
X141160000Y-42415921D01*
X140443949Y-43131972D01*
X140054472Y-43131972D01*
X139666133Y-42743633D01*
X139725408Y-42600882D01*
X139725425Y-42581385D01*
X140050873Y-42581385D01*
X140212367Y-42990500D01*
X140233329Y-43021870D01*
X140408028Y-43096051D01*
X141124079Y-42380000D01*
X141195921Y-42380000D01*
X141911972Y-43096051D01*
X142086671Y-43021870D01*
X142261766Y-42618388D01*
X142262091Y-42598953D01*
X142594208Y-42598953D01*
X142762171Y-43005454D01*
X143072910Y-43316736D01*
X143479118Y-43485408D01*
X143918953Y-43485792D01*
X144325454Y-43317829D01*
X144636736Y-43007090D01*
X144805408Y-42600882D01*
X144805409Y-42598953D01*
X145134208Y-42598953D01*
X145302171Y-43005454D01*
X145612910Y-43316736D01*
X146019118Y-43485408D01*
X146458953Y-43485792D01*
X146865454Y-43317829D01*
X147176736Y-43007090D01*
X147345408Y-42600882D01*
X147345409Y-42598953D01*
X147674208Y-42598953D01*
X147842171Y-43005454D01*
X148152910Y-43316736D01*
X148559118Y-43485408D01*
X148998953Y-43485792D01*
X149405454Y-43317829D01*
X149716736Y-43007090D01*
X149885408Y-42600882D01*
X149885792Y-42161047D01*
X149717829Y-41754546D01*
X149407090Y-41443264D01*
X149000882Y-41274592D01*
X148561047Y-41274208D01*
X148154546Y-41442171D01*
X147843264Y-41752910D01*
X147674592Y-42159118D01*
X147674208Y-42598953D01*
X147345409Y-42598953D01*
X147345792Y-42161047D01*
X147177829Y-41754546D01*
X146867090Y-41443264D01*
X146460882Y-41274592D01*
X146021047Y-41274208D01*
X145614546Y-41442171D01*
X145303264Y-41752910D01*
X145134592Y-42159118D01*
X145134208Y-42598953D01*
X144805409Y-42598953D01*
X144805792Y-42161047D01*
X144637829Y-41754546D01*
X144327090Y-41443264D01*
X143920882Y-41274592D01*
X143481047Y-41274208D01*
X143074546Y-41442171D01*
X142763264Y-41752910D01*
X142594592Y-42159118D01*
X142594208Y-42598953D01*
X142262091Y-42598953D01*
X142269127Y-42178615D01*
X142107633Y-41769500D01*
X142086671Y-41738130D01*
X141911972Y-41663949D01*
X141195921Y-42380000D01*
X141124079Y-42380000D01*
X140408028Y-41663949D01*
X140233329Y-41738130D01*
X140058234Y-42141612D01*
X140050873Y-42581385D01*
X139725425Y-42581385D01*
X139725792Y-42161047D01*
X139557829Y-41754546D01*
X139431532Y-41628028D01*
X140443949Y-41628028D01*
X141160000Y-42344079D01*
X141876051Y-41628028D01*
X141801870Y-41453329D01*
X141398388Y-41278234D01*
X140958615Y-41270873D01*
X140549500Y-41432367D01*
X140518130Y-41453329D01*
X140443949Y-41628028D01*
X139431532Y-41628028D01*
X139247090Y-41443264D01*
X138840882Y-41274592D01*
X138401047Y-41274208D01*
X137994546Y-41442171D01*
X137683264Y-41752910D01*
X137514592Y-42159118D01*
X137514208Y-42598953D01*
X137682171Y-43005454D01*
X137992910Y-43316736D01*
X138399118Y-43485408D01*
X138838953Y-43485792D01*
X138983547Y-43426047D01*
X140279239Y-44721738D01*
X140279241Y-44721741D01*
X140420053Y-44815828D01*
X140435808Y-44826355D01*
X140620491Y-44863092D01*
X140620496Y-44863091D01*
X154060834Y-44863091D01*
X153691880Y-45231401D01*
X153485146Y-45729273D01*
X153484675Y-46268362D01*
X153690541Y-46766594D01*
X154060210Y-47136909D01*
X138979409Y-47136909D01*
X134586133Y-42743633D01*
X134645408Y-42600882D01*
X134645409Y-42598953D01*
X134974208Y-42598953D01*
X135142171Y-43005454D01*
X135452910Y-43316736D01*
X135859118Y-43485408D01*
X136298953Y-43485792D01*
X136705454Y-43317829D01*
X137016736Y-43007090D01*
X137185408Y-42600882D01*
X137185792Y-42161047D01*
X137017829Y-41754546D01*
X136707090Y-41443264D01*
X136300882Y-41274592D01*
X135861047Y-41274208D01*
X135454546Y-41442171D01*
X135143264Y-41752910D01*
X134974592Y-42159118D01*
X134974208Y-42598953D01*
X134645409Y-42598953D01*
X134645792Y-42161047D01*
X134477829Y-41754546D01*
X134167090Y-41443264D01*
X133760882Y-41274592D01*
X133321047Y-41274208D01*
X132914546Y-41442171D01*
X132603264Y-41752910D01*
X132434592Y-42159118D01*
X132434208Y-42598953D01*
X132602171Y-43005454D01*
X132912910Y-43316736D01*
X133319118Y-43485408D01*
X133758953Y-43485792D01*
X133903547Y-43426047D01*
X138438259Y-47960759D01*
X138594826Y-48065373D01*
X138779509Y-48102110D01*
X138779514Y-48102109D01*
X153821398Y-48102109D01*
X153691880Y-48231401D01*
X153485146Y-48729273D01*
X153484675Y-49268362D01*
X153690541Y-49766594D01*
X154001843Y-50078440D01*
X139380940Y-50078440D01*
X132046133Y-42743633D01*
X132105408Y-42600882D01*
X132105792Y-42161047D01*
X131937829Y-41754546D01*
X131627090Y-41443264D01*
X131220882Y-41274592D01*
X130781047Y-41274208D01*
X130374546Y-41442171D01*
X130063264Y-41752910D01*
X129894592Y-42159118D01*
X129894208Y-42598953D01*
X130062171Y-43005454D01*
X130372910Y-43316736D01*
X130779118Y-43485408D01*
X131218953Y-43485792D01*
X131363547Y-43426047D01*
X138839790Y-50902290D01*
X138996357Y-51006904D01*
X139181040Y-51043641D01*
X139181045Y-51043640D01*
X153879969Y-51043640D01*
X153691880Y-51231401D01*
X153485146Y-51729273D01*
X153484675Y-52268362D01*
X153690541Y-52766594D01*
X153821609Y-52897891D01*
X132040391Y-52897891D01*
X121886133Y-42743633D01*
X121945408Y-42600882D01*
X121945409Y-42598953D01*
X122274208Y-42598953D01*
X122442171Y-43005454D01*
X122752910Y-43316736D01*
X123159118Y-43485408D01*
X123598953Y-43485792D01*
X124005454Y-43317829D01*
X124316736Y-43007090D01*
X124485408Y-42600882D01*
X124485409Y-42598953D01*
X124814208Y-42598953D01*
X124982171Y-43005454D01*
X125292910Y-43316736D01*
X125699118Y-43485408D01*
X126138953Y-43485792D01*
X126545454Y-43317829D01*
X126856736Y-43007090D01*
X127025408Y-42600882D01*
X127025409Y-42598953D01*
X127354208Y-42598953D01*
X127522171Y-43005454D01*
X127832910Y-43316736D01*
X128239118Y-43485408D01*
X128678953Y-43485792D01*
X129085454Y-43317829D01*
X129396736Y-43007090D01*
X129565408Y-42600882D01*
X129565792Y-42161047D01*
X129397829Y-41754546D01*
X129087090Y-41443264D01*
X128680882Y-41274592D01*
X128241047Y-41274208D01*
X127834546Y-41442171D01*
X127523264Y-41752910D01*
X127354592Y-42159118D01*
X127354208Y-42598953D01*
X127025409Y-42598953D01*
X127025792Y-42161047D01*
X126857829Y-41754546D01*
X126547090Y-41443264D01*
X126140882Y-41274592D01*
X125701047Y-41274208D01*
X125294546Y-41442171D01*
X124983264Y-41752910D01*
X124814592Y-42159118D01*
X124814208Y-42598953D01*
X124485409Y-42598953D01*
X124485792Y-42161047D01*
X124317829Y-41754546D01*
X124007090Y-41443264D01*
X123600882Y-41274592D01*
X123161047Y-41274208D01*
X122754546Y-41442171D01*
X122443264Y-41752910D01*
X122274592Y-42159118D01*
X122274208Y-42598953D01*
X121945409Y-42598953D01*
X121945792Y-42161047D01*
X121777829Y-41754546D01*
X121467090Y-41443264D01*
X121060882Y-41274592D01*
X120621047Y-41274208D01*
X120214546Y-41442171D01*
X119903264Y-41752910D01*
X119734592Y-42159118D01*
X119734208Y-42598953D01*
X119902171Y-43005454D01*
X120212910Y-43316736D01*
X120619118Y-43485408D01*
X121058953Y-43485792D01*
X121203547Y-43426047D01*
X131320928Y-53543428D01*
X130145928Y-53543428D01*
X119346133Y-42743633D01*
X119405408Y-42600882D01*
X119405792Y-42161047D01*
X119237829Y-41754546D01*
X118927090Y-41443264D01*
X118520882Y-41274592D01*
X118081047Y-41274208D01*
X117674546Y-41442171D01*
X117363264Y-41752910D01*
X117194592Y-42159118D01*
X117194208Y-42598953D01*
X117362171Y-43005454D01*
X117672910Y-43316736D01*
X118079118Y-43485408D01*
X118518953Y-43485792D01*
X118663547Y-43426047D01*
X129288939Y-54051439D01*
X128113939Y-54051439D01*
X116806133Y-42743633D01*
X116865408Y-42600882D01*
X116865792Y-42161047D01*
X116697829Y-41754546D01*
X116387090Y-41443264D01*
X115980882Y-41274592D01*
X115541047Y-41274208D01*
X115134546Y-41442171D01*
X114823264Y-41752910D01*
X114654592Y-42159118D01*
X114654208Y-42598953D01*
X114822171Y-43005454D01*
X115132910Y-43316736D01*
X115539118Y-43485408D01*
X115978953Y-43485792D01*
X116123547Y-43426047D01*
X127572789Y-54875289D01*
X127729356Y-54979903D01*
X127914039Y-55016640D01*
X127914044Y-55016639D01*
X132106143Y-55016639D01*
X131900832Y-55101472D01*
X131702170Y-55299788D01*
X131594522Y-55559032D01*
X131594277Y-55839737D01*
X131701472Y-56099168D01*
X131817400Y-56215298D01*
X131817400Y-56873907D01*
X131627090Y-56683264D01*
X131220882Y-56514592D01*
X130781047Y-56514208D01*
X130374546Y-56682171D01*
X130063264Y-56992910D01*
X129894592Y-57399118D01*
X129894208Y-57838953D01*
X130062171Y-58245454D01*
X130372910Y-58556736D01*
X130517400Y-58616733D01*
X130517400Y-60883128D01*
X130554136Y-61067811D01*
X130658750Y-61224378D01*
X134751772Y-65317400D01*
X134499900Y-65317400D01*
X128942600Y-59760100D01*
X128942600Y-58616855D01*
X129085454Y-58557829D01*
X129396736Y-58247090D01*
X129565408Y-57840882D01*
X129565792Y-57401047D01*
X129397829Y-56994546D01*
X129087090Y-56683264D01*
X128680882Y-56514592D01*
X128241047Y-56514208D01*
X127834546Y-56682171D01*
X127523264Y-56992910D01*
X127354592Y-57399118D01*
X127354208Y-57838953D01*
X127522171Y-58245454D01*
X127832910Y-58556736D01*
X127977400Y-58616733D01*
X127977400Y-59960000D01*
X128001128Y-60079288D01*
X126498903Y-58577063D01*
X126545454Y-58557829D01*
X126856736Y-58247090D01*
X127025408Y-57840882D01*
X127025792Y-57401047D01*
X126857829Y-56994546D01*
X126547090Y-56683264D01*
X126140882Y-56514592D01*
X125701047Y-56514208D01*
X125294546Y-56682171D01*
X124983264Y-56992910D01*
X124814592Y-57399118D01*
X124814208Y-57838953D01*
X124982171Y-58245454D01*
X125292910Y-58556736D01*
X125437400Y-58616733D01*
X125437400Y-58680660D01*
X125474136Y-58865343D01*
X125578750Y-59021910D01*
X132890262Y-66333422D01*
X132775922Y-66333422D01*
X124426133Y-57983633D01*
X124485408Y-57840882D01*
X124485792Y-57401047D01*
X124317829Y-56994546D01*
X124007090Y-56683264D01*
X123600882Y-56514592D01*
X123161047Y-56514208D01*
X122754546Y-56682171D01*
X122443264Y-56992910D01*
X122274592Y-57399118D01*
X122274208Y-57838953D01*
X122442171Y-58245454D01*
X122752910Y-58556736D01*
X123159118Y-58725408D01*
X123598953Y-58725792D01*
X123743547Y-58666047D01*
X132026177Y-66948677D01*
X127531177Y-66948677D01*
X122877662Y-62295162D01*
X123282475Y-62295162D01*
X123488341Y-62793394D01*
X123869201Y-63174920D01*
X124367073Y-63381654D01*
X124906162Y-63382125D01*
X125404394Y-63176259D01*
X125785920Y-62795399D01*
X125992654Y-62297527D01*
X125993125Y-61758438D01*
X125787259Y-61260206D01*
X125406399Y-60878680D01*
X124908527Y-60671946D01*
X124369438Y-60671475D01*
X123871206Y-60877341D01*
X123489680Y-61258201D01*
X123282946Y-61756073D01*
X123282475Y-62295162D01*
X122877662Y-62295162D01*
X120082600Y-59500100D01*
X120082600Y-58426198D01*
X120212910Y-58556736D01*
X120619118Y-58725408D01*
X121058953Y-58725792D01*
X121465454Y-58557829D01*
X121776736Y-58247090D01*
X121945408Y-57840882D01*
X121945792Y-57401047D01*
X121777829Y-56994546D01*
X121467090Y-56683264D01*
X121060882Y-56514592D01*
X120621047Y-56514208D01*
X120214546Y-56682171D01*
X120082600Y-56813887D01*
X120082600Y-48760005D01*
X120082601Y-48760000D01*
X120045864Y-48575317D01*
X119998479Y-48504400D01*
X119941250Y-48418750D01*
X119941247Y-48418748D01*
X114266133Y-42743633D01*
X114325408Y-42600882D01*
X114325792Y-42161047D01*
X114157829Y-41754546D01*
X113847090Y-41443264D01*
X113440882Y-41274592D01*
X113001047Y-41274208D01*
X112594546Y-41442171D01*
X112283264Y-41752910D01*
X112114592Y-42159118D01*
X112114208Y-42598953D01*
X110430600Y-42598953D01*
X110430600Y-40430600D01*
X188552621Y-40430600D01*
X186465820Y-42517400D01*
X186465820Y-42517400D01*
G37*
X186465820Y-42517400D02*
X185106803Y-42517400D01*
X184989459Y-42233406D01*
X184608599Y-41851880D01*
X184110727Y-41645146D01*
X183571638Y-41644675D01*
X183073406Y-41850541D01*
X182691880Y-42231401D01*
X182485146Y-42729273D01*
X182484675Y-43268362D01*
X182690541Y-43766594D01*
X183071401Y-44148120D01*
X183569273Y-44354854D01*
X184108362Y-44355325D01*
X184606594Y-44149459D01*
X184988120Y-43768599D01*
X185106877Y-43482600D01*
X186219056Y-43482600D01*
X185183745Y-44517911D01*
X184849489Y-44517911D01*
X184664806Y-44554647D01*
X184508239Y-44659261D01*
X184404515Y-44762985D01*
X184120727Y-44645146D01*
X183581638Y-44644675D01*
X183083406Y-44850541D01*
X182701880Y-45231401D01*
X182495146Y-45729273D01*
X182494675Y-46268362D01*
X182700541Y-46766594D01*
X183081401Y-47148120D01*
X183579273Y-47354854D01*
X184118362Y-47355325D01*
X184616594Y-47149459D01*
X184998120Y-46768599D01*
X185204854Y-46270727D01*
X185205325Y-45731638D01*
X185102635Y-45483111D01*
X185383645Y-45483111D01*
X185568328Y-45446375D01*
X185617400Y-45413586D01*
X185617400Y-46550101D01*
X184404515Y-47762985D01*
X184120727Y-47645146D01*
X183581638Y-47644675D01*
X183083406Y-47850541D01*
X182701880Y-48231401D01*
X182495146Y-48729273D01*
X182494675Y-49268362D01*
X182700541Y-49766594D01*
X183081401Y-50148120D01*
X183579273Y-50354854D01*
X184118362Y-50355325D01*
X184616594Y-50149459D01*
X184998120Y-49768599D01*
X185204854Y-49270727D01*
X185204856Y-49268362D01*
X192654675Y-49268362D01*
X192860541Y-49766594D01*
X193241401Y-50148120D01*
X193739273Y-50354854D01*
X194278362Y-50355325D01*
X194776594Y-50149459D01*
X194900869Y-50025400D01*
X197654820Y-50025400D01*
X197654820Y-50326390D01*
X197725831Y-50632586D01*
X197908613Y-50888299D01*
X198175338Y-51054599D01*
X198309018Y-51091887D01*
X198434600Y-51016820D01*
X198434600Y-50025400D01*
X197654820Y-50025400D01*
X194900869Y-50025400D01*
X195158120Y-49768599D01*
X195197562Y-49673610D01*
X197654820Y-49673610D01*
X197654820Y-49974600D01*
X198434600Y-49974600D01*
X198434600Y-48983180D01*
X198309018Y-48908113D01*
X198175338Y-48945401D01*
X197908613Y-49111701D01*
X197725831Y-49367414D01*
X197654820Y-49673610D01*
X195197562Y-49673610D01*
X195364854Y-49270727D01*
X195365325Y-48731638D01*
X195159459Y-48233406D01*
X194778599Y-47851880D01*
X194280727Y-47645146D01*
X193741638Y-47644675D01*
X193243406Y-47850541D01*
X192861880Y-48231401D01*
X192655146Y-48729273D01*
X192654675Y-49268362D01*
X185204856Y-49268362D01*
X185205325Y-48731638D01*
X185087067Y-48445433D01*
X186441247Y-47091252D01*
X186441250Y-47091250D01*
X186545864Y-46934683D01*
X186548785Y-46920000D01*
X186582601Y-46750000D01*
X186582600Y-46749995D01*
X186582600Y-46268362D01*
X192654675Y-46268362D01*
X192860541Y-46766594D01*
X193241401Y-47148120D01*
X193739273Y-47354854D01*
X194278362Y-47355325D01*
X194776594Y-47149459D01*
X195158120Y-46768599D01*
X195364854Y-46270727D01*
X195365325Y-45731638D01*
X195253087Y-45460000D01*
X205601529Y-45460000D01*
X205705936Y-45984889D01*
X206003261Y-46429868D01*
X206289960Y-46621434D01*
X205984000Y-46621434D01*
X205852223Y-46646230D01*
X205731193Y-46724110D01*
X205649999Y-46842942D01*
X205621434Y-46984000D01*
X205621434Y-49016000D01*
X205646230Y-49147777D01*
X205724110Y-49268807D01*
X205842942Y-49350001D01*
X205984000Y-49378566D01*
X208016000Y-49378566D01*
X208147777Y-49353770D01*
X208268807Y-49275890D01*
X208350001Y-49157058D01*
X208378566Y-49016000D01*
X208378566Y-46984000D01*
X208353770Y-46852223D01*
X208275890Y-46731193D01*
X208157058Y-46649999D01*
X208016000Y-46621434D01*
X207710040Y-46621434D01*
X207996739Y-46429868D01*
X208294064Y-45984889D01*
X208398471Y-45460000D01*
X208294064Y-44935111D01*
X207996739Y-44490132D01*
X207551760Y-44192807D01*
X207026871Y-44088400D01*
X206973129Y-44088400D01*
X206448240Y-44192807D01*
X206003261Y-44490132D01*
X205705936Y-44935111D01*
X205601529Y-45460000D01*
X195253087Y-45460000D01*
X195159459Y-45233406D01*
X194778599Y-44851880D01*
X194280727Y-44645146D01*
X193741638Y-44644675D01*
X193243406Y-44850541D01*
X192861880Y-45231401D01*
X192655146Y-45729273D01*
X192654675Y-46268362D01*
X186582600Y-46268362D01*
X186582600Y-45225968D01*
X189725968Y-42082600D01*
X193000941Y-42082600D01*
X192851880Y-42231401D01*
X192645146Y-42729273D01*
X192644675Y-43268362D01*
X192850541Y-43766594D01*
X193231401Y-44148120D01*
X193729273Y-44354854D01*
X194268362Y-44355325D01*
X194766594Y-44149459D01*
X195148120Y-43768599D01*
X195354854Y-43270727D01*
X195355325Y-42731638D01*
X195149459Y-42233406D01*
X194998916Y-42082600D01*
X196700100Y-42082600D01*
X197713600Y-43096099D01*
X197713600Y-43203472D01*
X197626555Y-43261634D01*
X197451923Y-43522989D01*
X197390600Y-43831279D01*
X197390600Y-44168721D01*
X197451923Y-44477011D01*
X197626555Y-44738366D01*
X197887910Y-44912998D01*
X198196200Y-44974321D01*
X198504490Y-44912998D01*
X198765845Y-44738366D01*
X198831200Y-44640555D01*
X198896555Y-44738366D01*
X199157910Y-44912998D01*
X199466200Y-44974321D01*
X199774490Y-44912998D01*
X199935463Y-44805439D01*
X199989183Y-44888922D01*
X200124990Y-44981715D01*
X200286200Y-45014361D01*
X201186200Y-45014361D01*
X201336803Y-44986023D01*
X201475122Y-44897017D01*
X201537457Y-44805787D01*
X201697910Y-44912998D01*
X202006200Y-44974321D01*
X202314490Y-44912998D01*
X202575845Y-44738366D01*
X202750477Y-44477011D01*
X202811800Y-44168721D01*
X202811800Y-43831279D01*
X202750477Y-43522989D01*
X202575845Y-43261634D01*
X202488800Y-43203472D01*
X202488800Y-42595805D01*
X202488801Y-42595800D01*
X202452064Y-42411117D01*
X202407271Y-42344079D01*
X202347450Y-42254550D01*
X202347447Y-42254548D01*
X200523500Y-40430600D01*
X209569400Y-40430600D01*
X209569400Y-79569400D01*
X110430600Y-79569400D01*
X110430600Y-78237113D01*
X115815298Y-78237113D01*
X115887869Y-78495300D01*
X116173486Y-78940594D01*
X116607768Y-79242691D01*
X117124600Y-79355600D01*
X118124600Y-79355600D01*
X118124600Y-78025400D01*
X118175400Y-78025400D01*
X118175400Y-79355600D01*
X119175400Y-79355600D01*
X119692232Y-79242691D01*
X120126514Y-78940594D01*
X120412131Y-78495300D01*
X120484702Y-78237113D01*
X120416445Y-78025400D01*
X118175400Y-78025400D01*
X118124600Y-78025400D01*
X115883555Y-78025400D01*
X115815298Y-78237113D01*
X110430600Y-78237113D01*
X110430600Y-77762887D01*
X115815298Y-77762887D01*
X115883555Y-77974600D01*
X118124600Y-77974600D01*
X118124600Y-76644400D01*
X118175400Y-76644400D01*
X118175400Y-77974600D01*
X120416445Y-77974600D01*
X120484702Y-77762887D01*
X120412131Y-77504700D01*
X120126514Y-77059406D01*
X119692232Y-76757309D01*
X119337679Y-76679852D01*
X124856069Y-76679852D01*
X124918077Y-76844160D01*
X125285419Y-77002595D01*
X125685430Y-77008393D01*
X126057209Y-76860673D01*
X126081923Y-76844160D01*
X126143931Y-76679852D01*
X125500000Y-76035921D01*
X124856069Y-76679852D01*
X119337679Y-76679852D01*
X119175400Y-76644400D01*
X118175400Y-76644400D01*
X118124600Y-76644400D01*
X117124600Y-76644400D01*
X116607768Y-76757309D01*
X116173486Y-77059406D01*
X115887869Y-77504700D01*
X115815298Y-77762887D01*
X110430600Y-77762887D01*
X110430600Y-76185430D01*
X124491607Y-76185430D01*
X124639327Y-76557209D01*
X124655840Y-76581923D01*
X124820148Y-76643931D01*
X125464079Y-76000000D01*
X125535921Y-76000000D01*
X126179852Y-76643931D01*
X126344160Y-76581923D01*
X126435639Y-76369823D01*
X126435639Y-76650000D01*
X126463977Y-76800603D01*
X126552983Y-76938922D01*
X126688790Y-77031715D01*
X126850000Y-77064361D01*
X128150000Y-77064361D01*
X128300603Y-77036023D01*
X128438922Y-76947017D01*
X128531715Y-76811210D01*
X128536537Y-76787400D01*
X132663970Y-76787400D01*
X132663970Y-76942678D01*
X132759580Y-77423340D01*
X133031853Y-77830825D01*
X133439338Y-78103098D01*
X133920000Y-78198708D01*
X134400662Y-78103098D01*
X134808147Y-77830825D01*
X135080420Y-77423340D01*
X135176030Y-76942678D01*
X135176030Y-76025400D01*
X135254770Y-76025400D01*
X135254770Y-76925830D01*
X135356233Y-77385118D01*
X135625734Y-77770617D01*
X136022245Y-78023638D01*
X136246415Y-78086583D01*
X136434600Y-78016471D01*
X136434600Y-76025400D01*
X136485400Y-76025400D01*
X136485400Y-78016471D01*
X136673585Y-78086583D01*
X136897755Y-78023638D01*
X137294266Y-77770617D01*
X137563767Y-77385118D01*
X137665230Y-76925830D01*
X137665230Y-76025400D01*
X136485400Y-76025400D01*
X136434600Y-76025400D01*
X135254770Y-76025400D01*
X135176030Y-76025400D01*
X135176030Y-75074170D01*
X135254770Y-75074170D01*
X135254770Y-75974600D01*
X136434600Y-75974600D01*
X136434600Y-73983529D01*
X136485400Y-73983529D01*
X136485400Y-75974600D01*
X137665230Y-75974600D01*
X137665230Y-75074170D01*
X137563767Y-74614882D01*
X137294266Y-74229383D01*
X136897755Y-73976362D01*
X136673585Y-73913417D01*
X136485400Y-73983529D01*
X136434600Y-73983529D01*
X136246415Y-73913417D01*
X136022245Y-73976362D01*
X135625734Y-74229383D01*
X135356233Y-74614882D01*
X135254770Y-75074170D01*
X135176030Y-75074170D01*
X135176030Y-75057322D01*
X135080420Y-74576660D01*
X134808147Y-74169175D01*
X134400662Y-73896902D01*
X133920000Y-73801292D01*
X133439338Y-73896902D01*
X133031853Y-74169175D01*
X132759580Y-74576660D01*
X132663970Y-75057322D01*
X132663970Y-75212600D01*
X128538507Y-75212600D01*
X128536023Y-75199397D01*
X128447017Y-75061078D01*
X128311210Y-74968285D01*
X128150000Y-74935639D01*
X126850000Y-74935639D01*
X126699397Y-74963977D01*
X126561078Y-75052983D01*
X126468285Y-75188790D01*
X126435639Y-75350000D01*
X126435639Y-75631464D01*
X126360673Y-75442791D01*
X126344160Y-75418077D01*
X126179852Y-75356069D01*
X125535921Y-76000000D01*
X125464079Y-76000000D01*
X124820148Y-75356069D01*
X124655840Y-75418077D01*
X124497405Y-75785419D01*
X124491607Y-76185430D01*
X110430600Y-76185430D01*
X110430600Y-73025400D01*
X113494400Y-73025400D01*
X113494400Y-74025400D01*
X113607309Y-74542232D01*
X113909406Y-74976514D01*
X114354700Y-75262131D01*
X114612887Y-75334702D01*
X114824600Y-75266445D01*
X114824600Y-73025400D01*
X114875400Y-73025400D01*
X114875400Y-75266445D01*
X115087113Y-75334702D01*
X115345300Y-75262131D01*
X115790594Y-74976514D01*
X116092691Y-74542232D01*
X116205600Y-74025400D01*
X116205600Y-73025400D01*
X114875400Y-73025400D01*
X114824600Y-73025400D01*
X113494400Y-73025400D01*
X110430600Y-73025400D01*
X110430600Y-71974600D01*
X113494400Y-71974600D01*
X113494400Y-72974600D01*
X114824600Y-72974600D01*
X114824600Y-70733555D01*
X114875400Y-70733555D01*
X114875400Y-72974600D01*
X116205600Y-72974600D01*
X116205600Y-71974600D01*
X116092691Y-71457768D01*
X115790594Y-71023486D01*
X115345300Y-70737869D01*
X115087113Y-70665298D01*
X114875400Y-70733555D01*
X114824600Y-70733555D01*
X114612887Y-70665298D01*
X114354700Y-70737869D01*
X113909406Y-71023486D01*
X113607309Y-71457768D01*
X113494400Y-71974600D01*
X110430600Y-71974600D01*
X110430600Y-65248744D01*
X110743753Y-65248744D01*
X110934569Y-65710554D01*
X111287587Y-66064189D01*
X111749064Y-66255811D01*
X112142602Y-66256154D01*
X119443224Y-73556776D01*
X119593600Y-73657254D01*
X119593600Y-74047144D01*
X119700656Y-74585350D01*
X120005525Y-75041619D01*
X120461794Y-75346488D01*
X121000000Y-75453544D01*
X121538206Y-75346488D01*
X121577626Y-75320148D01*
X124856069Y-75320148D01*
X125500000Y-75964079D01*
X126143931Y-75320148D01*
X126081923Y-75155840D01*
X125714581Y-74997405D01*
X125314570Y-74991607D01*
X124942791Y-75139327D01*
X124918077Y-75155840D01*
X124856069Y-75320148D01*
X121577626Y-75320148D01*
X121994475Y-75041619D01*
X122299344Y-74585350D01*
X122406400Y-74047144D01*
X122406400Y-71952856D01*
X122299344Y-71414650D01*
X121994475Y-70958381D01*
X121538206Y-70653512D01*
X121000000Y-70546456D01*
X120461794Y-70653512D01*
X120005525Y-70958381D01*
X119700656Y-71414650D01*
X119672044Y-71558492D01*
X113255906Y-65142354D01*
X113256247Y-64751256D01*
X113065431Y-64289446D01*
X112712413Y-63935811D01*
X112250936Y-63744189D01*
X111751256Y-63743753D01*
X111289446Y-63934569D01*
X110935811Y-64287587D01*
X110744189Y-64749064D01*
X110743753Y-65248744D01*
X110430600Y-65248744D01*
X110430600Y-42598953D01*
X112114208Y-42598953D01*
X112282171Y-43005454D01*
X112592910Y-43316736D01*
X112999118Y-43485408D01*
X113438953Y-43485792D01*
X113583547Y-43426047D01*
X119117400Y-48959899D01*
X119117400Y-56873907D01*
X118927090Y-56683264D01*
X118520882Y-56514592D01*
X118081047Y-56514208D01*
X117674546Y-56682171D01*
X117363264Y-56992910D01*
X117194592Y-57399118D01*
X117194208Y-57838953D01*
X117362171Y-58245454D01*
X117672910Y-58556736D01*
X118079118Y-58725408D01*
X118518953Y-58725792D01*
X118925454Y-58557829D01*
X119117400Y-58366218D01*
X119117400Y-59700000D01*
X119154136Y-59884683D01*
X119258750Y-60041250D01*
X122953509Y-63736009D01*
X121310370Y-63736009D01*
X121159767Y-63764347D01*
X121021448Y-63853353D01*
X120928655Y-63989160D01*
X120896009Y-64150370D01*
X120896009Y-65849630D01*
X120924347Y-66000233D01*
X121013353Y-66138552D01*
X121149160Y-66231345D01*
X121310370Y-66263991D01*
X121372600Y-66263991D01*
X121372600Y-67219800D01*
X121432537Y-67521125D01*
X121603224Y-67776576D01*
X125097024Y-71270376D01*
X125352475Y-71441063D01*
X125653800Y-71501000D01*
X132283200Y-71501000D01*
X132584525Y-71441063D01*
X132839976Y-71270376D01*
X134322952Y-69787400D01*
X134461493Y-69787400D01*
X134463977Y-69800603D01*
X134552983Y-69938922D01*
X134688790Y-70031715D01*
X134712600Y-70036537D01*
X134712600Y-70412000D01*
X134772537Y-70713325D01*
X134943224Y-70968776D01*
X135859864Y-71885416D01*
X135640968Y-71794522D01*
X135360263Y-71794277D01*
X135100832Y-71901472D01*
X134984702Y-72017400D01*
X124899900Y-72017400D01*
X113702600Y-60820100D01*
X113702600Y-58616855D01*
X113845454Y-58557829D01*
X114156736Y-58247090D01*
X114325408Y-57840882D01*
X114325409Y-57838953D01*
X114654208Y-57838953D01*
X114822171Y-58245454D01*
X115132910Y-58556736D01*
X115539118Y-58725408D01*
X115978953Y-58725792D01*
X116385454Y-58557829D01*
X116696736Y-58247090D01*
X116865408Y-57840882D01*
X116865792Y-57401047D01*
X116697829Y-56994546D01*
X116387090Y-56683264D01*
X115980882Y-56514592D01*
X115541047Y-56514208D01*
X115134546Y-56682171D01*
X114823264Y-56992910D01*
X114654592Y-57399118D01*
X114654208Y-57838953D01*
X114325409Y-57838953D01*
X114325792Y-57401047D01*
X114157829Y-56994546D01*
X113847090Y-56683264D01*
X113440882Y-56514592D01*
X113001047Y-56514208D01*
X112594546Y-56682171D01*
X112283264Y-56992910D01*
X112114592Y-57399118D01*
X112114208Y-57838953D01*
X112282171Y-58245454D01*
X112592910Y-58556736D01*
X112737400Y-58616733D01*
X112737400Y-61020000D01*
X112774136Y-61204683D01*
X112878750Y-61361250D01*
X124358750Y-72841250D01*
X124515317Y-72945864D01*
X124700000Y-72982601D01*
X124700005Y-72982600D01*
X134984759Y-72982600D01*
X135099788Y-73097830D01*
X135359032Y-73205478D01*
X135639737Y-73205723D01*
X135899168Y-73098528D01*
X136097830Y-72900212D01*
X136205478Y-72640968D01*
X136205723Y-72360263D01*
X136114898Y-72140450D01*
X138130898Y-74156450D01*
X138111853Y-74169175D01*
X137839580Y-74576660D01*
X137743970Y-75057322D01*
X137743970Y-76942678D01*
X137839580Y-77423340D01*
X138111853Y-77830825D01*
X138519338Y-78103098D01*
X139000000Y-78198708D01*
X139480662Y-78103098D01*
X139888147Y-77830825D01*
X140160420Y-77423340D01*
X140256030Y-76942678D01*
X140256030Y-75057322D01*
X140160420Y-74576660D01*
X139888147Y-74169175D01*
X139787400Y-74101858D01*
X139787400Y-73912000D01*
X139727463Y-73610675D01*
X139556776Y-73355224D01*
X136287400Y-70085848D01*
X136287400Y-70038507D01*
X136300603Y-70036023D01*
X136438922Y-69947017D01*
X136531715Y-69811210D01*
X136558315Y-69679852D01*
X136856069Y-69679852D01*
X136918077Y-69844160D01*
X137285419Y-70002595D01*
X137685430Y-70008393D01*
X138057209Y-69860673D01*
X138081923Y-69844160D01*
X138143931Y-69679852D01*
X137500000Y-69035921D01*
X136856069Y-69679852D01*
X136558315Y-69679852D01*
X136564361Y-69650000D01*
X136564361Y-69368536D01*
X136639327Y-69557209D01*
X136655840Y-69581923D01*
X136820148Y-69643931D01*
X137464079Y-69000000D01*
X137535921Y-69000000D01*
X138179852Y-69643931D01*
X138344160Y-69581923D01*
X138502595Y-69214581D01*
X138508393Y-68814570D01*
X138360673Y-68442791D01*
X138344160Y-68418077D01*
X138179852Y-68356069D01*
X137535921Y-69000000D01*
X137464079Y-69000000D01*
X136820148Y-68356069D01*
X136655840Y-68418077D01*
X136564361Y-68630177D01*
X136564361Y-68350000D01*
X136558744Y-68320148D01*
X136856069Y-68320148D01*
X137500000Y-68964079D01*
X138143931Y-68320148D01*
X138081923Y-68155840D01*
X137714581Y-67997405D01*
X137314570Y-67991607D01*
X136942791Y-68139327D01*
X136918077Y-68155840D01*
X136856069Y-68320148D01*
X136558744Y-68320148D01*
X136536023Y-68199397D01*
X136447017Y-68061078D01*
X136311210Y-67968285D01*
X136150000Y-67935639D01*
X134850000Y-67935639D01*
X134699397Y-67963977D01*
X134561078Y-68052983D01*
X134468285Y-68188790D01*
X134463463Y-68212600D01*
X133996800Y-68212600D01*
X133695475Y-68272537D01*
X133440024Y-68443224D01*
X131957048Y-69926200D01*
X130793829Y-69926200D01*
X130969335Y-69853682D01*
X131252687Y-69570824D01*
X131406225Y-69201064D01*
X131406575Y-68800693D01*
X131253682Y-68430665D01*
X130970824Y-68147313D01*
X130601064Y-67993775D01*
X130200693Y-67993425D01*
X129830665Y-68146318D01*
X129547313Y-68429176D01*
X129393775Y-68798936D01*
X129393425Y-69199307D01*
X129546318Y-69569335D01*
X129829176Y-69852687D01*
X130006215Y-69926200D01*
X127260800Y-69926200D01*
X127540597Y-69810590D01*
X127809646Y-69542011D01*
X127955433Y-69190914D01*
X127955765Y-68810753D01*
X127810590Y-68459403D01*
X127542011Y-68190354D01*
X127190914Y-68044567D01*
X126810753Y-68044235D01*
X126459403Y-68189410D01*
X126190354Y-68457989D01*
X126044567Y-68809086D01*
X126044235Y-69189247D01*
X126189410Y-69540597D01*
X126457989Y-69809646D01*
X126738685Y-69926200D01*
X125979952Y-69926200D01*
X122947400Y-66893648D01*
X122947400Y-66263991D01*
X123009630Y-66263991D01*
X123160233Y-66235653D01*
X123298552Y-66146647D01*
X123391345Y-66010840D01*
X123423991Y-65849630D01*
X123423991Y-64206491D01*
X126990027Y-67772527D01*
X127146594Y-67877141D01*
X127331277Y-67913878D01*
X127331282Y-67913877D01*
X137876069Y-67913877D01*
X144842473Y-74880281D01*
X144999040Y-74984895D01*
X145183723Y-75021631D01*
X148030581Y-75021631D01*
X148145610Y-75136861D01*
X148404854Y-75244509D01*
X148685559Y-75244754D01*
X148944990Y-75137559D01*
X149143652Y-74939243D01*
X149195356Y-74814728D01*
X153337900Y-78957272D01*
X153494467Y-79061886D01*
X153679150Y-79098623D01*
X153679155Y-79098622D01*
X195583978Y-79098622D01*
X195768661Y-79061886D01*
X195925228Y-78957272D01*
X200341250Y-74541250D01*
X200445864Y-74384683D01*
X200482600Y-74200000D01*
X200482600Y-73367482D01*
X203144079Y-73367482D01*
X203425982Y-74049740D01*
X203947515Y-74572184D01*
X204629279Y-74855277D01*
X205367482Y-74855921D01*
X206049740Y-74574018D01*
X206572184Y-74052485D01*
X206855277Y-73370721D01*
X206855921Y-72632518D01*
X206574018Y-71950260D01*
X206052485Y-71427816D01*
X205370721Y-71144723D01*
X204632518Y-71144079D01*
X203950260Y-71425982D01*
X203427816Y-71947515D01*
X203144723Y-72629279D01*
X203144079Y-73367482D01*
X200482600Y-73367482D01*
X200482600Y-67258239D01*
X200781777Y-67058335D01*
X201021441Y-66699653D01*
X201105600Y-66276558D01*
X201105600Y-65723442D01*
X201021441Y-65300347D01*
X200854692Y-65050790D01*
X201584720Y-65050790D01*
X201431626Y-65279912D01*
X201343600Y-65722447D01*
X201343600Y-66277553D01*
X201431626Y-66720088D01*
X201682302Y-67095251D01*
X202057465Y-67345927D01*
X202500000Y-67433953D01*
X202942535Y-67345927D01*
X203317698Y-67095251D01*
X203568374Y-66720088D01*
X203656400Y-66277553D01*
X203656400Y-65722447D01*
X203568374Y-65279912D01*
X203415280Y-65050790D01*
X207131810Y-65050790D01*
X207316493Y-65014054D01*
X207473060Y-64909440D01*
X209241250Y-63141250D01*
X209345864Y-62984683D01*
X209382600Y-62800000D01*
X209382600Y-58747605D01*
X209382601Y-58747600D01*
X209345864Y-58562917D01*
X209246098Y-58413606D01*
X209241250Y-58406350D01*
X209241247Y-58406348D01*
X208303984Y-57469084D01*
X208305665Y-57466568D01*
X208398471Y-57000000D01*
X208305665Y-56533432D01*
X208041376Y-56137895D01*
X207645839Y-55873606D01*
X207179271Y-55780800D01*
X206820729Y-55780800D01*
X206354161Y-55873606D01*
X205958624Y-56137895D01*
X205694335Y-56533432D01*
X205601529Y-57000000D01*
X205694335Y-57466568D01*
X205958624Y-57862105D01*
X206354161Y-58126394D01*
X206820729Y-58219200D01*
X207179271Y-58219200D01*
X207604514Y-58134614D01*
X208417400Y-58947499D01*
X208417400Y-62600100D01*
X206931910Y-64085590D01*
X197296910Y-64085590D01*
X198129900Y-63252600D01*
X203617600Y-63252600D01*
X203802283Y-63215864D01*
X203958850Y-63111250D01*
X204774329Y-62295771D01*
X205647646Y-62295771D01*
X205711486Y-62523101D01*
X205967535Y-62924144D01*
X206357566Y-63196674D01*
X206822200Y-63299200D01*
X206974600Y-63299200D01*
X206974600Y-62105400D01*
X207025400Y-62105400D01*
X207025400Y-63299200D01*
X207177800Y-63299200D01*
X207642434Y-63196674D01*
X208032465Y-62924144D01*
X208288514Y-62523101D01*
X208352354Y-62295771D01*
X208282415Y-62105400D01*
X207025400Y-62105400D01*
X206974600Y-62105400D01*
X205717585Y-62105400D01*
X205647646Y-62295771D01*
X204774329Y-62295771D01*
X205205871Y-61864229D01*
X205647646Y-61864229D01*
X205717585Y-62054600D01*
X206974600Y-62054600D01*
X206974600Y-60860800D01*
X207025400Y-60860800D01*
X207025400Y-62054600D01*
X208282415Y-62054600D01*
X208352354Y-61864229D01*
X208288514Y-61636899D01*
X208032465Y-61235856D01*
X207642434Y-60963326D01*
X207177800Y-60860800D01*
X207025400Y-60860800D01*
X206974600Y-60860800D01*
X206822200Y-60860800D01*
X206357566Y-60963326D01*
X205967535Y-61235856D01*
X205711486Y-61636899D01*
X205647646Y-61864229D01*
X205205871Y-61864229D01*
X206395486Y-60674614D01*
X206820729Y-60759200D01*
X207179271Y-60759200D01*
X207645839Y-60666394D01*
X208041376Y-60402105D01*
X208305665Y-60006568D01*
X208398471Y-59540000D01*
X208305665Y-59073432D01*
X208041376Y-58677895D01*
X207645839Y-58413606D01*
X207179271Y-58320800D01*
X206820729Y-58320800D01*
X206354161Y-58413606D01*
X205958624Y-58677895D01*
X205694335Y-59073432D01*
X205601529Y-59540000D01*
X205694335Y-60006568D01*
X205696016Y-60009084D01*
X203417700Y-62287400D01*
X197930000Y-62287400D01*
X197745317Y-62324136D01*
X197588750Y-62428750D01*
X192868299Y-67149201D01*
X144460000Y-67149201D01*
X140313805Y-63003006D01*
X140685430Y-63008393D01*
X141057209Y-62860673D01*
X141081923Y-62844160D01*
X141143931Y-62679852D01*
X140500000Y-62035921D01*
X140485858Y-62050064D01*
X140449937Y-62014143D01*
X140464079Y-62000000D01*
X140535921Y-62000000D01*
X141179852Y-62643931D01*
X141344160Y-62581923D01*
X141502595Y-62214581D01*
X141508393Y-61814570D01*
X141360673Y-61442791D01*
X141344160Y-61418077D01*
X141179852Y-61356069D01*
X140535921Y-62000000D01*
X140464079Y-62000000D01*
X139820148Y-61356069D01*
X139655840Y-61418077D01*
X139497405Y-61785419D01*
X139491673Y-62180874D01*
X138630947Y-61320148D01*
X139856069Y-61320148D01*
X140500000Y-61964079D01*
X141143931Y-61320148D01*
X141081923Y-61155840D01*
X140714581Y-60997405D01*
X140314570Y-60991607D01*
X139942791Y-61139327D01*
X139918077Y-61155840D01*
X139856069Y-61320148D01*
X138630947Y-61320148D01*
X136558922Y-59248123D01*
X136402355Y-59143509D01*
X136217672Y-59106773D01*
X134627887Y-59106773D01*
X134104237Y-58583123D01*
X134165454Y-58557829D01*
X134476736Y-58247090D01*
X134645408Y-57840882D01*
X134645409Y-57838953D01*
X134974208Y-57838953D01*
X135142171Y-58245454D01*
X135452910Y-58556736D01*
X135859118Y-58725408D01*
X136298953Y-58725792D01*
X136705454Y-58557829D01*
X137016736Y-58247090D01*
X137185408Y-57840882D01*
X137185409Y-57838953D01*
X137514208Y-57838953D01*
X137682171Y-58245454D01*
X137992910Y-58556736D01*
X138399118Y-58725408D01*
X138838953Y-58725792D01*
X138983547Y-58666047D01*
X139028749Y-58711249D01*
X140395620Y-60078119D01*
X140395622Y-60078122D01*
X140552189Y-60182736D01*
X140736872Y-60219472D01*
X142836972Y-60219472D01*
X143553139Y-60935639D01*
X142350000Y-60935639D01*
X142199397Y-60963977D01*
X142061078Y-61052983D01*
X141968285Y-61188790D01*
X141935639Y-61350000D01*
X141935639Y-62650000D01*
X141963977Y-62800603D01*
X142052983Y-62938922D01*
X142188790Y-63031715D01*
X142350000Y-63064361D01*
X142488552Y-63064361D01*
X142507203Y-63158123D01*
X142622829Y-63331171D01*
X144868829Y-65577171D01*
X145041877Y-65692797D01*
X145246000Y-65733401D01*
X145246005Y-65733400D01*
X151363690Y-65733400D01*
X151470974Y-65840871D01*
X151748883Y-65956269D01*
X152049797Y-65956531D01*
X152327907Y-65841619D01*
X152540871Y-65629026D01*
X152656269Y-65351117D01*
X152656531Y-65050203D01*
X152541619Y-64772093D01*
X152329026Y-64559129D01*
X152051117Y-64443731D01*
X151750203Y-64443469D01*
X151472093Y-64558381D01*
X151363685Y-64666600D01*
X145466942Y-64666600D01*
X143822363Y-63022021D01*
X143938922Y-62947017D01*
X144031715Y-62811210D01*
X144064361Y-62650000D01*
X144064361Y-61446861D01*
X145894419Y-63276919D01*
X145894277Y-63439737D01*
X146001472Y-63699168D01*
X146199788Y-63897830D01*
X146459032Y-64005478D01*
X146739737Y-64005723D01*
X146999168Y-63898528D01*
X147197830Y-63700212D01*
X147207327Y-63677339D01*
X160654820Y-63677339D01*
X160654820Y-64322661D01*
X160716111Y-64630790D01*
X160890652Y-64892009D01*
X161151871Y-65066550D01*
X161460000Y-65127841D01*
X161768129Y-65066550D01*
X162029348Y-64892009D01*
X162095000Y-64793754D01*
X162160652Y-64892009D01*
X162421871Y-65066550D01*
X162730000Y-65127841D01*
X163038129Y-65066550D01*
X163299348Y-64892009D01*
X163372746Y-64782161D01*
X163448613Y-64888299D01*
X163715338Y-65054599D01*
X163849018Y-65091887D01*
X163974600Y-65016820D01*
X163974600Y-64025400D01*
X164025400Y-64025400D01*
X164025400Y-65016820D01*
X164150982Y-65091887D01*
X164284662Y-65054599D01*
X164551387Y-64888299D01*
X164734169Y-64632586D01*
X164805180Y-64326390D01*
X164805180Y-64025400D01*
X164025400Y-64025400D01*
X163974600Y-64025400D01*
X163954600Y-64025400D01*
X163954600Y-63974600D01*
X163974600Y-63974600D01*
X163974600Y-62983180D01*
X164025400Y-62983180D01*
X164025400Y-63974600D01*
X164805180Y-63974600D01*
X164805180Y-63677339D01*
X167924820Y-63677339D01*
X167924820Y-64322661D01*
X167986111Y-64630790D01*
X168160652Y-64892009D01*
X168421871Y-65066550D01*
X168730000Y-65127841D01*
X169038129Y-65066550D01*
X169299348Y-64892009D01*
X169365000Y-64793754D01*
X169430652Y-64892009D01*
X169691871Y-65066550D01*
X170000000Y-65127841D01*
X170308129Y-65066550D01*
X170569348Y-64892009D01*
X170642746Y-64782161D01*
X170718613Y-64888299D01*
X170985338Y-65054599D01*
X171119018Y-65091887D01*
X171244600Y-65016820D01*
X171244600Y-64025400D01*
X171295400Y-64025400D01*
X171295400Y-65016820D01*
X171420982Y-65091887D01*
X171554662Y-65054599D01*
X171821387Y-64888299D01*
X172004169Y-64632586D01*
X172075180Y-64326390D01*
X172075180Y-64025400D01*
X171295400Y-64025400D01*
X171244600Y-64025400D01*
X171224600Y-64025400D01*
X171224600Y-63974600D01*
X171244600Y-63974600D01*
X171244600Y-62983180D01*
X171295400Y-62983180D01*
X171295400Y-63974600D01*
X172075180Y-63974600D01*
X172075180Y-63677339D01*
X174924820Y-63677339D01*
X174924820Y-64322661D01*
X174986111Y-64630790D01*
X175160652Y-64892009D01*
X175421871Y-65066550D01*
X175730000Y-65127841D01*
X176038129Y-65066550D01*
X176299348Y-64892009D01*
X176365000Y-64793754D01*
X176430652Y-64892009D01*
X176691871Y-65066550D01*
X177000000Y-65127841D01*
X177308129Y-65066550D01*
X177569348Y-64892009D01*
X177642746Y-64782161D01*
X177718613Y-64888299D01*
X177985338Y-65054599D01*
X178119018Y-65091887D01*
X178244600Y-65016820D01*
X178244600Y-64025400D01*
X178295400Y-64025400D01*
X178295400Y-65016820D01*
X178420982Y-65091887D01*
X178554662Y-65054599D01*
X178821387Y-64888299D01*
X179004169Y-64632586D01*
X179075180Y-64326390D01*
X179075180Y-64025400D01*
X178295400Y-64025400D01*
X178244600Y-64025400D01*
X178224600Y-64025400D01*
X178224600Y-63974600D01*
X178244600Y-63974600D01*
X178244600Y-62983180D01*
X178295400Y-62983180D01*
X178295400Y-63974600D01*
X179075180Y-63974600D01*
X179075180Y-63677339D01*
X181924820Y-63677339D01*
X181924820Y-64322661D01*
X181986111Y-64630790D01*
X182160652Y-64892009D01*
X182421871Y-65066550D01*
X182730000Y-65127841D01*
X183038129Y-65066550D01*
X183299348Y-64892009D01*
X183365000Y-64793754D01*
X183430652Y-64892009D01*
X183691871Y-65066550D01*
X184000000Y-65127841D01*
X184308129Y-65066550D01*
X184569348Y-64892009D01*
X184642746Y-64782161D01*
X184718613Y-64888299D01*
X184985338Y-65054599D01*
X185119018Y-65091887D01*
X185244600Y-65016820D01*
X185244600Y-64025400D01*
X185295400Y-64025400D01*
X185295400Y-65016820D01*
X185420982Y-65091887D01*
X185554662Y-65054599D01*
X185821387Y-64888299D01*
X186004169Y-64632586D01*
X186075180Y-64326390D01*
X186075180Y-64025400D01*
X185295400Y-64025400D01*
X185244600Y-64025400D01*
X185224600Y-64025400D01*
X185224600Y-63974600D01*
X185244600Y-63974600D01*
X185244600Y-62983180D01*
X185295400Y-62983180D01*
X185295400Y-63974600D01*
X186075180Y-63974600D01*
X186075180Y-63677339D01*
X189654820Y-63677339D01*
X189654820Y-64322661D01*
X189716111Y-64630790D01*
X189890652Y-64892009D01*
X190151871Y-65066550D01*
X190460000Y-65127841D01*
X190768129Y-65066550D01*
X191029348Y-64892009D01*
X191095000Y-64793754D01*
X191160652Y-64892009D01*
X191421871Y-65066550D01*
X191730000Y-65127841D01*
X192038129Y-65066550D01*
X192299348Y-64892009D01*
X192372746Y-64782161D01*
X192448613Y-64888299D01*
X192715338Y-65054599D01*
X192849018Y-65091887D01*
X192974600Y-65016820D01*
X192974600Y-64025400D01*
X193025400Y-64025400D01*
X193025400Y-65016820D01*
X193150982Y-65091887D01*
X193284662Y-65054599D01*
X193551387Y-64888299D01*
X193734169Y-64632586D01*
X193805180Y-64326390D01*
X193805180Y-64025400D01*
X193025400Y-64025400D01*
X192974600Y-64025400D01*
X192954600Y-64025400D01*
X192954600Y-63974600D01*
X192974600Y-63974600D01*
X192974600Y-62983180D01*
X193025400Y-62983180D01*
X193025400Y-63974600D01*
X193805180Y-63974600D01*
X193805180Y-63673610D01*
X193734169Y-63367414D01*
X193551387Y-63111701D01*
X193284662Y-62945401D01*
X193150982Y-62908113D01*
X193025400Y-62983180D01*
X192974600Y-62983180D01*
X192849018Y-62908113D01*
X192715338Y-62945401D01*
X192448613Y-63111701D01*
X192372746Y-63217839D01*
X192299348Y-63107991D01*
X192038129Y-62933450D01*
X191730000Y-62872159D01*
X191421871Y-62933450D01*
X191160652Y-63107991D01*
X191095000Y-63206246D01*
X191029348Y-63107991D01*
X190768129Y-62933450D01*
X190460000Y-62872159D01*
X190151871Y-62933450D01*
X189890652Y-63107991D01*
X189716111Y-63369210D01*
X189654820Y-63677339D01*
X186075180Y-63677339D01*
X186075180Y-63673610D01*
X186004169Y-63367414D01*
X185821387Y-63111701D01*
X185554662Y-62945401D01*
X185420982Y-62908113D01*
X185295400Y-62983180D01*
X185244600Y-62983180D01*
X185119018Y-62908113D01*
X184985338Y-62945401D01*
X184718613Y-63111701D01*
X184642746Y-63217839D01*
X184569348Y-63107991D01*
X184308129Y-62933450D01*
X184000000Y-62872159D01*
X183691871Y-62933450D01*
X183430652Y-63107991D01*
X183365000Y-63206246D01*
X183299348Y-63107991D01*
X183038129Y-62933450D01*
X182730000Y-62872159D01*
X182421871Y-62933450D01*
X182160652Y-63107991D01*
X181986111Y-63369210D01*
X181924820Y-63677339D01*
X179075180Y-63677339D01*
X179075180Y-63673610D01*
X179004169Y-63367414D01*
X178821387Y-63111701D01*
X178554662Y-62945401D01*
X178420982Y-62908113D01*
X178295400Y-62983180D01*
X178244600Y-62983180D01*
X178119018Y-62908113D01*
X177985338Y-62945401D01*
X177718613Y-63111701D01*
X177642746Y-63217839D01*
X177569348Y-63107991D01*
X177308129Y-62933450D01*
X177000000Y-62872159D01*
X176691871Y-62933450D01*
X176430652Y-63107991D01*
X176365000Y-63206246D01*
X176299348Y-63107991D01*
X176038129Y-62933450D01*
X175730000Y-62872159D01*
X175421871Y-62933450D01*
X175160652Y-63107991D01*
X174986111Y-63369210D01*
X174924820Y-63677339D01*
X172075180Y-63677339D01*
X172075180Y-63673610D01*
X172004169Y-63367414D01*
X171821387Y-63111701D01*
X171554662Y-62945401D01*
X171420982Y-62908113D01*
X171295400Y-62983180D01*
X171244600Y-62983180D01*
X171119018Y-62908113D01*
X170985338Y-62945401D01*
X170718613Y-63111701D01*
X170642746Y-63217839D01*
X170569348Y-63107991D01*
X170308129Y-62933450D01*
X170000000Y-62872159D01*
X169691871Y-62933450D01*
X169430652Y-63107991D01*
X169365000Y-63206246D01*
X169299348Y-63107991D01*
X169038129Y-62933450D01*
X168730000Y-62872159D01*
X168421871Y-62933450D01*
X168160652Y-63107991D01*
X167986111Y-63369210D01*
X167924820Y-63677339D01*
X164805180Y-63677339D01*
X164805180Y-63673610D01*
X164734169Y-63367414D01*
X164551387Y-63111701D01*
X164284662Y-62945401D01*
X164150982Y-62908113D01*
X164025400Y-62983180D01*
X163974600Y-62983180D01*
X163849018Y-62908113D01*
X163715338Y-62945401D01*
X163448613Y-63111701D01*
X163372746Y-63217839D01*
X163299348Y-63107991D01*
X163038129Y-62933450D01*
X162730000Y-62872159D01*
X162421871Y-62933450D01*
X162160652Y-63107991D01*
X162095000Y-63206246D01*
X162029348Y-63107991D01*
X161768129Y-62933450D01*
X161460000Y-62872159D01*
X161151871Y-62933450D01*
X160890652Y-63107991D01*
X160716111Y-63369210D01*
X160654820Y-63677339D01*
X147207327Y-63677339D01*
X147305478Y-63440968D01*
X147305723Y-63160263D01*
X147198528Y-62900832D01*
X147000212Y-62702170D01*
X146740968Y-62594522D01*
X146576879Y-62594379D01*
X143378122Y-59395622D01*
X143221555Y-59291008D01*
X143036872Y-59254272D01*
X140936771Y-59254272D01*
X139711249Y-58028749D01*
X139666133Y-57983633D01*
X139722031Y-57849013D01*
X140003400Y-57849013D01*
X140179080Y-58274192D01*
X140504097Y-58599776D01*
X140928969Y-58776199D01*
X141389013Y-58776600D01*
X141814192Y-58600920D01*
X142139776Y-58275903D01*
X142316199Y-57851031D01*
X142316209Y-57838953D01*
X142594208Y-57838953D01*
X142762171Y-58245454D01*
X143072910Y-58556736D01*
X143479118Y-58725408D01*
X143918953Y-58725792D01*
X144325454Y-58557829D01*
X144511635Y-58371972D01*
X145523949Y-58371972D01*
X145598130Y-58546671D01*
X146001612Y-58721766D01*
X146441385Y-58729127D01*
X146850500Y-58567633D01*
X146881870Y-58546671D01*
X146956051Y-58371972D01*
X146240000Y-57655921D01*
X145523949Y-58371972D01*
X144511635Y-58371972D01*
X144636736Y-58247090D01*
X144805408Y-57840882D01*
X144805425Y-57821385D01*
X145130873Y-57821385D01*
X145292367Y-58230500D01*
X145313329Y-58261870D01*
X145488028Y-58336051D01*
X146204079Y-57620000D01*
X146275921Y-57620000D01*
X146991972Y-58336051D01*
X147166671Y-58261870D01*
X147341766Y-57858388D01*
X147349127Y-57418615D01*
X147187633Y-57009500D01*
X147166671Y-56978130D01*
X146991972Y-56903949D01*
X146275921Y-57620000D01*
X146204079Y-57620000D01*
X145488028Y-56903949D01*
X145313329Y-56978130D01*
X145138234Y-57381612D01*
X145130873Y-57821385D01*
X144805425Y-57821385D01*
X144805792Y-57401047D01*
X144637829Y-56994546D01*
X144511532Y-56868028D01*
X145523949Y-56868028D01*
X146240000Y-57584079D01*
X146956051Y-56868028D01*
X146881870Y-56693329D01*
X146478388Y-56518234D01*
X146038615Y-56510873D01*
X145629500Y-56672367D01*
X145598130Y-56693329D01*
X145523949Y-56868028D01*
X144511532Y-56868028D01*
X144327090Y-56683264D01*
X143920882Y-56514592D01*
X143481047Y-56514208D01*
X143074546Y-56682171D01*
X142763264Y-56992910D01*
X142594592Y-57399118D01*
X142594208Y-57838953D01*
X142316209Y-57838953D01*
X142316600Y-57390987D01*
X142140920Y-56965808D01*
X141815903Y-56640224D01*
X141391031Y-56463801D01*
X140930987Y-56463400D01*
X140505808Y-56639080D01*
X140180224Y-56964097D01*
X140003801Y-57388969D01*
X140003400Y-57849013D01*
X139722031Y-57849013D01*
X139725408Y-57840882D01*
X139725792Y-57401047D01*
X139557829Y-56994546D01*
X139247090Y-56683264D01*
X138840882Y-56514592D01*
X138401047Y-56514208D01*
X137994546Y-56682171D01*
X137683264Y-56992910D01*
X137514592Y-57399118D01*
X137514208Y-57838953D01*
X137185409Y-57838953D01*
X137185792Y-57401047D01*
X137017829Y-56994546D01*
X136707090Y-56683264D01*
X136300882Y-56514592D01*
X135861047Y-56514208D01*
X135454546Y-56682171D01*
X135143264Y-56992910D01*
X134974592Y-57399118D01*
X134974208Y-57838953D01*
X134645409Y-57838953D01*
X134645792Y-57401047D01*
X134477829Y-56994546D01*
X134167090Y-56683264D01*
X133760882Y-56514592D01*
X133321047Y-56514208D01*
X132914546Y-56682171D01*
X132782600Y-56813887D01*
X132782600Y-56215241D01*
X132897830Y-56100212D01*
X133005478Y-55840968D01*
X133005723Y-55560263D01*
X132898528Y-55300832D01*
X132700212Y-55102170D01*
X132494231Y-55016639D01*
X147734139Y-55016639D01*
X149396273Y-56678772D01*
X149000882Y-56514592D01*
X148561047Y-56514208D01*
X148154546Y-56682171D01*
X147843264Y-56992910D01*
X147674592Y-57399118D01*
X147674208Y-57838953D01*
X147842171Y-58245454D01*
X148152910Y-58556736D01*
X148559118Y-58725408D01*
X148998953Y-58725792D01*
X149405454Y-58557829D01*
X149716736Y-58247090D01*
X149885408Y-57840882D01*
X149885792Y-57401047D01*
X149721901Y-57004400D01*
X152858748Y-60141247D01*
X152858750Y-60141250D01*
X153015317Y-60245864D01*
X153200000Y-60282600D01*
X182200000Y-60282600D01*
X182384683Y-60245864D01*
X182541250Y-60141250D01*
X182541251Y-60141249D01*
X182657099Y-60025400D01*
X197624820Y-60025400D01*
X197624820Y-60326390D01*
X197695831Y-60632586D01*
X197878613Y-60888299D01*
X198145338Y-61054599D01*
X198279018Y-61091887D01*
X198404600Y-61016820D01*
X198404600Y-60025400D01*
X197624820Y-60025400D01*
X182657099Y-60025400D01*
X183008889Y-59673610D01*
X197624820Y-59673610D01*
X197624820Y-59974600D01*
X198404600Y-59974600D01*
X198404600Y-58983180D01*
X198279018Y-58908113D01*
X198145338Y-58945401D01*
X197878613Y-59111701D01*
X197695831Y-59367414D01*
X197624820Y-59673610D01*
X183008889Y-59673610D01*
X183397908Y-59284591D01*
X183599873Y-59368454D01*
X184138962Y-59368925D01*
X184637194Y-59163059D01*
X185018720Y-58782199D01*
X185225454Y-58284327D01*
X185225456Y-58281962D01*
X192675275Y-58281962D01*
X192881141Y-58780194D01*
X193262001Y-59161720D01*
X193759873Y-59368454D01*
X194298962Y-59368925D01*
X194797194Y-59163059D01*
X195178720Y-58782199D01*
X195303124Y-58482600D01*
X198850100Y-58482600D01*
X199217400Y-58849900D01*
X199217400Y-59050028D01*
X199130652Y-59107991D01*
X199057254Y-59217839D01*
X198981387Y-59111701D01*
X198714662Y-58945401D01*
X198580982Y-58908113D01*
X198455400Y-58983180D01*
X198455400Y-59974600D01*
X198475400Y-59974600D01*
X198475400Y-60025400D01*
X198455400Y-60025400D01*
X198455400Y-61016820D01*
X198580982Y-61091887D01*
X198714662Y-61054599D01*
X198981387Y-60888299D01*
X199057254Y-60782161D01*
X199130652Y-60892009D01*
X199391871Y-61066550D01*
X199700000Y-61127841D01*
X200008129Y-61066550D01*
X200269348Y-60892009D01*
X200335000Y-60793754D01*
X200400652Y-60892009D01*
X200661871Y-61066550D01*
X200970000Y-61127841D01*
X201278129Y-61066550D01*
X201539348Y-60892009D01*
X201713889Y-60630790D01*
X201775180Y-60322661D01*
X201775180Y-59677339D01*
X201713889Y-59369210D01*
X201539348Y-59107991D01*
X201278129Y-58933450D01*
X200970000Y-58872159D01*
X200661871Y-58933450D01*
X200400652Y-59107991D01*
X200335000Y-59206246D01*
X200269348Y-59107991D01*
X200182600Y-59050028D01*
X200182600Y-58650005D01*
X200182601Y-58650000D01*
X200145864Y-58465317D01*
X200041250Y-58308750D01*
X199391250Y-57658750D01*
X199234683Y-57554136D01*
X199050000Y-57517400D01*
X195291784Y-57517400D01*
X195180059Y-57247006D01*
X194799199Y-56865480D01*
X194301327Y-56658746D01*
X193762238Y-56658275D01*
X193264006Y-56864141D01*
X192882480Y-57245001D01*
X192675746Y-57742873D01*
X192675275Y-58281962D01*
X185225456Y-58281962D01*
X185225925Y-57745238D01*
X185020059Y-57247006D01*
X184639199Y-56865480D01*
X184141327Y-56658746D01*
X183602238Y-56658275D01*
X183104006Y-56864141D01*
X182722480Y-57245001D01*
X182515746Y-57742873D01*
X182515275Y-58281962D01*
X182667391Y-58650109D01*
X182000100Y-59317400D01*
X165360147Y-59317400D01*
X165766594Y-59149459D01*
X166148120Y-58768599D01*
X166266877Y-58482600D01*
X166500000Y-58482600D01*
X166684683Y-58445864D01*
X166841250Y-58341250D01*
X167619899Y-57562600D01*
X169391361Y-57562600D01*
X169520394Y-57755711D01*
X169830413Y-57962859D01*
X170196105Y-58035600D01*
X170563895Y-58035600D01*
X170929587Y-57962859D01*
X171239606Y-57755711D01*
X171446754Y-57445692D01*
X171519495Y-57080000D01*
X176860505Y-57080000D01*
X176933246Y-57445692D01*
X177140394Y-57755711D01*
X177450413Y-57962859D01*
X177816105Y-58035600D01*
X178183895Y-58035600D01*
X178549587Y-57962859D01*
X178859606Y-57755711D01*
X179066754Y-57445692D01*
X179139495Y-57080000D01*
X179066754Y-56714308D01*
X178859606Y-56404289D01*
X178549587Y-56197141D01*
X178183895Y-56124400D01*
X177816105Y-56124400D01*
X177450413Y-56197141D01*
X177140394Y-56404289D01*
X176933246Y-56714308D01*
X176860505Y-57080000D01*
X171519495Y-57080000D01*
X171446754Y-56714308D01*
X171239606Y-56404289D01*
X170929587Y-56197141D01*
X170563895Y-56124400D01*
X170196105Y-56124400D01*
X169830413Y-56197141D01*
X169520394Y-56404289D01*
X169391361Y-56597400D01*
X167420000Y-56597400D01*
X167235317Y-56634136D01*
X167078750Y-56738750D01*
X167078748Y-56738753D01*
X166300100Y-57517400D01*
X166266803Y-57517400D01*
X166149459Y-57233406D01*
X165768599Y-56851880D01*
X165270727Y-56645146D01*
X164731638Y-56644675D01*
X164233406Y-56850541D01*
X163851880Y-57231401D01*
X163645146Y-57729273D01*
X163644675Y-58268362D01*
X163850541Y-58766594D01*
X164231401Y-59148120D01*
X164639074Y-59317400D01*
X155200147Y-59317400D01*
X155606594Y-59149459D01*
X155988120Y-58768599D01*
X156194854Y-58270727D01*
X156195325Y-57731638D01*
X155989459Y-57233406D01*
X155619790Y-56863091D01*
X160019509Y-56863091D01*
X160204192Y-56826355D01*
X160360759Y-56721741D01*
X163040910Y-54041590D01*
X164042023Y-54041590D01*
X163851880Y-54231401D01*
X163645146Y-54729273D01*
X163644675Y-55268362D01*
X163850541Y-55766594D01*
X164231401Y-56148120D01*
X164729273Y-56354854D01*
X165268362Y-56355325D01*
X165766594Y-56149459D01*
X166148120Y-55768599D01*
X166266877Y-55482600D01*
X166413492Y-55482600D01*
X166598175Y-55445864D01*
X166754742Y-55341250D01*
X167073392Y-55022600D01*
X169391361Y-55022600D01*
X169520394Y-55215711D01*
X169830413Y-55422859D01*
X170196105Y-55495600D01*
X170563895Y-55495600D01*
X170929587Y-55422859D01*
X171239606Y-55215711D01*
X171446754Y-54905692D01*
X171519495Y-54540000D01*
X171446754Y-54174308D01*
X171358075Y-54041590D01*
X177021925Y-54041590D01*
X176933246Y-54174308D01*
X176860505Y-54540000D01*
X176933246Y-54905692D01*
X177140394Y-55215711D01*
X177450413Y-55422859D01*
X177816105Y-55495600D01*
X178183895Y-55495600D01*
X178549587Y-55422859D01*
X178859606Y-55215711D01*
X179066754Y-54905692D01*
X179139495Y-54540000D01*
X179066754Y-54174308D01*
X178978075Y-54041590D01*
X182199090Y-54041590D01*
X182602985Y-54445485D01*
X182485146Y-54729273D01*
X182484675Y-55268362D01*
X182690541Y-55766594D01*
X183071401Y-56148120D01*
X183569273Y-56354854D01*
X184108362Y-56355325D01*
X184606594Y-56149459D01*
X184988120Y-55768599D01*
X185194854Y-55270727D01*
X185194856Y-55268362D01*
X192644675Y-55268362D01*
X192850541Y-55766594D01*
X193231401Y-56148120D01*
X193729273Y-56354854D01*
X194268362Y-56355325D01*
X194766594Y-56149459D01*
X195148120Y-55768599D01*
X195354854Y-55270727D01*
X195355068Y-55025400D01*
X197654820Y-55025400D01*
X197654820Y-55326390D01*
X197725831Y-55632586D01*
X197908613Y-55888299D01*
X198175338Y-56054599D01*
X198309018Y-56091887D01*
X198434600Y-56016820D01*
X198434600Y-55025400D01*
X197654820Y-55025400D01*
X195355068Y-55025400D01*
X195355325Y-54731638D01*
X195237067Y-54445433D01*
X195699899Y-53982600D01*
X198115675Y-53982600D01*
X197908613Y-54111701D01*
X197725831Y-54367414D01*
X197654820Y-54673610D01*
X197654820Y-54974600D01*
X198434600Y-54974600D01*
X198434600Y-54954600D01*
X198485400Y-54954600D01*
X198485400Y-54974600D01*
X198505400Y-54974600D01*
X198505400Y-55025400D01*
X198485400Y-55025400D01*
X198485400Y-56016820D01*
X198610982Y-56091887D01*
X198744662Y-56054599D01*
X199011387Y-55888299D01*
X199087254Y-55782161D01*
X199160652Y-55892009D01*
X199421871Y-56066550D01*
X199730000Y-56127841D01*
X200038129Y-56066550D01*
X200299348Y-55892009D01*
X200365000Y-55793754D01*
X200430652Y-55892009D01*
X200691871Y-56066550D01*
X201000000Y-56127841D01*
X201308129Y-56066550D01*
X201569348Y-55892009D01*
X201743889Y-55630790D01*
X201805180Y-55322661D01*
X201805180Y-54677339D01*
X201743889Y-54369210D01*
X201569348Y-54107991D01*
X201308129Y-53933450D01*
X201000000Y-53872159D01*
X200691871Y-53933450D01*
X200430652Y-54107991D01*
X200365000Y-54206246D01*
X200299348Y-54107991D01*
X200038129Y-53933450D01*
X199730000Y-53872159D01*
X199609598Y-53896108D01*
X199309890Y-53596400D01*
X205569639Y-53596400D01*
X205569639Y-55323600D01*
X205597977Y-55474203D01*
X205686983Y-55612522D01*
X205822790Y-55705315D01*
X205984000Y-55737961D01*
X208016000Y-55737961D01*
X208166603Y-55709623D01*
X208304922Y-55620617D01*
X208397715Y-55484810D01*
X208430361Y-55323600D01*
X208430361Y-53596400D01*
X208402023Y-53445797D01*
X208313017Y-53307478D01*
X208177210Y-53214685D01*
X208016000Y-53182039D01*
X205984000Y-53182039D01*
X205833397Y-53210377D01*
X205695078Y-53299383D01*
X205602285Y-53435190D01*
X205569639Y-53596400D01*
X199309890Y-53596400D01*
X198872240Y-53158750D01*
X198715673Y-53054136D01*
X198530990Y-53017400D01*
X195500000Y-53017400D01*
X195315317Y-53054136D01*
X195158750Y-53158750D01*
X195158748Y-53158753D01*
X194554516Y-53762985D01*
X194270727Y-53645146D01*
X193731638Y-53644675D01*
X193233406Y-53850541D01*
X192851880Y-54231401D01*
X192645146Y-54729273D01*
X192644675Y-55268362D01*
X185194856Y-55268362D01*
X185195325Y-54731638D01*
X184989459Y-54233406D01*
X184608599Y-53851880D01*
X184110727Y-53645146D01*
X183571638Y-53644675D01*
X183285433Y-53762933D01*
X182740240Y-53217740D01*
X182583673Y-53113126D01*
X182398990Y-53076390D01*
X165839791Y-53076390D01*
X166148120Y-52768599D01*
X166266877Y-52482600D01*
X169391361Y-52482600D01*
X169520394Y-52675711D01*
X169830413Y-52882859D01*
X170196105Y-52955600D01*
X170563895Y-52955600D01*
X170929587Y-52882859D01*
X171239606Y-52675711D01*
X171446754Y-52365692D01*
X171519495Y-52000000D01*
X171446754Y-51634308D01*
X171239606Y-51324289D01*
X170929587Y-51117141D01*
X170854016Y-51102109D01*
X177525984Y-51102109D01*
X177450413Y-51117141D01*
X177140394Y-51324289D01*
X176933246Y-51634308D01*
X176860505Y-52000000D01*
X176933246Y-52365692D01*
X177140394Y-52675711D01*
X177450413Y-52882859D01*
X177816105Y-52955600D01*
X178183895Y-52955600D01*
X178549587Y-52882859D01*
X178859606Y-52675711D01*
X179066754Y-52365692D01*
X179139495Y-52000000D01*
X179066754Y-51634308D01*
X178859606Y-51324289D01*
X178549587Y-51117141D01*
X178474016Y-51102109D01*
X182259609Y-51102109D01*
X182602985Y-51445485D01*
X182485146Y-51729273D01*
X182484675Y-52268362D01*
X182690541Y-52766594D01*
X183071401Y-53148120D01*
X183569273Y-53354854D01*
X184108362Y-53355325D01*
X184606594Y-53149459D01*
X184988120Y-52768599D01*
X185194854Y-52270727D01*
X185194856Y-52268362D01*
X192644675Y-52268362D01*
X192850541Y-52766594D01*
X193231401Y-53148120D01*
X193729273Y-53354854D01*
X194268362Y-53355325D01*
X194766594Y-53149459D01*
X195148120Y-52768599D01*
X195266877Y-52482600D01*
X199100000Y-52482600D01*
X199284683Y-52445864D01*
X199441250Y-52341250D01*
X200071247Y-51711252D01*
X200071250Y-51711250D01*
X200175864Y-51554683D01*
X200183280Y-51517400D01*
X200212601Y-51370000D01*
X200212600Y-51369995D01*
X200212600Y-50949972D01*
X200299348Y-50892009D01*
X200365000Y-50793754D01*
X200430652Y-50892009D01*
X200691871Y-51066550D01*
X201000000Y-51127841D01*
X201308129Y-51066550D01*
X201569348Y-50892009D01*
X201743889Y-50630790D01*
X201805180Y-50322661D01*
X201805180Y-49677339D01*
X201743889Y-49369210D01*
X201569348Y-49107991D01*
X201308129Y-48933450D01*
X201000000Y-48872159D01*
X200691871Y-48933450D01*
X200430652Y-49107991D01*
X200365000Y-49206246D01*
X200299348Y-49107991D01*
X200038129Y-48933450D01*
X199730000Y-48872159D01*
X199421871Y-48933450D01*
X199160652Y-49107991D01*
X199087254Y-49217839D01*
X199011387Y-49111701D01*
X198744662Y-48945401D01*
X198610982Y-48908113D01*
X198485400Y-48983180D01*
X198485400Y-49974600D01*
X198505400Y-49974600D01*
X198505400Y-50025400D01*
X198485400Y-50025400D01*
X198485400Y-51016820D01*
X198610982Y-51091887D01*
X198744662Y-51054599D01*
X199011387Y-50888299D01*
X199087254Y-50782161D01*
X199160652Y-50892009D01*
X199247400Y-50949972D01*
X199247400Y-51170101D01*
X198900100Y-51517400D01*
X195266803Y-51517400D01*
X195149459Y-51233406D01*
X194768599Y-50851880D01*
X194270727Y-50645146D01*
X193731638Y-50644675D01*
X193233406Y-50850541D01*
X192851880Y-51231401D01*
X192645146Y-51729273D01*
X192644675Y-52268362D01*
X185194856Y-52268362D01*
X185195325Y-51731638D01*
X184989459Y-51233406D01*
X184608599Y-50851880D01*
X184110727Y-50645146D01*
X183571638Y-50644675D01*
X183285433Y-50762933D01*
X182800759Y-50278259D01*
X182644192Y-50173645D01*
X182459509Y-50136909D01*
X178857813Y-50136909D01*
X178859606Y-50135711D01*
X179066754Y-49825692D01*
X179139495Y-49460000D01*
X179066754Y-49094308D01*
X178859606Y-48784289D01*
X178549587Y-48577141D01*
X178183895Y-48504400D01*
X177816105Y-48504400D01*
X177450413Y-48577141D01*
X177140394Y-48784289D01*
X176933246Y-49094308D01*
X176860505Y-49460000D01*
X176933246Y-49825692D01*
X177140394Y-50135711D01*
X177142187Y-50136909D01*
X171237813Y-50136909D01*
X171239606Y-50135711D01*
X171446754Y-49825692D01*
X171519495Y-49460000D01*
X171446754Y-49094308D01*
X171239606Y-48784289D01*
X170929587Y-48577141D01*
X170563895Y-48504400D01*
X170196105Y-48504400D01*
X169830413Y-48577141D01*
X169520394Y-48784289D01*
X169313246Y-49094308D01*
X169240505Y-49460000D01*
X169313246Y-49825692D01*
X169520394Y-50135711D01*
X169522187Y-50136909D01*
X165779166Y-50136909D01*
X166148120Y-49768599D01*
X166354854Y-49270727D01*
X166355325Y-48731638D01*
X166237067Y-48445433D01*
X167279900Y-47402600D01*
X169391361Y-47402600D01*
X169520394Y-47595711D01*
X169830413Y-47802859D01*
X170196105Y-47875600D01*
X170563895Y-47875600D01*
X170929587Y-47802859D01*
X171239606Y-47595711D01*
X171446754Y-47285692D01*
X171519495Y-46920000D01*
X171446754Y-46554308D01*
X171239606Y-46244289D01*
X170929587Y-46037141D01*
X170655392Y-45982600D01*
X177023140Y-45982600D01*
X177226977Y-46186436D01*
X177140394Y-46244289D01*
X176933246Y-46554308D01*
X176860505Y-46920000D01*
X176933246Y-47285692D01*
X177140394Y-47595711D01*
X177450413Y-47802859D01*
X177816105Y-47875600D01*
X178183895Y-47875600D01*
X178549587Y-47802859D01*
X178859606Y-47595711D01*
X179066754Y-47285692D01*
X179139495Y-46920000D01*
X179066754Y-46554308D01*
X178859606Y-46244289D01*
X178549587Y-46037141D01*
X178387478Y-46004895D01*
X178341250Y-45935710D01*
X178341247Y-45935708D01*
X177722526Y-45316986D01*
X177816105Y-45335600D01*
X178183895Y-45335600D01*
X178549587Y-45262859D01*
X178859606Y-45055711D01*
X179066754Y-44745692D01*
X179139495Y-44380000D01*
X179066754Y-44014308D01*
X178859606Y-43704289D01*
X178549587Y-43497141D01*
X178473863Y-43482079D01*
X178445864Y-43341317D01*
X178341250Y-43184750D01*
X176565250Y-41408750D01*
X176408683Y-41304136D01*
X176224000Y-41267400D01*
X167573492Y-41267400D01*
X167388809Y-41304136D01*
X167232242Y-41408750D01*
X166161245Y-42479747D01*
X166059459Y-42233406D01*
X165678599Y-41851880D01*
X165180727Y-41645146D01*
X164641638Y-41644675D01*
X164143406Y-41850541D01*
X163761880Y-42231401D01*
X163555146Y-42729273D01*
X163554675Y-43268362D01*
X163760541Y-43766594D01*
X164141401Y-44148120D01*
X164639273Y-44354854D01*
X165178362Y-44355325D01*
X165676594Y-44149459D01*
X166058120Y-43768599D01*
X166176877Y-43482600D01*
X166323492Y-43482600D01*
X166508175Y-43445864D01*
X166664742Y-43341250D01*
X167773392Y-42232600D01*
X176024100Y-42232600D01*
X177353438Y-43561938D01*
X177140394Y-43704289D01*
X176933246Y-44014308D01*
X176860505Y-44380000D01*
X176933246Y-44745692D01*
X177114795Y-45017400D01*
X171265205Y-45017400D01*
X171446754Y-44745692D01*
X171519495Y-44380000D01*
X171446754Y-44014308D01*
X171239606Y-43704289D01*
X170929587Y-43497141D01*
X170563895Y-43424400D01*
X170196105Y-43424400D01*
X169830413Y-43497141D01*
X169520394Y-43704289D01*
X169313246Y-44014308D01*
X169240505Y-44380000D01*
X169313246Y-44745692D01*
X169494795Y-45017400D01*
X166913497Y-45017400D01*
X166913492Y-45017399D01*
X166728809Y-45054136D01*
X166572242Y-45158750D01*
X166251245Y-45479747D01*
X166149459Y-45233406D01*
X165768599Y-44851880D01*
X165270727Y-44645146D01*
X164731638Y-44644675D01*
X164233406Y-44850541D01*
X163851880Y-45231401D01*
X163645146Y-45729273D01*
X163644675Y-46268362D01*
X163850541Y-46766594D01*
X164231401Y-47148120D01*
X164729273Y-47354854D01*
X165268362Y-47355325D01*
X165766594Y-47149459D01*
X166148120Y-46768599D01*
X166266877Y-46482600D01*
X166413492Y-46482600D01*
X166598175Y-46445864D01*
X166754742Y-46341250D01*
X167113392Y-45982600D01*
X170104608Y-45982600D01*
X169830413Y-46037141D01*
X169520394Y-46244289D01*
X169391361Y-46437400D01*
X167080000Y-46437400D01*
X166895317Y-46474136D01*
X166738750Y-46578750D01*
X165554515Y-47762985D01*
X165270727Y-47645146D01*
X164731638Y-47644675D01*
X164233406Y-47850541D01*
X163851880Y-48231401D01*
X163645146Y-48729273D01*
X163644675Y-49268362D01*
X163850541Y-49766594D01*
X164220210Y-50136909D01*
X163980491Y-50136909D01*
X163795808Y-50173645D01*
X163639241Y-50278259D01*
X161019609Y-52897891D01*
X155858602Y-52897891D01*
X155988120Y-52768599D01*
X156194854Y-52270727D01*
X156195325Y-51731638D01*
X155989459Y-51233406D01*
X155800024Y-51043640D01*
X158986097Y-51043640D01*
X159402615Y-51460158D01*
X159402473Y-51622976D01*
X159509668Y-51882407D01*
X159707984Y-52081069D01*
X159967228Y-52188717D01*
X160247933Y-52188962D01*
X160507364Y-52081767D01*
X160706026Y-51883451D01*
X160813674Y-51624207D01*
X160813919Y-51343502D01*
X160706724Y-51084071D01*
X160508408Y-50885409D01*
X160249164Y-50777761D01*
X160085075Y-50777618D01*
X159527247Y-50219790D01*
X159370680Y-50115176D01*
X159185997Y-50078440D01*
X155677737Y-50078440D01*
X155988120Y-49768599D01*
X156194854Y-49270727D01*
X156195325Y-48731638D01*
X155989459Y-48233406D01*
X155858391Y-48102109D01*
X157150686Y-48102109D01*
X157815217Y-48766639D01*
X157815075Y-48929458D01*
X157922270Y-49188889D01*
X158120586Y-49387551D01*
X158379830Y-49495199D01*
X158660535Y-49495444D01*
X158919966Y-49388249D01*
X159118628Y-49189933D01*
X159226276Y-48930689D01*
X159226521Y-48649984D01*
X159119326Y-48390553D01*
X158921010Y-48191891D01*
X158661766Y-48084243D01*
X158497676Y-48084100D01*
X157691836Y-47278259D01*
X157535269Y-47173645D01*
X157350586Y-47136909D01*
X155619166Y-47136909D01*
X155988120Y-46768599D01*
X156194854Y-46270727D01*
X156195325Y-45731638D01*
X155989459Y-45233406D01*
X155619790Y-44863091D01*
X157614158Y-44863091D01*
X158546287Y-45795220D01*
X158546145Y-45958038D01*
X158653340Y-46217469D01*
X158851656Y-46416131D01*
X159110900Y-46523779D01*
X159391605Y-46524024D01*
X159651036Y-46416829D01*
X159849698Y-46218513D01*
X159957346Y-45959269D01*
X159957591Y-45678564D01*
X159850396Y-45419133D01*
X159652080Y-45220471D01*
X159392836Y-45112823D01*
X159228747Y-45112680D01*
X158155308Y-44039241D01*
X157998741Y-43934627D01*
X157814058Y-43897891D01*
X155768602Y-43897891D01*
X155898120Y-43768599D01*
X156104854Y-43270727D01*
X156105325Y-42731638D01*
X155899459Y-42233406D01*
X155518599Y-41851880D01*
X155020727Y-41645146D01*
X154481638Y-41644675D01*
X153983406Y-41850541D01*
X153601880Y-42231401D01*
X153395146Y-42729273D01*
X153394675Y-43268362D01*
X153600541Y-43766594D01*
X153731609Y-43897891D01*
X140820390Y-43897891D01*
X140054472Y-43131972D01*
X140443949Y-43131972D01*
X140518130Y-43306671D01*
X140921612Y-43481766D01*
X141361385Y-43489127D01*
X141770500Y-43327633D01*
X141801870Y-43306671D01*
X141876051Y-43131972D01*
X141160000Y-42415921D01*
X140443949Y-43131972D01*
X140054472Y-43131972D01*
X139666133Y-42743633D01*
X139725408Y-42600882D01*
X139725425Y-42581385D01*
X140050873Y-42581385D01*
X140212367Y-42990500D01*
X140233329Y-43021870D01*
X140408028Y-43096051D01*
X141124079Y-42380000D01*
X141195921Y-42380000D01*
X141911972Y-43096051D01*
X142086671Y-43021870D01*
X142261766Y-42618388D01*
X142262091Y-42598953D01*
X142594208Y-42598953D01*
X142762171Y-43005454D01*
X143072910Y-43316736D01*
X143479118Y-43485408D01*
X143918953Y-43485792D01*
X144325454Y-43317829D01*
X144636736Y-43007090D01*
X144805408Y-42600882D01*
X144805409Y-42598953D01*
X145134208Y-42598953D01*
X145302171Y-43005454D01*
X145612910Y-43316736D01*
X146019118Y-43485408D01*
X146458953Y-43485792D01*
X146865454Y-43317829D01*
X147176736Y-43007090D01*
X147345408Y-42600882D01*
X147345409Y-42598953D01*
X147674208Y-42598953D01*
X147842171Y-43005454D01*
X148152910Y-43316736D01*
X148559118Y-43485408D01*
X148998953Y-43485792D01*
X149405454Y-43317829D01*
X149716736Y-43007090D01*
X149885408Y-42600882D01*
X149885792Y-42161047D01*
X149717829Y-41754546D01*
X149407090Y-41443264D01*
X149000882Y-41274592D01*
X148561047Y-41274208D01*
X148154546Y-41442171D01*
X147843264Y-41752910D01*
X147674592Y-42159118D01*
X147674208Y-42598953D01*
X147345409Y-42598953D01*
X147345792Y-42161047D01*
X147177829Y-41754546D01*
X146867090Y-41443264D01*
X146460882Y-41274592D01*
X146021047Y-41274208D01*
X145614546Y-41442171D01*
X145303264Y-41752910D01*
X145134592Y-42159118D01*
X145134208Y-42598953D01*
X144805409Y-42598953D01*
X144805792Y-42161047D01*
X144637829Y-41754546D01*
X144327090Y-41443264D01*
X143920882Y-41274592D01*
X143481047Y-41274208D01*
X143074546Y-41442171D01*
X142763264Y-41752910D01*
X142594592Y-42159118D01*
X142594208Y-42598953D01*
X142262091Y-42598953D01*
X142269127Y-42178615D01*
X142107633Y-41769500D01*
X142086671Y-41738130D01*
X141911972Y-41663949D01*
X141195921Y-42380000D01*
X141124079Y-42380000D01*
X140408028Y-41663949D01*
X140233329Y-41738130D01*
X140058234Y-42141612D01*
X140050873Y-42581385D01*
X139725425Y-42581385D01*
X139725792Y-42161047D01*
X139557829Y-41754546D01*
X139431532Y-41628028D01*
X140443949Y-41628028D01*
X141160000Y-42344079D01*
X141876051Y-41628028D01*
X141801870Y-41453329D01*
X141398388Y-41278234D01*
X140958615Y-41270873D01*
X140549500Y-41432367D01*
X140518130Y-41453329D01*
X140443949Y-41628028D01*
X139431532Y-41628028D01*
X139247090Y-41443264D01*
X138840882Y-41274592D01*
X138401047Y-41274208D01*
X137994546Y-41442171D01*
X137683264Y-41752910D01*
X137514592Y-42159118D01*
X137514208Y-42598953D01*
X137682171Y-43005454D01*
X137992910Y-43316736D01*
X138399118Y-43485408D01*
X138838953Y-43485792D01*
X138983547Y-43426047D01*
X140279239Y-44721738D01*
X140279241Y-44721741D01*
X140420053Y-44815828D01*
X140435808Y-44826355D01*
X140620491Y-44863092D01*
X140620496Y-44863091D01*
X154060834Y-44863091D01*
X153691880Y-45231401D01*
X153485146Y-45729273D01*
X153484675Y-46268362D01*
X153690541Y-46766594D01*
X154060210Y-47136909D01*
X138979409Y-47136909D01*
X134586133Y-42743633D01*
X134645408Y-42600882D01*
X134645409Y-42598953D01*
X134974208Y-42598953D01*
X135142171Y-43005454D01*
X135452910Y-43316736D01*
X135859118Y-43485408D01*
X136298953Y-43485792D01*
X136705454Y-43317829D01*
X137016736Y-43007090D01*
X137185408Y-42600882D01*
X137185792Y-42161047D01*
X137017829Y-41754546D01*
X136707090Y-41443264D01*
X136300882Y-41274592D01*
X135861047Y-41274208D01*
X135454546Y-41442171D01*
X135143264Y-41752910D01*
X134974592Y-42159118D01*
X134974208Y-42598953D01*
X134645409Y-42598953D01*
X134645792Y-42161047D01*
X134477829Y-41754546D01*
X134167090Y-41443264D01*
X133760882Y-41274592D01*
X133321047Y-41274208D01*
X132914546Y-41442171D01*
X132603264Y-41752910D01*
X132434592Y-42159118D01*
X132434208Y-42598953D01*
X132602171Y-43005454D01*
X132912910Y-43316736D01*
X133319118Y-43485408D01*
X133758953Y-43485792D01*
X133903547Y-43426047D01*
X138438259Y-47960759D01*
X138594826Y-48065373D01*
X138779509Y-48102110D01*
X138779514Y-48102109D01*
X153821398Y-48102109D01*
X153691880Y-48231401D01*
X153485146Y-48729273D01*
X153484675Y-49268362D01*
X153690541Y-49766594D01*
X154001843Y-50078440D01*
X139380940Y-50078440D01*
X132046133Y-42743633D01*
X132105408Y-42600882D01*
X132105792Y-42161047D01*
X131937829Y-41754546D01*
X131627090Y-41443264D01*
X131220882Y-41274592D01*
X130781047Y-41274208D01*
X130374546Y-41442171D01*
X130063264Y-41752910D01*
X129894592Y-42159118D01*
X129894208Y-42598953D01*
X130062171Y-43005454D01*
X130372910Y-43316736D01*
X130779118Y-43485408D01*
X131218953Y-43485792D01*
X131363547Y-43426047D01*
X138839790Y-50902290D01*
X138996357Y-51006904D01*
X139181040Y-51043641D01*
X139181045Y-51043640D01*
X153879969Y-51043640D01*
X153691880Y-51231401D01*
X153485146Y-51729273D01*
X153484675Y-52268362D01*
X153690541Y-52766594D01*
X153821609Y-52897891D01*
X132040391Y-52897891D01*
X121886133Y-42743633D01*
X121945408Y-42600882D01*
X121945409Y-42598953D01*
X122274208Y-42598953D01*
X122442171Y-43005454D01*
X122752910Y-43316736D01*
X123159118Y-43485408D01*
X123598953Y-43485792D01*
X124005454Y-43317829D01*
X124316736Y-43007090D01*
X124485408Y-42600882D01*
X124485409Y-42598953D01*
X124814208Y-42598953D01*
X124982171Y-43005454D01*
X125292910Y-43316736D01*
X125699118Y-43485408D01*
X126138953Y-43485792D01*
X126545454Y-43317829D01*
X126856736Y-43007090D01*
X127025408Y-42600882D01*
X127025409Y-42598953D01*
X127354208Y-42598953D01*
X127522171Y-43005454D01*
X127832910Y-43316736D01*
X128239118Y-43485408D01*
X128678953Y-43485792D01*
X129085454Y-43317829D01*
X129396736Y-43007090D01*
X129565408Y-42600882D01*
X129565792Y-42161047D01*
X129397829Y-41754546D01*
X129087090Y-41443264D01*
X128680882Y-41274592D01*
X128241047Y-41274208D01*
X127834546Y-41442171D01*
X127523264Y-41752910D01*
X127354592Y-42159118D01*
X127354208Y-42598953D01*
X127025409Y-42598953D01*
X127025792Y-42161047D01*
X126857829Y-41754546D01*
X126547090Y-41443264D01*
X126140882Y-41274592D01*
X125701047Y-41274208D01*
X125294546Y-41442171D01*
X124983264Y-41752910D01*
X124814592Y-42159118D01*
X124814208Y-42598953D01*
X124485409Y-42598953D01*
X124485792Y-42161047D01*
X124317829Y-41754546D01*
X124007090Y-41443264D01*
X123600882Y-41274592D01*
X123161047Y-41274208D01*
X122754546Y-41442171D01*
X122443264Y-41752910D01*
X122274592Y-42159118D01*
X122274208Y-42598953D01*
X121945409Y-42598953D01*
X121945792Y-42161047D01*
X121777829Y-41754546D01*
X121467090Y-41443264D01*
X121060882Y-41274592D01*
X120621047Y-41274208D01*
X120214546Y-41442171D01*
X119903264Y-41752910D01*
X119734592Y-42159118D01*
X119734208Y-42598953D01*
X119902171Y-43005454D01*
X120212910Y-43316736D01*
X120619118Y-43485408D01*
X121058953Y-43485792D01*
X121203547Y-43426047D01*
X131320928Y-53543428D01*
X130145928Y-53543428D01*
X119346133Y-42743633D01*
X119405408Y-42600882D01*
X119405792Y-42161047D01*
X119237829Y-41754546D01*
X118927090Y-41443264D01*
X118520882Y-41274592D01*
X118081047Y-41274208D01*
X117674546Y-41442171D01*
X117363264Y-41752910D01*
X117194592Y-42159118D01*
X117194208Y-42598953D01*
X117362171Y-43005454D01*
X117672910Y-43316736D01*
X118079118Y-43485408D01*
X118518953Y-43485792D01*
X118663547Y-43426047D01*
X129288939Y-54051439D01*
X128113939Y-54051439D01*
X116806133Y-42743633D01*
X116865408Y-42600882D01*
X116865792Y-42161047D01*
X116697829Y-41754546D01*
X116387090Y-41443264D01*
X115980882Y-41274592D01*
X115541047Y-41274208D01*
X115134546Y-41442171D01*
X114823264Y-41752910D01*
X114654592Y-42159118D01*
X114654208Y-42598953D01*
X114822171Y-43005454D01*
X115132910Y-43316736D01*
X115539118Y-43485408D01*
X115978953Y-43485792D01*
X116123547Y-43426047D01*
X127572789Y-54875289D01*
X127729356Y-54979903D01*
X127914039Y-55016640D01*
X127914044Y-55016639D01*
X132106143Y-55016639D01*
X131900832Y-55101472D01*
X131702170Y-55299788D01*
X131594522Y-55559032D01*
X131594277Y-55839737D01*
X131701472Y-56099168D01*
X131817400Y-56215298D01*
X131817400Y-56873907D01*
X131627090Y-56683264D01*
X131220882Y-56514592D01*
X130781047Y-56514208D01*
X130374546Y-56682171D01*
X130063264Y-56992910D01*
X129894592Y-57399118D01*
X129894208Y-57838953D01*
X130062171Y-58245454D01*
X130372910Y-58556736D01*
X130517400Y-58616733D01*
X130517400Y-60883128D01*
X130554136Y-61067811D01*
X130658750Y-61224378D01*
X134751772Y-65317400D01*
X134499900Y-65317400D01*
X128942600Y-59760100D01*
X128942600Y-58616855D01*
X129085454Y-58557829D01*
X129396736Y-58247090D01*
X129565408Y-57840882D01*
X129565792Y-57401047D01*
X129397829Y-56994546D01*
X129087090Y-56683264D01*
X128680882Y-56514592D01*
X128241047Y-56514208D01*
X127834546Y-56682171D01*
X127523264Y-56992910D01*
X127354592Y-57399118D01*
X127354208Y-57838953D01*
X127522171Y-58245454D01*
X127832910Y-58556736D01*
X127977400Y-58616733D01*
X127977400Y-59960000D01*
X128001128Y-60079288D01*
X126498903Y-58577063D01*
X126545454Y-58557829D01*
X126856736Y-58247090D01*
X127025408Y-57840882D01*
X127025792Y-57401047D01*
X126857829Y-56994546D01*
X126547090Y-56683264D01*
X126140882Y-56514592D01*
X125701047Y-56514208D01*
X125294546Y-56682171D01*
X124983264Y-56992910D01*
X124814592Y-57399118D01*
X124814208Y-57838953D01*
X124982171Y-58245454D01*
X125292910Y-58556736D01*
X125437400Y-58616733D01*
X125437400Y-58680660D01*
X125474136Y-58865343D01*
X125578750Y-59021910D01*
X132890262Y-66333422D01*
X132775922Y-66333422D01*
X124426133Y-57983633D01*
X124485408Y-57840882D01*
X124485792Y-57401047D01*
X124317829Y-56994546D01*
X124007090Y-56683264D01*
X123600882Y-56514592D01*
X123161047Y-56514208D01*
X122754546Y-56682171D01*
X122443264Y-56992910D01*
X122274592Y-57399118D01*
X122274208Y-57838953D01*
X122442171Y-58245454D01*
X122752910Y-58556736D01*
X123159118Y-58725408D01*
X123598953Y-58725792D01*
X123743547Y-58666047D01*
X132026177Y-66948677D01*
X127531177Y-66948677D01*
X122877662Y-62295162D01*
X123282475Y-62295162D01*
X123488341Y-62793394D01*
X123869201Y-63174920D01*
X124367073Y-63381654D01*
X124906162Y-63382125D01*
X125404394Y-63176259D01*
X125785920Y-62795399D01*
X125992654Y-62297527D01*
X125993125Y-61758438D01*
X125787259Y-61260206D01*
X125406399Y-60878680D01*
X124908527Y-60671946D01*
X124369438Y-60671475D01*
X123871206Y-60877341D01*
X123489680Y-61258201D01*
X123282946Y-61756073D01*
X123282475Y-62295162D01*
X122877662Y-62295162D01*
X120082600Y-59500100D01*
X120082600Y-58426198D01*
X120212910Y-58556736D01*
X120619118Y-58725408D01*
X121058953Y-58725792D01*
X121465454Y-58557829D01*
X121776736Y-58247090D01*
X121945408Y-57840882D01*
X121945792Y-57401047D01*
X121777829Y-56994546D01*
X121467090Y-56683264D01*
X121060882Y-56514592D01*
X120621047Y-56514208D01*
X120214546Y-56682171D01*
X120082600Y-56813887D01*
X120082600Y-48760005D01*
X120082601Y-48760000D01*
X120045864Y-48575317D01*
X119998479Y-48504400D01*
X119941250Y-48418750D01*
X119941247Y-48418748D01*
X114266133Y-42743633D01*
X114325408Y-42600882D01*
X114325792Y-42161047D01*
X114157829Y-41754546D01*
X113847090Y-41443264D01*
X113440882Y-41274592D01*
X113001047Y-41274208D01*
X112594546Y-41442171D01*
X112283264Y-41752910D01*
X112114592Y-42159118D01*
X112114208Y-42598953D01*
X110430600Y-42598953D01*
X110430600Y-40430600D01*
X188552621Y-40430600D01*
X186465820Y-42517400D01*
G36*
X198978559Y-65300347D02*
X198894400Y-65723442D01*
X198894400Y-66276558D01*
X198978559Y-66699653D01*
X199218223Y-67058335D01*
X199517400Y-67258239D01*
X199517400Y-74000100D01*
X195384078Y-78133422D01*
X178549078Y-78133422D01*
X179345485Y-77337015D01*
X179629273Y-77454854D01*
X180168362Y-77455325D01*
X180666594Y-77249459D01*
X181048120Y-76868599D01*
X181254854Y-76370727D01*
X181254856Y-76368362D01*
X188704675Y-76368362D01*
X188910541Y-76866594D01*
X189291401Y-77248120D01*
X189789273Y-77454854D01*
X190328362Y-77455325D01*
X190826594Y-77249459D01*
X191208120Y-76868599D01*
X191414854Y-76370727D01*
X191415325Y-75831638D01*
X191209459Y-75333406D01*
X190828599Y-74951880D01*
X190330727Y-74745146D01*
X189791638Y-74744675D01*
X189293406Y-74950541D01*
X188911880Y-75331401D01*
X188705146Y-75829273D01*
X188704675Y-76368362D01*
X181254856Y-76368362D01*
X181255325Y-75831638D01*
X181049459Y-75333406D01*
X180668599Y-74951880D01*
X180170727Y-74745146D01*
X179631638Y-74744675D01*
X179133406Y-74950541D01*
X178751880Y-75331401D01*
X178545146Y-75829273D01*
X178544675Y-76368362D01*
X178662933Y-76654567D01*
X177911598Y-77405902D01*
X169776598Y-77405902D01*
X172319409Y-74863091D01*
X172380834Y-74863091D01*
X172011880Y-75231401D01*
X171805146Y-75729273D01*
X171804675Y-76268362D01*
X172010541Y-76766594D01*
X172391401Y-77148120D01*
X172889273Y-77354854D01*
X173428362Y-77355325D01*
X173926594Y-77149459D01*
X174308120Y-76768599D01*
X174514854Y-76270727D01*
X174515325Y-75731638D01*
X174309459Y-75233406D01*
X173939790Y-74863091D01*
X178519509Y-74863091D01*
X178704192Y-74826355D01*
X178860759Y-74721741D01*
X179345485Y-74237015D01*
X179629273Y-74354854D01*
X180168362Y-74355325D01*
X180666594Y-74149459D01*
X181048120Y-73768599D01*
X181254854Y-73270727D01*
X181254856Y-73268362D01*
X188704675Y-73268362D01*
X188910541Y-73766594D01*
X189291401Y-74148120D01*
X189789273Y-74354854D01*
X190328362Y-74355325D01*
X190826594Y-74149459D01*
X191208120Y-73768599D01*
X191374677Y-73367482D01*
X193144079Y-73367482D01*
X193425982Y-74049740D01*
X193947515Y-74572184D01*
X194629279Y-74855277D01*
X195367482Y-74855921D01*
X196049740Y-74574018D01*
X196572184Y-74052485D01*
X196855277Y-73370721D01*
X196855921Y-72632518D01*
X196574018Y-71950260D01*
X196052485Y-71427816D01*
X195370721Y-71144723D01*
X194632518Y-71144079D01*
X193950260Y-71425982D01*
X193427816Y-71947515D01*
X193144723Y-72629279D01*
X193144079Y-73367482D01*
X191374677Y-73367482D01*
X191414854Y-73270727D01*
X191415325Y-72731638D01*
X191209459Y-72233406D01*
X190828599Y-71851880D01*
X190330727Y-71645146D01*
X189791638Y-71644675D01*
X189293406Y-71850541D01*
X188911880Y-72231401D01*
X188705146Y-72729273D01*
X188704675Y-73268362D01*
X181254856Y-73268362D01*
X181255325Y-72731638D01*
X181049459Y-72233406D01*
X180668599Y-71851880D01*
X180170727Y-71645146D01*
X179631638Y-71644675D01*
X179133406Y-71850541D01*
X178751880Y-72231401D01*
X178545146Y-72729273D01*
X178544675Y-73268362D01*
X178662933Y-73554567D01*
X178319609Y-73897891D01*
X174178602Y-73897891D01*
X174308120Y-73768599D01*
X174514854Y-73270727D01*
X174515325Y-72731638D01*
X174309459Y-72233406D01*
X173928599Y-71851880D01*
X173430727Y-71645146D01*
X172891638Y-71644675D01*
X172393406Y-71850541D01*
X172011880Y-72231401D01*
X171805146Y-72729273D01*
X171804675Y-73268362D01*
X172010541Y-73766594D01*
X172141609Y-73897891D01*
X172119514Y-73897891D01*
X172119509Y-73897890D01*
X171934826Y-73934627D01*
X171778259Y-74039241D01*
X168919609Y-76897891D01*
X164018602Y-76897891D01*
X164148120Y-76768599D01*
X164354854Y-76270727D01*
X164355325Y-75731638D01*
X164149459Y-75233406D01*
X163768599Y-74851880D01*
X163270727Y-74645146D01*
X162731638Y-74644675D01*
X162233406Y-74850541D01*
X161851880Y-75231401D01*
X161645146Y-75729273D01*
X161644675Y-76268362D01*
X161850541Y-76766594D01*
X161981609Y-76897891D01*
X154480391Y-76897891D01*
X150850862Y-73268362D01*
X161644675Y-73268362D01*
X161850541Y-73766594D01*
X162231401Y-74148120D01*
X162729273Y-74354854D01*
X163268362Y-74355325D01*
X163766594Y-74149459D01*
X164148120Y-73768599D01*
X164354854Y-73270727D01*
X164355325Y-72731638D01*
X164149459Y-72233406D01*
X163768599Y-71851880D01*
X163270727Y-71645146D01*
X162731638Y-71644675D01*
X162233406Y-71850541D01*
X161851880Y-72231401D01*
X161645146Y-72729273D01*
X161644675Y-73268362D01*
X150850862Y-73268362D01*
X149841250Y-72258750D01*
X149684683Y-72154136D01*
X149500000Y-72117400D01*
X145929699Y-72117400D01*
X142802910Y-68990610D01*
X145395751Y-68990610D01*
X145367467Y-69009509D01*
X145116965Y-69384413D01*
X145029000Y-69826642D01*
X145029000Y-70279758D01*
X145116965Y-70721987D01*
X145367467Y-71096891D01*
X145742371Y-71347393D01*
X146184600Y-71435358D01*
X146626829Y-71347393D01*
X147001733Y-71096891D01*
X147252235Y-70721987D01*
X147340200Y-70279758D01*
X147340200Y-70078600D01*
X155029000Y-70078600D01*
X155029000Y-70278600D01*
X155126685Y-70718896D01*
X155385428Y-71088294D01*
X155765838Y-71330556D01*
X155978781Y-71390324D01*
X156159200Y-71319598D01*
X156159200Y-70078600D01*
X156210000Y-70078600D01*
X156210000Y-71319598D01*
X156390419Y-71390324D01*
X156603362Y-71330556D01*
X156983772Y-71088294D01*
X157242515Y-70718896D01*
X157340200Y-70278600D01*
X157340200Y-70078600D01*
X156210000Y-70078600D01*
X156159200Y-70078600D01*
X155029000Y-70078600D01*
X147340200Y-70078600D01*
X147340200Y-69826642D01*
X147252235Y-69384413D01*
X147001733Y-69009509D01*
X146973449Y-68990610D01*
X155428603Y-68990610D01*
X155385428Y-69018106D01*
X155126685Y-69387504D01*
X155029000Y-69827800D01*
X155029000Y-70027800D01*
X156159200Y-70027800D01*
X156159200Y-70007800D01*
X156210000Y-70007800D01*
X156210000Y-70027800D01*
X157340200Y-70027800D01*
X157340200Y-69827800D01*
X157242515Y-69387504D01*
X156983772Y-69018106D01*
X156940597Y-68990610D01*
X162093092Y-68990610D01*
X161851880Y-69231401D01*
X161645146Y-69729273D01*
X161644675Y-70268362D01*
X161850541Y-70766594D01*
X162231401Y-71148120D01*
X162729273Y-71354854D01*
X163268362Y-71355325D01*
X163766594Y-71149459D01*
X164148120Y-70768599D01*
X164354854Y-70270727D01*
X164355325Y-69731638D01*
X164149459Y-69233406D01*
X163907087Y-68990610D01*
X172253092Y-68990610D01*
X172011880Y-69231401D01*
X171805146Y-69729273D01*
X171804675Y-70268362D01*
X172010541Y-70766594D01*
X172391401Y-71148120D01*
X172889273Y-71354854D01*
X173428362Y-71355325D01*
X173926594Y-71149459D01*
X174308120Y-70768599D01*
X174514854Y-70270727D01*
X174515325Y-69731638D01*
X174309459Y-69233406D01*
X174067087Y-68990610D01*
X178933092Y-68990610D01*
X178691880Y-69231401D01*
X178485146Y-69729273D01*
X178484675Y-70268362D01*
X178690541Y-70766594D01*
X179071401Y-71148120D01*
X179569273Y-71354854D01*
X180108362Y-71355325D01*
X180606594Y-71149459D01*
X180988120Y-70768599D01*
X181194854Y-70270727D01*
X181195325Y-69731638D01*
X180989459Y-69233406D01*
X180747087Y-68990610D01*
X189093092Y-68990610D01*
X188851880Y-69231401D01*
X188645146Y-69729273D01*
X188644675Y-70268362D01*
X188850541Y-70766594D01*
X189231401Y-71148120D01*
X189729273Y-71354854D01*
X190268362Y-71355325D01*
X190766594Y-71149459D01*
X191148120Y-70768599D01*
X191354854Y-70270727D01*
X191355325Y-69731638D01*
X191149459Y-69233406D01*
X190907087Y-68990610D01*
X192910426Y-68990610D01*
X193095109Y-68953874D01*
X193251676Y-68849260D01*
X196075536Y-66025400D01*
X196394400Y-66025400D01*
X196394400Y-66275400D01*
X196488279Y-66696561D01*
X196736183Y-67049737D01*
X197100371Y-67281161D01*
X197302004Y-67337726D01*
X197474600Y-67266383D01*
X197474600Y-66025400D01*
X197525400Y-66025400D01*
X197525400Y-67266383D01*
X197697996Y-67337726D01*
X197899629Y-67281161D01*
X198263817Y-67049737D01*
X198511721Y-66696561D01*
X198605600Y-66275400D01*
X198605600Y-66025400D01*
X197525400Y-66025400D01*
X197474600Y-66025400D01*
X196394400Y-66025400D01*
X196075536Y-66025400D01*
X196399582Y-65701354D01*
X196394400Y-65724600D01*
X196394400Y-65974600D01*
X197474600Y-65974600D01*
X197474600Y-65954600D01*
X197525400Y-65954600D01*
X197525400Y-65974600D01*
X198605600Y-65974600D01*
X198605600Y-65724600D01*
X198511721Y-65303439D01*
X198334380Y-65050790D01*
X199145308Y-65050790D01*
X198978559Y-65300347D01*
X198978559Y-65300347D01*
G37*
X198978559Y-65300347D02*
X198894400Y-65723442D01*
X198894400Y-66276558D01*
X198978559Y-66699653D01*
X199218223Y-67058335D01*
X199517400Y-67258239D01*
X199517400Y-74000100D01*
X195384078Y-78133422D01*
X178549078Y-78133422D01*
X179345485Y-77337015D01*
X179629273Y-77454854D01*
X180168362Y-77455325D01*
X180666594Y-77249459D01*
X181048120Y-76868599D01*
X181254854Y-76370727D01*
X181254856Y-76368362D01*
X188704675Y-76368362D01*
X188910541Y-76866594D01*
X189291401Y-77248120D01*
X189789273Y-77454854D01*
X190328362Y-77455325D01*
X190826594Y-77249459D01*
X191208120Y-76868599D01*
X191414854Y-76370727D01*
X191415325Y-75831638D01*
X191209459Y-75333406D01*
X190828599Y-74951880D01*
X190330727Y-74745146D01*
X189791638Y-74744675D01*
X189293406Y-74950541D01*
X188911880Y-75331401D01*
X188705146Y-75829273D01*
X188704675Y-76368362D01*
X181254856Y-76368362D01*
X181255325Y-75831638D01*
X181049459Y-75333406D01*
X180668599Y-74951880D01*
X180170727Y-74745146D01*
X179631638Y-74744675D01*
X179133406Y-74950541D01*
X178751880Y-75331401D01*
X178545146Y-75829273D01*
X178544675Y-76368362D01*
X178662933Y-76654567D01*
X177911598Y-77405902D01*
X169776598Y-77405902D01*
X172319409Y-74863091D01*
X172380834Y-74863091D01*
X172011880Y-75231401D01*
X171805146Y-75729273D01*
X171804675Y-76268362D01*
X172010541Y-76766594D01*
X172391401Y-77148120D01*
X172889273Y-77354854D01*
X173428362Y-77355325D01*
X173926594Y-77149459D01*
X174308120Y-76768599D01*
X174514854Y-76270727D01*
X174515325Y-75731638D01*
X174309459Y-75233406D01*
X173939790Y-74863091D01*
X178519509Y-74863091D01*
X178704192Y-74826355D01*
X178860759Y-74721741D01*
X179345485Y-74237015D01*
X179629273Y-74354854D01*
X180168362Y-74355325D01*
X180666594Y-74149459D01*
X181048120Y-73768599D01*
X181254854Y-73270727D01*
X181254856Y-73268362D01*
X188704675Y-73268362D01*
X188910541Y-73766594D01*
X189291401Y-74148120D01*
X189789273Y-74354854D01*
X190328362Y-74355325D01*
X190826594Y-74149459D01*
X191208120Y-73768599D01*
X191374677Y-73367482D01*
X193144079Y-73367482D01*
X193425982Y-74049740D01*
X193947515Y-74572184D01*
X194629279Y-74855277D01*
X195367482Y-74855921D01*
X196049740Y-74574018D01*
X196572184Y-74052485D01*
X196855277Y-73370721D01*
X196855921Y-72632518D01*
X196574018Y-71950260D01*
X196052485Y-71427816D01*
X195370721Y-71144723D01*
X194632518Y-71144079D01*
X193950260Y-71425982D01*
X193427816Y-71947515D01*
X193144723Y-72629279D01*
X193144079Y-73367482D01*
X191374677Y-73367482D01*
X191414854Y-73270727D01*
X191415325Y-72731638D01*
X191209459Y-72233406D01*
X190828599Y-71851880D01*
X190330727Y-71645146D01*
X189791638Y-71644675D01*
X189293406Y-71850541D01*
X188911880Y-72231401D01*
X188705146Y-72729273D01*
X188704675Y-73268362D01*
X181254856Y-73268362D01*
X181255325Y-72731638D01*
X181049459Y-72233406D01*
X180668599Y-71851880D01*
X180170727Y-71645146D01*
X179631638Y-71644675D01*
X179133406Y-71850541D01*
X178751880Y-72231401D01*
X178545146Y-72729273D01*
X178544675Y-73268362D01*
X178662933Y-73554567D01*
X178319609Y-73897891D01*
X174178602Y-73897891D01*
X174308120Y-73768599D01*
X174514854Y-73270727D01*
X174515325Y-72731638D01*
X174309459Y-72233406D01*
X173928599Y-71851880D01*
X173430727Y-71645146D01*
X172891638Y-71644675D01*
X172393406Y-71850541D01*
X172011880Y-72231401D01*
X171805146Y-72729273D01*
X171804675Y-73268362D01*
X172010541Y-73766594D01*
X172141609Y-73897891D01*
X172119514Y-73897891D01*
X172119509Y-73897890D01*
X171934826Y-73934627D01*
X171778259Y-74039241D01*
X168919609Y-76897891D01*
X164018602Y-76897891D01*
X164148120Y-76768599D01*
X164354854Y-76270727D01*
X164355325Y-75731638D01*
X164149459Y-75233406D01*
X163768599Y-74851880D01*
X163270727Y-74645146D01*
X162731638Y-74644675D01*
X162233406Y-74850541D01*
X161851880Y-75231401D01*
X161645146Y-75729273D01*
X161644675Y-76268362D01*
X161850541Y-76766594D01*
X161981609Y-76897891D01*
X154480391Y-76897891D01*
X150850862Y-73268362D01*
X161644675Y-73268362D01*
X161850541Y-73766594D01*
X162231401Y-74148120D01*
X162729273Y-74354854D01*
X163268362Y-74355325D01*
X163766594Y-74149459D01*
X164148120Y-73768599D01*
X164354854Y-73270727D01*
X164355325Y-72731638D01*
X164149459Y-72233406D01*
X163768599Y-71851880D01*
X163270727Y-71645146D01*
X162731638Y-71644675D01*
X162233406Y-71850541D01*
X161851880Y-72231401D01*
X161645146Y-72729273D01*
X161644675Y-73268362D01*
X150850862Y-73268362D01*
X149841250Y-72258750D01*
X149684683Y-72154136D01*
X149500000Y-72117400D01*
X145929699Y-72117400D01*
X142802910Y-68990610D01*
X145395751Y-68990610D01*
X145367467Y-69009509D01*
X145116965Y-69384413D01*
X145029000Y-69826642D01*
X145029000Y-70279758D01*
X145116965Y-70721987D01*
X145367467Y-71096891D01*
X145742371Y-71347393D01*
X146184600Y-71435358D01*
X146626829Y-71347393D01*
X147001733Y-71096891D01*
X147252235Y-70721987D01*
X147340200Y-70279758D01*
X147340200Y-70078600D01*
X155029000Y-70078600D01*
X155029000Y-70278600D01*
X155126685Y-70718896D01*
X155385428Y-71088294D01*
X155765838Y-71330556D01*
X155978781Y-71390324D01*
X156159200Y-71319598D01*
X156159200Y-70078600D01*
X156210000Y-70078600D01*
X156210000Y-71319598D01*
X156390419Y-71390324D01*
X156603362Y-71330556D01*
X156983772Y-71088294D01*
X157242515Y-70718896D01*
X157340200Y-70278600D01*
X157340200Y-70078600D01*
X156210000Y-70078600D01*
X156159200Y-70078600D01*
X155029000Y-70078600D01*
X147340200Y-70078600D01*
X147340200Y-69826642D01*
X147252235Y-69384413D01*
X147001733Y-69009509D01*
X146973449Y-68990610D01*
X155428603Y-68990610D01*
X155385428Y-69018106D01*
X155126685Y-69387504D01*
X155029000Y-69827800D01*
X155029000Y-70027800D01*
X156159200Y-70027800D01*
X156159200Y-70007800D01*
X156210000Y-70007800D01*
X156210000Y-70027800D01*
X157340200Y-70027800D01*
X157340200Y-69827800D01*
X157242515Y-69387504D01*
X156983772Y-69018106D01*
X156940597Y-68990610D01*
X162093092Y-68990610D01*
X161851880Y-69231401D01*
X161645146Y-69729273D01*
X161644675Y-70268362D01*
X161850541Y-70766594D01*
X162231401Y-71148120D01*
X162729273Y-71354854D01*
X163268362Y-71355325D01*
X163766594Y-71149459D01*
X164148120Y-70768599D01*
X164354854Y-70270727D01*
X164355325Y-69731638D01*
X164149459Y-69233406D01*
X163907087Y-68990610D01*
X172253092Y-68990610D01*
X172011880Y-69231401D01*
X171805146Y-69729273D01*
X171804675Y-70268362D01*
X172010541Y-70766594D01*
X172391401Y-71148120D01*
X172889273Y-71354854D01*
X173428362Y-71355325D01*
X173926594Y-71149459D01*
X174308120Y-70768599D01*
X174514854Y-70270727D01*
X174515325Y-69731638D01*
X174309459Y-69233406D01*
X174067087Y-68990610D01*
X178933092Y-68990610D01*
X178691880Y-69231401D01*
X178485146Y-69729273D01*
X178484675Y-70268362D01*
X178690541Y-70766594D01*
X179071401Y-71148120D01*
X179569273Y-71354854D01*
X180108362Y-71355325D01*
X180606594Y-71149459D01*
X180988120Y-70768599D01*
X181194854Y-70270727D01*
X181195325Y-69731638D01*
X180989459Y-69233406D01*
X180747087Y-68990610D01*
X189093092Y-68990610D01*
X188851880Y-69231401D01*
X188645146Y-69729273D01*
X188644675Y-70268362D01*
X188850541Y-70766594D01*
X189231401Y-71148120D01*
X189729273Y-71354854D01*
X190268362Y-71355325D01*
X190766594Y-71149459D01*
X191148120Y-70768599D01*
X191354854Y-70270727D01*
X191355325Y-69731638D01*
X191149459Y-69233406D01*
X190907087Y-68990610D01*
X192910426Y-68990610D01*
X193095109Y-68953874D01*
X193251676Y-68849260D01*
X196075536Y-66025400D01*
X196394400Y-66025400D01*
X196394400Y-66275400D01*
X196488279Y-66696561D01*
X196736183Y-67049737D01*
X197100371Y-67281161D01*
X197302004Y-67337726D01*
X197474600Y-67266383D01*
X197474600Y-66025400D01*
X197525400Y-66025400D01*
X197525400Y-67266383D01*
X197697996Y-67337726D01*
X197899629Y-67281161D01*
X198263817Y-67049737D01*
X198511721Y-66696561D01*
X198605600Y-66275400D01*
X198605600Y-66025400D01*
X197525400Y-66025400D01*
X197474600Y-66025400D01*
X196394400Y-66025400D01*
X196075536Y-66025400D01*
X196399582Y-65701354D01*
X196394400Y-65724600D01*
X196394400Y-65974600D01*
X197474600Y-65974600D01*
X197474600Y-65954600D01*
X197525400Y-65954600D01*
X197525400Y-65974600D01*
X198605600Y-65974600D01*
X198605600Y-65724600D01*
X198511721Y-65303439D01*
X198334380Y-65050790D01*
X199145308Y-65050790D01*
X198978559Y-65300347D01*
G36*
X131817400Y-58500000D02*
X131854136Y-58684683D01*
X131958750Y-58841250D01*
X133913934Y-60796434D01*
X134033383Y-60876247D01*
X134006380Y-60894290D01*
X133901833Y-61094912D01*
X134797800Y-61990879D01*
X135693767Y-61094912D01*
X135611885Y-60937784D01*
X135849766Y-60937784D01*
X141791660Y-66879678D01*
X141791618Y-66927554D01*
X139499458Y-64635394D01*
X139342891Y-64530780D01*
X139158208Y-64494044D01*
X135293416Y-64494044D01*
X133758060Y-62958688D01*
X133901833Y-62958688D01*
X134006380Y-63159310D01*
X134500015Y-63375966D01*
X135038986Y-63387225D01*
X135541239Y-63191371D01*
X135589220Y-63159310D01*
X135693767Y-62958688D01*
X134797800Y-62062721D01*
X133901833Y-62958688D01*
X133758060Y-62958688D01*
X133067358Y-62267986D01*
X133437375Y-62267986D01*
X133633229Y-62770239D01*
X133665290Y-62818220D01*
X133865912Y-62922767D01*
X134761879Y-62026800D01*
X134833721Y-62026800D01*
X135729688Y-62922767D01*
X135930310Y-62818220D01*
X136146966Y-62324585D01*
X136158225Y-61785614D01*
X135962371Y-61283361D01*
X135930310Y-61235380D01*
X135729688Y-61130833D01*
X134833721Y-62026800D01*
X134761879Y-62026800D01*
X133865912Y-61130833D01*
X133665290Y-61235380D01*
X133448634Y-61729015D01*
X133437375Y-62267986D01*
X133067358Y-62267986D01*
X131482600Y-60683228D01*
X131482600Y-58616855D01*
X131625454Y-58557829D01*
X131817400Y-58366218D01*
X131817400Y-58500000D01*
X131817400Y-58500000D01*
G37*
X131817400Y-58500000D02*
X131854136Y-58684683D01*
X131958750Y-58841250D01*
X133913934Y-60796434D01*
X134033383Y-60876247D01*
X134006380Y-60894290D01*
X133901833Y-61094912D01*
X134797800Y-61990879D01*
X135693767Y-61094912D01*
X135611885Y-60937784D01*
X135849766Y-60937784D01*
X141791660Y-66879678D01*
X141791618Y-66927554D01*
X139499458Y-64635394D01*
X139342891Y-64530780D01*
X139158208Y-64494044D01*
X135293416Y-64494044D01*
X133758060Y-62958688D01*
X133901833Y-62958688D01*
X134006380Y-63159310D01*
X134500015Y-63375966D01*
X135038986Y-63387225D01*
X135541239Y-63191371D01*
X135589220Y-63159310D01*
X135693767Y-62958688D01*
X134797800Y-62062721D01*
X133901833Y-62958688D01*
X133758060Y-62958688D01*
X133067358Y-62267986D01*
X133437375Y-62267986D01*
X133633229Y-62770239D01*
X133665290Y-62818220D01*
X133865912Y-62922767D01*
X134761879Y-62026800D01*
X134833721Y-62026800D01*
X135729688Y-62922767D01*
X135930310Y-62818220D01*
X136146966Y-62324585D01*
X136158225Y-61785614D01*
X135962371Y-61283361D01*
X135930310Y-61235380D01*
X135729688Y-61130833D01*
X134833721Y-62026800D01*
X134761879Y-62026800D01*
X133865912Y-61130833D01*
X133665290Y-61235380D01*
X133448634Y-61729015D01*
X133437375Y-62267986D01*
X133067358Y-62267986D01*
X131482600Y-60683228D01*
X131482600Y-58616855D01*
X131625454Y-58557829D01*
X131817400Y-58366218D01*
X131817400Y-58500000D01*
M02*
