G04 #@! TF.FileFunction,Copper,L2,Bot,Signal*
%FSLAX46Y46*%
G04 Gerber Fmt 4.6, Leading zero omitted, Abs format (unit mm)*
G04 Created by KiCad (PCBNEW 4.0.2-4+6225~38~ubuntu14.04.1-stable) date dom 13 mar 2016 16:30:14 CET*
%MOMM*%
G01*
G04 APERTURE LIST*
%ADD10C,0.100000*%
%ADD11R,0.600000X1.500000*%
%ADD12C,1.500000*%
%ADD13O,1.524000X1.200000*%
%ADD14C,1.699260*%
%ADD15R,1.699260X1.699260*%
%ADD16R,2.032000X1.727200*%
%ADD17O,2.032000X1.727200*%
%ADD18O,0.899160X1.501140*%
%ADD19C,1.998980*%
%ADD20O,0.900000X1.200000*%
%ADD21R,0.900000X1.200000*%
%ADD22O,1.500000X2.000000*%
%ADD23C,3.000000*%
%ADD24C,1.200000*%
%ADD25O,1.600000X2.000000*%
%ADD26R,2.032000X2.032000*%
%ADD27O,2.032000X2.032000*%
%ADD28O,1.699260X3.500120*%
%ADD29O,2.000000X4.000000*%
%ADD30O,4.000000X2.000000*%
%ADD31R,1.300000X1.300000*%
%ADD32C,1.300000*%
%ADD33C,0.700000*%
%ADD34C,0.762000*%
%ADD35C,0.406400*%
%ADD36C,0.254000*%
%ADD37C,0.203200*%
G04 APERTURE END LIST*
D10*
D11*
X145755000Y-61700000D03*
X147025000Y-61700000D03*
X148295000Y-61700000D03*
X149565000Y-61700000D03*
X150835000Y-61700000D03*
X152105000Y-61700000D03*
X153375000Y-61700000D03*
X154645000Y-61700000D03*
X154645000Y-67100000D03*
X153375000Y-67100000D03*
X152105000Y-67100000D03*
X150835000Y-67100000D03*
X149565000Y-67100000D03*
X148295000Y-67100000D03*
X147025000Y-67100000D03*
X145755000Y-67100000D03*
D12*
X148780000Y-42380000D03*
X146240000Y-42380000D03*
X143700000Y-42380000D03*
X141160000Y-42380000D03*
X138620000Y-42380000D03*
X136080000Y-42380000D03*
X133540000Y-42380000D03*
X131000000Y-42380000D03*
X128460000Y-42380000D03*
X125920000Y-42380000D03*
X123380000Y-42380000D03*
X120840000Y-42380000D03*
X118300000Y-42380000D03*
X115760000Y-42380000D03*
X113220000Y-42380000D03*
X113220000Y-57620000D03*
X115760000Y-57620000D03*
X118300000Y-57620000D03*
X120840000Y-57620000D03*
X123380000Y-57620000D03*
X125920000Y-57620000D03*
X128460000Y-57620000D03*
X131000000Y-57620000D03*
X133540000Y-57620000D03*
X136080000Y-57620000D03*
X138620000Y-57620000D03*
X141160000Y-57620000D03*
X143700000Y-57620000D03*
X146240000Y-57620000D03*
X148780000Y-57620000D03*
D13*
X170380000Y-44380000D03*
X170380000Y-46920000D03*
X170380000Y-49460000D03*
X170380000Y-52000000D03*
X170380000Y-54540000D03*
X170380000Y-57080000D03*
X178000000Y-44380000D03*
X178000000Y-46920000D03*
X178000000Y-49460000D03*
X178000000Y-52000000D03*
X178000000Y-54540000D03*
X178000000Y-57080000D03*
D14*
X112000000Y-65000000D03*
D15*
X122160000Y-65000000D03*
D16*
X207000000Y-54460000D03*
D17*
X207000000Y-57000000D03*
X207000000Y-59540000D03*
X207000000Y-62080000D03*
D18*
X199730000Y-50000000D03*
X198460000Y-50000000D03*
X201000000Y-50000000D03*
X199730000Y-55000000D03*
X198460000Y-55000000D03*
X201000000Y-55000000D03*
X199700000Y-60000000D03*
X198430000Y-60000000D03*
X200970000Y-60000000D03*
X162730000Y-64000000D03*
X161460000Y-64000000D03*
X164000000Y-64000000D03*
X170000000Y-64000000D03*
X168730000Y-64000000D03*
X171270000Y-64000000D03*
X191730000Y-64000000D03*
X190460000Y-64000000D03*
X193000000Y-64000000D03*
X177000000Y-64000000D03*
X175730000Y-64000000D03*
X178270000Y-64000000D03*
X184000000Y-64000000D03*
X182730000Y-64000000D03*
X185270000Y-64000000D03*
D19*
X194000000Y-52000000D03*
X183840000Y-52000000D03*
X194000000Y-55000000D03*
X183840000Y-55000000D03*
X194030600Y-58013600D03*
X183870600Y-58013600D03*
X183840000Y-43000000D03*
X194000000Y-43000000D03*
X183850000Y-49000000D03*
X194010000Y-49000000D03*
X183850000Y-46000000D03*
X194010000Y-46000000D03*
X173160000Y-76000000D03*
X163000000Y-76000000D03*
X165000000Y-46000000D03*
X154840000Y-46000000D03*
X173160000Y-70000000D03*
X163000000Y-70000000D03*
X165000000Y-55000000D03*
X154840000Y-55000000D03*
X173160000Y-73000000D03*
X163000000Y-73000000D03*
X164910000Y-43000000D03*
X154750000Y-43000000D03*
X165000000Y-49000000D03*
X154840000Y-49000000D03*
X165000000Y-52000000D03*
X154840000Y-52000000D03*
X165000000Y-58000000D03*
X154840000Y-58000000D03*
X190000000Y-70000000D03*
X179840000Y-70000000D03*
X190060000Y-76100000D03*
X179900000Y-76100000D03*
X190060000Y-73000000D03*
X179900000Y-73000000D03*
X134797800Y-62026800D03*
X124637800Y-62026800D03*
D20*
X199466200Y-44000000D03*
D21*
X200736200Y-44000000D03*
D20*
X198196200Y-44000000D03*
X202006200Y-44000000D03*
D22*
X200000000Y-66000000D03*
X202500000Y-66000000D03*
X197500000Y-66000000D03*
D23*
X205000000Y-73000000D03*
X195000000Y-73000000D03*
D24*
X130400000Y-69000000D03*
X127000000Y-69000000D03*
D25*
X146184600Y-70053200D03*
X156184600Y-70053200D03*
D26*
X207000000Y-48000000D03*
D27*
X207000000Y-45460000D03*
D28*
X136460000Y-76000000D03*
X139000000Y-76000000D03*
X133920000Y-76000000D03*
D29*
X121000000Y-73000000D03*
X114850000Y-73000000D03*
D30*
X118150000Y-78000000D03*
D31*
X135500000Y-69000000D03*
D32*
X137500000Y-69000000D03*
D31*
X127500000Y-76000000D03*
D32*
X125500000Y-76000000D03*
D31*
X143000000Y-62000000D03*
D32*
X140500000Y-62000000D03*
D33*
X151900000Y-65200000D03*
X146600000Y-63300000D03*
X159251868Y-45818301D03*
X158520798Y-48789721D03*
X160108196Y-51483239D03*
X148545822Y-74539031D03*
X135500000Y-72500000D03*
X142497241Y-66902759D03*
X132300000Y-55700000D03*
D34*
X143000000Y-62000000D02*
X143000000Y-63462000D01*
X143000000Y-63462000D02*
X141717223Y-64744777D01*
X141717223Y-64744777D02*
X138305223Y-64744777D01*
X138305223Y-64744777D02*
X138300000Y-64750000D01*
D35*
X200736200Y-44000000D02*
X200736200Y-45756611D01*
X200736200Y-45756611D02*
X207000000Y-52020411D01*
X207000000Y-52020411D02*
X207000000Y-53190000D01*
X207000000Y-53190000D02*
X207000000Y-54460000D01*
X133687638Y-67939064D02*
X133687638Y-68961000D01*
X131287528Y-68961000D02*
X133687638Y-68961000D01*
X133687638Y-68961000D02*
X133687638Y-73300000D01*
X130400000Y-69000000D02*
X131248528Y-69000000D01*
X131248528Y-69000000D02*
X131287528Y-68961000D01*
D36*
X152900000Y-65200000D02*
X153375000Y-65675000D01*
X153375000Y-65675000D02*
X153375000Y-67100000D01*
X151900000Y-65200000D02*
X152900000Y-65200000D01*
D35*
X141356400Y-64750000D02*
X138300000Y-64750000D01*
D34*
X133687638Y-67939064D02*
X136876702Y-64750000D01*
X136876702Y-64750000D02*
X138300000Y-64750000D01*
X133687638Y-67939064D02*
X133687638Y-73255578D01*
X133687638Y-73255578D02*
X133732060Y-73300000D01*
X133920000Y-76000000D02*
X133920000Y-73487940D01*
X133732060Y-73300000D02*
X133687638Y-73300000D01*
X133920000Y-73487940D02*
X133732060Y-73300000D01*
X143000000Y-62000000D02*
X143000000Y-59460000D01*
X143000000Y-59460000D02*
X141160000Y-57620000D01*
X202500000Y-66000000D02*
X204400000Y-64100000D01*
X204400000Y-64100000D02*
X204400000Y-55282000D01*
X204400000Y-55282000D02*
X205222000Y-54460000D01*
X205222000Y-54460000D02*
X207000000Y-54460000D01*
X202500000Y-73600000D02*
X202500000Y-66000000D01*
X197100000Y-79000000D02*
X202500000Y-73600000D01*
X129088000Y-79000000D02*
X197100000Y-79000000D01*
X127500000Y-76000000D02*
X127500000Y-77412000D01*
X127500000Y-77412000D02*
X129088000Y-79000000D01*
D35*
X143000000Y-63106400D02*
X141356400Y-64750000D01*
X133920000Y-75099570D02*
X133920000Y-76000000D01*
X145555000Y-66700000D02*
X144848600Y-66700000D01*
X144848600Y-66700000D02*
X143000000Y-64851400D01*
X143000000Y-64851400D02*
X143000000Y-63106400D01*
X143000000Y-63106400D02*
X143000000Y-62000000D01*
D36*
X147485000Y-63300000D02*
X147094974Y-63300000D01*
X150835000Y-66650000D02*
X147485000Y-63300000D01*
X147094974Y-63300000D02*
X146600000Y-63300000D01*
X150835000Y-67100000D02*
X150835000Y-66650000D01*
X124637800Y-62026800D02*
X120840000Y-58229000D01*
X120840000Y-58229000D02*
X120840000Y-57620000D01*
X127000000Y-69000000D02*
X124637800Y-66637800D01*
X124637800Y-66637800D02*
X124637800Y-62026800D01*
X159251868Y-65276109D02*
X159251868Y-46313275D01*
X163000000Y-76000000D02*
X165689574Y-73310426D01*
X163689575Y-67608011D02*
X161583769Y-67608010D01*
X165689574Y-73310426D02*
X165689574Y-69608010D01*
X159251868Y-46313275D02*
X159251868Y-45818301D01*
X161583769Y-67608010D02*
X159251868Y-65276109D01*
X165689574Y-69608010D02*
X163689575Y-67608011D01*
X161373343Y-68116020D02*
X158520798Y-65263475D01*
X163479150Y-68116022D02*
X161373343Y-68116020D01*
X163000000Y-73000000D02*
X164700000Y-71300000D01*
X158520798Y-49284695D02*
X158520798Y-48789721D01*
X158520798Y-65263475D02*
X158520798Y-49284695D01*
X164700000Y-71300000D02*
X164700000Y-69336872D01*
X164700000Y-69336872D02*
X163479150Y-68116022D01*
X176600000Y-71400000D02*
X178000000Y-70000000D01*
X178000000Y-70000000D02*
X179840000Y-70000000D01*
X176600000Y-75700000D02*
X176600000Y-71400000D01*
X174718670Y-77581330D02*
X176600000Y-75700000D01*
X171381330Y-77581330D02*
X174718670Y-77581330D01*
X171381330Y-77581330D02*
X167600000Y-73800000D01*
X167600000Y-73800000D02*
X167600000Y-70800000D01*
X167600000Y-70800000D02*
X163900000Y-67100000D01*
X163900000Y-67100000D02*
X161794195Y-67100000D01*
X161794195Y-67100000D02*
X160108196Y-65414001D01*
X160108196Y-65414001D02*
X160108196Y-51483239D01*
X126000000Y-41600000D02*
X126000000Y-42300000D01*
X126000000Y-42300000D02*
X125920000Y-42380000D01*
X126351001Y-41248999D02*
X126000000Y-41600000D01*
X204700000Y-44400000D02*
X201548999Y-41248999D01*
X201548999Y-41248999D02*
X126351001Y-41248999D01*
X204700000Y-46970000D02*
X204700000Y-44400000D01*
X207000000Y-48000000D02*
X205730000Y-48000000D01*
X205730000Y-48000000D02*
X204700000Y-46970000D01*
X207000000Y-45460000D02*
X205984001Y-44444001D01*
X205984001Y-44444001D02*
X205984001Y-44384001D01*
X205984001Y-44384001D02*
X202200474Y-40600474D01*
X202200474Y-40600474D02*
X125159526Y-40600474D01*
X125159526Y-40600474D02*
X124129999Y-41630001D01*
X124129999Y-41630001D02*
X123380000Y-42380000D01*
X152105000Y-67100000D02*
X152105000Y-70979853D01*
X148895821Y-74189032D02*
X148545822Y-74539031D01*
X152105000Y-70979853D02*
X148895821Y-74189032D01*
X147100000Y-73100000D02*
X148295000Y-71905000D01*
X148295000Y-71905000D02*
X148295000Y-68655000D01*
X140800000Y-73100000D02*
X147100000Y-73100000D01*
X140200000Y-72500000D02*
X140800000Y-73100000D01*
X135500000Y-72500000D02*
X137000000Y-72500000D01*
X137000000Y-72500000D02*
X140200000Y-72500000D01*
X148295000Y-68655000D02*
X148295000Y-67100000D01*
X194000000Y-43000000D02*
X195413492Y-43000000D01*
X195413492Y-43000000D02*
X201000000Y-48586508D01*
X201000000Y-48586508D02*
X201000000Y-50000000D01*
X195009489Y-49999489D02*
X194010000Y-49000000D01*
X197301786Y-52291786D02*
X195009489Y-49999489D01*
X198592776Y-52291786D02*
X197301786Y-52291786D01*
X201000000Y-54699010D02*
X198592776Y-52291786D01*
X201000000Y-55000000D02*
X201000000Y-54699010D01*
X194010000Y-46000000D02*
X196252834Y-48242834D01*
X196252834Y-48242834D02*
X196252834Y-49945579D01*
X196252834Y-49945579D02*
X198091030Y-51783775D01*
X198091030Y-51783775D02*
X199259396Y-51783775D01*
X199259396Y-51783775D02*
X201973580Y-54497959D01*
X201973580Y-54497959D02*
X201973580Y-59526420D01*
X201973580Y-59526420D02*
X201500000Y-60000000D01*
X201500000Y-60000000D02*
X200970000Y-60000000D01*
X162730000Y-64000000D02*
X162730000Y-65165756D01*
X162730000Y-65165756D02*
X168379444Y-70815200D01*
X168379444Y-70815200D02*
X168379444Y-73500713D01*
X168379444Y-73500713D02*
X170863529Y-75984798D01*
X170863529Y-75984798D02*
X173144798Y-75984798D01*
X173144798Y-75984798D02*
X173160000Y-76000000D01*
X173160000Y-73000000D02*
X170000000Y-69840000D01*
X170000000Y-69840000D02*
X170000000Y-64000000D01*
X191730000Y-64000000D02*
X191730000Y-68270000D01*
X191730000Y-68270000D02*
X190000000Y-70000000D01*
X177000000Y-64000000D02*
X177000000Y-65004570D01*
X189190783Y-75740783D02*
X189700783Y-75740783D01*
X177000000Y-65004570D02*
X179245430Y-67250000D01*
X179245430Y-67250000D02*
X180700000Y-67250000D01*
X180700000Y-67250000D02*
X189190783Y-75740783D01*
X184000000Y-64000000D02*
X184000000Y-67900000D01*
X184000000Y-67900000D02*
X189100000Y-73000000D01*
X189100000Y-73000000D02*
X190060000Y-73000000D01*
X147213011Y-59791989D02*
X145755000Y-61250000D01*
X151800000Y-57144692D02*
X149152703Y-59791989D01*
X149152703Y-59791989D02*
X147213011Y-59791989D01*
X151800000Y-49400000D02*
X151800000Y-57144692D01*
X145755000Y-61250000D02*
X145755000Y-61700000D01*
X151800000Y-49400000D02*
X151800000Y-49200000D01*
X152640000Y-48200000D02*
X153140000Y-47700000D01*
X153140000Y-47700000D02*
X154840000Y-46000000D01*
X151800000Y-49400000D02*
X151800000Y-49040000D01*
X151800000Y-49040000D02*
X153140000Y-47700000D01*
X152600000Y-48200000D02*
X151800000Y-49000000D01*
X151800000Y-49000000D02*
X151800000Y-49200000D01*
X152640000Y-48200000D02*
X152600000Y-48200000D01*
X163000000Y-70000000D02*
X160093554Y-70000000D01*
X160093554Y-70000000D02*
X154190457Y-64096903D01*
X154190457Y-64096903D02*
X150241903Y-64096903D01*
X150241903Y-64096903D02*
X148295000Y-62150000D01*
X148295000Y-62150000D02*
X148295000Y-61700000D01*
X150835000Y-60265000D02*
X153459509Y-57640491D01*
X153459509Y-56380491D02*
X153840511Y-55999489D01*
X153459509Y-57640491D02*
X153459509Y-56380491D01*
X153840511Y-55999489D02*
X154840000Y-55000000D01*
X150835000Y-61700000D02*
X150835000Y-60265000D01*
X154750000Y-43000000D02*
X152900000Y-44850000D01*
X152900000Y-44850000D02*
X152900000Y-47221566D01*
X152900000Y-47221566D02*
X152429576Y-47691990D01*
X152429576Y-47691990D02*
X152389575Y-47691991D01*
X152389575Y-47691991D02*
X151291990Y-48789576D01*
X151291990Y-48789576D02*
X151291990Y-56873627D01*
X151291990Y-56873627D02*
X148965617Y-59200000D01*
X148965617Y-59200000D02*
X146518322Y-59200000D01*
X146518322Y-59200000D02*
X144873999Y-60844323D01*
X144873999Y-60844323D02*
X144873999Y-62773999D01*
X144873999Y-62773999D02*
X146825000Y-64725000D01*
X146825000Y-64725000D02*
X146825000Y-66700000D01*
X152391989Y-57271139D02*
X152391990Y-51448010D01*
X149363128Y-60300000D02*
X152391989Y-57271139D01*
X153840511Y-49999489D02*
X154840000Y-49000000D01*
X147975000Y-60300000D02*
X149363128Y-60300000D01*
X147025000Y-61250000D02*
X147975000Y-60300000D01*
X152391990Y-51448010D02*
X153840511Y-49999489D01*
X147025000Y-61700000D02*
X147025000Y-61250000D01*
X149565000Y-61250000D02*
X149565000Y-61700000D01*
X152900000Y-53940000D02*
X152900000Y-57481564D01*
X150119000Y-60262564D02*
X150119000Y-60696000D01*
X150119000Y-60696000D02*
X149565000Y-61250000D01*
X154840000Y-52000000D02*
X152900000Y-53940000D01*
X152900000Y-57481564D02*
X150119000Y-60262564D01*
X152105000Y-61700000D02*
X152105000Y-60696000D01*
X152105000Y-60696000D02*
X152100000Y-60691000D01*
X152100000Y-60691000D02*
X152100000Y-59800000D01*
X152100000Y-59800000D02*
X153900000Y-58000000D01*
X153900000Y-58000000D02*
X154840000Y-58000000D01*
X154755000Y-58000000D02*
X154840000Y-58000000D01*
X142497241Y-66902759D02*
X145266682Y-69672200D01*
X145266682Y-69672200D02*
X145549600Y-69955118D01*
X146184600Y-70053200D02*
X145647682Y-70053200D01*
X145647682Y-70053200D02*
X145266682Y-69672200D01*
X136100000Y-47100000D02*
X136100000Y-46800000D01*
X136100000Y-43460660D02*
X136100000Y-46800000D01*
X136080000Y-42380000D02*
X136080000Y-43440660D01*
X136080000Y-43440660D02*
X136100000Y-43460660D01*
X132300000Y-50900000D02*
X136100000Y-47100000D01*
X132300000Y-55700000D02*
X132300000Y-50900000D01*
X168730000Y-64000000D02*
X168730000Y-50948000D01*
X168730000Y-50948000D02*
X170218000Y-49460000D01*
X170218000Y-49460000D02*
X170380000Y-49460000D01*
X183000000Y-62250000D02*
X188006420Y-62250000D01*
X188006420Y-62250000D02*
X189756420Y-64000000D01*
X189756420Y-64000000D02*
X190460000Y-64000000D01*
X180500000Y-59750000D02*
X183000000Y-62250000D01*
X180500000Y-50944000D02*
X180500000Y-59750000D01*
X178000000Y-49460000D02*
X179016000Y-49460000D01*
X179016000Y-49460000D02*
X180500000Y-50944000D01*
X178000000Y-57080000D02*
X176984000Y-57080000D01*
X176984000Y-57080000D02*
X175730000Y-58334000D01*
X175730000Y-58334000D02*
X175730000Y-62995430D01*
X175730000Y-62995430D02*
X175730000Y-64000000D01*
X182730000Y-63699010D02*
X182730000Y-64000000D01*
X178000000Y-55394000D02*
X179991989Y-57385989D01*
X178000000Y-54540000D02*
X178000000Y-55394000D01*
X179991989Y-60960999D02*
X182730000Y-63699010D01*
X179991989Y-57385989D02*
X179991989Y-60960999D01*
X173160000Y-70000000D02*
X173160000Y-56678000D01*
X173160000Y-56678000D02*
X177838000Y-52000000D01*
X177838000Y-52000000D02*
X178000000Y-52000000D01*
X161460000Y-64000000D02*
X161460000Y-63699010D01*
X161460000Y-63699010D02*
X163100000Y-62059010D01*
X163100000Y-62059010D02*
X165240990Y-62059010D01*
X165240990Y-62059010D02*
X168200000Y-59100000D01*
X168200000Y-59100000D02*
X168200000Y-45544000D01*
X168200000Y-45544000D02*
X169364000Y-44380000D01*
X169364000Y-44380000D02*
X170380000Y-44380000D01*
D37*
G36*
X209569400Y-79569400D02*
X197637883Y-79569400D01*
X197656776Y-79556776D01*
X203056776Y-74156776D01*
X203227463Y-73901325D01*
X203272047Y-73677187D01*
X203425982Y-74049740D01*
X203947515Y-74572184D01*
X204629279Y-74855277D01*
X205367482Y-74855921D01*
X206049740Y-74574018D01*
X206572184Y-74052485D01*
X206855277Y-73370721D01*
X206855921Y-72632518D01*
X206574018Y-71950260D01*
X206052485Y-71427816D01*
X205370721Y-71144723D01*
X204632518Y-71144079D01*
X203950260Y-71425982D01*
X203427816Y-71947515D01*
X203287400Y-72285674D01*
X203287400Y-67115495D01*
X203317698Y-67095251D01*
X203568374Y-66720088D01*
X203656400Y-66277553D01*
X203656400Y-65957152D01*
X204956776Y-64656776D01*
X205127463Y-64401325D01*
X205187400Y-64100000D01*
X205187400Y-62295771D01*
X205647646Y-62295771D01*
X205711486Y-62523101D01*
X205967535Y-62924144D01*
X206357566Y-63196674D01*
X206822200Y-63299200D01*
X206974600Y-63299200D01*
X206974600Y-62105400D01*
X207025400Y-62105400D01*
X207025400Y-63299200D01*
X207177800Y-63299200D01*
X207642434Y-63196674D01*
X208032465Y-62924144D01*
X208288514Y-62523101D01*
X208352354Y-62295771D01*
X208282415Y-62105400D01*
X207025400Y-62105400D01*
X206974600Y-62105400D01*
X205717585Y-62105400D01*
X205647646Y-62295771D01*
X205187400Y-62295771D01*
X205187400Y-61864229D01*
X205647646Y-61864229D01*
X205717585Y-62054600D01*
X206974600Y-62054600D01*
X206974600Y-60860800D01*
X207025400Y-60860800D01*
X207025400Y-62054600D01*
X208282415Y-62054600D01*
X208352354Y-61864229D01*
X208288514Y-61636899D01*
X208032465Y-61235856D01*
X207642434Y-60963326D01*
X207177800Y-60860800D01*
X207025400Y-60860800D01*
X206974600Y-60860800D01*
X206822200Y-60860800D01*
X206357566Y-60963326D01*
X205967535Y-61235856D01*
X205711486Y-61636899D01*
X205647646Y-61864229D01*
X205187400Y-61864229D01*
X205187400Y-59540000D01*
X205601529Y-59540000D01*
X205694335Y-60006568D01*
X205958624Y-60402105D01*
X206354161Y-60666394D01*
X206820729Y-60759200D01*
X207179271Y-60759200D01*
X207645839Y-60666394D01*
X208041376Y-60402105D01*
X208305665Y-60006568D01*
X208398471Y-59540000D01*
X208305665Y-59073432D01*
X208041376Y-58677895D01*
X207645839Y-58413606D01*
X207179271Y-58320800D01*
X206820729Y-58320800D01*
X206354161Y-58413606D01*
X205958624Y-58677895D01*
X205694335Y-59073432D01*
X205601529Y-59540000D01*
X205187400Y-59540000D01*
X205187400Y-57000000D01*
X205601529Y-57000000D01*
X205694335Y-57466568D01*
X205958624Y-57862105D01*
X206354161Y-58126394D01*
X206820729Y-58219200D01*
X207179271Y-58219200D01*
X207645839Y-58126394D01*
X208041376Y-57862105D01*
X208305665Y-57466568D01*
X208398471Y-57000000D01*
X208305665Y-56533432D01*
X208041376Y-56137895D01*
X207645839Y-55873606D01*
X207179271Y-55780800D01*
X206820729Y-55780800D01*
X206354161Y-55873606D01*
X205958624Y-56137895D01*
X205694335Y-56533432D01*
X205601529Y-57000000D01*
X205187400Y-57000000D01*
X205187400Y-55608152D01*
X205548152Y-55247400D01*
X205569639Y-55247400D01*
X205569639Y-55323600D01*
X205597977Y-55474203D01*
X205686983Y-55612522D01*
X205822790Y-55705315D01*
X205984000Y-55737961D01*
X208016000Y-55737961D01*
X208166603Y-55709623D01*
X208304922Y-55620617D01*
X208397715Y-55484810D01*
X208430361Y-55323600D01*
X208430361Y-53596400D01*
X208402023Y-53445797D01*
X208313017Y-53307478D01*
X208177210Y-53214685D01*
X208016000Y-53182039D01*
X207609600Y-53182039D01*
X207609600Y-52020411D01*
X207563197Y-51787127D01*
X207431052Y-51589359D01*
X201345800Y-45504107D01*
X201345800Y-44980234D01*
X201475122Y-44897017D01*
X201537457Y-44805787D01*
X201697910Y-44912998D01*
X202006200Y-44974321D01*
X202314490Y-44912998D01*
X202575845Y-44738366D01*
X202750477Y-44477011D01*
X202811800Y-44168721D01*
X202811800Y-43831279D01*
X202750477Y-43522989D01*
X202575845Y-43261634D01*
X202314490Y-43087002D01*
X202006200Y-43025679D01*
X201697910Y-43087002D01*
X201536937Y-43194561D01*
X201483217Y-43111078D01*
X201347410Y-43018285D01*
X201186200Y-42985639D01*
X200286200Y-42985639D01*
X200135597Y-43013977D01*
X199997278Y-43102983D01*
X199934943Y-43194213D01*
X199774490Y-43087002D01*
X199466200Y-43025679D01*
X199157910Y-43087002D01*
X198896555Y-43261634D01*
X198831200Y-43359445D01*
X198765845Y-43261634D01*
X198504490Y-43087002D01*
X198196200Y-43025679D01*
X197887910Y-43087002D01*
X197626555Y-43261634D01*
X197451923Y-43522989D01*
X197390600Y-43831279D01*
X197390600Y-44168721D01*
X197421858Y-44325867D01*
X195754742Y-42658750D01*
X195598175Y-42554136D01*
X195413492Y-42517400D01*
X195266803Y-42517400D01*
X195149459Y-42233406D01*
X194768599Y-41851880D01*
X194478929Y-41731599D01*
X201349099Y-41731599D01*
X204217400Y-44599899D01*
X204217400Y-46970000D01*
X204254136Y-47154683D01*
X204358750Y-47311250D01*
X205388750Y-48341250D01*
X205545317Y-48445864D01*
X205621434Y-48461005D01*
X205621434Y-49016000D01*
X205646230Y-49147777D01*
X205724110Y-49268807D01*
X205842942Y-49350001D01*
X205984000Y-49378566D01*
X208016000Y-49378566D01*
X208147777Y-49353770D01*
X208268807Y-49275890D01*
X208350001Y-49157058D01*
X208378566Y-49016000D01*
X208378566Y-46984000D01*
X208353770Y-46852223D01*
X208275890Y-46731193D01*
X208157058Y-46649999D01*
X208016000Y-46621434D01*
X207710040Y-46621434D01*
X207996739Y-46429868D01*
X208294064Y-45984889D01*
X208398471Y-45460000D01*
X208294064Y-44935111D01*
X207996739Y-44490132D01*
X207551760Y-44192807D01*
X207026871Y-44088400D01*
X206973129Y-44088400D01*
X206448240Y-44192807D01*
X206430878Y-44204408D01*
X206429865Y-44199318D01*
X206325251Y-44042751D01*
X202713100Y-40430600D01*
X209569400Y-40430600D01*
X209569400Y-79569400D01*
X209569400Y-79569400D01*
G37*
X209569400Y-79569400D02*
X197637883Y-79569400D01*
X197656776Y-79556776D01*
X203056776Y-74156776D01*
X203227463Y-73901325D01*
X203272047Y-73677187D01*
X203425982Y-74049740D01*
X203947515Y-74572184D01*
X204629279Y-74855277D01*
X205367482Y-74855921D01*
X206049740Y-74574018D01*
X206572184Y-74052485D01*
X206855277Y-73370721D01*
X206855921Y-72632518D01*
X206574018Y-71950260D01*
X206052485Y-71427816D01*
X205370721Y-71144723D01*
X204632518Y-71144079D01*
X203950260Y-71425982D01*
X203427816Y-71947515D01*
X203287400Y-72285674D01*
X203287400Y-67115495D01*
X203317698Y-67095251D01*
X203568374Y-66720088D01*
X203656400Y-66277553D01*
X203656400Y-65957152D01*
X204956776Y-64656776D01*
X205127463Y-64401325D01*
X205187400Y-64100000D01*
X205187400Y-62295771D01*
X205647646Y-62295771D01*
X205711486Y-62523101D01*
X205967535Y-62924144D01*
X206357566Y-63196674D01*
X206822200Y-63299200D01*
X206974600Y-63299200D01*
X206974600Y-62105400D01*
X207025400Y-62105400D01*
X207025400Y-63299200D01*
X207177800Y-63299200D01*
X207642434Y-63196674D01*
X208032465Y-62924144D01*
X208288514Y-62523101D01*
X208352354Y-62295771D01*
X208282415Y-62105400D01*
X207025400Y-62105400D01*
X206974600Y-62105400D01*
X205717585Y-62105400D01*
X205647646Y-62295771D01*
X205187400Y-62295771D01*
X205187400Y-61864229D01*
X205647646Y-61864229D01*
X205717585Y-62054600D01*
X206974600Y-62054600D01*
X206974600Y-60860800D01*
X207025400Y-60860800D01*
X207025400Y-62054600D01*
X208282415Y-62054600D01*
X208352354Y-61864229D01*
X208288514Y-61636899D01*
X208032465Y-61235856D01*
X207642434Y-60963326D01*
X207177800Y-60860800D01*
X207025400Y-60860800D01*
X206974600Y-60860800D01*
X206822200Y-60860800D01*
X206357566Y-60963326D01*
X205967535Y-61235856D01*
X205711486Y-61636899D01*
X205647646Y-61864229D01*
X205187400Y-61864229D01*
X205187400Y-59540000D01*
X205601529Y-59540000D01*
X205694335Y-60006568D01*
X205958624Y-60402105D01*
X206354161Y-60666394D01*
X206820729Y-60759200D01*
X207179271Y-60759200D01*
X207645839Y-60666394D01*
X208041376Y-60402105D01*
X208305665Y-60006568D01*
X208398471Y-59540000D01*
X208305665Y-59073432D01*
X208041376Y-58677895D01*
X207645839Y-58413606D01*
X207179271Y-58320800D01*
X206820729Y-58320800D01*
X206354161Y-58413606D01*
X205958624Y-58677895D01*
X205694335Y-59073432D01*
X205601529Y-59540000D01*
X205187400Y-59540000D01*
X205187400Y-57000000D01*
X205601529Y-57000000D01*
X205694335Y-57466568D01*
X205958624Y-57862105D01*
X206354161Y-58126394D01*
X206820729Y-58219200D01*
X207179271Y-58219200D01*
X207645839Y-58126394D01*
X208041376Y-57862105D01*
X208305665Y-57466568D01*
X208398471Y-57000000D01*
X208305665Y-56533432D01*
X208041376Y-56137895D01*
X207645839Y-55873606D01*
X207179271Y-55780800D01*
X206820729Y-55780800D01*
X206354161Y-55873606D01*
X205958624Y-56137895D01*
X205694335Y-56533432D01*
X205601529Y-57000000D01*
X205187400Y-57000000D01*
X205187400Y-55608152D01*
X205548152Y-55247400D01*
X205569639Y-55247400D01*
X205569639Y-55323600D01*
X205597977Y-55474203D01*
X205686983Y-55612522D01*
X205822790Y-55705315D01*
X205984000Y-55737961D01*
X208016000Y-55737961D01*
X208166603Y-55709623D01*
X208304922Y-55620617D01*
X208397715Y-55484810D01*
X208430361Y-55323600D01*
X208430361Y-53596400D01*
X208402023Y-53445797D01*
X208313017Y-53307478D01*
X208177210Y-53214685D01*
X208016000Y-53182039D01*
X207609600Y-53182039D01*
X207609600Y-52020411D01*
X207563197Y-51787127D01*
X207431052Y-51589359D01*
X201345800Y-45504107D01*
X201345800Y-44980234D01*
X201475122Y-44897017D01*
X201537457Y-44805787D01*
X201697910Y-44912998D01*
X202006200Y-44974321D01*
X202314490Y-44912998D01*
X202575845Y-44738366D01*
X202750477Y-44477011D01*
X202811800Y-44168721D01*
X202811800Y-43831279D01*
X202750477Y-43522989D01*
X202575845Y-43261634D01*
X202314490Y-43087002D01*
X202006200Y-43025679D01*
X201697910Y-43087002D01*
X201536937Y-43194561D01*
X201483217Y-43111078D01*
X201347410Y-43018285D01*
X201186200Y-42985639D01*
X200286200Y-42985639D01*
X200135597Y-43013977D01*
X199997278Y-43102983D01*
X199934943Y-43194213D01*
X199774490Y-43087002D01*
X199466200Y-43025679D01*
X199157910Y-43087002D01*
X198896555Y-43261634D01*
X198831200Y-43359445D01*
X198765845Y-43261634D01*
X198504490Y-43087002D01*
X198196200Y-43025679D01*
X197887910Y-43087002D01*
X197626555Y-43261634D01*
X197451923Y-43522989D01*
X197390600Y-43831279D01*
X197390600Y-44168721D01*
X197421858Y-44325867D01*
X195754742Y-42658750D01*
X195598175Y-42554136D01*
X195413492Y-42517400D01*
X195266803Y-42517400D01*
X195149459Y-42233406D01*
X194768599Y-41851880D01*
X194478929Y-41731599D01*
X201349099Y-41731599D01*
X204217400Y-44599899D01*
X204217400Y-46970000D01*
X204254136Y-47154683D01*
X204358750Y-47311250D01*
X205388750Y-48341250D01*
X205545317Y-48445864D01*
X205621434Y-48461005D01*
X205621434Y-49016000D01*
X205646230Y-49147777D01*
X205724110Y-49268807D01*
X205842942Y-49350001D01*
X205984000Y-49378566D01*
X208016000Y-49378566D01*
X208147777Y-49353770D01*
X208268807Y-49275890D01*
X208350001Y-49157058D01*
X208378566Y-49016000D01*
X208378566Y-46984000D01*
X208353770Y-46852223D01*
X208275890Y-46731193D01*
X208157058Y-46649999D01*
X208016000Y-46621434D01*
X207710040Y-46621434D01*
X207996739Y-46429868D01*
X208294064Y-45984889D01*
X208398471Y-45460000D01*
X208294064Y-44935111D01*
X207996739Y-44490132D01*
X207551760Y-44192807D01*
X207026871Y-44088400D01*
X206973129Y-44088400D01*
X206448240Y-44192807D01*
X206430878Y-44204408D01*
X206429865Y-44199318D01*
X206325251Y-44042751D01*
X202713100Y-40430600D01*
X209569400Y-40430600D01*
X209569400Y-79569400D01*
G36*
X123743633Y-41333867D02*
X123600882Y-41274592D01*
X123161047Y-41274208D01*
X122754546Y-41442171D01*
X122443264Y-41752910D01*
X122274592Y-42159118D01*
X122274208Y-42598953D01*
X122442171Y-43005454D01*
X122752910Y-43316736D01*
X123159118Y-43485408D01*
X123598953Y-43485792D01*
X124005454Y-43317829D01*
X124316736Y-43007090D01*
X124485408Y-42600882D01*
X124485792Y-42161047D01*
X124426047Y-42016453D01*
X125359426Y-41083074D01*
X125834427Y-41083074D01*
X125658750Y-41258750D01*
X125628351Y-41304245D01*
X125294546Y-41442171D01*
X124983264Y-41752910D01*
X124814592Y-42159118D01*
X124814208Y-42598953D01*
X124982171Y-43005454D01*
X125292910Y-43316736D01*
X125699118Y-43485408D01*
X126138953Y-43485792D01*
X126545454Y-43317829D01*
X126856736Y-43007090D01*
X127025408Y-42600882D01*
X127025792Y-42161047D01*
X126857829Y-41754546D01*
X126834922Y-41731599D01*
X127544612Y-41731599D01*
X127523264Y-41752910D01*
X127354592Y-42159118D01*
X127354208Y-42598953D01*
X127522171Y-43005454D01*
X127832910Y-43316736D01*
X128239118Y-43485408D01*
X128678953Y-43485792D01*
X129085454Y-43317829D01*
X129396736Y-43007090D01*
X129565408Y-42600882D01*
X129565792Y-42161047D01*
X129397829Y-41754546D01*
X129374922Y-41731599D01*
X130084612Y-41731599D01*
X130063264Y-41752910D01*
X129894592Y-42159118D01*
X129894208Y-42598953D01*
X130062171Y-43005454D01*
X130372910Y-43316736D01*
X130779118Y-43485408D01*
X131218953Y-43485792D01*
X131625454Y-43317829D01*
X131936736Y-43007090D01*
X132105408Y-42600882D01*
X132105792Y-42161047D01*
X131937829Y-41754546D01*
X131914922Y-41731599D01*
X132624612Y-41731599D01*
X132603264Y-41752910D01*
X132434592Y-42159118D01*
X132434208Y-42598953D01*
X132602171Y-43005454D01*
X132912910Y-43316736D01*
X133319118Y-43485408D01*
X133758953Y-43485792D01*
X134165454Y-43317829D01*
X134476736Y-43007090D01*
X134645408Y-42600882D01*
X134645792Y-42161047D01*
X134477829Y-41754546D01*
X134454922Y-41731599D01*
X135164612Y-41731599D01*
X135143264Y-41752910D01*
X134974592Y-42159118D01*
X134974208Y-42598953D01*
X135142171Y-43005454D01*
X135452910Y-43316736D01*
X135597400Y-43376733D01*
X135597400Y-43440660D01*
X135617400Y-43541206D01*
X135617400Y-46900101D01*
X131958750Y-50558750D01*
X131854136Y-50715317D01*
X131817400Y-50900000D01*
X131817400Y-55184759D01*
X131702170Y-55299788D01*
X131594522Y-55559032D01*
X131594277Y-55839737D01*
X131701472Y-56099168D01*
X131899788Y-56297830D01*
X132159032Y-56405478D01*
X132439737Y-56405723D01*
X132699168Y-56298528D01*
X132897830Y-56100212D01*
X133005478Y-55840968D01*
X133005723Y-55560263D01*
X132898528Y-55300832D01*
X132782600Y-55184702D01*
X132782600Y-51099900D01*
X136441247Y-47441252D01*
X136441250Y-47441250D01*
X136545864Y-47284683D01*
X136551940Y-47254136D01*
X136582601Y-47100000D01*
X136582600Y-47099995D01*
X136582600Y-43460660D01*
X136565677Y-43375584D01*
X136705454Y-43317829D01*
X137016736Y-43007090D01*
X137185408Y-42600882D01*
X137185792Y-42161047D01*
X137017829Y-41754546D01*
X136994922Y-41731599D01*
X137704612Y-41731599D01*
X137683264Y-41752910D01*
X137514592Y-42159118D01*
X137514208Y-42598953D01*
X137682171Y-43005454D01*
X137992910Y-43316736D01*
X138399118Y-43485408D01*
X138838953Y-43485792D01*
X139245454Y-43317829D01*
X139431635Y-43131972D01*
X140443949Y-43131972D01*
X140518130Y-43306671D01*
X140921612Y-43481766D01*
X141361385Y-43489127D01*
X141770500Y-43327633D01*
X141801870Y-43306671D01*
X141876051Y-43131972D01*
X141160000Y-42415921D01*
X140443949Y-43131972D01*
X139431635Y-43131972D01*
X139556736Y-43007090D01*
X139725408Y-42600882D01*
X139725792Y-42161047D01*
X139557829Y-41754546D01*
X139534922Y-41731599D01*
X140248710Y-41731599D01*
X140233329Y-41738130D01*
X140058234Y-42141612D01*
X140050873Y-42581385D01*
X140212367Y-42990500D01*
X140233329Y-43021870D01*
X140408028Y-43096051D01*
X141124079Y-42380000D01*
X141109937Y-42365858D01*
X141145858Y-42329937D01*
X141160000Y-42344079D01*
X141174143Y-42329937D01*
X141210064Y-42365858D01*
X141195921Y-42380000D01*
X141911972Y-43096051D01*
X142086671Y-43021870D01*
X142261766Y-42618388D01*
X142269127Y-42178615D01*
X142107633Y-41769500D01*
X142086671Y-41738130D01*
X142071290Y-41731599D01*
X142784612Y-41731599D01*
X142763264Y-41752910D01*
X142594592Y-42159118D01*
X142594208Y-42598953D01*
X142762171Y-43005454D01*
X143072910Y-43316736D01*
X143479118Y-43485408D01*
X143918953Y-43485792D01*
X144325454Y-43317829D01*
X144636736Y-43007090D01*
X144805408Y-42600882D01*
X144805792Y-42161047D01*
X144637829Y-41754546D01*
X144614922Y-41731599D01*
X145324612Y-41731599D01*
X145303264Y-41752910D01*
X145134592Y-42159118D01*
X145134208Y-42598953D01*
X145302171Y-43005454D01*
X145612910Y-43316736D01*
X146019118Y-43485408D01*
X146458953Y-43485792D01*
X146865454Y-43317829D01*
X147176736Y-43007090D01*
X147345408Y-42600882D01*
X147345792Y-42161047D01*
X147177829Y-41754546D01*
X147154922Y-41731599D01*
X147864612Y-41731599D01*
X147843264Y-41752910D01*
X147674592Y-42159118D01*
X147674208Y-42598953D01*
X147842171Y-43005454D01*
X148152910Y-43316736D01*
X148559118Y-43485408D01*
X148998953Y-43485792D01*
X149405454Y-43317829D01*
X149716736Y-43007090D01*
X149885408Y-42600882D01*
X149885792Y-42161047D01*
X149717829Y-41754546D01*
X149694922Y-41731599D01*
X154271267Y-41731599D01*
X153983406Y-41850541D01*
X153601880Y-42231401D01*
X153395146Y-42729273D01*
X153394675Y-43268362D01*
X153512933Y-43554567D01*
X152558750Y-44508750D01*
X152454136Y-44665317D01*
X152417400Y-44850000D01*
X152417400Y-47021666D01*
X152168873Y-47270193D01*
X152126066Y-47298797D01*
X152048326Y-47350741D01*
X152048319Y-47350748D01*
X152048316Y-47350750D01*
X152048314Y-47350753D01*
X150950740Y-48448326D01*
X150846126Y-48604893D01*
X150809390Y-48789576D01*
X150809390Y-56673727D01*
X149885620Y-57597497D01*
X149885792Y-57401047D01*
X149717829Y-56994546D01*
X149407090Y-56683264D01*
X149000882Y-56514592D01*
X148561047Y-56514208D01*
X148154546Y-56682171D01*
X147843264Y-56992910D01*
X147674592Y-57399118D01*
X147674208Y-57838953D01*
X147842171Y-58245454D01*
X148152910Y-58556736D01*
X148539833Y-58717400D01*
X146518322Y-58717400D01*
X146333639Y-58754136D01*
X146177072Y-58858750D01*
X144532749Y-60503073D01*
X144428135Y-60659640D01*
X144391399Y-60844323D01*
X144391399Y-62773999D01*
X144428135Y-62958682D01*
X144532749Y-63115249D01*
X146342400Y-64924900D01*
X146342400Y-66054507D01*
X146216210Y-65968285D01*
X146055000Y-65935639D01*
X145455000Y-65935639D01*
X145304397Y-65963977D01*
X145166078Y-66052983D01*
X145140512Y-66090400D01*
X145101104Y-66090400D01*
X143609600Y-64598896D01*
X143609600Y-63939719D01*
X143727463Y-63763325D01*
X143787400Y-63462000D01*
X143787400Y-63038507D01*
X143800603Y-63036023D01*
X143938922Y-62947017D01*
X144031715Y-62811210D01*
X144064361Y-62650000D01*
X144064361Y-61350000D01*
X144036023Y-61199397D01*
X143947017Y-61061078D01*
X143811210Y-60968285D01*
X143787400Y-60963463D01*
X143787400Y-59460000D01*
X143727463Y-59158675D01*
X143556776Y-58903224D01*
X143307839Y-58654287D01*
X143479118Y-58725408D01*
X143918953Y-58725792D01*
X144325454Y-58557829D01*
X144511635Y-58371972D01*
X145523949Y-58371972D01*
X145598130Y-58546671D01*
X146001612Y-58721766D01*
X146441385Y-58729127D01*
X146850500Y-58567633D01*
X146881870Y-58546671D01*
X146956051Y-58371972D01*
X146240000Y-57655921D01*
X145523949Y-58371972D01*
X144511635Y-58371972D01*
X144636736Y-58247090D01*
X144805408Y-57840882D01*
X144805425Y-57821385D01*
X145130873Y-57821385D01*
X145292367Y-58230500D01*
X145313329Y-58261870D01*
X145488028Y-58336051D01*
X146204079Y-57620000D01*
X146275921Y-57620000D01*
X146991972Y-58336051D01*
X147166671Y-58261870D01*
X147341766Y-57858388D01*
X147349127Y-57418615D01*
X147187633Y-57009500D01*
X147166671Y-56978130D01*
X146991972Y-56903949D01*
X146275921Y-57620000D01*
X146204079Y-57620000D01*
X145488028Y-56903949D01*
X145313329Y-56978130D01*
X145138234Y-57381612D01*
X145130873Y-57821385D01*
X144805425Y-57821385D01*
X144805792Y-57401047D01*
X144637829Y-56994546D01*
X144511532Y-56868028D01*
X145523949Y-56868028D01*
X146240000Y-57584079D01*
X146956051Y-56868028D01*
X146881870Y-56693329D01*
X146478388Y-56518234D01*
X146038615Y-56510873D01*
X145629500Y-56672367D01*
X145598130Y-56693329D01*
X145523949Y-56868028D01*
X144511532Y-56868028D01*
X144327090Y-56683264D01*
X143920882Y-56514592D01*
X143481047Y-56514208D01*
X143074546Y-56682171D01*
X142763264Y-56992910D01*
X142594592Y-57399118D01*
X142594208Y-57838953D01*
X142665821Y-58012269D01*
X142316363Y-57662811D01*
X142316600Y-57390987D01*
X142140920Y-56965808D01*
X141815903Y-56640224D01*
X141391031Y-56463801D01*
X140930987Y-56463400D01*
X140505808Y-56639080D01*
X140180224Y-56964097D01*
X140003801Y-57388969D01*
X140003400Y-57849013D01*
X140179080Y-58274192D01*
X140504097Y-58599776D01*
X140928969Y-58776199D01*
X141202886Y-58776438D01*
X142212600Y-59786152D01*
X142212600Y-60961493D01*
X142199397Y-60963977D01*
X142061078Y-61052983D01*
X141968285Y-61188790D01*
X141935639Y-61350000D01*
X141935639Y-62650000D01*
X141963977Y-62800603D01*
X142052983Y-62938922D01*
X142188790Y-63031715D01*
X142208574Y-63035721D01*
X141286919Y-63957377D01*
X138305223Y-63957377D01*
X138278965Y-63962600D01*
X136876702Y-63962600D01*
X136575377Y-64022537D01*
X136319926Y-64193224D01*
X133130862Y-67382288D01*
X132960175Y-67637739D01*
X132900238Y-67939064D01*
X132900238Y-68351400D01*
X131287528Y-68351400D01*
X131193271Y-68370149D01*
X130970824Y-68147313D01*
X130601064Y-67993775D01*
X130200693Y-67993425D01*
X129830665Y-68146318D01*
X129547313Y-68429176D01*
X129393775Y-68798936D01*
X129393425Y-69199307D01*
X129546318Y-69569335D01*
X129829176Y-69852687D01*
X130198936Y-70006225D01*
X130599307Y-70006575D01*
X130969335Y-69853682D01*
X131213843Y-69609600D01*
X131248528Y-69609600D01*
X131444595Y-69570600D01*
X132900238Y-69570600D01*
X132900238Y-73255578D01*
X132904656Y-73277789D01*
X132900238Y-73300000D01*
X132960175Y-73601325D01*
X133130862Y-73856776D01*
X133132600Y-73857937D01*
X133132600Y-74101858D01*
X133031853Y-74169175D01*
X132759580Y-74576660D01*
X132663970Y-75057322D01*
X132663970Y-76942678D01*
X132759580Y-77423340D01*
X133031853Y-77830825D01*
X133439338Y-78103098D01*
X133920000Y-78198708D01*
X134400662Y-78103098D01*
X134808147Y-77830825D01*
X135080420Y-77423340D01*
X135176030Y-76942678D01*
X135176030Y-76025400D01*
X135254770Y-76025400D01*
X135254770Y-76925830D01*
X135356233Y-77385118D01*
X135625734Y-77770617D01*
X136022245Y-78023638D01*
X136246415Y-78086583D01*
X136434600Y-78016471D01*
X136434600Y-76025400D01*
X136485400Y-76025400D01*
X136485400Y-78016471D01*
X136673585Y-78086583D01*
X136897755Y-78023638D01*
X137294266Y-77770617D01*
X137563767Y-77385118D01*
X137665230Y-76925830D01*
X137665230Y-76025400D01*
X136485400Y-76025400D01*
X136434600Y-76025400D01*
X135254770Y-76025400D01*
X135176030Y-76025400D01*
X135176030Y-75074170D01*
X135254770Y-75074170D01*
X135254770Y-75974600D01*
X136434600Y-75974600D01*
X136434600Y-73983529D01*
X136485400Y-73983529D01*
X136485400Y-75974600D01*
X137665230Y-75974600D01*
X137665230Y-75074170D01*
X137661509Y-75057322D01*
X137743970Y-75057322D01*
X137743970Y-76942678D01*
X137839580Y-77423340D01*
X138111853Y-77830825D01*
X138519338Y-78103098D01*
X139000000Y-78198708D01*
X139480662Y-78103098D01*
X139888147Y-77830825D01*
X140160420Y-77423340D01*
X140256030Y-76942678D01*
X140256030Y-75057322D01*
X140160420Y-74576660D01*
X139888147Y-74169175D01*
X139480662Y-73896902D01*
X139000000Y-73801292D01*
X138519338Y-73896902D01*
X138111853Y-74169175D01*
X137839580Y-74576660D01*
X137743970Y-75057322D01*
X137661509Y-75057322D01*
X137563767Y-74614882D01*
X137294266Y-74229383D01*
X136897755Y-73976362D01*
X136673585Y-73913417D01*
X136485400Y-73983529D01*
X136434600Y-73983529D01*
X136246415Y-73913417D01*
X136022245Y-73976362D01*
X135625734Y-74229383D01*
X135356233Y-74614882D01*
X135254770Y-75074170D01*
X135176030Y-75074170D01*
X135176030Y-75057322D01*
X135080420Y-74576660D01*
X134808147Y-74169175D01*
X134707400Y-74101858D01*
X134707400Y-73487940D01*
X134647463Y-73186615D01*
X134476776Y-72931164D01*
X134475038Y-72929426D01*
X134475038Y-69817792D01*
X134552983Y-69938922D01*
X134688790Y-70031715D01*
X134850000Y-70064361D01*
X136150000Y-70064361D01*
X136300603Y-70036023D01*
X136438922Y-69947017D01*
X136531715Y-69811210D01*
X136558315Y-69679852D01*
X136856069Y-69679852D01*
X136918077Y-69844160D01*
X137285419Y-70002595D01*
X137685430Y-70008393D01*
X138057209Y-69860673D01*
X138081923Y-69844160D01*
X138143931Y-69679852D01*
X137500000Y-69035921D01*
X136856069Y-69679852D01*
X136558315Y-69679852D01*
X136564361Y-69650000D01*
X136564361Y-69368536D01*
X136639327Y-69557209D01*
X136655840Y-69581923D01*
X136820148Y-69643931D01*
X137464079Y-69000000D01*
X137535921Y-69000000D01*
X138179852Y-69643931D01*
X138344160Y-69581923D01*
X138502595Y-69214581D01*
X138508393Y-68814570D01*
X138360673Y-68442791D01*
X138344160Y-68418077D01*
X138179852Y-68356069D01*
X137535921Y-69000000D01*
X137464079Y-69000000D01*
X136820148Y-68356069D01*
X136655840Y-68418077D01*
X136564361Y-68630177D01*
X136564361Y-68350000D01*
X136558744Y-68320148D01*
X136856069Y-68320148D01*
X137500000Y-68964079D01*
X138143931Y-68320148D01*
X138081923Y-68155840D01*
X137714581Y-67997405D01*
X137314570Y-67991607D01*
X136942791Y-68139327D01*
X136918077Y-68155840D01*
X136856069Y-68320148D01*
X136558744Y-68320148D01*
X136536023Y-68199397D01*
X136447017Y-68061078D01*
X136311210Y-67968285D01*
X136150000Y-67935639D01*
X134850000Y-67935639D01*
X134794096Y-67946158D01*
X135697758Y-67042496D01*
X141791518Y-67042496D01*
X141898713Y-67301927D01*
X142097029Y-67500589D01*
X142356273Y-67608237D01*
X142520362Y-67608380D01*
X145029000Y-70117018D01*
X145029000Y-70279758D01*
X145116965Y-70721987D01*
X145367467Y-71096891D01*
X145742371Y-71347393D01*
X146184600Y-71435358D01*
X146626829Y-71347393D01*
X147001733Y-71096891D01*
X147252235Y-70721987D01*
X147340200Y-70279758D01*
X147340200Y-69826642D01*
X147252235Y-69384413D01*
X147001733Y-69009509D01*
X146626829Y-68759007D01*
X146184600Y-68671042D01*
X145742371Y-68759007D01*
X145367467Y-69009509D01*
X145335033Y-69058051D01*
X143202822Y-66925840D01*
X143202964Y-66763022D01*
X143095769Y-66503591D01*
X142897453Y-66304929D01*
X142638209Y-66197281D01*
X142357504Y-66197036D01*
X142098073Y-66304231D01*
X141899411Y-66502547D01*
X141791763Y-66761791D01*
X141791518Y-67042496D01*
X135697758Y-67042496D01*
X137202854Y-65537400D01*
X138300000Y-65537400D01*
X138326258Y-65532177D01*
X141717223Y-65532177D01*
X142018548Y-65472240D01*
X142273999Y-65301553D01*
X142458458Y-65117094D01*
X142568948Y-65282452D01*
X144417548Y-67131052D01*
X144615316Y-67263197D01*
X144848600Y-67309600D01*
X145040639Y-67309600D01*
X145040639Y-67850000D01*
X145068977Y-68000603D01*
X145157983Y-68138922D01*
X145293790Y-68231715D01*
X145455000Y-68264361D01*
X146055000Y-68264361D01*
X146205603Y-68236023D01*
X146343922Y-68147017D01*
X146420984Y-68034233D01*
X146465110Y-68102807D01*
X146583942Y-68184001D01*
X146725000Y-68212566D01*
X147325000Y-68212566D01*
X147456777Y-68187770D01*
X147577807Y-68109890D01*
X147659001Y-67991058D01*
X147660007Y-67986092D01*
X147735110Y-68102807D01*
X147812400Y-68155617D01*
X147812400Y-71705100D01*
X146900100Y-72617400D01*
X140999900Y-72617400D01*
X140541250Y-72158750D01*
X140384683Y-72054136D01*
X140200000Y-72017400D01*
X136015241Y-72017400D01*
X135900212Y-71902170D01*
X135640968Y-71794522D01*
X135360263Y-71794277D01*
X135100832Y-71901472D01*
X134902170Y-72099788D01*
X134794522Y-72359032D01*
X134794277Y-72639737D01*
X134901472Y-72899168D01*
X135099788Y-73097830D01*
X135359032Y-73205478D01*
X135639737Y-73205723D01*
X135899168Y-73098528D01*
X136015298Y-72982600D01*
X140000100Y-72982600D01*
X140458750Y-73441250D01*
X140615317Y-73545864D01*
X140800000Y-73582600D01*
X147100000Y-73582600D01*
X147284683Y-73545864D01*
X147441250Y-73441250D01*
X148636250Y-72246250D01*
X148740864Y-72089683D01*
X148777600Y-71905000D01*
X148777600Y-68155067D01*
X148847807Y-68109890D01*
X148929001Y-67991058D01*
X148932130Y-67975607D01*
X148963537Y-68051431D01*
X149063569Y-68151463D01*
X149194267Y-68205600D01*
X149450700Y-68205600D01*
X149539600Y-68116700D01*
X149539600Y-67125400D01*
X149519600Y-67125400D01*
X149519600Y-67074600D01*
X149539600Y-67074600D01*
X149539600Y-67054600D01*
X149590400Y-67054600D01*
X149590400Y-67074600D01*
X149610400Y-67074600D01*
X149610400Y-67125400D01*
X149590400Y-67125400D01*
X149590400Y-68116700D01*
X149679300Y-68205600D01*
X149935733Y-68205600D01*
X150066431Y-68151463D01*
X150166463Y-68051431D01*
X150196632Y-67978597D01*
X150197230Y-67981777D01*
X150275110Y-68102807D01*
X150393942Y-68184001D01*
X150535000Y-68212566D01*
X151135000Y-68212566D01*
X151266777Y-68187770D01*
X151387807Y-68109890D01*
X151469001Y-67991058D01*
X151470007Y-67986092D01*
X151545110Y-68102807D01*
X151622400Y-68155617D01*
X151622400Y-70779954D01*
X148568903Y-73833450D01*
X148406085Y-73833308D01*
X148146654Y-73940503D01*
X147947992Y-74138819D01*
X147840344Y-74398063D01*
X147840099Y-74678768D01*
X147947294Y-74938199D01*
X148145610Y-75136861D01*
X148404854Y-75244509D01*
X148685559Y-75244754D01*
X148944990Y-75137559D01*
X149143652Y-74939243D01*
X149251300Y-74679999D01*
X149251443Y-74515910D01*
X152446247Y-71321105D01*
X152446250Y-71321103D01*
X152550864Y-71164536D01*
X152587600Y-70979853D01*
X152587600Y-70078600D01*
X155029000Y-70078600D01*
X155029000Y-70278600D01*
X155126685Y-70718896D01*
X155385428Y-71088294D01*
X155765838Y-71330556D01*
X155978781Y-71390324D01*
X156159200Y-71319598D01*
X156159200Y-70078600D01*
X156210000Y-70078600D01*
X156210000Y-71319598D01*
X156390419Y-71390324D01*
X156603362Y-71330556D01*
X156983772Y-71088294D01*
X157242515Y-70718896D01*
X157340200Y-70278600D01*
X157340200Y-70078600D01*
X156210000Y-70078600D01*
X156159200Y-70078600D01*
X155029000Y-70078600D01*
X152587600Y-70078600D01*
X152587600Y-69827800D01*
X155029000Y-69827800D01*
X155029000Y-70027800D01*
X156159200Y-70027800D01*
X156159200Y-68786802D01*
X156210000Y-68786802D01*
X156210000Y-70027800D01*
X157340200Y-70027800D01*
X157340200Y-69827800D01*
X157242515Y-69387504D01*
X156983772Y-69018106D01*
X156603362Y-68775844D01*
X156390419Y-68716076D01*
X156210000Y-68786802D01*
X156159200Y-68786802D01*
X155978781Y-68716076D01*
X155765838Y-68775844D01*
X155385428Y-69018106D01*
X155126685Y-69387504D01*
X155029000Y-69827800D01*
X152587600Y-69827800D01*
X152587600Y-68155067D01*
X152657807Y-68109890D01*
X152710076Y-68033392D01*
X152777983Y-68138922D01*
X152913790Y-68231715D01*
X153075000Y-68264361D01*
X153675000Y-68264361D01*
X153825603Y-68236023D01*
X153963922Y-68147017D01*
X154040984Y-68034233D01*
X154085110Y-68102807D01*
X154203942Y-68184001D01*
X154345000Y-68212566D01*
X154945000Y-68212566D01*
X155076777Y-68187770D01*
X155197807Y-68109890D01*
X155279001Y-67991058D01*
X155307566Y-67850000D01*
X155307566Y-66350000D01*
X155282770Y-66218223D01*
X155204890Y-66097193D01*
X155086058Y-66015999D01*
X154945000Y-65987434D01*
X154345000Y-65987434D01*
X154213223Y-66012230D01*
X154092193Y-66090110D01*
X154039924Y-66166608D01*
X153972017Y-66061078D01*
X153908400Y-66017610D01*
X153908400Y-65675000D01*
X153893220Y-65598684D01*
X153867797Y-65470876D01*
X153821484Y-65401563D01*
X153752171Y-65297829D01*
X153752168Y-65297827D01*
X153277171Y-64822829D01*
X153104123Y-64707203D01*
X152900000Y-64666600D01*
X152436310Y-64666600D01*
X152349365Y-64579503D01*
X153990557Y-64579503D01*
X159752304Y-70341250D01*
X159908871Y-70445864D01*
X160093554Y-70482600D01*
X161733197Y-70482600D01*
X161850541Y-70766594D01*
X162231401Y-71148120D01*
X162729273Y-71354854D01*
X163268362Y-71355325D01*
X163766594Y-71149459D01*
X164148120Y-70768599D01*
X164217400Y-70601754D01*
X164217400Y-71100100D01*
X163554515Y-71762985D01*
X163270727Y-71645146D01*
X162731638Y-71644675D01*
X162233406Y-71850541D01*
X161851880Y-72231401D01*
X161645146Y-72729273D01*
X161644675Y-73268362D01*
X161850541Y-73766594D01*
X162231401Y-74148120D01*
X162729273Y-74354854D01*
X163268362Y-74355325D01*
X163766594Y-74149459D01*
X164148120Y-73768599D01*
X164354854Y-73270727D01*
X164355325Y-72731638D01*
X164237067Y-72445433D01*
X165041250Y-71641250D01*
X165145864Y-71484683D01*
X165182600Y-71300000D01*
X165182600Y-69783536D01*
X165206974Y-69807910D01*
X165206974Y-73110526D01*
X163554515Y-74762985D01*
X163270727Y-74645146D01*
X162731638Y-74644675D01*
X162233406Y-74850541D01*
X161851880Y-75231401D01*
X161645146Y-75729273D01*
X161644675Y-76268362D01*
X161850541Y-76766594D01*
X162231401Y-77148120D01*
X162729273Y-77354854D01*
X163268362Y-77355325D01*
X163766594Y-77149459D01*
X164148120Y-76768599D01*
X164354854Y-76270727D01*
X164355325Y-75731638D01*
X164237067Y-75445433D01*
X166030824Y-73651676D01*
X166135438Y-73495109D01*
X166172174Y-73310426D01*
X166172174Y-70054674D01*
X167117400Y-70999900D01*
X167117400Y-73800000D01*
X167154136Y-73984683D01*
X167258750Y-74141250D01*
X171040080Y-77922580D01*
X171196647Y-78027194D01*
X171381330Y-78063930D01*
X174718670Y-78063930D01*
X174903353Y-78027194D01*
X175059920Y-77922580D01*
X176614137Y-76368362D01*
X178544675Y-76368362D01*
X178750541Y-76866594D01*
X179131401Y-77248120D01*
X179629273Y-77454854D01*
X180168362Y-77455325D01*
X180666594Y-77249459D01*
X181048120Y-76868599D01*
X181254854Y-76370727D01*
X181255325Y-75831638D01*
X181049459Y-75333406D01*
X180668599Y-74951880D01*
X180170727Y-74745146D01*
X179631638Y-74744675D01*
X179133406Y-74950541D01*
X178751880Y-75331401D01*
X178545146Y-75829273D01*
X178544675Y-76368362D01*
X176614137Y-76368362D01*
X176941247Y-76041252D01*
X176941250Y-76041250D01*
X177045864Y-75884683D01*
X177082600Y-75700000D01*
X177082600Y-73268362D01*
X178544675Y-73268362D01*
X178750541Y-73766594D01*
X179131401Y-74148120D01*
X179629273Y-74354854D01*
X180168362Y-74355325D01*
X180666594Y-74149459D01*
X181048120Y-73768599D01*
X181254854Y-73270727D01*
X181255325Y-72731638D01*
X181049459Y-72233406D01*
X180668599Y-71851880D01*
X180170727Y-71645146D01*
X179631638Y-71644675D01*
X179133406Y-71850541D01*
X178751880Y-72231401D01*
X178545146Y-72729273D01*
X178544675Y-73268362D01*
X177082600Y-73268362D01*
X177082600Y-71599900D01*
X178199900Y-70482600D01*
X178573197Y-70482600D01*
X178690541Y-70766594D01*
X179071401Y-71148120D01*
X179569273Y-71354854D01*
X180108362Y-71355325D01*
X180606594Y-71149459D01*
X180988120Y-70768599D01*
X181194854Y-70270727D01*
X181195325Y-69731638D01*
X180989459Y-69233406D01*
X180608599Y-68851880D01*
X180110727Y-68645146D01*
X179571638Y-68644675D01*
X179073406Y-68850541D01*
X178691880Y-69231401D01*
X178573123Y-69517400D01*
X178000000Y-69517400D01*
X177815317Y-69554136D01*
X177658750Y-69658750D01*
X176258750Y-71058750D01*
X176154136Y-71215317D01*
X176117400Y-71400000D01*
X176117400Y-75500101D01*
X174518770Y-77098730D01*
X173977412Y-77098730D01*
X174308120Y-76768599D01*
X174514854Y-76270727D01*
X174515325Y-75731638D01*
X174309459Y-75233406D01*
X173928599Y-74851880D01*
X173430727Y-74645146D01*
X172891638Y-74644675D01*
X172393406Y-74850541D01*
X172011880Y-75231401D01*
X171899436Y-75502198D01*
X171063429Y-75502198D01*
X168862044Y-73300813D01*
X168862044Y-70815200D01*
X168825308Y-70630517D01*
X168720694Y-70473950D01*
X163212600Y-64965856D01*
X163212600Y-64949972D01*
X163299348Y-64892009D01*
X163372746Y-64782161D01*
X163448613Y-64888299D01*
X163715338Y-65054599D01*
X163849018Y-65091887D01*
X163974600Y-65016820D01*
X163974600Y-64025400D01*
X164025400Y-64025400D01*
X164025400Y-65016820D01*
X164150982Y-65091887D01*
X164284662Y-65054599D01*
X164551387Y-64888299D01*
X164734169Y-64632586D01*
X164805180Y-64326390D01*
X164805180Y-64025400D01*
X164025400Y-64025400D01*
X163974600Y-64025400D01*
X163954600Y-64025400D01*
X163954600Y-63974600D01*
X163974600Y-63974600D01*
X163974600Y-62983180D01*
X164025400Y-62983180D01*
X164025400Y-63974600D01*
X164805180Y-63974600D01*
X164805180Y-63673610D01*
X164734169Y-63367414D01*
X164551387Y-63111701D01*
X164284662Y-62945401D01*
X164150982Y-62908113D01*
X164025400Y-62983180D01*
X163974600Y-62983180D01*
X163849018Y-62908113D01*
X163715338Y-62945401D01*
X163448613Y-63111701D01*
X163372746Y-63217839D01*
X163299348Y-63107991D01*
X163038129Y-62933450D01*
X162929640Y-62911870D01*
X163299900Y-62541610D01*
X165240990Y-62541610D01*
X165425673Y-62504874D01*
X165582240Y-62400260D01*
X168247400Y-59735100D01*
X168247400Y-63050028D01*
X168160652Y-63107991D01*
X167986111Y-63369210D01*
X167924820Y-63677339D01*
X167924820Y-64322661D01*
X167986111Y-64630790D01*
X168160652Y-64892009D01*
X168421871Y-65066550D01*
X168730000Y-65127841D01*
X169038129Y-65066550D01*
X169299348Y-64892009D01*
X169365000Y-64793754D01*
X169430652Y-64892009D01*
X169517400Y-64949972D01*
X169517400Y-69840000D01*
X169554136Y-70024683D01*
X169658750Y-70181250D01*
X171922985Y-72445485D01*
X171805146Y-72729273D01*
X171804675Y-73268362D01*
X172010541Y-73766594D01*
X172391401Y-74148120D01*
X172889273Y-74354854D01*
X173428362Y-74355325D01*
X173926594Y-74149459D01*
X174308120Y-73768599D01*
X174514854Y-73270727D01*
X174515325Y-72731638D01*
X174309459Y-72233406D01*
X173928599Y-71851880D01*
X173430727Y-71645146D01*
X172891638Y-71644675D01*
X172605433Y-71762933D01*
X171110862Y-70268362D01*
X171804675Y-70268362D01*
X172010541Y-70766594D01*
X172391401Y-71148120D01*
X172889273Y-71354854D01*
X173428362Y-71355325D01*
X173926594Y-71149459D01*
X174308120Y-70768599D01*
X174514854Y-70270727D01*
X174515325Y-69731638D01*
X174309459Y-69233406D01*
X173928599Y-68851880D01*
X173642600Y-68733123D01*
X173642600Y-63677339D01*
X174924820Y-63677339D01*
X174924820Y-64322661D01*
X174986111Y-64630790D01*
X175160652Y-64892009D01*
X175421871Y-65066550D01*
X175730000Y-65127841D01*
X176038129Y-65066550D01*
X176299348Y-64892009D01*
X176365000Y-64793754D01*
X176430652Y-64892009D01*
X176517400Y-64949972D01*
X176517400Y-65004570D01*
X176554136Y-65189253D01*
X176658750Y-65345820D01*
X178904178Y-67591247D01*
X178904180Y-67591250D01*
X179022272Y-67670156D01*
X179060747Y-67695864D01*
X179245430Y-67732601D01*
X179245435Y-67732600D01*
X180500100Y-67732600D01*
X188705051Y-75937550D01*
X188704675Y-76368362D01*
X188910541Y-76866594D01*
X189291401Y-77248120D01*
X189789273Y-77454854D01*
X190328362Y-77455325D01*
X190826594Y-77249459D01*
X191208120Y-76868599D01*
X191414854Y-76370727D01*
X191415325Y-75831638D01*
X191209459Y-75333406D01*
X190828599Y-74951880D01*
X190330727Y-74745146D01*
X189791638Y-74744675D01*
X189293406Y-74950541D01*
X189188131Y-75055632D01*
X181041250Y-66908750D01*
X180884683Y-66804136D01*
X180700000Y-66767400D01*
X179445329Y-66767400D01*
X177569585Y-64891655D01*
X177642746Y-64782161D01*
X177718613Y-64888299D01*
X177985338Y-65054599D01*
X178119018Y-65091887D01*
X178244600Y-65016820D01*
X178244600Y-64025400D01*
X178295400Y-64025400D01*
X178295400Y-65016820D01*
X178420982Y-65091887D01*
X178554662Y-65054599D01*
X178821387Y-64888299D01*
X179004169Y-64632586D01*
X179075180Y-64326390D01*
X179075180Y-64025400D01*
X178295400Y-64025400D01*
X178244600Y-64025400D01*
X178224600Y-64025400D01*
X178224600Y-63974600D01*
X178244600Y-63974600D01*
X178244600Y-62983180D01*
X178295400Y-62983180D01*
X178295400Y-63974600D01*
X179075180Y-63974600D01*
X179075180Y-63673610D01*
X179004169Y-63367414D01*
X178821387Y-63111701D01*
X178554662Y-62945401D01*
X178420982Y-62908113D01*
X178295400Y-62983180D01*
X178244600Y-62983180D01*
X178119018Y-62908113D01*
X177985338Y-62945401D01*
X177718613Y-63111701D01*
X177642746Y-63217839D01*
X177569348Y-63107991D01*
X177308129Y-62933450D01*
X177000000Y-62872159D01*
X176691871Y-62933450D01*
X176430652Y-63107991D01*
X176365000Y-63206246D01*
X176299348Y-63107991D01*
X176212600Y-63050028D01*
X176212600Y-58533900D01*
X177080471Y-57666029D01*
X177140394Y-57755711D01*
X177450413Y-57962859D01*
X177816105Y-58035600D01*
X178183895Y-58035600D01*
X178549587Y-57962859D01*
X178859606Y-57755711D01*
X179066754Y-57445692D01*
X179116932Y-57193432D01*
X179509389Y-57585889D01*
X179509389Y-60960999D01*
X179546125Y-61145682D01*
X179650739Y-61302249D01*
X181941579Y-63593089D01*
X181924820Y-63677339D01*
X181924820Y-64322661D01*
X181986111Y-64630790D01*
X182160652Y-64892009D01*
X182421871Y-65066550D01*
X182730000Y-65127841D01*
X183038129Y-65066550D01*
X183299348Y-64892009D01*
X183365000Y-64793754D01*
X183430652Y-64892009D01*
X183517400Y-64949972D01*
X183517400Y-67900000D01*
X183554136Y-68084683D01*
X183658750Y-68241250D01*
X188717922Y-73300422D01*
X188910541Y-73766594D01*
X189291401Y-74148120D01*
X189789273Y-74354854D01*
X190328362Y-74355325D01*
X190826594Y-74149459D01*
X191208120Y-73768599D01*
X191374677Y-73367482D01*
X193144079Y-73367482D01*
X193425982Y-74049740D01*
X193947515Y-74572184D01*
X194629279Y-74855277D01*
X195367482Y-74855921D01*
X196049740Y-74574018D01*
X196572184Y-74052485D01*
X196855277Y-73370721D01*
X196855921Y-72632518D01*
X196574018Y-71950260D01*
X196052485Y-71427816D01*
X195370721Y-71144723D01*
X194632518Y-71144079D01*
X193950260Y-71425982D01*
X193427816Y-71947515D01*
X193144723Y-72629279D01*
X193144079Y-73367482D01*
X191374677Y-73367482D01*
X191414854Y-73270727D01*
X191415325Y-72731638D01*
X191209459Y-72233406D01*
X190828599Y-71851880D01*
X190330727Y-71645146D01*
X189791638Y-71644675D01*
X189293406Y-71850541D01*
X188962935Y-72180435D01*
X184482600Y-67700100D01*
X184482600Y-64949972D01*
X184569348Y-64892009D01*
X184642746Y-64782161D01*
X184718613Y-64888299D01*
X184985338Y-65054599D01*
X185119018Y-65091887D01*
X185244600Y-65016820D01*
X185244600Y-64025400D01*
X185295400Y-64025400D01*
X185295400Y-65016820D01*
X185420982Y-65091887D01*
X185554662Y-65054599D01*
X185821387Y-64888299D01*
X186004169Y-64632586D01*
X186075180Y-64326390D01*
X186075180Y-64025400D01*
X185295400Y-64025400D01*
X185244600Y-64025400D01*
X185224600Y-64025400D01*
X185224600Y-63974600D01*
X185244600Y-63974600D01*
X185244600Y-62983180D01*
X185295400Y-62983180D01*
X185295400Y-63974600D01*
X186075180Y-63974600D01*
X186075180Y-63673610D01*
X186004169Y-63367414D01*
X185821387Y-63111701D01*
X185554662Y-62945401D01*
X185420982Y-62908113D01*
X185295400Y-62983180D01*
X185244600Y-62983180D01*
X185119018Y-62908113D01*
X184985338Y-62945401D01*
X184718613Y-63111701D01*
X184642746Y-63217839D01*
X184569348Y-63107991D01*
X184308129Y-62933450D01*
X184000000Y-62872159D01*
X183691871Y-62933450D01*
X183430652Y-63107991D01*
X183365000Y-63206246D01*
X183299348Y-63107991D01*
X183038129Y-62933450D01*
X182730000Y-62872159D01*
X182609598Y-62896108D01*
X180474589Y-60761099D01*
X180474589Y-60407089D01*
X182658750Y-62591250D01*
X182815317Y-62695864D01*
X183000000Y-62732600D01*
X187806520Y-62732600D01*
X189415170Y-64341250D01*
X189571737Y-64445864D01*
X189683759Y-64468147D01*
X189716111Y-64630790D01*
X189890652Y-64892009D01*
X190151871Y-65066550D01*
X190460000Y-65127841D01*
X190768129Y-65066550D01*
X191029348Y-64892009D01*
X191095000Y-64793754D01*
X191160652Y-64892009D01*
X191247400Y-64949972D01*
X191247400Y-68070101D01*
X190554516Y-68762985D01*
X190270727Y-68645146D01*
X189731638Y-68644675D01*
X189233406Y-68850541D01*
X188851880Y-69231401D01*
X188645146Y-69729273D01*
X188644675Y-70268362D01*
X188850541Y-70766594D01*
X189231401Y-71148120D01*
X189729273Y-71354854D01*
X190268362Y-71355325D01*
X190766594Y-71149459D01*
X191148120Y-70768599D01*
X191354854Y-70270727D01*
X191355325Y-69731638D01*
X191237067Y-69445433D01*
X192071247Y-68611252D01*
X192071250Y-68611250D01*
X192175864Y-68454683D01*
X192212600Y-68270000D01*
X192212600Y-66025400D01*
X196394400Y-66025400D01*
X196394400Y-66275400D01*
X196488279Y-66696561D01*
X196736183Y-67049737D01*
X197100371Y-67281161D01*
X197302004Y-67337726D01*
X197474600Y-67266383D01*
X197474600Y-66025400D01*
X197525400Y-66025400D01*
X197525400Y-67266383D01*
X197697996Y-67337726D01*
X197899629Y-67281161D01*
X198263817Y-67049737D01*
X198511721Y-66696561D01*
X198605600Y-66275400D01*
X198605600Y-66025400D01*
X197525400Y-66025400D01*
X197474600Y-66025400D01*
X196394400Y-66025400D01*
X192212600Y-66025400D01*
X192212600Y-65724600D01*
X196394400Y-65724600D01*
X196394400Y-65974600D01*
X197474600Y-65974600D01*
X197474600Y-64733617D01*
X197525400Y-64733617D01*
X197525400Y-65974600D01*
X198605600Y-65974600D01*
X198605600Y-65724600D01*
X198605342Y-65723442D01*
X198894400Y-65723442D01*
X198894400Y-66276558D01*
X198978559Y-66699653D01*
X199218223Y-67058335D01*
X199576905Y-67297999D01*
X200000000Y-67382158D01*
X200423095Y-67297999D01*
X200781777Y-67058335D01*
X201021441Y-66699653D01*
X201105600Y-66276558D01*
X201105600Y-65723442D01*
X201021441Y-65300347D01*
X200781777Y-64941665D01*
X200423095Y-64702001D01*
X200000000Y-64617842D01*
X199576905Y-64702001D01*
X199218223Y-64941665D01*
X198978559Y-65300347D01*
X198894400Y-65723442D01*
X198605342Y-65723442D01*
X198511721Y-65303439D01*
X198263817Y-64950263D01*
X197899629Y-64718839D01*
X197697996Y-64662274D01*
X197525400Y-64733617D01*
X197474600Y-64733617D01*
X197302004Y-64662274D01*
X197100371Y-64718839D01*
X196736183Y-64950263D01*
X196488279Y-65303439D01*
X196394400Y-65724600D01*
X192212600Y-65724600D01*
X192212600Y-64949972D01*
X192299348Y-64892009D01*
X192372746Y-64782161D01*
X192448613Y-64888299D01*
X192715338Y-65054599D01*
X192849018Y-65091887D01*
X192974600Y-65016820D01*
X192974600Y-64025400D01*
X193025400Y-64025400D01*
X193025400Y-65016820D01*
X193150982Y-65091887D01*
X193284662Y-65054599D01*
X193551387Y-64888299D01*
X193734169Y-64632586D01*
X193805180Y-64326390D01*
X193805180Y-64025400D01*
X193025400Y-64025400D01*
X192974600Y-64025400D01*
X192954600Y-64025400D01*
X192954600Y-63974600D01*
X192974600Y-63974600D01*
X192974600Y-62983180D01*
X193025400Y-62983180D01*
X193025400Y-63974600D01*
X193805180Y-63974600D01*
X193805180Y-63673610D01*
X193734169Y-63367414D01*
X193551387Y-63111701D01*
X193284662Y-62945401D01*
X193150982Y-62908113D01*
X193025400Y-62983180D01*
X192974600Y-62983180D01*
X192849018Y-62908113D01*
X192715338Y-62945401D01*
X192448613Y-63111701D01*
X192372746Y-63217839D01*
X192299348Y-63107991D01*
X192038129Y-62933450D01*
X191730000Y-62872159D01*
X191421871Y-62933450D01*
X191160652Y-63107991D01*
X191095000Y-63206246D01*
X191029348Y-63107991D01*
X190768129Y-62933450D01*
X190460000Y-62872159D01*
X190151871Y-62933450D01*
X189890652Y-63107991D01*
X189752969Y-63314049D01*
X188347670Y-61908750D01*
X188191103Y-61804136D01*
X188006420Y-61767400D01*
X183199900Y-61767400D01*
X181457900Y-60025400D01*
X197624820Y-60025400D01*
X197624820Y-60326390D01*
X197695831Y-60632586D01*
X197878613Y-60888299D01*
X198145338Y-61054599D01*
X198279018Y-61091887D01*
X198404600Y-61016820D01*
X198404600Y-60025400D01*
X197624820Y-60025400D01*
X181457900Y-60025400D01*
X181106110Y-59673610D01*
X197624820Y-59673610D01*
X197624820Y-59974600D01*
X198404600Y-59974600D01*
X198404600Y-58983180D01*
X198279018Y-58908113D01*
X198145338Y-58945401D01*
X197878613Y-59111701D01*
X197695831Y-59367414D01*
X197624820Y-59673610D01*
X181106110Y-59673610D01*
X180982600Y-59550100D01*
X180982600Y-58281962D01*
X182515275Y-58281962D01*
X182721141Y-58780194D01*
X183102001Y-59161720D01*
X183599873Y-59368454D01*
X184138962Y-59368925D01*
X184637194Y-59163059D01*
X185018720Y-58782199D01*
X185225454Y-58284327D01*
X185225456Y-58281962D01*
X192675275Y-58281962D01*
X192881141Y-58780194D01*
X193262001Y-59161720D01*
X193759873Y-59368454D01*
X194298962Y-59368925D01*
X194797194Y-59163059D01*
X195178720Y-58782199D01*
X195385454Y-58284327D01*
X195385925Y-57745238D01*
X195180059Y-57247006D01*
X194799199Y-56865480D01*
X194301327Y-56658746D01*
X193762238Y-56658275D01*
X193264006Y-56864141D01*
X192882480Y-57245001D01*
X192675746Y-57742873D01*
X192675275Y-58281962D01*
X185225456Y-58281962D01*
X185225925Y-57745238D01*
X185020059Y-57247006D01*
X184639199Y-56865480D01*
X184141327Y-56658746D01*
X183602238Y-56658275D01*
X183104006Y-56864141D01*
X182722480Y-57245001D01*
X182515746Y-57742873D01*
X182515275Y-58281962D01*
X180982600Y-58281962D01*
X180982600Y-55268362D01*
X182484675Y-55268362D01*
X182690541Y-55766594D01*
X183071401Y-56148120D01*
X183569273Y-56354854D01*
X184108362Y-56355325D01*
X184606594Y-56149459D01*
X184988120Y-55768599D01*
X185194854Y-55270727D01*
X185194856Y-55268362D01*
X192644675Y-55268362D01*
X192850541Y-55766594D01*
X193231401Y-56148120D01*
X193729273Y-56354854D01*
X194268362Y-56355325D01*
X194766594Y-56149459D01*
X195148120Y-55768599D01*
X195354854Y-55270727D01*
X195355068Y-55025400D01*
X197654820Y-55025400D01*
X197654820Y-55326390D01*
X197725831Y-55632586D01*
X197908613Y-55888299D01*
X198175338Y-56054599D01*
X198309018Y-56091887D01*
X198434600Y-56016820D01*
X198434600Y-55025400D01*
X197654820Y-55025400D01*
X195355068Y-55025400D01*
X195355325Y-54731638D01*
X195331349Y-54673610D01*
X197654820Y-54673610D01*
X197654820Y-54974600D01*
X198434600Y-54974600D01*
X198434600Y-53983180D01*
X198309018Y-53908113D01*
X198175338Y-53945401D01*
X197908613Y-54111701D01*
X197725831Y-54367414D01*
X197654820Y-54673610D01*
X195331349Y-54673610D01*
X195149459Y-54233406D01*
X194768599Y-53851880D01*
X194270727Y-53645146D01*
X193731638Y-53644675D01*
X193233406Y-53850541D01*
X192851880Y-54231401D01*
X192645146Y-54729273D01*
X192644675Y-55268362D01*
X185194856Y-55268362D01*
X185195325Y-54731638D01*
X184989459Y-54233406D01*
X184608599Y-53851880D01*
X184110727Y-53645146D01*
X183571638Y-53644675D01*
X183073406Y-53850541D01*
X182691880Y-54231401D01*
X182485146Y-54729273D01*
X182484675Y-55268362D01*
X180982600Y-55268362D01*
X180982600Y-52268362D01*
X182484675Y-52268362D01*
X182690541Y-52766594D01*
X183071401Y-53148120D01*
X183569273Y-53354854D01*
X184108362Y-53355325D01*
X184606594Y-53149459D01*
X184988120Y-52768599D01*
X185194854Y-52270727D01*
X185194856Y-52268362D01*
X192644675Y-52268362D01*
X192850541Y-52766594D01*
X193231401Y-53148120D01*
X193729273Y-53354854D01*
X194268362Y-53355325D01*
X194766594Y-53149459D01*
X195148120Y-52768599D01*
X195354854Y-52270727D01*
X195355325Y-51731638D01*
X195149459Y-51233406D01*
X194768599Y-50851880D01*
X194270727Y-50645146D01*
X193731638Y-50644675D01*
X193233406Y-50850541D01*
X192851880Y-51231401D01*
X192645146Y-51729273D01*
X192644675Y-52268362D01*
X185194856Y-52268362D01*
X185195325Y-51731638D01*
X184989459Y-51233406D01*
X184608599Y-50851880D01*
X184110727Y-50645146D01*
X183571638Y-50644675D01*
X183073406Y-50850541D01*
X182691880Y-51231401D01*
X182485146Y-51729273D01*
X182484675Y-52268362D01*
X180982600Y-52268362D01*
X180982600Y-50944000D01*
X180945864Y-50759317D01*
X180841250Y-50602750D01*
X179506862Y-49268362D01*
X182494675Y-49268362D01*
X182700541Y-49766594D01*
X183081401Y-50148120D01*
X183579273Y-50354854D01*
X184118362Y-50355325D01*
X184616594Y-50149459D01*
X184998120Y-49768599D01*
X185204854Y-49270727D01*
X185205325Y-48731638D01*
X184999459Y-48233406D01*
X184618599Y-47851880D01*
X184120727Y-47645146D01*
X183581638Y-47644675D01*
X183083406Y-47850541D01*
X182701880Y-48231401D01*
X182495146Y-48729273D01*
X182494675Y-49268362D01*
X179506862Y-49268362D01*
X179357250Y-49118750D01*
X179200683Y-49014136D01*
X179016000Y-48977400D01*
X178988639Y-48977400D01*
X178859606Y-48784289D01*
X178549587Y-48577141D01*
X178183895Y-48504400D01*
X177816105Y-48504400D01*
X177450413Y-48577141D01*
X177140394Y-48784289D01*
X176933246Y-49094308D01*
X176860505Y-49460000D01*
X176933246Y-49825692D01*
X177140394Y-50135711D01*
X177450413Y-50342859D01*
X177816105Y-50415600D01*
X178183895Y-50415600D01*
X178549587Y-50342859D01*
X178859606Y-50135711D01*
X178919529Y-50046029D01*
X180017400Y-51143900D01*
X180017400Y-56728900D01*
X178646562Y-55358062D01*
X178859606Y-55215711D01*
X179066754Y-54905692D01*
X179139495Y-54540000D01*
X179066754Y-54174308D01*
X178859606Y-53864289D01*
X178549587Y-53657141D01*
X178183895Y-53584400D01*
X177816105Y-53584400D01*
X177450413Y-53657141D01*
X177140394Y-53864289D01*
X176933246Y-54174308D01*
X176860505Y-54540000D01*
X176933246Y-54905692D01*
X177140394Y-55215711D01*
X177450413Y-55422859D01*
X177526137Y-55437921D01*
X177554136Y-55578683D01*
X177658750Y-55735250D01*
X178047900Y-56124400D01*
X177816105Y-56124400D01*
X177450413Y-56197141D01*
X177140394Y-56404289D01*
X177011361Y-56597400D01*
X176984005Y-56597400D01*
X176984000Y-56597399D01*
X176799317Y-56634136D01*
X176642750Y-56738750D01*
X175388750Y-57992750D01*
X175284136Y-58149317D01*
X175247400Y-58334000D01*
X175247400Y-63050028D01*
X175160652Y-63107991D01*
X174986111Y-63369210D01*
X174924820Y-63677339D01*
X173642600Y-63677339D01*
X173642600Y-56877900D01*
X177606578Y-52913922D01*
X177816105Y-52955600D01*
X178183895Y-52955600D01*
X178549587Y-52882859D01*
X178859606Y-52675711D01*
X179066754Y-52365692D01*
X179139495Y-52000000D01*
X179066754Y-51634308D01*
X178859606Y-51324289D01*
X178549587Y-51117141D01*
X178183895Y-51044400D01*
X177816105Y-51044400D01*
X177450413Y-51117141D01*
X177140394Y-51324289D01*
X176933246Y-51634308D01*
X176860505Y-52000000D01*
X176909448Y-52246052D01*
X172818750Y-56336750D01*
X172714136Y-56493317D01*
X172677400Y-56678000D01*
X172677400Y-68733197D01*
X172393406Y-68850541D01*
X172011880Y-69231401D01*
X171805146Y-69729273D01*
X171804675Y-70268362D01*
X171110862Y-70268362D01*
X170482600Y-69640100D01*
X170482600Y-64949972D01*
X170569348Y-64892009D01*
X170642746Y-64782161D01*
X170718613Y-64888299D01*
X170985338Y-65054599D01*
X171119018Y-65091887D01*
X171244600Y-65016820D01*
X171244600Y-64025400D01*
X171295400Y-64025400D01*
X171295400Y-65016820D01*
X171420982Y-65091887D01*
X171554662Y-65054599D01*
X171821387Y-64888299D01*
X172004169Y-64632586D01*
X172075180Y-64326390D01*
X172075180Y-64025400D01*
X171295400Y-64025400D01*
X171244600Y-64025400D01*
X171224600Y-64025400D01*
X171224600Y-63974600D01*
X171244600Y-63974600D01*
X171244600Y-62983180D01*
X171295400Y-62983180D01*
X171295400Y-63974600D01*
X172075180Y-63974600D01*
X172075180Y-63673610D01*
X172004169Y-63367414D01*
X171821387Y-63111701D01*
X171554662Y-62945401D01*
X171420982Y-62908113D01*
X171295400Y-62983180D01*
X171244600Y-62983180D01*
X171119018Y-62908113D01*
X170985338Y-62945401D01*
X170718613Y-63111701D01*
X170642746Y-63217839D01*
X170569348Y-63107991D01*
X170308129Y-62933450D01*
X170000000Y-62872159D01*
X169691871Y-62933450D01*
X169430652Y-63107991D01*
X169365000Y-63206246D01*
X169299348Y-63107991D01*
X169212600Y-63050028D01*
X169212600Y-57080000D01*
X169240505Y-57080000D01*
X169313246Y-57445692D01*
X169520394Y-57755711D01*
X169830413Y-57962859D01*
X170196105Y-58035600D01*
X170563895Y-58035600D01*
X170929587Y-57962859D01*
X171239606Y-57755711D01*
X171446754Y-57445692D01*
X171519495Y-57080000D01*
X171446754Y-56714308D01*
X171239606Y-56404289D01*
X170929587Y-56197141D01*
X170563895Y-56124400D01*
X170196105Y-56124400D01*
X169830413Y-56197141D01*
X169520394Y-56404289D01*
X169313246Y-56714308D01*
X169240505Y-57080000D01*
X169212600Y-57080000D01*
X169212600Y-54540000D01*
X169240505Y-54540000D01*
X169313246Y-54905692D01*
X169520394Y-55215711D01*
X169830413Y-55422859D01*
X170196105Y-55495600D01*
X170563895Y-55495600D01*
X170929587Y-55422859D01*
X171239606Y-55215711D01*
X171446754Y-54905692D01*
X171519495Y-54540000D01*
X171446754Y-54174308D01*
X171239606Y-53864289D01*
X170929587Y-53657141D01*
X170563895Y-53584400D01*
X170196105Y-53584400D01*
X169830413Y-53657141D01*
X169520394Y-53864289D01*
X169313246Y-54174308D01*
X169240505Y-54540000D01*
X169212600Y-54540000D01*
X169212600Y-52000000D01*
X169240505Y-52000000D01*
X169313246Y-52365692D01*
X169520394Y-52675711D01*
X169830413Y-52882859D01*
X170196105Y-52955600D01*
X170563895Y-52955600D01*
X170929587Y-52882859D01*
X171239606Y-52675711D01*
X171446754Y-52365692D01*
X171519495Y-52000000D01*
X171446754Y-51634308D01*
X171239606Y-51324289D01*
X170929587Y-51117141D01*
X170563895Y-51044400D01*
X170196105Y-51044400D01*
X169830413Y-51117141D01*
X169520394Y-51324289D01*
X169313246Y-51634308D01*
X169240505Y-52000000D01*
X169212600Y-52000000D01*
X169212600Y-51147900D01*
X169986578Y-50373922D01*
X170196105Y-50415600D01*
X170563895Y-50415600D01*
X170929587Y-50342859D01*
X171239606Y-50135711D01*
X171446754Y-49825692D01*
X171519495Y-49460000D01*
X171446754Y-49094308D01*
X171239606Y-48784289D01*
X170929587Y-48577141D01*
X170563895Y-48504400D01*
X170196105Y-48504400D01*
X169830413Y-48577141D01*
X169520394Y-48784289D01*
X169313246Y-49094308D01*
X169240505Y-49460000D01*
X169289448Y-49706052D01*
X168682600Y-50312900D01*
X168682600Y-46920000D01*
X169240505Y-46920000D01*
X169313246Y-47285692D01*
X169520394Y-47595711D01*
X169830413Y-47802859D01*
X170196105Y-47875600D01*
X170563895Y-47875600D01*
X170929587Y-47802859D01*
X171239606Y-47595711D01*
X171446754Y-47285692D01*
X171519495Y-46920000D01*
X176860505Y-46920000D01*
X176933246Y-47285692D01*
X177140394Y-47595711D01*
X177450413Y-47802859D01*
X177816105Y-47875600D01*
X178183895Y-47875600D01*
X178549587Y-47802859D01*
X178859606Y-47595711D01*
X179066754Y-47285692D01*
X179139495Y-46920000D01*
X179066754Y-46554308D01*
X178875692Y-46268362D01*
X182494675Y-46268362D01*
X182700541Y-46766594D01*
X183081401Y-47148120D01*
X183579273Y-47354854D01*
X184118362Y-47355325D01*
X184616594Y-47149459D01*
X184998120Y-46768599D01*
X185204854Y-46270727D01*
X185204856Y-46268362D01*
X192654675Y-46268362D01*
X192860541Y-46766594D01*
X193241401Y-47148120D01*
X193739273Y-47354854D01*
X194278362Y-47355325D01*
X194564567Y-47237067D01*
X195770234Y-48442734D01*
X195770234Y-49945579D01*
X195803049Y-50110549D01*
X195247015Y-49554515D01*
X195364854Y-49270727D01*
X195365325Y-48731638D01*
X195159459Y-48233406D01*
X194778599Y-47851880D01*
X194280727Y-47645146D01*
X193741638Y-47644675D01*
X193243406Y-47850541D01*
X192861880Y-48231401D01*
X192655146Y-48729273D01*
X192654675Y-49268362D01*
X192860541Y-49766594D01*
X193241401Y-50148120D01*
X193739273Y-50354854D01*
X194278362Y-50355325D01*
X194564567Y-50237067D01*
X194668239Y-50340739D01*
X196960534Y-52633033D01*
X196960536Y-52633036D01*
X197117103Y-52737650D01*
X197301786Y-52774387D01*
X197301791Y-52774386D01*
X198392876Y-52774386D01*
X199530360Y-53911870D01*
X199421871Y-53933450D01*
X199160652Y-54107991D01*
X199087254Y-54217839D01*
X199011387Y-54111701D01*
X198744662Y-53945401D01*
X198610982Y-53908113D01*
X198485400Y-53983180D01*
X198485400Y-54974600D01*
X198505400Y-54974600D01*
X198505400Y-55025400D01*
X198485400Y-55025400D01*
X198485400Y-56016820D01*
X198610982Y-56091887D01*
X198744662Y-56054599D01*
X199011387Y-55888299D01*
X199087254Y-55782161D01*
X199160652Y-55892009D01*
X199421871Y-56066550D01*
X199730000Y-56127841D01*
X200038129Y-56066550D01*
X200299348Y-55892009D01*
X200365000Y-55793754D01*
X200430652Y-55892009D01*
X200691871Y-56066550D01*
X201000000Y-56127841D01*
X201308129Y-56066550D01*
X201490980Y-55944373D01*
X201490980Y-59075673D01*
X201278129Y-58933450D01*
X200970000Y-58872159D01*
X200661871Y-58933450D01*
X200400652Y-59107991D01*
X200335000Y-59206246D01*
X200269348Y-59107991D01*
X200008129Y-58933450D01*
X199700000Y-58872159D01*
X199391871Y-58933450D01*
X199130652Y-59107991D01*
X199057254Y-59217839D01*
X198981387Y-59111701D01*
X198714662Y-58945401D01*
X198580982Y-58908113D01*
X198455400Y-58983180D01*
X198455400Y-59974600D01*
X198475400Y-59974600D01*
X198475400Y-60025400D01*
X198455400Y-60025400D01*
X198455400Y-61016820D01*
X198580982Y-61091887D01*
X198714662Y-61054599D01*
X198981387Y-60888299D01*
X199057254Y-60782161D01*
X199130652Y-60892009D01*
X199391871Y-61066550D01*
X199700000Y-61127841D01*
X200008129Y-61066550D01*
X200269348Y-60892009D01*
X200335000Y-60793754D01*
X200400652Y-60892009D01*
X200661871Y-61066550D01*
X200970000Y-61127841D01*
X201278129Y-61066550D01*
X201539348Y-60892009D01*
X201713889Y-60630790D01*
X201760788Y-60395012D01*
X201841250Y-60341250D01*
X202314830Y-59867670D01*
X202419444Y-59711103D01*
X202456180Y-59526420D01*
X202456180Y-54497964D01*
X202456181Y-54497959D01*
X202419444Y-54313276D01*
X202314830Y-54156709D01*
X199600646Y-51442525D01*
X199444079Y-51337911D01*
X199259396Y-51301175D01*
X198290930Y-51301175D01*
X197015155Y-50025400D01*
X197654820Y-50025400D01*
X197654820Y-50326390D01*
X197725831Y-50632586D01*
X197908613Y-50888299D01*
X198175338Y-51054599D01*
X198309018Y-51091887D01*
X198434600Y-51016820D01*
X198434600Y-50025400D01*
X197654820Y-50025400D01*
X197015155Y-50025400D01*
X196735434Y-49745679D01*
X196735434Y-49673610D01*
X197654820Y-49673610D01*
X197654820Y-49974600D01*
X198434600Y-49974600D01*
X198434600Y-48983180D01*
X198309018Y-48908113D01*
X198175338Y-48945401D01*
X197908613Y-49111701D01*
X197725831Y-49367414D01*
X197654820Y-49673610D01*
X196735434Y-49673610D01*
X196735434Y-48242834D01*
X196698698Y-48058151D01*
X196594084Y-47901584D01*
X195247015Y-46554515D01*
X195364854Y-46270727D01*
X195365325Y-45731638D01*
X195159459Y-45233406D01*
X194778599Y-44851880D01*
X194280727Y-44645146D01*
X193741638Y-44644675D01*
X193243406Y-44850541D01*
X192861880Y-45231401D01*
X192655146Y-45729273D01*
X192654675Y-46268362D01*
X185204856Y-46268362D01*
X185205325Y-45731638D01*
X184999459Y-45233406D01*
X184618599Y-44851880D01*
X184120727Y-44645146D01*
X183581638Y-44644675D01*
X183083406Y-44850541D01*
X182701880Y-45231401D01*
X182495146Y-45729273D01*
X182494675Y-46268362D01*
X178875692Y-46268362D01*
X178859606Y-46244289D01*
X178549587Y-46037141D01*
X178183895Y-45964400D01*
X177816105Y-45964400D01*
X177450413Y-46037141D01*
X177140394Y-46244289D01*
X176933246Y-46554308D01*
X176860505Y-46920000D01*
X171519495Y-46920000D01*
X171446754Y-46554308D01*
X171239606Y-46244289D01*
X170929587Y-46037141D01*
X170563895Y-45964400D01*
X170196105Y-45964400D01*
X169830413Y-46037141D01*
X169520394Y-46244289D01*
X169313246Y-46554308D01*
X169240505Y-46920000D01*
X168682600Y-46920000D01*
X168682600Y-45743900D01*
X169460470Y-44966029D01*
X169520394Y-45055711D01*
X169830413Y-45262859D01*
X170196105Y-45335600D01*
X170563895Y-45335600D01*
X170929587Y-45262859D01*
X171239606Y-45055711D01*
X171446754Y-44745692D01*
X171519495Y-44380000D01*
X176860505Y-44380000D01*
X176933246Y-44745692D01*
X177140394Y-45055711D01*
X177450413Y-45262859D01*
X177816105Y-45335600D01*
X178183895Y-45335600D01*
X178549587Y-45262859D01*
X178859606Y-45055711D01*
X179066754Y-44745692D01*
X179139495Y-44380000D01*
X179066754Y-44014308D01*
X178859606Y-43704289D01*
X178549587Y-43497141D01*
X178183895Y-43424400D01*
X177816105Y-43424400D01*
X177450413Y-43497141D01*
X177140394Y-43704289D01*
X176933246Y-44014308D01*
X176860505Y-44380000D01*
X171519495Y-44380000D01*
X171446754Y-44014308D01*
X171239606Y-43704289D01*
X170929587Y-43497141D01*
X170563895Y-43424400D01*
X170196105Y-43424400D01*
X169830413Y-43497141D01*
X169520394Y-43704289D01*
X169391361Y-43897400D01*
X169364005Y-43897400D01*
X169364000Y-43897399D01*
X169179317Y-43934136D01*
X169022750Y-44038750D01*
X169022748Y-44038753D01*
X167858750Y-45202750D01*
X167754136Y-45359317D01*
X167717400Y-45544000D01*
X167717400Y-58900100D01*
X165041090Y-61576410D01*
X163100000Y-61576410D01*
X162915317Y-61613146D01*
X162758750Y-61717760D01*
X161580402Y-62896108D01*
X161460000Y-62872159D01*
X161151871Y-62933450D01*
X160890652Y-63107991D01*
X160716111Y-63369210D01*
X160654820Y-63677339D01*
X160654820Y-64322661D01*
X160716111Y-64630790D01*
X160890652Y-64892009D01*
X161151871Y-65066550D01*
X161460000Y-65127841D01*
X161768129Y-65066550D01*
X162029348Y-64892009D01*
X162095000Y-64793754D01*
X162160652Y-64892009D01*
X162247400Y-64949972D01*
X162247400Y-65165756D01*
X162284136Y-65350439D01*
X162388750Y-65507006D01*
X163499144Y-66617400D01*
X161994094Y-66617400D01*
X160590796Y-65214101D01*
X160590796Y-58268362D01*
X163644675Y-58268362D01*
X163850541Y-58766594D01*
X164231401Y-59148120D01*
X164729273Y-59354854D01*
X165268362Y-59355325D01*
X165766594Y-59149459D01*
X166148120Y-58768599D01*
X166354854Y-58270727D01*
X166355325Y-57731638D01*
X166149459Y-57233406D01*
X165768599Y-56851880D01*
X165270727Y-56645146D01*
X164731638Y-56644675D01*
X164233406Y-56850541D01*
X163851880Y-57231401D01*
X163645146Y-57729273D01*
X163644675Y-58268362D01*
X160590796Y-58268362D01*
X160590796Y-55268362D01*
X163644675Y-55268362D01*
X163850541Y-55766594D01*
X164231401Y-56148120D01*
X164729273Y-56354854D01*
X165268362Y-56355325D01*
X165766594Y-56149459D01*
X166148120Y-55768599D01*
X166354854Y-55270727D01*
X166355325Y-54731638D01*
X166149459Y-54233406D01*
X165768599Y-53851880D01*
X165270727Y-53645146D01*
X164731638Y-53644675D01*
X164233406Y-53850541D01*
X163851880Y-54231401D01*
X163645146Y-54729273D01*
X163644675Y-55268362D01*
X160590796Y-55268362D01*
X160590796Y-52268362D01*
X163644675Y-52268362D01*
X163850541Y-52766594D01*
X164231401Y-53148120D01*
X164729273Y-53354854D01*
X165268362Y-53355325D01*
X165766594Y-53149459D01*
X166148120Y-52768599D01*
X166354854Y-52270727D01*
X166355325Y-51731638D01*
X166149459Y-51233406D01*
X165768599Y-50851880D01*
X165270727Y-50645146D01*
X164731638Y-50644675D01*
X164233406Y-50850541D01*
X163851880Y-51231401D01*
X163645146Y-51729273D01*
X163644675Y-52268362D01*
X160590796Y-52268362D01*
X160590796Y-51998480D01*
X160706026Y-51883451D01*
X160813674Y-51624207D01*
X160813919Y-51343502D01*
X160706724Y-51084071D01*
X160508408Y-50885409D01*
X160249164Y-50777761D01*
X159968459Y-50777516D01*
X159734468Y-50874199D01*
X159734468Y-49268362D01*
X163644675Y-49268362D01*
X163850541Y-49766594D01*
X164231401Y-50148120D01*
X164729273Y-50354854D01*
X165268362Y-50355325D01*
X165766594Y-50149459D01*
X166148120Y-49768599D01*
X166354854Y-49270727D01*
X166355325Y-48731638D01*
X166149459Y-48233406D01*
X165768599Y-47851880D01*
X165270727Y-47645146D01*
X164731638Y-47644675D01*
X164233406Y-47850541D01*
X163851880Y-48231401D01*
X163645146Y-48729273D01*
X163644675Y-49268362D01*
X159734468Y-49268362D01*
X159734468Y-46333542D01*
X159799761Y-46268362D01*
X163644675Y-46268362D01*
X163850541Y-46766594D01*
X164231401Y-47148120D01*
X164729273Y-47354854D01*
X165268362Y-47355325D01*
X165766594Y-47149459D01*
X166148120Y-46768599D01*
X166354854Y-46270727D01*
X166355325Y-45731638D01*
X166149459Y-45233406D01*
X165768599Y-44851880D01*
X165270727Y-44645146D01*
X164731638Y-44644675D01*
X164233406Y-44850541D01*
X163851880Y-45231401D01*
X163645146Y-45729273D01*
X163644675Y-46268362D01*
X159799761Y-46268362D01*
X159849698Y-46218513D01*
X159957346Y-45959269D01*
X159957591Y-45678564D01*
X159850396Y-45419133D01*
X159652080Y-45220471D01*
X159392836Y-45112823D01*
X159112131Y-45112578D01*
X158852700Y-45219773D01*
X158654038Y-45418089D01*
X158546390Y-45677333D01*
X158546145Y-45958038D01*
X158653340Y-46217469D01*
X158769268Y-46333599D01*
X158769268Y-48128882D01*
X158661766Y-48084243D01*
X158381061Y-48083998D01*
X158121630Y-48191193D01*
X157922968Y-48389509D01*
X157815320Y-48648753D01*
X157815075Y-48929458D01*
X157922270Y-49188889D01*
X158038198Y-49305019D01*
X158038198Y-65263475D01*
X158074934Y-65448158D01*
X158179548Y-65604725D01*
X161032093Y-68457270D01*
X161188660Y-68561884D01*
X161373343Y-68598621D01*
X161373348Y-68598620D01*
X163279250Y-68598622D01*
X163364863Y-68684234D01*
X163270727Y-68645146D01*
X162731638Y-68644675D01*
X162233406Y-68850541D01*
X161851880Y-69231401D01*
X161733123Y-69517400D01*
X160293454Y-69517400D01*
X154531707Y-63755653D01*
X154375140Y-63651039D01*
X154190457Y-63614303D01*
X150441802Y-63614303D01*
X149640065Y-62812566D01*
X149865000Y-62812566D01*
X149996777Y-62787770D01*
X150117807Y-62709890D01*
X150199001Y-62591058D01*
X150200007Y-62586092D01*
X150275110Y-62702807D01*
X150393942Y-62784001D01*
X150535000Y-62812566D01*
X151135000Y-62812566D01*
X151266777Y-62787770D01*
X151387807Y-62709890D01*
X151469001Y-62591058D01*
X151470007Y-62586092D01*
X151545110Y-62702807D01*
X151663942Y-62784001D01*
X151805000Y-62812566D01*
X152405000Y-62812566D01*
X152536777Y-62787770D01*
X152657807Y-62709890D01*
X152739001Y-62591058D01*
X152740007Y-62586092D01*
X152815110Y-62702807D01*
X152933942Y-62784001D01*
X153075000Y-62812566D01*
X153675000Y-62812566D01*
X153806777Y-62787770D01*
X153927807Y-62709890D01*
X154009001Y-62591058D01*
X154012130Y-62575607D01*
X154043537Y-62651431D01*
X154143569Y-62751463D01*
X154274267Y-62805600D01*
X154530700Y-62805600D01*
X154619600Y-62716700D01*
X154619600Y-61725400D01*
X154670400Y-61725400D01*
X154670400Y-62716700D01*
X154759300Y-62805600D01*
X155015733Y-62805600D01*
X155146431Y-62751463D01*
X155246463Y-62651431D01*
X155300600Y-62520733D01*
X155300600Y-61814300D01*
X155211700Y-61725400D01*
X154670400Y-61725400D01*
X154619600Y-61725400D01*
X154599600Y-61725400D01*
X154599600Y-61674600D01*
X154619600Y-61674600D01*
X154619600Y-60683300D01*
X154670400Y-60683300D01*
X154670400Y-61674600D01*
X155211700Y-61674600D01*
X155300600Y-61585700D01*
X155300600Y-60879267D01*
X155246463Y-60748569D01*
X155146431Y-60648537D01*
X155015733Y-60594400D01*
X154759300Y-60594400D01*
X154670400Y-60683300D01*
X154619600Y-60683300D01*
X154530700Y-60594400D01*
X154274267Y-60594400D01*
X154143569Y-60648537D01*
X154043537Y-60748569D01*
X154013368Y-60821403D01*
X154012770Y-60818223D01*
X153934890Y-60697193D01*
X153816058Y-60615999D01*
X153675000Y-60587434D01*
X153075000Y-60587434D01*
X152943223Y-60612230D01*
X152822193Y-60690110D01*
X152740999Y-60808942D01*
X152739993Y-60813908D01*
X152664890Y-60697193D01*
X152582600Y-60640967D01*
X152582600Y-59999900D01*
X153753168Y-58829331D01*
X154071401Y-59148120D01*
X154569273Y-59354854D01*
X155108362Y-59355325D01*
X155606594Y-59149459D01*
X155988120Y-58768599D01*
X156194854Y-58270727D01*
X156195325Y-57731638D01*
X155989459Y-57233406D01*
X155608599Y-56851880D01*
X155110727Y-56645146D01*
X154571638Y-56644675D01*
X154073406Y-56850541D01*
X153942109Y-56981609D01*
X153942109Y-56580391D01*
X154285485Y-56237015D01*
X154569273Y-56354854D01*
X155108362Y-56355325D01*
X155606594Y-56149459D01*
X155988120Y-55768599D01*
X156194854Y-55270727D01*
X156195325Y-54731638D01*
X155989459Y-54233406D01*
X155608599Y-53851880D01*
X155110727Y-53645146D01*
X154571638Y-53644675D01*
X154073406Y-53850541D01*
X153691880Y-54231401D01*
X153485146Y-54729273D01*
X153484675Y-55268362D01*
X153602933Y-55554567D01*
X153382600Y-55774900D01*
X153382600Y-54139900D01*
X154285485Y-53237015D01*
X154569273Y-53354854D01*
X155108362Y-53355325D01*
X155606594Y-53149459D01*
X155988120Y-52768599D01*
X156194854Y-52270727D01*
X156195325Y-51731638D01*
X155989459Y-51233406D01*
X155608599Y-50851880D01*
X155110727Y-50645146D01*
X154571638Y-50644675D01*
X154073406Y-50850541D01*
X153691880Y-51231401D01*
X153485146Y-51729273D01*
X153484675Y-52268362D01*
X153602933Y-52554567D01*
X152874590Y-53282910D01*
X152874590Y-51647910D01*
X154285485Y-50237015D01*
X154569273Y-50354854D01*
X155108362Y-50355325D01*
X155606594Y-50149459D01*
X155988120Y-49768599D01*
X156194854Y-49270727D01*
X156195325Y-48731638D01*
X155989459Y-48233406D01*
X155608599Y-47851880D01*
X155110727Y-47645146D01*
X154571638Y-47644675D01*
X154073406Y-47850541D01*
X153691880Y-48231401D01*
X153485146Y-48729273D01*
X153484675Y-49268362D01*
X153602933Y-49554567D01*
X152282600Y-50874900D01*
X152282600Y-49239900D01*
X154285485Y-47237015D01*
X154569273Y-47354854D01*
X155108362Y-47355325D01*
X155606594Y-47149459D01*
X155988120Y-46768599D01*
X156194854Y-46270727D01*
X156195325Y-45731638D01*
X155989459Y-45233406D01*
X155608599Y-44851880D01*
X155110727Y-44645146D01*
X154571638Y-44644675D01*
X154073406Y-44850541D01*
X153691880Y-45231401D01*
X153485146Y-45729273D01*
X153484675Y-46268362D01*
X153602933Y-46554567D01*
X153382600Y-46774900D01*
X153382600Y-45049900D01*
X154195485Y-44237015D01*
X154479273Y-44354854D01*
X155018362Y-44355325D01*
X155516594Y-44149459D01*
X155898120Y-43768599D01*
X156104854Y-43270727D01*
X156105325Y-42731638D01*
X155899459Y-42233406D01*
X155518599Y-41851880D01*
X155228929Y-41731599D01*
X164431267Y-41731599D01*
X164143406Y-41850541D01*
X163761880Y-42231401D01*
X163555146Y-42729273D01*
X163554675Y-43268362D01*
X163760541Y-43766594D01*
X164141401Y-44148120D01*
X164639273Y-44354854D01*
X165178362Y-44355325D01*
X165676594Y-44149459D01*
X166058120Y-43768599D01*
X166264854Y-43270727D01*
X166265325Y-42731638D01*
X166059459Y-42233406D01*
X165678599Y-41851880D01*
X165388929Y-41731599D01*
X183361267Y-41731599D01*
X183073406Y-41850541D01*
X182691880Y-42231401D01*
X182485146Y-42729273D01*
X182484675Y-43268362D01*
X182690541Y-43766594D01*
X183071401Y-44148120D01*
X183569273Y-44354854D01*
X184108362Y-44355325D01*
X184606594Y-44149459D01*
X184988120Y-43768599D01*
X185194854Y-43270727D01*
X185195325Y-42731638D01*
X184989459Y-42233406D01*
X184608599Y-41851880D01*
X184318929Y-41731599D01*
X193521267Y-41731599D01*
X193233406Y-41850541D01*
X192851880Y-42231401D01*
X192645146Y-42729273D01*
X192644675Y-43268362D01*
X192850541Y-43766594D01*
X193231401Y-44148120D01*
X193729273Y-44354854D01*
X194268362Y-44355325D01*
X194766594Y-44149459D01*
X195148120Y-43768599D01*
X195251243Y-43520251D01*
X200517400Y-48786407D01*
X200517400Y-49050028D01*
X200430652Y-49107991D01*
X200365000Y-49206246D01*
X200299348Y-49107991D01*
X200038129Y-48933450D01*
X199730000Y-48872159D01*
X199421871Y-48933450D01*
X199160652Y-49107991D01*
X199087254Y-49217839D01*
X199011387Y-49111701D01*
X198744662Y-48945401D01*
X198610982Y-48908113D01*
X198485400Y-48983180D01*
X198485400Y-49974600D01*
X198505400Y-49974600D01*
X198505400Y-50025400D01*
X198485400Y-50025400D01*
X198485400Y-51016820D01*
X198610982Y-51091887D01*
X198744662Y-51054599D01*
X199011387Y-50888299D01*
X199087254Y-50782161D01*
X199160652Y-50892009D01*
X199421871Y-51066550D01*
X199730000Y-51127841D01*
X200038129Y-51066550D01*
X200299348Y-50892009D01*
X200365000Y-50793754D01*
X200430652Y-50892009D01*
X200691871Y-51066550D01*
X201000000Y-51127841D01*
X201308129Y-51066550D01*
X201569348Y-50892009D01*
X201743889Y-50630790D01*
X201805180Y-50322661D01*
X201805180Y-49677339D01*
X201743889Y-49369210D01*
X201569348Y-49107991D01*
X201482600Y-49050028D01*
X201482600Y-48586508D01*
X201445864Y-48401825D01*
X201341250Y-48245258D01*
X201341247Y-48245256D01*
X198039054Y-44943063D01*
X198196200Y-44974321D01*
X198504490Y-44912998D01*
X198765845Y-44738366D01*
X198831200Y-44640555D01*
X198896555Y-44738366D01*
X199157910Y-44912998D01*
X199466200Y-44974321D01*
X199774490Y-44912998D01*
X199935463Y-44805439D01*
X199989183Y-44888922D01*
X200124990Y-44981715D01*
X200126600Y-44982041D01*
X200126600Y-45756611D01*
X200173003Y-45989895D01*
X200305148Y-46187663D01*
X206390400Y-52272915D01*
X206390400Y-53182039D01*
X205984000Y-53182039D01*
X205833397Y-53210377D01*
X205695078Y-53299383D01*
X205602285Y-53435190D01*
X205569639Y-53596400D01*
X205569639Y-53672600D01*
X205222000Y-53672600D01*
X204920675Y-53732537D01*
X204665224Y-53903224D01*
X203843224Y-54725224D01*
X203672537Y-54980675D01*
X203612600Y-55282000D01*
X203612600Y-63773848D01*
X202767243Y-64619205D01*
X202500000Y-64566047D01*
X202057465Y-64654073D01*
X201682302Y-64904749D01*
X201431626Y-65279912D01*
X201343600Y-65722447D01*
X201343600Y-66277553D01*
X201431626Y-66720088D01*
X201682302Y-67095251D01*
X201712600Y-67115495D01*
X201712600Y-73273848D01*
X196773848Y-78212600D01*
X129414152Y-78212600D01*
X128287400Y-77085848D01*
X128287400Y-77038507D01*
X128300603Y-77036023D01*
X128438922Y-76947017D01*
X128531715Y-76811210D01*
X128564361Y-76650000D01*
X128564361Y-75350000D01*
X128536023Y-75199397D01*
X128447017Y-75061078D01*
X128311210Y-74968285D01*
X128150000Y-74935639D01*
X126850000Y-74935639D01*
X126699397Y-74963977D01*
X126561078Y-75052983D01*
X126468285Y-75188790D01*
X126435639Y-75350000D01*
X126435639Y-75631464D01*
X126360673Y-75442791D01*
X126344160Y-75418077D01*
X126179852Y-75356069D01*
X125535921Y-76000000D01*
X126179852Y-76643931D01*
X126344160Y-76581923D01*
X126435639Y-76369823D01*
X126435639Y-76650000D01*
X126463977Y-76800603D01*
X126552983Y-76938922D01*
X126688790Y-77031715D01*
X126712600Y-77036537D01*
X126712600Y-77412000D01*
X126772537Y-77713325D01*
X126943224Y-77968776D01*
X128531224Y-79556776D01*
X128550117Y-79569400D01*
X110430600Y-79569400D01*
X110430600Y-78237113D01*
X115815298Y-78237113D01*
X115887869Y-78495300D01*
X116173486Y-78940594D01*
X116607768Y-79242691D01*
X117124600Y-79355600D01*
X118124600Y-79355600D01*
X118124600Y-78025400D01*
X118175400Y-78025400D01*
X118175400Y-79355600D01*
X119175400Y-79355600D01*
X119692232Y-79242691D01*
X120126514Y-78940594D01*
X120412131Y-78495300D01*
X120484702Y-78237113D01*
X120416445Y-78025400D01*
X118175400Y-78025400D01*
X118124600Y-78025400D01*
X115883555Y-78025400D01*
X115815298Y-78237113D01*
X110430600Y-78237113D01*
X110430600Y-77762887D01*
X115815298Y-77762887D01*
X115883555Y-77974600D01*
X118124600Y-77974600D01*
X118124600Y-76644400D01*
X118175400Y-76644400D01*
X118175400Y-77974600D01*
X120416445Y-77974600D01*
X120484702Y-77762887D01*
X120412131Y-77504700D01*
X120126514Y-77059406D01*
X119692232Y-76757309D01*
X119337679Y-76679852D01*
X124856069Y-76679852D01*
X124918077Y-76844160D01*
X125285419Y-77002595D01*
X125685430Y-77008393D01*
X126057209Y-76860673D01*
X126081923Y-76844160D01*
X126143931Y-76679852D01*
X125500000Y-76035921D01*
X124856069Y-76679852D01*
X119337679Y-76679852D01*
X119175400Y-76644400D01*
X118175400Y-76644400D01*
X118124600Y-76644400D01*
X117124600Y-76644400D01*
X116607768Y-76757309D01*
X116173486Y-77059406D01*
X115887869Y-77504700D01*
X115815298Y-77762887D01*
X110430600Y-77762887D01*
X110430600Y-76185430D01*
X124491607Y-76185430D01*
X124639327Y-76557209D01*
X124655840Y-76581923D01*
X124820148Y-76643931D01*
X125464079Y-76000000D01*
X124820148Y-75356069D01*
X124655840Y-75418077D01*
X124497405Y-75785419D01*
X124491607Y-76185430D01*
X110430600Y-76185430D01*
X110430600Y-73025400D01*
X113494400Y-73025400D01*
X113494400Y-74025400D01*
X113607309Y-74542232D01*
X113909406Y-74976514D01*
X114354700Y-75262131D01*
X114612887Y-75334702D01*
X114824600Y-75266445D01*
X114824600Y-73025400D01*
X114875400Y-73025400D01*
X114875400Y-75266445D01*
X115087113Y-75334702D01*
X115345300Y-75262131D01*
X115790594Y-74976514D01*
X116092691Y-74542232D01*
X116205600Y-74025400D01*
X116205600Y-73025400D01*
X114875400Y-73025400D01*
X114824600Y-73025400D01*
X113494400Y-73025400D01*
X110430600Y-73025400D01*
X110430600Y-71974600D01*
X113494400Y-71974600D01*
X113494400Y-72974600D01*
X114824600Y-72974600D01*
X114824600Y-70733555D01*
X114875400Y-70733555D01*
X114875400Y-72974600D01*
X116205600Y-72974600D01*
X116205600Y-71974600D01*
X116200850Y-71952856D01*
X119593600Y-71952856D01*
X119593600Y-74047144D01*
X119700656Y-74585350D01*
X120005525Y-75041619D01*
X120461794Y-75346488D01*
X121000000Y-75453544D01*
X121538206Y-75346488D01*
X121577626Y-75320148D01*
X124856069Y-75320148D01*
X125500000Y-75964079D01*
X126143931Y-75320148D01*
X126081923Y-75155840D01*
X125714581Y-74997405D01*
X125314570Y-74991607D01*
X124942791Y-75139327D01*
X124918077Y-75155840D01*
X124856069Y-75320148D01*
X121577626Y-75320148D01*
X121994475Y-75041619D01*
X122299344Y-74585350D01*
X122406400Y-74047144D01*
X122406400Y-71952856D01*
X122299344Y-71414650D01*
X121994475Y-70958381D01*
X121538206Y-70653512D01*
X121000000Y-70546456D01*
X120461794Y-70653512D01*
X120005525Y-70958381D01*
X119700656Y-71414650D01*
X119593600Y-71952856D01*
X116200850Y-71952856D01*
X116092691Y-71457768D01*
X115790594Y-71023486D01*
X115345300Y-70737869D01*
X115087113Y-70665298D01*
X114875400Y-70733555D01*
X114824600Y-70733555D01*
X114612887Y-70665298D01*
X114354700Y-70737869D01*
X113909406Y-71023486D01*
X113607309Y-71457768D01*
X113494400Y-71974600D01*
X110430600Y-71974600D01*
X110430600Y-65248744D01*
X110743753Y-65248744D01*
X110934569Y-65710554D01*
X111287587Y-66064189D01*
X111749064Y-66255811D01*
X112248744Y-66256247D01*
X112710554Y-66065431D01*
X113064189Y-65712413D01*
X113255811Y-65250936D01*
X113256247Y-64751256D01*
X113065431Y-64289446D01*
X112926598Y-64150370D01*
X120896009Y-64150370D01*
X120896009Y-65849630D01*
X120924347Y-66000233D01*
X121013353Y-66138552D01*
X121149160Y-66231345D01*
X121310370Y-66263991D01*
X123009630Y-66263991D01*
X123160233Y-66235653D01*
X123298552Y-66146647D01*
X123391345Y-66010840D01*
X123423991Y-65849630D01*
X123423991Y-64150370D01*
X123395653Y-63999767D01*
X123306647Y-63861448D01*
X123170840Y-63768655D01*
X123009630Y-63736009D01*
X121310370Y-63736009D01*
X121159767Y-63764347D01*
X121021448Y-63853353D01*
X120928655Y-63989160D01*
X120896009Y-64150370D01*
X112926598Y-64150370D01*
X112712413Y-63935811D01*
X112250936Y-63744189D01*
X111751256Y-63743753D01*
X111289446Y-63934569D01*
X110935811Y-64287587D01*
X110744189Y-64749064D01*
X110743753Y-65248744D01*
X110430600Y-65248744D01*
X110430600Y-57838953D01*
X112114208Y-57838953D01*
X112282171Y-58245454D01*
X112592910Y-58556736D01*
X112999118Y-58725408D01*
X113438953Y-58725792D01*
X113845454Y-58557829D01*
X114156736Y-58247090D01*
X114325408Y-57840882D01*
X114325409Y-57838953D01*
X114654208Y-57838953D01*
X114822171Y-58245454D01*
X115132910Y-58556736D01*
X115539118Y-58725408D01*
X115978953Y-58725792D01*
X116385454Y-58557829D01*
X116696736Y-58247090D01*
X116865408Y-57840882D01*
X116865409Y-57838953D01*
X117194208Y-57838953D01*
X117362171Y-58245454D01*
X117672910Y-58556736D01*
X118079118Y-58725408D01*
X118518953Y-58725792D01*
X118925454Y-58557829D01*
X119236736Y-58247090D01*
X119405408Y-57840882D01*
X119405409Y-57838953D01*
X119734208Y-57838953D01*
X119902171Y-58245454D01*
X120212910Y-58556736D01*
X120619118Y-58725408D01*
X120653938Y-58725438D01*
X123400785Y-61472285D01*
X123282946Y-61756073D01*
X123282475Y-62295162D01*
X123488341Y-62793394D01*
X123869201Y-63174920D01*
X124155200Y-63293677D01*
X124155200Y-66637800D01*
X124191936Y-66822483D01*
X124296550Y-66979050D01*
X126068632Y-68751132D01*
X126044567Y-68809086D01*
X126044235Y-69189247D01*
X126189410Y-69540597D01*
X126457989Y-69809646D01*
X126809086Y-69955433D01*
X127189247Y-69955765D01*
X127540597Y-69810590D01*
X127809646Y-69542011D01*
X127955433Y-69190914D01*
X127955765Y-68810753D01*
X127810590Y-68459403D01*
X127542011Y-68190354D01*
X127190914Y-68044567D01*
X126810753Y-68044235D01*
X126751300Y-68068800D01*
X125120400Y-66437900D01*
X125120400Y-63293603D01*
X125404394Y-63176259D01*
X125622345Y-62958688D01*
X133901833Y-62958688D01*
X134006380Y-63159310D01*
X134500015Y-63375966D01*
X135038986Y-63387225D01*
X135541239Y-63191371D01*
X135589220Y-63159310D01*
X135693767Y-62958688D01*
X134797800Y-62062721D01*
X133901833Y-62958688D01*
X125622345Y-62958688D01*
X125785920Y-62795399D01*
X125992654Y-62297527D01*
X125992679Y-62267986D01*
X133437375Y-62267986D01*
X133633229Y-62770239D01*
X133665290Y-62818220D01*
X133865912Y-62922767D01*
X134761879Y-62026800D01*
X134833721Y-62026800D01*
X135729688Y-62922767D01*
X135930310Y-62818220D01*
X135991039Y-62679852D01*
X139856069Y-62679852D01*
X139918077Y-62844160D01*
X140285419Y-63002595D01*
X140685430Y-63008393D01*
X141057209Y-62860673D01*
X141081923Y-62844160D01*
X141143931Y-62679852D01*
X140500000Y-62035921D01*
X139856069Y-62679852D01*
X135991039Y-62679852D01*
X136146966Y-62324585D01*
X136149872Y-62185430D01*
X139491607Y-62185430D01*
X139639327Y-62557209D01*
X139655840Y-62581923D01*
X139820148Y-62643931D01*
X140464079Y-62000000D01*
X140535921Y-62000000D01*
X141179852Y-62643931D01*
X141344160Y-62581923D01*
X141502595Y-62214581D01*
X141508393Y-61814570D01*
X141360673Y-61442791D01*
X141344160Y-61418077D01*
X141179852Y-61356069D01*
X140535921Y-62000000D01*
X140464079Y-62000000D01*
X139820148Y-61356069D01*
X139655840Y-61418077D01*
X139497405Y-61785419D01*
X139491607Y-62185430D01*
X136149872Y-62185430D01*
X136158225Y-61785614D01*
X135976717Y-61320148D01*
X139856069Y-61320148D01*
X140500000Y-61964079D01*
X141143931Y-61320148D01*
X141081923Y-61155840D01*
X140714581Y-60997405D01*
X140314570Y-60991607D01*
X139942791Y-61139327D01*
X139918077Y-61155840D01*
X139856069Y-61320148D01*
X135976717Y-61320148D01*
X135962371Y-61283361D01*
X135930310Y-61235380D01*
X135729688Y-61130833D01*
X134833721Y-62026800D01*
X134761879Y-62026800D01*
X133865912Y-61130833D01*
X133665290Y-61235380D01*
X133448634Y-61729015D01*
X133437375Y-62267986D01*
X125992679Y-62267986D01*
X125993125Y-61758438D01*
X125787259Y-61260206D01*
X125622254Y-61094912D01*
X133901833Y-61094912D01*
X134797800Y-61990879D01*
X135693767Y-61094912D01*
X135589220Y-60894290D01*
X135095585Y-60677634D01*
X134556614Y-60666375D01*
X134054361Y-60862229D01*
X134006380Y-60894290D01*
X133901833Y-61094912D01*
X125622254Y-61094912D01*
X125406399Y-60878680D01*
X124908527Y-60671946D01*
X124369438Y-60671475D01*
X124083233Y-60789733D01*
X121658560Y-58365060D01*
X121776736Y-58247090D01*
X121945408Y-57840882D01*
X121945409Y-57838953D01*
X122274208Y-57838953D01*
X122442171Y-58245454D01*
X122752910Y-58556736D01*
X123159118Y-58725408D01*
X123598953Y-58725792D01*
X124005454Y-58557829D01*
X124316736Y-58247090D01*
X124485408Y-57840882D01*
X124485409Y-57838953D01*
X124814208Y-57838953D01*
X124982171Y-58245454D01*
X125292910Y-58556736D01*
X125699118Y-58725408D01*
X126138953Y-58725792D01*
X126545454Y-58557829D01*
X126856736Y-58247090D01*
X127025408Y-57840882D01*
X127025409Y-57838953D01*
X127354208Y-57838953D01*
X127522171Y-58245454D01*
X127832910Y-58556736D01*
X128239118Y-58725408D01*
X128678953Y-58725792D01*
X129085454Y-58557829D01*
X129396736Y-58247090D01*
X129565408Y-57840882D01*
X129565409Y-57838953D01*
X129894208Y-57838953D01*
X130062171Y-58245454D01*
X130372910Y-58556736D01*
X130779118Y-58725408D01*
X131218953Y-58725792D01*
X131625454Y-58557829D01*
X131936736Y-58247090D01*
X132105408Y-57840882D01*
X132105409Y-57838953D01*
X132434208Y-57838953D01*
X132602171Y-58245454D01*
X132912910Y-58556736D01*
X133319118Y-58725408D01*
X133758953Y-58725792D01*
X134165454Y-58557829D01*
X134476736Y-58247090D01*
X134645408Y-57840882D01*
X134645409Y-57838953D01*
X134974208Y-57838953D01*
X135142171Y-58245454D01*
X135452910Y-58556736D01*
X135859118Y-58725408D01*
X136298953Y-58725792D01*
X136705454Y-58557829D01*
X137016736Y-58247090D01*
X137185408Y-57840882D01*
X137185409Y-57838953D01*
X137514208Y-57838953D01*
X137682171Y-58245454D01*
X137992910Y-58556736D01*
X138399118Y-58725408D01*
X138838953Y-58725792D01*
X139245454Y-58557829D01*
X139556736Y-58247090D01*
X139725408Y-57840882D01*
X139725792Y-57401047D01*
X139557829Y-56994546D01*
X139247090Y-56683264D01*
X138840882Y-56514592D01*
X138401047Y-56514208D01*
X137994546Y-56682171D01*
X137683264Y-56992910D01*
X137514592Y-57399118D01*
X137514208Y-57838953D01*
X137185409Y-57838953D01*
X137185792Y-57401047D01*
X137017829Y-56994546D01*
X136707090Y-56683264D01*
X136300882Y-56514592D01*
X135861047Y-56514208D01*
X135454546Y-56682171D01*
X135143264Y-56992910D01*
X134974592Y-57399118D01*
X134974208Y-57838953D01*
X134645409Y-57838953D01*
X134645792Y-57401047D01*
X134477829Y-56994546D01*
X134167090Y-56683264D01*
X133760882Y-56514592D01*
X133321047Y-56514208D01*
X132914546Y-56682171D01*
X132603264Y-56992910D01*
X132434592Y-57399118D01*
X132434208Y-57838953D01*
X132105409Y-57838953D01*
X132105792Y-57401047D01*
X131937829Y-56994546D01*
X131627090Y-56683264D01*
X131220882Y-56514592D01*
X130781047Y-56514208D01*
X130374546Y-56682171D01*
X130063264Y-56992910D01*
X129894592Y-57399118D01*
X129894208Y-57838953D01*
X129565409Y-57838953D01*
X129565792Y-57401047D01*
X129397829Y-56994546D01*
X129087090Y-56683264D01*
X128680882Y-56514592D01*
X128241047Y-56514208D01*
X127834546Y-56682171D01*
X127523264Y-56992910D01*
X127354592Y-57399118D01*
X127354208Y-57838953D01*
X127025409Y-57838953D01*
X127025792Y-57401047D01*
X126857829Y-56994546D01*
X126547090Y-56683264D01*
X126140882Y-56514592D01*
X125701047Y-56514208D01*
X125294546Y-56682171D01*
X124983264Y-56992910D01*
X124814592Y-57399118D01*
X124814208Y-57838953D01*
X124485409Y-57838953D01*
X124485792Y-57401047D01*
X124317829Y-56994546D01*
X124007090Y-56683264D01*
X123600882Y-56514592D01*
X123161047Y-56514208D01*
X122754546Y-56682171D01*
X122443264Y-56992910D01*
X122274592Y-57399118D01*
X122274208Y-57838953D01*
X121945409Y-57838953D01*
X121945792Y-57401047D01*
X121777829Y-56994546D01*
X121467090Y-56683264D01*
X121060882Y-56514592D01*
X120621047Y-56514208D01*
X120214546Y-56682171D01*
X119903264Y-56992910D01*
X119734592Y-57399118D01*
X119734208Y-57838953D01*
X119405409Y-57838953D01*
X119405792Y-57401047D01*
X119237829Y-56994546D01*
X118927090Y-56683264D01*
X118520882Y-56514592D01*
X118081047Y-56514208D01*
X117674546Y-56682171D01*
X117363264Y-56992910D01*
X117194592Y-57399118D01*
X117194208Y-57838953D01*
X116865409Y-57838953D01*
X116865792Y-57401047D01*
X116697829Y-56994546D01*
X116387090Y-56683264D01*
X115980882Y-56514592D01*
X115541047Y-56514208D01*
X115134546Y-56682171D01*
X114823264Y-56992910D01*
X114654592Y-57399118D01*
X114654208Y-57838953D01*
X114325409Y-57838953D01*
X114325792Y-57401047D01*
X114157829Y-56994546D01*
X113847090Y-56683264D01*
X113440882Y-56514592D01*
X113001047Y-56514208D01*
X112594546Y-56682171D01*
X112283264Y-56992910D01*
X112114592Y-57399118D01*
X112114208Y-57838953D01*
X110430600Y-57838953D01*
X110430600Y-42598953D01*
X112114208Y-42598953D01*
X112282171Y-43005454D01*
X112592910Y-43316736D01*
X112999118Y-43485408D01*
X113438953Y-43485792D01*
X113845454Y-43317829D01*
X114156736Y-43007090D01*
X114325408Y-42600882D01*
X114325409Y-42598953D01*
X114654208Y-42598953D01*
X114822171Y-43005454D01*
X115132910Y-43316736D01*
X115539118Y-43485408D01*
X115978953Y-43485792D01*
X116385454Y-43317829D01*
X116696736Y-43007090D01*
X116865408Y-42600882D01*
X116865409Y-42598953D01*
X117194208Y-42598953D01*
X117362171Y-43005454D01*
X117672910Y-43316736D01*
X118079118Y-43485408D01*
X118518953Y-43485792D01*
X118925454Y-43317829D01*
X119236736Y-43007090D01*
X119405408Y-42600882D01*
X119405409Y-42598953D01*
X119734208Y-42598953D01*
X119902171Y-43005454D01*
X120212910Y-43316736D01*
X120619118Y-43485408D01*
X121058953Y-43485792D01*
X121465454Y-43317829D01*
X121776736Y-43007090D01*
X121945408Y-42600882D01*
X121945792Y-42161047D01*
X121777829Y-41754546D01*
X121467090Y-41443264D01*
X121060882Y-41274592D01*
X120621047Y-41274208D01*
X120214546Y-41442171D01*
X119903264Y-41752910D01*
X119734592Y-42159118D01*
X119734208Y-42598953D01*
X119405409Y-42598953D01*
X119405792Y-42161047D01*
X119237829Y-41754546D01*
X118927090Y-41443264D01*
X118520882Y-41274592D01*
X118081047Y-41274208D01*
X117674546Y-41442171D01*
X117363264Y-41752910D01*
X117194592Y-42159118D01*
X117194208Y-42598953D01*
X116865409Y-42598953D01*
X116865792Y-42161047D01*
X116697829Y-41754546D01*
X116387090Y-41443264D01*
X115980882Y-41274592D01*
X115541047Y-41274208D01*
X115134546Y-41442171D01*
X114823264Y-41752910D01*
X114654592Y-42159118D01*
X114654208Y-42598953D01*
X114325409Y-42598953D01*
X114325792Y-42161047D01*
X114157829Y-41754546D01*
X113847090Y-41443264D01*
X113440882Y-41274592D01*
X113001047Y-41274208D01*
X112594546Y-41442171D01*
X112283264Y-41752910D01*
X112114592Y-42159118D01*
X112114208Y-42598953D01*
X110430600Y-42598953D01*
X110430600Y-40430600D01*
X124646900Y-40430600D01*
X123743633Y-41333867D01*
X123743633Y-41333867D01*
G37*
X123743633Y-41333867D02*
X123600882Y-41274592D01*
X123161047Y-41274208D01*
X122754546Y-41442171D01*
X122443264Y-41752910D01*
X122274592Y-42159118D01*
X122274208Y-42598953D01*
X122442171Y-43005454D01*
X122752910Y-43316736D01*
X123159118Y-43485408D01*
X123598953Y-43485792D01*
X124005454Y-43317829D01*
X124316736Y-43007090D01*
X124485408Y-42600882D01*
X124485792Y-42161047D01*
X124426047Y-42016453D01*
X125359426Y-41083074D01*
X125834427Y-41083074D01*
X125658750Y-41258750D01*
X125628351Y-41304245D01*
X125294546Y-41442171D01*
X124983264Y-41752910D01*
X124814592Y-42159118D01*
X124814208Y-42598953D01*
X124982171Y-43005454D01*
X125292910Y-43316736D01*
X125699118Y-43485408D01*
X126138953Y-43485792D01*
X126545454Y-43317829D01*
X126856736Y-43007090D01*
X127025408Y-42600882D01*
X127025792Y-42161047D01*
X126857829Y-41754546D01*
X126834922Y-41731599D01*
X127544612Y-41731599D01*
X127523264Y-41752910D01*
X127354592Y-42159118D01*
X127354208Y-42598953D01*
X127522171Y-43005454D01*
X127832910Y-43316736D01*
X128239118Y-43485408D01*
X128678953Y-43485792D01*
X129085454Y-43317829D01*
X129396736Y-43007090D01*
X129565408Y-42600882D01*
X129565792Y-42161047D01*
X129397829Y-41754546D01*
X129374922Y-41731599D01*
X130084612Y-41731599D01*
X130063264Y-41752910D01*
X129894592Y-42159118D01*
X129894208Y-42598953D01*
X130062171Y-43005454D01*
X130372910Y-43316736D01*
X130779118Y-43485408D01*
X131218953Y-43485792D01*
X131625454Y-43317829D01*
X131936736Y-43007090D01*
X132105408Y-42600882D01*
X132105792Y-42161047D01*
X131937829Y-41754546D01*
X131914922Y-41731599D01*
X132624612Y-41731599D01*
X132603264Y-41752910D01*
X132434592Y-42159118D01*
X132434208Y-42598953D01*
X132602171Y-43005454D01*
X132912910Y-43316736D01*
X133319118Y-43485408D01*
X133758953Y-43485792D01*
X134165454Y-43317829D01*
X134476736Y-43007090D01*
X134645408Y-42600882D01*
X134645792Y-42161047D01*
X134477829Y-41754546D01*
X134454922Y-41731599D01*
X135164612Y-41731599D01*
X135143264Y-41752910D01*
X134974592Y-42159118D01*
X134974208Y-42598953D01*
X135142171Y-43005454D01*
X135452910Y-43316736D01*
X135597400Y-43376733D01*
X135597400Y-43440660D01*
X135617400Y-43541206D01*
X135617400Y-46900101D01*
X131958750Y-50558750D01*
X131854136Y-50715317D01*
X131817400Y-50900000D01*
X131817400Y-55184759D01*
X131702170Y-55299788D01*
X131594522Y-55559032D01*
X131594277Y-55839737D01*
X131701472Y-56099168D01*
X131899788Y-56297830D01*
X132159032Y-56405478D01*
X132439737Y-56405723D01*
X132699168Y-56298528D01*
X132897830Y-56100212D01*
X133005478Y-55840968D01*
X133005723Y-55560263D01*
X132898528Y-55300832D01*
X132782600Y-55184702D01*
X132782600Y-51099900D01*
X136441247Y-47441252D01*
X136441250Y-47441250D01*
X136545864Y-47284683D01*
X136551940Y-47254136D01*
X136582601Y-47100000D01*
X136582600Y-47099995D01*
X136582600Y-43460660D01*
X136565677Y-43375584D01*
X136705454Y-43317829D01*
X137016736Y-43007090D01*
X137185408Y-42600882D01*
X137185792Y-42161047D01*
X137017829Y-41754546D01*
X136994922Y-41731599D01*
X137704612Y-41731599D01*
X137683264Y-41752910D01*
X137514592Y-42159118D01*
X137514208Y-42598953D01*
X137682171Y-43005454D01*
X137992910Y-43316736D01*
X138399118Y-43485408D01*
X138838953Y-43485792D01*
X139245454Y-43317829D01*
X139431635Y-43131972D01*
X140443949Y-43131972D01*
X140518130Y-43306671D01*
X140921612Y-43481766D01*
X141361385Y-43489127D01*
X141770500Y-43327633D01*
X141801870Y-43306671D01*
X141876051Y-43131972D01*
X141160000Y-42415921D01*
X140443949Y-43131972D01*
X139431635Y-43131972D01*
X139556736Y-43007090D01*
X139725408Y-42600882D01*
X139725792Y-42161047D01*
X139557829Y-41754546D01*
X139534922Y-41731599D01*
X140248710Y-41731599D01*
X140233329Y-41738130D01*
X140058234Y-42141612D01*
X140050873Y-42581385D01*
X140212367Y-42990500D01*
X140233329Y-43021870D01*
X140408028Y-43096051D01*
X141124079Y-42380000D01*
X141109937Y-42365858D01*
X141145858Y-42329937D01*
X141160000Y-42344079D01*
X141174143Y-42329937D01*
X141210064Y-42365858D01*
X141195921Y-42380000D01*
X141911972Y-43096051D01*
X142086671Y-43021870D01*
X142261766Y-42618388D01*
X142269127Y-42178615D01*
X142107633Y-41769500D01*
X142086671Y-41738130D01*
X142071290Y-41731599D01*
X142784612Y-41731599D01*
X142763264Y-41752910D01*
X142594592Y-42159118D01*
X142594208Y-42598953D01*
X142762171Y-43005454D01*
X143072910Y-43316736D01*
X143479118Y-43485408D01*
X143918953Y-43485792D01*
X144325454Y-43317829D01*
X144636736Y-43007090D01*
X144805408Y-42600882D01*
X144805792Y-42161047D01*
X144637829Y-41754546D01*
X144614922Y-41731599D01*
X145324612Y-41731599D01*
X145303264Y-41752910D01*
X145134592Y-42159118D01*
X145134208Y-42598953D01*
X145302171Y-43005454D01*
X145612910Y-43316736D01*
X146019118Y-43485408D01*
X146458953Y-43485792D01*
X146865454Y-43317829D01*
X147176736Y-43007090D01*
X147345408Y-42600882D01*
X147345792Y-42161047D01*
X147177829Y-41754546D01*
X147154922Y-41731599D01*
X147864612Y-41731599D01*
X147843264Y-41752910D01*
X147674592Y-42159118D01*
X147674208Y-42598953D01*
X147842171Y-43005454D01*
X148152910Y-43316736D01*
X148559118Y-43485408D01*
X148998953Y-43485792D01*
X149405454Y-43317829D01*
X149716736Y-43007090D01*
X149885408Y-42600882D01*
X149885792Y-42161047D01*
X149717829Y-41754546D01*
X149694922Y-41731599D01*
X154271267Y-41731599D01*
X153983406Y-41850541D01*
X153601880Y-42231401D01*
X153395146Y-42729273D01*
X153394675Y-43268362D01*
X153512933Y-43554567D01*
X152558750Y-44508750D01*
X152454136Y-44665317D01*
X152417400Y-44850000D01*
X152417400Y-47021666D01*
X152168873Y-47270193D01*
X152126066Y-47298797D01*
X152048326Y-47350741D01*
X152048319Y-47350748D01*
X152048316Y-47350750D01*
X152048314Y-47350753D01*
X150950740Y-48448326D01*
X150846126Y-48604893D01*
X150809390Y-48789576D01*
X150809390Y-56673727D01*
X149885620Y-57597497D01*
X149885792Y-57401047D01*
X149717829Y-56994546D01*
X149407090Y-56683264D01*
X149000882Y-56514592D01*
X148561047Y-56514208D01*
X148154546Y-56682171D01*
X147843264Y-56992910D01*
X147674592Y-57399118D01*
X147674208Y-57838953D01*
X147842171Y-58245454D01*
X148152910Y-58556736D01*
X148539833Y-58717400D01*
X146518322Y-58717400D01*
X146333639Y-58754136D01*
X146177072Y-58858750D01*
X144532749Y-60503073D01*
X144428135Y-60659640D01*
X144391399Y-60844323D01*
X144391399Y-62773999D01*
X144428135Y-62958682D01*
X144532749Y-63115249D01*
X146342400Y-64924900D01*
X146342400Y-66054507D01*
X146216210Y-65968285D01*
X146055000Y-65935639D01*
X145455000Y-65935639D01*
X145304397Y-65963977D01*
X145166078Y-66052983D01*
X145140512Y-66090400D01*
X145101104Y-66090400D01*
X143609600Y-64598896D01*
X143609600Y-63939719D01*
X143727463Y-63763325D01*
X143787400Y-63462000D01*
X143787400Y-63038507D01*
X143800603Y-63036023D01*
X143938922Y-62947017D01*
X144031715Y-62811210D01*
X144064361Y-62650000D01*
X144064361Y-61350000D01*
X144036023Y-61199397D01*
X143947017Y-61061078D01*
X143811210Y-60968285D01*
X143787400Y-60963463D01*
X143787400Y-59460000D01*
X143727463Y-59158675D01*
X143556776Y-58903224D01*
X143307839Y-58654287D01*
X143479118Y-58725408D01*
X143918953Y-58725792D01*
X144325454Y-58557829D01*
X144511635Y-58371972D01*
X145523949Y-58371972D01*
X145598130Y-58546671D01*
X146001612Y-58721766D01*
X146441385Y-58729127D01*
X146850500Y-58567633D01*
X146881870Y-58546671D01*
X146956051Y-58371972D01*
X146240000Y-57655921D01*
X145523949Y-58371972D01*
X144511635Y-58371972D01*
X144636736Y-58247090D01*
X144805408Y-57840882D01*
X144805425Y-57821385D01*
X145130873Y-57821385D01*
X145292367Y-58230500D01*
X145313329Y-58261870D01*
X145488028Y-58336051D01*
X146204079Y-57620000D01*
X146275921Y-57620000D01*
X146991972Y-58336051D01*
X147166671Y-58261870D01*
X147341766Y-57858388D01*
X147349127Y-57418615D01*
X147187633Y-57009500D01*
X147166671Y-56978130D01*
X146991972Y-56903949D01*
X146275921Y-57620000D01*
X146204079Y-57620000D01*
X145488028Y-56903949D01*
X145313329Y-56978130D01*
X145138234Y-57381612D01*
X145130873Y-57821385D01*
X144805425Y-57821385D01*
X144805792Y-57401047D01*
X144637829Y-56994546D01*
X144511532Y-56868028D01*
X145523949Y-56868028D01*
X146240000Y-57584079D01*
X146956051Y-56868028D01*
X146881870Y-56693329D01*
X146478388Y-56518234D01*
X146038615Y-56510873D01*
X145629500Y-56672367D01*
X145598130Y-56693329D01*
X145523949Y-56868028D01*
X144511532Y-56868028D01*
X144327090Y-56683264D01*
X143920882Y-56514592D01*
X143481047Y-56514208D01*
X143074546Y-56682171D01*
X142763264Y-56992910D01*
X142594592Y-57399118D01*
X142594208Y-57838953D01*
X142665821Y-58012269D01*
X142316363Y-57662811D01*
X142316600Y-57390987D01*
X142140920Y-56965808D01*
X141815903Y-56640224D01*
X141391031Y-56463801D01*
X140930987Y-56463400D01*
X140505808Y-56639080D01*
X140180224Y-56964097D01*
X140003801Y-57388969D01*
X140003400Y-57849013D01*
X140179080Y-58274192D01*
X140504097Y-58599776D01*
X140928969Y-58776199D01*
X141202886Y-58776438D01*
X142212600Y-59786152D01*
X142212600Y-60961493D01*
X142199397Y-60963977D01*
X142061078Y-61052983D01*
X141968285Y-61188790D01*
X141935639Y-61350000D01*
X141935639Y-62650000D01*
X141963977Y-62800603D01*
X142052983Y-62938922D01*
X142188790Y-63031715D01*
X142208574Y-63035721D01*
X141286919Y-63957377D01*
X138305223Y-63957377D01*
X138278965Y-63962600D01*
X136876702Y-63962600D01*
X136575377Y-64022537D01*
X136319926Y-64193224D01*
X133130862Y-67382288D01*
X132960175Y-67637739D01*
X132900238Y-67939064D01*
X132900238Y-68351400D01*
X131287528Y-68351400D01*
X131193271Y-68370149D01*
X130970824Y-68147313D01*
X130601064Y-67993775D01*
X130200693Y-67993425D01*
X129830665Y-68146318D01*
X129547313Y-68429176D01*
X129393775Y-68798936D01*
X129393425Y-69199307D01*
X129546318Y-69569335D01*
X129829176Y-69852687D01*
X130198936Y-70006225D01*
X130599307Y-70006575D01*
X130969335Y-69853682D01*
X131213843Y-69609600D01*
X131248528Y-69609600D01*
X131444595Y-69570600D01*
X132900238Y-69570600D01*
X132900238Y-73255578D01*
X132904656Y-73277789D01*
X132900238Y-73300000D01*
X132960175Y-73601325D01*
X133130862Y-73856776D01*
X133132600Y-73857937D01*
X133132600Y-74101858D01*
X133031853Y-74169175D01*
X132759580Y-74576660D01*
X132663970Y-75057322D01*
X132663970Y-76942678D01*
X132759580Y-77423340D01*
X133031853Y-77830825D01*
X133439338Y-78103098D01*
X133920000Y-78198708D01*
X134400662Y-78103098D01*
X134808147Y-77830825D01*
X135080420Y-77423340D01*
X135176030Y-76942678D01*
X135176030Y-76025400D01*
X135254770Y-76025400D01*
X135254770Y-76925830D01*
X135356233Y-77385118D01*
X135625734Y-77770617D01*
X136022245Y-78023638D01*
X136246415Y-78086583D01*
X136434600Y-78016471D01*
X136434600Y-76025400D01*
X136485400Y-76025400D01*
X136485400Y-78016471D01*
X136673585Y-78086583D01*
X136897755Y-78023638D01*
X137294266Y-77770617D01*
X137563767Y-77385118D01*
X137665230Y-76925830D01*
X137665230Y-76025400D01*
X136485400Y-76025400D01*
X136434600Y-76025400D01*
X135254770Y-76025400D01*
X135176030Y-76025400D01*
X135176030Y-75074170D01*
X135254770Y-75074170D01*
X135254770Y-75974600D01*
X136434600Y-75974600D01*
X136434600Y-73983529D01*
X136485400Y-73983529D01*
X136485400Y-75974600D01*
X137665230Y-75974600D01*
X137665230Y-75074170D01*
X137661509Y-75057322D01*
X137743970Y-75057322D01*
X137743970Y-76942678D01*
X137839580Y-77423340D01*
X138111853Y-77830825D01*
X138519338Y-78103098D01*
X139000000Y-78198708D01*
X139480662Y-78103098D01*
X139888147Y-77830825D01*
X140160420Y-77423340D01*
X140256030Y-76942678D01*
X140256030Y-75057322D01*
X140160420Y-74576660D01*
X139888147Y-74169175D01*
X139480662Y-73896902D01*
X139000000Y-73801292D01*
X138519338Y-73896902D01*
X138111853Y-74169175D01*
X137839580Y-74576660D01*
X137743970Y-75057322D01*
X137661509Y-75057322D01*
X137563767Y-74614882D01*
X137294266Y-74229383D01*
X136897755Y-73976362D01*
X136673585Y-73913417D01*
X136485400Y-73983529D01*
X136434600Y-73983529D01*
X136246415Y-73913417D01*
X136022245Y-73976362D01*
X135625734Y-74229383D01*
X135356233Y-74614882D01*
X135254770Y-75074170D01*
X135176030Y-75074170D01*
X135176030Y-75057322D01*
X135080420Y-74576660D01*
X134808147Y-74169175D01*
X134707400Y-74101858D01*
X134707400Y-73487940D01*
X134647463Y-73186615D01*
X134476776Y-72931164D01*
X134475038Y-72929426D01*
X134475038Y-69817792D01*
X134552983Y-69938922D01*
X134688790Y-70031715D01*
X134850000Y-70064361D01*
X136150000Y-70064361D01*
X136300603Y-70036023D01*
X136438922Y-69947017D01*
X136531715Y-69811210D01*
X136558315Y-69679852D01*
X136856069Y-69679852D01*
X136918077Y-69844160D01*
X137285419Y-70002595D01*
X137685430Y-70008393D01*
X138057209Y-69860673D01*
X138081923Y-69844160D01*
X138143931Y-69679852D01*
X137500000Y-69035921D01*
X136856069Y-69679852D01*
X136558315Y-69679852D01*
X136564361Y-69650000D01*
X136564361Y-69368536D01*
X136639327Y-69557209D01*
X136655840Y-69581923D01*
X136820148Y-69643931D01*
X137464079Y-69000000D01*
X137535921Y-69000000D01*
X138179852Y-69643931D01*
X138344160Y-69581923D01*
X138502595Y-69214581D01*
X138508393Y-68814570D01*
X138360673Y-68442791D01*
X138344160Y-68418077D01*
X138179852Y-68356069D01*
X137535921Y-69000000D01*
X137464079Y-69000000D01*
X136820148Y-68356069D01*
X136655840Y-68418077D01*
X136564361Y-68630177D01*
X136564361Y-68350000D01*
X136558744Y-68320148D01*
X136856069Y-68320148D01*
X137500000Y-68964079D01*
X138143931Y-68320148D01*
X138081923Y-68155840D01*
X137714581Y-67997405D01*
X137314570Y-67991607D01*
X136942791Y-68139327D01*
X136918077Y-68155840D01*
X136856069Y-68320148D01*
X136558744Y-68320148D01*
X136536023Y-68199397D01*
X136447017Y-68061078D01*
X136311210Y-67968285D01*
X136150000Y-67935639D01*
X134850000Y-67935639D01*
X134794096Y-67946158D01*
X135697758Y-67042496D01*
X141791518Y-67042496D01*
X141898713Y-67301927D01*
X142097029Y-67500589D01*
X142356273Y-67608237D01*
X142520362Y-67608380D01*
X145029000Y-70117018D01*
X145029000Y-70279758D01*
X145116965Y-70721987D01*
X145367467Y-71096891D01*
X145742371Y-71347393D01*
X146184600Y-71435358D01*
X146626829Y-71347393D01*
X147001733Y-71096891D01*
X147252235Y-70721987D01*
X147340200Y-70279758D01*
X147340200Y-69826642D01*
X147252235Y-69384413D01*
X147001733Y-69009509D01*
X146626829Y-68759007D01*
X146184600Y-68671042D01*
X145742371Y-68759007D01*
X145367467Y-69009509D01*
X145335033Y-69058051D01*
X143202822Y-66925840D01*
X143202964Y-66763022D01*
X143095769Y-66503591D01*
X142897453Y-66304929D01*
X142638209Y-66197281D01*
X142357504Y-66197036D01*
X142098073Y-66304231D01*
X141899411Y-66502547D01*
X141791763Y-66761791D01*
X141791518Y-67042496D01*
X135697758Y-67042496D01*
X137202854Y-65537400D01*
X138300000Y-65537400D01*
X138326258Y-65532177D01*
X141717223Y-65532177D01*
X142018548Y-65472240D01*
X142273999Y-65301553D01*
X142458458Y-65117094D01*
X142568948Y-65282452D01*
X144417548Y-67131052D01*
X144615316Y-67263197D01*
X144848600Y-67309600D01*
X145040639Y-67309600D01*
X145040639Y-67850000D01*
X145068977Y-68000603D01*
X145157983Y-68138922D01*
X145293790Y-68231715D01*
X145455000Y-68264361D01*
X146055000Y-68264361D01*
X146205603Y-68236023D01*
X146343922Y-68147017D01*
X146420984Y-68034233D01*
X146465110Y-68102807D01*
X146583942Y-68184001D01*
X146725000Y-68212566D01*
X147325000Y-68212566D01*
X147456777Y-68187770D01*
X147577807Y-68109890D01*
X147659001Y-67991058D01*
X147660007Y-67986092D01*
X147735110Y-68102807D01*
X147812400Y-68155617D01*
X147812400Y-71705100D01*
X146900100Y-72617400D01*
X140999900Y-72617400D01*
X140541250Y-72158750D01*
X140384683Y-72054136D01*
X140200000Y-72017400D01*
X136015241Y-72017400D01*
X135900212Y-71902170D01*
X135640968Y-71794522D01*
X135360263Y-71794277D01*
X135100832Y-71901472D01*
X134902170Y-72099788D01*
X134794522Y-72359032D01*
X134794277Y-72639737D01*
X134901472Y-72899168D01*
X135099788Y-73097830D01*
X135359032Y-73205478D01*
X135639737Y-73205723D01*
X135899168Y-73098528D01*
X136015298Y-72982600D01*
X140000100Y-72982600D01*
X140458750Y-73441250D01*
X140615317Y-73545864D01*
X140800000Y-73582600D01*
X147100000Y-73582600D01*
X147284683Y-73545864D01*
X147441250Y-73441250D01*
X148636250Y-72246250D01*
X148740864Y-72089683D01*
X148777600Y-71905000D01*
X148777600Y-68155067D01*
X148847807Y-68109890D01*
X148929001Y-67991058D01*
X148932130Y-67975607D01*
X148963537Y-68051431D01*
X149063569Y-68151463D01*
X149194267Y-68205600D01*
X149450700Y-68205600D01*
X149539600Y-68116700D01*
X149539600Y-67125400D01*
X149519600Y-67125400D01*
X149519600Y-67074600D01*
X149539600Y-67074600D01*
X149539600Y-67054600D01*
X149590400Y-67054600D01*
X149590400Y-67074600D01*
X149610400Y-67074600D01*
X149610400Y-67125400D01*
X149590400Y-67125400D01*
X149590400Y-68116700D01*
X149679300Y-68205600D01*
X149935733Y-68205600D01*
X150066431Y-68151463D01*
X150166463Y-68051431D01*
X150196632Y-67978597D01*
X150197230Y-67981777D01*
X150275110Y-68102807D01*
X150393942Y-68184001D01*
X150535000Y-68212566D01*
X151135000Y-68212566D01*
X151266777Y-68187770D01*
X151387807Y-68109890D01*
X151469001Y-67991058D01*
X151470007Y-67986092D01*
X151545110Y-68102807D01*
X151622400Y-68155617D01*
X151622400Y-70779954D01*
X148568903Y-73833450D01*
X148406085Y-73833308D01*
X148146654Y-73940503D01*
X147947992Y-74138819D01*
X147840344Y-74398063D01*
X147840099Y-74678768D01*
X147947294Y-74938199D01*
X148145610Y-75136861D01*
X148404854Y-75244509D01*
X148685559Y-75244754D01*
X148944990Y-75137559D01*
X149143652Y-74939243D01*
X149251300Y-74679999D01*
X149251443Y-74515910D01*
X152446247Y-71321105D01*
X152446250Y-71321103D01*
X152550864Y-71164536D01*
X152587600Y-70979853D01*
X152587600Y-70078600D01*
X155029000Y-70078600D01*
X155029000Y-70278600D01*
X155126685Y-70718896D01*
X155385428Y-71088294D01*
X155765838Y-71330556D01*
X155978781Y-71390324D01*
X156159200Y-71319598D01*
X156159200Y-70078600D01*
X156210000Y-70078600D01*
X156210000Y-71319598D01*
X156390419Y-71390324D01*
X156603362Y-71330556D01*
X156983772Y-71088294D01*
X157242515Y-70718896D01*
X157340200Y-70278600D01*
X157340200Y-70078600D01*
X156210000Y-70078600D01*
X156159200Y-70078600D01*
X155029000Y-70078600D01*
X152587600Y-70078600D01*
X152587600Y-69827800D01*
X155029000Y-69827800D01*
X155029000Y-70027800D01*
X156159200Y-70027800D01*
X156159200Y-68786802D01*
X156210000Y-68786802D01*
X156210000Y-70027800D01*
X157340200Y-70027800D01*
X157340200Y-69827800D01*
X157242515Y-69387504D01*
X156983772Y-69018106D01*
X156603362Y-68775844D01*
X156390419Y-68716076D01*
X156210000Y-68786802D01*
X156159200Y-68786802D01*
X155978781Y-68716076D01*
X155765838Y-68775844D01*
X155385428Y-69018106D01*
X155126685Y-69387504D01*
X155029000Y-69827800D01*
X152587600Y-69827800D01*
X152587600Y-68155067D01*
X152657807Y-68109890D01*
X152710076Y-68033392D01*
X152777983Y-68138922D01*
X152913790Y-68231715D01*
X153075000Y-68264361D01*
X153675000Y-68264361D01*
X153825603Y-68236023D01*
X153963922Y-68147017D01*
X154040984Y-68034233D01*
X154085110Y-68102807D01*
X154203942Y-68184001D01*
X154345000Y-68212566D01*
X154945000Y-68212566D01*
X155076777Y-68187770D01*
X155197807Y-68109890D01*
X155279001Y-67991058D01*
X155307566Y-67850000D01*
X155307566Y-66350000D01*
X155282770Y-66218223D01*
X155204890Y-66097193D01*
X155086058Y-66015999D01*
X154945000Y-65987434D01*
X154345000Y-65987434D01*
X154213223Y-66012230D01*
X154092193Y-66090110D01*
X154039924Y-66166608D01*
X153972017Y-66061078D01*
X153908400Y-66017610D01*
X153908400Y-65675000D01*
X153893220Y-65598684D01*
X153867797Y-65470876D01*
X153821484Y-65401563D01*
X153752171Y-65297829D01*
X153752168Y-65297827D01*
X153277171Y-64822829D01*
X153104123Y-64707203D01*
X152900000Y-64666600D01*
X152436310Y-64666600D01*
X152349365Y-64579503D01*
X153990557Y-64579503D01*
X159752304Y-70341250D01*
X159908871Y-70445864D01*
X160093554Y-70482600D01*
X161733197Y-70482600D01*
X161850541Y-70766594D01*
X162231401Y-71148120D01*
X162729273Y-71354854D01*
X163268362Y-71355325D01*
X163766594Y-71149459D01*
X164148120Y-70768599D01*
X164217400Y-70601754D01*
X164217400Y-71100100D01*
X163554515Y-71762985D01*
X163270727Y-71645146D01*
X162731638Y-71644675D01*
X162233406Y-71850541D01*
X161851880Y-72231401D01*
X161645146Y-72729273D01*
X161644675Y-73268362D01*
X161850541Y-73766594D01*
X162231401Y-74148120D01*
X162729273Y-74354854D01*
X163268362Y-74355325D01*
X163766594Y-74149459D01*
X164148120Y-73768599D01*
X164354854Y-73270727D01*
X164355325Y-72731638D01*
X164237067Y-72445433D01*
X165041250Y-71641250D01*
X165145864Y-71484683D01*
X165182600Y-71300000D01*
X165182600Y-69783536D01*
X165206974Y-69807910D01*
X165206974Y-73110526D01*
X163554515Y-74762985D01*
X163270727Y-74645146D01*
X162731638Y-74644675D01*
X162233406Y-74850541D01*
X161851880Y-75231401D01*
X161645146Y-75729273D01*
X161644675Y-76268362D01*
X161850541Y-76766594D01*
X162231401Y-77148120D01*
X162729273Y-77354854D01*
X163268362Y-77355325D01*
X163766594Y-77149459D01*
X164148120Y-76768599D01*
X164354854Y-76270727D01*
X164355325Y-75731638D01*
X164237067Y-75445433D01*
X166030824Y-73651676D01*
X166135438Y-73495109D01*
X166172174Y-73310426D01*
X166172174Y-70054674D01*
X167117400Y-70999900D01*
X167117400Y-73800000D01*
X167154136Y-73984683D01*
X167258750Y-74141250D01*
X171040080Y-77922580D01*
X171196647Y-78027194D01*
X171381330Y-78063930D01*
X174718670Y-78063930D01*
X174903353Y-78027194D01*
X175059920Y-77922580D01*
X176614137Y-76368362D01*
X178544675Y-76368362D01*
X178750541Y-76866594D01*
X179131401Y-77248120D01*
X179629273Y-77454854D01*
X180168362Y-77455325D01*
X180666594Y-77249459D01*
X181048120Y-76868599D01*
X181254854Y-76370727D01*
X181255325Y-75831638D01*
X181049459Y-75333406D01*
X180668599Y-74951880D01*
X180170727Y-74745146D01*
X179631638Y-74744675D01*
X179133406Y-74950541D01*
X178751880Y-75331401D01*
X178545146Y-75829273D01*
X178544675Y-76368362D01*
X176614137Y-76368362D01*
X176941247Y-76041252D01*
X176941250Y-76041250D01*
X177045864Y-75884683D01*
X177082600Y-75700000D01*
X177082600Y-73268362D01*
X178544675Y-73268362D01*
X178750541Y-73766594D01*
X179131401Y-74148120D01*
X179629273Y-74354854D01*
X180168362Y-74355325D01*
X180666594Y-74149459D01*
X181048120Y-73768599D01*
X181254854Y-73270727D01*
X181255325Y-72731638D01*
X181049459Y-72233406D01*
X180668599Y-71851880D01*
X180170727Y-71645146D01*
X179631638Y-71644675D01*
X179133406Y-71850541D01*
X178751880Y-72231401D01*
X178545146Y-72729273D01*
X178544675Y-73268362D01*
X177082600Y-73268362D01*
X177082600Y-71599900D01*
X178199900Y-70482600D01*
X178573197Y-70482600D01*
X178690541Y-70766594D01*
X179071401Y-71148120D01*
X179569273Y-71354854D01*
X180108362Y-71355325D01*
X180606594Y-71149459D01*
X180988120Y-70768599D01*
X181194854Y-70270727D01*
X181195325Y-69731638D01*
X180989459Y-69233406D01*
X180608599Y-68851880D01*
X180110727Y-68645146D01*
X179571638Y-68644675D01*
X179073406Y-68850541D01*
X178691880Y-69231401D01*
X178573123Y-69517400D01*
X178000000Y-69517400D01*
X177815317Y-69554136D01*
X177658750Y-69658750D01*
X176258750Y-71058750D01*
X176154136Y-71215317D01*
X176117400Y-71400000D01*
X176117400Y-75500101D01*
X174518770Y-77098730D01*
X173977412Y-77098730D01*
X174308120Y-76768599D01*
X174514854Y-76270727D01*
X174515325Y-75731638D01*
X174309459Y-75233406D01*
X173928599Y-74851880D01*
X173430727Y-74645146D01*
X172891638Y-74644675D01*
X172393406Y-74850541D01*
X172011880Y-75231401D01*
X171899436Y-75502198D01*
X171063429Y-75502198D01*
X168862044Y-73300813D01*
X168862044Y-70815200D01*
X168825308Y-70630517D01*
X168720694Y-70473950D01*
X163212600Y-64965856D01*
X163212600Y-64949972D01*
X163299348Y-64892009D01*
X163372746Y-64782161D01*
X163448613Y-64888299D01*
X163715338Y-65054599D01*
X163849018Y-65091887D01*
X163974600Y-65016820D01*
X163974600Y-64025400D01*
X164025400Y-64025400D01*
X164025400Y-65016820D01*
X164150982Y-65091887D01*
X164284662Y-65054599D01*
X164551387Y-64888299D01*
X164734169Y-64632586D01*
X164805180Y-64326390D01*
X164805180Y-64025400D01*
X164025400Y-64025400D01*
X163974600Y-64025400D01*
X163954600Y-64025400D01*
X163954600Y-63974600D01*
X163974600Y-63974600D01*
X163974600Y-62983180D01*
X164025400Y-62983180D01*
X164025400Y-63974600D01*
X164805180Y-63974600D01*
X164805180Y-63673610D01*
X164734169Y-63367414D01*
X164551387Y-63111701D01*
X164284662Y-62945401D01*
X164150982Y-62908113D01*
X164025400Y-62983180D01*
X163974600Y-62983180D01*
X163849018Y-62908113D01*
X163715338Y-62945401D01*
X163448613Y-63111701D01*
X163372746Y-63217839D01*
X163299348Y-63107991D01*
X163038129Y-62933450D01*
X162929640Y-62911870D01*
X163299900Y-62541610D01*
X165240990Y-62541610D01*
X165425673Y-62504874D01*
X165582240Y-62400260D01*
X168247400Y-59735100D01*
X168247400Y-63050028D01*
X168160652Y-63107991D01*
X167986111Y-63369210D01*
X167924820Y-63677339D01*
X167924820Y-64322661D01*
X167986111Y-64630790D01*
X168160652Y-64892009D01*
X168421871Y-65066550D01*
X168730000Y-65127841D01*
X169038129Y-65066550D01*
X169299348Y-64892009D01*
X169365000Y-64793754D01*
X169430652Y-64892009D01*
X169517400Y-64949972D01*
X169517400Y-69840000D01*
X169554136Y-70024683D01*
X169658750Y-70181250D01*
X171922985Y-72445485D01*
X171805146Y-72729273D01*
X171804675Y-73268362D01*
X172010541Y-73766594D01*
X172391401Y-74148120D01*
X172889273Y-74354854D01*
X173428362Y-74355325D01*
X173926594Y-74149459D01*
X174308120Y-73768599D01*
X174514854Y-73270727D01*
X174515325Y-72731638D01*
X174309459Y-72233406D01*
X173928599Y-71851880D01*
X173430727Y-71645146D01*
X172891638Y-71644675D01*
X172605433Y-71762933D01*
X171110862Y-70268362D01*
X171804675Y-70268362D01*
X172010541Y-70766594D01*
X172391401Y-71148120D01*
X172889273Y-71354854D01*
X173428362Y-71355325D01*
X173926594Y-71149459D01*
X174308120Y-70768599D01*
X174514854Y-70270727D01*
X174515325Y-69731638D01*
X174309459Y-69233406D01*
X173928599Y-68851880D01*
X173642600Y-68733123D01*
X173642600Y-63677339D01*
X174924820Y-63677339D01*
X174924820Y-64322661D01*
X174986111Y-64630790D01*
X175160652Y-64892009D01*
X175421871Y-65066550D01*
X175730000Y-65127841D01*
X176038129Y-65066550D01*
X176299348Y-64892009D01*
X176365000Y-64793754D01*
X176430652Y-64892009D01*
X176517400Y-64949972D01*
X176517400Y-65004570D01*
X176554136Y-65189253D01*
X176658750Y-65345820D01*
X178904178Y-67591247D01*
X178904180Y-67591250D01*
X179022272Y-67670156D01*
X179060747Y-67695864D01*
X179245430Y-67732601D01*
X179245435Y-67732600D01*
X180500100Y-67732600D01*
X188705051Y-75937550D01*
X188704675Y-76368362D01*
X188910541Y-76866594D01*
X189291401Y-77248120D01*
X189789273Y-77454854D01*
X190328362Y-77455325D01*
X190826594Y-77249459D01*
X191208120Y-76868599D01*
X191414854Y-76370727D01*
X191415325Y-75831638D01*
X191209459Y-75333406D01*
X190828599Y-74951880D01*
X190330727Y-74745146D01*
X189791638Y-74744675D01*
X189293406Y-74950541D01*
X189188131Y-75055632D01*
X181041250Y-66908750D01*
X180884683Y-66804136D01*
X180700000Y-66767400D01*
X179445329Y-66767400D01*
X177569585Y-64891655D01*
X177642746Y-64782161D01*
X177718613Y-64888299D01*
X177985338Y-65054599D01*
X178119018Y-65091887D01*
X178244600Y-65016820D01*
X178244600Y-64025400D01*
X178295400Y-64025400D01*
X178295400Y-65016820D01*
X178420982Y-65091887D01*
X178554662Y-65054599D01*
X178821387Y-64888299D01*
X179004169Y-64632586D01*
X179075180Y-64326390D01*
X179075180Y-64025400D01*
X178295400Y-64025400D01*
X178244600Y-64025400D01*
X178224600Y-64025400D01*
X178224600Y-63974600D01*
X178244600Y-63974600D01*
X178244600Y-62983180D01*
X178295400Y-62983180D01*
X178295400Y-63974600D01*
X179075180Y-63974600D01*
X179075180Y-63673610D01*
X179004169Y-63367414D01*
X178821387Y-63111701D01*
X178554662Y-62945401D01*
X178420982Y-62908113D01*
X178295400Y-62983180D01*
X178244600Y-62983180D01*
X178119018Y-62908113D01*
X177985338Y-62945401D01*
X177718613Y-63111701D01*
X177642746Y-63217839D01*
X177569348Y-63107991D01*
X177308129Y-62933450D01*
X177000000Y-62872159D01*
X176691871Y-62933450D01*
X176430652Y-63107991D01*
X176365000Y-63206246D01*
X176299348Y-63107991D01*
X176212600Y-63050028D01*
X176212600Y-58533900D01*
X177080471Y-57666029D01*
X177140394Y-57755711D01*
X177450413Y-57962859D01*
X177816105Y-58035600D01*
X178183895Y-58035600D01*
X178549587Y-57962859D01*
X178859606Y-57755711D01*
X179066754Y-57445692D01*
X179116932Y-57193432D01*
X179509389Y-57585889D01*
X179509389Y-60960999D01*
X179546125Y-61145682D01*
X179650739Y-61302249D01*
X181941579Y-63593089D01*
X181924820Y-63677339D01*
X181924820Y-64322661D01*
X181986111Y-64630790D01*
X182160652Y-64892009D01*
X182421871Y-65066550D01*
X182730000Y-65127841D01*
X183038129Y-65066550D01*
X183299348Y-64892009D01*
X183365000Y-64793754D01*
X183430652Y-64892009D01*
X183517400Y-64949972D01*
X183517400Y-67900000D01*
X183554136Y-68084683D01*
X183658750Y-68241250D01*
X188717922Y-73300422D01*
X188910541Y-73766594D01*
X189291401Y-74148120D01*
X189789273Y-74354854D01*
X190328362Y-74355325D01*
X190826594Y-74149459D01*
X191208120Y-73768599D01*
X191374677Y-73367482D01*
X193144079Y-73367482D01*
X193425982Y-74049740D01*
X193947515Y-74572184D01*
X194629279Y-74855277D01*
X195367482Y-74855921D01*
X196049740Y-74574018D01*
X196572184Y-74052485D01*
X196855277Y-73370721D01*
X196855921Y-72632518D01*
X196574018Y-71950260D01*
X196052485Y-71427816D01*
X195370721Y-71144723D01*
X194632518Y-71144079D01*
X193950260Y-71425982D01*
X193427816Y-71947515D01*
X193144723Y-72629279D01*
X193144079Y-73367482D01*
X191374677Y-73367482D01*
X191414854Y-73270727D01*
X191415325Y-72731638D01*
X191209459Y-72233406D01*
X190828599Y-71851880D01*
X190330727Y-71645146D01*
X189791638Y-71644675D01*
X189293406Y-71850541D01*
X188962935Y-72180435D01*
X184482600Y-67700100D01*
X184482600Y-64949972D01*
X184569348Y-64892009D01*
X184642746Y-64782161D01*
X184718613Y-64888299D01*
X184985338Y-65054599D01*
X185119018Y-65091887D01*
X185244600Y-65016820D01*
X185244600Y-64025400D01*
X185295400Y-64025400D01*
X185295400Y-65016820D01*
X185420982Y-65091887D01*
X185554662Y-65054599D01*
X185821387Y-64888299D01*
X186004169Y-64632586D01*
X186075180Y-64326390D01*
X186075180Y-64025400D01*
X185295400Y-64025400D01*
X185244600Y-64025400D01*
X185224600Y-64025400D01*
X185224600Y-63974600D01*
X185244600Y-63974600D01*
X185244600Y-62983180D01*
X185295400Y-62983180D01*
X185295400Y-63974600D01*
X186075180Y-63974600D01*
X186075180Y-63673610D01*
X186004169Y-63367414D01*
X185821387Y-63111701D01*
X185554662Y-62945401D01*
X185420982Y-62908113D01*
X185295400Y-62983180D01*
X185244600Y-62983180D01*
X185119018Y-62908113D01*
X184985338Y-62945401D01*
X184718613Y-63111701D01*
X184642746Y-63217839D01*
X184569348Y-63107991D01*
X184308129Y-62933450D01*
X184000000Y-62872159D01*
X183691871Y-62933450D01*
X183430652Y-63107991D01*
X183365000Y-63206246D01*
X183299348Y-63107991D01*
X183038129Y-62933450D01*
X182730000Y-62872159D01*
X182609598Y-62896108D01*
X180474589Y-60761099D01*
X180474589Y-60407089D01*
X182658750Y-62591250D01*
X182815317Y-62695864D01*
X183000000Y-62732600D01*
X187806520Y-62732600D01*
X189415170Y-64341250D01*
X189571737Y-64445864D01*
X189683759Y-64468147D01*
X189716111Y-64630790D01*
X189890652Y-64892009D01*
X190151871Y-65066550D01*
X190460000Y-65127841D01*
X190768129Y-65066550D01*
X191029348Y-64892009D01*
X191095000Y-64793754D01*
X191160652Y-64892009D01*
X191247400Y-64949972D01*
X191247400Y-68070101D01*
X190554516Y-68762985D01*
X190270727Y-68645146D01*
X189731638Y-68644675D01*
X189233406Y-68850541D01*
X188851880Y-69231401D01*
X188645146Y-69729273D01*
X188644675Y-70268362D01*
X188850541Y-70766594D01*
X189231401Y-71148120D01*
X189729273Y-71354854D01*
X190268362Y-71355325D01*
X190766594Y-71149459D01*
X191148120Y-70768599D01*
X191354854Y-70270727D01*
X191355325Y-69731638D01*
X191237067Y-69445433D01*
X192071247Y-68611252D01*
X192071250Y-68611250D01*
X192175864Y-68454683D01*
X192212600Y-68270000D01*
X192212600Y-66025400D01*
X196394400Y-66025400D01*
X196394400Y-66275400D01*
X196488279Y-66696561D01*
X196736183Y-67049737D01*
X197100371Y-67281161D01*
X197302004Y-67337726D01*
X197474600Y-67266383D01*
X197474600Y-66025400D01*
X197525400Y-66025400D01*
X197525400Y-67266383D01*
X197697996Y-67337726D01*
X197899629Y-67281161D01*
X198263817Y-67049737D01*
X198511721Y-66696561D01*
X198605600Y-66275400D01*
X198605600Y-66025400D01*
X197525400Y-66025400D01*
X197474600Y-66025400D01*
X196394400Y-66025400D01*
X192212600Y-66025400D01*
X192212600Y-65724600D01*
X196394400Y-65724600D01*
X196394400Y-65974600D01*
X197474600Y-65974600D01*
X197474600Y-64733617D01*
X197525400Y-64733617D01*
X197525400Y-65974600D01*
X198605600Y-65974600D01*
X198605600Y-65724600D01*
X198605342Y-65723442D01*
X198894400Y-65723442D01*
X198894400Y-66276558D01*
X198978559Y-66699653D01*
X199218223Y-67058335D01*
X199576905Y-67297999D01*
X200000000Y-67382158D01*
X200423095Y-67297999D01*
X200781777Y-67058335D01*
X201021441Y-66699653D01*
X201105600Y-66276558D01*
X201105600Y-65723442D01*
X201021441Y-65300347D01*
X200781777Y-64941665D01*
X200423095Y-64702001D01*
X200000000Y-64617842D01*
X199576905Y-64702001D01*
X199218223Y-64941665D01*
X198978559Y-65300347D01*
X198894400Y-65723442D01*
X198605342Y-65723442D01*
X198511721Y-65303439D01*
X198263817Y-64950263D01*
X197899629Y-64718839D01*
X197697996Y-64662274D01*
X197525400Y-64733617D01*
X197474600Y-64733617D01*
X197302004Y-64662274D01*
X197100371Y-64718839D01*
X196736183Y-64950263D01*
X196488279Y-65303439D01*
X196394400Y-65724600D01*
X192212600Y-65724600D01*
X192212600Y-64949972D01*
X192299348Y-64892009D01*
X192372746Y-64782161D01*
X192448613Y-64888299D01*
X192715338Y-65054599D01*
X192849018Y-65091887D01*
X192974600Y-65016820D01*
X192974600Y-64025400D01*
X193025400Y-64025400D01*
X193025400Y-65016820D01*
X193150982Y-65091887D01*
X193284662Y-65054599D01*
X193551387Y-64888299D01*
X193734169Y-64632586D01*
X193805180Y-64326390D01*
X193805180Y-64025400D01*
X193025400Y-64025400D01*
X192974600Y-64025400D01*
X192954600Y-64025400D01*
X192954600Y-63974600D01*
X192974600Y-63974600D01*
X192974600Y-62983180D01*
X193025400Y-62983180D01*
X193025400Y-63974600D01*
X193805180Y-63974600D01*
X193805180Y-63673610D01*
X193734169Y-63367414D01*
X193551387Y-63111701D01*
X193284662Y-62945401D01*
X193150982Y-62908113D01*
X193025400Y-62983180D01*
X192974600Y-62983180D01*
X192849018Y-62908113D01*
X192715338Y-62945401D01*
X192448613Y-63111701D01*
X192372746Y-63217839D01*
X192299348Y-63107991D01*
X192038129Y-62933450D01*
X191730000Y-62872159D01*
X191421871Y-62933450D01*
X191160652Y-63107991D01*
X191095000Y-63206246D01*
X191029348Y-63107991D01*
X190768129Y-62933450D01*
X190460000Y-62872159D01*
X190151871Y-62933450D01*
X189890652Y-63107991D01*
X189752969Y-63314049D01*
X188347670Y-61908750D01*
X188191103Y-61804136D01*
X188006420Y-61767400D01*
X183199900Y-61767400D01*
X181457900Y-60025400D01*
X197624820Y-60025400D01*
X197624820Y-60326390D01*
X197695831Y-60632586D01*
X197878613Y-60888299D01*
X198145338Y-61054599D01*
X198279018Y-61091887D01*
X198404600Y-61016820D01*
X198404600Y-60025400D01*
X197624820Y-60025400D01*
X181457900Y-60025400D01*
X181106110Y-59673610D01*
X197624820Y-59673610D01*
X197624820Y-59974600D01*
X198404600Y-59974600D01*
X198404600Y-58983180D01*
X198279018Y-58908113D01*
X198145338Y-58945401D01*
X197878613Y-59111701D01*
X197695831Y-59367414D01*
X197624820Y-59673610D01*
X181106110Y-59673610D01*
X180982600Y-59550100D01*
X180982600Y-58281962D01*
X182515275Y-58281962D01*
X182721141Y-58780194D01*
X183102001Y-59161720D01*
X183599873Y-59368454D01*
X184138962Y-59368925D01*
X184637194Y-59163059D01*
X185018720Y-58782199D01*
X185225454Y-58284327D01*
X185225456Y-58281962D01*
X192675275Y-58281962D01*
X192881141Y-58780194D01*
X193262001Y-59161720D01*
X193759873Y-59368454D01*
X194298962Y-59368925D01*
X194797194Y-59163059D01*
X195178720Y-58782199D01*
X195385454Y-58284327D01*
X195385925Y-57745238D01*
X195180059Y-57247006D01*
X194799199Y-56865480D01*
X194301327Y-56658746D01*
X193762238Y-56658275D01*
X193264006Y-56864141D01*
X192882480Y-57245001D01*
X192675746Y-57742873D01*
X192675275Y-58281962D01*
X185225456Y-58281962D01*
X185225925Y-57745238D01*
X185020059Y-57247006D01*
X184639199Y-56865480D01*
X184141327Y-56658746D01*
X183602238Y-56658275D01*
X183104006Y-56864141D01*
X182722480Y-57245001D01*
X182515746Y-57742873D01*
X182515275Y-58281962D01*
X180982600Y-58281962D01*
X180982600Y-55268362D01*
X182484675Y-55268362D01*
X182690541Y-55766594D01*
X183071401Y-56148120D01*
X183569273Y-56354854D01*
X184108362Y-56355325D01*
X184606594Y-56149459D01*
X184988120Y-55768599D01*
X185194854Y-55270727D01*
X185194856Y-55268362D01*
X192644675Y-55268362D01*
X192850541Y-55766594D01*
X193231401Y-56148120D01*
X193729273Y-56354854D01*
X194268362Y-56355325D01*
X194766594Y-56149459D01*
X195148120Y-55768599D01*
X195354854Y-55270727D01*
X195355068Y-55025400D01*
X197654820Y-55025400D01*
X197654820Y-55326390D01*
X197725831Y-55632586D01*
X197908613Y-55888299D01*
X198175338Y-56054599D01*
X198309018Y-56091887D01*
X198434600Y-56016820D01*
X198434600Y-55025400D01*
X197654820Y-55025400D01*
X195355068Y-55025400D01*
X195355325Y-54731638D01*
X195331349Y-54673610D01*
X197654820Y-54673610D01*
X197654820Y-54974600D01*
X198434600Y-54974600D01*
X198434600Y-53983180D01*
X198309018Y-53908113D01*
X198175338Y-53945401D01*
X197908613Y-54111701D01*
X197725831Y-54367414D01*
X197654820Y-54673610D01*
X195331349Y-54673610D01*
X195149459Y-54233406D01*
X194768599Y-53851880D01*
X194270727Y-53645146D01*
X193731638Y-53644675D01*
X193233406Y-53850541D01*
X192851880Y-54231401D01*
X192645146Y-54729273D01*
X192644675Y-55268362D01*
X185194856Y-55268362D01*
X185195325Y-54731638D01*
X184989459Y-54233406D01*
X184608599Y-53851880D01*
X184110727Y-53645146D01*
X183571638Y-53644675D01*
X183073406Y-53850541D01*
X182691880Y-54231401D01*
X182485146Y-54729273D01*
X182484675Y-55268362D01*
X180982600Y-55268362D01*
X180982600Y-52268362D01*
X182484675Y-52268362D01*
X182690541Y-52766594D01*
X183071401Y-53148120D01*
X183569273Y-53354854D01*
X184108362Y-53355325D01*
X184606594Y-53149459D01*
X184988120Y-52768599D01*
X185194854Y-52270727D01*
X185194856Y-52268362D01*
X192644675Y-52268362D01*
X192850541Y-52766594D01*
X193231401Y-53148120D01*
X193729273Y-53354854D01*
X194268362Y-53355325D01*
X194766594Y-53149459D01*
X195148120Y-52768599D01*
X195354854Y-52270727D01*
X195355325Y-51731638D01*
X195149459Y-51233406D01*
X194768599Y-50851880D01*
X194270727Y-50645146D01*
X193731638Y-50644675D01*
X193233406Y-50850541D01*
X192851880Y-51231401D01*
X192645146Y-51729273D01*
X192644675Y-52268362D01*
X185194856Y-52268362D01*
X185195325Y-51731638D01*
X184989459Y-51233406D01*
X184608599Y-50851880D01*
X184110727Y-50645146D01*
X183571638Y-50644675D01*
X183073406Y-50850541D01*
X182691880Y-51231401D01*
X182485146Y-51729273D01*
X182484675Y-52268362D01*
X180982600Y-52268362D01*
X180982600Y-50944000D01*
X180945864Y-50759317D01*
X180841250Y-50602750D01*
X179506862Y-49268362D01*
X182494675Y-49268362D01*
X182700541Y-49766594D01*
X183081401Y-50148120D01*
X183579273Y-50354854D01*
X184118362Y-50355325D01*
X184616594Y-50149459D01*
X184998120Y-49768599D01*
X185204854Y-49270727D01*
X185205325Y-48731638D01*
X184999459Y-48233406D01*
X184618599Y-47851880D01*
X184120727Y-47645146D01*
X183581638Y-47644675D01*
X183083406Y-47850541D01*
X182701880Y-48231401D01*
X182495146Y-48729273D01*
X182494675Y-49268362D01*
X179506862Y-49268362D01*
X179357250Y-49118750D01*
X179200683Y-49014136D01*
X179016000Y-48977400D01*
X178988639Y-48977400D01*
X178859606Y-48784289D01*
X178549587Y-48577141D01*
X178183895Y-48504400D01*
X177816105Y-48504400D01*
X177450413Y-48577141D01*
X177140394Y-48784289D01*
X176933246Y-49094308D01*
X176860505Y-49460000D01*
X176933246Y-49825692D01*
X177140394Y-50135711D01*
X177450413Y-50342859D01*
X177816105Y-50415600D01*
X178183895Y-50415600D01*
X178549587Y-50342859D01*
X178859606Y-50135711D01*
X178919529Y-50046029D01*
X180017400Y-51143900D01*
X180017400Y-56728900D01*
X178646562Y-55358062D01*
X178859606Y-55215711D01*
X179066754Y-54905692D01*
X179139495Y-54540000D01*
X179066754Y-54174308D01*
X178859606Y-53864289D01*
X178549587Y-53657141D01*
X178183895Y-53584400D01*
X177816105Y-53584400D01*
X177450413Y-53657141D01*
X177140394Y-53864289D01*
X176933246Y-54174308D01*
X176860505Y-54540000D01*
X176933246Y-54905692D01*
X177140394Y-55215711D01*
X177450413Y-55422859D01*
X177526137Y-55437921D01*
X177554136Y-55578683D01*
X177658750Y-55735250D01*
X178047900Y-56124400D01*
X177816105Y-56124400D01*
X177450413Y-56197141D01*
X177140394Y-56404289D01*
X177011361Y-56597400D01*
X176984005Y-56597400D01*
X176984000Y-56597399D01*
X176799317Y-56634136D01*
X176642750Y-56738750D01*
X175388750Y-57992750D01*
X175284136Y-58149317D01*
X175247400Y-58334000D01*
X175247400Y-63050028D01*
X175160652Y-63107991D01*
X174986111Y-63369210D01*
X174924820Y-63677339D01*
X173642600Y-63677339D01*
X173642600Y-56877900D01*
X177606578Y-52913922D01*
X177816105Y-52955600D01*
X178183895Y-52955600D01*
X178549587Y-52882859D01*
X178859606Y-52675711D01*
X179066754Y-52365692D01*
X179139495Y-52000000D01*
X179066754Y-51634308D01*
X178859606Y-51324289D01*
X178549587Y-51117141D01*
X178183895Y-51044400D01*
X177816105Y-51044400D01*
X177450413Y-51117141D01*
X177140394Y-51324289D01*
X176933246Y-51634308D01*
X176860505Y-52000000D01*
X176909448Y-52246052D01*
X172818750Y-56336750D01*
X172714136Y-56493317D01*
X172677400Y-56678000D01*
X172677400Y-68733197D01*
X172393406Y-68850541D01*
X172011880Y-69231401D01*
X171805146Y-69729273D01*
X171804675Y-70268362D01*
X171110862Y-70268362D01*
X170482600Y-69640100D01*
X170482600Y-64949972D01*
X170569348Y-64892009D01*
X170642746Y-64782161D01*
X170718613Y-64888299D01*
X170985338Y-65054599D01*
X171119018Y-65091887D01*
X171244600Y-65016820D01*
X171244600Y-64025400D01*
X171295400Y-64025400D01*
X171295400Y-65016820D01*
X171420982Y-65091887D01*
X171554662Y-65054599D01*
X171821387Y-64888299D01*
X172004169Y-64632586D01*
X172075180Y-64326390D01*
X172075180Y-64025400D01*
X171295400Y-64025400D01*
X171244600Y-64025400D01*
X171224600Y-64025400D01*
X171224600Y-63974600D01*
X171244600Y-63974600D01*
X171244600Y-62983180D01*
X171295400Y-62983180D01*
X171295400Y-63974600D01*
X172075180Y-63974600D01*
X172075180Y-63673610D01*
X172004169Y-63367414D01*
X171821387Y-63111701D01*
X171554662Y-62945401D01*
X171420982Y-62908113D01*
X171295400Y-62983180D01*
X171244600Y-62983180D01*
X171119018Y-62908113D01*
X170985338Y-62945401D01*
X170718613Y-63111701D01*
X170642746Y-63217839D01*
X170569348Y-63107991D01*
X170308129Y-62933450D01*
X170000000Y-62872159D01*
X169691871Y-62933450D01*
X169430652Y-63107991D01*
X169365000Y-63206246D01*
X169299348Y-63107991D01*
X169212600Y-63050028D01*
X169212600Y-57080000D01*
X169240505Y-57080000D01*
X169313246Y-57445692D01*
X169520394Y-57755711D01*
X169830413Y-57962859D01*
X170196105Y-58035600D01*
X170563895Y-58035600D01*
X170929587Y-57962859D01*
X171239606Y-57755711D01*
X171446754Y-57445692D01*
X171519495Y-57080000D01*
X171446754Y-56714308D01*
X171239606Y-56404289D01*
X170929587Y-56197141D01*
X170563895Y-56124400D01*
X170196105Y-56124400D01*
X169830413Y-56197141D01*
X169520394Y-56404289D01*
X169313246Y-56714308D01*
X169240505Y-57080000D01*
X169212600Y-57080000D01*
X169212600Y-54540000D01*
X169240505Y-54540000D01*
X169313246Y-54905692D01*
X169520394Y-55215711D01*
X169830413Y-55422859D01*
X170196105Y-55495600D01*
X170563895Y-55495600D01*
X170929587Y-55422859D01*
X171239606Y-55215711D01*
X171446754Y-54905692D01*
X171519495Y-54540000D01*
X171446754Y-54174308D01*
X171239606Y-53864289D01*
X170929587Y-53657141D01*
X170563895Y-53584400D01*
X170196105Y-53584400D01*
X169830413Y-53657141D01*
X169520394Y-53864289D01*
X169313246Y-54174308D01*
X169240505Y-54540000D01*
X169212600Y-54540000D01*
X169212600Y-52000000D01*
X169240505Y-52000000D01*
X169313246Y-52365692D01*
X169520394Y-52675711D01*
X169830413Y-52882859D01*
X170196105Y-52955600D01*
X170563895Y-52955600D01*
X170929587Y-52882859D01*
X171239606Y-52675711D01*
X171446754Y-52365692D01*
X171519495Y-52000000D01*
X171446754Y-51634308D01*
X171239606Y-51324289D01*
X170929587Y-51117141D01*
X170563895Y-51044400D01*
X170196105Y-51044400D01*
X169830413Y-51117141D01*
X169520394Y-51324289D01*
X169313246Y-51634308D01*
X169240505Y-52000000D01*
X169212600Y-52000000D01*
X169212600Y-51147900D01*
X169986578Y-50373922D01*
X170196105Y-50415600D01*
X170563895Y-50415600D01*
X170929587Y-50342859D01*
X171239606Y-50135711D01*
X171446754Y-49825692D01*
X171519495Y-49460000D01*
X171446754Y-49094308D01*
X171239606Y-48784289D01*
X170929587Y-48577141D01*
X170563895Y-48504400D01*
X170196105Y-48504400D01*
X169830413Y-48577141D01*
X169520394Y-48784289D01*
X169313246Y-49094308D01*
X169240505Y-49460000D01*
X169289448Y-49706052D01*
X168682600Y-50312900D01*
X168682600Y-46920000D01*
X169240505Y-46920000D01*
X169313246Y-47285692D01*
X169520394Y-47595711D01*
X169830413Y-47802859D01*
X170196105Y-47875600D01*
X170563895Y-47875600D01*
X170929587Y-47802859D01*
X171239606Y-47595711D01*
X171446754Y-47285692D01*
X171519495Y-46920000D01*
X176860505Y-46920000D01*
X176933246Y-47285692D01*
X177140394Y-47595711D01*
X177450413Y-47802859D01*
X177816105Y-47875600D01*
X178183895Y-47875600D01*
X178549587Y-47802859D01*
X178859606Y-47595711D01*
X179066754Y-47285692D01*
X179139495Y-46920000D01*
X179066754Y-46554308D01*
X178875692Y-46268362D01*
X182494675Y-46268362D01*
X182700541Y-46766594D01*
X183081401Y-47148120D01*
X183579273Y-47354854D01*
X184118362Y-47355325D01*
X184616594Y-47149459D01*
X184998120Y-46768599D01*
X185204854Y-46270727D01*
X185204856Y-46268362D01*
X192654675Y-46268362D01*
X192860541Y-46766594D01*
X193241401Y-47148120D01*
X193739273Y-47354854D01*
X194278362Y-47355325D01*
X194564567Y-47237067D01*
X195770234Y-48442734D01*
X195770234Y-49945579D01*
X195803049Y-50110549D01*
X195247015Y-49554515D01*
X195364854Y-49270727D01*
X195365325Y-48731638D01*
X195159459Y-48233406D01*
X194778599Y-47851880D01*
X194280727Y-47645146D01*
X193741638Y-47644675D01*
X193243406Y-47850541D01*
X192861880Y-48231401D01*
X192655146Y-48729273D01*
X192654675Y-49268362D01*
X192860541Y-49766594D01*
X193241401Y-50148120D01*
X193739273Y-50354854D01*
X194278362Y-50355325D01*
X194564567Y-50237067D01*
X194668239Y-50340739D01*
X196960534Y-52633033D01*
X196960536Y-52633036D01*
X197117103Y-52737650D01*
X197301786Y-52774387D01*
X197301791Y-52774386D01*
X198392876Y-52774386D01*
X199530360Y-53911870D01*
X199421871Y-53933450D01*
X199160652Y-54107991D01*
X199087254Y-54217839D01*
X199011387Y-54111701D01*
X198744662Y-53945401D01*
X198610982Y-53908113D01*
X198485400Y-53983180D01*
X198485400Y-54974600D01*
X198505400Y-54974600D01*
X198505400Y-55025400D01*
X198485400Y-55025400D01*
X198485400Y-56016820D01*
X198610982Y-56091887D01*
X198744662Y-56054599D01*
X199011387Y-55888299D01*
X199087254Y-55782161D01*
X199160652Y-55892009D01*
X199421871Y-56066550D01*
X199730000Y-56127841D01*
X200038129Y-56066550D01*
X200299348Y-55892009D01*
X200365000Y-55793754D01*
X200430652Y-55892009D01*
X200691871Y-56066550D01*
X201000000Y-56127841D01*
X201308129Y-56066550D01*
X201490980Y-55944373D01*
X201490980Y-59075673D01*
X201278129Y-58933450D01*
X200970000Y-58872159D01*
X200661871Y-58933450D01*
X200400652Y-59107991D01*
X200335000Y-59206246D01*
X200269348Y-59107991D01*
X200008129Y-58933450D01*
X199700000Y-58872159D01*
X199391871Y-58933450D01*
X199130652Y-59107991D01*
X199057254Y-59217839D01*
X198981387Y-59111701D01*
X198714662Y-58945401D01*
X198580982Y-58908113D01*
X198455400Y-58983180D01*
X198455400Y-59974600D01*
X198475400Y-59974600D01*
X198475400Y-60025400D01*
X198455400Y-60025400D01*
X198455400Y-61016820D01*
X198580982Y-61091887D01*
X198714662Y-61054599D01*
X198981387Y-60888299D01*
X199057254Y-60782161D01*
X199130652Y-60892009D01*
X199391871Y-61066550D01*
X199700000Y-61127841D01*
X200008129Y-61066550D01*
X200269348Y-60892009D01*
X200335000Y-60793754D01*
X200400652Y-60892009D01*
X200661871Y-61066550D01*
X200970000Y-61127841D01*
X201278129Y-61066550D01*
X201539348Y-60892009D01*
X201713889Y-60630790D01*
X201760788Y-60395012D01*
X201841250Y-60341250D01*
X202314830Y-59867670D01*
X202419444Y-59711103D01*
X202456180Y-59526420D01*
X202456180Y-54497964D01*
X202456181Y-54497959D01*
X202419444Y-54313276D01*
X202314830Y-54156709D01*
X199600646Y-51442525D01*
X199444079Y-51337911D01*
X199259396Y-51301175D01*
X198290930Y-51301175D01*
X197015155Y-50025400D01*
X197654820Y-50025400D01*
X197654820Y-50326390D01*
X197725831Y-50632586D01*
X197908613Y-50888299D01*
X198175338Y-51054599D01*
X198309018Y-51091887D01*
X198434600Y-51016820D01*
X198434600Y-50025400D01*
X197654820Y-50025400D01*
X197015155Y-50025400D01*
X196735434Y-49745679D01*
X196735434Y-49673610D01*
X197654820Y-49673610D01*
X197654820Y-49974600D01*
X198434600Y-49974600D01*
X198434600Y-48983180D01*
X198309018Y-48908113D01*
X198175338Y-48945401D01*
X197908613Y-49111701D01*
X197725831Y-49367414D01*
X197654820Y-49673610D01*
X196735434Y-49673610D01*
X196735434Y-48242834D01*
X196698698Y-48058151D01*
X196594084Y-47901584D01*
X195247015Y-46554515D01*
X195364854Y-46270727D01*
X195365325Y-45731638D01*
X195159459Y-45233406D01*
X194778599Y-44851880D01*
X194280727Y-44645146D01*
X193741638Y-44644675D01*
X193243406Y-44850541D01*
X192861880Y-45231401D01*
X192655146Y-45729273D01*
X192654675Y-46268362D01*
X185204856Y-46268362D01*
X185205325Y-45731638D01*
X184999459Y-45233406D01*
X184618599Y-44851880D01*
X184120727Y-44645146D01*
X183581638Y-44644675D01*
X183083406Y-44850541D01*
X182701880Y-45231401D01*
X182495146Y-45729273D01*
X182494675Y-46268362D01*
X178875692Y-46268362D01*
X178859606Y-46244289D01*
X178549587Y-46037141D01*
X178183895Y-45964400D01*
X177816105Y-45964400D01*
X177450413Y-46037141D01*
X177140394Y-46244289D01*
X176933246Y-46554308D01*
X176860505Y-46920000D01*
X171519495Y-46920000D01*
X171446754Y-46554308D01*
X171239606Y-46244289D01*
X170929587Y-46037141D01*
X170563895Y-45964400D01*
X170196105Y-45964400D01*
X169830413Y-46037141D01*
X169520394Y-46244289D01*
X169313246Y-46554308D01*
X169240505Y-46920000D01*
X168682600Y-46920000D01*
X168682600Y-45743900D01*
X169460470Y-44966029D01*
X169520394Y-45055711D01*
X169830413Y-45262859D01*
X170196105Y-45335600D01*
X170563895Y-45335600D01*
X170929587Y-45262859D01*
X171239606Y-45055711D01*
X171446754Y-44745692D01*
X171519495Y-44380000D01*
X176860505Y-44380000D01*
X176933246Y-44745692D01*
X177140394Y-45055711D01*
X177450413Y-45262859D01*
X177816105Y-45335600D01*
X178183895Y-45335600D01*
X178549587Y-45262859D01*
X178859606Y-45055711D01*
X179066754Y-44745692D01*
X179139495Y-44380000D01*
X179066754Y-44014308D01*
X178859606Y-43704289D01*
X178549587Y-43497141D01*
X178183895Y-43424400D01*
X177816105Y-43424400D01*
X177450413Y-43497141D01*
X177140394Y-43704289D01*
X176933246Y-44014308D01*
X176860505Y-44380000D01*
X171519495Y-44380000D01*
X171446754Y-44014308D01*
X171239606Y-43704289D01*
X170929587Y-43497141D01*
X170563895Y-43424400D01*
X170196105Y-43424400D01*
X169830413Y-43497141D01*
X169520394Y-43704289D01*
X169391361Y-43897400D01*
X169364005Y-43897400D01*
X169364000Y-43897399D01*
X169179317Y-43934136D01*
X169022750Y-44038750D01*
X169022748Y-44038753D01*
X167858750Y-45202750D01*
X167754136Y-45359317D01*
X167717400Y-45544000D01*
X167717400Y-58900100D01*
X165041090Y-61576410D01*
X163100000Y-61576410D01*
X162915317Y-61613146D01*
X162758750Y-61717760D01*
X161580402Y-62896108D01*
X161460000Y-62872159D01*
X161151871Y-62933450D01*
X160890652Y-63107991D01*
X160716111Y-63369210D01*
X160654820Y-63677339D01*
X160654820Y-64322661D01*
X160716111Y-64630790D01*
X160890652Y-64892009D01*
X161151871Y-65066550D01*
X161460000Y-65127841D01*
X161768129Y-65066550D01*
X162029348Y-64892009D01*
X162095000Y-64793754D01*
X162160652Y-64892009D01*
X162247400Y-64949972D01*
X162247400Y-65165756D01*
X162284136Y-65350439D01*
X162388750Y-65507006D01*
X163499144Y-66617400D01*
X161994094Y-66617400D01*
X160590796Y-65214101D01*
X160590796Y-58268362D01*
X163644675Y-58268362D01*
X163850541Y-58766594D01*
X164231401Y-59148120D01*
X164729273Y-59354854D01*
X165268362Y-59355325D01*
X165766594Y-59149459D01*
X166148120Y-58768599D01*
X166354854Y-58270727D01*
X166355325Y-57731638D01*
X166149459Y-57233406D01*
X165768599Y-56851880D01*
X165270727Y-56645146D01*
X164731638Y-56644675D01*
X164233406Y-56850541D01*
X163851880Y-57231401D01*
X163645146Y-57729273D01*
X163644675Y-58268362D01*
X160590796Y-58268362D01*
X160590796Y-55268362D01*
X163644675Y-55268362D01*
X163850541Y-55766594D01*
X164231401Y-56148120D01*
X164729273Y-56354854D01*
X165268362Y-56355325D01*
X165766594Y-56149459D01*
X166148120Y-55768599D01*
X166354854Y-55270727D01*
X166355325Y-54731638D01*
X166149459Y-54233406D01*
X165768599Y-53851880D01*
X165270727Y-53645146D01*
X164731638Y-53644675D01*
X164233406Y-53850541D01*
X163851880Y-54231401D01*
X163645146Y-54729273D01*
X163644675Y-55268362D01*
X160590796Y-55268362D01*
X160590796Y-52268362D01*
X163644675Y-52268362D01*
X163850541Y-52766594D01*
X164231401Y-53148120D01*
X164729273Y-53354854D01*
X165268362Y-53355325D01*
X165766594Y-53149459D01*
X166148120Y-52768599D01*
X166354854Y-52270727D01*
X166355325Y-51731638D01*
X166149459Y-51233406D01*
X165768599Y-50851880D01*
X165270727Y-50645146D01*
X164731638Y-50644675D01*
X164233406Y-50850541D01*
X163851880Y-51231401D01*
X163645146Y-51729273D01*
X163644675Y-52268362D01*
X160590796Y-52268362D01*
X160590796Y-51998480D01*
X160706026Y-51883451D01*
X160813674Y-51624207D01*
X160813919Y-51343502D01*
X160706724Y-51084071D01*
X160508408Y-50885409D01*
X160249164Y-50777761D01*
X159968459Y-50777516D01*
X159734468Y-50874199D01*
X159734468Y-49268362D01*
X163644675Y-49268362D01*
X163850541Y-49766594D01*
X164231401Y-50148120D01*
X164729273Y-50354854D01*
X165268362Y-50355325D01*
X165766594Y-50149459D01*
X166148120Y-49768599D01*
X166354854Y-49270727D01*
X166355325Y-48731638D01*
X166149459Y-48233406D01*
X165768599Y-47851880D01*
X165270727Y-47645146D01*
X164731638Y-47644675D01*
X164233406Y-47850541D01*
X163851880Y-48231401D01*
X163645146Y-48729273D01*
X163644675Y-49268362D01*
X159734468Y-49268362D01*
X159734468Y-46333542D01*
X159799761Y-46268362D01*
X163644675Y-46268362D01*
X163850541Y-46766594D01*
X164231401Y-47148120D01*
X164729273Y-47354854D01*
X165268362Y-47355325D01*
X165766594Y-47149459D01*
X166148120Y-46768599D01*
X166354854Y-46270727D01*
X166355325Y-45731638D01*
X166149459Y-45233406D01*
X165768599Y-44851880D01*
X165270727Y-44645146D01*
X164731638Y-44644675D01*
X164233406Y-44850541D01*
X163851880Y-45231401D01*
X163645146Y-45729273D01*
X163644675Y-46268362D01*
X159799761Y-46268362D01*
X159849698Y-46218513D01*
X159957346Y-45959269D01*
X159957591Y-45678564D01*
X159850396Y-45419133D01*
X159652080Y-45220471D01*
X159392836Y-45112823D01*
X159112131Y-45112578D01*
X158852700Y-45219773D01*
X158654038Y-45418089D01*
X158546390Y-45677333D01*
X158546145Y-45958038D01*
X158653340Y-46217469D01*
X158769268Y-46333599D01*
X158769268Y-48128882D01*
X158661766Y-48084243D01*
X158381061Y-48083998D01*
X158121630Y-48191193D01*
X157922968Y-48389509D01*
X157815320Y-48648753D01*
X157815075Y-48929458D01*
X157922270Y-49188889D01*
X158038198Y-49305019D01*
X158038198Y-65263475D01*
X158074934Y-65448158D01*
X158179548Y-65604725D01*
X161032093Y-68457270D01*
X161188660Y-68561884D01*
X161373343Y-68598621D01*
X161373348Y-68598620D01*
X163279250Y-68598622D01*
X163364863Y-68684234D01*
X163270727Y-68645146D01*
X162731638Y-68644675D01*
X162233406Y-68850541D01*
X161851880Y-69231401D01*
X161733123Y-69517400D01*
X160293454Y-69517400D01*
X154531707Y-63755653D01*
X154375140Y-63651039D01*
X154190457Y-63614303D01*
X150441802Y-63614303D01*
X149640065Y-62812566D01*
X149865000Y-62812566D01*
X149996777Y-62787770D01*
X150117807Y-62709890D01*
X150199001Y-62591058D01*
X150200007Y-62586092D01*
X150275110Y-62702807D01*
X150393942Y-62784001D01*
X150535000Y-62812566D01*
X151135000Y-62812566D01*
X151266777Y-62787770D01*
X151387807Y-62709890D01*
X151469001Y-62591058D01*
X151470007Y-62586092D01*
X151545110Y-62702807D01*
X151663942Y-62784001D01*
X151805000Y-62812566D01*
X152405000Y-62812566D01*
X152536777Y-62787770D01*
X152657807Y-62709890D01*
X152739001Y-62591058D01*
X152740007Y-62586092D01*
X152815110Y-62702807D01*
X152933942Y-62784001D01*
X153075000Y-62812566D01*
X153675000Y-62812566D01*
X153806777Y-62787770D01*
X153927807Y-62709890D01*
X154009001Y-62591058D01*
X154012130Y-62575607D01*
X154043537Y-62651431D01*
X154143569Y-62751463D01*
X154274267Y-62805600D01*
X154530700Y-62805600D01*
X154619600Y-62716700D01*
X154619600Y-61725400D01*
X154670400Y-61725400D01*
X154670400Y-62716700D01*
X154759300Y-62805600D01*
X155015733Y-62805600D01*
X155146431Y-62751463D01*
X155246463Y-62651431D01*
X155300600Y-62520733D01*
X155300600Y-61814300D01*
X155211700Y-61725400D01*
X154670400Y-61725400D01*
X154619600Y-61725400D01*
X154599600Y-61725400D01*
X154599600Y-61674600D01*
X154619600Y-61674600D01*
X154619600Y-60683300D01*
X154670400Y-60683300D01*
X154670400Y-61674600D01*
X155211700Y-61674600D01*
X155300600Y-61585700D01*
X155300600Y-60879267D01*
X155246463Y-60748569D01*
X155146431Y-60648537D01*
X155015733Y-60594400D01*
X154759300Y-60594400D01*
X154670400Y-60683300D01*
X154619600Y-60683300D01*
X154530700Y-60594400D01*
X154274267Y-60594400D01*
X154143569Y-60648537D01*
X154043537Y-60748569D01*
X154013368Y-60821403D01*
X154012770Y-60818223D01*
X153934890Y-60697193D01*
X153816058Y-60615999D01*
X153675000Y-60587434D01*
X153075000Y-60587434D01*
X152943223Y-60612230D01*
X152822193Y-60690110D01*
X152740999Y-60808942D01*
X152739993Y-60813908D01*
X152664890Y-60697193D01*
X152582600Y-60640967D01*
X152582600Y-59999900D01*
X153753168Y-58829331D01*
X154071401Y-59148120D01*
X154569273Y-59354854D01*
X155108362Y-59355325D01*
X155606594Y-59149459D01*
X155988120Y-58768599D01*
X156194854Y-58270727D01*
X156195325Y-57731638D01*
X155989459Y-57233406D01*
X155608599Y-56851880D01*
X155110727Y-56645146D01*
X154571638Y-56644675D01*
X154073406Y-56850541D01*
X153942109Y-56981609D01*
X153942109Y-56580391D01*
X154285485Y-56237015D01*
X154569273Y-56354854D01*
X155108362Y-56355325D01*
X155606594Y-56149459D01*
X155988120Y-55768599D01*
X156194854Y-55270727D01*
X156195325Y-54731638D01*
X155989459Y-54233406D01*
X155608599Y-53851880D01*
X155110727Y-53645146D01*
X154571638Y-53644675D01*
X154073406Y-53850541D01*
X153691880Y-54231401D01*
X153485146Y-54729273D01*
X153484675Y-55268362D01*
X153602933Y-55554567D01*
X153382600Y-55774900D01*
X153382600Y-54139900D01*
X154285485Y-53237015D01*
X154569273Y-53354854D01*
X155108362Y-53355325D01*
X155606594Y-53149459D01*
X155988120Y-52768599D01*
X156194854Y-52270727D01*
X156195325Y-51731638D01*
X155989459Y-51233406D01*
X155608599Y-50851880D01*
X155110727Y-50645146D01*
X154571638Y-50644675D01*
X154073406Y-50850541D01*
X153691880Y-51231401D01*
X153485146Y-51729273D01*
X153484675Y-52268362D01*
X153602933Y-52554567D01*
X152874590Y-53282910D01*
X152874590Y-51647910D01*
X154285485Y-50237015D01*
X154569273Y-50354854D01*
X155108362Y-50355325D01*
X155606594Y-50149459D01*
X155988120Y-49768599D01*
X156194854Y-49270727D01*
X156195325Y-48731638D01*
X155989459Y-48233406D01*
X155608599Y-47851880D01*
X155110727Y-47645146D01*
X154571638Y-47644675D01*
X154073406Y-47850541D01*
X153691880Y-48231401D01*
X153485146Y-48729273D01*
X153484675Y-49268362D01*
X153602933Y-49554567D01*
X152282600Y-50874900D01*
X152282600Y-49239900D01*
X154285485Y-47237015D01*
X154569273Y-47354854D01*
X155108362Y-47355325D01*
X155606594Y-47149459D01*
X155988120Y-46768599D01*
X156194854Y-46270727D01*
X156195325Y-45731638D01*
X155989459Y-45233406D01*
X155608599Y-44851880D01*
X155110727Y-44645146D01*
X154571638Y-44644675D01*
X154073406Y-44850541D01*
X153691880Y-45231401D01*
X153485146Y-45729273D01*
X153484675Y-46268362D01*
X153602933Y-46554567D01*
X153382600Y-46774900D01*
X153382600Y-45049900D01*
X154195485Y-44237015D01*
X154479273Y-44354854D01*
X155018362Y-44355325D01*
X155516594Y-44149459D01*
X155898120Y-43768599D01*
X156104854Y-43270727D01*
X156105325Y-42731638D01*
X155899459Y-42233406D01*
X155518599Y-41851880D01*
X155228929Y-41731599D01*
X164431267Y-41731599D01*
X164143406Y-41850541D01*
X163761880Y-42231401D01*
X163555146Y-42729273D01*
X163554675Y-43268362D01*
X163760541Y-43766594D01*
X164141401Y-44148120D01*
X164639273Y-44354854D01*
X165178362Y-44355325D01*
X165676594Y-44149459D01*
X166058120Y-43768599D01*
X166264854Y-43270727D01*
X166265325Y-42731638D01*
X166059459Y-42233406D01*
X165678599Y-41851880D01*
X165388929Y-41731599D01*
X183361267Y-41731599D01*
X183073406Y-41850541D01*
X182691880Y-42231401D01*
X182485146Y-42729273D01*
X182484675Y-43268362D01*
X182690541Y-43766594D01*
X183071401Y-44148120D01*
X183569273Y-44354854D01*
X184108362Y-44355325D01*
X184606594Y-44149459D01*
X184988120Y-43768599D01*
X185194854Y-43270727D01*
X185195325Y-42731638D01*
X184989459Y-42233406D01*
X184608599Y-41851880D01*
X184318929Y-41731599D01*
X193521267Y-41731599D01*
X193233406Y-41850541D01*
X192851880Y-42231401D01*
X192645146Y-42729273D01*
X192644675Y-43268362D01*
X192850541Y-43766594D01*
X193231401Y-44148120D01*
X193729273Y-44354854D01*
X194268362Y-44355325D01*
X194766594Y-44149459D01*
X195148120Y-43768599D01*
X195251243Y-43520251D01*
X200517400Y-48786407D01*
X200517400Y-49050028D01*
X200430652Y-49107991D01*
X200365000Y-49206246D01*
X200299348Y-49107991D01*
X200038129Y-48933450D01*
X199730000Y-48872159D01*
X199421871Y-48933450D01*
X199160652Y-49107991D01*
X199087254Y-49217839D01*
X199011387Y-49111701D01*
X198744662Y-48945401D01*
X198610982Y-48908113D01*
X198485400Y-48983180D01*
X198485400Y-49974600D01*
X198505400Y-49974600D01*
X198505400Y-50025400D01*
X198485400Y-50025400D01*
X198485400Y-51016820D01*
X198610982Y-51091887D01*
X198744662Y-51054599D01*
X199011387Y-50888299D01*
X199087254Y-50782161D01*
X199160652Y-50892009D01*
X199421871Y-51066550D01*
X199730000Y-51127841D01*
X200038129Y-51066550D01*
X200299348Y-50892009D01*
X200365000Y-50793754D01*
X200430652Y-50892009D01*
X200691871Y-51066550D01*
X201000000Y-51127841D01*
X201308129Y-51066550D01*
X201569348Y-50892009D01*
X201743889Y-50630790D01*
X201805180Y-50322661D01*
X201805180Y-49677339D01*
X201743889Y-49369210D01*
X201569348Y-49107991D01*
X201482600Y-49050028D01*
X201482600Y-48586508D01*
X201445864Y-48401825D01*
X201341250Y-48245258D01*
X201341247Y-48245256D01*
X198039054Y-44943063D01*
X198196200Y-44974321D01*
X198504490Y-44912998D01*
X198765845Y-44738366D01*
X198831200Y-44640555D01*
X198896555Y-44738366D01*
X199157910Y-44912998D01*
X199466200Y-44974321D01*
X199774490Y-44912998D01*
X199935463Y-44805439D01*
X199989183Y-44888922D01*
X200124990Y-44981715D01*
X200126600Y-44982041D01*
X200126600Y-45756611D01*
X200173003Y-45989895D01*
X200305148Y-46187663D01*
X206390400Y-52272915D01*
X206390400Y-53182039D01*
X205984000Y-53182039D01*
X205833397Y-53210377D01*
X205695078Y-53299383D01*
X205602285Y-53435190D01*
X205569639Y-53596400D01*
X205569639Y-53672600D01*
X205222000Y-53672600D01*
X204920675Y-53732537D01*
X204665224Y-53903224D01*
X203843224Y-54725224D01*
X203672537Y-54980675D01*
X203612600Y-55282000D01*
X203612600Y-63773848D01*
X202767243Y-64619205D01*
X202500000Y-64566047D01*
X202057465Y-64654073D01*
X201682302Y-64904749D01*
X201431626Y-65279912D01*
X201343600Y-65722447D01*
X201343600Y-66277553D01*
X201431626Y-66720088D01*
X201682302Y-67095251D01*
X201712600Y-67115495D01*
X201712600Y-73273848D01*
X196773848Y-78212600D01*
X129414152Y-78212600D01*
X128287400Y-77085848D01*
X128287400Y-77038507D01*
X128300603Y-77036023D01*
X128438922Y-76947017D01*
X128531715Y-76811210D01*
X128564361Y-76650000D01*
X128564361Y-75350000D01*
X128536023Y-75199397D01*
X128447017Y-75061078D01*
X128311210Y-74968285D01*
X128150000Y-74935639D01*
X126850000Y-74935639D01*
X126699397Y-74963977D01*
X126561078Y-75052983D01*
X126468285Y-75188790D01*
X126435639Y-75350000D01*
X126435639Y-75631464D01*
X126360673Y-75442791D01*
X126344160Y-75418077D01*
X126179852Y-75356069D01*
X125535921Y-76000000D01*
X126179852Y-76643931D01*
X126344160Y-76581923D01*
X126435639Y-76369823D01*
X126435639Y-76650000D01*
X126463977Y-76800603D01*
X126552983Y-76938922D01*
X126688790Y-77031715D01*
X126712600Y-77036537D01*
X126712600Y-77412000D01*
X126772537Y-77713325D01*
X126943224Y-77968776D01*
X128531224Y-79556776D01*
X128550117Y-79569400D01*
X110430600Y-79569400D01*
X110430600Y-78237113D01*
X115815298Y-78237113D01*
X115887869Y-78495300D01*
X116173486Y-78940594D01*
X116607768Y-79242691D01*
X117124600Y-79355600D01*
X118124600Y-79355600D01*
X118124600Y-78025400D01*
X118175400Y-78025400D01*
X118175400Y-79355600D01*
X119175400Y-79355600D01*
X119692232Y-79242691D01*
X120126514Y-78940594D01*
X120412131Y-78495300D01*
X120484702Y-78237113D01*
X120416445Y-78025400D01*
X118175400Y-78025400D01*
X118124600Y-78025400D01*
X115883555Y-78025400D01*
X115815298Y-78237113D01*
X110430600Y-78237113D01*
X110430600Y-77762887D01*
X115815298Y-77762887D01*
X115883555Y-77974600D01*
X118124600Y-77974600D01*
X118124600Y-76644400D01*
X118175400Y-76644400D01*
X118175400Y-77974600D01*
X120416445Y-77974600D01*
X120484702Y-77762887D01*
X120412131Y-77504700D01*
X120126514Y-77059406D01*
X119692232Y-76757309D01*
X119337679Y-76679852D01*
X124856069Y-76679852D01*
X124918077Y-76844160D01*
X125285419Y-77002595D01*
X125685430Y-77008393D01*
X126057209Y-76860673D01*
X126081923Y-76844160D01*
X126143931Y-76679852D01*
X125500000Y-76035921D01*
X124856069Y-76679852D01*
X119337679Y-76679852D01*
X119175400Y-76644400D01*
X118175400Y-76644400D01*
X118124600Y-76644400D01*
X117124600Y-76644400D01*
X116607768Y-76757309D01*
X116173486Y-77059406D01*
X115887869Y-77504700D01*
X115815298Y-77762887D01*
X110430600Y-77762887D01*
X110430600Y-76185430D01*
X124491607Y-76185430D01*
X124639327Y-76557209D01*
X124655840Y-76581923D01*
X124820148Y-76643931D01*
X125464079Y-76000000D01*
X124820148Y-75356069D01*
X124655840Y-75418077D01*
X124497405Y-75785419D01*
X124491607Y-76185430D01*
X110430600Y-76185430D01*
X110430600Y-73025400D01*
X113494400Y-73025400D01*
X113494400Y-74025400D01*
X113607309Y-74542232D01*
X113909406Y-74976514D01*
X114354700Y-75262131D01*
X114612887Y-75334702D01*
X114824600Y-75266445D01*
X114824600Y-73025400D01*
X114875400Y-73025400D01*
X114875400Y-75266445D01*
X115087113Y-75334702D01*
X115345300Y-75262131D01*
X115790594Y-74976514D01*
X116092691Y-74542232D01*
X116205600Y-74025400D01*
X116205600Y-73025400D01*
X114875400Y-73025400D01*
X114824600Y-73025400D01*
X113494400Y-73025400D01*
X110430600Y-73025400D01*
X110430600Y-71974600D01*
X113494400Y-71974600D01*
X113494400Y-72974600D01*
X114824600Y-72974600D01*
X114824600Y-70733555D01*
X114875400Y-70733555D01*
X114875400Y-72974600D01*
X116205600Y-72974600D01*
X116205600Y-71974600D01*
X116200850Y-71952856D01*
X119593600Y-71952856D01*
X119593600Y-74047144D01*
X119700656Y-74585350D01*
X120005525Y-75041619D01*
X120461794Y-75346488D01*
X121000000Y-75453544D01*
X121538206Y-75346488D01*
X121577626Y-75320148D01*
X124856069Y-75320148D01*
X125500000Y-75964079D01*
X126143931Y-75320148D01*
X126081923Y-75155840D01*
X125714581Y-74997405D01*
X125314570Y-74991607D01*
X124942791Y-75139327D01*
X124918077Y-75155840D01*
X124856069Y-75320148D01*
X121577626Y-75320148D01*
X121994475Y-75041619D01*
X122299344Y-74585350D01*
X122406400Y-74047144D01*
X122406400Y-71952856D01*
X122299344Y-71414650D01*
X121994475Y-70958381D01*
X121538206Y-70653512D01*
X121000000Y-70546456D01*
X120461794Y-70653512D01*
X120005525Y-70958381D01*
X119700656Y-71414650D01*
X119593600Y-71952856D01*
X116200850Y-71952856D01*
X116092691Y-71457768D01*
X115790594Y-71023486D01*
X115345300Y-70737869D01*
X115087113Y-70665298D01*
X114875400Y-70733555D01*
X114824600Y-70733555D01*
X114612887Y-70665298D01*
X114354700Y-70737869D01*
X113909406Y-71023486D01*
X113607309Y-71457768D01*
X113494400Y-71974600D01*
X110430600Y-71974600D01*
X110430600Y-65248744D01*
X110743753Y-65248744D01*
X110934569Y-65710554D01*
X111287587Y-66064189D01*
X111749064Y-66255811D01*
X112248744Y-66256247D01*
X112710554Y-66065431D01*
X113064189Y-65712413D01*
X113255811Y-65250936D01*
X113256247Y-64751256D01*
X113065431Y-64289446D01*
X112926598Y-64150370D01*
X120896009Y-64150370D01*
X120896009Y-65849630D01*
X120924347Y-66000233D01*
X121013353Y-66138552D01*
X121149160Y-66231345D01*
X121310370Y-66263991D01*
X123009630Y-66263991D01*
X123160233Y-66235653D01*
X123298552Y-66146647D01*
X123391345Y-66010840D01*
X123423991Y-65849630D01*
X123423991Y-64150370D01*
X123395653Y-63999767D01*
X123306647Y-63861448D01*
X123170840Y-63768655D01*
X123009630Y-63736009D01*
X121310370Y-63736009D01*
X121159767Y-63764347D01*
X121021448Y-63853353D01*
X120928655Y-63989160D01*
X120896009Y-64150370D01*
X112926598Y-64150370D01*
X112712413Y-63935811D01*
X112250936Y-63744189D01*
X111751256Y-63743753D01*
X111289446Y-63934569D01*
X110935811Y-64287587D01*
X110744189Y-64749064D01*
X110743753Y-65248744D01*
X110430600Y-65248744D01*
X110430600Y-57838953D01*
X112114208Y-57838953D01*
X112282171Y-58245454D01*
X112592910Y-58556736D01*
X112999118Y-58725408D01*
X113438953Y-58725792D01*
X113845454Y-58557829D01*
X114156736Y-58247090D01*
X114325408Y-57840882D01*
X114325409Y-57838953D01*
X114654208Y-57838953D01*
X114822171Y-58245454D01*
X115132910Y-58556736D01*
X115539118Y-58725408D01*
X115978953Y-58725792D01*
X116385454Y-58557829D01*
X116696736Y-58247090D01*
X116865408Y-57840882D01*
X116865409Y-57838953D01*
X117194208Y-57838953D01*
X117362171Y-58245454D01*
X117672910Y-58556736D01*
X118079118Y-58725408D01*
X118518953Y-58725792D01*
X118925454Y-58557829D01*
X119236736Y-58247090D01*
X119405408Y-57840882D01*
X119405409Y-57838953D01*
X119734208Y-57838953D01*
X119902171Y-58245454D01*
X120212910Y-58556736D01*
X120619118Y-58725408D01*
X120653938Y-58725438D01*
X123400785Y-61472285D01*
X123282946Y-61756073D01*
X123282475Y-62295162D01*
X123488341Y-62793394D01*
X123869201Y-63174920D01*
X124155200Y-63293677D01*
X124155200Y-66637800D01*
X124191936Y-66822483D01*
X124296550Y-66979050D01*
X126068632Y-68751132D01*
X126044567Y-68809086D01*
X126044235Y-69189247D01*
X126189410Y-69540597D01*
X126457989Y-69809646D01*
X126809086Y-69955433D01*
X127189247Y-69955765D01*
X127540597Y-69810590D01*
X127809646Y-69542011D01*
X127955433Y-69190914D01*
X127955765Y-68810753D01*
X127810590Y-68459403D01*
X127542011Y-68190354D01*
X127190914Y-68044567D01*
X126810753Y-68044235D01*
X126751300Y-68068800D01*
X125120400Y-66437900D01*
X125120400Y-63293603D01*
X125404394Y-63176259D01*
X125622345Y-62958688D01*
X133901833Y-62958688D01*
X134006380Y-63159310D01*
X134500015Y-63375966D01*
X135038986Y-63387225D01*
X135541239Y-63191371D01*
X135589220Y-63159310D01*
X135693767Y-62958688D01*
X134797800Y-62062721D01*
X133901833Y-62958688D01*
X125622345Y-62958688D01*
X125785920Y-62795399D01*
X125992654Y-62297527D01*
X125992679Y-62267986D01*
X133437375Y-62267986D01*
X133633229Y-62770239D01*
X133665290Y-62818220D01*
X133865912Y-62922767D01*
X134761879Y-62026800D01*
X134833721Y-62026800D01*
X135729688Y-62922767D01*
X135930310Y-62818220D01*
X135991039Y-62679852D01*
X139856069Y-62679852D01*
X139918077Y-62844160D01*
X140285419Y-63002595D01*
X140685430Y-63008393D01*
X141057209Y-62860673D01*
X141081923Y-62844160D01*
X141143931Y-62679852D01*
X140500000Y-62035921D01*
X139856069Y-62679852D01*
X135991039Y-62679852D01*
X136146966Y-62324585D01*
X136149872Y-62185430D01*
X139491607Y-62185430D01*
X139639327Y-62557209D01*
X139655840Y-62581923D01*
X139820148Y-62643931D01*
X140464079Y-62000000D01*
X140535921Y-62000000D01*
X141179852Y-62643931D01*
X141344160Y-62581923D01*
X141502595Y-62214581D01*
X141508393Y-61814570D01*
X141360673Y-61442791D01*
X141344160Y-61418077D01*
X141179852Y-61356069D01*
X140535921Y-62000000D01*
X140464079Y-62000000D01*
X139820148Y-61356069D01*
X139655840Y-61418077D01*
X139497405Y-61785419D01*
X139491607Y-62185430D01*
X136149872Y-62185430D01*
X136158225Y-61785614D01*
X135976717Y-61320148D01*
X139856069Y-61320148D01*
X140500000Y-61964079D01*
X141143931Y-61320148D01*
X141081923Y-61155840D01*
X140714581Y-60997405D01*
X140314570Y-60991607D01*
X139942791Y-61139327D01*
X139918077Y-61155840D01*
X139856069Y-61320148D01*
X135976717Y-61320148D01*
X135962371Y-61283361D01*
X135930310Y-61235380D01*
X135729688Y-61130833D01*
X134833721Y-62026800D01*
X134761879Y-62026800D01*
X133865912Y-61130833D01*
X133665290Y-61235380D01*
X133448634Y-61729015D01*
X133437375Y-62267986D01*
X125992679Y-62267986D01*
X125993125Y-61758438D01*
X125787259Y-61260206D01*
X125622254Y-61094912D01*
X133901833Y-61094912D01*
X134797800Y-61990879D01*
X135693767Y-61094912D01*
X135589220Y-60894290D01*
X135095585Y-60677634D01*
X134556614Y-60666375D01*
X134054361Y-60862229D01*
X134006380Y-60894290D01*
X133901833Y-61094912D01*
X125622254Y-61094912D01*
X125406399Y-60878680D01*
X124908527Y-60671946D01*
X124369438Y-60671475D01*
X124083233Y-60789733D01*
X121658560Y-58365060D01*
X121776736Y-58247090D01*
X121945408Y-57840882D01*
X121945409Y-57838953D01*
X122274208Y-57838953D01*
X122442171Y-58245454D01*
X122752910Y-58556736D01*
X123159118Y-58725408D01*
X123598953Y-58725792D01*
X124005454Y-58557829D01*
X124316736Y-58247090D01*
X124485408Y-57840882D01*
X124485409Y-57838953D01*
X124814208Y-57838953D01*
X124982171Y-58245454D01*
X125292910Y-58556736D01*
X125699118Y-58725408D01*
X126138953Y-58725792D01*
X126545454Y-58557829D01*
X126856736Y-58247090D01*
X127025408Y-57840882D01*
X127025409Y-57838953D01*
X127354208Y-57838953D01*
X127522171Y-58245454D01*
X127832910Y-58556736D01*
X128239118Y-58725408D01*
X128678953Y-58725792D01*
X129085454Y-58557829D01*
X129396736Y-58247090D01*
X129565408Y-57840882D01*
X129565409Y-57838953D01*
X129894208Y-57838953D01*
X130062171Y-58245454D01*
X130372910Y-58556736D01*
X130779118Y-58725408D01*
X131218953Y-58725792D01*
X131625454Y-58557829D01*
X131936736Y-58247090D01*
X132105408Y-57840882D01*
X132105409Y-57838953D01*
X132434208Y-57838953D01*
X132602171Y-58245454D01*
X132912910Y-58556736D01*
X133319118Y-58725408D01*
X133758953Y-58725792D01*
X134165454Y-58557829D01*
X134476736Y-58247090D01*
X134645408Y-57840882D01*
X134645409Y-57838953D01*
X134974208Y-57838953D01*
X135142171Y-58245454D01*
X135452910Y-58556736D01*
X135859118Y-58725408D01*
X136298953Y-58725792D01*
X136705454Y-58557829D01*
X137016736Y-58247090D01*
X137185408Y-57840882D01*
X137185409Y-57838953D01*
X137514208Y-57838953D01*
X137682171Y-58245454D01*
X137992910Y-58556736D01*
X138399118Y-58725408D01*
X138838953Y-58725792D01*
X139245454Y-58557829D01*
X139556736Y-58247090D01*
X139725408Y-57840882D01*
X139725792Y-57401047D01*
X139557829Y-56994546D01*
X139247090Y-56683264D01*
X138840882Y-56514592D01*
X138401047Y-56514208D01*
X137994546Y-56682171D01*
X137683264Y-56992910D01*
X137514592Y-57399118D01*
X137514208Y-57838953D01*
X137185409Y-57838953D01*
X137185792Y-57401047D01*
X137017829Y-56994546D01*
X136707090Y-56683264D01*
X136300882Y-56514592D01*
X135861047Y-56514208D01*
X135454546Y-56682171D01*
X135143264Y-56992910D01*
X134974592Y-57399118D01*
X134974208Y-57838953D01*
X134645409Y-57838953D01*
X134645792Y-57401047D01*
X134477829Y-56994546D01*
X134167090Y-56683264D01*
X133760882Y-56514592D01*
X133321047Y-56514208D01*
X132914546Y-56682171D01*
X132603264Y-56992910D01*
X132434592Y-57399118D01*
X132434208Y-57838953D01*
X132105409Y-57838953D01*
X132105792Y-57401047D01*
X131937829Y-56994546D01*
X131627090Y-56683264D01*
X131220882Y-56514592D01*
X130781047Y-56514208D01*
X130374546Y-56682171D01*
X130063264Y-56992910D01*
X129894592Y-57399118D01*
X129894208Y-57838953D01*
X129565409Y-57838953D01*
X129565792Y-57401047D01*
X129397829Y-56994546D01*
X129087090Y-56683264D01*
X128680882Y-56514592D01*
X128241047Y-56514208D01*
X127834546Y-56682171D01*
X127523264Y-56992910D01*
X127354592Y-57399118D01*
X127354208Y-57838953D01*
X127025409Y-57838953D01*
X127025792Y-57401047D01*
X126857829Y-56994546D01*
X126547090Y-56683264D01*
X126140882Y-56514592D01*
X125701047Y-56514208D01*
X125294546Y-56682171D01*
X124983264Y-56992910D01*
X124814592Y-57399118D01*
X124814208Y-57838953D01*
X124485409Y-57838953D01*
X124485792Y-57401047D01*
X124317829Y-56994546D01*
X124007090Y-56683264D01*
X123600882Y-56514592D01*
X123161047Y-56514208D01*
X122754546Y-56682171D01*
X122443264Y-56992910D01*
X122274592Y-57399118D01*
X122274208Y-57838953D01*
X121945409Y-57838953D01*
X121945792Y-57401047D01*
X121777829Y-56994546D01*
X121467090Y-56683264D01*
X121060882Y-56514592D01*
X120621047Y-56514208D01*
X120214546Y-56682171D01*
X119903264Y-56992910D01*
X119734592Y-57399118D01*
X119734208Y-57838953D01*
X119405409Y-57838953D01*
X119405792Y-57401047D01*
X119237829Y-56994546D01*
X118927090Y-56683264D01*
X118520882Y-56514592D01*
X118081047Y-56514208D01*
X117674546Y-56682171D01*
X117363264Y-56992910D01*
X117194592Y-57399118D01*
X117194208Y-57838953D01*
X116865409Y-57838953D01*
X116865792Y-57401047D01*
X116697829Y-56994546D01*
X116387090Y-56683264D01*
X115980882Y-56514592D01*
X115541047Y-56514208D01*
X115134546Y-56682171D01*
X114823264Y-56992910D01*
X114654592Y-57399118D01*
X114654208Y-57838953D01*
X114325409Y-57838953D01*
X114325792Y-57401047D01*
X114157829Y-56994546D01*
X113847090Y-56683264D01*
X113440882Y-56514592D01*
X113001047Y-56514208D01*
X112594546Y-56682171D01*
X112283264Y-56992910D01*
X112114592Y-57399118D01*
X112114208Y-57838953D01*
X110430600Y-57838953D01*
X110430600Y-42598953D01*
X112114208Y-42598953D01*
X112282171Y-43005454D01*
X112592910Y-43316736D01*
X112999118Y-43485408D01*
X113438953Y-43485792D01*
X113845454Y-43317829D01*
X114156736Y-43007090D01*
X114325408Y-42600882D01*
X114325409Y-42598953D01*
X114654208Y-42598953D01*
X114822171Y-43005454D01*
X115132910Y-43316736D01*
X115539118Y-43485408D01*
X115978953Y-43485792D01*
X116385454Y-43317829D01*
X116696736Y-43007090D01*
X116865408Y-42600882D01*
X116865409Y-42598953D01*
X117194208Y-42598953D01*
X117362171Y-43005454D01*
X117672910Y-43316736D01*
X118079118Y-43485408D01*
X118518953Y-43485792D01*
X118925454Y-43317829D01*
X119236736Y-43007090D01*
X119405408Y-42600882D01*
X119405409Y-42598953D01*
X119734208Y-42598953D01*
X119902171Y-43005454D01*
X120212910Y-43316736D01*
X120619118Y-43485408D01*
X121058953Y-43485792D01*
X121465454Y-43317829D01*
X121776736Y-43007090D01*
X121945408Y-42600882D01*
X121945792Y-42161047D01*
X121777829Y-41754546D01*
X121467090Y-41443264D01*
X121060882Y-41274592D01*
X120621047Y-41274208D01*
X120214546Y-41442171D01*
X119903264Y-41752910D01*
X119734592Y-42159118D01*
X119734208Y-42598953D01*
X119405409Y-42598953D01*
X119405792Y-42161047D01*
X119237829Y-41754546D01*
X118927090Y-41443264D01*
X118520882Y-41274592D01*
X118081047Y-41274208D01*
X117674546Y-41442171D01*
X117363264Y-41752910D01*
X117194592Y-42159118D01*
X117194208Y-42598953D01*
X116865409Y-42598953D01*
X116865792Y-42161047D01*
X116697829Y-41754546D01*
X116387090Y-41443264D01*
X115980882Y-41274592D01*
X115541047Y-41274208D01*
X115134546Y-41442171D01*
X114823264Y-41752910D01*
X114654592Y-42159118D01*
X114654208Y-42598953D01*
X114325409Y-42598953D01*
X114325792Y-42161047D01*
X114157829Y-41754546D01*
X113847090Y-41443264D01*
X113440882Y-41274592D01*
X113001047Y-41274208D01*
X112594546Y-41442171D01*
X112283264Y-41752910D01*
X112114592Y-42159118D01*
X112114208Y-42598953D01*
X110430600Y-42598953D01*
X110430600Y-40430600D01*
X124646900Y-40430600D01*
X123743633Y-41333867D01*
M02*
