G04 #@! TF.FileFunction,Legend,Top*
%FSLAX46Y46*%
G04 Gerber Fmt 4.6, Leading zero omitted, Abs format (unit mm)*
G04 Created by KiCad (PCBNEW 4.1.0-alpha+201606271447+6949~45~ubuntu14.04.1-product) date Mon Jul 18 23:59:02 2016*
%MOMM*%
%LPD*%
G01*
G04 APERTURE LIST*
%ADD10C,0.100000*%
%ADD11C,0.200000*%
%ADD12C,0.150000*%
%ADD13C,0.152400*%
G04 APERTURE END LIST*
D10*
D11*
X126542857Y-52800000D02*
X127114285Y-52800000D01*
X126428571Y-53142857D02*
X126828571Y-51942857D01*
X127228571Y-53142857D01*
X127628571Y-53142857D02*
X127628571Y-52342857D01*
X127628571Y-52571428D02*
X127685714Y-52457142D01*
X127742857Y-52400000D01*
X127857142Y-52342857D01*
X127971428Y-52342857D01*
X128885714Y-53142857D02*
X128885714Y-51942857D01*
X128885714Y-53085714D02*
X128771428Y-53142857D01*
X128542857Y-53142857D01*
X128428571Y-53085714D01*
X128371428Y-53028571D01*
X128314285Y-52914285D01*
X128314285Y-52571428D01*
X128371428Y-52457142D01*
X128428571Y-52400000D01*
X128542857Y-52342857D01*
X128771428Y-52342857D01*
X128885714Y-52400000D01*
X129971428Y-52342857D02*
X129971428Y-53142857D01*
X129457142Y-52342857D02*
X129457142Y-52971428D01*
X129514285Y-53085714D01*
X129628571Y-53142857D01*
X129800000Y-53142857D01*
X129914285Y-53085714D01*
X129971428Y-53028571D01*
X130542857Y-53142857D02*
X130542857Y-52342857D01*
X130542857Y-51942857D02*
X130485714Y-52000000D01*
X130542857Y-52057142D01*
X130600000Y-52000000D01*
X130542857Y-51942857D01*
X130542857Y-52057142D01*
X131114285Y-52342857D02*
X131114285Y-53142857D01*
X131114285Y-52457142D02*
X131171428Y-52400000D01*
X131285714Y-52342857D01*
X131457142Y-52342857D01*
X131571428Y-52400000D01*
X131628571Y-52514285D01*
X131628571Y-53142857D01*
X132371428Y-53142857D02*
X132257142Y-53085714D01*
X132200000Y-53028571D01*
X132142857Y-52914285D01*
X132142857Y-52571428D01*
X132200000Y-52457142D01*
X132257142Y-52400000D01*
X132371428Y-52342857D01*
X132542857Y-52342857D01*
X132657142Y-52400000D01*
X132714285Y-52457142D01*
X132771428Y-52571428D01*
X132771428Y-52914285D01*
X132714285Y-53028571D01*
X132657142Y-53085714D01*
X132542857Y-53142857D01*
X132371428Y-53142857D01*
X134200000Y-53142857D02*
X134200000Y-51942857D01*
X134885714Y-53142857D01*
X134885714Y-51942857D01*
X135971428Y-53142857D02*
X135971428Y-52514285D01*
X135914285Y-52400000D01*
X135800000Y-52342857D01*
X135571428Y-52342857D01*
X135457142Y-52400000D01*
X135971428Y-53085714D02*
X135857142Y-53142857D01*
X135571428Y-53142857D01*
X135457142Y-53085714D01*
X135400000Y-52971428D01*
X135400000Y-52857142D01*
X135457142Y-52742857D01*
X135571428Y-52685714D01*
X135857142Y-52685714D01*
X135971428Y-52628571D01*
X136542857Y-52342857D02*
X136542857Y-53142857D01*
X136542857Y-52457142D02*
X136600000Y-52400000D01*
X136714285Y-52342857D01*
X136885714Y-52342857D01*
X137000000Y-52400000D01*
X137057142Y-52514285D01*
X137057142Y-53142857D01*
X137800000Y-53142857D02*
X137685714Y-53085714D01*
X137628571Y-53028571D01*
X137571428Y-52914285D01*
X137571428Y-52571428D01*
X137628571Y-52457142D01*
X137685714Y-52400000D01*
X137800000Y-52342857D01*
X137971428Y-52342857D01*
X138085714Y-52400000D01*
X138142857Y-52457142D01*
X138200000Y-52571428D01*
X138200000Y-52914285D01*
X138142857Y-53028571D01*
X138085714Y-53085714D01*
X137971428Y-53142857D01*
X137800000Y-53142857D01*
X139628571Y-53142857D02*
X139628571Y-51942857D01*
X140085714Y-51942857D01*
X140200000Y-52000000D01*
X140257142Y-52057142D01*
X140314285Y-52171428D01*
X140314285Y-52342857D01*
X140257142Y-52457142D01*
X140200000Y-52514285D01*
X140085714Y-52571428D01*
X139628571Y-52571428D01*
X141000000Y-53142857D02*
X140885714Y-53085714D01*
X140828571Y-52971428D01*
X140828571Y-51942857D01*
X141971428Y-53142857D02*
X141971428Y-52514285D01*
X141914285Y-52400000D01*
X141800000Y-52342857D01*
X141571428Y-52342857D01*
X141457142Y-52400000D01*
X141971428Y-53085714D02*
X141857142Y-53142857D01*
X141571428Y-53142857D01*
X141457142Y-53085714D01*
X141400000Y-52971428D01*
X141400000Y-52857142D01*
X141457142Y-52742857D01*
X141571428Y-52685714D01*
X141857142Y-52685714D01*
X141971428Y-52628571D01*
X142428571Y-52342857D02*
X142714285Y-53142857D01*
X143000000Y-52342857D02*
X142714285Y-53142857D01*
X142600000Y-53428571D01*
X142542857Y-53485714D01*
X142428571Y-53542857D01*
X144771428Y-52514285D02*
X144942857Y-52571428D01*
X145000000Y-52628571D01*
X145057142Y-52742857D01*
X145057142Y-52914285D01*
X145000000Y-53028571D01*
X144942857Y-53085714D01*
X144828571Y-53142857D01*
X144371428Y-53142857D01*
X144371428Y-51942857D01*
X144771428Y-51942857D01*
X144885714Y-52000000D01*
X144942857Y-52057142D01*
X145000000Y-52171428D01*
X145000000Y-52285714D01*
X144942857Y-52400000D01*
X144885714Y-52457142D01*
X144771428Y-52514285D01*
X144371428Y-52514285D01*
X145742857Y-53142857D02*
X145628571Y-53085714D01*
X145571428Y-53028571D01*
X145514285Y-52914285D01*
X145514285Y-52571428D01*
X145571428Y-52457142D01*
X145628571Y-52400000D01*
X145742857Y-52342857D01*
X145914285Y-52342857D01*
X146028571Y-52400000D01*
X146085714Y-52457142D01*
X146142857Y-52571428D01*
X146142857Y-52914285D01*
X146085714Y-53028571D01*
X146028571Y-53085714D01*
X145914285Y-53142857D01*
X145742857Y-53142857D01*
X147171428Y-53142857D02*
X147171428Y-52514285D01*
X147114285Y-52400000D01*
X147000000Y-52342857D01*
X146771428Y-52342857D01*
X146657142Y-52400000D01*
X147171428Y-53085714D02*
X147057142Y-53142857D01*
X146771428Y-53142857D01*
X146657142Y-53085714D01*
X146600000Y-52971428D01*
X146600000Y-52857142D01*
X146657142Y-52742857D01*
X146771428Y-52685714D01*
X147057142Y-52685714D01*
X147171428Y-52628571D01*
X147742857Y-53142857D02*
X147742857Y-52342857D01*
X147742857Y-52571428D02*
X147800000Y-52457142D01*
X147857142Y-52400000D01*
X147971428Y-52342857D01*
X148085714Y-52342857D01*
X149000000Y-53142857D02*
X149000000Y-51942857D01*
X149000000Y-53085714D02*
X148885714Y-53142857D01*
X148657142Y-53142857D01*
X148542857Y-53085714D01*
X148485714Y-53028571D01*
X148428571Y-52914285D01*
X148428571Y-52571428D01*
X148485714Y-52457142D01*
X148542857Y-52400000D01*
X148657142Y-52342857D01*
X148885714Y-52342857D01*
X149000000Y-52400000D01*
D12*
X204204761Y-48452380D02*
X203871428Y-47976190D01*
X203633333Y-48452380D02*
X203633333Y-47452380D01*
X204014285Y-47452380D01*
X204109523Y-47500000D01*
X204157142Y-47547619D01*
X204204761Y-47642857D01*
X204204761Y-47785714D01*
X204157142Y-47880952D01*
X204109523Y-47928571D01*
X204014285Y-47976190D01*
X203633333Y-47976190D01*
X204538095Y-48452380D02*
X205061904Y-47785714D01*
X204538095Y-47785714D02*
X205061904Y-48452380D01*
X203609523Y-44952380D02*
X204180952Y-44952380D01*
X203895238Y-45952380D02*
X203895238Y-44952380D01*
X204419047Y-45952380D02*
X204942857Y-45285714D01*
X204419047Y-45285714D02*
X204942857Y-45952380D01*
X202709523Y-60004761D02*
X202852380Y-60052380D01*
X203090476Y-60052380D01*
X203185714Y-60004761D01*
X203233333Y-59957142D01*
X203280952Y-59861904D01*
X203280952Y-59766666D01*
X203233333Y-59671428D01*
X203185714Y-59623809D01*
X203090476Y-59576190D01*
X202900000Y-59528571D01*
X202804761Y-59480952D01*
X202757142Y-59433333D01*
X202709523Y-59338095D01*
X202709523Y-59242857D01*
X202757142Y-59147619D01*
X202804761Y-59100000D01*
X202900000Y-59052380D01*
X203138095Y-59052380D01*
X203280952Y-59100000D01*
X204280952Y-59957142D02*
X204233333Y-60004761D01*
X204090476Y-60052380D01*
X203995238Y-60052380D01*
X203852380Y-60004761D01*
X203757142Y-59909523D01*
X203709523Y-59814285D01*
X203661904Y-59623809D01*
X203661904Y-59480952D01*
X203709523Y-59290476D01*
X203757142Y-59195238D01*
X203852380Y-59100000D01*
X203995238Y-59052380D01*
X204090476Y-59052380D01*
X204233333Y-59100000D01*
X204280952Y-59147619D01*
X205185714Y-60052380D02*
X204709523Y-60052380D01*
X204709523Y-59052380D01*
X202685714Y-57504761D02*
X202828571Y-57552380D01*
X203066666Y-57552380D01*
X203161904Y-57504761D01*
X203209523Y-57457142D01*
X203257142Y-57361904D01*
X203257142Y-57266666D01*
X203209523Y-57171428D01*
X203161904Y-57123809D01*
X203066666Y-57076190D01*
X202876190Y-57028571D01*
X202780952Y-56980952D01*
X202733333Y-56933333D01*
X202685714Y-56838095D01*
X202685714Y-56742857D01*
X202733333Y-56647619D01*
X202780952Y-56600000D01*
X202876190Y-56552380D01*
X203114285Y-56552380D01*
X203257142Y-56600000D01*
X203685714Y-57552380D02*
X203685714Y-56552380D01*
X203923809Y-56552380D01*
X204066666Y-56600000D01*
X204161904Y-56695238D01*
X204209523Y-56790476D01*
X204257142Y-56980952D01*
X204257142Y-57123809D01*
X204209523Y-57314285D01*
X204161904Y-57409523D01*
X204066666Y-57504761D01*
X203923809Y-57552380D01*
X203685714Y-57552380D01*
X204638095Y-57266666D02*
X205114285Y-57266666D01*
X204542857Y-57552380D02*
X204876190Y-56552380D01*
X205209523Y-57552380D01*
X203138095Y-61700000D02*
X203042857Y-61652380D01*
X202900000Y-61652380D01*
X202757142Y-61700000D01*
X202661904Y-61795238D01*
X202614285Y-61890476D01*
X202566666Y-62080952D01*
X202566666Y-62223809D01*
X202614285Y-62414285D01*
X202661904Y-62509523D01*
X202757142Y-62604761D01*
X202900000Y-62652380D01*
X202995238Y-62652380D01*
X203138095Y-62604761D01*
X203185714Y-62557142D01*
X203185714Y-62223809D01*
X202995238Y-62223809D01*
X203614285Y-62652380D02*
X203614285Y-61652380D01*
X204185714Y-62652380D01*
X204185714Y-61652380D01*
X204661904Y-62652380D02*
X204661904Y-61652380D01*
X204900000Y-61652380D01*
X205042857Y-61700000D01*
X205138095Y-61795238D01*
X205185714Y-61890476D01*
X205233333Y-62080952D01*
X205233333Y-62223809D01*
X205185714Y-62414285D01*
X205138095Y-62509523D01*
X205042857Y-62604761D01*
X204900000Y-62652380D01*
X204661904Y-62652380D01*
X202942857Y-54571428D02*
X203704761Y-54571428D01*
X203323809Y-54952380D02*
X203323809Y-54190476D01*
X204657142Y-53952380D02*
X204180952Y-53952380D01*
X204133333Y-54428571D01*
X204180952Y-54380952D01*
X204276190Y-54333333D01*
X204514285Y-54333333D01*
X204609523Y-54380952D01*
X204657142Y-54428571D01*
X204704761Y-54523809D01*
X204704761Y-54761904D01*
X204657142Y-54857142D01*
X204609523Y-54904761D01*
X204514285Y-54952380D01*
X204276190Y-54952380D01*
X204180952Y-54904761D01*
X204133333Y-54857142D01*
D13*
X109410000Y-58890000D02*
X109410000Y-53810000D01*
X109410000Y-46190000D02*
X109410000Y-41110000D01*
X114490000Y-46190000D02*
X114490000Y-53810000D01*
X108140000Y-46190000D02*
X114490000Y-46190000D01*
X108140000Y-47460000D02*
X108140000Y-46190000D01*
X108140000Y-53810000D02*
X108140000Y-47460000D01*
X114490000Y-53810000D02*
X108140000Y-53810000D01*
X152590000Y-58890000D02*
X152590000Y-41110000D01*
X109410000Y-58890000D02*
X152590000Y-58890000D01*
X152590000Y-41110000D02*
X109410000Y-41110000D01*
X180540000Y-41840000D02*
X167840000Y-41840000D01*
X180540000Y-59620000D02*
X180540000Y-41840000D01*
X167840000Y-59620000D02*
X180540000Y-59620000D01*
X167840000Y-41840000D02*
X167840000Y-59620000D01*
D12*
X114794000Y-65000000D02*
X113397000Y-65000000D01*
X119239000Y-65000000D02*
X120763000Y-65000000D01*
X118858000Y-65762000D02*
X118858000Y-64238000D01*
X119112000Y-65762000D02*
X119112000Y-64238000D01*
X119366000Y-65000000D02*
X119366000Y-64238000D01*
X119366000Y-64238000D02*
X114794000Y-64238000D01*
X114794000Y-64238000D02*
X114794000Y-65762000D01*
X114794000Y-65762000D02*
X119366000Y-65762000D01*
X119366000Y-65762000D02*
X119366000Y-65000000D01*
X205730000Y-55730000D02*
X205730000Y-63350000D01*
X208270000Y-55730000D02*
X208270000Y-63350000D01*
X208550000Y-52910000D02*
X208550000Y-54460000D01*
X205730000Y-63350000D02*
X208270000Y-63350000D01*
X208270000Y-55730000D02*
X205730000Y-55730000D01*
X205450000Y-54460000D02*
X205450000Y-52910000D01*
X205450000Y-52910000D02*
X208550000Y-52910000D01*
D13*
X194920000Y-78700000D02*
X194920000Y-74890000D01*
X205080000Y-78700000D02*
X194920000Y-78700000D01*
X205080000Y-74890000D02*
X205080000Y-78700000D01*
X205080000Y-66000000D02*
X205080000Y-71080000D01*
X203810000Y-66000000D02*
X205080000Y-66000000D01*
X194920000Y-66000000D02*
X194920000Y-71080000D01*
X196190000Y-66000000D02*
X194920000Y-66000000D01*
D11*
X130200000Y-67000000D02*
X127100000Y-67000000D01*
X130300000Y-67000000D02*
X130200000Y-67000000D01*
X130300000Y-71000000D02*
G75*
G03X130300000Y-67000000I-1600000J2000000D01*
G01*
X127112936Y-66989719D02*
G75*
G03X127100000Y-71000000I1587064J-2010281D01*
G01*
X130200000Y-67000000D02*
X127200000Y-67000000D01*
X130300000Y-71000000D02*
X127200000Y-71000000D01*
X151891707Y-70053200D02*
G75*
G03X151891707Y-70053200I-707107J0D01*
G01*
X159684600Y-70053200D02*
G75*
G03X159684600Y-70053200I-8500000J0D01*
G01*
D12*
X205730000Y-46730000D02*
X205730000Y-44190000D01*
X205450000Y-49550000D02*
X205450000Y-48000000D01*
X205730000Y-46730000D02*
X208270000Y-46730000D01*
X208550000Y-48000000D02*
X208550000Y-49550000D01*
X208550000Y-49550000D02*
X205450000Y-49550000D01*
X208270000Y-46730000D02*
X208270000Y-44190000D01*
X208270000Y-44190000D02*
X205730000Y-44190000D01*
X131126000Y-77905000D02*
X133031000Y-77905000D01*
X135571000Y-77905000D02*
X134809000Y-77905000D01*
X137984000Y-77905000D02*
X138111000Y-77905000D01*
X137984000Y-77905000D02*
X137349000Y-77905000D01*
X141794000Y-77905000D02*
X140016000Y-77905000D01*
X141794000Y-74222000D02*
X140143000Y-74222000D01*
X137476000Y-74095000D02*
X138111000Y-74095000D01*
X134936000Y-74095000D02*
X135571000Y-74095000D01*
X131126000Y-74222000D02*
X132777000Y-74222000D01*
X137984000Y-79048000D02*
X137984000Y-77905000D01*
X134936000Y-79048000D02*
X134936000Y-77905000D01*
X131126000Y-77905000D02*
X131126000Y-74222000D01*
X141794000Y-74222000D02*
X141794000Y-77905000D01*
X131126000Y-79048000D02*
X131126000Y-77905000D01*
X141794000Y-77905000D02*
X141794000Y-79048000D01*
X136460000Y-79048000D02*
X141794000Y-79048000D01*
X136460000Y-79048000D02*
X131126000Y-79048000D01*
D13*
X120250000Y-77500000D02*
X121000000Y-77500000D01*
X107250000Y-77500000D02*
X116000000Y-77500000D01*
X107250000Y-68500000D02*
X107250000Y-77500000D01*
X121000000Y-68500000D02*
X107250000Y-68500000D01*
X121000000Y-70750000D02*
X121000000Y-68500000D01*
X121000000Y-77500000D02*
X121000000Y-75250000D01*
D12*
X136575000Y-66501000D02*
X136575000Y-71499000D01*
X136715000Y-66509000D02*
X136715000Y-68846000D01*
X136715000Y-69154000D02*
X136715000Y-71491000D01*
X136855000Y-66525000D02*
X136855000Y-68527000D01*
X136855000Y-69473000D02*
X136855000Y-71475000D01*
X136995000Y-66549000D02*
X136995000Y-68380000D01*
X136995000Y-69620000D02*
X136995000Y-71451000D01*
X137135000Y-66582000D02*
X137135000Y-68288000D01*
X137135000Y-69712000D02*
X137135000Y-71418000D01*
X137275000Y-66623000D02*
X137275000Y-68232000D01*
X137275000Y-69768000D02*
X137275000Y-71377000D01*
X137415000Y-66673000D02*
X137415000Y-68205000D01*
X137415000Y-69795000D02*
X137415000Y-71327000D01*
X137555000Y-66734000D02*
X137555000Y-68202000D01*
X137555000Y-69798000D02*
X137555000Y-71266000D01*
X137695000Y-66804000D02*
X137695000Y-68224000D01*
X137695000Y-69776000D02*
X137695000Y-71196000D01*
X137835000Y-66886000D02*
X137835000Y-68274000D01*
X137835000Y-69726000D02*
X137835000Y-71114000D01*
X137975000Y-66981000D02*
X137975000Y-68356000D01*
X137975000Y-69644000D02*
X137975000Y-71019000D01*
X138115000Y-67092000D02*
X138115000Y-68488000D01*
X138115000Y-69512000D02*
X138115000Y-70908000D01*
X138255000Y-67220000D02*
X138255000Y-68735000D01*
X138255000Y-69265000D02*
X138255000Y-70780000D01*
X138395000Y-67369000D02*
X138395000Y-70631000D01*
X138535000Y-67548000D02*
X138535000Y-70452000D01*
X138675000Y-67767000D02*
X138675000Y-70233000D01*
X138815000Y-68056000D02*
X138815000Y-69944000D01*
X138955000Y-68528000D02*
X138955000Y-69472000D01*
X138300000Y-69000000D02*
G75*
G03X138300000Y-69000000I-800000J0D01*
G01*
X139037500Y-69000000D02*
G75*
G03X139037500Y-69000000I-2537500J0D01*
G01*
X126425000Y-78499000D02*
X126425000Y-73501000D01*
X126285000Y-78491000D02*
X126285000Y-76154000D01*
X126285000Y-75846000D02*
X126285000Y-73509000D01*
X126145000Y-78475000D02*
X126145000Y-76473000D01*
X126145000Y-75527000D02*
X126145000Y-73525000D01*
X126005000Y-78451000D02*
X126005000Y-76620000D01*
X126005000Y-75380000D02*
X126005000Y-73549000D01*
X125865000Y-78418000D02*
X125865000Y-76712000D01*
X125865000Y-75288000D02*
X125865000Y-73582000D01*
X125725000Y-78377000D02*
X125725000Y-76768000D01*
X125725000Y-75232000D02*
X125725000Y-73623000D01*
X125585000Y-78327000D02*
X125585000Y-76795000D01*
X125585000Y-75205000D02*
X125585000Y-73673000D01*
X125445000Y-78266000D02*
X125445000Y-76798000D01*
X125445000Y-75202000D02*
X125445000Y-73734000D01*
X125305000Y-78196000D02*
X125305000Y-76776000D01*
X125305000Y-75224000D02*
X125305000Y-73804000D01*
X125165000Y-78114000D02*
X125165000Y-76726000D01*
X125165000Y-75274000D02*
X125165000Y-73886000D01*
X125025000Y-78019000D02*
X125025000Y-76644000D01*
X125025000Y-75356000D02*
X125025000Y-73981000D01*
X124885000Y-77908000D02*
X124885000Y-76512000D01*
X124885000Y-75488000D02*
X124885000Y-74092000D01*
X124745000Y-77780000D02*
X124745000Y-76265000D01*
X124745000Y-75735000D02*
X124745000Y-74220000D01*
X124605000Y-77631000D02*
X124605000Y-74369000D01*
X124465000Y-77452000D02*
X124465000Y-74548000D01*
X124325000Y-77233000D02*
X124325000Y-74767000D01*
X124185000Y-76944000D02*
X124185000Y-75056000D01*
X124045000Y-76472000D02*
X124045000Y-75528000D01*
X126300000Y-76000000D02*
G75*
G03X126300000Y-76000000I-800000J0D01*
G01*
X129037500Y-76000000D02*
G75*
G03X129037500Y-76000000I-2537500J0D01*
G01*
X143250000Y-63250000D02*
X140250000Y-63250000D01*
X140250000Y-60750000D02*
X143250000Y-60750000D01*
X185700000Y-62300000D02*
X182300000Y-62300000D01*
X185697056Y-62302944D02*
G75*
G02X184000000Y-66400000I-1697056J-1697056D01*
G01*
X182302944Y-62302944D02*
G75*
G03X184000000Y-66400000I1697056J-1697056D01*
G01*
X178700000Y-62300000D02*
X175300000Y-62300000D01*
X178697056Y-62302944D02*
G75*
G02X177000000Y-66400000I-1697056J-1697056D01*
G01*
X175302944Y-62302944D02*
G75*
G03X177000000Y-66400000I1697056J-1697056D01*
G01*
X193430000Y-62300000D02*
X190030000Y-62300000D01*
X193427056Y-62302944D02*
G75*
G02X191730000Y-66400000I-1697056J-1697056D01*
G01*
X190032944Y-62302944D02*
G75*
G03X191730000Y-66400000I1697056J-1697056D01*
G01*
X171700000Y-62300000D02*
X168300000Y-62300000D01*
X171697056Y-62302944D02*
G75*
G02X170000000Y-66400000I-1697056J-1697056D01*
G01*
X168302944Y-62302944D02*
G75*
G03X170000000Y-66400000I1697056J-1697056D01*
G01*
X164430000Y-62300000D02*
X161030000Y-62300000D01*
X164427056Y-62302944D02*
G75*
G02X162730000Y-66400000I-1697056J-1697056D01*
G01*
X161032944Y-62302944D02*
G75*
G03X162730000Y-66400000I1697056J-1697056D01*
G01*
X201400000Y-58300000D02*
X198000000Y-58300000D01*
X201397056Y-58302944D02*
G75*
G02X199700000Y-62400000I-1697056J-1697056D01*
G01*
X198002944Y-58302944D02*
G75*
G03X199700000Y-62400000I1697056J-1697056D01*
G01*
X201430000Y-53300000D02*
X198030000Y-53300000D01*
X201427056Y-53302944D02*
G75*
G02X199730000Y-57400000I-1697056J-1697056D01*
G01*
X198032944Y-53302944D02*
G75*
G03X199730000Y-57400000I1697056J-1697056D01*
G01*
X201430000Y-48300000D02*
X198030000Y-48300000D01*
X201427056Y-48302944D02*
G75*
G02X199730000Y-52400000I-1697056J-1697056D01*
G01*
X198032944Y-48302944D02*
G75*
G03X199730000Y-52400000I1697056J-1697056D01*
G01*
X191460000Y-53270000D02*
X186380000Y-53270000D01*
X186380000Y-53270000D02*
X186380000Y-50730000D01*
X186380000Y-50730000D02*
X191460000Y-50730000D01*
X191460000Y-50730000D02*
X191460000Y-53270000D01*
X191460000Y-52000000D02*
X192730000Y-52000000D01*
X186380000Y-52000000D02*
X185110000Y-52000000D01*
X191460000Y-56270000D02*
X186380000Y-56270000D01*
X186380000Y-56270000D02*
X186380000Y-53730000D01*
X186380000Y-53730000D02*
X191460000Y-53730000D01*
X191460000Y-53730000D02*
X191460000Y-56270000D01*
X191460000Y-55000000D02*
X192730000Y-55000000D01*
X186380000Y-55000000D02*
X185110000Y-55000000D01*
X191490600Y-59283600D02*
X186410600Y-59283600D01*
X186410600Y-59283600D02*
X186410600Y-56743600D01*
X186410600Y-56743600D02*
X191490600Y-56743600D01*
X191490600Y-56743600D02*
X191490600Y-59283600D01*
X191490600Y-58013600D02*
X192760600Y-58013600D01*
X186410600Y-58013600D02*
X185140600Y-58013600D01*
X186380000Y-41730000D02*
X191460000Y-41730000D01*
X191460000Y-41730000D02*
X191460000Y-44270000D01*
X191460000Y-44270000D02*
X186380000Y-44270000D01*
X186380000Y-44270000D02*
X186380000Y-41730000D01*
X186380000Y-43000000D02*
X185110000Y-43000000D01*
X191460000Y-43000000D02*
X192730000Y-43000000D01*
X186390000Y-47730000D02*
X191470000Y-47730000D01*
X191470000Y-47730000D02*
X191470000Y-50270000D01*
X191470000Y-50270000D02*
X186390000Y-50270000D01*
X186390000Y-50270000D02*
X186390000Y-47730000D01*
X186390000Y-49000000D02*
X185120000Y-49000000D01*
X191470000Y-49000000D02*
X192740000Y-49000000D01*
X186390000Y-44730000D02*
X191470000Y-44730000D01*
X191470000Y-44730000D02*
X191470000Y-47270000D01*
X191470000Y-47270000D02*
X186390000Y-47270000D01*
X186390000Y-47270000D02*
X186390000Y-44730000D01*
X186390000Y-46000000D02*
X185120000Y-46000000D01*
X191470000Y-46000000D02*
X192740000Y-46000000D01*
X170620000Y-77270000D02*
X165540000Y-77270000D01*
X165540000Y-77270000D02*
X165540000Y-74730000D01*
X165540000Y-74730000D02*
X170620000Y-74730000D01*
X170620000Y-74730000D02*
X170620000Y-77270000D01*
X170620000Y-76000000D02*
X171890000Y-76000000D01*
X165540000Y-76000000D02*
X164270000Y-76000000D01*
X162460000Y-47270000D02*
X157380000Y-47270000D01*
X157380000Y-47270000D02*
X157380000Y-44730000D01*
X157380000Y-44730000D02*
X162460000Y-44730000D01*
X162460000Y-44730000D02*
X162460000Y-47270000D01*
X162460000Y-46000000D02*
X163730000Y-46000000D01*
X157380000Y-46000000D02*
X156110000Y-46000000D01*
X170620000Y-71270000D02*
X165540000Y-71270000D01*
X165540000Y-71270000D02*
X165540000Y-68730000D01*
X165540000Y-68730000D02*
X170620000Y-68730000D01*
X170620000Y-68730000D02*
X170620000Y-71270000D01*
X170620000Y-70000000D02*
X171890000Y-70000000D01*
X165540000Y-70000000D02*
X164270000Y-70000000D01*
X162460000Y-56270000D02*
X157380000Y-56270000D01*
X157380000Y-56270000D02*
X157380000Y-53730000D01*
X157380000Y-53730000D02*
X162460000Y-53730000D01*
X162460000Y-53730000D02*
X162460000Y-56270000D01*
X162460000Y-55000000D02*
X163730000Y-55000000D01*
X157380000Y-55000000D02*
X156110000Y-55000000D01*
X170620000Y-74270000D02*
X165540000Y-74270000D01*
X165540000Y-74270000D02*
X165540000Y-71730000D01*
X165540000Y-71730000D02*
X170620000Y-71730000D01*
X170620000Y-71730000D02*
X170620000Y-74270000D01*
X170620000Y-73000000D02*
X171890000Y-73000000D01*
X165540000Y-73000000D02*
X164270000Y-73000000D01*
X162370000Y-44270000D02*
X157290000Y-44270000D01*
X157290000Y-44270000D02*
X157290000Y-41730000D01*
X157290000Y-41730000D02*
X162370000Y-41730000D01*
X162370000Y-41730000D02*
X162370000Y-44270000D01*
X162370000Y-43000000D02*
X163640000Y-43000000D01*
X157290000Y-43000000D02*
X156020000Y-43000000D01*
X162460000Y-50270000D02*
X157380000Y-50270000D01*
X157380000Y-50270000D02*
X157380000Y-47730000D01*
X157380000Y-47730000D02*
X162460000Y-47730000D01*
X162460000Y-47730000D02*
X162460000Y-50270000D01*
X162460000Y-49000000D02*
X163730000Y-49000000D01*
X157380000Y-49000000D02*
X156110000Y-49000000D01*
X162460000Y-53270000D02*
X157380000Y-53270000D01*
X157380000Y-53270000D02*
X157380000Y-50730000D01*
X157380000Y-50730000D02*
X162460000Y-50730000D01*
X162460000Y-50730000D02*
X162460000Y-53270000D01*
X162460000Y-52000000D02*
X163730000Y-52000000D01*
X157380000Y-52000000D02*
X156110000Y-52000000D01*
X162460000Y-59270000D02*
X157380000Y-59270000D01*
X157380000Y-59270000D02*
X157380000Y-56730000D01*
X157380000Y-56730000D02*
X162460000Y-56730000D01*
X162460000Y-56730000D02*
X162460000Y-59270000D01*
X162460000Y-58000000D02*
X163730000Y-58000000D01*
X157380000Y-58000000D02*
X156110000Y-58000000D01*
X187460000Y-71270000D02*
X182380000Y-71270000D01*
X182380000Y-71270000D02*
X182380000Y-68730000D01*
X182380000Y-68730000D02*
X187460000Y-68730000D01*
X187460000Y-68730000D02*
X187460000Y-71270000D01*
X187460000Y-70000000D02*
X188730000Y-70000000D01*
X182380000Y-70000000D02*
X181110000Y-70000000D01*
X187520000Y-77370000D02*
X182440000Y-77370000D01*
X182440000Y-77370000D02*
X182440000Y-74830000D01*
X182440000Y-74830000D02*
X187520000Y-74830000D01*
X187520000Y-74830000D02*
X187520000Y-77370000D01*
X187520000Y-76100000D02*
X188790000Y-76100000D01*
X182440000Y-76100000D02*
X181170000Y-76100000D01*
X187520000Y-74270000D02*
X182440000Y-74270000D01*
X182440000Y-74270000D02*
X182440000Y-71730000D01*
X182440000Y-71730000D02*
X187520000Y-71730000D01*
X187520000Y-71730000D02*
X187520000Y-74270000D01*
X187520000Y-73000000D02*
X188790000Y-73000000D01*
X182440000Y-73000000D02*
X181170000Y-73000000D01*
X132257800Y-63296800D02*
X127177800Y-63296800D01*
X127177800Y-63296800D02*
X127177800Y-60756800D01*
X127177800Y-60756800D02*
X132257800Y-60756800D01*
X132257800Y-60756800D02*
X132257800Y-63296800D01*
X132257800Y-62026800D02*
X133527800Y-62026800D01*
X127177800Y-62026800D02*
X125907800Y-62026800D01*
D13*
X202401200Y-42100000D02*
G75*
G03X202401200Y-45900000I-2300000J-1900000D01*
G01*
X202401200Y-44700000D02*
X202401200Y-45900000D01*
X202401200Y-42100000D02*
X202401200Y-43300000D01*
D12*
X149538095Y-44352380D02*
X149538095Y-45161904D01*
X149585714Y-45257142D01*
X149633333Y-45304761D01*
X149728571Y-45352380D01*
X149919047Y-45352380D01*
X150014285Y-45304761D01*
X150061904Y-45257142D01*
X150109523Y-45161904D01*
X150109523Y-44352380D01*
X151014285Y-44685714D02*
X151014285Y-45352380D01*
X150776190Y-44304761D02*
X150538095Y-45019047D01*
X151157142Y-45019047D01*
X173438095Y-47152380D02*
X173438095Y-47961904D01*
X173485714Y-48057142D01*
X173533333Y-48104761D01*
X173628571Y-48152380D01*
X173819047Y-48152380D01*
X173914285Y-48104761D01*
X173961904Y-48057142D01*
X174009523Y-47961904D01*
X174009523Y-47152380D01*
X174390476Y-47152380D02*
X175009523Y-47152380D01*
X174676190Y-47533333D01*
X174819047Y-47533333D01*
X174914285Y-47580952D01*
X174961904Y-47628571D01*
X175009523Y-47723809D01*
X175009523Y-47961904D01*
X174961904Y-48057142D01*
X174914285Y-48104761D01*
X174819047Y-48152380D01*
X174533333Y-48152380D01*
X174438095Y-48104761D01*
X174390476Y-48057142D01*
X115991904Y-62912380D02*
X115991904Y-61912380D01*
X116230000Y-61912380D01*
X116372857Y-61960000D01*
X116468095Y-62055238D01*
X116515714Y-62150476D01*
X116563333Y-62340952D01*
X116563333Y-62483809D01*
X116515714Y-62674285D01*
X116468095Y-62769523D01*
X116372857Y-62864761D01*
X116230000Y-62912380D01*
X115991904Y-62912380D01*
X117515714Y-62912380D02*
X116944285Y-62912380D01*
X117230000Y-62912380D02*
X117230000Y-61912380D01*
X117134761Y-62055238D01*
X117039523Y-62150476D01*
X116944285Y-62198095D01*
X206161904Y-43652380D02*
X206161904Y-42652380D01*
X206542857Y-42652380D01*
X206638095Y-42700000D01*
X206685714Y-42747619D01*
X206733333Y-42842857D01*
X206733333Y-42985714D01*
X206685714Y-43080952D01*
X206638095Y-43128571D01*
X206542857Y-43176190D01*
X206161904Y-43176190D01*
X207066666Y-42652380D02*
X207733333Y-42652380D01*
X207304761Y-43652380D01*
X199404761Y-73452380D02*
X199071428Y-72976190D01*
X198833333Y-73452380D02*
X198833333Y-72452380D01*
X199214285Y-72452380D01*
X199309523Y-72500000D01*
X199357142Y-72547619D01*
X199404761Y-72642857D01*
X199404761Y-72785714D01*
X199357142Y-72880952D01*
X199309523Y-72928571D01*
X199214285Y-72976190D01*
X198833333Y-72976190D01*
X199690476Y-72452380D02*
X200023809Y-73452380D01*
X200357142Y-72452380D01*
X201214285Y-73452380D02*
X200642857Y-73452380D01*
X200928571Y-73452380D02*
X200928571Y-72452380D01*
X200833333Y-72595238D01*
X200738095Y-72690476D01*
X200642857Y-72738095D01*
X128058942Y-72435980D02*
X127725609Y-71959790D01*
X127487514Y-72435980D02*
X127487514Y-71435980D01*
X127868466Y-71435980D01*
X127963704Y-71483600D01*
X128011323Y-71531219D01*
X128058942Y-71626457D01*
X128058942Y-71769314D01*
X128011323Y-71864552D01*
X127963704Y-71912171D01*
X127868466Y-71959790D01*
X127487514Y-71959790D01*
X128439895Y-71531219D02*
X128487514Y-71483600D01*
X128582752Y-71435980D01*
X128820847Y-71435980D01*
X128916085Y-71483600D01*
X128963704Y-71531219D01*
X129011323Y-71626457D01*
X129011323Y-71721695D01*
X128963704Y-71864552D01*
X128392276Y-72435980D01*
X129011323Y-72435980D01*
X129630371Y-71435980D02*
X129725609Y-71435980D01*
X129820847Y-71483600D01*
X129868466Y-71531219D01*
X129916085Y-71626457D01*
X129963704Y-71816933D01*
X129963704Y-72055028D01*
X129916085Y-72245504D01*
X129868466Y-72340742D01*
X129820847Y-72388361D01*
X129725609Y-72435980D01*
X129630371Y-72435980D01*
X129535133Y-72388361D01*
X129487514Y-72340742D01*
X129439895Y-72245504D01*
X129392276Y-72055028D01*
X129392276Y-71816933D01*
X129439895Y-71626457D01*
X129487514Y-71531219D01*
X129535133Y-71483600D01*
X129630371Y-71435980D01*
X153722695Y-74157961D02*
X153865552Y-74205580D01*
X154103647Y-74205580D01*
X154198885Y-74157961D01*
X154246504Y-74110342D01*
X154294123Y-74015104D01*
X154294123Y-73919866D01*
X154246504Y-73824628D01*
X154198885Y-73777009D01*
X154103647Y-73729390D01*
X153913171Y-73681771D01*
X153817933Y-73634152D01*
X153770314Y-73586533D01*
X153722695Y-73491295D01*
X153722695Y-73396057D01*
X153770314Y-73300819D01*
X153817933Y-73253200D01*
X153913171Y-73205580D01*
X154151266Y-73205580D01*
X154294123Y-73253200D01*
X154722695Y-74205580D02*
X154722695Y-73205580D01*
X155103647Y-73205580D01*
X155198885Y-73253200D01*
X155246504Y-73300819D01*
X155294123Y-73396057D01*
X155294123Y-73538914D01*
X155246504Y-73634152D01*
X155198885Y-73681771D01*
X155103647Y-73729390D01*
X154722695Y-73729390D01*
X156246504Y-74205580D02*
X155675076Y-74205580D01*
X155960790Y-74205580D02*
X155960790Y-73205580D01*
X155865552Y-73348438D01*
X155770314Y-73443676D01*
X155675076Y-73491295D01*
X206261904Y-52452380D02*
X206261904Y-51452380D01*
X206642857Y-51452380D01*
X206738095Y-51500000D01*
X206785714Y-51547619D01*
X206833333Y-51642857D01*
X206833333Y-51785714D01*
X206785714Y-51880952D01*
X206738095Y-51928571D01*
X206642857Y-51976190D01*
X206261904Y-51976190D01*
X207785714Y-52452380D02*
X207214285Y-52452380D01*
X207500000Y-52452380D02*
X207500000Y-51452380D01*
X207404761Y-51595238D01*
X207309523Y-51690476D01*
X207214285Y-51738095D01*
X142252380Y-78161904D02*
X143061904Y-78161904D01*
X143157142Y-78114285D01*
X143204761Y-78066666D01*
X143252380Y-77971428D01*
X143252380Y-77780952D01*
X143204761Y-77685714D01*
X143157142Y-77638095D01*
X143061904Y-77590476D01*
X142252380Y-77590476D01*
X143252380Y-76590476D02*
X143252380Y-77161904D01*
X143252380Y-76876190D02*
X142252380Y-76876190D01*
X142395238Y-76971428D01*
X142490476Y-77066666D01*
X142538095Y-77161904D01*
X112057142Y-74214285D02*
X112104761Y-74261904D01*
X112152380Y-74404761D01*
X112152380Y-74500000D01*
X112104761Y-74642857D01*
X112009523Y-74738095D01*
X111914285Y-74785714D01*
X111723809Y-74833333D01*
X111580952Y-74833333D01*
X111390476Y-74785714D01*
X111295238Y-74738095D01*
X111200000Y-74642857D01*
X111152380Y-74500000D01*
X111152380Y-74404761D01*
X111200000Y-74261904D01*
X111247619Y-74214285D01*
X111152380Y-73595238D02*
X111152380Y-73404761D01*
X111200000Y-73309523D01*
X111295238Y-73214285D01*
X111485714Y-73166666D01*
X111819047Y-73166666D01*
X112009523Y-73214285D01*
X112104761Y-73309523D01*
X112152380Y-73404761D01*
X112152380Y-73595238D01*
X112104761Y-73690476D01*
X112009523Y-73785714D01*
X111819047Y-73833333D01*
X111485714Y-73833333D01*
X111295238Y-73785714D01*
X111200000Y-73690476D01*
X111152380Y-73595238D01*
X112152380Y-72738095D02*
X111152380Y-72738095D01*
X112152380Y-72166666D01*
X111152380Y-72166666D01*
X112152380Y-71166666D02*
X112152380Y-71738095D01*
X112152380Y-71452380D02*
X111152380Y-71452380D01*
X111295238Y-71547619D01*
X111390476Y-71642857D01*
X111438095Y-71738095D01*
X136333333Y-65557142D02*
X136285714Y-65604761D01*
X136142857Y-65652380D01*
X136047619Y-65652380D01*
X135904761Y-65604761D01*
X135809523Y-65509523D01*
X135761904Y-65414285D01*
X135714285Y-65223809D01*
X135714285Y-65080952D01*
X135761904Y-64890476D01*
X135809523Y-64795238D01*
X135904761Y-64700000D01*
X136047619Y-64652380D01*
X136142857Y-64652380D01*
X136285714Y-64700000D01*
X136333333Y-64747619D01*
X137285714Y-65652380D02*
X136714285Y-65652380D01*
X137000000Y-65652380D02*
X137000000Y-64652380D01*
X136904761Y-64795238D01*
X136809523Y-64890476D01*
X136714285Y-64938095D01*
X122794733Y-78614542D02*
X122747114Y-78662161D01*
X122604257Y-78709780D01*
X122509019Y-78709780D01*
X122366161Y-78662161D01*
X122270923Y-78566923D01*
X122223304Y-78471685D01*
X122175685Y-78281209D01*
X122175685Y-78138352D01*
X122223304Y-77947876D01*
X122270923Y-77852638D01*
X122366161Y-77757400D01*
X122509019Y-77709780D01*
X122604257Y-77709780D01*
X122747114Y-77757400D01*
X122794733Y-77805019D01*
X123175685Y-77805019D02*
X123223304Y-77757400D01*
X123318542Y-77709780D01*
X123556638Y-77709780D01*
X123651876Y-77757400D01*
X123699495Y-77805019D01*
X123747114Y-77900257D01*
X123747114Y-77995495D01*
X123699495Y-78138352D01*
X123128066Y-78709780D01*
X123747114Y-78709780D01*
X141583333Y-64857142D02*
X141535714Y-64904761D01*
X141392857Y-64952380D01*
X141297619Y-64952380D01*
X141154761Y-64904761D01*
X141059523Y-64809523D01*
X141011904Y-64714285D01*
X140964285Y-64523809D01*
X140964285Y-64380952D01*
X141011904Y-64190476D01*
X141059523Y-64095238D01*
X141154761Y-64000000D01*
X141297619Y-63952380D01*
X141392857Y-63952380D01*
X141535714Y-64000000D01*
X141583333Y-64047619D01*
X141916666Y-63952380D02*
X142535714Y-63952380D01*
X142202380Y-64333333D01*
X142345238Y-64333333D01*
X142440476Y-64380952D01*
X142488095Y-64428571D01*
X142535714Y-64523809D01*
X142535714Y-64761904D01*
X142488095Y-64857142D01*
X142440476Y-64904761D01*
X142345238Y-64952380D01*
X142059523Y-64952380D01*
X141964285Y-64904761D01*
X141916666Y-64857142D01*
X183904761Y-66197619D02*
X183809523Y-66150000D01*
X183714285Y-66054761D01*
X183571428Y-65911904D01*
X183476190Y-65864285D01*
X183380952Y-65864285D01*
X183428571Y-66102380D02*
X183333333Y-66054761D01*
X183238095Y-65959523D01*
X183190476Y-65769047D01*
X183190476Y-65435714D01*
X183238095Y-65245238D01*
X183333333Y-65150000D01*
X183428571Y-65102380D01*
X183619047Y-65102380D01*
X183714285Y-65150000D01*
X183809523Y-65245238D01*
X183857142Y-65435714D01*
X183857142Y-65769047D01*
X183809523Y-65959523D01*
X183714285Y-66054761D01*
X183619047Y-66102380D01*
X183428571Y-66102380D01*
X184428571Y-65530952D02*
X184333333Y-65483333D01*
X184285714Y-65435714D01*
X184238095Y-65340476D01*
X184238095Y-65292857D01*
X184285714Y-65197619D01*
X184333333Y-65150000D01*
X184428571Y-65102380D01*
X184619047Y-65102380D01*
X184714285Y-65150000D01*
X184761904Y-65197619D01*
X184809523Y-65292857D01*
X184809523Y-65340476D01*
X184761904Y-65435714D01*
X184714285Y-65483333D01*
X184619047Y-65530952D01*
X184428571Y-65530952D01*
X184333333Y-65578571D01*
X184285714Y-65626190D01*
X184238095Y-65721428D01*
X184238095Y-65911904D01*
X184285714Y-66007142D01*
X184333333Y-66054761D01*
X184428571Y-66102380D01*
X184619047Y-66102380D01*
X184714285Y-66054761D01*
X184761904Y-66007142D01*
X184809523Y-65911904D01*
X184809523Y-65721428D01*
X184761904Y-65626190D01*
X184714285Y-65578571D01*
X184619047Y-65530952D01*
X176904761Y-66197619D02*
X176809523Y-66150000D01*
X176714285Y-66054761D01*
X176571428Y-65911904D01*
X176476190Y-65864285D01*
X176380952Y-65864285D01*
X176428571Y-66102380D02*
X176333333Y-66054761D01*
X176238095Y-65959523D01*
X176190476Y-65769047D01*
X176190476Y-65435714D01*
X176238095Y-65245238D01*
X176333333Y-65150000D01*
X176428571Y-65102380D01*
X176619047Y-65102380D01*
X176714285Y-65150000D01*
X176809523Y-65245238D01*
X176857142Y-65435714D01*
X176857142Y-65769047D01*
X176809523Y-65959523D01*
X176714285Y-66054761D01*
X176619047Y-66102380D01*
X176428571Y-66102380D01*
X177190476Y-65102380D02*
X177857142Y-65102380D01*
X177428571Y-66102380D01*
X191604761Y-66197619D02*
X191509523Y-66150000D01*
X191414285Y-66054761D01*
X191271428Y-65911904D01*
X191176190Y-65864285D01*
X191080952Y-65864285D01*
X191128571Y-66102380D02*
X191033333Y-66054761D01*
X190938095Y-65959523D01*
X190890476Y-65769047D01*
X190890476Y-65435714D01*
X190938095Y-65245238D01*
X191033333Y-65150000D01*
X191128571Y-65102380D01*
X191319047Y-65102380D01*
X191414285Y-65150000D01*
X191509523Y-65245238D01*
X191557142Y-65435714D01*
X191557142Y-65769047D01*
X191509523Y-65959523D01*
X191414285Y-66054761D01*
X191319047Y-66102380D01*
X191128571Y-66102380D01*
X192414285Y-65102380D02*
X192223809Y-65102380D01*
X192128571Y-65150000D01*
X192080952Y-65197619D01*
X191985714Y-65340476D01*
X191938095Y-65530952D01*
X191938095Y-65911904D01*
X191985714Y-66007142D01*
X192033333Y-66054761D01*
X192128571Y-66102380D01*
X192319047Y-66102380D01*
X192414285Y-66054761D01*
X192461904Y-66007142D01*
X192509523Y-65911904D01*
X192509523Y-65673809D01*
X192461904Y-65578571D01*
X192414285Y-65530952D01*
X192319047Y-65483333D01*
X192128571Y-65483333D01*
X192033333Y-65530952D01*
X191985714Y-65578571D01*
X191938095Y-65673809D01*
X169904761Y-66197619D02*
X169809523Y-66150000D01*
X169714285Y-66054761D01*
X169571428Y-65911904D01*
X169476190Y-65864285D01*
X169380952Y-65864285D01*
X169428571Y-66102380D02*
X169333333Y-66054761D01*
X169238095Y-65959523D01*
X169190476Y-65769047D01*
X169190476Y-65435714D01*
X169238095Y-65245238D01*
X169333333Y-65150000D01*
X169428571Y-65102380D01*
X169619047Y-65102380D01*
X169714285Y-65150000D01*
X169809523Y-65245238D01*
X169857142Y-65435714D01*
X169857142Y-65769047D01*
X169809523Y-65959523D01*
X169714285Y-66054761D01*
X169619047Y-66102380D01*
X169428571Y-66102380D01*
X170761904Y-65102380D02*
X170285714Y-65102380D01*
X170238095Y-65578571D01*
X170285714Y-65530952D01*
X170380952Y-65483333D01*
X170619047Y-65483333D01*
X170714285Y-65530952D01*
X170761904Y-65578571D01*
X170809523Y-65673809D01*
X170809523Y-65911904D01*
X170761904Y-66007142D01*
X170714285Y-66054761D01*
X170619047Y-66102380D01*
X170380952Y-66102380D01*
X170285714Y-66054761D01*
X170238095Y-66007142D01*
X162604761Y-66197619D02*
X162509523Y-66150000D01*
X162414285Y-66054761D01*
X162271428Y-65911904D01*
X162176190Y-65864285D01*
X162080952Y-65864285D01*
X162128571Y-66102380D02*
X162033333Y-66054761D01*
X161938095Y-65959523D01*
X161890476Y-65769047D01*
X161890476Y-65435714D01*
X161938095Y-65245238D01*
X162033333Y-65150000D01*
X162128571Y-65102380D01*
X162319047Y-65102380D01*
X162414285Y-65150000D01*
X162509523Y-65245238D01*
X162557142Y-65435714D01*
X162557142Y-65769047D01*
X162509523Y-65959523D01*
X162414285Y-66054761D01*
X162319047Y-66102380D01*
X162128571Y-66102380D01*
X163414285Y-65435714D02*
X163414285Y-66102380D01*
X163176190Y-65054761D02*
X162938095Y-65769047D01*
X163557142Y-65769047D01*
X199604761Y-62197619D02*
X199509523Y-62150000D01*
X199414285Y-62054761D01*
X199271428Y-61911904D01*
X199176190Y-61864285D01*
X199080952Y-61864285D01*
X199128571Y-62102380D02*
X199033333Y-62054761D01*
X198938095Y-61959523D01*
X198890476Y-61769047D01*
X198890476Y-61435714D01*
X198938095Y-61245238D01*
X199033333Y-61150000D01*
X199128571Y-61102380D01*
X199319047Y-61102380D01*
X199414285Y-61150000D01*
X199509523Y-61245238D01*
X199557142Y-61435714D01*
X199557142Y-61769047D01*
X199509523Y-61959523D01*
X199414285Y-62054761D01*
X199319047Y-62102380D01*
X199128571Y-62102380D01*
X199890476Y-61102380D02*
X200509523Y-61102380D01*
X200176190Y-61483333D01*
X200319047Y-61483333D01*
X200414285Y-61530952D01*
X200461904Y-61578571D01*
X200509523Y-61673809D01*
X200509523Y-61911904D01*
X200461904Y-62007142D01*
X200414285Y-62054761D01*
X200319047Y-62102380D01*
X200033333Y-62102380D01*
X199938095Y-62054761D01*
X199890476Y-62007142D01*
X199604761Y-57197619D02*
X199509523Y-57150000D01*
X199414285Y-57054761D01*
X199271428Y-56911904D01*
X199176190Y-56864285D01*
X199080952Y-56864285D01*
X199128571Y-57102380D02*
X199033333Y-57054761D01*
X198938095Y-56959523D01*
X198890476Y-56769047D01*
X198890476Y-56435714D01*
X198938095Y-56245238D01*
X199033333Y-56150000D01*
X199128571Y-56102380D01*
X199319047Y-56102380D01*
X199414285Y-56150000D01*
X199509523Y-56245238D01*
X199557142Y-56435714D01*
X199557142Y-56769047D01*
X199509523Y-56959523D01*
X199414285Y-57054761D01*
X199319047Y-57102380D01*
X199128571Y-57102380D01*
X199938095Y-56197619D02*
X199985714Y-56150000D01*
X200080952Y-56102380D01*
X200319047Y-56102380D01*
X200414285Y-56150000D01*
X200461904Y-56197619D01*
X200509523Y-56292857D01*
X200509523Y-56388095D01*
X200461904Y-56530952D01*
X199890476Y-57102380D01*
X200509523Y-57102380D01*
X199604761Y-52147619D02*
X199509523Y-52100000D01*
X199414285Y-52004761D01*
X199271428Y-51861904D01*
X199176190Y-51814285D01*
X199080952Y-51814285D01*
X199128571Y-52052380D02*
X199033333Y-52004761D01*
X198938095Y-51909523D01*
X198890476Y-51719047D01*
X198890476Y-51385714D01*
X198938095Y-51195238D01*
X199033333Y-51100000D01*
X199128571Y-51052380D01*
X199319047Y-51052380D01*
X199414285Y-51100000D01*
X199509523Y-51195238D01*
X199557142Y-51385714D01*
X199557142Y-51719047D01*
X199509523Y-51909523D01*
X199414285Y-52004761D01*
X199319047Y-52052380D01*
X199128571Y-52052380D01*
X200509523Y-52052380D02*
X199938095Y-52052380D01*
X200223809Y-52052380D02*
X200223809Y-51052380D01*
X200128571Y-51195238D01*
X200033333Y-51290476D01*
X199938095Y-51338095D01*
X188823333Y-52452380D02*
X188490000Y-51976190D01*
X188251904Y-52452380D02*
X188251904Y-51452380D01*
X188632857Y-51452380D01*
X188728095Y-51500000D01*
X188775714Y-51547619D01*
X188823333Y-51642857D01*
X188823333Y-51785714D01*
X188775714Y-51880952D01*
X188728095Y-51928571D01*
X188632857Y-51976190D01*
X188251904Y-51976190D01*
X189775714Y-52452380D02*
X189204285Y-52452380D01*
X189490000Y-52452380D02*
X189490000Y-51452380D01*
X189394761Y-51595238D01*
X189299523Y-51690476D01*
X189204285Y-51738095D01*
X188823333Y-55452380D02*
X188490000Y-54976190D01*
X188251904Y-55452380D02*
X188251904Y-54452380D01*
X188632857Y-54452380D01*
X188728095Y-54500000D01*
X188775714Y-54547619D01*
X188823333Y-54642857D01*
X188823333Y-54785714D01*
X188775714Y-54880952D01*
X188728095Y-54928571D01*
X188632857Y-54976190D01*
X188251904Y-54976190D01*
X189204285Y-54547619D02*
X189251904Y-54500000D01*
X189347142Y-54452380D01*
X189585238Y-54452380D01*
X189680476Y-54500000D01*
X189728095Y-54547619D01*
X189775714Y-54642857D01*
X189775714Y-54738095D01*
X189728095Y-54880952D01*
X189156666Y-55452380D01*
X189775714Y-55452380D01*
X188853933Y-58465980D02*
X188520600Y-57989790D01*
X188282504Y-58465980D02*
X188282504Y-57465980D01*
X188663457Y-57465980D01*
X188758695Y-57513600D01*
X188806314Y-57561219D01*
X188853933Y-57656457D01*
X188853933Y-57799314D01*
X188806314Y-57894552D01*
X188758695Y-57942171D01*
X188663457Y-57989790D01*
X188282504Y-57989790D01*
X189187266Y-57465980D02*
X189806314Y-57465980D01*
X189472980Y-57846933D01*
X189615838Y-57846933D01*
X189711076Y-57894552D01*
X189758695Y-57942171D01*
X189806314Y-58037409D01*
X189806314Y-58275504D01*
X189758695Y-58370742D01*
X189711076Y-58418361D01*
X189615838Y-58465980D01*
X189330123Y-58465980D01*
X189234885Y-58418361D01*
X189187266Y-58370742D01*
X188683333Y-43452380D02*
X188350000Y-42976190D01*
X188111904Y-43452380D02*
X188111904Y-42452380D01*
X188492857Y-42452380D01*
X188588095Y-42500000D01*
X188635714Y-42547619D01*
X188683333Y-42642857D01*
X188683333Y-42785714D01*
X188635714Y-42880952D01*
X188588095Y-42928571D01*
X188492857Y-42976190D01*
X188111904Y-42976190D01*
X189540476Y-42785714D02*
X189540476Y-43452380D01*
X189302380Y-42404761D02*
X189064285Y-43119047D01*
X189683333Y-43119047D01*
X188693333Y-49452380D02*
X188360000Y-48976190D01*
X188121904Y-49452380D02*
X188121904Y-48452380D01*
X188502857Y-48452380D01*
X188598095Y-48500000D01*
X188645714Y-48547619D01*
X188693333Y-48642857D01*
X188693333Y-48785714D01*
X188645714Y-48880952D01*
X188598095Y-48928571D01*
X188502857Y-48976190D01*
X188121904Y-48976190D01*
X189598095Y-48452380D02*
X189121904Y-48452380D01*
X189074285Y-48928571D01*
X189121904Y-48880952D01*
X189217142Y-48833333D01*
X189455238Y-48833333D01*
X189550476Y-48880952D01*
X189598095Y-48928571D01*
X189645714Y-49023809D01*
X189645714Y-49261904D01*
X189598095Y-49357142D01*
X189550476Y-49404761D01*
X189455238Y-49452380D01*
X189217142Y-49452380D01*
X189121904Y-49404761D01*
X189074285Y-49357142D01*
X188693333Y-46452380D02*
X188360000Y-45976190D01*
X188121904Y-46452380D02*
X188121904Y-45452380D01*
X188502857Y-45452380D01*
X188598095Y-45500000D01*
X188645714Y-45547619D01*
X188693333Y-45642857D01*
X188693333Y-45785714D01*
X188645714Y-45880952D01*
X188598095Y-45928571D01*
X188502857Y-45976190D01*
X188121904Y-45976190D01*
X189550476Y-45452380D02*
X189360000Y-45452380D01*
X189264761Y-45500000D01*
X189217142Y-45547619D01*
X189121904Y-45690476D01*
X189074285Y-45880952D01*
X189074285Y-46261904D01*
X189121904Y-46357142D01*
X189169523Y-46404761D01*
X189264761Y-46452380D01*
X189455238Y-46452380D01*
X189550476Y-46404761D01*
X189598095Y-46357142D01*
X189645714Y-46261904D01*
X189645714Y-46023809D01*
X189598095Y-45928571D01*
X189550476Y-45880952D01*
X189455238Y-45833333D01*
X189264761Y-45833333D01*
X189169523Y-45880952D01*
X189121904Y-45928571D01*
X189074285Y-46023809D01*
X167983333Y-76452380D02*
X167650000Y-75976190D01*
X167411904Y-76452380D02*
X167411904Y-75452380D01*
X167792857Y-75452380D01*
X167888095Y-75500000D01*
X167935714Y-75547619D01*
X167983333Y-75642857D01*
X167983333Y-75785714D01*
X167935714Y-75880952D01*
X167888095Y-75928571D01*
X167792857Y-75976190D01*
X167411904Y-75976190D01*
X168316666Y-75452380D02*
X168983333Y-75452380D01*
X168554761Y-76452380D01*
X159823333Y-46452380D02*
X159490000Y-45976190D01*
X159251904Y-46452380D02*
X159251904Y-45452380D01*
X159632857Y-45452380D01*
X159728095Y-45500000D01*
X159775714Y-45547619D01*
X159823333Y-45642857D01*
X159823333Y-45785714D01*
X159775714Y-45880952D01*
X159728095Y-45928571D01*
X159632857Y-45976190D01*
X159251904Y-45976190D01*
X160394761Y-45880952D02*
X160299523Y-45833333D01*
X160251904Y-45785714D01*
X160204285Y-45690476D01*
X160204285Y-45642857D01*
X160251904Y-45547619D01*
X160299523Y-45500000D01*
X160394761Y-45452380D01*
X160585238Y-45452380D01*
X160680476Y-45500000D01*
X160728095Y-45547619D01*
X160775714Y-45642857D01*
X160775714Y-45690476D01*
X160728095Y-45785714D01*
X160680476Y-45833333D01*
X160585238Y-45880952D01*
X160394761Y-45880952D01*
X160299523Y-45928571D01*
X160251904Y-45976190D01*
X160204285Y-46071428D01*
X160204285Y-46261904D01*
X160251904Y-46357142D01*
X160299523Y-46404761D01*
X160394761Y-46452380D01*
X160585238Y-46452380D01*
X160680476Y-46404761D01*
X160728095Y-46357142D01*
X160775714Y-46261904D01*
X160775714Y-46071428D01*
X160728095Y-45976190D01*
X160680476Y-45928571D01*
X160585238Y-45880952D01*
X167983333Y-70452380D02*
X167650000Y-69976190D01*
X167411904Y-70452380D02*
X167411904Y-69452380D01*
X167792857Y-69452380D01*
X167888095Y-69500000D01*
X167935714Y-69547619D01*
X167983333Y-69642857D01*
X167983333Y-69785714D01*
X167935714Y-69880952D01*
X167888095Y-69928571D01*
X167792857Y-69976190D01*
X167411904Y-69976190D01*
X168459523Y-70452380D02*
X168650000Y-70452380D01*
X168745238Y-70404761D01*
X168792857Y-70357142D01*
X168888095Y-70214285D01*
X168935714Y-70023809D01*
X168935714Y-69642857D01*
X168888095Y-69547619D01*
X168840476Y-69500000D01*
X168745238Y-69452380D01*
X168554761Y-69452380D01*
X168459523Y-69500000D01*
X168411904Y-69547619D01*
X168364285Y-69642857D01*
X168364285Y-69880952D01*
X168411904Y-69976190D01*
X168459523Y-70023809D01*
X168554761Y-70071428D01*
X168745238Y-70071428D01*
X168840476Y-70023809D01*
X168888095Y-69976190D01*
X168935714Y-69880952D01*
X159347142Y-55452380D02*
X159013809Y-54976190D01*
X158775714Y-55452380D02*
X158775714Y-54452380D01*
X159156666Y-54452380D01*
X159251904Y-54500000D01*
X159299523Y-54547619D01*
X159347142Y-54642857D01*
X159347142Y-54785714D01*
X159299523Y-54880952D01*
X159251904Y-54928571D01*
X159156666Y-54976190D01*
X158775714Y-54976190D01*
X160299523Y-55452380D02*
X159728095Y-55452380D01*
X160013809Y-55452380D02*
X160013809Y-54452380D01*
X159918571Y-54595238D01*
X159823333Y-54690476D01*
X159728095Y-54738095D01*
X160918571Y-54452380D02*
X161013809Y-54452380D01*
X161109047Y-54500000D01*
X161156666Y-54547619D01*
X161204285Y-54642857D01*
X161251904Y-54833333D01*
X161251904Y-55071428D01*
X161204285Y-55261904D01*
X161156666Y-55357142D01*
X161109047Y-55404761D01*
X161013809Y-55452380D01*
X160918571Y-55452380D01*
X160823333Y-55404761D01*
X160775714Y-55357142D01*
X160728095Y-55261904D01*
X160680476Y-55071428D01*
X160680476Y-54833333D01*
X160728095Y-54642857D01*
X160775714Y-54547619D01*
X160823333Y-54500000D01*
X160918571Y-54452380D01*
X167507142Y-73452380D02*
X167173809Y-72976190D01*
X166935714Y-73452380D02*
X166935714Y-72452380D01*
X167316666Y-72452380D01*
X167411904Y-72500000D01*
X167459523Y-72547619D01*
X167507142Y-72642857D01*
X167507142Y-72785714D01*
X167459523Y-72880952D01*
X167411904Y-72928571D01*
X167316666Y-72976190D01*
X166935714Y-72976190D01*
X168459523Y-73452380D02*
X167888095Y-73452380D01*
X168173809Y-73452380D02*
X168173809Y-72452380D01*
X168078571Y-72595238D01*
X167983333Y-72690476D01*
X167888095Y-72738095D01*
X169411904Y-73452380D02*
X168840476Y-73452380D01*
X169126190Y-73452380D02*
X169126190Y-72452380D01*
X169030952Y-72595238D01*
X168935714Y-72690476D01*
X168840476Y-72738095D01*
X159257142Y-43452380D02*
X158923809Y-42976190D01*
X158685714Y-43452380D02*
X158685714Y-42452380D01*
X159066666Y-42452380D01*
X159161904Y-42500000D01*
X159209523Y-42547619D01*
X159257142Y-42642857D01*
X159257142Y-42785714D01*
X159209523Y-42880952D01*
X159161904Y-42928571D01*
X159066666Y-42976190D01*
X158685714Y-42976190D01*
X160209523Y-43452380D02*
X159638095Y-43452380D01*
X159923809Y-43452380D02*
X159923809Y-42452380D01*
X159828571Y-42595238D01*
X159733333Y-42690476D01*
X159638095Y-42738095D01*
X160590476Y-42547619D02*
X160638095Y-42500000D01*
X160733333Y-42452380D01*
X160971428Y-42452380D01*
X161066666Y-42500000D01*
X161114285Y-42547619D01*
X161161904Y-42642857D01*
X161161904Y-42738095D01*
X161114285Y-42880952D01*
X160542857Y-43452380D01*
X161161904Y-43452380D01*
X159347142Y-49452380D02*
X159013809Y-48976190D01*
X158775714Y-49452380D02*
X158775714Y-48452380D01*
X159156666Y-48452380D01*
X159251904Y-48500000D01*
X159299523Y-48547619D01*
X159347142Y-48642857D01*
X159347142Y-48785714D01*
X159299523Y-48880952D01*
X159251904Y-48928571D01*
X159156666Y-48976190D01*
X158775714Y-48976190D01*
X160299523Y-49452380D02*
X159728095Y-49452380D01*
X160013809Y-49452380D02*
X160013809Y-48452380D01*
X159918571Y-48595238D01*
X159823333Y-48690476D01*
X159728095Y-48738095D01*
X160632857Y-48452380D02*
X161251904Y-48452380D01*
X160918571Y-48833333D01*
X161061428Y-48833333D01*
X161156666Y-48880952D01*
X161204285Y-48928571D01*
X161251904Y-49023809D01*
X161251904Y-49261904D01*
X161204285Y-49357142D01*
X161156666Y-49404761D01*
X161061428Y-49452380D01*
X160775714Y-49452380D01*
X160680476Y-49404761D01*
X160632857Y-49357142D01*
X159347142Y-52452380D02*
X159013809Y-51976190D01*
X158775714Y-52452380D02*
X158775714Y-51452380D01*
X159156666Y-51452380D01*
X159251904Y-51500000D01*
X159299523Y-51547619D01*
X159347142Y-51642857D01*
X159347142Y-51785714D01*
X159299523Y-51880952D01*
X159251904Y-51928571D01*
X159156666Y-51976190D01*
X158775714Y-51976190D01*
X160299523Y-52452380D02*
X159728095Y-52452380D01*
X160013809Y-52452380D02*
X160013809Y-51452380D01*
X159918571Y-51595238D01*
X159823333Y-51690476D01*
X159728095Y-51738095D01*
X161156666Y-51785714D02*
X161156666Y-52452380D01*
X160918571Y-51404761D02*
X160680476Y-52119047D01*
X161299523Y-52119047D01*
X159347142Y-58452380D02*
X159013809Y-57976190D01*
X158775714Y-58452380D02*
X158775714Y-57452380D01*
X159156666Y-57452380D01*
X159251904Y-57500000D01*
X159299523Y-57547619D01*
X159347142Y-57642857D01*
X159347142Y-57785714D01*
X159299523Y-57880952D01*
X159251904Y-57928571D01*
X159156666Y-57976190D01*
X158775714Y-57976190D01*
X160299523Y-58452380D02*
X159728095Y-58452380D01*
X160013809Y-58452380D02*
X160013809Y-57452380D01*
X159918571Y-57595238D01*
X159823333Y-57690476D01*
X159728095Y-57738095D01*
X161204285Y-57452380D02*
X160728095Y-57452380D01*
X160680476Y-57928571D01*
X160728095Y-57880952D01*
X160823333Y-57833333D01*
X161061428Y-57833333D01*
X161156666Y-57880952D01*
X161204285Y-57928571D01*
X161251904Y-58023809D01*
X161251904Y-58261904D01*
X161204285Y-58357142D01*
X161156666Y-58404761D01*
X161061428Y-58452380D01*
X160823333Y-58452380D01*
X160728095Y-58404761D01*
X160680476Y-58357142D01*
X184347142Y-70452380D02*
X184013809Y-69976190D01*
X183775714Y-70452380D02*
X183775714Y-69452380D01*
X184156666Y-69452380D01*
X184251904Y-69500000D01*
X184299523Y-69547619D01*
X184347142Y-69642857D01*
X184347142Y-69785714D01*
X184299523Y-69880952D01*
X184251904Y-69928571D01*
X184156666Y-69976190D01*
X183775714Y-69976190D01*
X185299523Y-70452380D02*
X184728095Y-70452380D01*
X185013809Y-70452380D02*
X185013809Y-69452380D01*
X184918571Y-69595238D01*
X184823333Y-69690476D01*
X184728095Y-69738095D01*
X186156666Y-69452380D02*
X185966190Y-69452380D01*
X185870952Y-69500000D01*
X185823333Y-69547619D01*
X185728095Y-69690476D01*
X185680476Y-69880952D01*
X185680476Y-70261904D01*
X185728095Y-70357142D01*
X185775714Y-70404761D01*
X185870952Y-70452380D01*
X186061428Y-70452380D01*
X186156666Y-70404761D01*
X186204285Y-70357142D01*
X186251904Y-70261904D01*
X186251904Y-70023809D01*
X186204285Y-69928571D01*
X186156666Y-69880952D01*
X186061428Y-69833333D01*
X185870952Y-69833333D01*
X185775714Y-69880952D01*
X185728095Y-69928571D01*
X185680476Y-70023809D01*
X184407142Y-76552380D02*
X184073809Y-76076190D01*
X183835714Y-76552380D02*
X183835714Y-75552380D01*
X184216666Y-75552380D01*
X184311904Y-75600000D01*
X184359523Y-75647619D01*
X184407142Y-75742857D01*
X184407142Y-75885714D01*
X184359523Y-75980952D01*
X184311904Y-76028571D01*
X184216666Y-76076190D01*
X183835714Y-76076190D01*
X185359523Y-76552380D02*
X184788095Y-76552380D01*
X185073809Y-76552380D02*
X185073809Y-75552380D01*
X184978571Y-75695238D01*
X184883333Y-75790476D01*
X184788095Y-75838095D01*
X185692857Y-75552380D02*
X186359523Y-75552380D01*
X185930952Y-76552380D01*
X184407142Y-73452380D02*
X184073809Y-72976190D01*
X183835714Y-73452380D02*
X183835714Y-72452380D01*
X184216666Y-72452380D01*
X184311904Y-72500000D01*
X184359523Y-72547619D01*
X184407142Y-72642857D01*
X184407142Y-72785714D01*
X184359523Y-72880952D01*
X184311904Y-72928571D01*
X184216666Y-72976190D01*
X183835714Y-72976190D01*
X185359523Y-73452380D02*
X184788095Y-73452380D01*
X185073809Y-73452380D02*
X185073809Y-72452380D01*
X184978571Y-72595238D01*
X184883333Y-72690476D01*
X184788095Y-72738095D01*
X185930952Y-72880952D02*
X185835714Y-72833333D01*
X185788095Y-72785714D01*
X185740476Y-72690476D01*
X185740476Y-72642857D01*
X185788095Y-72547619D01*
X185835714Y-72500000D01*
X185930952Y-72452380D01*
X186121428Y-72452380D01*
X186216666Y-72500000D01*
X186264285Y-72547619D01*
X186311904Y-72642857D01*
X186311904Y-72690476D01*
X186264285Y-72785714D01*
X186216666Y-72833333D01*
X186121428Y-72880952D01*
X185930952Y-72880952D01*
X185835714Y-72928571D01*
X185788095Y-72976190D01*
X185740476Y-73071428D01*
X185740476Y-73261904D01*
X185788095Y-73357142D01*
X185835714Y-73404761D01*
X185930952Y-73452380D01*
X186121428Y-73452380D01*
X186216666Y-73404761D01*
X186264285Y-73357142D01*
X186311904Y-73261904D01*
X186311904Y-73071428D01*
X186264285Y-72976190D01*
X186216666Y-72928571D01*
X186121428Y-72880952D01*
X129144942Y-62479180D02*
X128811609Y-62002990D01*
X128573514Y-62479180D02*
X128573514Y-61479180D01*
X128954466Y-61479180D01*
X129049704Y-61526800D01*
X129097323Y-61574419D01*
X129144942Y-61669657D01*
X129144942Y-61812514D01*
X129097323Y-61907752D01*
X129049704Y-61955371D01*
X128954466Y-62002990D01*
X128573514Y-62002990D01*
X130097323Y-62479180D02*
X129525895Y-62479180D01*
X129811609Y-62479180D02*
X129811609Y-61479180D01*
X129716371Y-61622038D01*
X129621133Y-61717276D01*
X129525895Y-61764895D01*
X130573514Y-62479180D02*
X130763990Y-62479180D01*
X130859228Y-62431561D01*
X130906847Y-62383942D01*
X131002085Y-62241085D01*
X131049704Y-62050609D01*
X131049704Y-61669657D01*
X131002085Y-61574419D01*
X130954466Y-61526800D01*
X130859228Y-61479180D01*
X130668752Y-61479180D01*
X130573514Y-61526800D01*
X130525895Y-61574419D01*
X130478276Y-61669657D01*
X130478276Y-61907752D01*
X130525895Y-62002990D01*
X130573514Y-62050609D01*
X130668752Y-62098228D01*
X130859228Y-62098228D01*
X130954466Y-62050609D01*
X131002085Y-62002990D01*
X131049704Y-61907752D01*
X199002380Y-46252380D02*
X198526190Y-46252380D01*
X198526190Y-45252380D01*
X199716666Y-46204761D02*
X199621428Y-46252380D01*
X199430952Y-46252380D01*
X199335714Y-46204761D01*
X199288095Y-46109523D01*
X199288095Y-45728571D01*
X199335714Y-45633333D01*
X199430952Y-45585714D01*
X199621428Y-45585714D01*
X199716666Y-45633333D01*
X199764285Y-45728571D01*
X199764285Y-45823809D01*
X199288095Y-45919047D01*
X200621428Y-46252380D02*
X200621428Y-45252380D01*
X200621428Y-46204761D02*
X200526190Y-46252380D01*
X200335714Y-46252380D01*
X200240476Y-46204761D01*
X200192857Y-46157142D01*
X200145238Y-46061904D01*
X200145238Y-45776190D01*
X200192857Y-45680952D01*
X200240476Y-45633333D01*
X200335714Y-45585714D01*
X200526190Y-45585714D01*
X200621428Y-45633333D01*
X201621428Y-46252380D02*
X201050000Y-46252380D01*
X201335714Y-46252380D02*
X201335714Y-45252380D01*
X201240476Y-45395238D01*
X201145238Y-45490476D01*
X201050000Y-45538095D01*
M02*
