M48
;DRILL file {KiCad 4.1.0-alpha+201607281302+6996~46~ubuntu14.04.1-product} date Sun Aug  7 01:59:35 2016
;FORMAT={-:-/ absolute / metric / decimal}
FMAT,2
METRIC,TZ
T1C0.500
T2C0.600
T3C0.700
T4C0.800
T5C1.000
T6C1.001
T7C1.016
T8C2.200
%
G90
G05
M71
T1
X115.728Y-52.513
X123.64Y-49.14
X127.08Y-49.93
X131.44Y-69.31
X137.52Y-75.18
X140.66Y-69.789
X141.38Y-51.512
X142.059Y-47.398
X144.194Y-70.539
X144.223Y-64.277
X145.19Y-44.329
X145.2Y-49.41
X146.327Y-48.314
X146.337Y-45.428
X147.06Y-61.
X147.509Y-56.121
X148.8Y-49.86
X148.861Y-61.145
X148.88Y-47.95
X150.199Y-54.994
X151.08Y-49.37
X151.52Y-62.1
X152.79Y-62.86
X154.45Y-55.58
X154.51Y-62.36
X154.73Y-70.309
X154.75Y-72.05
X154.97Y-51.1
X156.39Y-57.
X156.41Y-69.111
X157.33Y-50.07
X160.43Y-49.46
X160.794Y-69.529
X161.66Y-75.02
X164.23Y-70.69
X165.534Y-68.972
X167.751Y-79.311
X169.84Y-75.97
X170.15Y-56.64
X171.34Y-54.22
X171.51Y-51.63
X172.6Y-78.089
X173.64Y-58.57
X176.499Y-72.984
X176.9Y-76.39
X177.65Y-66.39
X181.082Y-72.96
X182.221Y-76.574
X182.65Y-66.4
X185.104Y-67.928
X185.173Y-77.972
X185.99Y-76.25
X187.293Y-72.689
X187.65Y-66.4
X190.08Y-79.34
X191.683Y-63.117
X196.782Y-63.203
X201.79Y-63.147
T2
X130.23Y-62.55
X133.63Y-62.55
X174.5Y-44.16
X174.5Y-46.7
X174.5Y-49.24
X174.5Y-51.78
X174.5Y-54.32
X174.5Y-56.86
X182.12Y-44.16
X182.12Y-46.7
X182.12Y-49.24
X182.12Y-51.78
X182.12Y-54.32
X182.12Y-56.86
X200.37Y-44.51
X201.64Y-44.51
X202.91Y-44.51
X204.18Y-44.51
T3
X115.57Y-75.45
X118.11Y-75.45
X120.65Y-75.45
T4
X127.14Y-69.61
X129.14Y-69.61
X133.74Y-69.63
X135.74Y-69.63
T5
X113.21Y-42.39
X113.21Y-57.63
X115.75Y-42.39
X115.75Y-57.63
X118.29Y-42.39
X118.29Y-57.63
X120.83Y-42.39
X120.83Y-57.63
X123.37Y-42.39
X123.37Y-57.63
X125.91Y-42.39
X125.91Y-57.63
X128.45Y-42.39
X128.45Y-57.63
X130.99Y-42.39
X130.99Y-57.63
X133.53Y-42.39
X133.53Y-57.63
X136.07Y-42.39
X136.07Y-57.63
X138.61Y-42.39
X138.61Y-57.63
X141.15Y-42.39
X141.15Y-57.63
X143.69Y-42.39
X143.69Y-57.63
X146.23Y-42.39
X146.23Y-57.63
X147.85Y-65.5
X147.85Y-75.5
X148.77Y-42.39
X148.77Y-57.63
X198.65Y-65.35
X201.15Y-65.35
X203.65Y-65.35
T6
X128.63Y-76.52
X131.17Y-76.52
X133.71Y-76.52
T7
X156.13Y-42.3
X158.67Y-42.3
X161.21Y-42.3
X163.75Y-42.3
X166.29Y-42.3
X168.83Y-42.3
X168.87Y-45.73
X188.55Y-52.4
X188.55Y-54.94
X188.55Y-57.48
X190.Y-42.3
X190.Y-46.3
X192.54Y-42.3
X192.54Y-46.3
X195.08Y-42.3
X195.08Y-46.3
X207.26Y-51.26
X207.26Y-53.8
X207.26Y-56.34
X207.26Y-58.88
T8
X196.15Y-72.35
X206.15Y-72.35
T5
X114.69Y-66.41G85X114.69Y-64.41
G05
X116.99Y-70.41G85X118.99Y-70.41
G05
X120.84Y-66.41G85X120.84Y-64.41
G05
T0
M30
