G04 #@! TF.GenerationSoftware,KiCad,Pcbnew,no-vcs-found-24a9003~58~ubuntu14.04.1*
G04 #@! TF.CreationDate,2017-03-07T23:01:11+01:00*
G04 #@! TF.ProjectId,Nano_PB,4E616E6F5F50422E6B696361645F7063,V.0.4*
G04 #@! TF.FileFunction,Paste,Bot*
G04 #@! TF.FilePolarity,Positive*
%FSLAX46Y46*%
G04 Gerber Fmt 4.6, Leading zero omitted, Abs format (unit mm)*
G04 Created by KiCad (PCBNEW no-vcs-found-24a9003~58~ubuntu14.04.1) date Tue Mar  7 23:01:11 2017*
%MOMM*%
%LPD*%
G01*
G04 APERTURE LIST*
%ADD10C,0.100000*%
%ADD11R,2.398400X0.898400*%
%ADD12R,1.648400X0.348400*%
%ADD13R,0.348400X1.348400*%
%ADD14R,1.398400X0.498400*%
%ADD15R,0.548400X0.198400*%
%ADD16R,1.148400X0.898400*%
%ADD17R,0.698500X0.698500*%
%ADD18R,0.898400X1.148400*%
%ADD19R,1.898400X2.398400*%
%ADD20R,0.898400X1.198400*%
%ADD21R,1.198400X0.898400*%
%ADD22R,0.698400X0.798400*%
G04 APERTURE END LIST*
D10*
D11*
X93870000Y-29430000D03*
X93870000Y-32430000D03*
D12*
X96010000Y-63085000D03*
X96010000Y-62435000D03*
X96010000Y-61785000D03*
X96010000Y-61135000D03*
X96010000Y-60485000D03*
X96010000Y-59835000D03*
X96010000Y-59185000D03*
X96010000Y-58535000D03*
X96010000Y-57885000D03*
X96010000Y-57235000D03*
X96010000Y-56585000D03*
X96010000Y-55935000D03*
X96010000Y-55285000D03*
X96010000Y-54635000D03*
X88810000Y-54635000D03*
X88810000Y-55285000D03*
X88810000Y-55935000D03*
X88810000Y-56585000D03*
X88810000Y-57235000D03*
X88810000Y-57885000D03*
X88810000Y-58535000D03*
X88810000Y-59185000D03*
X88810000Y-59835000D03*
X88810000Y-60485000D03*
X88810000Y-61135000D03*
X88810000Y-61785000D03*
X88810000Y-62435000D03*
X88810000Y-63085000D03*
D13*
X122745000Y-61990000D03*
X123395000Y-61990000D03*
X124045000Y-61990000D03*
X124695000Y-61990000D03*
X125345000Y-61990000D03*
X125995000Y-61990000D03*
X126645000Y-61990000D03*
X127295000Y-61990000D03*
X127945000Y-61990000D03*
X128595000Y-61990000D03*
X128595000Y-56090000D03*
X127945000Y-56090000D03*
X127295000Y-56090000D03*
X126645000Y-56090000D03*
X125995000Y-56090000D03*
X125345000Y-56090000D03*
X124695000Y-56090000D03*
X124045000Y-56090000D03*
X123395000Y-56090000D03*
X122745000Y-56090000D03*
D14*
X143370000Y-53930000D03*
X143370000Y-52660000D03*
X143370000Y-51390000D03*
X143370000Y-50120000D03*
X143370000Y-48850000D03*
X143370000Y-47580000D03*
X143370000Y-46310000D03*
X137970000Y-46310000D03*
X137970000Y-47580000D03*
X137970000Y-48850000D03*
X137970000Y-50120000D03*
X137970000Y-51390000D03*
X137970000Y-52660000D03*
X137970000Y-53930000D03*
D15*
X110084730Y-60033918D03*
X110084730Y-59533918D03*
X110084730Y-59033918D03*
X110084730Y-58533918D03*
X110084730Y-58033918D03*
X113184730Y-58033918D03*
X113184730Y-58533918D03*
X113184730Y-59033918D03*
X113184730Y-59533918D03*
X113184730Y-60033918D03*
D16*
X106602230Y-58033918D03*
X106602230Y-60033918D03*
X116652230Y-58033918D03*
X116652230Y-60033918D03*
D17*
X114451470Y-64573918D03*
X114451470Y-62673918D03*
X116450450Y-63623918D03*
X106921470Y-64673918D03*
X106921470Y-62773918D03*
X108920450Y-63723918D03*
X107140000Y-47345760D03*
X105240000Y-47345760D03*
X106190000Y-45346780D03*
X111650000Y-47345760D03*
X109750000Y-47345760D03*
X110700000Y-45346780D03*
X116350000Y-47320760D03*
X114450000Y-47320760D03*
X115400000Y-45321780D03*
X121085000Y-47343980D03*
X119185000Y-47343980D03*
X120135000Y-45345000D03*
X125730000Y-47343980D03*
X123830000Y-47343980D03*
X124780000Y-45345000D03*
D18*
X73530000Y-61070000D03*
X75530000Y-61070000D03*
X80050000Y-61070000D03*
X78050000Y-61070000D03*
D19*
X66090000Y-60220000D03*
X66090000Y-55720000D03*
D20*
X101780000Y-45000000D03*
X99780000Y-45000000D03*
X101780000Y-47800000D03*
X99780000Y-47800000D03*
X101780000Y-50600000D03*
X99780000Y-50600000D03*
X101780000Y-53400000D03*
X99780000Y-53400000D03*
X101780000Y-56200000D03*
X99780000Y-56200000D03*
X101780000Y-59000000D03*
X99780000Y-59000000D03*
X101780000Y-61800000D03*
X99780000Y-61800000D03*
X107140000Y-49895000D03*
X105140000Y-49895000D03*
X111750000Y-49870000D03*
X109750000Y-49870000D03*
X116400000Y-49970000D03*
X114400000Y-49970000D03*
X121085000Y-49995000D03*
X119085000Y-49995000D03*
X125730000Y-49970000D03*
X123730000Y-49970000D03*
X102290000Y-34590000D03*
X100290000Y-34590000D03*
X105930000Y-34580000D03*
X107930000Y-34580000D03*
X131670000Y-45230000D03*
X129670000Y-45230000D03*
X83240000Y-56590000D03*
X85240000Y-56590000D03*
X83240000Y-62190000D03*
X85240000Y-62190000D03*
D21*
X95980000Y-71300000D03*
X95980000Y-73300000D03*
X113020000Y-71300000D03*
X113020000Y-73300000D03*
D20*
X116402230Y-55633918D03*
X114402230Y-55633918D03*
X107552230Y-55633918D03*
X109552230Y-55633918D03*
X114502230Y-66783918D03*
X116502230Y-66783918D03*
X106912230Y-66783918D03*
X108912230Y-66783918D03*
X91740000Y-48020000D03*
X93740000Y-48020000D03*
X73530000Y-66670000D03*
X75530000Y-66670000D03*
X75530000Y-63870000D03*
X73530000Y-63870000D03*
X80050000Y-66670000D03*
X78050000Y-66670000D03*
X78050000Y-63870000D03*
X80050000Y-63870000D03*
D18*
X124710000Y-65690000D03*
X122710000Y-65690000D03*
X145600000Y-38670000D03*
X143600000Y-38670000D03*
X145600000Y-42870000D03*
X143600000Y-42870000D03*
X145600000Y-61020000D03*
X143600000Y-61020000D03*
X143600000Y-65220000D03*
X145600000Y-65220000D03*
X141690000Y-55870000D03*
X139690000Y-55870000D03*
D20*
X128280000Y-27690000D03*
X126280000Y-27690000D03*
X126280000Y-30890000D03*
X128280000Y-30890000D03*
X126280000Y-34090000D03*
X128280000Y-34090000D03*
X128280000Y-37290000D03*
X126280000Y-37290000D03*
D21*
X145790000Y-31975000D03*
X145790000Y-33975000D03*
X139475000Y-31975000D03*
X139475000Y-33975000D03*
X142625000Y-33975000D03*
X142625000Y-31975000D03*
D20*
X79070000Y-45890000D03*
X77070000Y-45890000D03*
X145600000Y-36570000D03*
X143600000Y-36570000D03*
X143600000Y-40770000D03*
X145600000Y-40770000D03*
X145600000Y-58920000D03*
X143600000Y-58920000D03*
X143600000Y-63120000D03*
X145600000Y-63120000D03*
D18*
X83240000Y-53790000D03*
X85240000Y-53790000D03*
D22*
X71730000Y-51220000D03*
X70780000Y-53220000D03*
X72680000Y-53220000D03*
X95760000Y-67750000D03*
X93860000Y-67750000D03*
X94810000Y-65750000D03*
D20*
X83240000Y-59390000D03*
X85240000Y-59390000D03*
X83240000Y-64990000D03*
X85240000Y-64990000D03*
D21*
X104500000Y-71230000D03*
X104500000Y-73230000D03*
X121540000Y-71300000D03*
X121540000Y-73300000D03*
D20*
X83240000Y-50990000D03*
X85240000Y-50990000D03*
X75990000Y-55360000D03*
X77990000Y-55360000D03*
X77990000Y-52500000D03*
X75990000Y-52500000D03*
X73720000Y-45990000D03*
X71720000Y-45990000D03*
X99960000Y-67400000D03*
X101960000Y-67400000D03*
X101870000Y-64600000D03*
X99870000Y-64600000D03*
M02*
