G04 #@! TF.GenerationSoftware,KiCad,Pcbnew,no-vcs-found-24a9003~58~ubuntu14.04.1*
G04 #@! TF.CreationDate,2017-03-07T23:01:11+01:00*
G04 #@! TF.ProjectId,Nano_PB,4E616E6F5F50422E6B696361645F7063,V.0.4*
G04 #@! TF.FileFunction,Soldermask,Bot*
G04 #@! TF.FilePolarity,Negative*
%FSLAX46Y46*%
G04 Gerber Fmt 4.6, Leading zero omitted, Abs format (unit mm)*
G04 Created by KiCad (PCBNEW no-vcs-found-24a9003~58~ubuntu14.04.1) date Tue Mar  7 23:01:11 2017*
%MOMM*%
%LPD*%
G01*
G04 APERTURE LIST*
%ADD10C,0.100000*%
%ADD11R,2.780000X1.280000*%
%ADD12R,2.030000X0.730000*%
%ADD13R,0.730000X1.730000*%
%ADD14R,1.780000X0.880000*%
%ADD15C,3.480000*%
%ADD16O,2.280000X1.880000*%
%ADD17O,1.680000X2.280000*%
%ADD18O,2.780000X3.080000*%
%ADD19O,1.804000X1.480000*%
%ADD20R,2.312000X2.007200*%
%ADD21O,2.312000X2.007200*%
%ADD22R,2.007200X2.312000*%
%ADD23O,2.007200X2.312000*%
%ADD24R,2.515200X2.515200*%
%ADD25C,1.480000*%
%ADD26R,1.580000X1.580000*%
%ADD27C,1.580000*%
%ADD28R,0.770000X0.420000*%
%ADD29O,2.280000X4.280000*%
%ADD30O,4.280000X2.280000*%
%ADD31O,1.230000X1.580000*%
%ADD32R,1.230000X1.580000*%
%ADD33R,1.530000X1.280000*%
%ADD34R,1.080100X1.080100*%
%ADD35O,1.979260X3.780120*%
%ADD36C,1.780000*%
%ADD37R,1.280000X1.530000*%
%ADD38R,2.280000X2.780000*%
%ADD39R,1.280000X1.580000*%
%ADD40R,1.580000X1.280000*%
%ADD41O,2.007200X2.007200*%
%ADD42R,2.007200X2.007200*%
%ADD43O,1.980000X1.980000*%
%ADD44R,1.980000X1.980000*%
%ADD45R,3.780000X3.780000*%
%ADD46R,1.080000X1.180000*%
G04 APERTURE END LIST*
D10*
D11*
X93870000Y-29430000D03*
X93870000Y-32430000D03*
D12*
X96010000Y-63085000D03*
X96010000Y-62435000D03*
X96010000Y-61785000D03*
X96010000Y-61135000D03*
X96010000Y-60485000D03*
X96010000Y-59835000D03*
X96010000Y-59185000D03*
X96010000Y-58535000D03*
X96010000Y-57885000D03*
X96010000Y-57235000D03*
X96010000Y-56585000D03*
X96010000Y-55935000D03*
X96010000Y-55285000D03*
X96010000Y-54635000D03*
X88810000Y-54635000D03*
X88810000Y-55285000D03*
X88810000Y-55935000D03*
X88810000Y-56585000D03*
X88810000Y-57235000D03*
X88810000Y-57885000D03*
X88810000Y-58535000D03*
X88810000Y-59185000D03*
X88810000Y-59835000D03*
X88810000Y-60485000D03*
X88810000Y-61135000D03*
X88810000Y-61785000D03*
X88810000Y-62435000D03*
X88810000Y-63085000D03*
D13*
X122745000Y-61990000D03*
X123395000Y-61990000D03*
X124045000Y-61990000D03*
X124695000Y-61990000D03*
X125345000Y-61990000D03*
X125995000Y-61990000D03*
X126645000Y-61990000D03*
X127295000Y-61990000D03*
X127945000Y-61990000D03*
X128595000Y-61990000D03*
X128595000Y-56090000D03*
X127945000Y-56090000D03*
X127295000Y-56090000D03*
X126645000Y-56090000D03*
X125995000Y-56090000D03*
X125345000Y-56090000D03*
X124695000Y-56090000D03*
X124045000Y-56090000D03*
X123395000Y-56090000D03*
X122745000Y-56090000D03*
D14*
X143370000Y-53930000D03*
X143370000Y-52660000D03*
X143370000Y-51390000D03*
X143370000Y-50120000D03*
X143370000Y-48850000D03*
X143370000Y-47580000D03*
X143370000Y-46310000D03*
X137970000Y-46310000D03*
X137970000Y-47580000D03*
X137970000Y-48850000D03*
X137970000Y-50120000D03*
X137970000Y-51390000D03*
X137970000Y-52660000D03*
X137970000Y-53930000D03*
D15*
X54630000Y-32460000D03*
X54630000Y-72080000D03*
X149550000Y-72080000D03*
X149550000Y-27450000D03*
D16*
X77980000Y-48660000D03*
X77980000Y-58660000D03*
D17*
X137550000Y-71000000D03*
X135050000Y-71000000D03*
X140050000Y-71000000D03*
D18*
X132950000Y-67700000D03*
X142150000Y-67700000D03*
D19*
X116390000Y-27750000D03*
X116390000Y-30290000D03*
X116390000Y-32830000D03*
X116390000Y-35370000D03*
X116390000Y-37910000D03*
X116390000Y-40450000D03*
X124010000Y-27750000D03*
X124010000Y-30290000D03*
X124010000Y-32830000D03*
X124010000Y-35370000D03*
X124010000Y-37910000D03*
X124010000Y-40450000D03*
D20*
X148460000Y-53420000D03*
D21*
X148460000Y-50880000D03*
X148460000Y-48340000D03*
X148460000Y-45800000D03*
D20*
X130590000Y-47790000D03*
D21*
X130590000Y-50330000D03*
X130590000Y-52870000D03*
D22*
X97750000Y-37070000D03*
D23*
X100290000Y-37070000D03*
X102830000Y-37070000D03*
X105370000Y-37070000D03*
X107910000Y-37070000D03*
X110450000Y-37070000D03*
D24*
X110960000Y-40500000D03*
D25*
X90930000Y-50780000D03*
X94330000Y-50780000D03*
D26*
X65415000Y-63845000D03*
D27*
X67415000Y-63845000D03*
D26*
X58565000Y-63845000D03*
D27*
X60565000Y-63845000D03*
D28*
X110084730Y-60033918D03*
X110084730Y-59533918D03*
X110084730Y-59033918D03*
X110084730Y-58533918D03*
X110084730Y-58033918D03*
X113184730Y-58033918D03*
X113184730Y-58533918D03*
X113184730Y-59033918D03*
X113184730Y-59533918D03*
X113184730Y-60033918D03*
D29*
X63640000Y-52170000D03*
X57490000Y-52170000D03*
D30*
X60790000Y-57170000D03*
D31*
X142890000Y-28530000D03*
D32*
X144160000Y-28530000D03*
D31*
X141620000Y-28530000D03*
X145430000Y-28530000D03*
D33*
X106602230Y-58033918D03*
X106602230Y-60033918D03*
X116652230Y-58033918D03*
X116652230Y-60033918D03*
D34*
X114451470Y-64573918D03*
X114451470Y-62673918D03*
X116450450Y-63623918D03*
X106921470Y-64673918D03*
X106921470Y-62773918D03*
X108920450Y-63723918D03*
D35*
X62840000Y-70520000D03*
X65380000Y-70520000D03*
X60300000Y-70520000D03*
D36*
X90710000Y-27030000D03*
X88170000Y-27030000D03*
X85630000Y-27030000D03*
X83090000Y-27030000D03*
X80550000Y-27030000D03*
X78010000Y-27030000D03*
X75470000Y-27030000D03*
X72930000Y-27030000D03*
X70390000Y-27030000D03*
X67850000Y-27030000D03*
X65310000Y-27030000D03*
X62770000Y-27030000D03*
X60230000Y-27030000D03*
X57690000Y-27030000D03*
X55150000Y-27030000D03*
X55150000Y-42270000D03*
X57690000Y-42270000D03*
X60230000Y-42270000D03*
X62770000Y-42270000D03*
X65310000Y-42270000D03*
X67850000Y-42270000D03*
X70390000Y-42270000D03*
X72930000Y-42270000D03*
X75470000Y-42270000D03*
X78010000Y-42270000D03*
X80550000Y-42270000D03*
X83090000Y-42270000D03*
X85630000Y-42270000D03*
X88170000Y-42270000D03*
X90710000Y-42270000D03*
D34*
X107140000Y-47345760D03*
X105240000Y-47345760D03*
X106190000Y-45346780D03*
X111650000Y-47345760D03*
X109750000Y-47345760D03*
X110700000Y-45346780D03*
X116350000Y-47320760D03*
X114450000Y-47320760D03*
X115400000Y-45321780D03*
X121085000Y-47343980D03*
X119185000Y-47343980D03*
X120135000Y-45345000D03*
X125730000Y-47343980D03*
X123830000Y-47343980D03*
X124780000Y-45345000D03*
D37*
X73530000Y-61070000D03*
X75530000Y-61070000D03*
X80050000Y-61070000D03*
X78050000Y-61070000D03*
D38*
X66090000Y-60220000D03*
X66090000Y-55720000D03*
D39*
X101780000Y-45000000D03*
X99780000Y-45000000D03*
X101780000Y-47800000D03*
X99780000Y-47800000D03*
X101780000Y-50600000D03*
X99780000Y-50600000D03*
X101780000Y-53400000D03*
X99780000Y-53400000D03*
X101780000Y-56200000D03*
X99780000Y-56200000D03*
X101780000Y-59000000D03*
X99780000Y-59000000D03*
X101780000Y-61800000D03*
X99780000Y-61800000D03*
X107140000Y-49895000D03*
X105140000Y-49895000D03*
X111750000Y-49870000D03*
X109750000Y-49870000D03*
X116400000Y-49970000D03*
X114400000Y-49970000D03*
X121085000Y-49995000D03*
X119085000Y-49995000D03*
X125730000Y-49970000D03*
X123730000Y-49970000D03*
X102290000Y-34590000D03*
X100290000Y-34590000D03*
X105930000Y-34580000D03*
X107930000Y-34580000D03*
X131670000Y-45230000D03*
X129670000Y-45230000D03*
X83240000Y-56590000D03*
X85240000Y-56590000D03*
X83240000Y-62190000D03*
X85240000Y-62190000D03*
D40*
X95980000Y-71300000D03*
X95980000Y-73300000D03*
X113020000Y-71300000D03*
X113020000Y-73300000D03*
D39*
X116402230Y-55633918D03*
X114402230Y-55633918D03*
X107552230Y-55633918D03*
X109552230Y-55633918D03*
X114502230Y-66783918D03*
X116502230Y-66783918D03*
X106912230Y-66783918D03*
X108912230Y-66783918D03*
X91740000Y-48020000D03*
X93740000Y-48020000D03*
X73530000Y-66670000D03*
X75530000Y-66670000D03*
X75530000Y-63870000D03*
X73530000Y-63870000D03*
X80050000Y-66670000D03*
X78050000Y-66670000D03*
X78050000Y-63870000D03*
X80050000Y-63870000D03*
D37*
X124710000Y-65690000D03*
X122710000Y-65690000D03*
X145600000Y-38670000D03*
X143600000Y-38670000D03*
X145600000Y-42870000D03*
X143600000Y-42870000D03*
X145600000Y-61020000D03*
X143600000Y-61020000D03*
X143600000Y-65220000D03*
X145600000Y-65220000D03*
X141690000Y-55870000D03*
X139690000Y-55870000D03*
D41*
X107940000Y-32100000D03*
X107940000Y-29560000D03*
X105400000Y-32100000D03*
X105400000Y-29560000D03*
X102860000Y-32100000D03*
X102860000Y-29560000D03*
X100320000Y-32100000D03*
D42*
X100320000Y-29560000D03*
D21*
X134090000Y-52870000D03*
X134090000Y-50330000D03*
X134090000Y-47790000D03*
D20*
X134090000Y-45250000D03*
D39*
X128280000Y-27690000D03*
X126280000Y-27690000D03*
X126280000Y-30890000D03*
X128280000Y-30890000D03*
X126280000Y-34090000D03*
X128280000Y-34090000D03*
X128280000Y-37290000D03*
X126280000Y-37290000D03*
D40*
X145790000Y-31975000D03*
X145790000Y-33975000D03*
X139475000Y-31975000D03*
X139475000Y-33975000D03*
X142625000Y-33975000D03*
X142625000Y-31975000D03*
D39*
X79070000Y-45890000D03*
X77070000Y-45890000D03*
X145600000Y-36570000D03*
X143600000Y-36570000D03*
X143600000Y-40770000D03*
X145600000Y-40770000D03*
X145600000Y-58920000D03*
X143600000Y-58920000D03*
X143600000Y-63120000D03*
X145600000Y-63120000D03*
D43*
X135570000Y-34070000D03*
X133030000Y-34070000D03*
D44*
X130490000Y-34070000D03*
D43*
X135570000Y-37270000D03*
X133030000Y-37270000D03*
D44*
X130490000Y-37270000D03*
D43*
X135570000Y-27670000D03*
X133030000Y-27670000D03*
D44*
X130490000Y-27670000D03*
X130490000Y-30870000D03*
D43*
X133030000Y-30870000D03*
X135570000Y-30870000D03*
X148090000Y-41650000D03*
X148090000Y-39110000D03*
X148090000Y-36570000D03*
D44*
X148090000Y-34030000D03*
D43*
X148090000Y-65310000D03*
X148090000Y-62770000D03*
X148090000Y-60230000D03*
D44*
X148090000Y-57690000D03*
D37*
X83240000Y-53790000D03*
X85240000Y-53790000D03*
D45*
X99127500Y-72300000D03*
X107645000Y-72300000D03*
X116162500Y-72300000D03*
X124680000Y-72300000D03*
X90610000Y-72300000D03*
D46*
X71730000Y-51220000D03*
X70780000Y-53220000D03*
X72680000Y-53220000D03*
X95760000Y-67750000D03*
X93860000Y-67750000D03*
X94810000Y-65750000D03*
D39*
X83240000Y-59390000D03*
X85240000Y-59390000D03*
X83240000Y-64990000D03*
X85240000Y-64990000D03*
D40*
X104500000Y-71230000D03*
X104500000Y-73230000D03*
X121540000Y-71300000D03*
X121540000Y-73300000D03*
D39*
X83240000Y-50990000D03*
X85240000Y-50990000D03*
X75990000Y-55360000D03*
X77990000Y-55360000D03*
X77990000Y-52500000D03*
X75990000Y-52500000D03*
X73720000Y-45990000D03*
X71720000Y-45990000D03*
X99960000Y-67400000D03*
X101960000Y-67400000D03*
X101870000Y-64600000D03*
X99870000Y-64600000D03*
D17*
X76710000Y-71970000D03*
X74210000Y-71970000D03*
X79210000Y-71970000D03*
D18*
X70610000Y-69470000D03*
X82810000Y-69470000D03*
M02*
