M48
;DRILL file {KiCad 4.1.0-alpha+201608271546+7097~46~ubuntu14.04.1-product} date Tue Oct 11 23:10:14 2016
;FORMAT={-:-/ absolute / metric / decimal}
FMAT,2
METRIC,TZ
T1C0.500
T2C0.600
T3C0.700
T4C1.000
T5C1.100
T6C1.800
%
G90
G05
M71
T1
X57.818Y-47.283
X65.73Y-43.91
X69.17Y-44.7
X73.53Y-64.08
X81.05Y-69.95
X82.75Y-64.559
X83.47Y-46.282
X84.149Y-42.168
X86.284Y-65.309
X86.313Y-59.047
X87.28Y-39.099
X87.29Y-44.18
X88.417Y-43.084
X88.427Y-40.198
X89.15Y-55.77
X89.599Y-50.891
X90.89Y-44.63
X90.951Y-55.915
X90.97Y-42.72
X92.289Y-49.764
X93.17Y-44.14
X93.61Y-56.87
X94.88Y-57.63
X96.49Y-50.35
X96.6Y-57.13
X96.82Y-65.079
X96.84Y-66.82
X97.303Y-63.301
X97.66Y-46.37
X98.48Y-51.77
X99.42Y-44.84
X101.83Y-56.23
X102.52Y-44.23
X102.884Y-64.299
X103.75Y-69.79
X106.32Y-65.46
X107.624Y-63.742
X109.841Y-74.081
X112.24Y-51.41
X113.068Y-48.831
X113.242Y-46.611
X114.69Y-72.859
X114.71Y-68.49
X115.73Y-53.34
X118.385Y-67.472
X118.99Y-71.16
X119.74Y-61.16
X123.172Y-67.73
X124.311Y-71.344
X124.74Y-61.17
X127.194Y-62.698
X127.263Y-72.742
X128.07Y-70.8
X129.383Y-67.459
X129.74Y-61.17
X132.17Y-74.11
X133.773Y-57.887
X138.872Y-57.973
X143.88Y-57.917
T2
X72.32Y-57.32
X75.72Y-57.32
X116.59Y-38.93
X116.59Y-41.47
X116.59Y-44.01
X116.59Y-46.55
X116.59Y-49.09
X116.59Y-51.63
X124.21Y-38.93
X124.21Y-41.47
X124.21Y-44.01
X124.21Y-46.55
X124.21Y-49.09
X124.21Y-51.63
X142.46Y-39.28
X143.73Y-39.28
X145.Y-39.28
X146.27Y-39.28
T3
X69.23Y-64.38
X71.23Y-64.38
X75.83Y-64.4
X77.83Y-64.4
T4
X55.3Y-37.16
X55.3Y-52.4
X57.69Y-71.97
X57.84Y-37.16
X57.84Y-52.4
X60.19Y-71.97
X60.38Y-37.16
X60.38Y-52.4
X62.69Y-71.97
X62.92Y-37.16
X62.92Y-52.4
X65.46Y-37.16
X65.46Y-52.4
X68.Y-37.16
X68.Y-52.4
X70.54Y-37.16
X70.54Y-52.4
X73.08Y-37.16
X73.08Y-52.4
X75.62Y-37.16
X75.62Y-52.4
X78.16Y-37.16
X78.16Y-52.4
X80.7Y-37.16
X80.7Y-52.4
X83.24Y-37.16
X83.24Y-52.4
X85.78Y-37.16
X85.78Y-52.4
X88.32Y-37.16
X88.32Y-52.4
X89.94Y-60.27
X89.94Y-70.27
X90.86Y-37.16
X90.86Y-52.4
X98.22Y-37.07
X100.76Y-37.07
X103.3Y-37.07
X105.84Y-37.07
X108.38Y-37.07
X110.92Y-37.07
X110.96Y-40.5
X130.63Y-47.83
X130.63Y-50.37
X130.63Y-52.91
X132.09Y-37.07
X132.09Y-41.07
X134.63Y-37.07
X134.63Y-41.07
X137.17Y-37.07
X137.17Y-41.07
X140.69Y-70.47
X143.19Y-70.47
X145.69Y-70.47
X149.35Y-46.03
X149.35Y-48.57
X149.35Y-51.11
X149.35Y-53.65
T5
X72.59Y-71.24
X75.13Y-71.24
X77.67Y-71.24
T4
X56.79Y-60.47G85X56.79Y-58.47
G05
X59.09Y-64.47G85X61.09Y-64.47
G05
X62.94Y-60.47G85X62.94Y-58.47
G05
T6
X53.79Y-69.32G85X53.79Y-69.62
G05
X66.59Y-69.32G85X66.59Y-69.62
G05
X138.59Y-67.02G85X138.59Y-67.32
G05
X147.79Y-67.02G85X147.79Y-67.32
G05
T0
M30
