M48
;DRILL file {KiCad no-vcs-found-24a9003~58~ubuntu14.04.1} date Tue Mar  7 23:01:17 2017
;FORMAT={-:-/ absolute / metric / decimal}
FMAT,2
METRIC,TZ
T1C0.300
T2C0.400
T3C0.600
T4C0.700
T5C1.000
T6C1.100
T7C1.800
T8C2.500
T9C3.200
%
G90
G05
M71
T1
X55.17Y-39.61
X64.13Y-40.56
X71.72Y-48.88
X73.52Y-68.24
X73.73Y-47.88
X79.39Y-53.41
X80.02Y-50.02
X80.147Y-58.303
X80.185Y-54.74
X81.27Y-32.78
X81.8Y-44.15
X83.79Y-49.22
X84.25Y-52.37
X84.27Y-57.98
X85.55Y-57.96
X85.81Y-47.17
X86.761Y-58.235
X87.8Y-51.51
X89.04Y-46.44
X89.4Y-67.15
X89.49Y-68.3
X90.43Y-36.36
X90.46Y-30.46
X91.05Y-61.33
X91.11Y-55.95
X91.22Y-54.74
X91.68Y-67.71
X91.87Y-58.15
X91.95Y-37.69
X92.22Y-62.46
X92.43Y-65.75
X92.61Y-39.28
X93.09Y-59.5
X93.09Y-57.
X93.67Y-61.62
X93.72Y-64.38
X93.92Y-58.795
X94.07Y-56.58
X94.49Y-71.05
X95.4Y-39.3
X95.45Y-46.95
X95.96Y-43.54
X96.37Y-64.34
X103.12Y-59.58
X103.17Y-71.05
X105.63Y-53.82
X106.9Y-68.5
X108.4Y-60.13
X108.66Y-44.87
X108.67Y-57.2
X108.912Y-65.33
X109.74Y-52.878
X111.54Y-63.73
X111.59Y-71.05
X113.392Y-43.202
X113.98Y-61.07
X114.405Y-39.51
X114.42Y-52.471
X114.53Y-68.549
X115.11Y-41.43
X115.302Y-57.034
X116.47Y-65.2
X116.72Y-61.4
X117.52Y-52.61
X117.83Y-44.48
X118.25Y-68.21
X119.05Y-52.065
X119.2Y-40.66
X120.1Y-71.05
X120.81Y-40.1
X121.2Y-58.05
X122.72Y-68.21
X123.39Y-60.48
X123.68Y-52.18
X124.06Y-59.16
X125.895Y-41.56
X126.67Y-58.65
X127.14Y-39.94
X128.08Y-57.96
X128.5Y-40.8
X129.43Y-65.78
X135.865Y-56.82
X137.99Y-43.32
X139.69Y-57.67
X140.54Y-47.7
X143.6Y-57.18
X144.57Y-67.18
X144.67Y-35.21
T2
X89.54Y-38.85
X108.44Y-49.17
T3
X90.93Y-50.78
X94.33Y-50.78
X116.39Y-27.75
X116.39Y-30.29
X116.39Y-32.83
X116.39Y-35.37
X116.39Y-37.91
X116.39Y-40.45
X124.01Y-27.75
X124.01Y-30.29
X124.01Y-32.83
X124.01Y-35.37
X124.01Y-37.91
X124.01Y-40.45
X141.62Y-28.53
X142.89Y-28.53
X144.16Y-28.53
X145.43Y-28.53
T4
X58.565Y-63.845
X60.565Y-63.845
X65.415Y-63.845
X67.415Y-63.845
X79.46Y-68.61
T5
X55.15Y-27.03
X55.15Y-42.27
X57.69Y-27.03
X57.69Y-42.27
X60.23Y-27.03
X60.23Y-42.27
X62.77Y-27.03
X62.77Y-42.27
X65.31Y-27.03
X65.31Y-42.27
X67.85Y-27.03
X67.85Y-42.27
X70.39Y-27.03
X70.39Y-42.27
X72.93Y-27.03
X72.93Y-42.27
X74.21Y-71.97
X75.47Y-27.03
X75.47Y-42.27
X76.71Y-71.97
X77.98Y-48.66
X77.98Y-58.66
X78.01Y-27.03
X78.01Y-42.27
X79.21Y-71.97
X80.55Y-27.03
X80.55Y-42.27
X83.09Y-27.03
X83.09Y-42.27
X85.63Y-27.03
X85.63Y-42.27
X88.17Y-27.03
X88.17Y-42.27
X90.71Y-27.03
X90.71Y-42.27
X97.75Y-37.07
X100.29Y-37.07
X100.32Y-29.56
X100.32Y-32.1
X102.83Y-37.07
X102.86Y-29.56
X102.86Y-32.1
X105.37Y-37.07
X105.4Y-29.56
X105.4Y-32.1
X107.91Y-37.07
X107.94Y-29.56
X107.94Y-32.1
X110.45Y-37.07
X110.96Y-40.5
X130.49Y-27.67
X130.49Y-30.87
X130.49Y-34.07
X130.49Y-37.27
X130.59Y-47.79
X130.59Y-50.33
X130.59Y-52.87
X133.03Y-27.67
X133.03Y-30.87
X133.03Y-34.07
X133.03Y-37.27
X134.09Y-45.25
X134.09Y-47.79
X134.09Y-50.33
X134.09Y-52.87
X135.05Y-71.
X135.57Y-27.67
X135.57Y-30.87
X135.57Y-34.07
X135.57Y-37.27
X137.55Y-71.
X140.05Y-71.
X148.09Y-34.03
X148.09Y-36.57
X148.09Y-39.11
X148.09Y-41.65
X148.09Y-57.69
X148.09Y-60.23
X148.09Y-62.77
X148.09Y-65.31
X148.46Y-45.8
X148.46Y-48.34
X148.46Y-50.88
X148.46Y-53.42
T6
X60.3Y-70.52
X62.84Y-70.52
X65.38Y-70.52
T8
X90.61Y-72.3
X99.127Y-72.3
X107.645Y-72.3
X116.162Y-72.3
X124.68Y-72.3
T9
X54.63Y-32.46
X54.63Y-72.08
X149.55Y-27.45
X149.55Y-72.08
T5
X57.49Y-53.17G85X57.49Y-51.17
G05
X59.79Y-57.17G85X61.79Y-57.17
G05
X63.64Y-53.17G85X63.64Y-51.17
G05
T7
X70.61Y-69.32G85X70.61Y-69.62
G05
X82.81Y-69.32G85X82.81Y-69.62
G05
X132.95Y-67.55G85X132.95Y-67.85
G05
X142.15Y-67.55G85X142.15Y-67.85
G05
T0
M30
