G04 #@! TF.GenerationSoftware,KiCad,Pcbnew,no-vcs-found-24a9003~58~ubuntu14.04.1*
G04 #@! TF.CreationDate,2017-03-07T23:01:11+01:00*
G04 #@! TF.ProjectId,Nano_PB,4E616E6F5F50422E6B696361645F7063,V.0.4*
G04 #@! TF.FileFunction,Soldermask,Top*
G04 #@! TF.FilePolarity,Negative*
%FSLAX46Y46*%
G04 Gerber Fmt 4.6, Leading zero omitted, Abs format (unit mm)*
G04 Created by KiCad (PCBNEW no-vcs-found-24a9003~58~ubuntu14.04.1) date Tue Mar  7 23:01:11 2017*
%MOMM*%
%LPD*%
G01*
G04 APERTURE LIST*
%ADD10C,0.100000*%
%ADD11R,2.780000X1.880000*%
%ADD12C,3.480000*%
%ADD13O,2.280000X1.880000*%
%ADD14O,1.680000X2.280000*%
%ADD15O,2.780000X3.080000*%
%ADD16O,1.804000X1.480000*%
%ADD17R,2.312000X2.007200*%
%ADD18O,2.312000X2.007200*%
%ADD19R,2.007200X2.312000*%
%ADD20O,2.007200X2.312000*%
%ADD21R,2.515200X2.515200*%
%ADD22C,1.480000*%
%ADD23R,1.580000X1.580000*%
%ADD24C,1.580000*%
%ADD25O,2.280000X4.280000*%
%ADD26O,4.280000X2.280000*%
%ADD27O,1.230000X1.580000*%
%ADD28R,1.230000X1.580000*%
%ADD29O,1.979260X3.780120*%
%ADD30C,1.780000*%
%ADD31O,2.007200X2.007200*%
%ADD32R,2.007200X2.007200*%
%ADD33O,1.980000X1.980000*%
%ADD34R,1.980000X1.980000*%
%ADD35R,3.780000X3.780000*%
G04 APERTURE END LIST*
D10*
D11*
X111655000Y-57500000D03*
X104155000Y-57500000D03*
D12*
X54630000Y-32460000D03*
X54630000Y-72080000D03*
X149550000Y-72080000D03*
X149550000Y-27450000D03*
D13*
X77980000Y-48660000D03*
X77980000Y-58660000D03*
D14*
X137550000Y-71000000D03*
X135050000Y-71000000D03*
X140050000Y-71000000D03*
D15*
X132950000Y-67700000D03*
X142150000Y-67700000D03*
D16*
X116390000Y-27750000D03*
X116390000Y-30290000D03*
X116390000Y-32830000D03*
X116390000Y-35370000D03*
X116390000Y-37910000D03*
X116390000Y-40450000D03*
X124010000Y-27750000D03*
X124010000Y-30290000D03*
X124010000Y-32830000D03*
X124010000Y-35370000D03*
X124010000Y-37910000D03*
X124010000Y-40450000D03*
D17*
X148460000Y-53420000D03*
D18*
X148460000Y-50880000D03*
X148460000Y-48340000D03*
X148460000Y-45800000D03*
D17*
X130590000Y-47790000D03*
D18*
X130590000Y-50330000D03*
X130590000Y-52870000D03*
D19*
X97750000Y-37070000D03*
D20*
X100290000Y-37070000D03*
X102830000Y-37070000D03*
X105370000Y-37070000D03*
X107910000Y-37070000D03*
X110450000Y-37070000D03*
D21*
X110960000Y-40500000D03*
D22*
X90930000Y-50780000D03*
X94330000Y-50780000D03*
D23*
X65415000Y-63845000D03*
D24*
X67415000Y-63845000D03*
D23*
X58565000Y-63845000D03*
D24*
X60565000Y-63845000D03*
D25*
X63640000Y-52170000D03*
X57490000Y-52170000D03*
D26*
X60790000Y-57170000D03*
D27*
X142890000Y-28530000D03*
D28*
X144160000Y-28530000D03*
D27*
X141620000Y-28530000D03*
X145430000Y-28530000D03*
D11*
X95925000Y-61620000D03*
X88425000Y-61620000D03*
X111655000Y-65380000D03*
X104155000Y-65380000D03*
X126825000Y-61620000D03*
X119325000Y-61620000D03*
D29*
X62840000Y-70520000D03*
X65380000Y-70520000D03*
X60300000Y-70520000D03*
D30*
X90710000Y-27030000D03*
X88170000Y-27030000D03*
X85630000Y-27030000D03*
X83090000Y-27030000D03*
X80550000Y-27030000D03*
X78010000Y-27030000D03*
X75470000Y-27030000D03*
X72930000Y-27030000D03*
X70390000Y-27030000D03*
X67850000Y-27030000D03*
X65310000Y-27030000D03*
X62770000Y-27030000D03*
X60230000Y-27030000D03*
X57690000Y-27030000D03*
X55150000Y-27030000D03*
X55150000Y-42270000D03*
X57690000Y-42270000D03*
X60230000Y-42270000D03*
X62770000Y-42270000D03*
X65310000Y-42270000D03*
X67850000Y-42270000D03*
X70390000Y-42270000D03*
X72930000Y-42270000D03*
X75470000Y-42270000D03*
X78010000Y-42270000D03*
X80550000Y-42270000D03*
X83090000Y-42270000D03*
X85630000Y-42270000D03*
X88170000Y-42270000D03*
X90710000Y-42270000D03*
D31*
X107940000Y-32100000D03*
X107940000Y-29560000D03*
X105400000Y-32100000D03*
X105400000Y-29560000D03*
X102860000Y-32100000D03*
X102860000Y-29560000D03*
X100320000Y-32100000D03*
D32*
X100320000Y-29560000D03*
D18*
X134090000Y-52870000D03*
X134090000Y-50330000D03*
X134090000Y-47790000D03*
D17*
X134090000Y-45250000D03*
D33*
X135570000Y-34070000D03*
X133030000Y-34070000D03*
D34*
X130490000Y-34070000D03*
D33*
X135570000Y-37270000D03*
X133030000Y-37270000D03*
D34*
X130490000Y-37270000D03*
D33*
X135570000Y-27670000D03*
X133030000Y-27670000D03*
D34*
X130490000Y-27670000D03*
X130490000Y-30870000D03*
D33*
X133030000Y-30870000D03*
X135570000Y-30870000D03*
X148090000Y-41650000D03*
X148090000Y-39110000D03*
X148090000Y-36570000D03*
D34*
X148090000Y-34030000D03*
D33*
X148090000Y-65310000D03*
X148090000Y-62770000D03*
X148090000Y-60230000D03*
D34*
X148090000Y-57690000D03*
D35*
X99127500Y-72300000D03*
X107645000Y-72300000D03*
X116162500Y-72300000D03*
X124680000Y-72300000D03*
X90610000Y-72300000D03*
D14*
X76710000Y-71970000D03*
X74210000Y-71970000D03*
X79210000Y-71970000D03*
D15*
X70610000Y-69470000D03*
X82810000Y-69470000D03*
M02*
