G04 #@! TF.FileFunction,Paste,Top*
%FSLAX46Y46*%
G04 Gerber Fmt 4.6, Leading zero omitted, Abs format (unit mm)*
G04 Created by KiCad (PCBNEW 4.1.0-alpha+201608060946+7009~46~ubuntu14.04.1-product) date Sun Aug  7 16:39:53 2016*
%MOMM*%
%LPD*%
G01*
G04 APERTURE LIST*
%ADD10C,0.100000*%
%ADD11R,0.548400X0.198400*%
%ADD12R,1.148400X0.898400*%
%ADD13R,0.698500X0.698500*%
%ADD14R,0.598400X1.198400*%
%ADD15R,2.398400X1.498400*%
%ADD16R,1.898400X2.398400*%
G04 APERTURE END LIST*
D10*
D11*
X101872500Y-53270000D03*
X101872500Y-53770000D03*
X101872500Y-54270000D03*
X101872500Y-54770000D03*
X101872500Y-55270000D03*
X104972500Y-55270000D03*
X104972500Y-54770000D03*
X104972500Y-54270000D03*
X104972500Y-53770000D03*
X104972500Y-53270000D03*
D12*
X98390000Y-55270000D03*
X98390000Y-53270000D03*
X108440000Y-55270000D03*
X108440000Y-53270000D03*
D13*
X106239240Y-48730000D03*
X106239240Y-50630000D03*
X108238220Y-49680000D03*
X99389240Y-48630000D03*
X99389240Y-50530000D03*
X101388220Y-49580000D03*
D14*
X101340000Y-41860000D03*
X99440000Y-41860000D03*
X108190000Y-41880000D03*
X106290000Y-41880000D03*
X108140000Y-57670000D03*
X106240000Y-57670000D03*
X99390000Y-57670000D03*
X101290000Y-57670000D03*
X106340000Y-46520000D03*
X108240000Y-46520000D03*
X99430000Y-46520000D03*
X101330000Y-46520000D03*
D15*
X103140000Y-66570000D03*
X110640000Y-66570000D03*
X114870000Y-62450000D03*
X122370000Y-62450000D03*
X114870000Y-70330000D03*
X122370000Y-70330000D03*
X126040000Y-66570000D03*
X133540000Y-66570000D03*
D16*
X66140000Y-60950000D03*
X66140000Y-56450000D03*
M02*
