G04 #@! TF.GenerationSoftware,KiCad,Pcbnew,no-vcs-found-7434~57~ubuntu14.04.1*
G04 #@! TF.CreationDate,2017-01-14T01:06:31+01:00*
G04 #@! TF.ProjectId,Nano_PB,4E616E6F5F50422E6B696361645F7063,rev?*
G04 #@! TF.FileFunction,Paste,Top*
G04 #@! TF.FilePolarity,Positive*
%FSLAX46Y46*%
G04 Gerber Fmt 4.6, Leading zero omitted, Abs format (unit mm)*
G04 Created by KiCad (PCBNEW no-vcs-found-7434~57~ubuntu14.04.1) date Sat Jan 14 01:06:31 2017*
%MOMM*%
%LPD*%
G01*
G04 APERTURE LIST*
%ADD10C,0.100000*%
%ADD11R,0.548400X0.198400*%
%ADD12R,1.148400X0.898400*%
%ADD13R,0.698500X0.698500*%
%ADD14R,2.398400X1.498400*%
%ADD15R,0.898400X1.198400*%
%ADD16R,1.398400X1.848400*%
%ADD17R,0.898400X1.148400*%
G04 APERTURE END LIST*
D10*
D11*
X101872500Y-53270000D03*
X101872500Y-53770000D03*
X101872500Y-54270000D03*
X101872500Y-54770000D03*
X101872500Y-55270000D03*
X104972500Y-55270000D03*
X104972500Y-54770000D03*
X104972500Y-54270000D03*
X104972500Y-53770000D03*
X104972500Y-53270000D03*
D12*
X98390000Y-55270000D03*
X98390000Y-53270000D03*
X108440000Y-55270000D03*
X108440000Y-53270000D03*
D13*
X106239240Y-48730000D03*
X106239240Y-50630000D03*
X108238220Y-49680000D03*
X99389240Y-48630000D03*
X99389240Y-50530000D03*
X101388220Y-49580000D03*
D14*
X88365000Y-66970000D03*
X95865000Y-66970000D03*
X104095000Y-62850000D03*
X111595000Y-62850000D03*
X104095000Y-70730000D03*
X111595000Y-70730000D03*
X119265000Y-66970000D03*
X126765000Y-66970000D03*
D15*
X101140000Y-40745000D03*
X99140000Y-40745000D03*
X106140000Y-40745000D03*
X108140000Y-40745000D03*
X108190000Y-57670000D03*
X106190000Y-57670000D03*
X99340000Y-57670000D03*
X101340000Y-57670000D03*
X106290000Y-46520000D03*
X108290000Y-46520000D03*
X99380000Y-46520000D03*
X101380000Y-46520000D03*
D16*
X97490000Y-29195000D03*
X97490000Y-31945000D03*
D17*
X138290000Y-27570000D03*
X140290000Y-27570000D03*
X140290000Y-30840000D03*
X138290000Y-30840000D03*
X138290000Y-33970000D03*
X140290000Y-33970000D03*
X140290000Y-37270000D03*
X138290000Y-37270000D03*
D12*
X145190000Y-39120000D03*
X145190000Y-37120000D03*
X145090000Y-62770000D03*
X145090000Y-60770000D03*
M02*
