G04 #@! TF.GenerationSoftware,KiCad,Pcbnew,no-vcs-found-7516~57~ubuntu14.04.1*
G04 #@! TF.CreationDate,2017-01-24T20:05:06+01:00*
G04 #@! TF.ProjectId,Nano_PB,4E616E6F5F50422E6B696361645F7063,rev?*
G04 #@! TF.FileFunction,Soldermask,Top*
G04 #@! TF.FilePolarity,Negative*
%FSLAX46Y46*%
G04 Gerber Fmt 4.6, Leading zero omitted, Abs format (unit mm)*
G04 Created by KiCad (PCBNEW no-vcs-found-7516~57~ubuntu14.04.1) date Tue Jan 24 20:05:06 2017*
%MOMM*%
%LPD*%
G01*
G04 APERTURE LIST*
%ADD10C,0.100000*%
%ADD11R,2.855600X1.955600*%
%ADD12C,3.555600*%
%ADD13O,2.355600X1.955600*%
%ADD14O,1.755600X2.355600*%
%ADD15O,2.855600X3.155600*%
%ADD16O,1.879600X1.555600*%
%ADD17R,2.387600X2.082800*%
%ADD18O,2.387600X2.082800*%
%ADD19R,2.082800X2.387600*%
%ADD20O,2.082800X2.387600*%
%ADD21R,2.590800X2.590800*%
%ADD22C,1.555600*%
%ADD23R,1.655600X1.655600*%
%ADD24C,1.655600*%
%ADD25O,2.355600X4.355600*%
%ADD26O,4.355600X2.355600*%
%ADD27O,1.305600X1.655600*%
%ADD28R,1.305600X1.655600*%
%ADD29O,2.054860X3.855720*%
%ADD30C,1.855600*%
%ADD31O,2.082800X2.082800*%
%ADD32R,2.082800X2.082800*%
%ADD33O,2.055600X2.055600*%
%ADD34R,2.055600X2.055600*%
%ADD35R,3.855600X3.855600*%
G04 APERTURE END LIST*
D10*
D11*
X111655000Y-57500000D03*
X104155000Y-57500000D03*
D12*
X54340000Y-33380000D03*
X54630000Y-72230000D03*
X149550000Y-72230000D03*
X149550000Y-27310000D03*
D13*
X77980000Y-48660000D03*
X77980000Y-58660000D03*
D14*
X137560000Y-71200000D03*
X135060000Y-71200000D03*
X140060000Y-71200000D03*
D15*
X132960000Y-67900000D03*
X142160000Y-67900000D03*
D16*
X116390000Y-27750000D03*
X116390000Y-30290000D03*
X116390000Y-32830000D03*
X116390000Y-35370000D03*
X116390000Y-37910000D03*
X116390000Y-40450000D03*
X124010000Y-27750000D03*
X124010000Y-30290000D03*
X124010000Y-32830000D03*
X124010000Y-35370000D03*
X124010000Y-37910000D03*
X124010000Y-40450000D03*
D17*
X149290000Y-53450000D03*
D18*
X149290000Y-50910000D03*
X149290000Y-48370000D03*
X149290000Y-45830000D03*
D17*
X130590000Y-47790000D03*
D18*
X130590000Y-50330000D03*
X130590000Y-52870000D03*
D19*
X97750000Y-37070000D03*
D20*
X100290000Y-37070000D03*
X102830000Y-37070000D03*
X105370000Y-37070000D03*
X107910000Y-37070000D03*
X110450000Y-37070000D03*
D21*
X110960000Y-40500000D03*
D22*
X90930000Y-50780000D03*
X94330000Y-50780000D03*
D23*
X65415000Y-63845000D03*
D24*
X67415000Y-63845000D03*
D23*
X58565000Y-63845000D03*
D24*
X60565000Y-63845000D03*
D25*
X63640000Y-52170000D03*
X57490000Y-52170000D03*
D26*
X60790000Y-57170000D03*
D27*
X142890000Y-28530000D03*
D28*
X144160000Y-28530000D03*
D27*
X141620000Y-28530000D03*
X145430000Y-28530000D03*
D11*
X95925000Y-61620000D03*
X88425000Y-61620000D03*
X111655000Y-65380000D03*
X104155000Y-65380000D03*
X126825000Y-61620000D03*
X119325000Y-61620000D03*
D29*
X62865000Y-70720000D03*
X65405000Y-70720000D03*
X60325000Y-70720000D03*
D30*
X90710000Y-27030000D03*
X88170000Y-27030000D03*
X85630000Y-27030000D03*
X83090000Y-27030000D03*
X80550000Y-27030000D03*
X78010000Y-27030000D03*
X75470000Y-27030000D03*
X72930000Y-27030000D03*
X70390000Y-27030000D03*
X67850000Y-27030000D03*
X65310000Y-27030000D03*
X62770000Y-27030000D03*
X60230000Y-27030000D03*
X57690000Y-27030000D03*
X55150000Y-27030000D03*
X55150000Y-42270000D03*
X57690000Y-42270000D03*
X60230000Y-42270000D03*
X62770000Y-42270000D03*
X65310000Y-42270000D03*
X67850000Y-42270000D03*
X70390000Y-42270000D03*
X72930000Y-42270000D03*
X75470000Y-42270000D03*
X78010000Y-42270000D03*
X80550000Y-42270000D03*
X83090000Y-42270000D03*
X85630000Y-42270000D03*
X88170000Y-42270000D03*
X90710000Y-42270000D03*
D31*
X108730000Y-32110000D03*
X108730000Y-29570000D03*
X106190000Y-32110000D03*
X106190000Y-29570000D03*
X103650000Y-32110000D03*
X103650000Y-29570000D03*
X101110000Y-32110000D03*
D32*
X101110000Y-29570000D03*
D18*
X134090000Y-52870000D03*
X134090000Y-50330000D03*
X134090000Y-47790000D03*
D17*
X134090000Y-45250000D03*
D33*
X135570000Y-34070000D03*
X133030000Y-34070000D03*
D34*
X130490000Y-34070000D03*
D33*
X135570000Y-37270000D03*
X133030000Y-37270000D03*
D34*
X130490000Y-37270000D03*
D33*
X135570000Y-27670000D03*
X133030000Y-27670000D03*
D34*
X130490000Y-27670000D03*
X130490000Y-30870000D03*
D33*
X133030000Y-30870000D03*
X135570000Y-30870000D03*
X148090000Y-41650000D03*
X148090000Y-39110000D03*
X148090000Y-36570000D03*
D34*
X148090000Y-34030000D03*
D33*
X148090000Y-65310000D03*
X148090000Y-62770000D03*
X148090000Y-60230000D03*
D34*
X148090000Y-57690000D03*
D35*
X99137500Y-72500000D03*
X107655000Y-72500000D03*
X116172500Y-72500000D03*
X124690000Y-72500000D03*
X90620000Y-72500000D03*
D14*
X76715000Y-72170000D03*
X74215000Y-72170000D03*
X79215000Y-72170000D03*
D15*
X70615000Y-69670000D03*
X82815000Y-69670000D03*
M02*
