G04 #@! TF.GenerationSoftware,KiCad,Pcbnew,no-vcs-found-7434~57~ubuntu14.04.1*
G04 #@! TF.CreationDate,2017-01-14T00:23:44+01:00*
G04 #@! TF.ProjectId,Nano_PB,4E616E6F5F50422E6B696361645F7063,rev?*
G04 #@! TF.FileFunction,Soldermask,Bot*
G04 #@! TF.FilePolarity,Negative*
%FSLAX46Y46*%
G04 Gerber Fmt 4.6, Leading zero omitted, Abs format (unit mm)*
G04 Created by KiCad (PCBNEW no-vcs-found-7434~57~ubuntu14.04.1) date Sat Jan 14 00:23:44 2017*
%MOMM*%
%LPD*%
G01*
G04 APERTURE LIST*
%ADD10C,0.100000*%
%ADD11R,0.805600X1.855600*%
%ADD12R,1.855600X0.955600*%
%ADD13O,2.355600X1.955600*%
%ADD14O,1.755600X2.355600*%
%ADD15O,2.855600X3.155600*%
%ADD16O,1.879600X1.555600*%
%ADD17R,2.387600X2.082800*%
%ADD18O,2.387600X2.082800*%
%ADD19R,2.082800X2.387600*%
%ADD20O,2.082800X2.387600*%
%ADD21R,2.590800X2.590800*%
%ADD22C,1.555600*%
%ADD23R,1.655600X1.655600*%
%ADD24C,1.655600*%
%ADD25R,0.955600X1.855600*%
%ADD26O,2.355600X4.355600*%
%ADD27O,4.355600X2.355600*%
%ADD28O,1.305600X1.655600*%
%ADD29R,1.305600X1.655600*%
%ADD30R,1.355600X1.605600*%
%ADD31O,2.054860X3.855720*%
%ADD32C,1.855600*%
%ADD33R,1.155700X1.155700*%
%ADD34R,1.605600X1.355600*%
%ADD35R,2.355600X2.855600*%
%ADD36R,1.355600X1.655600*%
%ADD37R,1.655600X1.355600*%
%ADD38O,2.082800X2.082800*%
%ADD39R,2.082800X2.082800*%
%ADD40O,2.055600X2.055600*%
%ADD41R,2.055600X2.055600*%
G04 APERTURE END LIST*
D10*
D11*
X114490000Y-60245000D03*
X115140000Y-60245000D03*
X115790000Y-60245000D03*
X116440000Y-60245000D03*
X117090000Y-60245000D03*
X117740000Y-60245000D03*
X118390000Y-60245000D03*
X119040000Y-60245000D03*
X119040000Y-54345000D03*
X118390000Y-54345000D03*
X117740000Y-54345000D03*
X117090000Y-54345000D03*
X116440000Y-54345000D03*
X115790000Y-54345000D03*
X115140000Y-54345000D03*
X114490000Y-54345000D03*
D12*
X143390000Y-53915000D03*
X143390000Y-52645000D03*
X143390000Y-51375000D03*
X143390000Y-50105000D03*
X143390000Y-48835000D03*
X143390000Y-47565000D03*
X143390000Y-46295000D03*
X143390000Y-45025000D03*
X137990000Y-45025000D03*
X137990000Y-46295000D03*
X137990000Y-47565000D03*
X137990000Y-48835000D03*
X137990000Y-50105000D03*
X137990000Y-51375000D03*
X137990000Y-52645000D03*
X137990000Y-53915000D03*
D13*
X77990000Y-49770000D03*
X77990000Y-59770000D03*
D12*
X94990000Y-63940000D03*
X94990000Y-65210000D03*
X94990000Y-66480000D03*
X94990000Y-67750000D03*
X94990000Y-69020000D03*
X94990000Y-70290000D03*
X94990000Y-71560000D03*
X94990000Y-72830000D03*
X89590000Y-72830000D03*
X89590000Y-71560000D03*
X89590000Y-70290000D03*
X89590000Y-69020000D03*
X89590000Y-67750000D03*
X89590000Y-66480000D03*
X89590000Y-65210000D03*
X89590000Y-63940000D03*
D14*
X137590000Y-70470000D03*
X135090000Y-70470000D03*
X140090000Y-70470000D03*
D15*
X132990000Y-67170000D03*
X142190000Y-67170000D03*
D16*
X116390000Y-27750000D03*
X116390000Y-30290000D03*
X116390000Y-32830000D03*
X116390000Y-35370000D03*
X116390000Y-37910000D03*
X116390000Y-40450000D03*
X124010000Y-27750000D03*
X124010000Y-30290000D03*
X124010000Y-32830000D03*
X124010000Y-35370000D03*
X124010000Y-37910000D03*
X124010000Y-40450000D03*
D14*
X76715000Y-72170000D03*
X74215000Y-72170000D03*
X79215000Y-72170000D03*
D15*
X70515000Y-69670000D03*
X82915000Y-69670000D03*
D17*
X149290000Y-53450000D03*
D18*
X149290000Y-50910000D03*
X149290000Y-48370000D03*
X149290000Y-45830000D03*
D17*
X130590000Y-47790000D03*
D18*
X130590000Y-50330000D03*
X130590000Y-52870000D03*
D19*
X98220000Y-37070000D03*
D20*
X100760000Y-37070000D03*
X103300000Y-37070000D03*
X105840000Y-37070000D03*
X108380000Y-37070000D03*
X110920000Y-37070000D03*
D21*
X110960000Y-40500000D03*
D22*
X89490000Y-58370000D03*
X92890000Y-58370000D03*
D23*
X65415000Y-63845000D03*
D24*
X67415000Y-63845000D03*
D23*
X58565000Y-63845000D03*
D24*
X60565000Y-63845000D03*
D25*
X112100000Y-64070000D03*
X113370000Y-64070000D03*
X114640000Y-64070000D03*
X115910000Y-64070000D03*
X117180000Y-64070000D03*
X118450000Y-64070000D03*
X119720000Y-64070000D03*
X120990000Y-64070000D03*
X120990000Y-69470000D03*
X119720000Y-69470000D03*
X118450000Y-69470000D03*
X117180000Y-69470000D03*
X115910000Y-69470000D03*
X114640000Y-69470000D03*
X113370000Y-69470000D03*
X112100000Y-69470000D03*
D12*
X94940000Y-47575000D03*
X94940000Y-48845000D03*
X94940000Y-50115000D03*
X94940000Y-51385000D03*
X94940000Y-52655000D03*
X94940000Y-53925000D03*
X94940000Y-55195000D03*
X94940000Y-56465000D03*
X89540000Y-56465000D03*
X89540000Y-55195000D03*
X89540000Y-53925000D03*
X89540000Y-52655000D03*
X89540000Y-51385000D03*
X89540000Y-50115000D03*
X89540000Y-48845000D03*
X89540000Y-47575000D03*
D26*
X63640000Y-52170000D03*
X57490000Y-52170000D03*
D27*
X60790000Y-57170000D03*
D28*
X143740000Y-28545000D03*
D29*
X145010000Y-28545000D03*
D28*
X142470000Y-28545000D03*
X146280000Y-28545000D03*
D30*
X89590000Y-61320000D03*
X91590000Y-61320000D03*
X89540000Y-45020000D03*
X91540000Y-45020000D03*
D31*
X62865000Y-70720000D03*
X65405000Y-70720000D03*
X60325000Y-70720000D03*
D32*
X90710000Y-27030000D03*
X88170000Y-27030000D03*
X85630000Y-27030000D03*
X83090000Y-27030000D03*
X80550000Y-27030000D03*
X78010000Y-27030000D03*
X75470000Y-27030000D03*
X72930000Y-27030000D03*
X70390000Y-27030000D03*
X67850000Y-27030000D03*
X65310000Y-27030000D03*
X62770000Y-27030000D03*
X60230000Y-27030000D03*
X57690000Y-27030000D03*
X55150000Y-27030000D03*
X55150000Y-42270000D03*
X57690000Y-42270000D03*
X60230000Y-42270000D03*
X62770000Y-42270000D03*
X65310000Y-42270000D03*
X67850000Y-42270000D03*
X70390000Y-42270000D03*
X72930000Y-42270000D03*
X75470000Y-42270000D03*
X78010000Y-42270000D03*
X80550000Y-42270000D03*
X83090000Y-42270000D03*
X85630000Y-42270000D03*
X88170000Y-42270000D03*
X90710000Y-42270000D03*
D33*
X107140000Y-47345760D03*
X105240000Y-47345760D03*
X106190000Y-45346780D03*
X111690000Y-47345760D03*
X109790000Y-47345760D03*
X110740000Y-45346780D03*
X116390000Y-47320760D03*
X114490000Y-47320760D03*
X115440000Y-45321780D03*
X121215000Y-47343980D03*
X119315000Y-47343980D03*
X120265000Y-45345000D03*
X125790000Y-47318980D03*
X123890000Y-47318980D03*
X124840000Y-45320000D03*
D30*
X113570000Y-72750000D03*
X115570000Y-72750000D03*
D34*
X75340000Y-64995000D03*
X75340000Y-66995000D03*
X77890000Y-64995000D03*
X77890000Y-66995000D03*
D35*
X66090000Y-60220000D03*
X66090000Y-55720000D03*
D36*
X101250000Y-43620000D03*
X99250000Y-43620000D03*
X101250000Y-46620000D03*
X99250000Y-46620000D03*
X101250000Y-49620000D03*
X99250000Y-49620000D03*
X101250000Y-52620000D03*
X99250000Y-52620000D03*
X101250000Y-55620000D03*
X99250000Y-55620000D03*
X101250000Y-58620000D03*
X99250000Y-58620000D03*
X101250000Y-61620000D03*
X99250000Y-61620000D03*
X107140000Y-49895000D03*
X105140000Y-49895000D03*
X111790000Y-49870000D03*
X109790000Y-49870000D03*
X116440000Y-49970000D03*
X114440000Y-49970000D03*
X121215000Y-49995000D03*
X119215000Y-49995000D03*
X125790000Y-49970000D03*
X123790000Y-49970000D03*
X131670000Y-45230000D03*
X129670000Y-45230000D03*
X106525000Y-69120000D03*
X108525000Y-69120000D03*
X126990000Y-69095000D03*
X124990000Y-69095000D03*
X126980000Y-72345000D03*
X124980000Y-72345000D03*
X106525000Y-72370000D03*
X108525000Y-72370000D03*
X124990000Y-65895000D03*
X126990000Y-65895000D03*
X124940000Y-62695000D03*
X126940000Y-62695000D03*
X108525000Y-65920000D03*
X106525000Y-65920000D03*
X108525000Y-62720000D03*
X106525000Y-62720000D03*
X84190000Y-57420000D03*
X86190000Y-57420000D03*
X69715000Y-72600000D03*
X71715000Y-72600000D03*
D37*
X72340000Y-66995000D03*
X72340000Y-64995000D03*
D36*
X83690000Y-72570000D03*
X81690000Y-72570000D03*
D37*
X81340000Y-66995000D03*
X81340000Y-64995000D03*
D34*
X112040000Y-58245000D03*
X112040000Y-60245000D03*
D30*
X145500000Y-42975000D03*
X143500000Y-42975000D03*
D34*
X142265000Y-62420000D03*
X142265000Y-64420000D03*
D30*
X141690000Y-55870000D03*
X139690000Y-55870000D03*
D38*
X108730000Y-32110000D03*
X108730000Y-29570000D03*
X106190000Y-32110000D03*
X106190000Y-29570000D03*
X103650000Y-32110000D03*
X103650000Y-29570000D03*
X101110000Y-32110000D03*
D39*
X101110000Y-29570000D03*
D18*
X134090000Y-52870000D03*
X134090000Y-50330000D03*
X134090000Y-47790000D03*
D17*
X134090000Y-45250000D03*
D36*
X126940000Y-59745000D03*
X124940000Y-59745000D03*
X128500000Y-27670000D03*
X126500000Y-27670000D03*
X126500000Y-30870000D03*
X128500000Y-30870000D03*
X126500000Y-34070000D03*
X128500000Y-34070000D03*
X128500000Y-37270000D03*
X126500000Y-37270000D03*
D37*
X145790000Y-31975000D03*
X145790000Y-33975000D03*
X139475000Y-31975000D03*
X139475000Y-33975000D03*
X142625000Y-33975000D03*
X142625000Y-31975000D03*
X83100000Y-47140000D03*
X83100000Y-49140000D03*
D36*
X145590000Y-36570000D03*
X143590000Y-36570000D03*
X143500000Y-40825000D03*
X145500000Y-40825000D03*
X145190000Y-60270000D03*
X143190000Y-60270000D03*
D37*
X145265000Y-62420000D03*
X145265000Y-64420000D03*
D40*
X135570000Y-34070000D03*
X133030000Y-34070000D03*
D41*
X130490000Y-34070000D03*
D40*
X135570000Y-37270000D03*
X133030000Y-37270000D03*
D41*
X130490000Y-37270000D03*
D40*
X135570000Y-27670000D03*
X133030000Y-27670000D03*
D41*
X130490000Y-27670000D03*
X130490000Y-30870000D03*
D40*
X133030000Y-30870000D03*
X135570000Y-30870000D03*
X148090000Y-41650000D03*
X148090000Y-39110000D03*
X148090000Y-36570000D03*
D41*
X148090000Y-34030000D03*
D40*
X148090000Y-65310000D03*
X148090000Y-62770000D03*
X148090000Y-60230000D03*
D41*
X148090000Y-57690000D03*
M02*
