G04 #@! TF.FileFunction,Soldermask,Bot*
%FSLAX46Y46*%
G04 Gerber Fmt 4.6, Leading zero omitted, Abs format (unit mm)*
G04 Created by KiCad (PCBNEW 4.1.0-alpha+201607281302+6996~46~ubuntu14.04.1-product) date Thu Aug  4 14:53:24 2016*
%MOMM*%
%LPD*%
G01*
G04 APERTURE LIST*
%ADD10C,0.100000*%
%ADD11R,2.387600X2.082800*%
%ADD12O,2.387600X2.082800*%
%ADD13R,1.655600X1.055600*%
%ADD14R,1.055600X1.655600*%
%ADD15O,1.879600X1.555600*%
%ADD16R,1.855600X0.955600*%
%ADD17O,1.855600X2.355600*%
%ADD18C,3.355600*%
%ADD19O,2.355600X1.955600*%
%ADD20O,2.355600X4.355600*%
%ADD21O,4.355600X2.355600*%
%ADD22O,1.255600X1.655600*%
%ADD23R,1.255600X1.655600*%
%ADD24R,1.355600X1.605600*%
%ADD25R,1.655600X1.655600*%
%ADD26C,1.655600*%
%ADD27R,2.590800X2.590800*%
%ADD28R,2.082800X2.387600*%
%ADD29O,2.082800X2.387600*%
%ADD30O,2.054860X3.855720*%
%ADD31C,1.855600*%
%ADD32R,0.955600X1.855600*%
%ADD33C,1.555600*%
%ADD34R,1.155700X1.155700*%
%ADD35R,1.605600X1.355600*%
G04 APERTURE END LIST*
D10*
D11*
X188550000Y-52400000D03*
D12*
X188550000Y-54940000D03*
X188550000Y-57480000D03*
D13*
X185450000Y-53570000D03*
X185450000Y-55470000D03*
D14*
X167760000Y-77600000D03*
X169660000Y-77600000D03*
D15*
X174500000Y-44160000D03*
X174500000Y-46700000D03*
X174500000Y-49240000D03*
X174500000Y-51780000D03*
X174500000Y-54320000D03*
X174500000Y-56860000D03*
X182120000Y-44160000D03*
X182120000Y-46700000D03*
X182120000Y-49240000D03*
X182120000Y-51780000D03*
X182120000Y-54320000D03*
X182120000Y-56860000D03*
D16*
X158200000Y-68170000D03*
X158200000Y-69440000D03*
X158200000Y-70710000D03*
X158200000Y-71980000D03*
X158200000Y-73250000D03*
X158200000Y-74520000D03*
X158200000Y-75790000D03*
X158200000Y-77060000D03*
X152800000Y-77060000D03*
X152800000Y-75790000D03*
X152800000Y-74520000D03*
X152800000Y-73250000D03*
X152800000Y-71980000D03*
X152800000Y-70710000D03*
X152800000Y-69440000D03*
X152800000Y-68170000D03*
D17*
X201150000Y-65350000D03*
X203650000Y-65350000D03*
X198650000Y-65350000D03*
D18*
X206150000Y-72350000D03*
X196150000Y-72350000D03*
D19*
X147850000Y-65500000D03*
X147850000Y-75500000D03*
D20*
X120840000Y-65410000D03*
X114690000Y-65410000D03*
D21*
X117990000Y-70410000D03*
D22*
X201050000Y-44550000D03*
D23*
X202320000Y-44550000D03*
D22*
X199780000Y-44550000D03*
X203590000Y-44550000D03*
D24*
X152800000Y-65550000D03*
X154800000Y-65550000D03*
X152750000Y-49250000D03*
X154750000Y-49250000D03*
D25*
X134020000Y-69270000D03*
D26*
X136020000Y-69270000D03*
D25*
X128730000Y-69310000D03*
D26*
X126730000Y-69310000D03*
D27*
X168870000Y-45730000D03*
D28*
X189060000Y-46300000D03*
D29*
X191600000Y-46300000D03*
X194140000Y-46300000D03*
D28*
X189060000Y-42300000D03*
D29*
X191600000Y-42300000D03*
X194140000Y-42300000D03*
D11*
X207260000Y-58880000D03*
D12*
X207260000Y-56340000D03*
X207260000Y-53800000D03*
X207260000Y-51260000D03*
D28*
X156130000Y-42300000D03*
D29*
X158670000Y-42300000D03*
X161210000Y-42300000D03*
X163750000Y-42300000D03*
X166290000Y-42300000D03*
X168830000Y-42300000D03*
D14*
X169550000Y-64650000D03*
X167650000Y-64650000D03*
X164450000Y-50650000D03*
X162550000Y-50650000D03*
X164450000Y-56650000D03*
X162550000Y-56650000D03*
X164450000Y-62650000D03*
X162550000Y-62650000D03*
X174650000Y-64650000D03*
X172750000Y-64650000D03*
X164450000Y-47650000D03*
X162550000Y-47650000D03*
X164450000Y-53650000D03*
X162550000Y-53650000D03*
X164450000Y-59650000D03*
X162550000Y-59650000D03*
X164450000Y-65650000D03*
X162550000Y-65650000D03*
X179550000Y-64750000D03*
X177650000Y-64750000D03*
X184550000Y-64750000D03*
X182650000Y-64750000D03*
X189550000Y-64750000D03*
X187650000Y-64750000D03*
X203650000Y-59700000D03*
X201750000Y-59700000D03*
X193550000Y-59650000D03*
X191650000Y-59650000D03*
X198700000Y-59690000D03*
X196800000Y-59690000D03*
X203600000Y-51700000D03*
X201700000Y-51700000D03*
X193500000Y-51650000D03*
X191600000Y-51650000D03*
X198750000Y-51690000D03*
X196850000Y-51690000D03*
X137930000Y-62570000D03*
X136030000Y-62570000D03*
X187700000Y-77600000D03*
X189600000Y-77600000D03*
X189600000Y-74350000D03*
X187700000Y-74350000D03*
X187650000Y-67950000D03*
X189550000Y-67950000D03*
X189590000Y-71150000D03*
X187690000Y-71150000D03*
X169660000Y-67950000D03*
X167760000Y-67950000D03*
X167760000Y-74350000D03*
X169660000Y-74350000D03*
X169660000Y-71150000D03*
X167760000Y-71150000D03*
D16*
X158150000Y-51805000D03*
X158150000Y-53075000D03*
X158150000Y-54345000D03*
X158150000Y-55615000D03*
X158150000Y-56885000D03*
X158150000Y-58155000D03*
X158150000Y-59425000D03*
X158150000Y-60695000D03*
X152750000Y-60695000D03*
X152750000Y-59425000D03*
X152750000Y-58155000D03*
X152750000Y-56885000D03*
X152750000Y-55615000D03*
X152750000Y-54345000D03*
X152750000Y-53075000D03*
X152750000Y-51805000D03*
D30*
X131170000Y-76520000D03*
X133710000Y-76520000D03*
X128630000Y-76520000D03*
D31*
X148770000Y-42390000D03*
X146230000Y-42390000D03*
X143690000Y-42390000D03*
X141150000Y-42390000D03*
X138610000Y-42390000D03*
X136070000Y-42390000D03*
X133530000Y-42390000D03*
X130990000Y-42390000D03*
X128450000Y-42390000D03*
X125910000Y-42390000D03*
X123370000Y-42390000D03*
X120830000Y-42390000D03*
X118290000Y-42390000D03*
X115750000Y-42390000D03*
X113210000Y-42390000D03*
X113210000Y-57630000D03*
X115750000Y-57630000D03*
X118290000Y-57630000D03*
X120830000Y-57630000D03*
X123370000Y-57630000D03*
X125910000Y-57630000D03*
X128450000Y-57630000D03*
X130990000Y-57630000D03*
X133530000Y-57630000D03*
X136070000Y-57630000D03*
X138610000Y-57630000D03*
X141150000Y-57630000D03*
X143690000Y-57630000D03*
X146230000Y-57630000D03*
X148770000Y-57630000D03*
D32*
X174010000Y-69300000D03*
X175280000Y-69300000D03*
X176550000Y-69300000D03*
X177820000Y-69300000D03*
X179090000Y-69300000D03*
X180360000Y-69300000D03*
X181630000Y-69300000D03*
X182900000Y-69300000D03*
X182900000Y-74700000D03*
X181630000Y-74700000D03*
X180360000Y-74700000D03*
X179090000Y-74700000D03*
X177820000Y-74700000D03*
X176550000Y-74700000D03*
X175280000Y-74700000D03*
X174010000Y-74700000D03*
D33*
X130230000Y-62550000D03*
X133630000Y-62550000D03*
D34*
X169600000Y-62100760D03*
X167700000Y-62100760D03*
X168650000Y-60101780D03*
X174600000Y-62100760D03*
X172700000Y-62100760D03*
X173650000Y-60101780D03*
X179550000Y-62100760D03*
X177650000Y-62100760D03*
X178600000Y-60101780D03*
X184600000Y-62098980D03*
X182700000Y-62098980D03*
X183650000Y-60100000D03*
X189600000Y-62098980D03*
X187700000Y-62098980D03*
X188650000Y-60100000D03*
X203650000Y-56650000D03*
X201750000Y-56650000D03*
X202700000Y-54651020D03*
X193550000Y-56598980D03*
X191650000Y-56598980D03*
X192600000Y-54600000D03*
X198700000Y-56638980D03*
X196800000Y-56638980D03*
X197750000Y-54640000D03*
D24*
X175500000Y-78100000D03*
X177500000Y-78100000D03*
D31*
X120650000Y-75450000D03*
X118110000Y-75450000D03*
X115570000Y-75450000D03*
D35*
X113230000Y-70380000D03*
X113230000Y-68380000D03*
X123030000Y-70380000D03*
X123030000Y-68380000D03*
D13*
X113240000Y-77980000D03*
X113240000Y-76080000D03*
X113240000Y-74300000D03*
X113240000Y-72400000D03*
X123030000Y-77970000D03*
X123030000Y-76070000D03*
X123030000Y-74300000D03*
X123030000Y-72400000D03*
M02*
