G04 #@! TF.FileFunction,Soldermask,Top*
%FSLAX46Y46*%
G04 Gerber Fmt 4.6, Leading zero omitted, Abs format (unit mm)*
G04 Created by KiCad (PCBNEW 4.1.0-alpha+201607281302+6996~46~ubuntu14.04.1-product) date Sun Aug  7 01:59:30 2016*
%MOMM*%
%LPD*%
G01*
G04 APERTURE LIST*
%ADD10C,0.100000*%
%ADD11R,0.770000X0.420000*%
%ADD12R,2.387600X2.082800*%
%ADD13O,2.387600X2.082800*%
%ADD14O,1.879600X1.555600*%
%ADD15O,1.855600X2.355600*%
%ADD16C,3.355600*%
%ADD17O,2.355600X1.955600*%
%ADD18O,2.355600X4.355600*%
%ADD19O,4.355600X2.355600*%
%ADD20O,1.255600X1.655600*%
%ADD21R,1.255600X1.655600*%
%ADD22R,1.655600X1.655600*%
%ADD23C,1.655600*%
%ADD24R,1.605600X1.355600*%
%ADD25R,2.590800X2.590800*%
%ADD26R,2.082800X2.387600*%
%ADD27O,2.082800X2.387600*%
%ADD28R,1.155700X1.155700*%
%ADD29R,1.055600X1.655600*%
%ADD30R,2.855600X1.955600*%
%ADD31O,2.054860X3.855720*%
%ADD32C,1.855600*%
%ADD33C,1.555600*%
%ADD34R,2.355600X2.855600*%
G04 APERTURE END LIST*
D10*
D11*
X159782500Y-58500000D03*
X159782500Y-59000000D03*
X159782500Y-59500000D03*
X159782500Y-60000000D03*
X159782500Y-60500000D03*
X162882500Y-60500000D03*
X162882500Y-60000000D03*
X162882500Y-59500000D03*
X162882500Y-59000000D03*
X162882500Y-58500000D03*
D12*
X188550000Y-52400000D03*
D13*
X188550000Y-54940000D03*
X188550000Y-57480000D03*
D14*
X174500000Y-44160000D03*
X174500000Y-46700000D03*
X174500000Y-49240000D03*
X174500000Y-51780000D03*
X174500000Y-54320000D03*
X174500000Y-56860000D03*
X182120000Y-44160000D03*
X182120000Y-46700000D03*
X182120000Y-49240000D03*
X182120000Y-51780000D03*
X182120000Y-54320000D03*
X182120000Y-56860000D03*
D15*
X201150000Y-65350000D03*
X203650000Y-65350000D03*
X198650000Y-65350000D03*
D16*
X206150000Y-72350000D03*
X196150000Y-72350000D03*
D17*
X147850000Y-65500000D03*
X147850000Y-75500000D03*
D18*
X120840000Y-65410000D03*
X114690000Y-65410000D03*
D19*
X117990000Y-70410000D03*
D20*
X201640000Y-44510000D03*
D21*
X202910000Y-44510000D03*
D20*
X200370000Y-44510000D03*
X204180000Y-44510000D03*
D22*
X135740000Y-69630000D03*
D23*
X133740000Y-69630000D03*
D22*
X127140000Y-69610000D03*
D23*
X129140000Y-69610000D03*
D24*
X156300000Y-60500000D03*
X156300000Y-58500000D03*
X166350000Y-60500000D03*
X166350000Y-58500000D03*
D25*
X168870000Y-45730000D03*
D26*
X190000000Y-46300000D03*
D27*
X192540000Y-46300000D03*
X195080000Y-46300000D03*
D26*
X190000000Y-42300000D03*
D27*
X192540000Y-42300000D03*
X195080000Y-42300000D03*
D12*
X207260000Y-58880000D03*
D13*
X207260000Y-56340000D03*
X207260000Y-53800000D03*
X207260000Y-51260000D03*
D26*
X156130000Y-42300000D03*
D27*
X158670000Y-42300000D03*
X161210000Y-42300000D03*
X163750000Y-42300000D03*
X166290000Y-42300000D03*
X168830000Y-42300000D03*
D28*
X164149240Y-53960000D03*
X164149240Y-55860000D03*
X166148220Y-54910000D03*
X157299240Y-53860000D03*
X157299240Y-55760000D03*
X159298220Y-54810000D03*
D29*
X159250000Y-47090000D03*
X157350000Y-47090000D03*
X166100000Y-47110000D03*
X164200000Y-47110000D03*
X166050000Y-62900000D03*
X164150000Y-62900000D03*
X157300000Y-62900000D03*
X159200000Y-62900000D03*
X164250000Y-51750000D03*
X166150000Y-51750000D03*
X157340000Y-51750000D03*
X159240000Y-51750000D03*
D30*
X161050000Y-71800000D03*
X168550000Y-71800000D03*
X172780000Y-67680000D03*
X180280000Y-67680000D03*
X172780000Y-75560000D03*
X180280000Y-75560000D03*
X183950000Y-71800000D03*
X191450000Y-71800000D03*
D31*
X131170000Y-76520000D03*
X133710000Y-76520000D03*
X128630000Y-76520000D03*
D32*
X148770000Y-42390000D03*
X146230000Y-42390000D03*
X143690000Y-42390000D03*
X141150000Y-42390000D03*
X138610000Y-42390000D03*
X136070000Y-42390000D03*
X133530000Y-42390000D03*
X130990000Y-42390000D03*
X128450000Y-42390000D03*
X125910000Y-42390000D03*
X123370000Y-42390000D03*
X120830000Y-42390000D03*
X118290000Y-42390000D03*
X115750000Y-42390000D03*
X113210000Y-42390000D03*
X113210000Y-57630000D03*
X115750000Y-57630000D03*
X118290000Y-57630000D03*
X120830000Y-57630000D03*
X123370000Y-57630000D03*
X125910000Y-57630000D03*
X128450000Y-57630000D03*
X130990000Y-57630000D03*
X133530000Y-57630000D03*
X136070000Y-57630000D03*
X138610000Y-57630000D03*
X141150000Y-57630000D03*
X143690000Y-57630000D03*
X146230000Y-57630000D03*
X148770000Y-57630000D03*
D33*
X130230000Y-62550000D03*
X133630000Y-62550000D03*
D32*
X120650000Y-75450000D03*
X118110000Y-75450000D03*
X115570000Y-75450000D03*
D34*
X124050000Y-66180000D03*
X124050000Y-61680000D03*
M02*
