G04 #@! TF.FileFunction,Legend,Top*
%FSLAX46Y46*%
G04 Gerber Fmt 4.6, Leading zero omitted, Abs format (unit mm)*
G04 Created by KiCad (PCBNEW 4.1.0-alpha+201607281302+6996~46~ubuntu14.04.1-product) date Thu Aug  4 14:53:24 2016*
%MOMM*%
%LPD*%
G01*
G04 APERTURE LIST*
%ADD10C,0.100000*%
%ADD11C,0.200000*%
%ADD12C,0.150000*%
%ADD13C,0.152400*%
%ADD14R,2.387600X2.082800*%
%ADD15O,2.387600X2.082800*%
%ADD16R,1.005600X0.655600*%
%ADD17O,1.879600X1.555600*%
%ADD18O,1.855600X2.355600*%
%ADD19C,3.355600*%
%ADD20O,2.355600X1.955600*%
%ADD21O,2.355600X4.355600*%
%ADD22O,4.355600X2.355600*%
%ADD23O,1.255600X1.655600*%
%ADD24R,1.255600X1.655600*%
%ADD25R,1.655600X1.655600*%
%ADD26C,1.655600*%
%ADD27R,1.605600X1.355600*%
%ADD28R,2.590800X2.590800*%
%ADD29R,2.082800X2.387600*%
%ADD30O,2.082800X2.387600*%
%ADD31R,1.155700X1.155700*%
%ADD32R,1.055600X1.655600*%
%ADD33R,2.855600X1.955600*%
%ADD34O,2.054860X3.855720*%
%ADD35C,1.855600*%
%ADD36C,1.555600*%
%ADD37R,2.355600X2.855600*%
G04 APERTURE END LIST*
D10*
D11*
X126542857Y-52800000D02*
X127114285Y-52800000D01*
X126428571Y-53142857D02*
X126828571Y-51942857D01*
X127228571Y-53142857D01*
X127628571Y-53142857D02*
X127628571Y-52342857D01*
X127628571Y-52571428D02*
X127685714Y-52457142D01*
X127742857Y-52400000D01*
X127857142Y-52342857D01*
X127971428Y-52342857D01*
X128885714Y-53142857D02*
X128885714Y-51942857D01*
X128885714Y-53085714D02*
X128771428Y-53142857D01*
X128542857Y-53142857D01*
X128428571Y-53085714D01*
X128371428Y-53028571D01*
X128314285Y-52914285D01*
X128314285Y-52571428D01*
X128371428Y-52457142D01*
X128428571Y-52400000D01*
X128542857Y-52342857D01*
X128771428Y-52342857D01*
X128885714Y-52400000D01*
X129971428Y-52342857D02*
X129971428Y-53142857D01*
X129457142Y-52342857D02*
X129457142Y-52971428D01*
X129514285Y-53085714D01*
X129628571Y-53142857D01*
X129800000Y-53142857D01*
X129914285Y-53085714D01*
X129971428Y-53028571D01*
X130542857Y-53142857D02*
X130542857Y-52342857D01*
X130542857Y-51942857D02*
X130485714Y-52000000D01*
X130542857Y-52057142D01*
X130600000Y-52000000D01*
X130542857Y-51942857D01*
X130542857Y-52057142D01*
X131114285Y-52342857D02*
X131114285Y-53142857D01*
X131114285Y-52457142D02*
X131171428Y-52400000D01*
X131285714Y-52342857D01*
X131457142Y-52342857D01*
X131571428Y-52400000D01*
X131628571Y-52514285D01*
X131628571Y-53142857D01*
X132371428Y-53142857D02*
X132257142Y-53085714D01*
X132200000Y-53028571D01*
X132142857Y-52914285D01*
X132142857Y-52571428D01*
X132200000Y-52457142D01*
X132257142Y-52400000D01*
X132371428Y-52342857D01*
X132542857Y-52342857D01*
X132657142Y-52400000D01*
X132714285Y-52457142D01*
X132771428Y-52571428D01*
X132771428Y-52914285D01*
X132714285Y-53028571D01*
X132657142Y-53085714D01*
X132542857Y-53142857D01*
X132371428Y-53142857D01*
X134200000Y-53142857D02*
X134200000Y-51942857D01*
X134885714Y-53142857D01*
X134885714Y-51942857D01*
X135971428Y-53142857D02*
X135971428Y-52514285D01*
X135914285Y-52400000D01*
X135800000Y-52342857D01*
X135571428Y-52342857D01*
X135457142Y-52400000D01*
X135971428Y-53085714D02*
X135857142Y-53142857D01*
X135571428Y-53142857D01*
X135457142Y-53085714D01*
X135400000Y-52971428D01*
X135400000Y-52857142D01*
X135457142Y-52742857D01*
X135571428Y-52685714D01*
X135857142Y-52685714D01*
X135971428Y-52628571D01*
X136542857Y-52342857D02*
X136542857Y-53142857D01*
X136542857Y-52457142D02*
X136600000Y-52400000D01*
X136714285Y-52342857D01*
X136885714Y-52342857D01*
X137000000Y-52400000D01*
X137057142Y-52514285D01*
X137057142Y-53142857D01*
X137800000Y-53142857D02*
X137685714Y-53085714D01*
X137628571Y-53028571D01*
X137571428Y-52914285D01*
X137571428Y-52571428D01*
X137628571Y-52457142D01*
X137685714Y-52400000D01*
X137800000Y-52342857D01*
X137971428Y-52342857D01*
X138085714Y-52400000D01*
X138142857Y-52457142D01*
X138200000Y-52571428D01*
X138200000Y-52914285D01*
X138142857Y-53028571D01*
X138085714Y-53085714D01*
X137971428Y-53142857D01*
X137800000Y-53142857D01*
X139628571Y-53142857D02*
X139628571Y-51942857D01*
X140085714Y-51942857D01*
X140200000Y-52000000D01*
X140257142Y-52057142D01*
X140314285Y-52171428D01*
X140314285Y-52342857D01*
X140257142Y-52457142D01*
X140200000Y-52514285D01*
X140085714Y-52571428D01*
X139628571Y-52571428D01*
X141000000Y-53142857D02*
X140885714Y-53085714D01*
X140828571Y-52971428D01*
X140828571Y-51942857D01*
X141971428Y-53142857D02*
X141971428Y-52514285D01*
X141914285Y-52400000D01*
X141800000Y-52342857D01*
X141571428Y-52342857D01*
X141457142Y-52400000D01*
X141971428Y-53085714D02*
X141857142Y-53142857D01*
X141571428Y-53142857D01*
X141457142Y-53085714D01*
X141400000Y-52971428D01*
X141400000Y-52857142D01*
X141457142Y-52742857D01*
X141571428Y-52685714D01*
X141857142Y-52685714D01*
X141971428Y-52628571D01*
X142428571Y-52342857D02*
X142714285Y-53142857D01*
X143000000Y-52342857D02*
X142714285Y-53142857D01*
X142600000Y-53428571D01*
X142542857Y-53485714D01*
X142428571Y-53542857D01*
X144771428Y-52514285D02*
X144942857Y-52571428D01*
X145000000Y-52628571D01*
X145057142Y-52742857D01*
X145057142Y-52914285D01*
X145000000Y-53028571D01*
X144942857Y-53085714D01*
X144828571Y-53142857D01*
X144371428Y-53142857D01*
X144371428Y-51942857D01*
X144771428Y-51942857D01*
X144885714Y-52000000D01*
X144942857Y-52057142D01*
X145000000Y-52171428D01*
X145000000Y-52285714D01*
X144942857Y-52400000D01*
X144885714Y-52457142D01*
X144771428Y-52514285D01*
X144371428Y-52514285D01*
X145742857Y-53142857D02*
X145628571Y-53085714D01*
X145571428Y-53028571D01*
X145514285Y-52914285D01*
X145514285Y-52571428D01*
X145571428Y-52457142D01*
X145628571Y-52400000D01*
X145742857Y-52342857D01*
X145914285Y-52342857D01*
X146028571Y-52400000D01*
X146085714Y-52457142D01*
X146142857Y-52571428D01*
X146142857Y-52914285D01*
X146085714Y-53028571D01*
X146028571Y-53085714D01*
X145914285Y-53142857D01*
X145742857Y-53142857D01*
X147171428Y-53142857D02*
X147171428Y-52514285D01*
X147114285Y-52400000D01*
X147000000Y-52342857D01*
X146771428Y-52342857D01*
X146657142Y-52400000D01*
X147171428Y-53085714D02*
X147057142Y-53142857D01*
X146771428Y-53142857D01*
X146657142Y-53085714D01*
X146600000Y-52971428D01*
X146600000Y-52857142D01*
X146657142Y-52742857D01*
X146771428Y-52685714D01*
X147057142Y-52685714D01*
X147171428Y-52628571D01*
X147742857Y-53142857D02*
X147742857Y-52342857D01*
X147742857Y-52571428D02*
X147800000Y-52457142D01*
X147857142Y-52400000D01*
X147971428Y-52342857D01*
X148085714Y-52342857D01*
X149000000Y-53142857D02*
X149000000Y-51942857D01*
X149000000Y-53085714D02*
X148885714Y-53142857D01*
X148657142Y-53142857D01*
X148542857Y-53085714D01*
X148485714Y-53028571D01*
X148428571Y-52914285D01*
X148428571Y-52571428D01*
X148485714Y-52457142D01*
X148542857Y-52400000D01*
X148657142Y-52342857D01*
X148885714Y-52342857D01*
X149000000Y-52400000D01*
D12*
X190100000Y-52400000D02*
X190100000Y-50850000D01*
X190100000Y-50850000D02*
X187000000Y-50850000D01*
X187000000Y-50850000D02*
X187000000Y-52400000D01*
X189820000Y-53670000D02*
X189820000Y-58750000D01*
X189820000Y-58750000D02*
X187280000Y-58750000D01*
X187280000Y-58750000D02*
X187280000Y-53670000D01*
X187280000Y-53670000D02*
X189820000Y-53670000D01*
X160107500Y-61150000D02*
X162557500Y-61150000D01*
X159382500Y-57850000D02*
X162557500Y-57850000D01*
D13*
X184660000Y-41620000D02*
X171960000Y-41620000D01*
X184660000Y-59400000D02*
X184660000Y-41620000D01*
X171960000Y-59400000D02*
X184660000Y-59400000D01*
X171960000Y-41620000D02*
X171960000Y-59400000D01*
X196070000Y-78050000D02*
X196070000Y-74240000D01*
X206230000Y-78050000D02*
X196070000Y-78050000D01*
X206230000Y-74240000D02*
X206230000Y-78050000D01*
X206230000Y-65350000D02*
X206230000Y-70430000D01*
X204960000Y-65350000D02*
X206230000Y-65350000D01*
X196070000Y-65350000D02*
X196070000Y-70430000D01*
X197340000Y-65350000D02*
X196070000Y-65350000D01*
D11*
X148557107Y-70500000D02*
G75*
G03X148557107Y-70500000I-707107J0D01*
G01*
X156350000Y-70500000D02*
G75*
G03X156350000Y-70500000I-8500000J0D01*
G01*
D13*
X120090000Y-69910000D02*
X120840000Y-69910000D01*
X107090000Y-69910000D02*
X115840000Y-69910000D01*
X107090000Y-60910000D02*
X107090000Y-69910000D01*
X120840000Y-60910000D02*
X107090000Y-60910000D01*
X120840000Y-63160000D02*
X120840000Y-60910000D01*
X120840000Y-69910000D02*
X120840000Y-67660000D01*
X203985000Y-42650000D02*
G75*
G03X203985000Y-46450000I-2300000J-1900000D01*
G01*
X203985000Y-45250000D02*
X203985000Y-46450000D01*
X203985000Y-42650000D02*
X203985000Y-43850000D01*
D12*
X135095000Y-66771000D02*
X135095000Y-71769000D01*
X135235000Y-66779000D02*
X135235000Y-69116000D01*
X135235000Y-69424000D02*
X135235000Y-71761000D01*
X135375000Y-66795000D02*
X135375000Y-68797000D01*
X135375000Y-69743000D02*
X135375000Y-71745000D01*
X135515000Y-66819000D02*
X135515000Y-68650000D01*
X135515000Y-69890000D02*
X135515000Y-71721000D01*
X135655000Y-66852000D02*
X135655000Y-68558000D01*
X135655000Y-69982000D02*
X135655000Y-71688000D01*
X135795000Y-66893000D02*
X135795000Y-68502000D01*
X135795000Y-70038000D02*
X135795000Y-71647000D01*
X135935000Y-66943000D02*
X135935000Y-68475000D01*
X135935000Y-70065000D02*
X135935000Y-71597000D01*
X136075000Y-67004000D02*
X136075000Y-68472000D01*
X136075000Y-70068000D02*
X136075000Y-71536000D01*
X136215000Y-67074000D02*
X136215000Y-68494000D01*
X136215000Y-70046000D02*
X136215000Y-71466000D01*
X136355000Y-67156000D02*
X136355000Y-68544000D01*
X136355000Y-69996000D02*
X136355000Y-71384000D01*
X136495000Y-67251000D02*
X136495000Y-68626000D01*
X136495000Y-69914000D02*
X136495000Y-71289000D01*
X136635000Y-67362000D02*
X136635000Y-68758000D01*
X136635000Y-69782000D02*
X136635000Y-71178000D01*
X136775000Y-67490000D02*
X136775000Y-69005000D01*
X136775000Y-69535000D02*
X136775000Y-71050000D01*
X136915000Y-67639000D02*
X136915000Y-70901000D01*
X137055000Y-67818000D02*
X137055000Y-70722000D01*
X137195000Y-68037000D02*
X137195000Y-70503000D01*
X137335000Y-68326000D02*
X137335000Y-70214000D01*
X137475000Y-68798000D02*
X137475000Y-69742000D01*
X136820000Y-69270000D02*
G75*
G03X136820000Y-69270000I-800000J0D01*
G01*
X137557500Y-69270000D02*
G75*
G03X137557500Y-69270000I-2537500J0D01*
G01*
X127655000Y-71809000D02*
X127655000Y-66811000D01*
X127515000Y-71801000D02*
X127515000Y-69464000D01*
X127515000Y-69156000D02*
X127515000Y-66819000D01*
X127375000Y-71785000D02*
X127375000Y-69783000D01*
X127375000Y-68837000D02*
X127375000Y-66835000D01*
X127235000Y-71761000D02*
X127235000Y-69930000D01*
X127235000Y-68690000D02*
X127235000Y-66859000D01*
X127095000Y-71728000D02*
X127095000Y-70022000D01*
X127095000Y-68598000D02*
X127095000Y-66892000D01*
X126955000Y-71687000D02*
X126955000Y-70078000D01*
X126955000Y-68542000D02*
X126955000Y-66933000D01*
X126815000Y-71637000D02*
X126815000Y-70105000D01*
X126815000Y-68515000D02*
X126815000Y-66983000D01*
X126675000Y-71576000D02*
X126675000Y-70108000D01*
X126675000Y-68512000D02*
X126675000Y-67044000D01*
X126535000Y-71506000D02*
X126535000Y-70086000D01*
X126535000Y-68534000D02*
X126535000Y-67114000D01*
X126395000Y-71424000D02*
X126395000Y-70036000D01*
X126395000Y-68584000D02*
X126395000Y-67196000D01*
X126255000Y-71329000D02*
X126255000Y-69954000D01*
X126255000Y-68666000D02*
X126255000Y-67291000D01*
X126115000Y-71218000D02*
X126115000Y-69822000D01*
X126115000Y-68798000D02*
X126115000Y-67402000D01*
X125975000Y-71090000D02*
X125975000Y-69575000D01*
X125975000Y-69045000D02*
X125975000Y-67530000D01*
X125835000Y-70941000D02*
X125835000Y-67679000D01*
X125695000Y-70762000D02*
X125695000Y-67858000D01*
X125555000Y-70543000D02*
X125555000Y-68077000D01*
X125415000Y-70254000D02*
X125415000Y-68366000D01*
X125275000Y-69782000D02*
X125275000Y-68838000D01*
X127530000Y-69310000D02*
G75*
G03X127530000Y-69310000I-800000J0D01*
G01*
X130267500Y-69310000D02*
G75*
G03X130267500Y-69310000I-2537500J0D01*
G01*
X155450000Y-59000000D02*
X155450000Y-60000000D01*
X157150000Y-60000000D02*
X157150000Y-59000000D01*
X165500000Y-59000000D02*
X165500000Y-60000000D01*
X167200000Y-60000000D02*
X167200000Y-59000000D01*
X167600000Y-44460000D02*
X167600000Y-47000000D01*
X170420000Y-47280000D02*
X168870000Y-47280000D01*
X170420000Y-47280000D02*
X170420000Y-44180000D01*
X170420000Y-44180000D02*
X168870000Y-44180000D01*
X190330000Y-47570000D02*
X195410000Y-47570000D01*
X195410000Y-47570000D02*
X195410000Y-45030000D01*
X195410000Y-45030000D02*
X190330000Y-45030000D01*
X187510000Y-44750000D02*
X189060000Y-44750000D01*
X190330000Y-45030000D02*
X190330000Y-47570000D01*
X189060000Y-47850000D02*
X187510000Y-47850000D01*
X187510000Y-47850000D02*
X187510000Y-44750000D01*
X190330000Y-43570000D02*
X195410000Y-43570000D01*
X195410000Y-43570000D02*
X195410000Y-41030000D01*
X195410000Y-41030000D02*
X190330000Y-41030000D01*
X187510000Y-40750000D02*
X189060000Y-40750000D01*
X190330000Y-41030000D02*
X190330000Y-43570000D01*
X189060000Y-43850000D02*
X187510000Y-43850000D01*
X187510000Y-43850000D02*
X187510000Y-40750000D01*
X205990000Y-57610000D02*
X205990000Y-49990000D01*
X208530000Y-57610000D02*
X208530000Y-49990000D01*
X208810000Y-60430000D02*
X208810000Y-58880000D01*
X205990000Y-49990000D02*
X208530000Y-49990000D01*
X208530000Y-57610000D02*
X205990000Y-57610000D01*
X205710000Y-58880000D02*
X205710000Y-60430000D01*
X205710000Y-60430000D02*
X208810000Y-60430000D01*
X157400000Y-43570000D02*
X170100000Y-43570000D01*
X170100000Y-43570000D02*
X170100000Y-41030000D01*
X170100000Y-41030000D02*
X157400000Y-41030000D01*
X154580000Y-43850000D02*
X156130000Y-43850000D01*
X157400000Y-43570000D02*
X157400000Y-41030000D01*
X156130000Y-40750000D02*
X154580000Y-40750000D01*
X154580000Y-40750000D02*
X154580000Y-43850000D01*
X165800240Y-56209160D02*
X165800240Y-56160900D01*
X165099200Y-53410180D02*
X165800240Y-53410180D01*
X165800240Y-53410180D02*
X165800240Y-53659100D01*
X165800240Y-56209160D02*
X165800240Y-56409820D01*
X165800240Y-56409820D02*
X165099200Y-56409820D01*
X158950240Y-56109160D02*
X158950240Y-56060900D01*
X158249200Y-53310180D02*
X158950240Y-53310180D01*
X158950240Y-53310180D02*
X158950240Y-53559100D01*
X158950240Y-56109160D02*
X158950240Y-56309820D01*
X158950240Y-56309820D02*
X158249200Y-56309820D01*
X157700000Y-46215000D02*
X158900000Y-46215000D01*
X158900000Y-47965000D02*
X157700000Y-47965000D01*
X164550000Y-46235000D02*
X165750000Y-46235000D01*
X165750000Y-47985000D02*
X164550000Y-47985000D01*
X164500000Y-62025000D02*
X165700000Y-62025000D01*
X165700000Y-63775000D02*
X164500000Y-63775000D01*
X158850000Y-63775000D02*
X157650000Y-63775000D01*
X157650000Y-62025000D02*
X158850000Y-62025000D01*
X165800000Y-52625000D02*
X164600000Y-52625000D01*
X164600000Y-50875000D02*
X165800000Y-50875000D01*
X158890000Y-52625000D02*
X157690000Y-52625000D01*
X157690000Y-50875000D02*
X158890000Y-50875000D01*
D13*
X161800000Y-70050000D02*
X161800000Y-70800000D01*
X161800000Y-73550000D02*
X161800000Y-72800000D01*
X167800000Y-73550000D02*
X161800000Y-73550000D01*
X167800000Y-72800000D02*
X167800000Y-73550000D01*
X167800000Y-70050000D02*
X167800000Y-70800000D01*
X161800000Y-70050000D02*
X167800000Y-70050000D01*
X173530000Y-65930000D02*
X173530000Y-66680000D01*
X173530000Y-69430000D02*
X173530000Y-68680000D01*
X179530000Y-69430000D02*
X173530000Y-69430000D01*
X179530000Y-68680000D02*
X179530000Y-69430000D01*
X179530000Y-65930000D02*
X179530000Y-66680000D01*
X173530000Y-65930000D02*
X179530000Y-65930000D01*
X173530000Y-73810000D02*
X173530000Y-74560000D01*
X173530000Y-77310000D02*
X173530000Y-76560000D01*
X179530000Y-77310000D02*
X173530000Y-77310000D01*
X179530000Y-76560000D02*
X179530000Y-77310000D01*
X179530000Y-73810000D02*
X179530000Y-74560000D01*
X173530000Y-73810000D02*
X179530000Y-73810000D01*
X184700000Y-70050000D02*
X184700000Y-70800000D01*
X184700000Y-73550000D02*
X184700000Y-72800000D01*
X190700000Y-73550000D02*
X184700000Y-73550000D01*
X190700000Y-72800000D02*
X190700000Y-73550000D01*
X190700000Y-70050000D02*
X190700000Y-70800000D01*
X184700000Y-70050000D02*
X190700000Y-70050000D01*
D12*
X125836000Y-78425000D02*
X127741000Y-78425000D01*
X130281000Y-78425000D02*
X129519000Y-78425000D01*
X132694000Y-78425000D02*
X132821000Y-78425000D01*
X132694000Y-78425000D02*
X132059000Y-78425000D01*
X136504000Y-78425000D02*
X134726000Y-78425000D01*
X136504000Y-74742000D02*
X134853000Y-74742000D01*
X132186000Y-74615000D02*
X132821000Y-74615000D01*
X129646000Y-74615000D02*
X130281000Y-74615000D01*
X125836000Y-74742000D02*
X127487000Y-74742000D01*
X132694000Y-79568000D02*
X132694000Y-78425000D01*
X129646000Y-79568000D02*
X129646000Y-78425000D01*
X125836000Y-78425000D02*
X125836000Y-74742000D01*
X136504000Y-74742000D02*
X136504000Y-78425000D01*
X125836000Y-79568000D02*
X125836000Y-78425000D01*
X136504000Y-78425000D02*
X136504000Y-79568000D01*
X131170000Y-79568000D02*
X136504000Y-79568000D01*
X131170000Y-79568000D02*
X125836000Y-79568000D01*
D13*
X109400000Y-58900000D02*
X109400000Y-53820000D01*
X109400000Y-46200000D02*
X109400000Y-41120000D01*
X114480000Y-46200000D02*
X114480000Y-53820000D01*
X108130000Y-46200000D02*
X114480000Y-46200000D01*
X108130000Y-47470000D02*
X108130000Y-46200000D01*
X108130000Y-53820000D02*
X108130000Y-47470000D01*
X114480000Y-53820000D02*
X108130000Y-53820000D01*
X152580000Y-58900000D02*
X152580000Y-41120000D01*
X109400000Y-58900000D02*
X152580000Y-58900000D01*
X152580000Y-41120000D02*
X109400000Y-41120000D01*
D11*
X130430000Y-64550000D02*
X133530000Y-64550000D01*
X130330000Y-64550000D02*
X130430000Y-64550000D01*
X130330000Y-60550000D02*
G75*
G03X130330000Y-64550000I1600000J-2000000D01*
G01*
X133517064Y-64560281D02*
G75*
G03X133530000Y-60550000I-1587064J2010281D01*
G01*
X130430000Y-64550000D02*
X133430000Y-64550000D01*
X130330000Y-60550000D02*
X133430000Y-60550000D01*
D13*
X122875000Y-79630000D02*
X122875000Y-74450000D01*
X113345000Y-74450000D02*
X122875000Y-74450000D01*
X113345000Y-79630000D02*
X113345000Y-74450000D01*
X122875000Y-79630000D02*
X113345000Y-79630000D01*
X122750000Y-64430000D02*
X125350000Y-64430000D01*
X122850000Y-64630000D02*
X125350000Y-64630000D01*
X125350000Y-67430000D02*
X125350000Y-60430000D01*
X122750000Y-67430000D02*
X122750000Y-60430000D01*
D12*
X186392380Y-58188095D02*
X185392380Y-58188095D01*
X185392380Y-57807142D01*
X185440000Y-57711904D01*
X185487619Y-57664285D01*
X185582857Y-57616666D01*
X185725714Y-57616666D01*
X185820952Y-57664285D01*
X185868571Y-57711904D01*
X185916190Y-57807142D01*
X185916190Y-58188095D01*
X185392380Y-57283333D02*
X185392380Y-56616666D01*
X186392380Y-57045238D01*
X160610476Y-59031904D02*
X160610476Y-59679523D01*
X160648571Y-59755714D01*
X160686666Y-59793809D01*
X160762857Y-59831904D01*
X160915238Y-59831904D01*
X160991428Y-59793809D01*
X161029523Y-59755714D01*
X161067619Y-59679523D01*
X161067619Y-59031904D01*
X161372380Y-59031904D02*
X161905714Y-59031904D01*
X161562857Y-59831904D01*
X177558095Y-46932380D02*
X177558095Y-47741904D01*
X177605714Y-47837142D01*
X177653333Y-47884761D01*
X177748571Y-47932380D01*
X177939047Y-47932380D01*
X178034285Y-47884761D01*
X178081904Y-47837142D01*
X178129523Y-47741904D01*
X178129523Y-46932380D01*
X178510476Y-46932380D02*
X179129523Y-46932380D01*
X178796190Y-47313333D01*
X178939047Y-47313333D01*
X179034285Y-47360952D01*
X179081904Y-47408571D01*
X179129523Y-47503809D01*
X179129523Y-47741904D01*
X179081904Y-47837142D01*
X179034285Y-47884761D01*
X178939047Y-47932380D01*
X178653333Y-47932380D01*
X178558095Y-47884761D01*
X178510476Y-47837142D01*
X195052380Y-77445238D02*
X194576190Y-77778571D01*
X195052380Y-78016666D02*
X194052380Y-78016666D01*
X194052380Y-77635714D01*
X194100000Y-77540476D01*
X194147619Y-77492857D01*
X194242857Y-77445238D01*
X194385714Y-77445238D01*
X194480952Y-77492857D01*
X194528571Y-77540476D01*
X194576190Y-77635714D01*
X194576190Y-78016666D01*
X194052380Y-77159523D02*
X195052380Y-76826190D01*
X194052380Y-76492857D01*
X195052380Y-75635714D02*
X195052380Y-76207142D01*
X195052380Y-75921428D02*
X194052380Y-75921428D01*
X194195238Y-76016666D01*
X194290476Y-76111904D01*
X194338095Y-76207142D01*
X153004761Y-71761904D02*
X153052380Y-71619047D01*
X153052380Y-71380952D01*
X153004761Y-71285714D01*
X152957142Y-71238095D01*
X152861904Y-71190476D01*
X152766666Y-71190476D01*
X152671428Y-71238095D01*
X152623809Y-71285714D01*
X152576190Y-71380952D01*
X152528571Y-71571428D01*
X152480952Y-71666666D01*
X152433333Y-71714285D01*
X152338095Y-71761904D01*
X152242857Y-71761904D01*
X152147619Y-71714285D01*
X152100000Y-71666666D01*
X152052380Y-71571428D01*
X152052380Y-71333333D01*
X152100000Y-71190476D01*
X153052380Y-70761904D02*
X152052380Y-70761904D01*
X152052380Y-70380952D01*
X152100000Y-70285714D01*
X152147619Y-70238095D01*
X152242857Y-70190476D01*
X152385714Y-70190476D01*
X152480952Y-70238095D01*
X152528571Y-70285714D01*
X152576190Y-70380952D01*
X152576190Y-70761904D01*
X153052380Y-69238095D02*
X153052380Y-69809523D01*
X153052380Y-69523809D02*
X152052380Y-69523809D01*
X152195238Y-69619047D01*
X152290476Y-69714285D01*
X152338095Y-69809523D01*
X111897142Y-66624285D02*
X111944761Y-66671904D01*
X111992380Y-66814761D01*
X111992380Y-66910000D01*
X111944761Y-67052857D01*
X111849523Y-67148095D01*
X111754285Y-67195714D01*
X111563809Y-67243333D01*
X111420952Y-67243333D01*
X111230476Y-67195714D01*
X111135238Y-67148095D01*
X111040000Y-67052857D01*
X110992380Y-66910000D01*
X110992380Y-66814761D01*
X111040000Y-66671904D01*
X111087619Y-66624285D01*
X110992380Y-66005238D02*
X110992380Y-65814761D01*
X111040000Y-65719523D01*
X111135238Y-65624285D01*
X111325714Y-65576666D01*
X111659047Y-65576666D01*
X111849523Y-65624285D01*
X111944761Y-65719523D01*
X111992380Y-65814761D01*
X111992380Y-66005238D01*
X111944761Y-66100476D01*
X111849523Y-66195714D01*
X111659047Y-66243333D01*
X111325714Y-66243333D01*
X111135238Y-66195714D01*
X111040000Y-66100476D01*
X110992380Y-66005238D01*
X111992380Y-65148095D02*
X110992380Y-65148095D01*
X111992380Y-64576666D01*
X110992380Y-64576666D01*
X111992380Y-63576666D02*
X111992380Y-64148095D01*
X111992380Y-63862380D02*
X110992380Y-63862380D01*
X111135238Y-63957619D01*
X111230476Y-64052857D01*
X111278095Y-64148095D01*
X205702380Y-45597619D02*
X205702380Y-46073809D01*
X204702380Y-46073809D01*
X205654761Y-44883333D02*
X205702380Y-44978571D01*
X205702380Y-45169047D01*
X205654761Y-45264285D01*
X205559523Y-45311904D01*
X205178571Y-45311904D01*
X205083333Y-45264285D01*
X205035714Y-45169047D01*
X205035714Y-44978571D01*
X205083333Y-44883333D01*
X205178571Y-44835714D01*
X205273809Y-44835714D01*
X205369047Y-45311904D01*
X205702380Y-43978571D02*
X204702380Y-43978571D01*
X205654761Y-43978571D02*
X205702380Y-44073809D01*
X205702380Y-44264285D01*
X205654761Y-44359523D01*
X205607142Y-44407142D01*
X205511904Y-44454761D01*
X205226190Y-44454761D01*
X205130952Y-44407142D01*
X205083333Y-44359523D01*
X205035714Y-44264285D01*
X205035714Y-44073809D01*
X205083333Y-43978571D01*
X205702380Y-42978571D02*
X205702380Y-43550000D01*
X205702380Y-43264285D02*
X204702380Y-43264285D01*
X204845238Y-43359523D01*
X204940476Y-43454761D01*
X204988095Y-43550000D01*
X134833333Y-65827142D02*
X134785714Y-65874761D01*
X134642857Y-65922380D01*
X134547619Y-65922380D01*
X134404761Y-65874761D01*
X134309523Y-65779523D01*
X134261904Y-65684285D01*
X134214285Y-65493809D01*
X134214285Y-65350952D01*
X134261904Y-65160476D01*
X134309523Y-65065238D01*
X134404761Y-64970000D01*
X134547619Y-64922380D01*
X134642857Y-64922380D01*
X134785714Y-64970000D01*
X134833333Y-65017619D01*
X135166666Y-64922380D02*
X135785714Y-64922380D01*
X135452380Y-65303333D01*
X135595238Y-65303333D01*
X135690476Y-65350952D01*
X135738095Y-65398571D01*
X135785714Y-65493809D01*
X135785714Y-65731904D01*
X135738095Y-65827142D01*
X135690476Y-65874761D01*
X135595238Y-65922380D01*
X135309523Y-65922380D01*
X135214285Y-65874761D01*
X135166666Y-65827142D01*
X127533333Y-65857142D02*
X127485714Y-65904761D01*
X127342857Y-65952380D01*
X127247619Y-65952380D01*
X127104761Y-65904761D01*
X127009523Y-65809523D01*
X126961904Y-65714285D01*
X126914285Y-65523809D01*
X126914285Y-65380952D01*
X126961904Y-65190476D01*
X127009523Y-65095238D01*
X127104761Y-65000000D01*
X127247619Y-64952380D01*
X127342857Y-64952380D01*
X127485714Y-65000000D01*
X127533333Y-65047619D01*
X128390476Y-65285714D02*
X128390476Y-65952380D01*
X128152380Y-64904761D02*
X127914285Y-65619047D01*
X128533333Y-65619047D01*
X157614285Y-59366666D02*
X157576190Y-59328571D01*
X157538095Y-59214285D01*
X157538095Y-59138095D01*
X157576190Y-59023809D01*
X157652380Y-58947619D01*
X157728571Y-58909523D01*
X157880952Y-58871428D01*
X157995238Y-58871428D01*
X158147619Y-58909523D01*
X158223809Y-58947619D01*
X158300000Y-59023809D01*
X158338095Y-59138095D01*
X158338095Y-59214285D01*
X158300000Y-59328571D01*
X158261904Y-59366666D01*
X158338095Y-60090476D02*
X158338095Y-59709523D01*
X157957142Y-59671428D01*
X157995238Y-59709523D01*
X158033333Y-59785714D01*
X158033333Y-59976190D01*
X157995238Y-60052380D01*
X157957142Y-60090476D01*
X157880952Y-60128571D01*
X157690476Y-60128571D01*
X157614285Y-60090476D01*
X157576190Y-60052380D01*
X157538095Y-59976190D01*
X157538095Y-59785714D01*
X157576190Y-59709523D01*
X157614285Y-59671428D01*
X167664285Y-59366666D02*
X167626190Y-59328571D01*
X167588095Y-59214285D01*
X167588095Y-59138095D01*
X167626190Y-59023809D01*
X167702380Y-58947619D01*
X167778571Y-58909523D01*
X167930952Y-58871428D01*
X168045238Y-58871428D01*
X168197619Y-58909523D01*
X168273809Y-58947619D01*
X168350000Y-59023809D01*
X168388095Y-59138095D01*
X168388095Y-59214285D01*
X168350000Y-59328571D01*
X168311904Y-59366666D01*
X168388095Y-60052380D02*
X168388095Y-59900000D01*
X168350000Y-59823809D01*
X168311904Y-59785714D01*
X168197619Y-59709523D01*
X168045238Y-59671428D01*
X167740476Y-59671428D01*
X167664285Y-59709523D01*
X167626190Y-59747619D01*
X167588095Y-59823809D01*
X167588095Y-59976190D01*
X167626190Y-60052380D01*
X167664285Y-60090476D01*
X167740476Y-60128571D01*
X167930952Y-60128571D01*
X168007142Y-60090476D01*
X168045238Y-60052380D01*
X168083333Y-59976190D01*
X168083333Y-59823809D01*
X168045238Y-59747619D01*
X168007142Y-59709523D01*
X167930952Y-59671428D01*
X169131904Y-49082380D02*
X169131904Y-48082380D01*
X169512857Y-48082380D01*
X169608095Y-48130000D01*
X169655714Y-48177619D01*
X169703333Y-48272857D01*
X169703333Y-48415714D01*
X169655714Y-48510952D01*
X169608095Y-48558571D01*
X169512857Y-48606190D01*
X169131904Y-48606190D01*
X170655714Y-49082380D02*
X170084285Y-49082380D01*
X170370000Y-49082380D02*
X170370000Y-48082380D01*
X170274761Y-48225238D01*
X170179523Y-48320476D01*
X170084285Y-48368095D01*
X186802380Y-46988095D02*
X185802380Y-46988095D01*
X185802380Y-46607142D01*
X185850000Y-46511904D01*
X185897619Y-46464285D01*
X185992857Y-46416666D01*
X186135714Y-46416666D01*
X186230952Y-46464285D01*
X186278571Y-46511904D01*
X186326190Y-46607142D01*
X186326190Y-46988095D01*
X185897619Y-46035714D02*
X185850000Y-45988095D01*
X185802380Y-45892857D01*
X185802380Y-45654761D01*
X185850000Y-45559523D01*
X185897619Y-45511904D01*
X185992857Y-45464285D01*
X186088095Y-45464285D01*
X186230952Y-45511904D01*
X186802380Y-46083333D01*
X186802380Y-45464285D01*
X186802380Y-43038095D02*
X185802380Y-43038095D01*
X185802380Y-42657142D01*
X185850000Y-42561904D01*
X185897619Y-42514285D01*
X185992857Y-42466666D01*
X186135714Y-42466666D01*
X186230952Y-42514285D01*
X186278571Y-42561904D01*
X186326190Y-42657142D01*
X186326190Y-43038095D01*
X185802380Y-42133333D02*
X185802380Y-41514285D01*
X186183333Y-41847619D01*
X186183333Y-41704761D01*
X186230952Y-41609523D01*
X186278571Y-41561904D01*
X186373809Y-41514285D01*
X186611904Y-41514285D01*
X186707142Y-41561904D01*
X186754761Y-41609523D01*
X186802380Y-41704761D01*
X186802380Y-41990476D01*
X186754761Y-42085714D01*
X186707142Y-42133333D01*
X206511904Y-62142380D02*
X206511904Y-61142380D01*
X206892857Y-61142380D01*
X206988095Y-61190000D01*
X207035714Y-61237619D01*
X207083333Y-61332857D01*
X207083333Y-61475714D01*
X207035714Y-61570952D01*
X206988095Y-61618571D01*
X206892857Y-61666190D01*
X206511904Y-61666190D01*
X207940476Y-61475714D02*
X207940476Y-62142380D01*
X207702380Y-61094761D02*
X207464285Y-61809047D01*
X208083333Y-61809047D01*
X159861904Y-45252380D02*
X159861904Y-44252380D01*
X160242857Y-44252380D01*
X160338095Y-44300000D01*
X160385714Y-44347619D01*
X160433333Y-44442857D01*
X160433333Y-44585714D01*
X160385714Y-44680952D01*
X160338095Y-44728571D01*
X160242857Y-44776190D01*
X159861904Y-44776190D01*
X161338095Y-44252380D02*
X160861904Y-44252380D01*
X160814285Y-44728571D01*
X160861904Y-44680952D01*
X160957142Y-44633333D01*
X161195238Y-44633333D01*
X161290476Y-44680952D01*
X161338095Y-44728571D01*
X161385714Y-44823809D01*
X161385714Y-45061904D01*
X161338095Y-45157142D01*
X161290476Y-45204761D01*
X161195238Y-45252380D01*
X160957142Y-45252380D01*
X160861904Y-45204761D01*
X160814285Y-45157142D01*
X168097335Y-54996190D02*
X168059240Y-55072380D01*
X167983049Y-55148571D01*
X167868763Y-55262857D01*
X167830668Y-55339047D01*
X167830668Y-55415238D01*
X168021144Y-55377142D02*
X167983049Y-55453333D01*
X167906859Y-55529523D01*
X167754478Y-55567619D01*
X167487811Y-55567619D01*
X167335430Y-55529523D01*
X167259240Y-55453333D01*
X167221144Y-55377142D01*
X167221144Y-55224761D01*
X167259240Y-55148571D01*
X167335430Y-55072380D01*
X167487811Y-55034285D01*
X167754478Y-55034285D01*
X167906859Y-55072380D01*
X167983049Y-55148571D01*
X168021144Y-55224761D01*
X168021144Y-55377142D01*
X168021144Y-54653333D02*
X168021144Y-54500952D01*
X167983049Y-54424761D01*
X167944954Y-54386666D01*
X167830668Y-54310476D01*
X167678287Y-54272380D01*
X167373525Y-54272380D01*
X167297335Y-54310476D01*
X167259240Y-54348571D01*
X167221144Y-54424761D01*
X167221144Y-54577142D01*
X167259240Y-54653333D01*
X167297335Y-54691428D01*
X167373525Y-54729523D01*
X167564001Y-54729523D01*
X167640192Y-54691428D01*
X167678287Y-54653333D01*
X167716382Y-54577142D01*
X167716382Y-54424761D01*
X167678287Y-54348571D01*
X167640192Y-54310476D01*
X167564001Y-54272380D01*
X161058095Y-55277142D02*
X161020000Y-55353333D01*
X160943809Y-55429523D01*
X160829523Y-55543809D01*
X160791428Y-55620000D01*
X160791428Y-55696190D01*
X160981904Y-55658095D02*
X160943809Y-55734285D01*
X160867619Y-55810476D01*
X160715238Y-55848571D01*
X160448571Y-55848571D01*
X160296190Y-55810476D01*
X160220000Y-55734285D01*
X160181904Y-55658095D01*
X160181904Y-55505714D01*
X160220000Y-55429523D01*
X160296190Y-55353333D01*
X160448571Y-55315238D01*
X160715238Y-55315238D01*
X160867619Y-55353333D01*
X160943809Y-55429523D01*
X160981904Y-55505714D01*
X160981904Y-55658095D01*
X160981904Y-54553333D02*
X160981904Y-55010476D01*
X160981904Y-54781904D02*
X160181904Y-54781904D01*
X160296190Y-54858095D01*
X160372380Y-54934285D01*
X160410476Y-55010476D01*
X160181904Y-54058095D02*
X160181904Y-53981904D01*
X160220000Y-53905714D01*
X160258095Y-53867619D01*
X160334285Y-53829523D01*
X160486666Y-53791428D01*
X160677142Y-53791428D01*
X160829523Y-53829523D01*
X160905714Y-53867619D01*
X160943809Y-53905714D01*
X160981904Y-53981904D01*
X160981904Y-54058095D01*
X160943809Y-54134285D01*
X160905714Y-54172380D01*
X160829523Y-54210476D01*
X160677142Y-54248571D01*
X160486666Y-54248571D01*
X160334285Y-54210476D01*
X160258095Y-54172380D01*
X160220000Y-54134285D01*
X160181904Y-54058095D01*
X156341904Y-47564285D02*
X155960952Y-47830952D01*
X156341904Y-48021428D02*
X155541904Y-48021428D01*
X155541904Y-47716666D01*
X155580000Y-47640476D01*
X155618095Y-47602380D01*
X155694285Y-47564285D01*
X155808571Y-47564285D01*
X155884761Y-47602380D01*
X155922857Y-47640476D01*
X155960952Y-47716666D01*
X155960952Y-48021428D01*
X155618095Y-47259523D02*
X155580000Y-47221428D01*
X155541904Y-47145238D01*
X155541904Y-46954761D01*
X155580000Y-46878571D01*
X155618095Y-46840476D01*
X155694285Y-46802380D01*
X155770476Y-46802380D01*
X155884761Y-46840476D01*
X156341904Y-47297619D01*
X156341904Y-46802380D01*
X156341904Y-46421428D02*
X156341904Y-46269047D01*
X156303809Y-46192857D01*
X156265714Y-46154761D01*
X156151428Y-46078571D01*
X155999047Y-46040476D01*
X155694285Y-46040476D01*
X155618095Y-46078571D01*
X155580000Y-46116666D01*
X155541904Y-46192857D01*
X155541904Y-46345238D01*
X155580000Y-46421428D01*
X155618095Y-46459523D01*
X155694285Y-46497619D01*
X155884761Y-46497619D01*
X155960952Y-46459523D01*
X155999047Y-46421428D01*
X156037142Y-46345238D01*
X156037142Y-46192857D01*
X155999047Y-46116666D01*
X155960952Y-46078571D01*
X155884761Y-46040476D01*
X163211904Y-47614285D02*
X162830952Y-47880952D01*
X163211904Y-48071428D02*
X162411904Y-48071428D01*
X162411904Y-47766666D01*
X162450000Y-47690476D01*
X162488095Y-47652380D01*
X162564285Y-47614285D01*
X162678571Y-47614285D01*
X162754761Y-47652380D01*
X162792857Y-47690476D01*
X162830952Y-47766666D01*
X162830952Y-48071428D01*
X162411904Y-47347619D02*
X162411904Y-46852380D01*
X162716666Y-47119047D01*
X162716666Y-47004761D01*
X162754761Y-46928571D01*
X162792857Y-46890476D01*
X162869047Y-46852380D01*
X163059523Y-46852380D01*
X163135714Y-46890476D01*
X163173809Y-46928571D01*
X163211904Y-47004761D01*
X163211904Y-47233333D01*
X163173809Y-47309523D01*
X163135714Y-47347619D01*
X162411904Y-46357142D02*
X162411904Y-46280952D01*
X162450000Y-46204761D01*
X162488095Y-46166666D01*
X162564285Y-46128571D01*
X162716666Y-46090476D01*
X162907142Y-46090476D01*
X163059523Y-46128571D01*
X163135714Y-46166666D01*
X163173809Y-46204761D01*
X163211904Y-46280952D01*
X163211904Y-46357142D01*
X163173809Y-46433333D01*
X163135714Y-46471428D01*
X163059523Y-46509523D01*
X162907142Y-46547619D01*
X162716666Y-46547619D01*
X162564285Y-46509523D01*
X162488095Y-46471428D01*
X162450000Y-46433333D01*
X162411904Y-46357142D01*
X167691904Y-63414285D02*
X167310952Y-63680952D01*
X167691904Y-63871428D02*
X166891904Y-63871428D01*
X166891904Y-63566666D01*
X166930000Y-63490476D01*
X166968095Y-63452380D01*
X167044285Y-63414285D01*
X167158571Y-63414285D01*
X167234761Y-63452380D01*
X167272857Y-63490476D01*
X167310952Y-63566666D01*
X167310952Y-63871428D01*
X166891904Y-63147619D02*
X166891904Y-62652380D01*
X167196666Y-62919047D01*
X167196666Y-62804761D01*
X167234761Y-62728571D01*
X167272857Y-62690476D01*
X167349047Y-62652380D01*
X167539523Y-62652380D01*
X167615714Y-62690476D01*
X167653809Y-62728571D01*
X167691904Y-62804761D01*
X167691904Y-63033333D01*
X167653809Y-63109523D01*
X167615714Y-63147619D01*
X167691904Y-61890476D02*
X167691904Y-62347619D01*
X167691904Y-62119047D02*
X166891904Y-62119047D01*
X167006190Y-62195238D01*
X167082380Y-62271428D01*
X167120476Y-62347619D01*
X156281904Y-63434285D02*
X155900952Y-63700952D01*
X156281904Y-63891428D02*
X155481904Y-63891428D01*
X155481904Y-63586666D01*
X155520000Y-63510476D01*
X155558095Y-63472380D01*
X155634285Y-63434285D01*
X155748571Y-63434285D01*
X155824761Y-63472380D01*
X155862857Y-63510476D01*
X155900952Y-63586666D01*
X155900952Y-63891428D01*
X155481904Y-63167619D02*
X155481904Y-62672380D01*
X155786666Y-62939047D01*
X155786666Y-62824761D01*
X155824761Y-62748571D01*
X155862857Y-62710476D01*
X155939047Y-62672380D01*
X156129523Y-62672380D01*
X156205714Y-62710476D01*
X156243809Y-62748571D01*
X156281904Y-62824761D01*
X156281904Y-63053333D01*
X156243809Y-63129523D01*
X156205714Y-63167619D01*
X155558095Y-62367619D02*
X155520000Y-62329523D01*
X155481904Y-62253333D01*
X155481904Y-62062857D01*
X155520000Y-61986666D01*
X155558095Y-61948571D01*
X155634285Y-61910476D01*
X155710476Y-61910476D01*
X155824761Y-61948571D01*
X156281904Y-62405714D01*
X156281904Y-61910476D01*
X167488095Y-51235714D02*
X167869047Y-50969047D01*
X167488095Y-50778571D02*
X168288095Y-50778571D01*
X168288095Y-51083333D01*
X168250000Y-51159523D01*
X168211904Y-51197619D01*
X168135714Y-51235714D01*
X168021428Y-51235714D01*
X167945238Y-51197619D01*
X167907142Y-51159523D01*
X167869047Y-51083333D01*
X167869047Y-50778571D01*
X168288095Y-51502380D02*
X168288095Y-51997619D01*
X167983333Y-51730952D01*
X167983333Y-51845238D01*
X167945238Y-51921428D01*
X167907142Y-51959523D01*
X167830952Y-51997619D01*
X167640476Y-51997619D01*
X167564285Y-51959523D01*
X167526190Y-51921428D01*
X167488095Y-51845238D01*
X167488095Y-51616666D01*
X167526190Y-51540476D01*
X167564285Y-51502380D01*
X168288095Y-52264285D02*
X168288095Y-52759523D01*
X167983333Y-52492857D01*
X167983333Y-52607142D01*
X167945238Y-52683333D01*
X167907142Y-52721428D01*
X167830952Y-52759523D01*
X167640476Y-52759523D01*
X167564285Y-52721428D01*
X167526190Y-52683333D01*
X167488095Y-52607142D01*
X167488095Y-52378571D01*
X167526190Y-52302380D01*
X167564285Y-52264285D01*
X160951904Y-52314285D02*
X160570952Y-52580952D01*
X160951904Y-52771428D02*
X160151904Y-52771428D01*
X160151904Y-52466666D01*
X160190000Y-52390476D01*
X160228095Y-52352380D01*
X160304285Y-52314285D01*
X160418571Y-52314285D01*
X160494761Y-52352380D01*
X160532857Y-52390476D01*
X160570952Y-52466666D01*
X160570952Y-52771428D01*
X160151904Y-52047619D02*
X160151904Y-51552380D01*
X160456666Y-51819047D01*
X160456666Y-51704761D01*
X160494761Y-51628571D01*
X160532857Y-51590476D01*
X160609047Y-51552380D01*
X160799523Y-51552380D01*
X160875714Y-51590476D01*
X160913809Y-51628571D01*
X160951904Y-51704761D01*
X160951904Y-51933333D01*
X160913809Y-52009523D01*
X160875714Y-52047619D01*
X160418571Y-50866666D02*
X160951904Y-50866666D01*
X160113809Y-51057142D02*
X160685238Y-51247619D01*
X160685238Y-50752380D01*
X163516666Y-75354761D02*
X163659523Y-75402380D01*
X163897619Y-75402380D01*
X163992857Y-75354761D01*
X164040476Y-75307142D01*
X164088095Y-75211904D01*
X164088095Y-75116666D01*
X164040476Y-75021428D01*
X163992857Y-74973809D01*
X163897619Y-74926190D01*
X163707142Y-74878571D01*
X163611904Y-74830952D01*
X163564285Y-74783333D01*
X163516666Y-74688095D01*
X163516666Y-74592857D01*
X163564285Y-74497619D01*
X163611904Y-74450000D01*
X163707142Y-74402380D01*
X163945238Y-74402380D01*
X164088095Y-74450000D01*
X164421428Y-74402380D02*
X164659523Y-75402380D01*
X164850000Y-74688095D01*
X165040476Y-75402380D01*
X165278571Y-74402380D01*
X166183333Y-75402380D02*
X165611904Y-75402380D01*
X165897619Y-75402380D02*
X165897619Y-74402380D01*
X165802380Y-74545238D01*
X165707142Y-74640476D01*
X165611904Y-74688095D01*
X175246666Y-71234761D02*
X175389523Y-71282380D01*
X175627619Y-71282380D01*
X175722857Y-71234761D01*
X175770476Y-71187142D01*
X175818095Y-71091904D01*
X175818095Y-70996666D01*
X175770476Y-70901428D01*
X175722857Y-70853809D01*
X175627619Y-70806190D01*
X175437142Y-70758571D01*
X175341904Y-70710952D01*
X175294285Y-70663333D01*
X175246666Y-70568095D01*
X175246666Y-70472857D01*
X175294285Y-70377619D01*
X175341904Y-70330000D01*
X175437142Y-70282380D01*
X175675238Y-70282380D01*
X175818095Y-70330000D01*
X176151428Y-70282380D02*
X176389523Y-71282380D01*
X176580000Y-70568095D01*
X176770476Y-71282380D01*
X177008571Y-70282380D01*
X177341904Y-70377619D02*
X177389523Y-70330000D01*
X177484761Y-70282380D01*
X177722857Y-70282380D01*
X177818095Y-70330000D01*
X177865714Y-70377619D01*
X177913333Y-70472857D01*
X177913333Y-70568095D01*
X177865714Y-70710952D01*
X177294285Y-71282380D01*
X177913333Y-71282380D01*
X174196666Y-79064761D02*
X174339523Y-79112380D01*
X174577619Y-79112380D01*
X174672857Y-79064761D01*
X174720476Y-79017142D01*
X174768095Y-78921904D01*
X174768095Y-78826666D01*
X174720476Y-78731428D01*
X174672857Y-78683809D01*
X174577619Y-78636190D01*
X174387142Y-78588571D01*
X174291904Y-78540952D01*
X174244285Y-78493333D01*
X174196666Y-78398095D01*
X174196666Y-78302857D01*
X174244285Y-78207619D01*
X174291904Y-78160000D01*
X174387142Y-78112380D01*
X174625238Y-78112380D01*
X174768095Y-78160000D01*
X175101428Y-78112380D02*
X175339523Y-79112380D01*
X175530000Y-78398095D01*
X175720476Y-79112380D01*
X175958571Y-78112380D01*
X176244285Y-78112380D02*
X176863333Y-78112380D01*
X176530000Y-78493333D01*
X176672857Y-78493333D01*
X176768095Y-78540952D01*
X176815714Y-78588571D01*
X176863333Y-78683809D01*
X176863333Y-78921904D01*
X176815714Y-79017142D01*
X176768095Y-79064761D01*
X176672857Y-79112380D01*
X176387142Y-79112380D01*
X176291904Y-79064761D01*
X176244285Y-79017142D01*
X186416666Y-75354761D02*
X186559523Y-75402380D01*
X186797619Y-75402380D01*
X186892857Y-75354761D01*
X186940476Y-75307142D01*
X186988095Y-75211904D01*
X186988095Y-75116666D01*
X186940476Y-75021428D01*
X186892857Y-74973809D01*
X186797619Y-74926190D01*
X186607142Y-74878571D01*
X186511904Y-74830952D01*
X186464285Y-74783333D01*
X186416666Y-74688095D01*
X186416666Y-74592857D01*
X186464285Y-74497619D01*
X186511904Y-74450000D01*
X186607142Y-74402380D01*
X186845238Y-74402380D01*
X186988095Y-74450000D01*
X187321428Y-74402380D02*
X187559523Y-75402380D01*
X187750000Y-74688095D01*
X187940476Y-75402380D01*
X188178571Y-74402380D01*
X188988095Y-74735714D02*
X188988095Y-75402380D01*
X188750000Y-74354761D02*
X188511904Y-75069047D01*
X189130952Y-75069047D01*
X124102380Y-78911904D02*
X124911904Y-78911904D01*
X125007142Y-78864285D01*
X125054761Y-78816666D01*
X125102380Y-78721428D01*
X125102380Y-78530952D01*
X125054761Y-78435714D01*
X125007142Y-78388095D01*
X124911904Y-78340476D01*
X124102380Y-78340476D01*
X124435714Y-77435714D02*
X125102380Y-77435714D01*
X124054761Y-77673809D02*
X124769047Y-77911904D01*
X124769047Y-77292857D01*
X115938095Y-45602380D02*
X115938095Y-46411904D01*
X115985714Y-46507142D01*
X116033333Y-46554761D01*
X116128571Y-46602380D01*
X116319047Y-46602380D01*
X116414285Y-46554761D01*
X116461904Y-46507142D01*
X116509523Y-46411904D01*
X116509523Y-45602380D01*
X117461904Y-45602380D02*
X116985714Y-45602380D01*
X116938095Y-46078571D01*
X116985714Y-46030952D01*
X117080952Y-45983333D01*
X117319047Y-45983333D01*
X117414285Y-46030952D01*
X117461904Y-46078571D01*
X117509523Y-46173809D01*
X117509523Y-46411904D01*
X117461904Y-46507142D01*
X117414285Y-46554761D01*
X117319047Y-46602380D01*
X117080952Y-46602380D01*
X116985714Y-46554761D01*
X116938095Y-46507142D01*
X126957142Y-61502380D02*
X126623809Y-61026190D01*
X126385714Y-61502380D02*
X126385714Y-60502380D01*
X126766666Y-60502380D01*
X126861904Y-60550000D01*
X126909523Y-60597619D01*
X126957142Y-60692857D01*
X126957142Y-60835714D01*
X126909523Y-60930952D01*
X126861904Y-60978571D01*
X126766666Y-61026190D01*
X126385714Y-61026190D01*
X127909523Y-61502380D02*
X127338095Y-61502380D01*
X127623809Y-61502380D02*
X127623809Y-60502380D01*
X127528571Y-60645238D01*
X127433333Y-60740476D01*
X127338095Y-60788095D01*
X128385714Y-61502380D02*
X128576190Y-61502380D01*
X128671428Y-61454761D01*
X128719047Y-61407142D01*
X128814285Y-61264285D01*
X128861904Y-61073809D01*
X128861904Y-60692857D01*
X128814285Y-60597619D01*
X128766666Y-60550000D01*
X128671428Y-60502380D01*
X128480952Y-60502380D01*
X128385714Y-60550000D01*
X128338095Y-60597619D01*
X128290476Y-60692857D01*
X128290476Y-60930952D01*
X128338095Y-61026190D01*
X128385714Y-61073809D01*
X128480952Y-61121428D01*
X128671428Y-61121428D01*
X128766666Y-61073809D01*
X128814285Y-61026190D01*
X128861904Y-60930952D01*
X120515238Y-73448571D02*
X120658095Y-73496190D01*
X120705714Y-73543809D01*
X120753333Y-73639047D01*
X120753333Y-73781904D01*
X120705714Y-73877142D01*
X120658095Y-73924761D01*
X120562857Y-73972380D01*
X120181904Y-73972380D01*
X120181904Y-72972380D01*
X120515238Y-72972380D01*
X120610476Y-73020000D01*
X120658095Y-73067619D01*
X120705714Y-73162857D01*
X120705714Y-73258095D01*
X120658095Y-73353333D01*
X120610476Y-73400952D01*
X120515238Y-73448571D01*
X120181904Y-73448571D01*
X121705714Y-73972380D02*
X121134285Y-73972380D01*
X121420000Y-73972380D02*
X121420000Y-72972380D01*
X121324761Y-73115238D01*
X121229523Y-73210476D01*
X121134285Y-73258095D01*
X122351904Y-69232380D02*
X122351904Y-68232380D01*
X122590000Y-68232380D01*
X122732857Y-68280000D01*
X122828095Y-68375238D01*
X122875714Y-68470476D01*
X122923333Y-68660952D01*
X122923333Y-68803809D01*
X122875714Y-68994285D01*
X122828095Y-69089523D01*
X122732857Y-69184761D01*
X122590000Y-69232380D01*
X122351904Y-69232380D01*
X123875714Y-69232380D02*
X123304285Y-69232380D01*
X123590000Y-69232380D02*
X123590000Y-68232380D01*
X123494761Y-68375238D01*
X123399523Y-68470476D01*
X123304285Y-68518095D01*
%LPC*%
D14*
X188550000Y-52400000D03*
D15*
X188550000Y-54940000D03*
X188550000Y-57480000D03*
D16*
X159782500Y-58500000D03*
X159782500Y-59000000D03*
X159782500Y-59500000D03*
X159782500Y-60000000D03*
X159782500Y-60500000D03*
X162882500Y-60500000D03*
X162882500Y-60000000D03*
X162882500Y-59500000D03*
X162882500Y-59000000D03*
X162882500Y-58500000D03*
D17*
X174500000Y-44160000D03*
X174500000Y-46700000D03*
X174500000Y-49240000D03*
X174500000Y-51780000D03*
X174500000Y-54320000D03*
X174500000Y-56860000D03*
X182120000Y-44160000D03*
X182120000Y-46700000D03*
X182120000Y-49240000D03*
X182120000Y-51780000D03*
X182120000Y-54320000D03*
X182120000Y-56860000D03*
D18*
X201150000Y-65350000D03*
X203650000Y-65350000D03*
X198650000Y-65350000D03*
D19*
X206150000Y-72350000D03*
X196150000Y-72350000D03*
D20*
X147850000Y-65500000D03*
X147850000Y-75500000D03*
D21*
X120840000Y-65410000D03*
X114690000Y-65410000D03*
D22*
X117990000Y-70410000D03*
D23*
X201050000Y-44550000D03*
D24*
X202320000Y-44550000D03*
D23*
X199780000Y-44550000D03*
X203590000Y-44550000D03*
D25*
X134020000Y-69270000D03*
D26*
X136020000Y-69270000D03*
D25*
X128730000Y-69310000D03*
D26*
X126730000Y-69310000D03*
D27*
X156300000Y-60500000D03*
X156300000Y-58500000D03*
X166350000Y-60500000D03*
X166350000Y-58500000D03*
D28*
X168870000Y-45730000D03*
D29*
X189060000Y-46300000D03*
D30*
X191600000Y-46300000D03*
X194140000Y-46300000D03*
D29*
X189060000Y-42300000D03*
D30*
X191600000Y-42300000D03*
X194140000Y-42300000D03*
D14*
X207260000Y-58880000D03*
D15*
X207260000Y-56340000D03*
X207260000Y-53800000D03*
X207260000Y-51260000D03*
D29*
X156130000Y-42300000D03*
D30*
X158670000Y-42300000D03*
X161210000Y-42300000D03*
X163750000Y-42300000D03*
X166290000Y-42300000D03*
X168830000Y-42300000D03*
D31*
X164149240Y-53960000D03*
X164149240Y-55860000D03*
X166148220Y-54910000D03*
X157299240Y-53860000D03*
X157299240Y-55760000D03*
X159298220Y-54810000D03*
D32*
X159250000Y-47090000D03*
X157350000Y-47090000D03*
X166100000Y-47110000D03*
X164200000Y-47110000D03*
X166050000Y-62900000D03*
X164150000Y-62900000D03*
X157300000Y-62900000D03*
X159200000Y-62900000D03*
X164250000Y-51750000D03*
X166150000Y-51750000D03*
X157340000Y-51750000D03*
X159240000Y-51750000D03*
D33*
X161050000Y-71800000D03*
X168550000Y-71800000D03*
X172780000Y-67680000D03*
X180280000Y-67680000D03*
X172780000Y-75560000D03*
X180280000Y-75560000D03*
X183950000Y-71800000D03*
X191450000Y-71800000D03*
D34*
X131170000Y-76520000D03*
X133710000Y-76520000D03*
X128630000Y-76520000D03*
D35*
X148770000Y-42390000D03*
X146230000Y-42390000D03*
X143690000Y-42390000D03*
X141150000Y-42390000D03*
X138610000Y-42390000D03*
X136070000Y-42390000D03*
X133530000Y-42390000D03*
X130990000Y-42390000D03*
X128450000Y-42390000D03*
X125910000Y-42390000D03*
X123370000Y-42390000D03*
X120830000Y-42390000D03*
X118290000Y-42390000D03*
X115750000Y-42390000D03*
X113210000Y-42390000D03*
X113210000Y-57630000D03*
X115750000Y-57630000D03*
X118290000Y-57630000D03*
X120830000Y-57630000D03*
X123370000Y-57630000D03*
X125910000Y-57630000D03*
X128450000Y-57630000D03*
X130990000Y-57630000D03*
X133530000Y-57630000D03*
X136070000Y-57630000D03*
X138610000Y-57630000D03*
X141150000Y-57630000D03*
X143690000Y-57630000D03*
X146230000Y-57630000D03*
X148770000Y-57630000D03*
D36*
X130230000Y-62550000D03*
X133630000Y-62550000D03*
D35*
X120650000Y-75450000D03*
X118110000Y-75450000D03*
X115570000Y-75450000D03*
D37*
X124050000Y-66180000D03*
X124050000Y-61680000D03*
M02*
