G04 #@! TF.FileFunction,Paste,Top*
%FSLAX46Y46*%
G04 Gerber Fmt 4.6, Leading zero omitted, Abs format (unit mm)*
G04 Created by KiCad (PCBNEW 4.1.0-alpha+201608271546+7097~46~ubuntu14.04.1-product) date Tue Oct 11 23:10:07 2016*
%MOMM*%
%LPD*%
G01*
G04 APERTURE LIST*
%ADD10C,0.100000*%
%ADD11R,0.548400X0.198400*%
%ADD12R,1.148400X0.898400*%
%ADD13R,0.698500X0.698500*%
%ADD14R,2.398400X1.498400*%
%ADD15R,1.898400X2.398400*%
%ADD16R,0.898400X1.198400*%
G04 APERTURE END LIST*
D10*
D11*
X101872500Y-53270000D03*
X101872500Y-53770000D03*
X101872500Y-54270000D03*
X101872500Y-54770000D03*
X101872500Y-55270000D03*
X104972500Y-55270000D03*
X104972500Y-54770000D03*
X104972500Y-54270000D03*
X104972500Y-53770000D03*
X104972500Y-53270000D03*
D12*
X98390000Y-55270000D03*
X98390000Y-53270000D03*
X108440000Y-55270000D03*
X108440000Y-53270000D03*
D13*
X106239240Y-48730000D03*
X106239240Y-50630000D03*
X108238220Y-49680000D03*
X99389240Y-48630000D03*
X99389240Y-50530000D03*
X101388220Y-49580000D03*
D14*
X103140000Y-66570000D03*
X110640000Y-66570000D03*
X114870000Y-62450000D03*
X122370000Y-62450000D03*
X114870000Y-70330000D03*
X122370000Y-70330000D03*
X126040000Y-66570000D03*
X133540000Y-66570000D03*
D15*
X66140000Y-60950000D03*
X66140000Y-56450000D03*
D16*
X108240000Y-41880000D03*
X106240000Y-41880000D03*
X101390000Y-41860000D03*
X99390000Y-41860000D03*
X108190000Y-57670000D03*
X106190000Y-57670000D03*
X99340000Y-57670000D03*
X101340000Y-57670000D03*
X106290000Y-46520000D03*
X108290000Y-46520000D03*
X99380000Y-46520000D03*
X101380000Y-46520000D03*
M02*
