G04 #@! TF.GenerationSoftware,KiCad,Pcbnew,no-vcs-found-7516~57~ubuntu14.04.1*
G04 #@! TF.CreationDate,2017-01-25T19:34:04+01:00*
G04 #@! TF.ProjectId,Nano_PB,4E616E6F5F50422E6B696361645F7063,V.0.4*
G04 #@! TF.FileFunction,Legend,Top*
G04 #@! TF.FilePolarity,Positive*
%FSLAX46Y46*%
G04 Gerber Fmt 4.6, Leading zero omitted, Abs format (unit mm)*
G04 Created by KiCad (PCBNEW no-vcs-found-7516~57~ubuntu14.04.1) date Wed Jan 25 19:34:04 2017*
%MOMM*%
%LPD*%
G01*
G04 APERTURE LIST*
%ADD10C,0.100000*%
%ADD11C,0.250000*%
%ADD12C,0.150000*%
%ADD13C,0.200000*%
%ADD14C,0.152400*%
%ADD15C,0.010000*%
%ADD16C,0.120000*%
G04 APERTURE END LIST*
D10*
D11*
X65578973Y-39652857D02*
X65728973Y-38452857D01*
X66093258Y-39652857D02*
X66171830Y-39024285D01*
X66128973Y-38910000D01*
X66021830Y-38852857D01*
X65850401Y-38852857D01*
X65728973Y-38910000D01*
X65664687Y-38967142D01*
X66593258Y-38852857D02*
X67050401Y-38852857D01*
X66814687Y-38452857D02*
X66686116Y-39481428D01*
X66728973Y-39595714D01*
X66836116Y-39652857D01*
X66950401Y-39652857D01*
X67278973Y-38852857D02*
X67736116Y-38852857D01*
X67500401Y-38452857D02*
X67371830Y-39481428D01*
X67414687Y-39595714D01*
X67521830Y-39652857D01*
X67636116Y-39652857D01*
X68136116Y-38852857D02*
X67986116Y-40052857D01*
X68128973Y-38910000D02*
X68250401Y-38852857D01*
X68478973Y-38852857D01*
X68586116Y-38910000D01*
X68636116Y-38967142D01*
X68678973Y-39081428D01*
X68636116Y-39424285D01*
X68564687Y-39538571D01*
X68500401Y-39595714D01*
X68378973Y-39652857D01*
X68150401Y-39652857D01*
X68043258Y-39595714D01*
X69136116Y-39538571D02*
X69186116Y-39595714D01*
X69121830Y-39652857D01*
X69071830Y-39595714D01*
X69136116Y-39538571D01*
X69121830Y-39652857D01*
X69214687Y-38910000D02*
X69264687Y-38967142D01*
X69200401Y-39024285D01*
X69150401Y-38967142D01*
X69214687Y-38910000D01*
X69200401Y-39024285D01*
X70707544Y-38395714D02*
X69486116Y-39938571D01*
X71964687Y-38395714D02*
X70743258Y-39938571D01*
X72307544Y-38852857D02*
X72207544Y-39652857D01*
X72293258Y-38967142D02*
X72357544Y-38910000D01*
X72478973Y-38852857D01*
X72650401Y-38852857D01*
X72757544Y-38910000D01*
X72800401Y-39024285D01*
X72721830Y-39652857D01*
X73807544Y-39652857D02*
X73886116Y-39024285D01*
X73843258Y-38910000D01*
X73736116Y-38852857D01*
X73507544Y-38852857D01*
X73386116Y-38910000D01*
X73814687Y-39595714D02*
X73693258Y-39652857D01*
X73407544Y-39652857D01*
X73300401Y-39595714D01*
X73257544Y-39481428D01*
X73271830Y-39367142D01*
X73343258Y-39252857D01*
X73464687Y-39195714D01*
X73750401Y-39195714D01*
X73871830Y-39138571D01*
X74478973Y-38852857D02*
X74378973Y-39652857D01*
X74464687Y-38967142D02*
X74528973Y-38910000D01*
X74650401Y-38852857D01*
X74821830Y-38852857D01*
X74928973Y-38910000D01*
X74971830Y-39024285D01*
X74893258Y-39652857D01*
X75636116Y-39652857D02*
X75528973Y-39595714D01*
X75478973Y-39538571D01*
X75436116Y-39424285D01*
X75478973Y-39081428D01*
X75550401Y-38967142D01*
X75614687Y-38910000D01*
X75736116Y-38852857D01*
X75907544Y-38852857D01*
X76014687Y-38910000D01*
X76064687Y-38967142D01*
X76107544Y-39081428D01*
X76064687Y-39424285D01*
X75993258Y-39538571D01*
X75928973Y-39595714D01*
X75807544Y-39652857D01*
X75636116Y-39652857D01*
X76650401Y-38852857D02*
X76500401Y-40052857D01*
X76643258Y-38910000D02*
X76764687Y-38852857D01*
X76993258Y-38852857D01*
X77100401Y-38910000D01*
X77150401Y-38967142D01*
X77193258Y-39081428D01*
X77150401Y-39424285D01*
X77078973Y-39538571D01*
X77014687Y-39595714D01*
X76893258Y-39652857D01*
X76664687Y-39652857D01*
X76557544Y-39595714D01*
X77807544Y-39652857D02*
X77700401Y-39595714D01*
X77657544Y-39481428D01*
X77786116Y-38452857D01*
X78778973Y-39652857D02*
X78857544Y-39024285D01*
X78814687Y-38910000D01*
X78707544Y-38852857D01*
X78478973Y-38852857D01*
X78357544Y-38910000D01*
X78786116Y-39595714D02*
X78664687Y-39652857D01*
X78378973Y-39652857D01*
X78271830Y-39595714D01*
X78228973Y-39481428D01*
X78243258Y-39367142D01*
X78314687Y-39252857D01*
X78436116Y-39195714D01*
X78721830Y-39195714D01*
X78843258Y-39138571D01*
X79336116Y-38852857D02*
X79521830Y-39652857D01*
X79907544Y-38852857D02*
X79521830Y-39652857D01*
X79371830Y-39938571D01*
X79307544Y-39995714D01*
X79186116Y-40052857D01*
X80264687Y-39652857D02*
X80414687Y-38452857D01*
X80357544Y-38910000D02*
X80478973Y-38852857D01*
X80707544Y-38852857D01*
X80814687Y-38910000D01*
X80864687Y-38967142D01*
X80907544Y-39081428D01*
X80864687Y-39424285D01*
X80793258Y-39538571D01*
X80728973Y-39595714D01*
X80607544Y-39652857D01*
X80378973Y-39652857D01*
X80271830Y-39595714D01*
X81521830Y-39652857D02*
X81414687Y-39595714D01*
X81364687Y-39538571D01*
X81321830Y-39424285D01*
X81364687Y-39081428D01*
X81436116Y-38967142D01*
X81500401Y-38910000D01*
X81621830Y-38852857D01*
X81793258Y-38852857D01*
X81900401Y-38910000D01*
X81950401Y-38967142D01*
X81993258Y-39081428D01*
X81950401Y-39424285D01*
X81878973Y-39538571D01*
X81814687Y-39595714D01*
X81693258Y-39652857D01*
X81521830Y-39652857D01*
X82950401Y-39652857D02*
X83028973Y-39024285D01*
X82986116Y-38910000D01*
X82878973Y-38852857D01*
X82650401Y-38852857D01*
X82528973Y-38910000D01*
X82957544Y-39595714D02*
X82836116Y-39652857D01*
X82550401Y-39652857D01*
X82443258Y-39595714D01*
X82400401Y-39481428D01*
X82414687Y-39367142D01*
X82486116Y-39252857D01*
X82607544Y-39195714D01*
X82893258Y-39195714D01*
X83014687Y-39138571D01*
X83521830Y-39652857D02*
X83621830Y-38852857D01*
X83593258Y-39081428D02*
X83664687Y-38967142D01*
X83728973Y-38910000D01*
X83850401Y-38852857D01*
X83964687Y-38852857D01*
X84778973Y-39652857D02*
X84928973Y-38452857D01*
X84786116Y-39595714D02*
X84664687Y-39652857D01*
X84436116Y-39652857D01*
X84328973Y-39595714D01*
X84278973Y-39538571D01*
X84236116Y-39424285D01*
X84278973Y-39081428D01*
X84350401Y-38967142D01*
X84414687Y-38910000D01*
X84536116Y-38852857D01*
X84764687Y-38852857D01*
X84871830Y-38910000D01*
X85364687Y-39538571D02*
X85414687Y-39595714D01*
X85350401Y-39652857D01*
X85300401Y-39595714D01*
X85364687Y-39538571D01*
X85350401Y-39652857D01*
X86093258Y-39652857D02*
X85986116Y-39595714D01*
X85936116Y-39538571D01*
X85893258Y-39424285D01*
X85936116Y-39081428D01*
X86007544Y-38967142D01*
X86071830Y-38910000D01*
X86193258Y-38852857D01*
X86364687Y-38852857D01*
X86471830Y-38910000D01*
X86521830Y-38967142D01*
X86564687Y-39081428D01*
X86521830Y-39424285D01*
X86450401Y-39538571D01*
X86386116Y-39595714D01*
X86264687Y-39652857D01*
X86093258Y-39652857D01*
X87007544Y-39652857D02*
X87107544Y-38852857D01*
X87078973Y-39081428D02*
X87150401Y-38967142D01*
X87214687Y-38910000D01*
X87336116Y-38852857D01*
X87450401Y-38852857D01*
X88364687Y-38852857D02*
X88243258Y-39824285D01*
X88171830Y-39938571D01*
X88107544Y-39995714D01*
X87986116Y-40052857D01*
X87814687Y-40052857D01*
X87707544Y-39995714D01*
X88271830Y-39595714D02*
X88150401Y-39652857D01*
X87921830Y-39652857D01*
X87814687Y-39595714D01*
X87764687Y-39538571D01*
X87721830Y-39424285D01*
X87764687Y-39081428D01*
X87836116Y-38967142D01*
X87900401Y-38910000D01*
X88021830Y-38852857D01*
X88250401Y-38852857D01*
X88357544Y-38910000D01*
D12*
X143082380Y-53163333D02*
X142082380Y-53163333D01*
X142558571Y-53163333D02*
X142558571Y-52591904D01*
X143082380Y-52591904D02*
X142082380Y-52591904D01*
X142987142Y-51544285D02*
X143034761Y-51591904D01*
X143082380Y-51734761D01*
X143082380Y-51830000D01*
X143034761Y-51972857D01*
X142939523Y-52068095D01*
X142844285Y-52115714D01*
X142653809Y-52163333D01*
X142510952Y-52163333D01*
X142320476Y-52115714D01*
X142225238Y-52068095D01*
X142130000Y-51972857D01*
X142082380Y-51830000D01*
X142082380Y-51734761D01*
X142130000Y-51591904D01*
X142177619Y-51544285D01*
X142701428Y-51115714D02*
X142701428Y-50353809D01*
X143034761Y-49925238D02*
X143082380Y-49782380D01*
X143082380Y-49544285D01*
X143034761Y-49449047D01*
X142987142Y-49401428D01*
X142891904Y-49353809D01*
X142796666Y-49353809D01*
X142701428Y-49401428D01*
X142653809Y-49449047D01*
X142606190Y-49544285D01*
X142558571Y-49734761D01*
X142510952Y-49830000D01*
X142463333Y-49877619D01*
X142368095Y-49925238D01*
X142272857Y-49925238D01*
X142177619Y-49877619D01*
X142130000Y-49830000D01*
X142082380Y-49734761D01*
X142082380Y-49496666D01*
X142130000Y-49353809D01*
X143082380Y-48353809D02*
X142606190Y-48687142D01*
X143082380Y-48925238D02*
X142082380Y-48925238D01*
X142082380Y-48544285D01*
X142130000Y-48449047D01*
X142177619Y-48401428D01*
X142272857Y-48353809D01*
X142415714Y-48353809D01*
X142510952Y-48401428D01*
X142558571Y-48449047D01*
X142606190Y-48544285D01*
X142606190Y-48925238D01*
X142082380Y-47734761D02*
X142082380Y-47639523D01*
X142130000Y-47544285D01*
X142177619Y-47496666D01*
X142272857Y-47449047D01*
X142463333Y-47401428D01*
X142701428Y-47401428D01*
X142891904Y-47449047D01*
X142987142Y-47496666D01*
X143034761Y-47544285D01*
X143082380Y-47639523D01*
X143082380Y-47734761D01*
X143034761Y-47830000D01*
X142987142Y-47877619D01*
X142891904Y-47925238D01*
X142701428Y-47972857D01*
X142463333Y-47972857D01*
X142272857Y-47925238D01*
X142177619Y-47877619D01*
X142130000Y-47830000D01*
X142082380Y-47734761D01*
X142415714Y-46544285D02*
X143082380Y-46544285D01*
X142034761Y-46782380D02*
X142749047Y-47020476D01*
X142749047Y-46401428D01*
X87120000Y-73261904D02*
X87072380Y-73357142D01*
X87072380Y-73500000D01*
X87120000Y-73642857D01*
X87215238Y-73738095D01*
X87310476Y-73785714D01*
X87500952Y-73833333D01*
X87643809Y-73833333D01*
X87834285Y-73785714D01*
X87929523Y-73738095D01*
X88024761Y-73642857D01*
X88072380Y-73500000D01*
X88072380Y-73404761D01*
X88024761Y-73261904D01*
X87977142Y-73214285D01*
X87643809Y-73214285D01*
X87643809Y-73404761D01*
X88072380Y-72785714D02*
X87072380Y-72785714D01*
X88072380Y-72214285D01*
X87072380Y-72214285D01*
X88072380Y-71738095D02*
X87072380Y-71738095D01*
X87072380Y-71500000D01*
X87120000Y-71357142D01*
X87215238Y-71261904D01*
X87310476Y-71214285D01*
X87500952Y-71166666D01*
X87643809Y-71166666D01*
X87834285Y-71214285D01*
X87929523Y-71261904D01*
X88024761Y-71357142D01*
X88072380Y-71500000D01*
X88072380Y-71738095D01*
X96304166Y-73214285D02*
X96304166Y-72738095D01*
X96589880Y-73309523D02*
X95589880Y-72976190D01*
X96589880Y-72642857D01*
X95589880Y-72119047D02*
X95589880Y-72023809D01*
X95637500Y-71928571D01*
X95685119Y-71880952D01*
X95780357Y-71833333D01*
X95970833Y-71785714D01*
X96208928Y-71785714D01*
X96399404Y-71833333D01*
X96494642Y-71880952D01*
X96542261Y-71928571D01*
X96589880Y-72023809D01*
X96589880Y-72119047D01*
X96542261Y-72214285D01*
X96494642Y-72261904D01*
X96399404Y-72309523D01*
X96208928Y-72357142D01*
X95970833Y-72357142D01*
X95780357Y-72309523D01*
X95685119Y-72261904D01*
X95637500Y-72214285D01*
X95589880Y-72119047D01*
X104821666Y-73214285D02*
X104821666Y-72738095D01*
X105107380Y-73309523D02*
X104107380Y-72976190D01*
X105107380Y-72642857D01*
X105107380Y-71785714D02*
X105107380Y-72357142D01*
X105107380Y-72071428D02*
X104107380Y-72071428D01*
X104250238Y-72166666D01*
X104345476Y-72261904D01*
X104393095Y-72357142D01*
X113339166Y-73214285D02*
X113339166Y-72738095D01*
X113624880Y-73309523D02*
X112624880Y-72976190D01*
X113624880Y-72642857D01*
X112720119Y-72357142D02*
X112672500Y-72309523D01*
X112624880Y-72214285D01*
X112624880Y-71976190D01*
X112672500Y-71880952D01*
X112720119Y-71833333D01*
X112815357Y-71785714D01*
X112910595Y-71785714D01*
X113053452Y-71833333D01*
X113624880Y-72404761D01*
X113624880Y-71785714D01*
X121856666Y-73214285D02*
X121856666Y-72738095D01*
X122142380Y-73309523D02*
X121142380Y-72976190D01*
X122142380Y-72642857D01*
X121142380Y-72404761D02*
X121142380Y-71785714D01*
X121523333Y-72119047D01*
X121523333Y-71976190D01*
X121570952Y-71880952D01*
X121618571Y-71833333D01*
X121713809Y-71785714D01*
X121951904Y-71785714D01*
X122047142Y-71833333D01*
X122094761Y-71880952D01*
X122142380Y-71976190D01*
X122142380Y-72261904D01*
X122094761Y-72357142D01*
X122047142Y-72404761D01*
X130160952Y-57812380D02*
X130160952Y-56812380D01*
X130399047Y-56812380D01*
X130541904Y-56860000D01*
X130637142Y-56955238D01*
X130684761Y-57050476D01*
X130732380Y-57240952D01*
X130732380Y-57383809D01*
X130684761Y-57574285D01*
X130637142Y-57669523D01*
X130541904Y-57764761D01*
X130399047Y-57812380D01*
X130160952Y-57812380D01*
X131018095Y-56812380D02*
X131589523Y-56812380D01*
X131303809Y-57812380D02*
X131303809Y-56812380D01*
X131922857Y-57812380D02*
X131922857Y-56812380D01*
X131922857Y-57288571D02*
X132494285Y-57288571D01*
X132494285Y-57812380D02*
X132494285Y-56812380D01*
X133494285Y-57812380D02*
X132922857Y-57812380D01*
X133208571Y-57812380D02*
X133208571Y-56812380D01*
X133113333Y-56955238D01*
X133018095Y-57050476D01*
X132922857Y-57098095D01*
X134446666Y-57812380D02*
X133875238Y-57812380D01*
X134160952Y-57812380D02*
X134160952Y-56812380D01*
X134065714Y-56955238D01*
X133970476Y-57050476D01*
X133875238Y-57098095D01*
X130789523Y-40674761D02*
X130932380Y-40722380D01*
X131170476Y-40722380D01*
X131265714Y-40674761D01*
X131313333Y-40627142D01*
X131360952Y-40531904D01*
X131360952Y-40436666D01*
X131313333Y-40341428D01*
X131265714Y-40293809D01*
X131170476Y-40246190D01*
X130980000Y-40198571D01*
X130884761Y-40150952D01*
X130837142Y-40103333D01*
X130789523Y-40008095D01*
X130789523Y-39912857D01*
X130837142Y-39817619D01*
X130884761Y-39770000D01*
X130980000Y-39722380D01*
X131218095Y-39722380D01*
X131360952Y-39770000D01*
X131789523Y-40198571D02*
X132122857Y-40198571D01*
X132265714Y-40722380D02*
X131789523Y-40722380D01*
X131789523Y-39722380D01*
X132265714Y-39722380D01*
X133265714Y-40722380D02*
X132932380Y-40246190D01*
X132694285Y-40722380D02*
X132694285Y-39722380D01*
X133075238Y-39722380D01*
X133170476Y-39770000D01*
X133218095Y-39817619D01*
X133265714Y-39912857D01*
X133265714Y-40055714D01*
X133218095Y-40150952D01*
X133170476Y-40198571D01*
X133075238Y-40246190D01*
X132694285Y-40246190D01*
X133551428Y-39722380D02*
X133884761Y-40722380D01*
X134218095Y-39722380D01*
X134741904Y-39722380D02*
X134932380Y-39722380D01*
X135027619Y-39770000D01*
X135122857Y-39865238D01*
X135170476Y-40055714D01*
X135170476Y-40389047D01*
X135122857Y-40579523D01*
X135027619Y-40674761D01*
X134932380Y-40722380D01*
X134741904Y-40722380D01*
X134646666Y-40674761D01*
X134551428Y-40579523D01*
X134503809Y-40389047D01*
X134503809Y-40055714D01*
X134551428Y-39865238D01*
X134646666Y-39770000D01*
X134741904Y-39722380D01*
X99866666Y-40562380D02*
X99866666Y-39562380D01*
X99866666Y-40038571D02*
X100438095Y-40038571D01*
X100438095Y-40562380D02*
X100438095Y-39562380D01*
X101485714Y-40467142D02*
X101438095Y-40514761D01*
X101295238Y-40562380D01*
X101200000Y-40562380D01*
X101057142Y-40514761D01*
X100961904Y-40419523D01*
X100914285Y-40324285D01*
X100866666Y-40133809D01*
X100866666Y-39990952D01*
X100914285Y-39800476D01*
X100961904Y-39705238D01*
X101057142Y-39610000D01*
X101200000Y-39562380D01*
X101295238Y-39562380D01*
X101438095Y-39610000D01*
X101485714Y-39657619D01*
X101914285Y-40181428D02*
X102676190Y-40181428D01*
X103342857Y-39562380D02*
X103438095Y-39562380D01*
X103533333Y-39610000D01*
X103580952Y-39657619D01*
X103628571Y-39752857D01*
X103676190Y-39943333D01*
X103676190Y-40181428D01*
X103628571Y-40371904D01*
X103580952Y-40467142D01*
X103533333Y-40514761D01*
X103438095Y-40562380D01*
X103342857Y-40562380D01*
X103247619Y-40514761D01*
X103200000Y-40467142D01*
X103152380Y-40371904D01*
X103104761Y-40181428D01*
X103104761Y-39943333D01*
X103152380Y-39752857D01*
X103200000Y-39657619D01*
X103247619Y-39610000D01*
X103342857Y-39562380D01*
X104580952Y-39562380D02*
X104104761Y-39562380D01*
X104057142Y-40038571D01*
X104104761Y-39990952D01*
X104200000Y-39943333D01*
X104438095Y-39943333D01*
X104533333Y-39990952D01*
X104580952Y-40038571D01*
X104628571Y-40133809D01*
X104628571Y-40371904D01*
X104580952Y-40467142D01*
X104533333Y-40514761D01*
X104438095Y-40562380D01*
X104200000Y-40562380D01*
X104104761Y-40514761D01*
X104057142Y-40467142D01*
X105771428Y-39514761D02*
X104914285Y-40800476D01*
X106295238Y-39562380D02*
X106390476Y-39562380D01*
X106485714Y-39610000D01*
X106533333Y-39657619D01*
X106580952Y-39752857D01*
X106628571Y-39943333D01*
X106628571Y-40181428D01*
X106580952Y-40371904D01*
X106533333Y-40467142D01*
X106485714Y-40514761D01*
X106390476Y-40562380D01*
X106295238Y-40562380D01*
X106200000Y-40514761D01*
X106152380Y-40467142D01*
X106104761Y-40371904D01*
X106057142Y-40181428D01*
X106057142Y-39943333D01*
X106104761Y-39752857D01*
X106152380Y-39657619D01*
X106200000Y-39610000D01*
X106295238Y-39562380D01*
X107485714Y-39562380D02*
X107295238Y-39562380D01*
X107200000Y-39610000D01*
X107152380Y-39657619D01*
X107057142Y-39800476D01*
X107009523Y-39990952D01*
X107009523Y-40371904D01*
X107057142Y-40467142D01*
X107104761Y-40514761D01*
X107200000Y-40562380D01*
X107390476Y-40562380D01*
X107485714Y-40514761D01*
X107533333Y-40467142D01*
X107580952Y-40371904D01*
X107580952Y-40133809D01*
X107533333Y-40038571D01*
X107485714Y-39990952D01*
X107390476Y-39943333D01*
X107200000Y-39943333D01*
X107104761Y-39990952D01*
X107057142Y-40038571D01*
X107009523Y-40133809D01*
X100714761Y-26548571D02*
X101048095Y-26548571D01*
X101190952Y-27072380D02*
X100714761Y-27072380D01*
X100714761Y-26072380D01*
X101190952Y-26072380D01*
X101571904Y-27024761D02*
X101714761Y-27072380D01*
X101952857Y-27072380D01*
X102048095Y-27024761D01*
X102095714Y-26977142D01*
X102143333Y-26881904D01*
X102143333Y-26786666D01*
X102095714Y-26691428D01*
X102048095Y-26643809D01*
X101952857Y-26596190D01*
X101762380Y-26548571D01*
X101667142Y-26500952D01*
X101619523Y-26453333D01*
X101571904Y-26358095D01*
X101571904Y-26262857D01*
X101619523Y-26167619D01*
X101667142Y-26120000D01*
X101762380Y-26072380D01*
X102000476Y-26072380D01*
X102143333Y-26120000D01*
X102571904Y-27072380D02*
X102571904Y-26072380D01*
X102952857Y-26072380D01*
X103048095Y-26120000D01*
X103095714Y-26167619D01*
X103143333Y-26262857D01*
X103143333Y-26405714D01*
X103095714Y-26500952D01*
X103048095Y-26548571D01*
X102952857Y-26596190D01*
X102571904Y-26596190D01*
X103714761Y-26500952D02*
X103619523Y-26453333D01*
X103571904Y-26405714D01*
X103524285Y-26310476D01*
X103524285Y-26262857D01*
X103571904Y-26167619D01*
X103619523Y-26120000D01*
X103714761Y-26072380D01*
X103905238Y-26072380D01*
X104000476Y-26120000D01*
X104048095Y-26167619D01*
X104095714Y-26262857D01*
X104095714Y-26310476D01*
X104048095Y-26405714D01*
X104000476Y-26453333D01*
X103905238Y-26500952D01*
X103714761Y-26500952D01*
X103619523Y-26548571D01*
X103571904Y-26596190D01*
X103524285Y-26691428D01*
X103524285Y-26881904D01*
X103571904Y-26977142D01*
X103619523Y-27024761D01*
X103714761Y-27072380D01*
X103905238Y-27072380D01*
X104000476Y-27024761D01*
X104048095Y-26977142D01*
X104095714Y-26881904D01*
X104095714Y-26691428D01*
X104048095Y-26596190D01*
X104000476Y-26548571D01*
X103905238Y-26500952D01*
X104476666Y-26167619D02*
X104524285Y-26120000D01*
X104619523Y-26072380D01*
X104857619Y-26072380D01*
X104952857Y-26120000D01*
X105000476Y-26167619D01*
X105048095Y-26262857D01*
X105048095Y-26358095D01*
X105000476Y-26500952D01*
X104429047Y-27072380D01*
X105048095Y-27072380D01*
X105905238Y-26072380D02*
X105714761Y-26072380D01*
X105619523Y-26120000D01*
X105571904Y-26167619D01*
X105476666Y-26310476D01*
X105429047Y-26500952D01*
X105429047Y-26881904D01*
X105476666Y-26977142D01*
X105524285Y-27024761D01*
X105619523Y-27072380D01*
X105810000Y-27072380D01*
X105905238Y-27024761D01*
X105952857Y-26977142D01*
X106000476Y-26881904D01*
X106000476Y-26643809D01*
X105952857Y-26548571D01*
X105905238Y-26500952D01*
X105810000Y-26453333D01*
X105619523Y-26453333D01*
X105524285Y-26500952D01*
X105476666Y-26548571D01*
X105429047Y-26643809D01*
X106857619Y-26072380D02*
X106667142Y-26072380D01*
X106571904Y-26120000D01*
X106524285Y-26167619D01*
X106429047Y-26310476D01*
X106381428Y-26500952D01*
X106381428Y-26881904D01*
X106429047Y-26977142D01*
X106476666Y-27024761D01*
X106571904Y-27072380D01*
X106762380Y-27072380D01*
X106857619Y-27024761D01*
X106905238Y-26977142D01*
X106952857Y-26881904D01*
X106952857Y-26643809D01*
X106905238Y-26548571D01*
X106857619Y-26500952D01*
X106762380Y-26453333D01*
X106571904Y-26453333D01*
X106476666Y-26500952D01*
X106429047Y-26548571D01*
X106381428Y-26643809D01*
X146317380Y-65414521D02*
X145841190Y-65747855D01*
X146317380Y-65985950D02*
X145317380Y-65985950D01*
X145317380Y-65604998D01*
X145365000Y-65509759D01*
X145412619Y-65462140D01*
X145507857Y-65414521D01*
X145650714Y-65414521D01*
X145745952Y-65462140D01*
X145793571Y-65509759D01*
X145841190Y-65604998D01*
X145841190Y-65985950D01*
X145936428Y-64985950D02*
X145936428Y-64224045D01*
X145793571Y-60654999D02*
X145793571Y-60321666D01*
X146317380Y-60178808D02*
X146317380Y-60654999D01*
X145317380Y-60654999D01*
X145317380Y-60178808D01*
X145936428Y-59750237D02*
X145936428Y-58988332D01*
X146317380Y-62772855D02*
X145841190Y-63106189D01*
X146317380Y-63344284D02*
X145317380Y-63344284D01*
X145317380Y-62963332D01*
X145365000Y-62868093D01*
X145412619Y-62820474D01*
X145507857Y-62772855D01*
X145650714Y-62772855D01*
X145745952Y-62820474D01*
X145793571Y-62868093D01*
X145841190Y-62963332D01*
X145841190Y-63344284D01*
X145936428Y-62344284D02*
X145936428Y-61582379D01*
X146317380Y-61963332D02*
X145555476Y-61963332D01*
X145793571Y-58203333D02*
X145793571Y-57870000D01*
X146317380Y-57727142D02*
X146317380Y-58203333D01*
X145317380Y-58203333D01*
X145317380Y-57727142D01*
X145936428Y-57298571D02*
X145936428Y-56536666D01*
X146317380Y-56917619D02*
X145555476Y-56917619D01*
X146377380Y-41854521D02*
X145901190Y-42187855D01*
X146377380Y-42425950D02*
X145377380Y-42425950D01*
X145377380Y-42044998D01*
X145425000Y-41949759D01*
X145472619Y-41902140D01*
X145567857Y-41854521D01*
X145710714Y-41854521D01*
X145805952Y-41902140D01*
X145853571Y-41949759D01*
X145901190Y-42044998D01*
X145901190Y-42425950D01*
X145996428Y-41425950D02*
X145996428Y-40664045D01*
X146377380Y-39212855D02*
X145901190Y-39546189D01*
X146377380Y-39784284D02*
X145377380Y-39784284D01*
X145377380Y-39403332D01*
X145425000Y-39308093D01*
X145472619Y-39260474D01*
X145567857Y-39212855D01*
X145710714Y-39212855D01*
X145805952Y-39260474D01*
X145853571Y-39308093D01*
X145901190Y-39403332D01*
X145901190Y-39784284D01*
X145996428Y-38784284D02*
X145996428Y-38022379D01*
X146377380Y-38403332D02*
X145615476Y-38403332D01*
X145853571Y-37094999D02*
X145853571Y-36761666D01*
X146377380Y-36618808D02*
X146377380Y-37094999D01*
X145377380Y-37094999D01*
X145377380Y-36618808D01*
X145996428Y-36190237D02*
X145996428Y-35428332D01*
X126392856Y-52500000D02*
X126297618Y-52452380D01*
X126154761Y-52452380D01*
X126011904Y-52500000D01*
X125916666Y-52595238D01*
X125869047Y-52690476D01*
X125821428Y-52880952D01*
X125821428Y-53023809D01*
X125869047Y-53214285D01*
X125916666Y-53309523D01*
X126011904Y-53404761D01*
X126154761Y-53452380D01*
X126249999Y-53452380D01*
X126392856Y-53404761D01*
X126440475Y-53357142D01*
X126440475Y-53023809D01*
X126249999Y-53023809D01*
X126869047Y-52785714D02*
X126869047Y-53452380D01*
X126869047Y-52880952D02*
X126916666Y-52833333D01*
X127011904Y-52785714D01*
X127154761Y-52785714D01*
X127249999Y-52833333D01*
X127297618Y-52928571D01*
X127297618Y-53452380D01*
X128202380Y-53452380D02*
X128202380Y-52452380D01*
X128202380Y-53404761D02*
X128107142Y-53452380D01*
X127916666Y-53452380D01*
X127821428Y-53404761D01*
X127773809Y-53357142D01*
X127726190Y-53261904D01*
X127726190Y-52976190D01*
X127773809Y-52880952D01*
X127821428Y-52833333D01*
X127916666Y-52785714D01*
X128107142Y-52785714D01*
X128202380Y-52833333D01*
X136482618Y-50820712D02*
X136482618Y-49820712D01*
X137054047Y-50820712D01*
X137054047Y-49820712D01*
X138101666Y-50725474D02*
X138054047Y-50773093D01*
X137911190Y-50820712D01*
X137815952Y-50820712D01*
X137673094Y-50773093D01*
X137577856Y-50677855D01*
X137530237Y-50582617D01*
X137482618Y-50392141D01*
X137482618Y-50249284D01*
X137530237Y-50058808D01*
X137577856Y-49963570D01*
X137673094Y-49868332D01*
X137815952Y-49820712D01*
X137911190Y-49820712D01*
X138054047Y-49868332D01*
X138101666Y-49915951D01*
X136339761Y-44607380D02*
X136673095Y-45607380D01*
X137006428Y-44607380D01*
X137768333Y-45559761D02*
X137673095Y-45607380D01*
X137482618Y-45607380D01*
X137387380Y-45559761D01*
X137339761Y-45512142D01*
X137292142Y-45416904D01*
X137292142Y-45131190D01*
X137339761Y-45035952D01*
X137387380Y-44988333D01*
X137482618Y-44940714D01*
X137673095Y-44940714D01*
X137768333Y-44988333D01*
X138625476Y-45559761D02*
X138530238Y-45607380D01*
X138339761Y-45607380D01*
X138244523Y-45559761D01*
X138196904Y-45512142D01*
X138149285Y-45416904D01*
X138149285Y-45131190D01*
X138196904Y-45035952D01*
X138244523Y-44988333D01*
X138339761Y-44940714D01*
X138530238Y-44940714D01*
X138625476Y-44988333D01*
X136482619Y-48214046D02*
X136482619Y-47214046D01*
X136720714Y-47214046D01*
X136863571Y-47261666D01*
X136958809Y-47356904D01*
X137006428Y-47452142D01*
X137054047Y-47642618D01*
X137054047Y-47785475D01*
X137006428Y-47975951D01*
X136958809Y-48071189D01*
X136863571Y-48166427D01*
X136720714Y-48214046D01*
X136482619Y-48214046D01*
X137911190Y-48214046D02*
X137911190Y-47690237D01*
X137863571Y-47594999D01*
X137768333Y-47547380D01*
X137577857Y-47547380D01*
X137482619Y-47594999D01*
X137911190Y-48166427D02*
X137815952Y-48214046D01*
X137577857Y-48214046D01*
X137482619Y-48166427D01*
X137435000Y-48071189D01*
X137435000Y-47975951D01*
X137482619Y-47880713D01*
X137577857Y-47833094D01*
X137815952Y-47833094D01*
X137911190Y-47785475D01*
X138244523Y-47547380D02*
X138625476Y-47547380D01*
X138387380Y-47214046D02*
X138387380Y-48071189D01*
X138435000Y-48166427D01*
X138530238Y-48214046D01*
X138625476Y-48214046D01*
X139387380Y-48214046D02*
X139387380Y-47690237D01*
X139339761Y-47594999D01*
X139244523Y-47547380D01*
X139054047Y-47547380D01*
X138958809Y-47594999D01*
X139387380Y-48166427D02*
X139292142Y-48214046D01*
X139054047Y-48214046D01*
X138958809Y-48166427D01*
X138911190Y-48071189D01*
X138911190Y-47975951D01*
X138958809Y-47880713D01*
X139054047Y-47833094D01*
X139292142Y-47833094D01*
X139387380Y-47785475D01*
X100675000Y-49150952D02*
X100675000Y-49531904D01*
X100408333Y-48731904D02*
X100675000Y-49150952D01*
X100941666Y-48731904D01*
X103068333Y-46001904D02*
X103601666Y-46801904D01*
X103601666Y-46001904D02*
X103068333Y-46801904D01*
X103345000Y-49235000D02*
X104965000Y-49235000D01*
X101425000Y-49230000D02*
X101825000Y-49630000D01*
X101425000Y-49230000D02*
X101825000Y-48830000D01*
X103345000Y-49230000D02*
X101425000Y-49230000D01*
X103345000Y-47310000D02*
X103745000Y-47710000D01*
X102945000Y-47710000D02*
X103345000Y-47310000D01*
X103345000Y-47310000D02*
X103345000Y-51310000D01*
X144392380Y-48478571D02*
X144725714Y-48478571D01*
X144868571Y-49002380D02*
X144392380Y-49002380D01*
X144392380Y-48002380D01*
X144868571Y-48002380D01*
X145725714Y-48954761D02*
X145630476Y-49002380D01*
X145440000Y-49002380D01*
X145344761Y-48954761D01*
X145297142Y-48907142D01*
X145249523Y-48811904D01*
X145249523Y-48526190D01*
X145297142Y-48430952D01*
X145344761Y-48383333D01*
X145440000Y-48335714D01*
X145630476Y-48335714D01*
X145725714Y-48383333D01*
X146154285Y-49002380D02*
X146154285Y-48002380D01*
X146582857Y-49002380D02*
X146582857Y-48478571D01*
X146535238Y-48383333D01*
X146440000Y-48335714D01*
X146297142Y-48335714D01*
X146201904Y-48383333D01*
X146154285Y-48430952D01*
X147201904Y-49002380D02*
X147106666Y-48954761D01*
X147059047Y-48907142D01*
X147011428Y-48811904D01*
X147011428Y-48526190D01*
X147059047Y-48430952D01*
X147106666Y-48383333D01*
X147201904Y-48335714D01*
X147344761Y-48335714D01*
X147440000Y-48383333D01*
X147487619Y-48430952D01*
X147535238Y-48526190D01*
X147535238Y-48811904D01*
X147487619Y-48907142D01*
X147440000Y-48954761D01*
X147344761Y-49002380D01*
X147201904Y-49002380D01*
X144344285Y-50562380D02*
X144915714Y-50562380D01*
X144630000Y-51562380D02*
X144630000Y-50562380D01*
X145249047Y-51562380D02*
X145249047Y-50895714D01*
X145249047Y-51086190D02*
X145296666Y-50990952D01*
X145344285Y-50943333D01*
X145439523Y-50895714D01*
X145534761Y-50895714D01*
X145868095Y-51562380D02*
X145868095Y-50895714D01*
X145868095Y-50562380D02*
X145820476Y-50610000D01*
X145868095Y-50657619D01*
X145915714Y-50610000D01*
X145868095Y-50562380D01*
X145868095Y-50657619D01*
X146772857Y-50895714D02*
X146772857Y-51705238D01*
X146725238Y-51800476D01*
X146677619Y-51848095D01*
X146582380Y-51895714D01*
X146439523Y-51895714D01*
X146344285Y-51848095D01*
X146772857Y-51514761D02*
X146677619Y-51562380D01*
X146487142Y-51562380D01*
X146391904Y-51514761D01*
X146344285Y-51467142D01*
X146296666Y-51371904D01*
X146296666Y-51086190D01*
X146344285Y-50990952D01*
X146391904Y-50943333D01*
X146487142Y-50895714D01*
X146677619Y-50895714D01*
X146772857Y-50943333D01*
X144349523Y-53072380D02*
X144682857Y-54072380D01*
X145016190Y-53072380D01*
X145778095Y-54024761D02*
X145682857Y-54072380D01*
X145492380Y-54072380D01*
X145397142Y-54024761D01*
X145349523Y-53977142D01*
X145301904Y-53881904D01*
X145301904Y-53596190D01*
X145349523Y-53500952D01*
X145397142Y-53453333D01*
X145492380Y-53405714D01*
X145682857Y-53405714D01*
X145778095Y-53453333D01*
X146635238Y-54024761D02*
X146540000Y-54072380D01*
X146349523Y-54072380D01*
X146254285Y-54024761D01*
X146206666Y-53977142D01*
X146159047Y-53881904D01*
X146159047Y-53596190D01*
X146206666Y-53500952D01*
X146254285Y-53453333D01*
X146349523Y-53405714D01*
X146540000Y-53405714D01*
X146635238Y-53453333D01*
X145037142Y-45450000D02*
X144941904Y-45402380D01*
X144799047Y-45402380D01*
X144656190Y-45450000D01*
X144560952Y-45545238D01*
X144513333Y-45640476D01*
X144465714Y-45830952D01*
X144465714Y-45973809D01*
X144513333Y-46164285D01*
X144560952Y-46259523D01*
X144656190Y-46354761D01*
X144799047Y-46402380D01*
X144894285Y-46402380D01*
X145037142Y-46354761D01*
X145084761Y-46307142D01*
X145084761Y-45973809D01*
X144894285Y-45973809D01*
X145513333Y-45735714D02*
X145513333Y-46402380D01*
X145513333Y-45830952D02*
X145560952Y-45783333D01*
X145656190Y-45735714D01*
X145799047Y-45735714D01*
X145894285Y-45783333D01*
X145941904Y-45878571D01*
X145941904Y-46402380D01*
X146846666Y-46402380D02*
X146846666Y-45402380D01*
X146846666Y-46354761D02*
X146751428Y-46402380D01*
X146560952Y-46402380D01*
X146465714Y-46354761D01*
X146418095Y-46307142D01*
X146370476Y-46211904D01*
X146370476Y-45926190D01*
X146418095Y-45830952D01*
X146465714Y-45783333D01*
X146560952Y-45735714D01*
X146751428Y-45735714D01*
X146846666Y-45783333D01*
X145853571Y-34453333D02*
X145853571Y-34120000D01*
X146377380Y-33977142D02*
X146377380Y-34453333D01*
X145377380Y-34453333D01*
X145377380Y-33977142D01*
X145996428Y-33548571D02*
X145996428Y-32786666D01*
X146377380Y-33167619D02*
X145615476Y-33167619D01*
X137006428Y-52474998D02*
X136911190Y-52427378D01*
X136768333Y-52427378D01*
X136625476Y-52474998D01*
X136530238Y-52570236D01*
X136482619Y-52665474D01*
X136435000Y-52855950D01*
X136435000Y-52998807D01*
X136482619Y-53189283D01*
X136530238Y-53284521D01*
X136625476Y-53379759D01*
X136768333Y-53427378D01*
X136863571Y-53427378D01*
X137006428Y-53379759D01*
X137054047Y-53332140D01*
X137054047Y-52998807D01*
X136863571Y-52998807D01*
X137482619Y-52760712D02*
X137482619Y-53427378D01*
X137482619Y-52855950D02*
X137530238Y-52808331D01*
X137625476Y-52760712D01*
X137768333Y-52760712D01*
X137863571Y-52808331D01*
X137911190Y-52903569D01*
X137911190Y-53427378D01*
X138815952Y-53427378D02*
X138815952Y-52427378D01*
X138815952Y-53379759D02*
X138720714Y-53427378D01*
X138530238Y-53427378D01*
X138435000Y-53379759D01*
X138387381Y-53332140D01*
X138339762Y-53236902D01*
X138339762Y-52951188D01*
X138387381Y-52855950D01*
X138435000Y-52808331D01*
X138530238Y-52760712D01*
X138720714Y-52760712D01*
X138815952Y-52808331D01*
X125297619Y-48027380D02*
X125297619Y-47027380D01*
X125535714Y-47027380D01*
X125678571Y-47075000D01*
X125773809Y-47170238D01*
X125821428Y-47265476D01*
X125869047Y-47455952D01*
X125869047Y-47598809D01*
X125821428Y-47789285D01*
X125773809Y-47884523D01*
X125678571Y-47979761D01*
X125535714Y-48027380D01*
X125297619Y-48027380D01*
X126726190Y-48027380D02*
X126726190Y-47503571D01*
X126678571Y-47408333D01*
X126583333Y-47360714D01*
X126392857Y-47360714D01*
X126297619Y-47408333D01*
X126726190Y-47979761D02*
X126630952Y-48027380D01*
X126392857Y-48027380D01*
X126297619Y-47979761D01*
X126250000Y-47884523D01*
X126250000Y-47789285D01*
X126297619Y-47694047D01*
X126392857Y-47646428D01*
X126630952Y-47646428D01*
X126726190Y-47598809D01*
X127059523Y-47360714D02*
X127440476Y-47360714D01*
X127202380Y-47027380D02*
X127202380Y-47884523D01*
X127250000Y-47979761D01*
X127345238Y-48027380D01*
X127440476Y-48027380D01*
X128202380Y-48027380D02*
X128202380Y-47503571D01*
X128154761Y-47408333D01*
X128059523Y-47360714D01*
X127869047Y-47360714D01*
X127773809Y-47408333D01*
X128202380Y-47979761D02*
X128107142Y-48027380D01*
X127869047Y-48027380D01*
X127773809Y-47979761D01*
X127726190Y-47884523D01*
X127726190Y-47789285D01*
X127773809Y-47694047D01*
X127869047Y-47646428D01*
X128107142Y-47646428D01*
X128202380Y-47598809D01*
X125964284Y-49739880D02*
X126297618Y-50739880D01*
X126630951Y-49739880D01*
X127392856Y-50692261D02*
X127297618Y-50739880D01*
X127107141Y-50739880D01*
X127011903Y-50692261D01*
X126964284Y-50644642D01*
X126916665Y-50549404D01*
X126916665Y-50263690D01*
X126964284Y-50168452D01*
X127011903Y-50120833D01*
X127107141Y-50073214D01*
X127297618Y-50073214D01*
X127392856Y-50120833D01*
X128249999Y-50692261D02*
X128154761Y-50739880D01*
X127964284Y-50739880D01*
X127869046Y-50692261D01*
X127821427Y-50644642D01*
X127773808Y-50549404D01*
X127773808Y-50263690D01*
X127821427Y-50168452D01*
X127869046Y-50120833D01*
X127964284Y-50073214D01*
X128154761Y-50073214D01*
X128249999Y-50120833D01*
D13*
X60991666Y-32779761D02*
X60991666Y-30779761D01*
X62134523Y-32779761D01*
X62134523Y-30779761D01*
X63944047Y-32779761D02*
X63944047Y-31732142D01*
X63848809Y-31541666D01*
X63658333Y-31446428D01*
X63277380Y-31446428D01*
X63086904Y-31541666D01*
X63944047Y-32684523D02*
X63753571Y-32779761D01*
X63277380Y-32779761D01*
X63086904Y-32684523D01*
X62991666Y-32494047D01*
X62991666Y-32303571D01*
X63086904Y-32113095D01*
X63277380Y-32017857D01*
X63753571Y-32017857D01*
X63944047Y-31922619D01*
X64896428Y-31446428D02*
X64896428Y-32779761D01*
X64896428Y-31636904D02*
X64991666Y-31541666D01*
X65182142Y-31446428D01*
X65467857Y-31446428D01*
X65658333Y-31541666D01*
X65753571Y-31732142D01*
X65753571Y-32779761D01*
X66991666Y-32779761D02*
X66801190Y-32684523D01*
X66705952Y-32589285D01*
X66610714Y-32398809D01*
X66610714Y-31827380D01*
X66705952Y-31636904D01*
X66801190Y-31541666D01*
X66991666Y-31446428D01*
X67277380Y-31446428D01*
X67467857Y-31541666D01*
X67563095Y-31636904D01*
X67658333Y-31827380D01*
X67658333Y-32398809D01*
X67563095Y-32589285D01*
X67467857Y-32684523D01*
X67277380Y-32779761D01*
X66991666Y-32779761D01*
X70039285Y-32779761D02*
X70039285Y-30779761D01*
X70801190Y-30779761D01*
X70991666Y-30875000D01*
X71086904Y-30970238D01*
X71182142Y-31160714D01*
X71182142Y-31446428D01*
X71086904Y-31636904D01*
X70991666Y-31732142D01*
X70801190Y-31827380D01*
X70039285Y-31827380D01*
X72325000Y-32779761D02*
X72134523Y-32684523D01*
X72039285Y-32494047D01*
X72039285Y-30779761D01*
X73944047Y-32779761D02*
X73944047Y-31732142D01*
X73848809Y-31541666D01*
X73658333Y-31446428D01*
X73277380Y-31446428D01*
X73086904Y-31541666D01*
X73944047Y-32684523D02*
X73753571Y-32779761D01*
X73277380Y-32779761D01*
X73086904Y-32684523D01*
X72991666Y-32494047D01*
X72991666Y-32303571D01*
X73086904Y-32113095D01*
X73277380Y-32017857D01*
X73753571Y-32017857D01*
X73944047Y-31922619D01*
X74705952Y-31446428D02*
X75182142Y-32779761D01*
X75658333Y-31446428D02*
X75182142Y-32779761D01*
X74991666Y-33255952D01*
X74896428Y-33351190D01*
X74705952Y-33446428D01*
X78610714Y-31732142D02*
X78896428Y-31827380D01*
X78991666Y-31922619D01*
X79086904Y-32113095D01*
X79086904Y-32398809D01*
X78991666Y-32589285D01*
X78896428Y-32684523D01*
X78705952Y-32779761D01*
X77944047Y-32779761D01*
X77944047Y-30779761D01*
X78610714Y-30779761D01*
X78801190Y-30875000D01*
X78896428Y-30970238D01*
X78991666Y-31160714D01*
X78991666Y-31351190D01*
X78896428Y-31541666D01*
X78801190Y-31636904D01*
X78610714Y-31732142D01*
X77944047Y-31732142D01*
X80229761Y-32779761D02*
X80039285Y-32684523D01*
X79944047Y-32589285D01*
X79848809Y-32398809D01*
X79848809Y-31827380D01*
X79944047Y-31636904D01*
X80039285Y-31541666D01*
X80229761Y-31446428D01*
X80515476Y-31446428D01*
X80705952Y-31541666D01*
X80801190Y-31636904D01*
X80896428Y-31827380D01*
X80896428Y-32398809D01*
X80801190Y-32589285D01*
X80705952Y-32684523D01*
X80515476Y-32779761D01*
X80229761Y-32779761D01*
X82610714Y-32779761D02*
X82610714Y-31732142D01*
X82515476Y-31541666D01*
X82325000Y-31446428D01*
X81944047Y-31446428D01*
X81753571Y-31541666D01*
X82610714Y-32684523D02*
X82420238Y-32779761D01*
X81944047Y-32779761D01*
X81753571Y-32684523D01*
X81658333Y-32494047D01*
X81658333Y-32303571D01*
X81753571Y-32113095D01*
X81944047Y-32017857D01*
X82420238Y-32017857D01*
X82610714Y-31922619D01*
X83563095Y-32779761D02*
X83563095Y-31446428D01*
X83563095Y-31827380D02*
X83658333Y-31636904D01*
X83753571Y-31541666D01*
X83944047Y-31446428D01*
X84134523Y-31446428D01*
X85658333Y-32779761D02*
X85658333Y-30779761D01*
X85658333Y-32684523D02*
X85467857Y-32779761D01*
X85086904Y-32779761D01*
X84896428Y-32684523D01*
X84801190Y-32589285D01*
X84705952Y-32398809D01*
X84705952Y-31827380D01*
X84801190Y-31636904D01*
X84896428Y-31541666D01*
X85086904Y-31446428D01*
X85467857Y-31446428D01*
X85658333Y-31541666D01*
D14*
X110905000Y-59250000D02*
X110905000Y-58500000D01*
X110905000Y-55750000D02*
X110905000Y-56500000D01*
X104905000Y-55750000D02*
X110905000Y-55750000D01*
X104905000Y-56500000D02*
X104905000Y-55750000D01*
X104905000Y-59250000D02*
X104905000Y-58500000D01*
X110905000Y-59250000D02*
X104905000Y-59250000D01*
D15*
G36*
X118621033Y-45274925D02*
X118626367Y-45295183D01*
X118635612Y-45337382D01*
X118648161Y-45398467D01*
X118663408Y-45475380D01*
X118680749Y-45565069D01*
X118699576Y-45664477D01*
X118718639Y-45767050D01*
X118738396Y-45872548D01*
X118757447Y-45970907D01*
X118775165Y-46059138D01*
X118790925Y-46134253D01*
X118804099Y-46193266D01*
X118814061Y-46233189D01*
X118820106Y-46250915D01*
X118838849Y-46265509D01*
X118881550Y-46288433D01*
X118948176Y-46319673D01*
X119038695Y-46359212D01*
X119153074Y-46407036D01*
X119167203Y-46412840D01*
X119253724Y-46448025D01*
X119333256Y-46479803D01*
X119402581Y-46506933D01*
X119458484Y-46528174D01*
X119497749Y-46542287D01*
X119517159Y-46548031D01*
X119517992Y-46548100D01*
X119532820Y-46541115D01*
X119566117Y-46521204D01*
X119615493Y-46489927D01*
X119678555Y-46448846D01*
X119752911Y-46399524D01*
X119836169Y-46343521D01*
X119925937Y-46282400D01*
X119945917Y-46268699D01*
X120037827Y-46206076D01*
X120123729Y-46148462D01*
X120201224Y-46097402D01*
X120267913Y-46054436D01*
X120321396Y-46021106D01*
X120359275Y-45998956D01*
X120379150Y-45989527D01*
X120380613Y-45989299D01*
X120395566Y-45996376D01*
X120423689Y-46018057D01*
X120465714Y-46055023D01*
X120522372Y-46107953D01*
X120594394Y-46177525D01*
X120682510Y-46264420D01*
X120760980Y-46342751D01*
X120849867Y-46431947D01*
X120922341Y-46505032D01*
X120979991Y-46563813D01*
X121024407Y-46610096D01*
X121057178Y-46645687D01*
X121079896Y-46672393D01*
X121094149Y-46692020D01*
X121101527Y-46706374D01*
X121103621Y-46717261D01*
X121102021Y-46726489D01*
X121101079Y-46729146D01*
X121091201Y-46746896D01*
X121068568Y-46782986D01*
X121034871Y-46834863D01*
X120991800Y-46899971D01*
X120941045Y-46975758D01*
X120884294Y-47059671D01*
X120823239Y-47149154D01*
X120821177Y-47152163D01*
X120760604Y-47241009D01*
X120704838Y-47323726D01*
X120655470Y-47397881D01*
X120614093Y-47461043D01*
X120582299Y-47510779D01*
X120561681Y-47544657D01*
X120553830Y-47560246D01*
X120553800Y-47560568D01*
X120558876Y-47580168D01*
X120573029Y-47619120D01*
X120594643Y-47673736D01*
X120622105Y-47740328D01*
X120653798Y-47815207D01*
X120688109Y-47894685D01*
X120723422Y-47975074D01*
X120758123Y-48052686D01*
X120790597Y-48123832D01*
X120819230Y-48184823D01*
X120842405Y-48231973D01*
X120858510Y-48261592D01*
X120864168Y-48269473D01*
X120876564Y-48277573D01*
X120898179Y-48286249D01*
X120931344Y-48296037D01*
X120978394Y-48307475D01*
X121041661Y-48321100D01*
X121123477Y-48337449D01*
X121226177Y-48357058D01*
X121322950Y-48375086D01*
X121450697Y-48398748D01*
X121555735Y-48418366D01*
X121640341Y-48434473D01*
X121706794Y-48447596D01*
X121757368Y-48458266D01*
X121794342Y-48467013D01*
X121819991Y-48474367D01*
X121836593Y-48480857D01*
X121846425Y-48487014D01*
X121851763Y-48493366D01*
X121854244Y-48498726D01*
X121855967Y-48515568D01*
X121857555Y-48554890D01*
X121858963Y-48613771D01*
X121860146Y-48689290D01*
X121861059Y-48778527D01*
X121861657Y-48878561D01*
X121861897Y-48986473D01*
X121861900Y-48998831D01*
X121861820Y-49122764D01*
X121861510Y-49223791D01*
X121860859Y-49304405D01*
X121859757Y-49367100D01*
X121858095Y-49414369D01*
X121855763Y-49448707D01*
X121852651Y-49472607D01*
X121848651Y-49488562D01*
X121843652Y-49499066D01*
X121839675Y-49504312D01*
X121829754Y-49511849D01*
X121811611Y-49519823D01*
X121782947Y-49528757D01*
X121741460Y-49539177D01*
X121684851Y-49551610D01*
X121610820Y-49566579D01*
X121517065Y-49584611D01*
X121401287Y-49606232D01*
X121360518Y-49613753D01*
X121231337Y-49637817D01*
X121125472Y-49658202D01*
X121041166Y-49675297D01*
X120976663Y-49689495D01*
X120930206Y-49701184D01*
X120900041Y-49710757D01*
X120884409Y-49718604D01*
X120882864Y-49720009D01*
X120872013Y-49738297D01*
X120853995Y-49776266D01*
X120830205Y-49830379D01*
X120802041Y-49897095D01*
X120770897Y-49972875D01*
X120738171Y-50054180D01*
X120705259Y-50137471D01*
X120673557Y-50219209D01*
X120644460Y-50295855D01*
X120619366Y-50363869D01*
X120599671Y-50419713D01*
X120586770Y-50459847D01*
X120582061Y-50480732D01*
X120582187Y-50482163D01*
X120590535Y-50497453D01*
X120611663Y-50531091D01*
X120643892Y-50580545D01*
X120685543Y-50643282D01*
X120734934Y-50716769D01*
X120790386Y-50798474D01*
X120843030Y-50875404D01*
X120902593Y-50962515D01*
X120957702Y-51043877D01*
X121006651Y-51116914D01*
X121047736Y-51179050D01*
X121079251Y-51227709D01*
X121099493Y-51260315D01*
X121106612Y-51273640D01*
X121106511Y-51282874D01*
X121100377Y-51296495D01*
X121086694Y-51316179D01*
X121063948Y-51343601D01*
X121030624Y-51380434D01*
X120985207Y-51428353D01*
X120926183Y-51489033D01*
X120852038Y-51564148D01*
X120761765Y-51654861D01*
X120659005Y-51757187D01*
X120571827Y-51842557D01*
X120500562Y-51910666D01*
X120445538Y-51961205D01*
X120407083Y-51993867D01*
X120385526Y-52008346D01*
X120382521Y-52009100D01*
X120366399Y-52002109D01*
X120331962Y-51982220D01*
X120281737Y-51951054D01*
X120218247Y-51910234D01*
X120144020Y-51861383D01*
X120061579Y-51806124D01*
X119977010Y-51748523D01*
X119872243Y-51676936D01*
X119786369Y-51619021D01*
X119717617Y-51573679D01*
X119664218Y-51539811D01*
X119624401Y-51516317D01*
X119596398Y-51502098D01*
X119578437Y-51496054D01*
X119570741Y-51496144D01*
X119549946Y-51505018D01*
X119511915Y-51523484D01*
X119461724Y-51548999D01*
X119404453Y-51579022D01*
X119393470Y-51584876D01*
X119323682Y-51622009D01*
X119272754Y-51648189D01*
X119237175Y-51664490D01*
X119213431Y-51671984D01*
X119198012Y-51671745D01*
X119187405Y-51664846D01*
X119178098Y-51652359D01*
X119177177Y-51650956D01*
X119166806Y-51630764D01*
X119148206Y-51589875D01*
X119122343Y-51530659D01*
X119090186Y-51455485D01*
X119052703Y-51366723D01*
X119010864Y-51266741D01*
X118965634Y-51157910D01*
X118917984Y-51042597D01*
X118868882Y-50923174D01*
X118819295Y-50802008D01*
X118770191Y-50681470D01*
X118722540Y-50563928D01*
X118677309Y-50451753D01*
X118635467Y-50347313D01*
X118597982Y-50252977D01*
X118565822Y-50171115D01*
X118539955Y-50104097D01*
X118521350Y-50054291D01*
X118510975Y-50024067D01*
X118509100Y-50016174D01*
X118514530Y-49987982D01*
X118534728Y-49965072D01*
X118556725Y-49950275D01*
X118706989Y-49846579D01*
X118835209Y-49731451D01*
X118941045Y-49605451D01*
X119024159Y-49469143D01*
X119084213Y-49323087D01*
X119120867Y-49167846D01*
X119133783Y-49003982D01*
X119133793Y-48992850D01*
X119120939Y-48832594D01*
X119084495Y-48679574D01*
X119025715Y-48535759D01*
X118945857Y-48403116D01*
X118846178Y-48283613D01*
X118727933Y-48179219D01*
X118592378Y-48091901D01*
X118542272Y-48066310D01*
X118442266Y-48022368D01*
X118351723Y-47992526D01*
X118261092Y-47974623D01*
X118160824Y-47966498D01*
X118096350Y-47965414D01*
X117986421Y-47968972D01*
X117891522Y-47981089D01*
X117802104Y-48003925D01*
X117708615Y-48039640D01*
X117650427Y-48066310D01*
X117509242Y-48147336D01*
X117384936Y-48246111D01*
X117278765Y-48360668D01*
X117191987Y-48489039D01*
X117125857Y-48629254D01*
X117081633Y-48779347D01*
X117060570Y-48937350D01*
X117058906Y-48992850D01*
X117070240Y-49157264D01*
X117105334Y-49313093D01*
X117163850Y-49459774D01*
X117245449Y-49596744D01*
X117349792Y-49723443D01*
X117476541Y-49839309D01*
X117625358Y-49943778D01*
X117635975Y-49950275D01*
X117668018Y-49973937D01*
X117681732Y-49997950D01*
X117683599Y-50016174D01*
X117678859Y-50032957D01*
X117665284Y-50070803D01*
X117643842Y-50127342D01*
X117615501Y-50200205D01*
X117581231Y-50287022D01*
X117541998Y-50385425D01*
X117498771Y-50493044D01*
X117452519Y-50607510D01*
X117404210Y-50726453D01*
X117354812Y-50847504D01*
X117305293Y-50968294D01*
X117256622Y-51086454D01*
X117209766Y-51199613D01*
X117165694Y-51305403D01*
X117125375Y-51401455D01*
X117089777Y-51485399D01*
X117059867Y-51554865D01*
X117036614Y-51607485D01*
X117020987Y-51640890D01*
X117015522Y-51650956D01*
X117006158Y-51663907D01*
X116995819Y-51671369D01*
X116980994Y-51672271D01*
X116958170Y-51665539D01*
X116923836Y-51650100D01*
X116874479Y-51624880D01*
X116806587Y-51588808D01*
X116799229Y-51584876D01*
X116741203Y-51554297D01*
X116689317Y-51527755D01*
X116648649Y-51507792D01*
X116624278Y-51496948D01*
X116621958Y-51496144D01*
X116610122Y-51496991D01*
X116589516Y-51505224D01*
X116558368Y-51521941D01*
X116514910Y-51548241D01*
X116457372Y-51585226D01*
X116383983Y-51633993D01*
X116292973Y-51695642D01*
X116215689Y-51748523D01*
X116127737Y-51808410D01*
X116045573Y-51863446D01*
X115971722Y-51912010D01*
X115908709Y-51952479D01*
X115859060Y-51983230D01*
X115825299Y-52002641D01*
X115810178Y-52009100D01*
X115793499Y-51999862D01*
X115759829Y-51972352D01*
X115709495Y-51926879D01*
X115642827Y-51863749D01*
X115560153Y-51783269D01*
X115461802Y-51685746D01*
X115430934Y-51654861D01*
X115340241Y-51563723D01*
X115266176Y-51488687D01*
X115207226Y-51428077D01*
X115161875Y-51380219D01*
X115128609Y-51343438D01*
X115105913Y-51316060D01*
X115092273Y-51296411D01*
X115086174Y-51282817D01*
X115086087Y-51273640D01*
X115095093Y-51257153D01*
X115116861Y-51222365D01*
X115149686Y-51171851D01*
X115191864Y-51108188D01*
X115241690Y-51033951D01*
X115297459Y-50951716D01*
X115349669Y-50875404D01*
X115409075Y-50788549D01*
X115463904Y-50707677D01*
X115512474Y-50635319D01*
X115553107Y-50574009D01*
X115584121Y-50526278D01*
X115603837Y-50494661D01*
X115610512Y-50482163D01*
X115607407Y-50465077D01*
X115595863Y-50428112D01*
X115577276Y-50374807D01*
X115553041Y-50308702D01*
X115524555Y-50233334D01*
X115493215Y-50152244D01*
X115460416Y-50068970D01*
X115427555Y-49987052D01*
X115396027Y-49910029D01*
X115367230Y-49841440D01*
X115342559Y-49784824D01*
X115323410Y-49743720D01*
X115311180Y-49721668D01*
X115309835Y-49720009D01*
X115296916Y-49712462D01*
X115269816Y-49703268D01*
X115226780Y-49692036D01*
X115166050Y-49678375D01*
X115085870Y-49661894D01*
X114984485Y-49642203D01*
X114860137Y-49618911D01*
X114832181Y-49613753D01*
X114709101Y-49590913D01*
X114608757Y-49571823D01*
X114528851Y-49555959D01*
X114467081Y-49542796D01*
X114421148Y-49531807D01*
X114388750Y-49522468D01*
X114367588Y-49514253D01*
X114355362Y-49506636D01*
X114353025Y-49504312D01*
X114347292Y-49496071D01*
X114342632Y-49484055D01*
X114338935Y-49465771D01*
X114336091Y-49438725D01*
X114333991Y-49400423D01*
X114332525Y-49348372D01*
X114331583Y-49280079D01*
X114331055Y-49193050D01*
X114330833Y-49084790D01*
X114330800Y-48998831D01*
X114330996Y-48890224D01*
X114331557Y-48789170D01*
X114332438Y-48698588D01*
X114333593Y-48621399D01*
X114334978Y-48560524D01*
X114336548Y-48518883D01*
X114338258Y-48499397D01*
X114338455Y-48498726D01*
X114341885Y-48491861D01*
X114348054Y-48485600D01*
X114359241Y-48479414D01*
X114377721Y-48472772D01*
X114405772Y-48465145D01*
X114445671Y-48456003D01*
X114499693Y-48444815D01*
X114570118Y-48431053D01*
X114659220Y-48414187D01*
X114769276Y-48393685D01*
X114869749Y-48375086D01*
X114990477Y-48352541D01*
X115088491Y-48333678D01*
X115166123Y-48317960D01*
X115225707Y-48304850D01*
X115269576Y-48293812D01*
X115300061Y-48284308D01*
X115319497Y-48275802D01*
X115328531Y-48269473D01*
X115339532Y-48252349D01*
X115358590Y-48215446D01*
X115384088Y-48162453D01*
X115414413Y-48097058D01*
X115447949Y-48022949D01*
X115483081Y-47943814D01*
X115518195Y-47863342D01*
X115551676Y-47785220D01*
X115581909Y-47713138D01*
X115607280Y-47650783D01*
X115626173Y-47601844D01*
X115636974Y-47570009D01*
X115638900Y-47560568D01*
X115631933Y-47546252D01*
X115612096Y-47513488D01*
X115580980Y-47464708D01*
X115540177Y-47402345D01*
X115491280Y-47328830D01*
X115435881Y-47246596D01*
X115375572Y-47158074D01*
X115371522Y-47152163D01*
X115310354Y-47062540D01*
X115253435Y-46978403D01*
X115202455Y-46902308D01*
X115159105Y-46836808D01*
X115125073Y-46784456D01*
X115102049Y-46747806D01*
X115091724Y-46729412D01*
X115091620Y-46729146D01*
X115089236Y-46720063D01*
X115090080Y-46709851D01*
X115095741Y-46696702D01*
X115107810Y-46678812D01*
X115127876Y-46654373D01*
X115157529Y-46621579D01*
X115198359Y-46578624D01*
X115251957Y-46523702D01*
X115319911Y-46455006D01*
X115403813Y-46370730D01*
X115431719Y-46342751D01*
X115532602Y-46242189D01*
X115616832Y-46159467D01*
X115685140Y-46093907D01*
X115738258Y-46044828D01*
X115776917Y-46011552D01*
X115801848Y-45993399D01*
X115812086Y-45989299D01*
X115828516Y-45996311D01*
X115863375Y-46016317D01*
X115914266Y-46047775D01*
X115978787Y-46089144D01*
X116054540Y-46138881D01*
X116139126Y-46195445D01*
X116230145Y-46257292D01*
X116246782Y-46268699D01*
X116337636Y-46330718D01*
X116422491Y-46387956D01*
X116498956Y-46438851D01*
X116564640Y-46481840D01*
X116617150Y-46515364D01*
X116654097Y-46537859D01*
X116673089Y-46547765D01*
X116674600Y-46548099D01*
X116693973Y-46543250D01*
X116732766Y-46529744D01*
X116787221Y-46509149D01*
X116853582Y-46483030D01*
X116928090Y-46452953D01*
X117006989Y-46420483D01*
X117086521Y-46387187D01*
X117162929Y-46354630D01*
X117232456Y-46324379D01*
X117291345Y-46297998D01*
X117335837Y-46277054D01*
X117362177Y-46263112D01*
X117367165Y-46259479D01*
X117375097Y-46243626D01*
X117385432Y-46209593D01*
X117398435Y-46156163D01*
X117414374Y-46082115D01*
X117433514Y-45986231D01*
X117456123Y-45867293D01*
X117473472Y-45773400D01*
X117493182Y-45666758D01*
X117511994Y-45566881D01*
X117529309Y-45476801D01*
X117544531Y-45399548D01*
X117557062Y-45338153D01*
X117566306Y-45295647D01*
X117571663Y-45275060D01*
X117571714Y-45274925D01*
X117585081Y-45240000D01*
X118607618Y-45240000D01*
X118621033Y-45274925D01*
X118621033Y-45274925D01*
G37*
X118621033Y-45274925D02*
X118626367Y-45295183D01*
X118635612Y-45337382D01*
X118648161Y-45398467D01*
X118663408Y-45475380D01*
X118680749Y-45565069D01*
X118699576Y-45664477D01*
X118718639Y-45767050D01*
X118738396Y-45872548D01*
X118757447Y-45970907D01*
X118775165Y-46059138D01*
X118790925Y-46134253D01*
X118804099Y-46193266D01*
X118814061Y-46233189D01*
X118820106Y-46250915D01*
X118838849Y-46265509D01*
X118881550Y-46288433D01*
X118948176Y-46319673D01*
X119038695Y-46359212D01*
X119153074Y-46407036D01*
X119167203Y-46412840D01*
X119253724Y-46448025D01*
X119333256Y-46479803D01*
X119402581Y-46506933D01*
X119458484Y-46528174D01*
X119497749Y-46542287D01*
X119517159Y-46548031D01*
X119517992Y-46548100D01*
X119532820Y-46541115D01*
X119566117Y-46521204D01*
X119615493Y-46489927D01*
X119678555Y-46448846D01*
X119752911Y-46399524D01*
X119836169Y-46343521D01*
X119925937Y-46282400D01*
X119945917Y-46268699D01*
X120037827Y-46206076D01*
X120123729Y-46148462D01*
X120201224Y-46097402D01*
X120267913Y-46054436D01*
X120321396Y-46021106D01*
X120359275Y-45998956D01*
X120379150Y-45989527D01*
X120380613Y-45989299D01*
X120395566Y-45996376D01*
X120423689Y-46018057D01*
X120465714Y-46055023D01*
X120522372Y-46107953D01*
X120594394Y-46177525D01*
X120682510Y-46264420D01*
X120760980Y-46342751D01*
X120849867Y-46431947D01*
X120922341Y-46505032D01*
X120979991Y-46563813D01*
X121024407Y-46610096D01*
X121057178Y-46645687D01*
X121079896Y-46672393D01*
X121094149Y-46692020D01*
X121101527Y-46706374D01*
X121103621Y-46717261D01*
X121102021Y-46726489D01*
X121101079Y-46729146D01*
X121091201Y-46746896D01*
X121068568Y-46782986D01*
X121034871Y-46834863D01*
X120991800Y-46899971D01*
X120941045Y-46975758D01*
X120884294Y-47059671D01*
X120823239Y-47149154D01*
X120821177Y-47152163D01*
X120760604Y-47241009D01*
X120704838Y-47323726D01*
X120655470Y-47397881D01*
X120614093Y-47461043D01*
X120582299Y-47510779D01*
X120561681Y-47544657D01*
X120553830Y-47560246D01*
X120553800Y-47560568D01*
X120558876Y-47580168D01*
X120573029Y-47619120D01*
X120594643Y-47673736D01*
X120622105Y-47740328D01*
X120653798Y-47815207D01*
X120688109Y-47894685D01*
X120723422Y-47975074D01*
X120758123Y-48052686D01*
X120790597Y-48123832D01*
X120819230Y-48184823D01*
X120842405Y-48231973D01*
X120858510Y-48261592D01*
X120864168Y-48269473D01*
X120876564Y-48277573D01*
X120898179Y-48286249D01*
X120931344Y-48296037D01*
X120978394Y-48307475D01*
X121041661Y-48321100D01*
X121123477Y-48337449D01*
X121226177Y-48357058D01*
X121322950Y-48375086D01*
X121450697Y-48398748D01*
X121555735Y-48418366D01*
X121640341Y-48434473D01*
X121706794Y-48447596D01*
X121757368Y-48458266D01*
X121794342Y-48467013D01*
X121819991Y-48474367D01*
X121836593Y-48480857D01*
X121846425Y-48487014D01*
X121851763Y-48493366D01*
X121854244Y-48498726D01*
X121855967Y-48515568D01*
X121857555Y-48554890D01*
X121858963Y-48613771D01*
X121860146Y-48689290D01*
X121861059Y-48778527D01*
X121861657Y-48878561D01*
X121861897Y-48986473D01*
X121861900Y-48998831D01*
X121861820Y-49122764D01*
X121861510Y-49223791D01*
X121860859Y-49304405D01*
X121859757Y-49367100D01*
X121858095Y-49414369D01*
X121855763Y-49448707D01*
X121852651Y-49472607D01*
X121848651Y-49488562D01*
X121843652Y-49499066D01*
X121839675Y-49504312D01*
X121829754Y-49511849D01*
X121811611Y-49519823D01*
X121782947Y-49528757D01*
X121741460Y-49539177D01*
X121684851Y-49551610D01*
X121610820Y-49566579D01*
X121517065Y-49584611D01*
X121401287Y-49606232D01*
X121360518Y-49613753D01*
X121231337Y-49637817D01*
X121125472Y-49658202D01*
X121041166Y-49675297D01*
X120976663Y-49689495D01*
X120930206Y-49701184D01*
X120900041Y-49710757D01*
X120884409Y-49718604D01*
X120882864Y-49720009D01*
X120872013Y-49738297D01*
X120853995Y-49776266D01*
X120830205Y-49830379D01*
X120802041Y-49897095D01*
X120770897Y-49972875D01*
X120738171Y-50054180D01*
X120705259Y-50137471D01*
X120673557Y-50219209D01*
X120644460Y-50295855D01*
X120619366Y-50363869D01*
X120599671Y-50419713D01*
X120586770Y-50459847D01*
X120582061Y-50480732D01*
X120582187Y-50482163D01*
X120590535Y-50497453D01*
X120611663Y-50531091D01*
X120643892Y-50580545D01*
X120685543Y-50643282D01*
X120734934Y-50716769D01*
X120790386Y-50798474D01*
X120843030Y-50875404D01*
X120902593Y-50962515D01*
X120957702Y-51043877D01*
X121006651Y-51116914D01*
X121047736Y-51179050D01*
X121079251Y-51227709D01*
X121099493Y-51260315D01*
X121106612Y-51273640D01*
X121106511Y-51282874D01*
X121100377Y-51296495D01*
X121086694Y-51316179D01*
X121063948Y-51343601D01*
X121030624Y-51380434D01*
X120985207Y-51428353D01*
X120926183Y-51489033D01*
X120852038Y-51564148D01*
X120761765Y-51654861D01*
X120659005Y-51757187D01*
X120571827Y-51842557D01*
X120500562Y-51910666D01*
X120445538Y-51961205D01*
X120407083Y-51993867D01*
X120385526Y-52008346D01*
X120382521Y-52009100D01*
X120366399Y-52002109D01*
X120331962Y-51982220D01*
X120281737Y-51951054D01*
X120218247Y-51910234D01*
X120144020Y-51861383D01*
X120061579Y-51806124D01*
X119977010Y-51748523D01*
X119872243Y-51676936D01*
X119786369Y-51619021D01*
X119717617Y-51573679D01*
X119664218Y-51539811D01*
X119624401Y-51516317D01*
X119596398Y-51502098D01*
X119578437Y-51496054D01*
X119570741Y-51496144D01*
X119549946Y-51505018D01*
X119511915Y-51523484D01*
X119461724Y-51548999D01*
X119404453Y-51579022D01*
X119393470Y-51584876D01*
X119323682Y-51622009D01*
X119272754Y-51648189D01*
X119237175Y-51664490D01*
X119213431Y-51671984D01*
X119198012Y-51671745D01*
X119187405Y-51664846D01*
X119178098Y-51652359D01*
X119177177Y-51650956D01*
X119166806Y-51630764D01*
X119148206Y-51589875D01*
X119122343Y-51530659D01*
X119090186Y-51455485D01*
X119052703Y-51366723D01*
X119010864Y-51266741D01*
X118965634Y-51157910D01*
X118917984Y-51042597D01*
X118868882Y-50923174D01*
X118819295Y-50802008D01*
X118770191Y-50681470D01*
X118722540Y-50563928D01*
X118677309Y-50451753D01*
X118635467Y-50347313D01*
X118597982Y-50252977D01*
X118565822Y-50171115D01*
X118539955Y-50104097D01*
X118521350Y-50054291D01*
X118510975Y-50024067D01*
X118509100Y-50016174D01*
X118514530Y-49987982D01*
X118534728Y-49965072D01*
X118556725Y-49950275D01*
X118706989Y-49846579D01*
X118835209Y-49731451D01*
X118941045Y-49605451D01*
X119024159Y-49469143D01*
X119084213Y-49323087D01*
X119120867Y-49167846D01*
X119133783Y-49003982D01*
X119133793Y-48992850D01*
X119120939Y-48832594D01*
X119084495Y-48679574D01*
X119025715Y-48535759D01*
X118945857Y-48403116D01*
X118846178Y-48283613D01*
X118727933Y-48179219D01*
X118592378Y-48091901D01*
X118542272Y-48066310D01*
X118442266Y-48022368D01*
X118351723Y-47992526D01*
X118261092Y-47974623D01*
X118160824Y-47966498D01*
X118096350Y-47965414D01*
X117986421Y-47968972D01*
X117891522Y-47981089D01*
X117802104Y-48003925D01*
X117708615Y-48039640D01*
X117650427Y-48066310D01*
X117509242Y-48147336D01*
X117384936Y-48246111D01*
X117278765Y-48360668D01*
X117191987Y-48489039D01*
X117125857Y-48629254D01*
X117081633Y-48779347D01*
X117060570Y-48937350D01*
X117058906Y-48992850D01*
X117070240Y-49157264D01*
X117105334Y-49313093D01*
X117163850Y-49459774D01*
X117245449Y-49596744D01*
X117349792Y-49723443D01*
X117476541Y-49839309D01*
X117625358Y-49943778D01*
X117635975Y-49950275D01*
X117668018Y-49973937D01*
X117681732Y-49997950D01*
X117683599Y-50016174D01*
X117678859Y-50032957D01*
X117665284Y-50070803D01*
X117643842Y-50127342D01*
X117615501Y-50200205D01*
X117581231Y-50287022D01*
X117541998Y-50385425D01*
X117498771Y-50493044D01*
X117452519Y-50607510D01*
X117404210Y-50726453D01*
X117354812Y-50847504D01*
X117305293Y-50968294D01*
X117256622Y-51086454D01*
X117209766Y-51199613D01*
X117165694Y-51305403D01*
X117125375Y-51401455D01*
X117089777Y-51485399D01*
X117059867Y-51554865D01*
X117036614Y-51607485D01*
X117020987Y-51640890D01*
X117015522Y-51650956D01*
X117006158Y-51663907D01*
X116995819Y-51671369D01*
X116980994Y-51672271D01*
X116958170Y-51665539D01*
X116923836Y-51650100D01*
X116874479Y-51624880D01*
X116806587Y-51588808D01*
X116799229Y-51584876D01*
X116741203Y-51554297D01*
X116689317Y-51527755D01*
X116648649Y-51507792D01*
X116624278Y-51496948D01*
X116621958Y-51496144D01*
X116610122Y-51496991D01*
X116589516Y-51505224D01*
X116558368Y-51521941D01*
X116514910Y-51548241D01*
X116457372Y-51585226D01*
X116383983Y-51633993D01*
X116292973Y-51695642D01*
X116215689Y-51748523D01*
X116127737Y-51808410D01*
X116045573Y-51863446D01*
X115971722Y-51912010D01*
X115908709Y-51952479D01*
X115859060Y-51983230D01*
X115825299Y-52002641D01*
X115810178Y-52009100D01*
X115793499Y-51999862D01*
X115759829Y-51972352D01*
X115709495Y-51926879D01*
X115642827Y-51863749D01*
X115560153Y-51783269D01*
X115461802Y-51685746D01*
X115430934Y-51654861D01*
X115340241Y-51563723D01*
X115266176Y-51488687D01*
X115207226Y-51428077D01*
X115161875Y-51380219D01*
X115128609Y-51343438D01*
X115105913Y-51316060D01*
X115092273Y-51296411D01*
X115086174Y-51282817D01*
X115086087Y-51273640D01*
X115095093Y-51257153D01*
X115116861Y-51222365D01*
X115149686Y-51171851D01*
X115191864Y-51108188D01*
X115241690Y-51033951D01*
X115297459Y-50951716D01*
X115349669Y-50875404D01*
X115409075Y-50788549D01*
X115463904Y-50707677D01*
X115512474Y-50635319D01*
X115553107Y-50574009D01*
X115584121Y-50526278D01*
X115603837Y-50494661D01*
X115610512Y-50482163D01*
X115607407Y-50465077D01*
X115595863Y-50428112D01*
X115577276Y-50374807D01*
X115553041Y-50308702D01*
X115524555Y-50233334D01*
X115493215Y-50152244D01*
X115460416Y-50068970D01*
X115427555Y-49987052D01*
X115396027Y-49910029D01*
X115367230Y-49841440D01*
X115342559Y-49784824D01*
X115323410Y-49743720D01*
X115311180Y-49721668D01*
X115309835Y-49720009D01*
X115296916Y-49712462D01*
X115269816Y-49703268D01*
X115226780Y-49692036D01*
X115166050Y-49678375D01*
X115085870Y-49661894D01*
X114984485Y-49642203D01*
X114860137Y-49618911D01*
X114832181Y-49613753D01*
X114709101Y-49590913D01*
X114608757Y-49571823D01*
X114528851Y-49555959D01*
X114467081Y-49542796D01*
X114421148Y-49531807D01*
X114388750Y-49522468D01*
X114367588Y-49514253D01*
X114355362Y-49506636D01*
X114353025Y-49504312D01*
X114347292Y-49496071D01*
X114342632Y-49484055D01*
X114338935Y-49465771D01*
X114336091Y-49438725D01*
X114333991Y-49400423D01*
X114332525Y-49348372D01*
X114331583Y-49280079D01*
X114331055Y-49193050D01*
X114330833Y-49084790D01*
X114330800Y-48998831D01*
X114330996Y-48890224D01*
X114331557Y-48789170D01*
X114332438Y-48698588D01*
X114333593Y-48621399D01*
X114334978Y-48560524D01*
X114336548Y-48518883D01*
X114338258Y-48499397D01*
X114338455Y-48498726D01*
X114341885Y-48491861D01*
X114348054Y-48485600D01*
X114359241Y-48479414D01*
X114377721Y-48472772D01*
X114405772Y-48465145D01*
X114445671Y-48456003D01*
X114499693Y-48444815D01*
X114570118Y-48431053D01*
X114659220Y-48414187D01*
X114769276Y-48393685D01*
X114869749Y-48375086D01*
X114990477Y-48352541D01*
X115088491Y-48333678D01*
X115166123Y-48317960D01*
X115225707Y-48304850D01*
X115269576Y-48293812D01*
X115300061Y-48284308D01*
X115319497Y-48275802D01*
X115328531Y-48269473D01*
X115339532Y-48252349D01*
X115358590Y-48215446D01*
X115384088Y-48162453D01*
X115414413Y-48097058D01*
X115447949Y-48022949D01*
X115483081Y-47943814D01*
X115518195Y-47863342D01*
X115551676Y-47785220D01*
X115581909Y-47713138D01*
X115607280Y-47650783D01*
X115626173Y-47601844D01*
X115636974Y-47570009D01*
X115638900Y-47560568D01*
X115631933Y-47546252D01*
X115612096Y-47513488D01*
X115580980Y-47464708D01*
X115540177Y-47402345D01*
X115491280Y-47328830D01*
X115435881Y-47246596D01*
X115375572Y-47158074D01*
X115371522Y-47152163D01*
X115310354Y-47062540D01*
X115253435Y-46978403D01*
X115202455Y-46902308D01*
X115159105Y-46836808D01*
X115125073Y-46784456D01*
X115102049Y-46747806D01*
X115091724Y-46729412D01*
X115091620Y-46729146D01*
X115089236Y-46720063D01*
X115090080Y-46709851D01*
X115095741Y-46696702D01*
X115107810Y-46678812D01*
X115127876Y-46654373D01*
X115157529Y-46621579D01*
X115198359Y-46578624D01*
X115251957Y-46523702D01*
X115319911Y-46455006D01*
X115403813Y-46370730D01*
X115431719Y-46342751D01*
X115532602Y-46242189D01*
X115616832Y-46159467D01*
X115685140Y-46093907D01*
X115738258Y-46044828D01*
X115776917Y-46011552D01*
X115801848Y-45993399D01*
X115812086Y-45989299D01*
X115828516Y-45996311D01*
X115863375Y-46016317D01*
X115914266Y-46047775D01*
X115978787Y-46089144D01*
X116054540Y-46138881D01*
X116139126Y-46195445D01*
X116230145Y-46257292D01*
X116246782Y-46268699D01*
X116337636Y-46330718D01*
X116422491Y-46387956D01*
X116498956Y-46438851D01*
X116564640Y-46481840D01*
X116617150Y-46515364D01*
X116654097Y-46537859D01*
X116673089Y-46547765D01*
X116674600Y-46548099D01*
X116693973Y-46543250D01*
X116732766Y-46529744D01*
X116787221Y-46509149D01*
X116853582Y-46483030D01*
X116928090Y-46452953D01*
X117006989Y-46420483D01*
X117086521Y-46387187D01*
X117162929Y-46354630D01*
X117232456Y-46324379D01*
X117291345Y-46297998D01*
X117335837Y-46277054D01*
X117362177Y-46263112D01*
X117367165Y-46259479D01*
X117375097Y-46243626D01*
X117385432Y-46209593D01*
X117398435Y-46156163D01*
X117414374Y-46082115D01*
X117433514Y-45986231D01*
X117456123Y-45867293D01*
X117473472Y-45773400D01*
X117493182Y-45666758D01*
X117511994Y-45566881D01*
X117529309Y-45476801D01*
X117544531Y-45399548D01*
X117557062Y-45338153D01*
X117566306Y-45295647D01*
X117571663Y-45275060D01*
X117571714Y-45274925D01*
X117585081Y-45240000D01*
X118607618Y-45240000D01*
X118621033Y-45274925D01*
G36*
X121109136Y-52780857D02*
X121156091Y-52794456D01*
X121199778Y-52811640D01*
X121233660Y-52829726D01*
X121251201Y-52846032D01*
X121252300Y-52850194D01*
X121244714Y-52865441D01*
X121224447Y-52894803D01*
X121195237Y-52933010D01*
X121181284Y-52950324D01*
X121110268Y-53037126D01*
X121058397Y-53010663D01*
X120993490Y-52990216D01*
X120929271Y-52992670D01*
X120870823Y-53016447D01*
X120823228Y-53059966D01*
X120804644Y-53089502D01*
X120797813Y-53105496D01*
X120792520Y-53125566D01*
X120788575Y-53152931D01*
X120785789Y-53190812D01*
X120783972Y-53242431D01*
X120782934Y-53311007D01*
X120782485Y-53399762D01*
X120782419Y-53466425D01*
X120782400Y-53799800D01*
X120566500Y-53799800D01*
X120566500Y-52783800D01*
X120782400Y-52783800D01*
X120782400Y-52872859D01*
X120832592Y-52836500D01*
X120912084Y-52794194D01*
X121001131Y-52773914D01*
X121065449Y-52773523D01*
X121109136Y-52780857D01*
X121109136Y-52780857D01*
G37*
X121109136Y-52780857D02*
X121156091Y-52794456D01*
X121199778Y-52811640D01*
X121233660Y-52829726D01*
X121251201Y-52846032D01*
X121252300Y-52850194D01*
X121244714Y-52865441D01*
X121224447Y-52894803D01*
X121195237Y-52933010D01*
X121181284Y-52950324D01*
X121110268Y-53037126D01*
X121058397Y-53010663D01*
X120993490Y-52990216D01*
X120929271Y-52992670D01*
X120870823Y-53016447D01*
X120823228Y-53059966D01*
X120804644Y-53089502D01*
X120797813Y-53105496D01*
X120792520Y-53125566D01*
X120788575Y-53152931D01*
X120785789Y-53190812D01*
X120783972Y-53242431D01*
X120782934Y-53311007D01*
X120782485Y-53399762D01*
X120782419Y-53466425D01*
X120782400Y-53799800D01*
X120566500Y-53799800D01*
X120566500Y-52783800D01*
X120782400Y-52783800D01*
X120782400Y-52872859D01*
X120832592Y-52836500D01*
X120912084Y-52794194D01*
X121001131Y-52773914D01*
X121065449Y-52773523D01*
X121109136Y-52780857D01*
G36*
X116762476Y-52780508D02*
X116776711Y-52784125D01*
X116846169Y-52814696D01*
X116911749Y-52863398D01*
X116965129Y-52923355D01*
X116985100Y-52956299D01*
X116994030Y-52974384D01*
X117001136Y-52991653D01*
X117006659Y-53011177D01*
X117010841Y-53036029D01*
X117013924Y-53069281D01*
X117016149Y-53114006D01*
X117017756Y-53173275D01*
X117018989Y-53250161D01*
X117020088Y-53347735D01*
X117020702Y-53409275D01*
X117024554Y-53799800D01*
X116807300Y-53799800D01*
X116807300Y-53472290D01*
X116807208Y-53372195D01*
X116806766Y-53294082D01*
X116805718Y-53234536D01*
X116803810Y-53190140D01*
X116800789Y-53157478D01*
X116796400Y-53133133D01*
X116790388Y-53113688D01*
X116782501Y-53095727D01*
X116778725Y-53088115D01*
X116739707Y-53033410D01*
X116688514Y-53000833D01*
X116624173Y-52989854D01*
X116599978Y-52990873D01*
X116532730Y-53006971D01*
X116481118Y-53042835D01*
X116448544Y-53089502D01*
X116441713Y-53105496D01*
X116436420Y-53125566D01*
X116432475Y-53152931D01*
X116429689Y-53190812D01*
X116427872Y-53242431D01*
X116426834Y-53311007D01*
X116426385Y-53399762D01*
X116426319Y-53466425D01*
X116426300Y-53799800D01*
X116210400Y-53799800D01*
X116210400Y-52783800D01*
X116426300Y-52783800D01*
X116426300Y-52877127D01*
X116454875Y-52850999D01*
X116518366Y-52808734D01*
X116595735Y-52781871D01*
X116679573Y-52771949D01*
X116762476Y-52780508D01*
X116762476Y-52780508D01*
G37*
X116762476Y-52780508D02*
X116776711Y-52784125D01*
X116846169Y-52814696D01*
X116911749Y-52863398D01*
X116965129Y-52923355D01*
X116985100Y-52956299D01*
X116994030Y-52974384D01*
X117001136Y-52991653D01*
X117006659Y-53011177D01*
X117010841Y-53036029D01*
X117013924Y-53069281D01*
X117016149Y-53114006D01*
X117017756Y-53173275D01*
X117018989Y-53250161D01*
X117020088Y-53347735D01*
X117020702Y-53409275D01*
X117024554Y-53799800D01*
X116807300Y-53799800D01*
X116807300Y-53472290D01*
X116807208Y-53372195D01*
X116806766Y-53294082D01*
X116805718Y-53234536D01*
X116803810Y-53190140D01*
X116800789Y-53157478D01*
X116796400Y-53133133D01*
X116790388Y-53113688D01*
X116782501Y-53095727D01*
X116778725Y-53088115D01*
X116739707Y-53033410D01*
X116688514Y-53000833D01*
X116624173Y-52989854D01*
X116599978Y-52990873D01*
X116532730Y-53006971D01*
X116481118Y-53042835D01*
X116448544Y-53089502D01*
X116441713Y-53105496D01*
X116436420Y-53125566D01*
X116432475Y-53152931D01*
X116429689Y-53190812D01*
X116427872Y-53242431D01*
X116426834Y-53311007D01*
X116426385Y-53399762D01*
X116426319Y-53466425D01*
X116426300Y-53799800D01*
X116210400Y-53799800D01*
X116210400Y-52783800D01*
X116426300Y-52783800D01*
X116426300Y-52877127D01*
X116454875Y-52850999D01*
X116518366Y-52808734D01*
X116595735Y-52781871D01*
X116679573Y-52771949D01*
X116762476Y-52780508D01*
G36*
X122575440Y-52778539D02*
X122618683Y-52782849D01*
X122654782Y-52792176D01*
X122692841Y-52808255D01*
X122702823Y-52813088D01*
X122782196Y-52865347D01*
X122848643Y-52935582D01*
X122896645Y-53017717D01*
X122902876Y-53033233D01*
X122915739Y-53074479D01*
X122923716Y-53119699D01*
X122927725Y-53176295D01*
X122928700Y-53241476D01*
X122928700Y-53380700D01*
X122617550Y-53380700D01*
X122517669Y-53380658D01*
X122440605Y-53381042D01*
X122383775Y-53382616D01*
X122344597Y-53386141D01*
X122320490Y-53392381D01*
X122308872Y-53402099D01*
X122307161Y-53416058D01*
X122312775Y-53435021D01*
X122323134Y-53459752D01*
X122326123Y-53466832D01*
X122365517Y-53533130D01*
X122419706Y-53578789D01*
X122488722Y-53603830D01*
X122547700Y-53609105D01*
X122588010Y-53602787D01*
X122637131Y-53586617D01*
X122685506Y-53564656D01*
X122723580Y-53540962D01*
X122736453Y-53528923D01*
X122747394Y-53519266D01*
X122760802Y-53518114D01*
X122780403Y-53527483D01*
X122809926Y-53549387D01*
X122853101Y-53585839D01*
X122871550Y-53601902D01*
X122922350Y-53646306D01*
X122884250Y-53679043D01*
X122787074Y-53747347D01*
X122683256Y-53791798D01*
X122574705Y-53811985D01*
X122463333Y-53807497D01*
X122379120Y-53787697D01*
X122290327Y-53747000D01*
X122217959Y-53686963D01*
X122162082Y-53607677D01*
X122122760Y-53509231D01*
X122101618Y-53404623D01*
X122094404Y-53283921D01*
X122101821Y-53190200D01*
X122304381Y-53190200D01*
X122716123Y-53190200D01*
X122708443Y-53142872D01*
X122687295Y-53080351D01*
X122649422Y-53031572D01*
X122599570Y-52997609D01*
X122542487Y-52979534D01*
X122482920Y-52978423D01*
X122425616Y-52995347D01*
X122375321Y-53031381D01*
X122350877Y-53062009D01*
X122329522Y-53101981D01*
X122314514Y-53142212D01*
X122312902Y-53148925D01*
X122304381Y-53190200D01*
X122101821Y-53190200D01*
X122103515Y-53168809D01*
X122127977Y-53063339D01*
X122166815Y-52971564D01*
X122219057Y-52897534D01*
X122225010Y-52891233D01*
X122283419Y-52839108D01*
X122343052Y-52804645D01*
X122410903Y-52785108D01*
X122493968Y-52777765D01*
X122515950Y-52777514D01*
X122575440Y-52778539D01*
X122575440Y-52778539D01*
G37*
X122575440Y-52778539D02*
X122618683Y-52782849D01*
X122654782Y-52792176D01*
X122692841Y-52808255D01*
X122702823Y-52813088D01*
X122782196Y-52865347D01*
X122848643Y-52935582D01*
X122896645Y-53017717D01*
X122902876Y-53033233D01*
X122915739Y-53074479D01*
X122923716Y-53119699D01*
X122927725Y-53176295D01*
X122928700Y-53241476D01*
X122928700Y-53380700D01*
X122617550Y-53380700D01*
X122517669Y-53380658D01*
X122440605Y-53381042D01*
X122383775Y-53382616D01*
X122344597Y-53386141D01*
X122320490Y-53392381D01*
X122308872Y-53402099D01*
X122307161Y-53416058D01*
X122312775Y-53435021D01*
X122323134Y-53459752D01*
X122326123Y-53466832D01*
X122365517Y-53533130D01*
X122419706Y-53578789D01*
X122488722Y-53603830D01*
X122547700Y-53609105D01*
X122588010Y-53602787D01*
X122637131Y-53586617D01*
X122685506Y-53564656D01*
X122723580Y-53540962D01*
X122736453Y-53528923D01*
X122747394Y-53519266D01*
X122760802Y-53518114D01*
X122780403Y-53527483D01*
X122809926Y-53549387D01*
X122853101Y-53585839D01*
X122871550Y-53601902D01*
X122922350Y-53646306D01*
X122884250Y-53679043D01*
X122787074Y-53747347D01*
X122683256Y-53791798D01*
X122574705Y-53811985D01*
X122463333Y-53807497D01*
X122379120Y-53787697D01*
X122290327Y-53747000D01*
X122217959Y-53686963D01*
X122162082Y-53607677D01*
X122122760Y-53509231D01*
X122101618Y-53404623D01*
X122094404Y-53283921D01*
X122101821Y-53190200D01*
X122304381Y-53190200D01*
X122716123Y-53190200D01*
X122708443Y-53142872D01*
X122687295Y-53080351D01*
X122649422Y-53031572D01*
X122599570Y-52997609D01*
X122542487Y-52979534D01*
X122482920Y-52978423D01*
X122425616Y-52995347D01*
X122375321Y-53031381D01*
X122350877Y-53062009D01*
X122329522Y-53101981D01*
X122314514Y-53142212D01*
X122312902Y-53148925D01*
X122304381Y-53190200D01*
X122101821Y-53190200D01*
X122103515Y-53168809D01*
X122127977Y-53063339D01*
X122166815Y-52971564D01*
X122219057Y-52897534D01*
X122225010Y-52891233D01*
X122283419Y-52839108D01*
X122343052Y-52804645D01*
X122410903Y-52785108D01*
X122493968Y-52777765D01*
X122515950Y-52777514D01*
X122575440Y-52778539D01*
G36*
X121732712Y-52774574D02*
X121832082Y-52797545D01*
X121927660Y-52841891D01*
X122016036Y-52907552D01*
X122017475Y-52908869D01*
X122040244Y-52931992D01*
X122051972Y-52948213D01*
X122052400Y-52950019D01*
X122043450Y-52962025D01*
X122019704Y-52985780D01*
X121985815Y-53016698D01*
X121976274Y-53025035D01*
X121900149Y-53090983D01*
X121858799Y-53056117D01*
X121787454Y-53010475D01*
X121711689Y-52988965D01*
X121634073Y-52991993D01*
X121574893Y-53011199D01*
X121519381Y-53047264D01*
X121479590Y-53098907D01*
X121454615Y-53168048D01*
X121443552Y-53256607D01*
X121442800Y-53291800D01*
X121449299Y-53387462D01*
X121469401Y-53463047D01*
X121504008Y-53520475D01*
X121554026Y-53561666D01*
X121574893Y-53572400D01*
X121652181Y-53594514D01*
X121729614Y-53591796D01*
X121804557Y-53564661D01*
X121858574Y-53527671D01*
X121899699Y-53492994D01*
X121976049Y-53559401D01*
X122011799Y-53591644D01*
X122038588Y-53617993D01*
X122051772Y-53633814D01*
X122052400Y-53635614D01*
X122042340Y-53652040D01*
X122015833Y-53677041D01*
X121978389Y-53706424D01*
X121935517Y-53735996D01*
X121892728Y-53761562D01*
X121875073Y-53770592D01*
X121791504Y-53798434D01*
X121696900Y-53809928D01*
X121600004Y-53804663D01*
X121523482Y-53787070D01*
X121436881Y-53746205D01*
X121379905Y-53702682D01*
X121318005Y-53635933D01*
X121273189Y-53560752D01*
X121244311Y-53473705D01*
X121230224Y-53371360D01*
X121229672Y-53252750D01*
X121238065Y-53153244D01*
X121254996Y-53072485D01*
X121282707Y-53004611D01*
X121323438Y-52943764D01*
X121365490Y-52897608D01*
X121445939Y-52834494D01*
X121536232Y-52792989D01*
X121632959Y-52773036D01*
X121732712Y-52774574D01*
X121732712Y-52774574D01*
G37*
X121732712Y-52774574D02*
X121832082Y-52797545D01*
X121927660Y-52841891D01*
X122016036Y-52907552D01*
X122017475Y-52908869D01*
X122040244Y-52931992D01*
X122051972Y-52948213D01*
X122052400Y-52950019D01*
X122043450Y-52962025D01*
X122019704Y-52985780D01*
X121985815Y-53016698D01*
X121976274Y-53025035D01*
X121900149Y-53090983D01*
X121858799Y-53056117D01*
X121787454Y-53010475D01*
X121711689Y-52988965D01*
X121634073Y-52991993D01*
X121574893Y-53011199D01*
X121519381Y-53047264D01*
X121479590Y-53098907D01*
X121454615Y-53168048D01*
X121443552Y-53256607D01*
X121442800Y-53291800D01*
X121449299Y-53387462D01*
X121469401Y-53463047D01*
X121504008Y-53520475D01*
X121554026Y-53561666D01*
X121574893Y-53572400D01*
X121652181Y-53594514D01*
X121729614Y-53591796D01*
X121804557Y-53564661D01*
X121858574Y-53527671D01*
X121899699Y-53492994D01*
X121976049Y-53559401D01*
X122011799Y-53591644D01*
X122038588Y-53617993D01*
X122051772Y-53633814D01*
X122052400Y-53635614D01*
X122042340Y-53652040D01*
X122015833Y-53677041D01*
X121978389Y-53706424D01*
X121935517Y-53735996D01*
X121892728Y-53761562D01*
X121875073Y-53770592D01*
X121791504Y-53798434D01*
X121696900Y-53809928D01*
X121600004Y-53804663D01*
X121523482Y-53787070D01*
X121436881Y-53746205D01*
X121379905Y-53702682D01*
X121318005Y-53635933D01*
X121273189Y-53560752D01*
X121244311Y-53473705D01*
X121230224Y-53371360D01*
X121229672Y-53252750D01*
X121238065Y-53153244D01*
X121254996Y-53072485D01*
X121282707Y-53004611D01*
X121323438Y-52943764D01*
X121365490Y-52897608D01*
X121445939Y-52834494D01*
X121536232Y-52792989D01*
X121632959Y-52773036D01*
X121732712Y-52774574D01*
G36*
X119753700Y-53112002D02*
X119753784Y-53212105D01*
X119754206Y-53290198D01*
X119755223Y-53349670D01*
X119757091Y-53393910D01*
X119760064Y-53426307D01*
X119764399Y-53450251D01*
X119770351Y-53469131D01*
X119778177Y-53486337D01*
X119782591Y-53494839D01*
X119823306Y-53548379D01*
X119875177Y-53582149D01*
X119933410Y-53596147D01*
X119993211Y-53590370D01*
X120049788Y-53564818D01*
X120098348Y-53519489D01*
X120114963Y-53494956D01*
X120122914Y-53479874D01*
X120129147Y-53462741D01*
X120133926Y-53440294D01*
X120137514Y-53409266D01*
X120140175Y-53366393D01*
X120142173Y-53308408D01*
X120143772Y-53232048D01*
X120145234Y-53134046D01*
X120145459Y-53117175D01*
X120149868Y-52783800D01*
X120350600Y-52783800D01*
X120350600Y-53799800D01*
X120147400Y-53799800D01*
X120147400Y-53696220D01*
X120096696Y-53739621D01*
X120023551Y-53786349D01*
X119941882Y-53810373D01*
X119855112Y-53811403D01*
X119766662Y-53789151D01*
X119726234Y-53770955D01*
X119649444Y-53718467D01*
X119593080Y-53650938D01*
X119557365Y-53568653D01*
X119551596Y-53545381D01*
X119547564Y-53513378D01*
X119544074Y-53459463D01*
X119541243Y-53387120D01*
X119539187Y-53299833D01*
X119538023Y-53201086D01*
X119537800Y-53132424D01*
X119537800Y-52783800D01*
X119753700Y-52783800D01*
X119753700Y-53112002D01*
X119753700Y-53112002D01*
G37*
X119753700Y-53112002D02*
X119753784Y-53212105D01*
X119754206Y-53290198D01*
X119755223Y-53349670D01*
X119757091Y-53393910D01*
X119760064Y-53426307D01*
X119764399Y-53450251D01*
X119770351Y-53469131D01*
X119778177Y-53486337D01*
X119782591Y-53494839D01*
X119823306Y-53548379D01*
X119875177Y-53582149D01*
X119933410Y-53596147D01*
X119993211Y-53590370D01*
X120049788Y-53564818D01*
X120098348Y-53519489D01*
X120114963Y-53494956D01*
X120122914Y-53479874D01*
X120129147Y-53462741D01*
X120133926Y-53440294D01*
X120137514Y-53409266D01*
X120140175Y-53366393D01*
X120142173Y-53308408D01*
X120143772Y-53232048D01*
X120145234Y-53134046D01*
X120145459Y-53117175D01*
X120149868Y-52783800D01*
X120350600Y-52783800D01*
X120350600Y-53799800D01*
X120147400Y-53799800D01*
X120147400Y-53696220D01*
X120096696Y-53739621D01*
X120023551Y-53786349D01*
X119941882Y-53810373D01*
X119855112Y-53811403D01*
X119766662Y-53789151D01*
X119726234Y-53770955D01*
X119649444Y-53718467D01*
X119593080Y-53650938D01*
X119557365Y-53568653D01*
X119551596Y-53545381D01*
X119547564Y-53513378D01*
X119544074Y-53459463D01*
X119541243Y-53387120D01*
X119539187Y-53299833D01*
X119538023Y-53201086D01*
X119537800Y-53132424D01*
X119537800Y-52783800D01*
X119753700Y-52783800D01*
X119753700Y-53112002D01*
G36*
X118986007Y-52773914D02*
X119089146Y-52792087D01*
X119180168Y-52831797D01*
X119257113Y-52891728D01*
X119318020Y-52970566D01*
X119339205Y-53010845D01*
X119349171Y-53034621D01*
X119356371Y-53059264D01*
X119361245Y-53089331D01*
X119364234Y-53129381D01*
X119365778Y-53183971D01*
X119366317Y-53257659D01*
X119366350Y-53291800D01*
X119366078Y-53373985D01*
X119364970Y-53435332D01*
X119362585Y-53480397D01*
X119358483Y-53513739D01*
X119352224Y-53539916D01*
X119343366Y-53563485D01*
X119339205Y-53572754D01*
X119286125Y-53659976D01*
X119217065Y-53727664D01*
X119133079Y-53775125D01*
X119035219Y-53801669D01*
X118982862Y-53806813D01*
X118929609Y-53807826D01*
X118881456Y-53806118D01*
X118847994Y-53802060D01*
X118845650Y-53801493D01*
X118760945Y-53768494D01*
X118684997Y-53718402D01*
X118623431Y-53655736D01*
X118584891Y-53592144D01*
X118561771Y-53520719D01*
X118545944Y-53432306D01*
X118537686Y-53334332D01*
X118537436Y-53273055D01*
X118750665Y-53273055D01*
X118753164Y-53349258D01*
X118762242Y-53420473D01*
X118777752Y-53479468D01*
X118792761Y-53510234D01*
X118839086Y-53558345D01*
X118897873Y-53587012D01*
X118963929Y-53595048D01*
X119032060Y-53581270D01*
X119056660Y-53570454D01*
X119094650Y-53545654D01*
X119122155Y-53513210D01*
X119140587Y-53469178D01*
X119151355Y-53409611D01*
X119155870Y-53330561D01*
X119156242Y-53291800D01*
X119154033Y-53203959D01*
X119146394Y-53137287D01*
X119131802Y-53087853D01*
X119108737Y-53051728D01*
X119075678Y-53024982D01*
X119047320Y-53010415D01*
X118975553Y-52990348D01*
X118907680Y-52993622D01*
X118847264Y-53019202D01*
X118797869Y-53066052D01*
X118784119Y-53086814D01*
X118765995Y-53134603D01*
X118754893Y-53199093D01*
X118750665Y-53273055D01*
X118537436Y-53273055D01*
X118537277Y-53234221D01*
X118544994Y-53139399D01*
X118561117Y-53057291D01*
X118564414Y-53046089D01*
X118604618Y-52956646D01*
X118663364Y-52883098D01*
X118738214Y-52827017D01*
X118826734Y-52789975D01*
X118926486Y-52773546D01*
X118986007Y-52773914D01*
X118986007Y-52773914D01*
G37*
X118986007Y-52773914D02*
X119089146Y-52792087D01*
X119180168Y-52831797D01*
X119257113Y-52891728D01*
X119318020Y-52970566D01*
X119339205Y-53010845D01*
X119349171Y-53034621D01*
X119356371Y-53059264D01*
X119361245Y-53089331D01*
X119364234Y-53129381D01*
X119365778Y-53183971D01*
X119366317Y-53257659D01*
X119366350Y-53291800D01*
X119366078Y-53373985D01*
X119364970Y-53435332D01*
X119362585Y-53480397D01*
X119358483Y-53513739D01*
X119352224Y-53539916D01*
X119343366Y-53563485D01*
X119339205Y-53572754D01*
X119286125Y-53659976D01*
X119217065Y-53727664D01*
X119133079Y-53775125D01*
X119035219Y-53801669D01*
X118982862Y-53806813D01*
X118929609Y-53807826D01*
X118881456Y-53806118D01*
X118847994Y-53802060D01*
X118845650Y-53801493D01*
X118760945Y-53768494D01*
X118684997Y-53718402D01*
X118623431Y-53655736D01*
X118584891Y-53592144D01*
X118561771Y-53520719D01*
X118545944Y-53432306D01*
X118537686Y-53334332D01*
X118537436Y-53273055D01*
X118750665Y-53273055D01*
X118753164Y-53349258D01*
X118762242Y-53420473D01*
X118777752Y-53479468D01*
X118792761Y-53510234D01*
X118839086Y-53558345D01*
X118897873Y-53587012D01*
X118963929Y-53595048D01*
X119032060Y-53581270D01*
X119056660Y-53570454D01*
X119094650Y-53545654D01*
X119122155Y-53513210D01*
X119140587Y-53469178D01*
X119151355Y-53409611D01*
X119155870Y-53330561D01*
X119156242Y-53291800D01*
X119154033Y-53203959D01*
X119146394Y-53137287D01*
X119131802Y-53087853D01*
X119108737Y-53051728D01*
X119075678Y-53024982D01*
X119047320Y-53010415D01*
X118975553Y-52990348D01*
X118907680Y-52993622D01*
X118847264Y-53019202D01*
X118797869Y-53066052D01*
X118784119Y-53086814D01*
X118765995Y-53134603D01*
X118754893Y-53199093D01*
X118750665Y-53273055D01*
X118537436Y-53273055D01*
X118537277Y-53234221D01*
X118544994Y-53139399D01*
X118561117Y-53057291D01*
X118564414Y-53046089D01*
X118604618Y-52956646D01*
X118663364Y-52883098D01*
X118738214Y-52827017D01*
X118826734Y-52789975D01*
X118926486Y-52773546D01*
X118986007Y-52773914D01*
G36*
X118086875Y-52776525D02*
X118133980Y-52782452D01*
X118190386Y-52797299D01*
X118254367Y-52820652D01*
X118316686Y-52848565D01*
X118368105Y-52877093D01*
X118387111Y-52890571D01*
X118397662Y-52899790D01*
X118402124Y-52909170D01*
X118398529Y-52922536D01*
X118384910Y-52943712D01*
X118359298Y-52976522D01*
X118319726Y-53024793D01*
X118315297Y-53030167D01*
X118284953Y-53066984D01*
X118202299Y-53026293D01*
X118138136Y-52999923D01*
X118073849Y-52982236D01*
X118047778Y-52978185D01*
X117979162Y-52978016D01*
X117921334Y-52991143D01*
X117877493Y-53015437D01*
X117850841Y-53048764D01*
X117844578Y-53088995D01*
X117849728Y-53110060D01*
X117862008Y-53131580D01*
X117883296Y-53148232D01*
X117917309Y-53161264D01*
X117967765Y-53171923D01*
X118038379Y-53181458D01*
X118073825Y-53185312D01*
X118138417Y-53193306D01*
X118197680Y-53202968D01*
X118244819Y-53213046D01*
X118272041Y-53221800D01*
X118338867Y-53266573D01*
X118388854Y-53327653D01*
X118413787Y-53384450D01*
X118430587Y-53477940D01*
X118423686Y-53563119D01*
X118393712Y-53638597D01*
X118341293Y-53702985D01*
X118267057Y-53754892D01*
X118240536Y-53767864D01*
X118192090Y-53787171D01*
X118145852Y-53798929D01*
X118091471Y-53805246D01*
X118046057Y-53807458D01*
X117986495Y-53807880D01*
X117929272Y-53805621D01*
X117884390Y-53801147D01*
X117874816Y-53799441D01*
X117822147Y-53783514D01*
X117758634Y-53757266D01*
X117693360Y-53725130D01*
X117635404Y-53691536D01*
X117597473Y-53664118D01*
X117555797Y-53628349D01*
X117630760Y-53554168D01*
X117705722Y-53479987D01*
X117770985Y-53526874D01*
X117859984Y-53577419D01*
X117954154Y-53603856D01*
X118025343Y-53608689D01*
X118094071Y-53600781D01*
X118150308Y-53579955D01*
X118190854Y-53548653D01*
X118212505Y-53509321D01*
X118212452Y-53465911D01*
X118203179Y-53443052D01*
X118185921Y-53425590D01*
X118156933Y-53412134D01*
X118112467Y-53401290D01*
X118048775Y-53391667D01*
X117996048Y-53385489D01*
X117887759Y-53369194D01*
X117801845Y-53345630D01*
X117735924Y-53313219D01*
X117687618Y-53270383D01*
X117654544Y-53215544D01*
X117634324Y-53147125D01*
X117634005Y-53145453D01*
X117627797Y-53054695D01*
X117644184Y-52973871D01*
X117681783Y-52904540D01*
X117739210Y-52848261D01*
X117815081Y-52806594D01*
X117908011Y-52781100D01*
X117963000Y-52774725D01*
X118023543Y-52773448D01*
X118086875Y-52776525D01*
X118086875Y-52776525D01*
G37*
X118086875Y-52776525D02*
X118133980Y-52782452D01*
X118190386Y-52797299D01*
X118254367Y-52820652D01*
X118316686Y-52848565D01*
X118368105Y-52877093D01*
X118387111Y-52890571D01*
X118397662Y-52899790D01*
X118402124Y-52909170D01*
X118398529Y-52922536D01*
X118384910Y-52943712D01*
X118359298Y-52976522D01*
X118319726Y-53024793D01*
X118315297Y-53030167D01*
X118284953Y-53066984D01*
X118202299Y-53026293D01*
X118138136Y-52999923D01*
X118073849Y-52982236D01*
X118047778Y-52978185D01*
X117979162Y-52978016D01*
X117921334Y-52991143D01*
X117877493Y-53015437D01*
X117850841Y-53048764D01*
X117844578Y-53088995D01*
X117849728Y-53110060D01*
X117862008Y-53131580D01*
X117883296Y-53148232D01*
X117917309Y-53161264D01*
X117967765Y-53171923D01*
X118038379Y-53181458D01*
X118073825Y-53185312D01*
X118138417Y-53193306D01*
X118197680Y-53202968D01*
X118244819Y-53213046D01*
X118272041Y-53221800D01*
X118338867Y-53266573D01*
X118388854Y-53327653D01*
X118413787Y-53384450D01*
X118430587Y-53477940D01*
X118423686Y-53563119D01*
X118393712Y-53638597D01*
X118341293Y-53702985D01*
X118267057Y-53754892D01*
X118240536Y-53767864D01*
X118192090Y-53787171D01*
X118145852Y-53798929D01*
X118091471Y-53805246D01*
X118046057Y-53807458D01*
X117986495Y-53807880D01*
X117929272Y-53805621D01*
X117884390Y-53801147D01*
X117874816Y-53799441D01*
X117822147Y-53783514D01*
X117758634Y-53757266D01*
X117693360Y-53725130D01*
X117635404Y-53691536D01*
X117597473Y-53664118D01*
X117555797Y-53628349D01*
X117630760Y-53554168D01*
X117705722Y-53479987D01*
X117770985Y-53526874D01*
X117859984Y-53577419D01*
X117954154Y-53603856D01*
X118025343Y-53608689D01*
X118094071Y-53600781D01*
X118150308Y-53579955D01*
X118190854Y-53548653D01*
X118212505Y-53509321D01*
X118212452Y-53465911D01*
X118203179Y-53443052D01*
X118185921Y-53425590D01*
X118156933Y-53412134D01*
X118112467Y-53401290D01*
X118048775Y-53391667D01*
X117996048Y-53385489D01*
X117887759Y-53369194D01*
X117801845Y-53345630D01*
X117735924Y-53313219D01*
X117687618Y-53270383D01*
X117654544Y-53215544D01*
X117634324Y-53147125D01*
X117634005Y-53145453D01*
X117627797Y-53054695D01*
X117644184Y-52973871D01*
X117681783Y-52904540D01*
X117739210Y-52848261D01*
X117815081Y-52806594D01*
X117908011Y-52781100D01*
X117963000Y-52774725D01*
X118023543Y-52773448D01*
X118086875Y-52776525D01*
G36*
X115673908Y-52773904D02*
X115766985Y-52795900D01*
X115852712Y-52838167D01*
X115927221Y-52899116D01*
X115986645Y-52977158D01*
X116005135Y-53012400D01*
X116019988Y-53047983D01*
X116030099Y-53083515D01*
X116036666Y-53125919D01*
X116040885Y-53182114D01*
X116043014Y-53231475D01*
X116048430Y-53380700D01*
X115423000Y-53380700D01*
X115423000Y-53409759D01*
X115428669Y-53438212D01*
X115443014Y-53476778D01*
X115451575Y-53494928D01*
X115492833Y-53550506D01*
X115548170Y-53587763D01*
X115613595Y-53606232D01*
X115685120Y-53605444D01*
X115758755Y-53584931D01*
X115830510Y-53544224D01*
X115836099Y-53540044D01*
X115875915Y-53509675D01*
X115951082Y-53577274D01*
X116026250Y-53644873D01*
X115988270Y-53684944D01*
X115956412Y-53711862D01*
X115911716Y-53741607D01*
X115871138Y-53763982D01*
X115824919Y-53784629D01*
X115782782Y-53797227D01*
X115734400Y-53804121D01*
X115680517Y-53807252D01*
X115623056Y-53807853D01*
X115569264Y-53805634D01*
X115528655Y-53801062D01*
X115521012Y-53799440D01*
X115448569Y-53773760D01*
X115382652Y-53732893D01*
X115345121Y-53701522D01*
X115286557Y-53633215D01*
X115244382Y-53548355D01*
X115218182Y-53445730D01*
X115207546Y-53324122D01*
X115207250Y-53296195D01*
X115214343Y-53190200D01*
X115419676Y-53190200D01*
X115624538Y-53190200D01*
X115701127Y-53189997D01*
X115755921Y-53189124D01*
X115792523Y-53187181D01*
X115814535Y-53183768D01*
X115825560Y-53178486D01*
X115829202Y-53170935D01*
X115829400Y-53167490D01*
X115821471Y-53133527D01*
X115801240Y-53090500D01*
X115774040Y-53047624D01*
X115745206Y-53014114D01*
X115736393Y-53006793D01*
X115692331Y-52987331D01*
X115636355Y-52979502D01*
X115578769Y-52983304D01*
X115529877Y-52998735D01*
X115516791Y-53006834D01*
X115462904Y-53059397D01*
X115432610Y-53119577D01*
X115427356Y-53142872D01*
X115419676Y-53190200D01*
X115214343Y-53190200D01*
X115216069Y-53164419D01*
X115242183Y-53051234D01*
X115285590Y-52956645D01*
X115346287Y-52880657D01*
X115424272Y-52823274D01*
X115481181Y-52797088D01*
X115577351Y-52773771D01*
X115673908Y-52773904D01*
X115673908Y-52773904D01*
G37*
X115673908Y-52773904D02*
X115766985Y-52795900D01*
X115852712Y-52838167D01*
X115927221Y-52899116D01*
X115986645Y-52977158D01*
X116005135Y-53012400D01*
X116019988Y-53047983D01*
X116030099Y-53083515D01*
X116036666Y-53125919D01*
X116040885Y-53182114D01*
X116043014Y-53231475D01*
X116048430Y-53380700D01*
X115423000Y-53380700D01*
X115423000Y-53409759D01*
X115428669Y-53438212D01*
X115443014Y-53476778D01*
X115451575Y-53494928D01*
X115492833Y-53550506D01*
X115548170Y-53587763D01*
X115613595Y-53606232D01*
X115685120Y-53605444D01*
X115758755Y-53584931D01*
X115830510Y-53544224D01*
X115836099Y-53540044D01*
X115875915Y-53509675D01*
X115951082Y-53577274D01*
X116026250Y-53644873D01*
X115988270Y-53684944D01*
X115956412Y-53711862D01*
X115911716Y-53741607D01*
X115871138Y-53763982D01*
X115824919Y-53784629D01*
X115782782Y-53797227D01*
X115734400Y-53804121D01*
X115680517Y-53807252D01*
X115623056Y-53807853D01*
X115569264Y-53805634D01*
X115528655Y-53801062D01*
X115521012Y-53799440D01*
X115448569Y-53773760D01*
X115382652Y-53732893D01*
X115345121Y-53701522D01*
X115286557Y-53633215D01*
X115244382Y-53548355D01*
X115218182Y-53445730D01*
X115207546Y-53324122D01*
X115207250Y-53296195D01*
X115214343Y-53190200D01*
X115419676Y-53190200D01*
X115624538Y-53190200D01*
X115701127Y-53189997D01*
X115755921Y-53189124D01*
X115792523Y-53187181D01*
X115814535Y-53183768D01*
X115825560Y-53178486D01*
X115829202Y-53170935D01*
X115829400Y-53167490D01*
X115821471Y-53133527D01*
X115801240Y-53090500D01*
X115774040Y-53047624D01*
X115745206Y-53014114D01*
X115736393Y-53006793D01*
X115692331Y-52987331D01*
X115636355Y-52979502D01*
X115578769Y-52983304D01*
X115529877Y-52998735D01*
X115516791Y-53006834D01*
X115462904Y-53059397D01*
X115432610Y-53119577D01*
X115427356Y-53142872D01*
X115419676Y-53190200D01*
X115214343Y-53190200D01*
X115216069Y-53164419D01*
X115242183Y-53051234D01*
X115285590Y-52956645D01*
X115346287Y-52880657D01*
X115424272Y-52823274D01*
X115481181Y-52797088D01*
X115577351Y-52773771D01*
X115673908Y-52773904D01*
G36*
X113754616Y-52778366D02*
X113849370Y-52804319D01*
X113932287Y-52849947D01*
X114000698Y-52913425D01*
X114051936Y-52992927D01*
X114078757Y-53066790D01*
X114087175Y-53116710D01*
X114092655Y-53184363D01*
X114095197Y-53262253D01*
X114094802Y-53342882D01*
X114091469Y-53418755D01*
X114085199Y-53482375D01*
X114078757Y-53516809D01*
X114043589Y-53606220D01*
X113989329Y-53681678D01*
X113919114Y-53741513D01*
X113836084Y-53784054D01*
X113743380Y-53807633D01*
X113644140Y-53810577D01*
X113555472Y-53795202D01*
X113465503Y-53758151D01*
X113387730Y-53699942D01*
X113324997Y-53623034D01*
X113297091Y-53571845D01*
X113287260Y-53548276D01*
X113280158Y-53523563D01*
X113275353Y-53493165D01*
X113272410Y-53452539D01*
X113270895Y-53397146D01*
X113270376Y-53322443D01*
X113270352Y-53293393D01*
X113478376Y-53293393D01*
X113479071Y-53358887D01*
X113481818Y-53405698D01*
X113487603Y-53440523D01*
X113497415Y-53470056D01*
X113507712Y-53492170D01*
X113546119Y-53547612D01*
X113595605Y-53581042D01*
X113658665Y-53593819D01*
X113693151Y-53593117D01*
X113748557Y-53583346D01*
X113791159Y-53564956D01*
X113794751Y-53562433D01*
X113827942Y-53533873D01*
X113851472Y-53502379D01*
X113866878Y-53463068D01*
X113875699Y-53411057D01*
X113879470Y-53341463D01*
X113879950Y-53291800D01*
X113879204Y-53219622D01*
X113876593Y-53167723D01*
X113871554Y-53131016D01*
X113863521Y-53104413D01*
X113857916Y-53092776D01*
X113815169Y-53038949D01*
X113758846Y-53004313D01*
X113693492Y-52990259D01*
X113623654Y-52998180D01*
X113589259Y-53010467D01*
X113547504Y-53034392D01*
X113517080Y-53066304D01*
X113496502Y-53109994D01*
X113484283Y-53169253D01*
X113478937Y-53247875D01*
X113478376Y-53293393D01*
X113270352Y-53293393D01*
X113270350Y-53291800D01*
X113270621Y-53209614D01*
X113271729Y-53148267D01*
X113274114Y-53103202D01*
X113278216Y-53069860D01*
X113284475Y-53043683D01*
X113293333Y-53020114D01*
X113297494Y-53010845D01*
X113350733Y-52924117D01*
X113420873Y-52855717D01*
X113505952Y-52806960D01*
X113604008Y-52779162D01*
X113650692Y-52773914D01*
X113754616Y-52778366D01*
X113754616Y-52778366D01*
G37*
X113754616Y-52778366D02*
X113849370Y-52804319D01*
X113932287Y-52849947D01*
X114000698Y-52913425D01*
X114051936Y-52992927D01*
X114078757Y-53066790D01*
X114087175Y-53116710D01*
X114092655Y-53184363D01*
X114095197Y-53262253D01*
X114094802Y-53342882D01*
X114091469Y-53418755D01*
X114085199Y-53482375D01*
X114078757Y-53516809D01*
X114043589Y-53606220D01*
X113989329Y-53681678D01*
X113919114Y-53741513D01*
X113836084Y-53784054D01*
X113743380Y-53807633D01*
X113644140Y-53810577D01*
X113555472Y-53795202D01*
X113465503Y-53758151D01*
X113387730Y-53699942D01*
X113324997Y-53623034D01*
X113297091Y-53571845D01*
X113287260Y-53548276D01*
X113280158Y-53523563D01*
X113275353Y-53493165D01*
X113272410Y-53452539D01*
X113270895Y-53397146D01*
X113270376Y-53322443D01*
X113270352Y-53293393D01*
X113478376Y-53293393D01*
X113479071Y-53358887D01*
X113481818Y-53405698D01*
X113487603Y-53440523D01*
X113497415Y-53470056D01*
X113507712Y-53492170D01*
X113546119Y-53547612D01*
X113595605Y-53581042D01*
X113658665Y-53593819D01*
X113693151Y-53593117D01*
X113748557Y-53583346D01*
X113791159Y-53564956D01*
X113794751Y-53562433D01*
X113827942Y-53533873D01*
X113851472Y-53502379D01*
X113866878Y-53463068D01*
X113875699Y-53411057D01*
X113879470Y-53341463D01*
X113879950Y-53291800D01*
X113879204Y-53219622D01*
X113876593Y-53167723D01*
X113871554Y-53131016D01*
X113863521Y-53104413D01*
X113857916Y-53092776D01*
X113815169Y-53038949D01*
X113758846Y-53004313D01*
X113693492Y-52990259D01*
X113623654Y-52998180D01*
X113589259Y-53010467D01*
X113547504Y-53034392D01*
X113517080Y-53066304D01*
X113496502Y-53109994D01*
X113484283Y-53169253D01*
X113478937Y-53247875D01*
X113478376Y-53293393D01*
X113270352Y-53293393D01*
X113270350Y-53291800D01*
X113270621Y-53209614D01*
X113271729Y-53148267D01*
X113274114Y-53103202D01*
X113278216Y-53069860D01*
X113284475Y-53043683D01*
X113293333Y-53020114D01*
X113297494Y-53010845D01*
X113350733Y-52924117D01*
X113420873Y-52855717D01*
X113505952Y-52806960D01*
X113604008Y-52779162D01*
X113650692Y-52773914D01*
X113754616Y-52778366D01*
G36*
X121515955Y-54374292D02*
X121605695Y-54403940D01*
X121660966Y-54434734D01*
X121730403Y-54493293D01*
X121781803Y-54565859D01*
X121815928Y-54654169D01*
X121833540Y-54759956D01*
X121836500Y-54834986D01*
X121836500Y-54968200D01*
X121211373Y-54968200D01*
X121220202Y-55015825D01*
X121244784Y-55087634D01*
X121287695Y-55142557D01*
X121347038Y-55179073D01*
X121420914Y-55195658D01*
X121445469Y-55196521D01*
X121505310Y-55189857D01*
X121563364Y-55172491D01*
X121610758Y-55147642D01*
X121631680Y-55128962D01*
X121645660Y-55114763D01*
X121660180Y-55109609D01*
X121679129Y-55115255D01*
X121706398Y-55133457D01*
X121745879Y-55165969D01*
X121780496Y-55196103D01*
X121826784Y-55236744D01*
X121790488Y-55274630D01*
X121760058Y-55299902D01*
X121716195Y-55328734D01*
X121671873Y-55353082D01*
X121630451Y-55372284D01*
X121595001Y-55384506D01*
X121557070Y-55391489D01*
X121508203Y-55394975D01*
X121462202Y-55396283D01*
X121404316Y-55396414D01*
X121353001Y-55394609D01*
X121315552Y-55391218D01*
X121303100Y-55388673D01*
X121209584Y-55345475D01*
X121129427Y-55281557D01*
X121069562Y-55205436D01*
X121035698Y-55131205D01*
X121013449Y-55040317D01*
X121002915Y-54938756D01*
X121004197Y-54832505D01*
X121009492Y-54790400D01*
X121211373Y-54790400D01*
X121620600Y-54790400D01*
X121620600Y-54761340D01*
X121609774Y-54710023D01*
X121581062Y-54657632D01*
X121540113Y-54612651D01*
X121506300Y-54589656D01*
X121440728Y-54568611D01*
X121376727Y-54570697D01*
X121318317Y-54593765D01*
X121269514Y-54635662D01*
X121234339Y-54694239D01*
X121220202Y-54742775D01*
X121211373Y-54790400D01*
X121009492Y-54790400D01*
X121017398Y-54727550D01*
X121042619Y-54629873D01*
X121059081Y-54587200D01*
X121105753Y-54510198D01*
X121169485Y-54448468D01*
X121246324Y-54403011D01*
X121332317Y-54374829D01*
X121423512Y-54364922D01*
X121515955Y-54374292D01*
X121515955Y-54374292D01*
G37*
X121515955Y-54374292D02*
X121605695Y-54403940D01*
X121660966Y-54434734D01*
X121730403Y-54493293D01*
X121781803Y-54565859D01*
X121815928Y-54654169D01*
X121833540Y-54759956D01*
X121836500Y-54834986D01*
X121836500Y-54968200D01*
X121211373Y-54968200D01*
X121220202Y-55015825D01*
X121244784Y-55087634D01*
X121287695Y-55142557D01*
X121347038Y-55179073D01*
X121420914Y-55195658D01*
X121445469Y-55196521D01*
X121505310Y-55189857D01*
X121563364Y-55172491D01*
X121610758Y-55147642D01*
X121631680Y-55128962D01*
X121645660Y-55114763D01*
X121660180Y-55109609D01*
X121679129Y-55115255D01*
X121706398Y-55133457D01*
X121745879Y-55165969D01*
X121780496Y-55196103D01*
X121826784Y-55236744D01*
X121790488Y-55274630D01*
X121760058Y-55299902D01*
X121716195Y-55328734D01*
X121671873Y-55353082D01*
X121630451Y-55372284D01*
X121595001Y-55384506D01*
X121557070Y-55391489D01*
X121508203Y-55394975D01*
X121462202Y-55396283D01*
X121404316Y-55396414D01*
X121353001Y-55394609D01*
X121315552Y-55391218D01*
X121303100Y-55388673D01*
X121209584Y-55345475D01*
X121129427Y-55281557D01*
X121069562Y-55205436D01*
X121035698Y-55131205D01*
X121013449Y-55040317D01*
X121002915Y-54938756D01*
X121004197Y-54832505D01*
X121009492Y-54790400D01*
X121211373Y-54790400D01*
X121620600Y-54790400D01*
X121620600Y-54761340D01*
X121609774Y-54710023D01*
X121581062Y-54657632D01*
X121540113Y-54612651D01*
X121506300Y-54589656D01*
X121440728Y-54568611D01*
X121376727Y-54570697D01*
X121318317Y-54593765D01*
X121269514Y-54635662D01*
X121234339Y-54694239D01*
X121220202Y-54742775D01*
X121211373Y-54790400D01*
X121009492Y-54790400D01*
X121017398Y-54727550D01*
X121042619Y-54629873D01*
X121059081Y-54587200D01*
X121105753Y-54510198D01*
X121169485Y-54448468D01*
X121246324Y-54403011D01*
X121332317Y-54374829D01*
X121423512Y-54364922D01*
X121515955Y-54374292D01*
G36*
X120898303Y-54383551D02*
X120964791Y-54413905D01*
X121013390Y-54443236D01*
X120939980Y-54531093D01*
X120907056Y-54570548D01*
X120880793Y-54602119D01*
X120865099Y-54621105D01*
X120862495Y-54624331D01*
X120849909Y-54622241D01*
X120822097Y-54611039D01*
X120800195Y-54600633D01*
X120734555Y-54579514D01*
X120672804Y-54583436D01*
X120615375Y-54612277D01*
X120562703Y-54665913D01*
X120560934Y-54668261D01*
X120553142Y-54679949D01*
X120547011Y-54693783D01*
X120542297Y-54712855D01*
X120538757Y-54740260D01*
X120536149Y-54779090D01*
X120534230Y-54832438D01*
X120532757Y-54903399D01*
X120531486Y-54995064D01*
X120530828Y-55051651D01*
X120526907Y-55400000D01*
X120312500Y-55400000D01*
X120312500Y-54371300D01*
X120528400Y-54371300D01*
X120528400Y-54477652D01*
X120563325Y-54445077D01*
X120603827Y-54412164D01*
X120646166Y-54390412D01*
X120700528Y-54375040D01*
X120721652Y-54370778D01*
X120810305Y-54366058D01*
X120898303Y-54383551D01*
X120898303Y-54383551D01*
G37*
X120898303Y-54383551D02*
X120964791Y-54413905D01*
X121013390Y-54443236D01*
X120939980Y-54531093D01*
X120907056Y-54570548D01*
X120880793Y-54602119D01*
X120865099Y-54621105D01*
X120862495Y-54624331D01*
X120849909Y-54622241D01*
X120822097Y-54611039D01*
X120800195Y-54600633D01*
X120734555Y-54579514D01*
X120672804Y-54583436D01*
X120615375Y-54612277D01*
X120562703Y-54665913D01*
X120560934Y-54668261D01*
X120553142Y-54679949D01*
X120547011Y-54693783D01*
X120542297Y-54712855D01*
X120538757Y-54740260D01*
X120536149Y-54779090D01*
X120534230Y-54832438D01*
X120532757Y-54903399D01*
X120531486Y-54995064D01*
X120530828Y-55051651D01*
X120526907Y-55400000D01*
X120312500Y-55400000D01*
X120312500Y-54371300D01*
X120528400Y-54371300D01*
X120528400Y-54477652D01*
X120563325Y-54445077D01*
X120603827Y-54412164D01*
X120646166Y-54390412D01*
X120700528Y-54375040D01*
X120721652Y-54370778D01*
X120810305Y-54366058D01*
X120898303Y-54383551D01*
G36*
X119811602Y-54373389D02*
X119879687Y-54386989D01*
X119881040Y-54387392D01*
X119954154Y-54419662D01*
X120017575Y-54467393D01*
X120064893Y-54525249D01*
X120078724Y-54551984D01*
X120085360Y-54569905D01*
X120090711Y-54591337D01*
X120094962Y-54619258D01*
X120098298Y-54656644D01*
X120100902Y-54706472D01*
X120102961Y-54771719D01*
X120104658Y-54855361D01*
X120106179Y-54960375D01*
X120106708Y-55003125D01*
X120111477Y-55400000D01*
X119893400Y-55400000D01*
X119893013Y-55352375D01*
X119891725Y-55323488D01*
X119887355Y-55316933D01*
X119879008Y-55328180D01*
X119859393Y-55347701D01*
X119826405Y-55368756D01*
X119812719Y-55375526D01*
X119762819Y-55390025D01*
X119697223Y-55397955D01*
X119624791Y-55399221D01*
X119554389Y-55393730D01*
X119494878Y-55381388D01*
X119487529Y-55378972D01*
X119409461Y-55339391D01*
X119348806Y-55283065D01*
X119307053Y-55213039D01*
X119285692Y-55132357D01*
X119286099Y-55063118D01*
X119490224Y-55063118D01*
X119490890Y-55106947D01*
X119512552Y-55147704D01*
X119541315Y-55171746D01*
X119580533Y-55186211D01*
X119635774Y-55194996D01*
X119698265Y-55197920D01*
X119759230Y-55194800D01*
X119809896Y-55185456D01*
X119829939Y-55177729D01*
X119863090Y-55146658D01*
X119884524Y-55095212D01*
X119893194Y-55026066D01*
X119893329Y-55015825D01*
X119893400Y-54968200D01*
X119744175Y-54968219D01*
X119672572Y-54969157D01*
X119620891Y-54972362D01*
X119583710Y-54978457D01*
X119555605Y-54988066D01*
X119550636Y-54990444D01*
X119510243Y-55022268D01*
X119490224Y-55063118D01*
X119286099Y-55063118D01*
X119286212Y-55044065D01*
X119297263Y-54990077D01*
X119324317Y-54932518D01*
X119369834Y-54877595D01*
X119427334Y-54832745D01*
X119441347Y-54824755D01*
X119464115Y-54814034D01*
X119488985Y-54806249D01*
X119520717Y-54800796D01*
X119564077Y-54797072D01*
X119623825Y-54794473D01*
X119694818Y-54792612D01*
X119896287Y-54788116D01*
X119890822Y-54712565D01*
X119882052Y-54654990D01*
X119862567Y-54616432D01*
X119827675Y-54591674D01*
X119772682Y-54575505D01*
X119766302Y-54574238D01*
X119687692Y-54566316D01*
X119616660Y-54573042D01*
X119559097Y-54593557D01*
X119538613Y-54607514D01*
X119512838Y-54627423D01*
X119495477Y-54637641D01*
X119493727Y-54638000D01*
X119478822Y-54630604D01*
X119451350Y-54611622D01*
X119417368Y-54585858D01*
X119382932Y-54558119D01*
X119354099Y-54533209D01*
X119336924Y-54515935D01*
X119334600Y-54511735D01*
X119344979Y-54492545D01*
X119372062Y-54466594D01*
X119409765Y-54438339D01*
X119452004Y-54412238D01*
X119492694Y-54392751D01*
X119501146Y-54389689D01*
X119565640Y-54375123D01*
X119645160Y-54367513D01*
X119730287Y-54366917D01*
X119811602Y-54373389D01*
X119811602Y-54373389D01*
G37*
X119811602Y-54373389D02*
X119879687Y-54386989D01*
X119881040Y-54387392D01*
X119954154Y-54419662D01*
X120017575Y-54467393D01*
X120064893Y-54525249D01*
X120078724Y-54551984D01*
X120085360Y-54569905D01*
X120090711Y-54591337D01*
X120094962Y-54619258D01*
X120098298Y-54656644D01*
X120100902Y-54706472D01*
X120102961Y-54771719D01*
X120104658Y-54855361D01*
X120106179Y-54960375D01*
X120106708Y-55003125D01*
X120111477Y-55400000D01*
X119893400Y-55400000D01*
X119893013Y-55352375D01*
X119891725Y-55323488D01*
X119887355Y-55316933D01*
X119879008Y-55328180D01*
X119859393Y-55347701D01*
X119826405Y-55368756D01*
X119812719Y-55375526D01*
X119762819Y-55390025D01*
X119697223Y-55397955D01*
X119624791Y-55399221D01*
X119554389Y-55393730D01*
X119494878Y-55381388D01*
X119487529Y-55378972D01*
X119409461Y-55339391D01*
X119348806Y-55283065D01*
X119307053Y-55213039D01*
X119285692Y-55132357D01*
X119286099Y-55063118D01*
X119490224Y-55063118D01*
X119490890Y-55106947D01*
X119512552Y-55147704D01*
X119541315Y-55171746D01*
X119580533Y-55186211D01*
X119635774Y-55194996D01*
X119698265Y-55197920D01*
X119759230Y-55194800D01*
X119809896Y-55185456D01*
X119829939Y-55177729D01*
X119863090Y-55146658D01*
X119884524Y-55095212D01*
X119893194Y-55026066D01*
X119893329Y-55015825D01*
X119893400Y-54968200D01*
X119744175Y-54968219D01*
X119672572Y-54969157D01*
X119620891Y-54972362D01*
X119583710Y-54978457D01*
X119555605Y-54988066D01*
X119550636Y-54990444D01*
X119510243Y-55022268D01*
X119490224Y-55063118D01*
X119286099Y-55063118D01*
X119286212Y-55044065D01*
X119297263Y-54990077D01*
X119324317Y-54932518D01*
X119369834Y-54877595D01*
X119427334Y-54832745D01*
X119441347Y-54824755D01*
X119464115Y-54814034D01*
X119488985Y-54806249D01*
X119520717Y-54800796D01*
X119564077Y-54797072D01*
X119623825Y-54794473D01*
X119694818Y-54792612D01*
X119896287Y-54788116D01*
X119890822Y-54712565D01*
X119882052Y-54654990D01*
X119862567Y-54616432D01*
X119827675Y-54591674D01*
X119772682Y-54575505D01*
X119766302Y-54574238D01*
X119687692Y-54566316D01*
X119616660Y-54573042D01*
X119559097Y-54593557D01*
X119538613Y-54607514D01*
X119512838Y-54627423D01*
X119495477Y-54637641D01*
X119493727Y-54638000D01*
X119478822Y-54630604D01*
X119451350Y-54611622D01*
X119417368Y-54585858D01*
X119382932Y-54558119D01*
X119354099Y-54533209D01*
X119336924Y-54515935D01*
X119334600Y-54511735D01*
X119344979Y-54492545D01*
X119372062Y-54466594D01*
X119409765Y-54438339D01*
X119452004Y-54412238D01*
X119492694Y-54392751D01*
X119501146Y-54389689D01*
X119565640Y-54375123D01*
X119645160Y-54367513D01*
X119730287Y-54366917D01*
X119811602Y-54373389D01*
G36*
X118081507Y-54435493D02*
X118090434Y-54466842D01*
X118104710Y-54518045D01*
X118123047Y-54584437D01*
X118144159Y-54661355D01*
X118166760Y-54744133D01*
X118174353Y-54772043D01*
X118196074Y-54850838D01*
X118215912Y-54920690D01*
X118232828Y-54978112D01*
X118245784Y-55019615D01*
X118253740Y-55041711D01*
X118255464Y-55044400D01*
X118261057Y-55032813D01*
X118273294Y-55000111D01*
X118291114Y-54949380D01*
X118313451Y-54883706D01*
X118339244Y-54806177D01*
X118367429Y-54719880D01*
X118370294Y-54711025D01*
X118478042Y-54377650D01*
X118640007Y-54377650D01*
X118748766Y-54717209D01*
X118777075Y-54804163D01*
X118803235Y-54881792D01*
X118826202Y-54947213D01*
X118844932Y-54997546D01*
X118858383Y-55029910D01*
X118865510Y-55041424D01*
X118866041Y-55041059D01*
X118871544Y-55024953D01*
X118882621Y-54987751D01*
X118898298Y-54932900D01*
X118917601Y-54863846D01*
X118939555Y-54784035D01*
X118960238Y-54707850D01*
X118983693Y-54621799D01*
X119005390Y-54543830D01*
X119024356Y-54477310D01*
X119039618Y-54425610D01*
X119050201Y-54392096D01*
X119054893Y-54380301D01*
X119070899Y-54376136D01*
X119105792Y-54373739D01*
X119153097Y-54373461D01*
X119172014Y-54373951D01*
X119280160Y-54377650D01*
X119118141Y-54885650D01*
X118956121Y-55393650D01*
X118861449Y-55397326D01*
X118766776Y-55401002D01*
X118668073Y-55067126D01*
X118641893Y-54979200D01*
X118617747Y-54899306D01*
X118596642Y-54830673D01*
X118579580Y-54776531D01*
X118567568Y-54740110D01*
X118561608Y-54724638D01*
X118561459Y-54724439D01*
X118555968Y-54733784D01*
X118544376Y-54764544D01*
X118527663Y-54813741D01*
X118506807Y-54878397D01*
X118482786Y-54955534D01*
X118456579Y-55042172D01*
X118451950Y-55057723D01*
X118350350Y-55399818D01*
X118259024Y-55399909D01*
X118213540Y-55398723D01*
X118179054Y-55395515D01*
X118162438Y-55390952D01*
X118162040Y-55390475D01*
X118157077Y-55376671D01*
X118145287Y-55341272D01*
X118127515Y-55286893D01*
X118104610Y-55216153D01*
X118077416Y-55131668D01*
X118046780Y-55036056D01*
X118013548Y-54931933D01*
X118000836Y-54892000D01*
X117966810Y-54785113D01*
X117935060Y-54685514D01*
X117906438Y-54595864D01*
X117881794Y-54518825D01*
X117861982Y-54457057D01*
X117847851Y-54413222D01*
X117840255Y-54389981D01*
X117839286Y-54387175D01*
X117842838Y-54379259D01*
X117862859Y-54374295D01*
X117902564Y-54371814D01*
X117947985Y-54371300D01*
X118062689Y-54371300D01*
X118081507Y-54435493D01*
X118081507Y-54435493D01*
G37*
X118081507Y-54435493D02*
X118090434Y-54466842D01*
X118104710Y-54518045D01*
X118123047Y-54584437D01*
X118144159Y-54661355D01*
X118166760Y-54744133D01*
X118174353Y-54772043D01*
X118196074Y-54850838D01*
X118215912Y-54920690D01*
X118232828Y-54978112D01*
X118245784Y-55019615D01*
X118253740Y-55041711D01*
X118255464Y-55044400D01*
X118261057Y-55032813D01*
X118273294Y-55000111D01*
X118291114Y-54949380D01*
X118313451Y-54883706D01*
X118339244Y-54806177D01*
X118367429Y-54719880D01*
X118370294Y-54711025D01*
X118478042Y-54377650D01*
X118640007Y-54377650D01*
X118748766Y-54717209D01*
X118777075Y-54804163D01*
X118803235Y-54881792D01*
X118826202Y-54947213D01*
X118844932Y-54997546D01*
X118858383Y-55029910D01*
X118865510Y-55041424D01*
X118866041Y-55041059D01*
X118871544Y-55024953D01*
X118882621Y-54987751D01*
X118898298Y-54932900D01*
X118917601Y-54863846D01*
X118939555Y-54784035D01*
X118960238Y-54707850D01*
X118983693Y-54621799D01*
X119005390Y-54543830D01*
X119024356Y-54477310D01*
X119039618Y-54425610D01*
X119050201Y-54392096D01*
X119054893Y-54380301D01*
X119070899Y-54376136D01*
X119105792Y-54373739D01*
X119153097Y-54373461D01*
X119172014Y-54373951D01*
X119280160Y-54377650D01*
X119118141Y-54885650D01*
X118956121Y-55393650D01*
X118861449Y-55397326D01*
X118766776Y-55401002D01*
X118668073Y-55067126D01*
X118641893Y-54979200D01*
X118617747Y-54899306D01*
X118596642Y-54830673D01*
X118579580Y-54776531D01*
X118567568Y-54740110D01*
X118561608Y-54724638D01*
X118561459Y-54724439D01*
X118555968Y-54733784D01*
X118544376Y-54764544D01*
X118527663Y-54813741D01*
X118506807Y-54878397D01*
X118482786Y-54955534D01*
X118456579Y-55042172D01*
X118451950Y-55057723D01*
X118350350Y-55399818D01*
X118259024Y-55399909D01*
X118213540Y-55398723D01*
X118179054Y-55395515D01*
X118162438Y-55390952D01*
X118162040Y-55390475D01*
X118157077Y-55376671D01*
X118145287Y-55341272D01*
X118127515Y-55286893D01*
X118104610Y-55216153D01*
X118077416Y-55131668D01*
X118046780Y-55036056D01*
X118013548Y-54931933D01*
X118000836Y-54892000D01*
X117966810Y-54785113D01*
X117935060Y-54685514D01*
X117906438Y-54595864D01*
X117881794Y-54518825D01*
X117861982Y-54457057D01*
X117847851Y-54413222D01*
X117840255Y-54389981D01*
X117839286Y-54387175D01*
X117842838Y-54379259D01*
X117862859Y-54374295D01*
X117902564Y-54371814D01*
X117947985Y-54371300D01*
X118062689Y-54371300D01*
X118081507Y-54435493D01*
G36*
X117747100Y-55400000D02*
X117531200Y-55400000D01*
X117531200Y-55293972D01*
X117502625Y-55320797D01*
X117440302Y-55363170D01*
X117364063Y-55390068D01*
X117280730Y-55400677D01*
X117197128Y-55394183D01*
X117120083Y-55369772D01*
X117114573Y-55367104D01*
X117040538Y-55317114D01*
X116984980Y-55251175D01*
X116954050Y-55184502D01*
X116940168Y-55124225D01*
X116930851Y-55047695D01*
X116925953Y-54960472D01*
X116925599Y-54907595D01*
X117141734Y-54907595D01*
X117147270Y-54981572D01*
X117162364Y-55061005D01*
X117185899Y-55118366D01*
X117220237Y-55156244D01*
X117267739Y-55177229D01*
X117330767Y-55183908D01*
X117331805Y-55183912D01*
X117376839Y-55180115D01*
X117417324Y-55170358D01*
X117428344Y-55165699D01*
X117463706Y-55140391D01*
X117489285Y-55103770D01*
X117507416Y-55051134D01*
X117519995Y-54981057D01*
X117525781Y-54908172D01*
X117524920Y-54832761D01*
X117518085Y-54761596D01*
X117505951Y-54701450D01*
X117489194Y-54659094D01*
X117487688Y-54656700D01*
X117445892Y-54612159D01*
X117390813Y-54587724D01*
X117334350Y-54581757D01*
X117266513Y-54590804D01*
X117214154Y-54618861D01*
X117180900Y-54656868D01*
X117163192Y-54698637D01*
X117150301Y-54758797D01*
X117142918Y-54830673D01*
X117141734Y-54907595D01*
X116925599Y-54907595D01*
X116925333Y-54868113D01*
X116928845Y-54776177D01*
X116936348Y-54690221D01*
X116947696Y-54615804D01*
X116962747Y-54558485D01*
X116970697Y-54539737D01*
X117020656Y-54468464D01*
X117087463Y-54414964D01*
X117168371Y-54380844D01*
X117260636Y-54367714D01*
X117264500Y-54367648D01*
X117347348Y-54375896D01*
X117425227Y-54400787D01*
X117489978Y-54439486D01*
X117502466Y-54450334D01*
X117531200Y-54477327D01*
X117531200Y-53964900D01*
X117747100Y-53964900D01*
X117747100Y-55400000D01*
X117747100Y-55400000D01*
G37*
X117747100Y-55400000D02*
X117531200Y-55400000D01*
X117531200Y-55293972D01*
X117502625Y-55320797D01*
X117440302Y-55363170D01*
X117364063Y-55390068D01*
X117280730Y-55400677D01*
X117197128Y-55394183D01*
X117120083Y-55369772D01*
X117114573Y-55367104D01*
X117040538Y-55317114D01*
X116984980Y-55251175D01*
X116954050Y-55184502D01*
X116940168Y-55124225D01*
X116930851Y-55047695D01*
X116925953Y-54960472D01*
X116925599Y-54907595D01*
X117141734Y-54907595D01*
X117147270Y-54981572D01*
X117162364Y-55061005D01*
X117185899Y-55118366D01*
X117220237Y-55156244D01*
X117267739Y-55177229D01*
X117330767Y-55183908D01*
X117331805Y-55183912D01*
X117376839Y-55180115D01*
X117417324Y-55170358D01*
X117428344Y-55165699D01*
X117463706Y-55140391D01*
X117489285Y-55103770D01*
X117507416Y-55051134D01*
X117519995Y-54981057D01*
X117525781Y-54908172D01*
X117524920Y-54832761D01*
X117518085Y-54761596D01*
X117505951Y-54701450D01*
X117489194Y-54659094D01*
X117487688Y-54656700D01*
X117445892Y-54612159D01*
X117390813Y-54587724D01*
X117334350Y-54581757D01*
X117266513Y-54590804D01*
X117214154Y-54618861D01*
X117180900Y-54656868D01*
X117163192Y-54698637D01*
X117150301Y-54758797D01*
X117142918Y-54830673D01*
X117141734Y-54907595D01*
X116925599Y-54907595D01*
X116925333Y-54868113D01*
X116928845Y-54776177D01*
X116936348Y-54690221D01*
X116947696Y-54615804D01*
X116962747Y-54558485D01*
X116970697Y-54539737D01*
X117020656Y-54468464D01*
X117087463Y-54414964D01*
X117168371Y-54380844D01*
X117260636Y-54367714D01*
X117264500Y-54367648D01*
X117347348Y-54375896D01*
X117425227Y-54400787D01*
X117489978Y-54439486D01*
X117502466Y-54450334D01*
X117531200Y-54477327D01*
X117531200Y-53964900D01*
X117747100Y-53964900D01*
X117747100Y-55400000D01*
G36*
X116754516Y-54367177D02*
X116839872Y-54388920D01*
X116867625Y-54401415D01*
X116903236Y-54420572D01*
X116927428Y-54435685D01*
X116934300Y-54442278D01*
X116926783Y-54454790D01*
X116907205Y-54480835D01*
X116880022Y-54515007D01*
X116849693Y-54551902D01*
X116820674Y-54586114D01*
X116797422Y-54612237D01*
X116784395Y-54624867D01*
X116783376Y-54625300D01*
X116769302Y-54620233D01*
X116740496Y-54607361D01*
X116722435Y-54598779D01*
X116657460Y-54579897D01*
X116594618Y-54584990D01*
X116537933Y-54612705D01*
X116491425Y-54661687D01*
X116480021Y-54680396D01*
X116473257Y-54695621D01*
X116467901Y-54715826D01*
X116463736Y-54744131D01*
X116460551Y-54783658D01*
X116458129Y-54837530D01*
X116456257Y-54908867D01*
X116454721Y-55000792D01*
X116453953Y-55060275D01*
X116449856Y-55400000D01*
X116351295Y-55400000D01*
X116303471Y-55398977D01*
X116265998Y-55396271D01*
X116245693Y-55392420D01*
X116244266Y-55391533D01*
X116242413Y-55377383D01*
X116240699Y-55340589D01*
X116239171Y-55283903D01*
X116237874Y-55210080D01*
X116236853Y-55121876D01*
X116236154Y-55022044D01*
X116235821Y-54913338D01*
X116235800Y-54877183D01*
X116235800Y-54371300D01*
X116451700Y-54371300D01*
X116451700Y-54472732D01*
X116509140Y-54428887D01*
X116583260Y-54387612D01*
X116667016Y-54366892D01*
X116754516Y-54367177D01*
X116754516Y-54367177D01*
G37*
X116754516Y-54367177D02*
X116839872Y-54388920D01*
X116867625Y-54401415D01*
X116903236Y-54420572D01*
X116927428Y-54435685D01*
X116934300Y-54442278D01*
X116926783Y-54454790D01*
X116907205Y-54480835D01*
X116880022Y-54515007D01*
X116849693Y-54551902D01*
X116820674Y-54586114D01*
X116797422Y-54612237D01*
X116784395Y-54624867D01*
X116783376Y-54625300D01*
X116769302Y-54620233D01*
X116740496Y-54607361D01*
X116722435Y-54598779D01*
X116657460Y-54579897D01*
X116594618Y-54584990D01*
X116537933Y-54612705D01*
X116491425Y-54661687D01*
X116480021Y-54680396D01*
X116473257Y-54695621D01*
X116467901Y-54715826D01*
X116463736Y-54744131D01*
X116460551Y-54783658D01*
X116458129Y-54837530D01*
X116456257Y-54908867D01*
X116454721Y-55000792D01*
X116453953Y-55060275D01*
X116449856Y-55400000D01*
X116351295Y-55400000D01*
X116303471Y-55398977D01*
X116265998Y-55396271D01*
X116245693Y-55392420D01*
X116244266Y-55391533D01*
X116242413Y-55377383D01*
X116240699Y-55340589D01*
X116239171Y-55283903D01*
X116237874Y-55210080D01*
X116236853Y-55121876D01*
X116236154Y-55022044D01*
X116235821Y-54913338D01*
X116235800Y-54877183D01*
X116235800Y-54371300D01*
X116451700Y-54371300D01*
X116451700Y-54472732D01*
X116509140Y-54428887D01*
X116583260Y-54387612D01*
X116667016Y-54366892D01*
X116754516Y-54367177D01*
G36*
X115697322Y-54368945D02*
X115751234Y-54374060D01*
X115796029Y-54383629D01*
X115832163Y-54395790D01*
X115905649Y-54435625D01*
X115964775Y-54491328D01*
X116005405Y-54558350D01*
X116019015Y-54601308D01*
X116022851Y-54632298D01*
X116026199Y-54685299D01*
X116028954Y-54756927D01*
X116031008Y-54843794D01*
X116032254Y-54942516D01*
X116032600Y-55032325D01*
X116032600Y-55400000D01*
X115816700Y-55400000D01*
X115816700Y-55322507D01*
X115770394Y-55357826D01*
X115747099Y-55374117D01*
X115724361Y-55384668D01*
X115695657Y-55390911D01*
X115654463Y-55394277D01*
X115595769Y-55396164D01*
X115537683Y-55396451D01*
X115486162Y-55394761D01*
X115448463Y-55391428D01*
X115435617Y-55388816D01*
X115356103Y-55351279D01*
X115292494Y-55297952D01*
X115245909Y-55232676D01*
X115217465Y-55159293D01*
X115208279Y-55081644D01*
X115208657Y-55079006D01*
X115416561Y-55079006D01*
X115425456Y-55123663D01*
X115454474Y-55161244D01*
X115477524Y-55176140D01*
X115514431Y-55187006D01*
X115567423Y-55193934D01*
X115627452Y-55196652D01*
X115685470Y-55194892D01*
X115732427Y-55188382D01*
X115746637Y-55184180D01*
X115778674Y-55159263D01*
X115802288Y-55115067D01*
X115815092Y-55056982D01*
X115816700Y-55025757D01*
X115816700Y-54968200D01*
X115674726Y-54968200D01*
X115591611Y-54969992D01*
X115529736Y-54976077D01*
X115485146Y-54987518D01*
X115453889Y-55005378D01*
X115432009Y-55030720D01*
X115430026Y-55033975D01*
X115416561Y-55079006D01*
X115208657Y-55079006D01*
X115219468Y-55003569D01*
X115252151Y-54928910D01*
X115287960Y-54881239D01*
X115318234Y-54851662D01*
X115350660Y-54829638D01*
X115389646Y-54813978D01*
X115439598Y-54803494D01*
X115504925Y-54796998D01*
X115590035Y-54793303D01*
X115616675Y-54792637D01*
X115816700Y-54788168D01*
X115816700Y-54720142D01*
X115810041Y-54660479D01*
X115788037Y-54618476D01*
X115747645Y-54590638D01*
X115689700Y-54574168D01*
X115604346Y-54566940D01*
X115528926Y-54577721D01*
X115467907Y-54605824D01*
X115463532Y-54608986D01*
X115421514Y-54640425D01*
X115374632Y-54607632D01*
X115334921Y-54578854D01*
X115296358Y-54549408D01*
X115289650Y-54544053D01*
X115251550Y-54513269D01*
X115304698Y-54462629D01*
X115356537Y-54421542D01*
X115414896Y-54393054D01*
X115484813Y-54375669D01*
X115571322Y-54367892D01*
X115626200Y-54367158D01*
X115697322Y-54368945D01*
X115697322Y-54368945D01*
G37*
X115697322Y-54368945D02*
X115751234Y-54374060D01*
X115796029Y-54383629D01*
X115832163Y-54395790D01*
X115905649Y-54435625D01*
X115964775Y-54491328D01*
X116005405Y-54558350D01*
X116019015Y-54601308D01*
X116022851Y-54632298D01*
X116026199Y-54685299D01*
X116028954Y-54756927D01*
X116031008Y-54843794D01*
X116032254Y-54942516D01*
X116032600Y-55032325D01*
X116032600Y-55400000D01*
X115816700Y-55400000D01*
X115816700Y-55322507D01*
X115770394Y-55357826D01*
X115747099Y-55374117D01*
X115724361Y-55384668D01*
X115695657Y-55390911D01*
X115654463Y-55394277D01*
X115595769Y-55396164D01*
X115537683Y-55396451D01*
X115486162Y-55394761D01*
X115448463Y-55391428D01*
X115435617Y-55388816D01*
X115356103Y-55351279D01*
X115292494Y-55297952D01*
X115245909Y-55232676D01*
X115217465Y-55159293D01*
X115208279Y-55081644D01*
X115208657Y-55079006D01*
X115416561Y-55079006D01*
X115425456Y-55123663D01*
X115454474Y-55161244D01*
X115477524Y-55176140D01*
X115514431Y-55187006D01*
X115567423Y-55193934D01*
X115627452Y-55196652D01*
X115685470Y-55194892D01*
X115732427Y-55188382D01*
X115746637Y-55184180D01*
X115778674Y-55159263D01*
X115802288Y-55115067D01*
X115815092Y-55056982D01*
X115816700Y-55025757D01*
X115816700Y-54968200D01*
X115674726Y-54968200D01*
X115591611Y-54969992D01*
X115529736Y-54976077D01*
X115485146Y-54987518D01*
X115453889Y-55005378D01*
X115432009Y-55030720D01*
X115430026Y-55033975D01*
X115416561Y-55079006D01*
X115208657Y-55079006D01*
X115219468Y-55003569D01*
X115252151Y-54928910D01*
X115287960Y-54881239D01*
X115318234Y-54851662D01*
X115350660Y-54829638D01*
X115389646Y-54813978D01*
X115439598Y-54803494D01*
X115504925Y-54796998D01*
X115590035Y-54793303D01*
X115616675Y-54792637D01*
X115816700Y-54788168D01*
X115816700Y-54720142D01*
X115810041Y-54660479D01*
X115788037Y-54618476D01*
X115747645Y-54590638D01*
X115689700Y-54574168D01*
X115604346Y-54566940D01*
X115528926Y-54577721D01*
X115467907Y-54605824D01*
X115463532Y-54608986D01*
X115421514Y-54640425D01*
X115374632Y-54607632D01*
X115334921Y-54578854D01*
X115296358Y-54549408D01*
X115289650Y-54544053D01*
X115251550Y-54513269D01*
X115304698Y-54462629D01*
X115356537Y-54421542D01*
X115414896Y-54393054D01*
X115484813Y-54375669D01*
X115571322Y-54367892D01*
X115626200Y-54367158D01*
X115697322Y-54368945D01*
G36*
X114842038Y-52791678D02*
X114916453Y-52824764D01*
X114980248Y-52873719D01*
X115029328Y-52937347D01*
X115055320Y-52998272D01*
X115060734Y-53027557D01*
X115066214Y-53076163D01*
X115071211Y-53138016D01*
X115075178Y-53207045D01*
X115076087Y-53228300D01*
X115077947Y-53360852D01*
X115072075Y-53470687D01*
X115058282Y-53559339D01*
X115036375Y-53628347D01*
X115022988Y-53654830D01*
X114970702Y-53720462D01*
X114903572Y-53768921D01*
X114826182Y-53799401D01*
X114743113Y-53811094D01*
X114658948Y-53803191D01*
X114578269Y-53774885D01*
X114526194Y-53742400D01*
X114498688Y-53722643D01*
X114480320Y-53711684D01*
X114477697Y-53710900D01*
X114475894Y-53723082D01*
X114474256Y-53757560D01*
X114472842Y-53811228D01*
X114471711Y-53880982D01*
X114470921Y-53963718D01*
X114470531Y-54056330D01*
X114470500Y-54091816D01*
X114470500Y-54472732D01*
X114527940Y-54428887D01*
X114569509Y-54401934D01*
X114612298Y-54381473D01*
X114632715Y-54375146D01*
X114696441Y-54367402D01*
X114765098Y-54367930D01*
X114828062Y-54376171D01*
X114865972Y-54387418D01*
X114926669Y-54423357D01*
X114984695Y-54475688D01*
X115031436Y-54536109D01*
X115044432Y-54559432D01*
X115052703Y-54577084D01*
X115059294Y-54594787D01*
X115064433Y-54615606D01*
X115068349Y-54642608D01*
X115071269Y-54678860D01*
X115073421Y-54727426D01*
X115075034Y-54791374D01*
X115076335Y-54873770D01*
X115077553Y-54977679D01*
X115077893Y-55009475D01*
X115082037Y-55400000D01*
X114864200Y-55400000D01*
X114864200Y-55080798D01*
X114863524Y-54961222D01*
X114861523Y-54863147D01*
X114858239Y-54787595D01*
X114853714Y-54735589D01*
X114849307Y-54711888D01*
X114821841Y-54658962D01*
X114777480Y-54614297D01*
X114724164Y-54585119D01*
X114704165Y-54579771D01*
X114651334Y-54580491D01*
X114594324Y-54597552D01*
X114543876Y-54626757D01*
X114517977Y-54652501D01*
X114504409Y-54674145D01*
X114493683Y-54700570D01*
X114485478Y-54734829D01*
X114479472Y-54779976D01*
X114475344Y-54839063D01*
X114472773Y-54915145D01*
X114471437Y-55011274D01*
X114471053Y-55098375D01*
X114470500Y-55400000D01*
X114371016Y-55400000D01*
X114322965Y-55398987D01*
X114285244Y-55396303D01*
X114264636Y-55392480D01*
X114263066Y-55391533D01*
X114261897Y-55377926D01*
X114260776Y-55340615D01*
X114259713Y-55281294D01*
X114258720Y-55201660D01*
X114257808Y-55103407D01*
X114256988Y-54988232D01*
X114256270Y-54857829D01*
X114255666Y-54713894D01*
X114255186Y-54558123D01*
X114254842Y-54392210D01*
X114254645Y-54217851D01*
X114254600Y-54083433D01*
X114254600Y-53298729D01*
X114489550Y-53298729D01*
X114490020Y-53372606D01*
X114491766Y-53425762D01*
X114495288Y-53462863D01*
X114501088Y-53488578D01*
X114509668Y-53507572D01*
X114512465Y-53512060D01*
X114556844Y-53558193D01*
X114614229Y-53586927D01*
X114677830Y-53596727D01*
X114740858Y-53586061D01*
X114772889Y-53570874D01*
X114804912Y-53546367D01*
X114828105Y-53515065D01*
X114843706Y-53472892D01*
X114852950Y-53415771D01*
X114857077Y-53339628D01*
X114857610Y-53291800D01*
X114857142Y-53222009D01*
X114855020Y-53171883D01*
X114850532Y-53135706D01*
X114842968Y-53107760D01*
X114831619Y-53082329D01*
X114831578Y-53082250D01*
X114792855Y-53032816D01*
X114740298Y-53000528D01*
X114680145Y-52986971D01*
X114618636Y-52993729D01*
X114570803Y-53016049D01*
X114541132Y-53038699D01*
X114519596Y-53063583D01*
X114504935Y-53095082D01*
X114495890Y-53137577D01*
X114491202Y-53195449D01*
X114489611Y-53273080D01*
X114489550Y-53298729D01*
X114254600Y-53298729D01*
X114254600Y-52783800D01*
X114468966Y-52783800D01*
X114476850Y-52873974D01*
X114520096Y-52841952D01*
X114596031Y-52799598D01*
X114677731Y-52777899D01*
X114761098Y-52775657D01*
X114842038Y-52791678D01*
X114842038Y-52791678D01*
G37*
X114842038Y-52791678D02*
X114916453Y-52824764D01*
X114980248Y-52873719D01*
X115029328Y-52937347D01*
X115055320Y-52998272D01*
X115060734Y-53027557D01*
X115066214Y-53076163D01*
X115071211Y-53138016D01*
X115075178Y-53207045D01*
X115076087Y-53228300D01*
X115077947Y-53360852D01*
X115072075Y-53470687D01*
X115058282Y-53559339D01*
X115036375Y-53628347D01*
X115022988Y-53654830D01*
X114970702Y-53720462D01*
X114903572Y-53768921D01*
X114826182Y-53799401D01*
X114743113Y-53811094D01*
X114658948Y-53803191D01*
X114578269Y-53774885D01*
X114526194Y-53742400D01*
X114498688Y-53722643D01*
X114480320Y-53711684D01*
X114477697Y-53710900D01*
X114475894Y-53723082D01*
X114474256Y-53757560D01*
X114472842Y-53811228D01*
X114471711Y-53880982D01*
X114470921Y-53963718D01*
X114470531Y-54056330D01*
X114470500Y-54091816D01*
X114470500Y-54472732D01*
X114527940Y-54428887D01*
X114569509Y-54401934D01*
X114612298Y-54381473D01*
X114632715Y-54375146D01*
X114696441Y-54367402D01*
X114765098Y-54367930D01*
X114828062Y-54376171D01*
X114865972Y-54387418D01*
X114926669Y-54423357D01*
X114984695Y-54475688D01*
X115031436Y-54536109D01*
X115044432Y-54559432D01*
X115052703Y-54577084D01*
X115059294Y-54594787D01*
X115064433Y-54615606D01*
X115068349Y-54642608D01*
X115071269Y-54678860D01*
X115073421Y-54727426D01*
X115075034Y-54791374D01*
X115076335Y-54873770D01*
X115077553Y-54977679D01*
X115077893Y-55009475D01*
X115082037Y-55400000D01*
X114864200Y-55400000D01*
X114864200Y-55080798D01*
X114863524Y-54961222D01*
X114861523Y-54863147D01*
X114858239Y-54787595D01*
X114853714Y-54735589D01*
X114849307Y-54711888D01*
X114821841Y-54658962D01*
X114777480Y-54614297D01*
X114724164Y-54585119D01*
X114704165Y-54579771D01*
X114651334Y-54580491D01*
X114594324Y-54597552D01*
X114543876Y-54626757D01*
X114517977Y-54652501D01*
X114504409Y-54674145D01*
X114493683Y-54700570D01*
X114485478Y-54734829D01*
X114479472Y-54779976D01*
X114475344Y-54839063D01*
X114472773Y-54915145D01*
X114471437Y-55011274D01*
X114471053Y-55098375D01*
X114470500Y-55400000D01*
X114371016Y-55400000D01*
X114322965Y-55398987D01*
X114285244Y-55396303D01*
X114264636Y-55392480D01*
X114263066Y-55391533D01*
X114261897Y-55377926D01*
X114260776Y-55340615D01*
X114259713Y-55281294D01*
X114258720Y-55201660D01*
X114257808Y-55103407D01*
X114256988Y-54988232D01*
X114256270Y-54857829D01*
X114255666Y-54713894D01*
X114255186Y-54558123D01*
X114254842Y-54392210D01*
X114254645Y-54217851D01*
X114254600Y-54083433D01*
X114254600Y-53298729D01*
X114489550Y-53298729D01*
X114490020Y-53372606D01*
X114491766Y-53425762D01*
X114495288Y-53462863D01*
X114501088Y-53488578D01*
X114509668Y-53507572D01*
X114512465Y-53512060D01*
X114556844Y-53558193D01*
X114614229Y-53586927D01*
X114677830Y-53596727D01*
X114740858Y-53586061D01*
X114772889Y-53570874D01*
X114804912Y-53546367D01*
X114828105Y-53515065D01*
X114843706Y-53472892D01*
X114852950Y-53415771D01*
X114857077Y-53339628D01*
X114857610Y-53291800D01*
X114857142Y-53222009D01*
X114855020Y-53171883D01*
X114850532Y-53135706D01*
X114842968Y-53107760D01*
X114831619Y-53082329D01*
X114831578Y-53082250D01*
X114792855Y-53032816D01*
X114740298Y-53000528D01*
X114680145Y-52986971D01*
X114618636Y-52993729D01*
X114570803Y-53016049D01*
X114541132Y-53038699D01*
X114519596Y-53063583D01*
X114504935Y-53095082D01*
X114495890Y-53137577D01*
X114491202Y-53195449D01*
X114489611Y-53273080D01*
X114489550Y-53298729D01*
X114254600Y-53298729D01*
X114254600Y-52783800D01*
X114468966Y-52783800D01*
X114476850Y-52873974D01*
X114520096Y-52841952D01*
X114596031Y-52799598D01*
X114677731Y-52777899D01*
X114761098Y-52775657D01*
X114842038Y-52791678D01*
D13*
X78687107Y-53660000D02*
G75*
G03X78687107Y-53660000I-707107J0D01*
G01*
X86480000Y-53660000D02*
G75*
G03X86480000Y-53660000I-8500000J0D01*
G01*
D14*
X142560000Y-69500000D02*
X142560000Y-74700000D01*
X142560000Y-65500000D02*
X142560000Y-66300000D01*
X132560000Y-65500000D02*
X142560000Y-65500000D01*
X132560000Y-66300000D02*
X132560000Y-65500000D01*
X132560000Y-74700000D02*
X132560000Y-69500000D01*
X132560000Y-74700000D02*
X142560000Y-74700000D01*
X126550000Y-25210000D02*
X113850000Y-25210000D01*
X126550000Y-42990000D02*
X126550000Y-25210000D01*
X113850000Y-42990000D02*
X126550000Y-42990000D01*
X113850000Y-25210000D02*
X113850000Y-42990000D01*
D12*
X148020000Y-52180000D02*
X148020000Y-44560000D01*
X150560000Y-52180000D02*
X150560000Y-44560000D01*
X150840000Y-55000000D02*
X150840000Y-53450000D01*
X148020000Y-44560000D02*
X150560000Y-44560000D01*
X150560000Y-52180000D02*
X148020000Y-52180000D01*
X147740000Y-53450000D02*
X147740000Y-55000000D01*
X147740000Y-55000000D02*
X150840000Y-55000000D01*
X132140000Y-47790000D02*
X132140000Y-46240000D01*
X132140000Y-46240000D02*
X129040000Y-46240000D01*
X129040000Y-46240000D02*
X129040000Y-47790000D01*
X131860000Y-49060000D02*
X131860000Y-54140000D01*
X131860000Y-54140000D02*
X129320000Y-54140000D01*
X129320000Y-54140000D02*
X129320000Y-49060000D01*
X129320000Y-49060000D02*
X131860000Y-49060000D01*
X99020000Y-38340000D02*
X111720000Y-38340000D01*
X111720000Y-38340000D02*
X111720000Y-35800000D01*
X111720000Y-35800000D02*
X99020000Y-35800000D01*
X96200000Y-38620000D02*
X97750000Y-38620000D01*
X99020000Y-38340000D02*
X99020000Y-35800000D01*
X97750000Y-35520000D02*
X96200000Y-35520000D01*
X96200000Y-35520000D02*
X96200000Y-38620000D01*
X109690000Y-39230000D02*
X109690000Y-41770000D01*
X112510000Y-42050000D02*
X110960000Y-42050000D01*
X112510000Y-42050000D02*
X112510000Y-38950000D01*
X112510000Y-38950000D02*
X110960000Y-38950000D01*
D13*
X91130000Y-52780000D02*
X94230000Y-52780000D01*
X91030000Y-52780000D02*
X91130000Y-52780000D01*
X91030000Y-48780000D02*
G75*
G03X91030000Y-52780000I1600000J-2000000D01*
G01*
X94217064Y-52790281D02*
G75*
G03X94230000Y-48780000I-1587064J2010281D01*
G01*
X91130000Y-52780000D02*
X94130000Y-52780000D01*
X91030000Y-48780000D02*
X94130000Y-48780000D01*
D12*
X66490000Y-61346000D02*
X66490000Y-66344000D01*
X66630000Y-61354000D02*
X66630000Y-63691000D01*
X66630000Y-63999000D02*
X66630000Y-66336000D01*
X66770000Y-61370000D02*
X66770000Y-63372000D01*
X66770000Y-64318000D02*
X66770000Y-66320000D01*
X66910000Y-61394000D02*
X66910000Y-63225000D01*
X66910000Y-64465000D02*
X66910000Y-66296000D01*
X67050000Y-61427000D02*
X67050000Y-63133000D01*
X67050000Y-64557000D02*
X67050000Y-66263000D01*
X67190000Y-61468000D02*
X67190000Y-63077000D01*
X67190000Y-64613000D02*
X67190000Y-66222000D01*
X67330000Y-61518000D02*
X67330000Y-63050000D01*
X67330000Y-64640000D02*
X67330000Y-66172000D01*
X67470000Y-61579000D02*
X67470000Y-63047000D01*
X67470000Y-64643000D02*
X67470000Y-66111000D01*
X67610000Y-61649000D02*
X67610000Y-63069000D01*
X67610000Y-64621000D02*
X67610000Y-66041000D01*
X67750000Y-61731000D02*
X67750000Y-63119000D01*
X67750000Y-64571000D02*
X67750000Y-65959000D01*
X67890000Y-61826000D02*
X67890000Y-63201000D01*
X67890000Y-64489000D02*
X67890000Y-65864000D01*
X68030000Y-61937000D02*
X68030000Y-63333000D01*
X68030000Y-64357000D02*
X68030000Y-65753000D01*
X68170000Y-62065000D02*
X68170000Y-63580000D01*
X68170000Y-64110000D02*
X68170000Y-65625000D01*
X68310000Y-62214000D02*
X68310000Y-65476000D01*
X68450000Y-62393000D02*
X68450000Y-65297000D01*
X68590000Y-62612000D02*
X68590000Y-65078000D01*
X68730000Y-62901000D02*
X68730000Y-64789000D01*
X68870000Y-63373000D02*
X68870000Y-64317000D01*
X68215000Y-63845000D02*
G75*
G03X68215000Y-63845000I-800000J0D01*
G01*
X68952500Y-63845000D02*
G75*
G03X68952500Y-63845000I-2537500J0D01*
G01*
X59640000Y-61346000D02*
X59640000Y-66344000D01*
X59780000Y-61354000D02*
X59780000Y-63691000D01*
X59780000Y-63999000D02*
X59780000Y-66336000D01*
X59920000Y-61370000D02*
X59920000Y-63372000D01*
X59920000Y-64318000D02*
X59920000Y-66320000D01*
X60060000Y-61394000D02*
X60060000Y-63225000D01*
X60060000Y-64465000D02*
X60060000Y-66296000D01*
X60200000Y-61427000D02*
X60200000Y-63133000D01*
X60200000Y-64557000D02*
X60200000Y-66263000D01*
X60340000Y-61468000D02*
X60340000Y-63077000D01*
X60340000Y-64613000D02*
X60340000Y-66222000D01*
X60480000Y-61518000D02*
X60480000Y-63050000D01*
X60480000Y-64640000D02*
X60480000Y-66172000D01*
X60620000Y-61579000D02*
X60620000Y-63047000D01*
X60620000Y-64643000D02*
X60620000Y-66111000D01*
X60760000Y-61649000D02*
X60760000Y-63069000D01*
X60760000Y-64621000D02*
X60760000Y-66041000D01*
X60900000Y-61731000D02*
X60900000Y-63119000D01*
X60900000Y-64571000D02*
X60900000Y-65959000D01*
X61040000Y-61826000D02*
X61040000Y-63201000D01*
X61040000Y-64489000D02*
X61040000Y-65864000D01*
X61180000Y-61937000D02*
X61180000Y-63333000D01*
X61180000Y-64357000D02*
X61180000Y-65753000D01*
X61320000Y-62065000D02*
X61320000Y-63580000D01*
X61320000Y-64110000D02*
X61320000Y-65625000D01*
X61460000Y-62214000D02*
X61460000Y-65476000D01*
X61600000Y-62393000D02*
X61600000Y-65297000D01*
X61740000Y-62612000D02*
X61740000Y-65078000D01*
X61880000Y-62901000D02*
X61880000Y-64789000D01*
X62020000Y-63373000D02*
X62020000Y-64317000D01*
X61365000Y-63845000D02*
G75*
G03X61365000Y-63845000I-800000J0D01*
G01*
X62102500Y-63845000D02*
G75*
G03X62102500Y-63845000I-2537500J0D01*
G01*
D14*
X62890000Y-56670000D02*
X63640000Y-56670000D01*
X49890000Y-56670000D02*
X58640000Y-56670000D01*
X49890000Y-47670000D02*
X49890000Y-56670000D01*
X63640000Y-47670000D02*
X49890000Y-47670000D01*
X63640000Y-49920000D02*
X63640000Y-47670000D01*
X63640000Y-56670000D02*
X63640000Y-54420000D01*
X145825000Y-26630000D02*
G75*
G03X145825000Y-30430000I-2300000J-1900000D01*
G01*
X145825000Y-29230000D02*
X145825000Y-30430000D01*
X145825000Y-26630000D02*
X145825000Y-27830000D01*
X95175000Y-63370000D02*
X95175000Y-62620000D01*
X95175000Y-59870000D02*
X95175000Y-60620000D01*
X89175000Y-59870000D02*
X95175000Y-59870000D01*
X89175000Y-60620000D02*
X89175000Y-59870000D01*
X89175000Y-63370000D02*
X89175000Y-62620000D01*
X95175000Y-63370000D02*
X89175000Y-63370000D01*
X110905000Y-67130000D02*
X110905000Y-66380000D01*
X110905000Y-63630000D02*
X110905000Y-64380000D01*
X104905000Y-63630000D02*
X110905000Y-63630000D01*
X104905000Y-64380000D02*
X104905000Y-63630000D01*
X104905000Y-67130000D02*
X104905000Y-66380000D01*
X110905000Y-67130000D02*
X104905000Y-67130000D01*
X126075000Y-63370000D02*
X126075000Y-62620000D01*
X126075000Y-59870000D02*
X126075000Y-60620000D01*
X120075000Y-59870000D02*
X126075000Y-59870000D01*
X120075000Y-60620000D02*
X120075000Y-59870000D01*
X120075000Y-63370000D02*
X120075000Y-62620000D01*
X126075000Y-63370000D02*
X120075000Y-63370000D01*
D12*
X57531000Y-72625000D02*
X59436000Y-72625000D01*
X61976000Y-72625000D02*
X61214000Y-72625000D01*
X64389000Y-72625000D02*
X64516000Y-72625000D01*
X64389000Y-72625000D02*
X63754000Y-72625000D01*
X68199000Y-72625000D02*
X66421000Y-72625000D01*
X68199000Y-68942000D02*
X66548000Y-68942000D01*
X63881000Y-68815000D02*
X64516000Y-68815000D01*
X61341000Y-68815000D02*
X61976000Y-68815000D01*
X57531000Y-68942000D02*
X59182000Y-68942000D01*
X64389000Y-73768000D02*
X64389000Y-72625000D01*
X61341000Y-73768000D02*
X61341000Y-72625000D01*
X57531000Y-72625000D02*
X57531000Y-68942000D01*
X68199000Y-68942000D02*
X68199000Y-72625000D01*
X57531000Y-73768000D02*
X57531000Y-72625000D01*
X68199000Y-72625000D02*
X68199000Y-73768000D01*
X62865000Y-73768000D02*
X68199000Y-73768000D01*
X62865000Y-73768000D02*
X57531000Y-73768000D01*
D14*
X51340000Y-43540000D02*
X51340000Y-38460000D01*
X51340000Y-30840000D02*
X51340000Y-25760000D01*
X56420000Y-30840000D02*
X56420000Y-38460000D01*
X50070000Y-30840000D02*
X56420000Y-30840000D01*
X50070000Y-32110000D02*
X50070000Y-30840000D01*
X50070000Y-38460000D02*
X50070000Y-32110000D01*
X56420000Y-38460000D02*
X50070000Y-38460000D01*
X94520000Y-43540000D02*
X94520000Y-25760000D01*
X51340000Y-43540000D02*
X94520000Y-43540000D01*
X94520000Y-25760000D02*
X51340000Y-25760000D01*
D12*
X98770000Y-28010000D02*
X98770000Y-29560000D01*
X101590000Y-30830000D02*
X101590000Y-28290000D01*
X99050000Y-30830000D02*
X101590000Y-30830000D01*
X100320000Y-28010000D02*
X98770000Y-28010000D01*
X99050000Y-33370000D02*
X99050000Y-30830000D01*
X109210000Y-33370000D02*
X99050000Y-33370000D01*
X109210000Y-28290000D02*
X109210000Y-33370000D01*
X101590000Y-28290000D02*
X109210000Y-28290000D01*
X135640000Y-43700000D02*
X132540000Y-43700000D01*
X135640000Y-45250000D02*
X135640000Y-43700000D01*
X132820000Y-46520000D02*
X135360000Y-46520000D01*
X135360000Y-54140000D02*
X132820000Y-54140000D01*
X132540000Y-43700000D02*
X132540000Y-45250000D01*
X132820000Y-46520000D02*
X132820000Y-54140000D01*
X135360000Y-46520000D02*
X135360000Y-54140000D01*
D16*
X129100000Y-35460000D02*
X129100000Y-34070000D01*
X130490000Y-35460000D02*
X129100000Y-35460000D01*
X131760000Y-32680000D02*
X131760000Y-35460000D01*
X136960000Y-32680000D02*
X131760000Y-32680000D01*
X136960000Y-35460000D02*
X136960000Y-32680000D01*
X131760000Y-35460000D02*
X136960000Y-35460000D01*
X129100000Y-38660000D02*
X129100000Y-37270000D01*
X130490000Y-38660000D02*
X129100000Y-38660000D01*
X131760000Y-35880000D02*
X131760000Y-38660000D01*
X136960000Y-35880000D02*
X131760000Y-35880000D01*
X136960000Y-38660000D02*
X136960000Y-35880000D01*
X131760000Y-38660000D02*
X136960000Y-38660000D01*
X129100000Y-29060000D02*
X129100000Y-27670000D01*
X130490000Y-29060000D02*
X129100000Y-29060000D01*
X131760000Y-26280000D02*
X131760000Y-29060000D01*
X136960000Y-26280000D02*
X131760000Y-26280000D01*
X136960000Y-29060000D02*
X136960000Y-26280000D01*
X131760000Y-29060000D02*
X136960000Y-29060000D01*
X131760000Y-32260000D02*
X136960000Y-32260000D01*
X136960000Y-32260000D02*
X136960000Y-29480000D01*
X136960000Y-29480000D02*
X131760000Y-29480000D01*
X131760000Y-29480000D02*
X131760000Y-32260000D01*
X130490000Y-32260000D02*
X129100000Y-32260000D01*
X129100000Y-32260000D02*
X129100000Y-30870000D01*
X146820000Y-32760000D02*
X148090000Y-32760000D01*
X146820000Y-34030000D02*
X146820000Y-32760000D01*
X149060000Y-42090000D02*
X149370000Y-42090000D01*
X149060000Y-41210000D02*
X149370000Y-41210000D01*
X158110000Y-41210000D02*
X152110000Y-41210000D01*
X158110000Y-42090000D02*
X158110000Y-41210000D01*
X152110000Y-42090000D02*
X158110000Y-42090000D01*
X152110000Y-41210000D02*
X152110000Y-42090000D01*
X152110000Y-40380000D02*
X149370000Y-40380000D01*
X152110000Y-43040000D02*
X152110000Y-40380000D01*
X149370000Y-43040000D02*
X152110000Y-43040000D01*
X149370000Y-40380000D02*
X149370000Y-43040000D01*
X149060000Y-39550000D02*
X149370000Y-39550000D01*
X149060000Y-38670000D02*
X149370000Y-38670000D01*
X158110000Y-38670000D02*
X152110000Y-38670000D01*
X158110000Y-39550000D02*
X158110000Y-38670000D01*
X152110000Y-39550000D02*
X158110000Y-39550000D01*
X152110000Y-38670000D02*
X152110000Y-39550000D01*
X152110000Y-37840000D02*
X149370000Y-37840000D01*
X152110000Y-40380000D02*
X152110000Y-37840000D01*
X149370000Y-40380000D02*
X152110000Y-40380000D01*
X149370000Y-37840000D02*
X149370000Y-40380000D01*
X149060000Y-37010000D02*
X149370000Y-37010000D01*
X149060000Y-36130000D02*
X149370000Y-36130000D01*
X158110000Y-36130000D02*
X152110000Y-36130000D01*
X158110000Y-37010000D02*
X158110000Y-36130000D01*
X152110000Y-37010000D02*
X158110000Y-37010000D01*
X152110000Y-36130000D02*
X152110000Y-37010000D01*
X152110000Y-35300000D02*
X149370000Y-35300000D01*
X152110000Y-37840000D02*
X152110000Y-35300000D01*
X149370000Y-37840000D02*
X152110000Y-37840000D01*
X149370000Y-35300000D02*
X149370000Y-37840000D01*
X152110000Y-34430000D02*
X158110000Y-34430000D01*
X152110000Y-34310000D02*
X158110000Y-34310000D01*
X152110000Y-34190000D02*
X158110000Y-34190000D01*
X152110000Y-34070000D02*
X158110000Y-34070000D01*
X152110000Y-33950000D02*
X158110000Y-33950000D01*
X152110000Y-33830000D02*
X158110000Y-33830000D01*
X152110000Y-33710000D02*
X158110000Y-33710000D01*
X149060000Y-34470000D02*
X149370000Y-34470000D01*
X149060000Y-33590000D02*
X149370000Y-33590000D01*
X158110000Y-33590000D02*
X152110000Y-33590000D01*
X158110000Y-34470000D02*
X158110000Y-33590000D01*
X152110000Y-34470000D02*
X158110000Y-34470000D01*
X152110000Y-33590000D02*
X152110000Y-34470000D01*
X152110000Y-32640000D02*
X149370000Y-32640000D01*
X152110000Y-35300000D02*
X152110000Y-32640000D01*
X149370000Y-35300000D02*
X152110000Y-35300000D01*
X149370000Y-32640000D02*
X149370000Y-35300000D01*
X146820000Y-56420000D02*
X148090000Y-56420000D01*
X146820000Y-57690000D02*
X146820000Y-56420000D01*
X149060000Y-65750000D02*
X149370000Y-65750000D01*
X149060000Y-64870000D02*
X149370000Y-64870000D01*
X158110000Y-64870000D02*
X152110000Y-64870000D01*
X158110000Y-65750000D02*
X158110000Y-64870000D01*
X152110000Y-65750000D02*
X158110000Y-65750000D01*
X152110000Y-64870000D02*
X152110000Y-65750000D01*
X152110000Y-64040000D02*
X149370000Y-64040000D01*
X152110000Y-66700000D02*
X152110000Y-64040000D01*
X149370000Y-66700000D02*
X152110000Y-66700000D01*
X149370000Y-64040000D02*
X149370000Y-66700000D01*
X149060000Y-63210000D02*
X149370000Y-63210000D01*
X149060000Y-62330000D02*
X149370000Y-62330000D01*
X158110000Y-62330000D02*
X152110000Y-62330000D01*
X158110000Y-63210000D02*
X158110000Y-62330000D01*
X152110000Y-63210000D02*
X158110000Y-63210000D01*
X152110000Y-62330000D02*
X152110000Y-63210000D01*
X152110000Y-61500000D02*
X149370000Y-61500000D01*
X152110000Y-64040000D02*
X152110000Y-61500000D01*
X149370000Y-64040000D02*
X152110000Y-64040000D01*
X149370000Y-61500000D02*
X149370000Y-64040000D01*
X149060000Y-60670000D02*
X149370000Y-60670000D01*
X149060000Y-59790000D02*
X149370000Y-59790000D01*
X158110000Y-59790000D02*
X152110000Y-59790000D01*
X158110000Y-60670000D02*
X158110000Y-59790000D01*
X152110000Y-60670000D02*
X158110000Y-60670000D01*
X152110000Y-59790000D02*
X152110000Y-60670000D01*
X152110000Y-58960000D02*
X149370000Y-58960000D01*
X152110000Y-61500000D02*
X152110000Y-58960000D01*
X149370000Y-61500000D02*
X152110000Y-61500000D01*
X149370000Y-58960000D02*
X149370000Y-61500000D01*
X152110000Y-58090000D02*
X158110000Y-58090000D01*
X152110000Y-57970000D02*
X158110000Y-57970000D01*
X152110000Y-57850000D02*
X158110000Y-57850000D01*
X152110000Y-57730000D02*
X158110000Y-57730000D01*
X152110000Y-57610000D02*
X158110000Y-57610000D01*
X152110000Y-57490000D02*
X158110000Y-57490000D01*
X152110000Y-57370000D02*
X158110000Y-57370000D01*
X149060000Y-58130000D02*
X149370000Y-58130000D01*
X149060000Y-57250000D02*
X149370000Y-57250000D01*
X158110000Y-57250000D02*
X152110000Y-57250000D01*
X158110000Y-58130000D02*
X158110000Y-57250000D01*
X152110000Y-58130000D02*
X158110000Y-58130000D01*
X152110000Y-57250000D02*
X152110000Y-58130000D01*
X152110000Y-56300000D02*
X149370000Y-56300000D01*
X152110000Y-58960000D02*
X152110000Y-56300000D01*
X149370000Y-58960000D02*
X152110000Y-58960000D01*
X149370000Y-56300000D02*
X149370000Y-58960000D01*
D14*
X83115000Y-71270000D02*
X83115000Y-74670000D01*
X83115000Y-66470000D02*
X83115000Y-68070000D01*
X70315000Y-66470000D02*
X83115000Y-66470000D01*
X70315000Y-68070000D02*
X70315000Y-66470000D01*
X70315000Y-74670000D02*
X70315000Y-71270000D01*
X70315000Y-74670000D02*
X83115000Y-74670000D01*
D12*
X106571666Y-60904761D02*
X106714523Y-60952380D01*
X106952619Y-60952380D01*
X107047857Y-60904761D01*
X107095476Y-60857142D01*
X107143095Y-60761904D01*
X107143095Y-60666666D01*
X107095476Y-60571428D01*
X107047857Y-60523809D01*
X106952619Y-60476190D01*
X106762142Y-60428571D01*
X106666904Y-60380952D01*
X106619285Y-60333333D01*
X106571666Y-60238095D01*
X106571666Y-60142857D01*
X106619285Y-60047619D01*
X106666904Y-60000000D01*
X106762142Y-59952380D01*
X107000238Y-59952380D01*
X107143095Y-60000000D01*
X107476428Y-59952380D02*
X107714523Y-60952380D01*
X107905000Y-60238095D01*
X108095476Y-60952380D01*
X108333571Y-59952380D01*
X108666904Y-60047619D02*
X108714523Y-60000000D01*
X108809761Y-59952380D01*
X109047857Y-59952380D01*
X109143095Y-60000000D01*
X109190714Y-60047619D01*
X109238333Y-60142857D01*
X109238333Y-60238095D01*
X109190714Y-60380952D01*
X108619285Y-60952380D01*
X109238333Y-60952380D01*
X72953095Y-51869761D02*
X73095952Y-51917380D01*
X73334047Y-51917380D01*
X73429285Y-51869761D01*
X73476904Y-51822142D01*
X73524523Y-51726904D01*
X73524523Y-51631666D01*
X73476904Y-51536428D01*
X73429285Y-51488809D01*
X73334047Y-51441190D01*
X73143571Y-51393571D01*
X73048333Y-51345952D01*
X73000714Y-51298333D01*
X72953095Y-51203095D01*
X72953095Y-51107857D01*
X73000714Y-51012619D01*
X73048333Y-50965000D01*
X73143571Y-50917380D01*
X73381666Y-50917380D01*
X73524523Y-50965000D01*
X73953095Y-51917380D02*
X73953095Y-50917380D01*
X74334047Y-50917380D01*
X74429285Y-50965000D01*
X74476904Y-51012619D01*
X74524523Y-51107857D01*
X74524523Y-51250714D01*
X74476904Y-51345952D01*
X74429285Y-51393571D01*
X74334047Y-51441190D01*
X73953095Y-51441190D01*
X75476904Y-51917380D02*
X74905476Y-51917380D01*
X75191190Y-51917380D02*
X75191190Y-50917380D01*
X75095952Y-51060238D01*
X75000714Y-51155476D01*
X74905476Y-51203095D01*
X136944761Y-67642380D02*
X136611428Y-67166190D01*
X136373333Y-67642380D02*
X136373333Y-66642380D01*
X136754285Y-66642380D01*
X136849523Y-66690000D01*
X136897142Y-66737619D01*
X136944761Y-66832857D01*
X136944761Y-66975714D01*
X136897142Y-67070952D01*
X136849523Y-67118571D01*
X136754285Y-67166190D01*
X136373333Y-67166190D01*
X137230476Y-66642380D02*
X137563809Y-67642380D01*
X137897142Y-66642380D01*
X138754285Y-67642380D02*
X138182857Y-67642380D01*
X138468571Y-67642380D02*
X138468571Y-66642380D01*
X138373333Y-66785238D01*
X138278095Y-66880476D01*
X138182857Y-66928095D01*
X119448095Y-30522380D02*
X119448095Y-31331904D01*
X119495714Y-31427142D01*
X119543333Y-31474761D01*
X119638571Y-31522380D01*
X119829047Y-31522380D01*
X119924285Y-31474761D01*
X119971904Y-31427142D01*
X120019523Y-31331904D01*
X120019523Y-30522380D01*
X120971904Y-30522380D02*
X120495714Y-30522380D01*
X120448095Y-30998571D01*
X120495714Y-30950952D01*
X120590952Y-30903333D01*
X120829047Y-30903333D01*
X120924285Y-30950952D01*
X120971904Y-30998571D01*
X121019523Y-31093809D01*
X121019523Y-31331904D01*
X120971904Y-31427142D01*
X120924285Y-31474761D01*
X120829047Y-31522380D01*
X120590952Y-31522380D01*
X120495714Y-31474761D01*
X120448095Y-31427142D01*
X129811904Y-55742380D02*
X129811904Y-54742380D01*
X130192857Y-54742380D01*
X130288095Y-54790000D01*
X130335714Y-54837619D01*
X130383333Y-54932857D01*
X130383333Y-55075714D01*
X130335714Y-55170952D01*
X130288095Y-55218571D01*
X130192857Y-55266190D01*
X129811904Y-55266190D01*
X130954761Y-55170952D02*
X130859523Y-55123333D01*
X130811904Y-55075714D01*
X130764285Y-54980476D01*
X130764285Y-54932857D01*
X130811904Y-54837619D01*
X130859523Y-54790000D01*
X130954761Y-54742380D01*
X131145238Y-54742380D01*
X131240476Y-54790000D01*
X131288095Y-54837619D01*
X131335714Y-54932857D01*
X131335714Y-54980476D01*
X131288095Y-55075714D01*
X131240476Y-55123333D01*
X131145238Y-55170952D01*
X130954761Y-55170952D01*
X130859523Y-55218571D01*
X130811904Y-55266190D01*
X130764285Y-55361428D01*
X130764285Y-55551904D01*
X130811904Y-55647142D01*
X130859523Y-55694761D01*
X130954761Y-55742380D01*
X131145238Y-55742380D01*
X131240476Y-55694761D01*
X131288095Y-55647142D01*
X131335714Y-55551904D01*
X131335714Y-55361428D01*
X131288095Y-55266190D01*
X131240476Y-55218571D01*
X131145238Y-55170952D01*
X96366904Y-34677380D02*
X96366904Y-33677380D01*
X96747857Y-33677380D01*
X96843095Y-33725000D01*
X96890714Y-33772619D01*
X96938333Y-33867857D01*
X96938333Y-34010714D01*
X96890714Y-34105952D01*
X96843095Y-34153571D01*
X96747857Y-34201190D01*
X96366904Y-34201190D01*
X97319285Y-33772619D02*
X97366904Y-33725000D01*
X97462142Y-33677380D01*
X97700238Y-33677380D01*
X97795476Y-33725000D01*
X97843095Y-33772619D01*
X97890714Y-33867857D01*
X97890714Y-33963095D01*
X97843095Y-34105952D01*
X97271666Y-34677380D01*
X97890714Y-34677380D01*
X111221904Y-43852380D02*
X111221904Y-42852380D01*
X111602857Y-42852380D01*
X111698095Y-42900000D01*
X111745714Y-42947619D01*
X111793333Y-43042857D01*
X111793333Y-43185714D01*
X111745714Y-43280952D01*
X111698095Y-43328571D01*
X111602857Y-43376190D01*
X111221904Y-43376190D01*
X112126666Y-42852380D02*
X112745714Y-42852380D01*
X112412380Y-43233333D01*
X112555238Y-43233333D01*
X112650476Y-43280952D01*
X112698095Y-43328571D01*
X112745714Y-43423809D01*
X112745714Y-43661904D01*
X112698095Y-43757142D01*
X112650476Y-43804761D01*
X112555238Y-43852380D01*
X112269523Y-43852380D01*
X112174285Y-43804761D01*
X112126666Y-43757142D01*
X92115714Y-47741904D02*
X91849047Y-47360952D01*
X91658571Y-47741904D02*
X91658571Y-46941904D01*
X91963333Y-46941904D01*
X92039523Y-46980000D01*
X92077619Y-47018095D01*
X92115714Y-47094285D01*
X92115714Y-47208571D01*
X92077619Y-47284761D01*
X92039523Y-47322857D01*
X91963333Y-47360952D01*
X91658571Y-47360952D01*
X92382380Y-46941904D02*
X92877619Y-46941904D01*
X92610952Y-47246666D01*
X92725238Y-47246666D01*
X92801428Y-47284761D01*
X92839523Y-47322857D01*
X92877619Y-47399047D01*
X92877619Y-47589523D01*
X92839523Y-47665714D01*
X92801428Y-47703809D01*
X92725238Y-47741904D01*
X92496666Y-47741904D01*
X92420476Y-47703809D01*
X92382380Y-47665714D01*
X93144285Y-46941904D02*
X93677619Y-46941904D01*
X93334761Y-47741904D01*
X66398333Y-60652142D02*
X66350714Y-60699761D01*
X66207857Y-60747380D01*
X66112619Y-60747380D01*
X65969761Y-60699761D01*
X65874523Y-60604523D01*
X65826904Y-60509285D01*
X65779285Y-60318809D01*
X65779285Y-60175952D01*
X65826904Y-59985476D01*
X65874523Y-59890238D01*
X65969761Y-59795000D01*
X66112619Y-59747380D01*
X66207857Y-59747380D01*
X66350714Y-59795000D01*
X66398333Y-59842619D01*
X67350714Y-60747380D02*
X66779285Y-60747380D01*
X67065000Y-60747380D02*
X67065000Y-59747380D01*
X66969761Y-59890238D01*
X66874523Y-59985476D01*
X66779285Y-60033095D01*
X59548333Y-60652142D02*
X59500714Y-60699761D01*
X59357857Y-60747380D01*
X59262619Y-60747380D01*
X59119761Y-60699761D01*
X59024523Y-60604523D01*
X58976904Y-60509285D01*
X58929285Y-60318809D01*
X58929285Y-60175952D01*
X58976904Y-59985476D01*
X59024523Y-59890238D01*
X59119761Y-59795000D01*
X59262619Y-59747380D01*
X59357857Y-59747380D01*
X59500714Y-59795000D01*
X59548333Y-59842619D01*
X59929285Y-59842619D02*
X59976904Y-59795000D01*
X60072142Y-59747380D01*
X60310238Y-59747380D01*
X60405476Y-59795000D01*
X60453095Y-59842619D01*
X60500714Y-59937857D01*
X60500714Y-60033095D01*
X60453095Y-60175952D01*
X59881666Y-60747380D01*
X60500714Y-60747380D01*
X54697142Y-53384285D02*
X54744761Y-53431904D01*
X54792380Y-53574761D01*
X54792380Y-53670000D01*
X54744761Y-53812857D01*
X54649523Y-53908095D01*
X54554285Y-53955714D01*
X54363809Y-54003333D01*
X54220952Y-54003333D01*
X54030476Y-53955714D01*
X53935238Y-53908095D01*
X53840000Y-53812857D01*
X53792380Y-53670000D01*
X53792380Y-53574761D01*
X53840000Y-53431904D01*
X53887619Y-53384285D01*
X53792380Y-52765238D02*
X53792380Y-52574761D01*
X53840000Y-52479523D01*
X53935238Y-52384285D01*
X54125714Y-52336666D01*
X54459047Y-52336666D01*
X54649523Y-52384285D01*
X54744761Y-52479523D01*
X54792380Y-52574761D01*
X54792380Y-52765238D01*
X54744761Y-52860476D01*
X54649523Y-52955714D01*
X54459047Y-53003333D01*
X54125714Y-53003333D01*
X53935238Y-52955714D01*
X53840000Y-52860476D01*
X53792380Y-52765238D01*
X54792380Y-51908095D02*
X53792380Y-51908095D01*
X54792380Y-51336666D01*
X53792380Y-51336666D01*
X54792380Y-50336666D02*
X54792380Y-50908095D01*
X54792380Y-50622380D02*
X53792380Y-50622380D01*
X53935238Y-50717619D01*
X54030476Y-50812857D01*
X54078095Y-50908095D01*
X139722380Y-32952380D02*
X139246190Y-32952380D01*
X139246190Y-31952380D01*
X140436666Y-32904761D02*
X140341428Y-32952380D01*
X140150952Y-32952380D01*
X140055714Y-32904761D01*
X140008095Y-32809523D01*
X140008095Y-32428571D01*
X140055714Y-32333333D01*
X140150952Y-32285714D01*
X140341428Y-32285714D01*
X140436666Y-32333333D01*
X140484285Y-32428571D01*
X140484285Y-32523809D01*
X140008095Y-32619047D01*
X141341428Y-32952380D02*
X141341428Y-31952380D01*
X141341428Y-32904761D02*
X141246190Y-32952380D01*
X141055714Y-32952380D01*
X140960476Y-32904761D01*
X140912857Y-32857142D01*
X140865238Y-32761904D01*
X140865238Y-32476190D01*
X140912857Y-32380952D01*
X140960476Y-32333333D01*
X141055714Y-32285714D01*
X141246190Y-32285714D01*
X141341428Y-32333333D01*
X142341428Y-32952380D02*
X141770000Y-32952380D01*
X142055714Y-32952380D02*
X142055714Y-31952380D01*
X141960476Y-32095238D01*
X141865238Y-32190476D01*
X141770000Y-32238095D01*
X90841666Y-65024761D02*
X90984523Y-65072380D01*
X91222619Y-65072380D01*
X91317857Y-65024761D01*
X91365476Y-64977142D01*
X91413095Y-64881904D01*
X91413095Y-64786666D01*
X91365476Y-64691428D01*
X91317857Y-64643809D01*
X91222619Y-64596190D01*
X91032142Y-64548571D01*
X90936904Y-64500952D01*
X90889285Y-64453333D01*
X90841666Y-64358095D01*
X90841666Y-64262857D01*
X90889285Y-64167619D01*
X90936904Y-64120000D01*
X91032142Y-64072380D01*
X91270238Y-64072380D01*
X91413095Y-64120000D01*
X91746428Y-64072380D02*
X91984523Y-65072380D01*
X92175000Y-64358095D01*
X92365476Y-65072380D01*
X92603571Y-64072380D01*
X93508333Y-65072380D02*
X92936904Y-65072380D01*
X93222619Y-65072380D02*
X93222619Y-64072380D01*
X93127380Y-64215238D01*
X93032142Y-64310476D01*
X92936904Y-64358095D01*
X106571666Y-68784761D02*
X106714523Y-68832380D01*
X106952619Y-68832380D01*
X107047857Y-68784761D01*
X107095476Y-68737142D01*
X107143095Y-68641904D01*
X107143095Y-68546666D01*
X107095476Y-68451428D01*
X107047857Y-68403809D01*
X106952619Y-68356190D01*
X106762142Y-68308571D01*
X106666904Y-68260952D01*
X106619285Y-68213333D01*
X106571666Y-68118095D01*
X106571666Y-68022857D01*
X106619285Y-67927619D01*
X106666904Y-67880000D01*
X106762142Y-67832380D01*
X107000238Y-67832380D01*
X107143095Y-67880000D01*
X107476428Y-67832380D02*
X107714523Y-68832380D01*
X107905000Y-68118095D01*
X108095476Y-68832380D01*
X108333571Y-67832380D01*
X108619285Y-67832380D02*
X109238333Y-67832380D01*
X108905000Y-68213333D01*
X109047857Y-68213333D01*
X109143095Y-68260952D01*
X109190714Y-68308571D01*
X109238333Y-68403809D01*
X109238333Y-68641904D01*
X109190714Y-68737142D01*
X109143095Y-68784761D01*
X109047857Y-68832380D01*
X108762142Y-68832380D01*
X108666904Y-68784761D01*
X108619285Y-68737142D01*
X121741666Y-65024761D02*
X121884523Y-65072380D01*
X122122619Y-65072380D01*
X122217857Y-65024761D01*
X122265476Y-64977142D01*
X122313095Y-64881904D01*
X122313095Y-64786666D01*
X122265476Y-64691428D01*
X122217857Y-64643809D01*
X122122619Y-64596190D01*
X121932142Y-64548571D01*
X121836904Y-64500952D01*
X121789285Y-64453333D01*
X121741666Y-64358095D01*
X121741666Y-64262857D01*
X121789285Y-64167619D01*
X121836904Y-64120000D01*
X121932142Y-64072380D01*
X122170238Y-64072380D01*
X122313095Y-64120000D01*
X122646428Y-64072380D02*
X122884523Y-65072380D01*
X123075000Y-64358095D01*
X123265476Y-65072380D01*
X123503571Y-64072380D01*
X124313095Y-64405714D02*
X124313095Y-65072380D01*
X124075000Y-64024761D02*
X123836904Y-64739047D01*
X124455952Y-64739047D01*
X66613095Y-67027380D02*
X66613095Y-67836904D01*
X66660714Y-67932142D01*
X66708333Y-67979761D01*
X66803571Y-68027380D01*
X66994047Y-68027380D01*
X67089285Y-67979761D01*
X67136904Y-67932142D01*
X67184523Y-67836904D01*
X67184523Y-67027380D01*
X67613095Y-67122619D02*
X67660714Y-67075000D01*
X67755952Y-67027380D01*
X67994047Y-67027380D01*
X68089285Y-67075000D01*
X68136904Y-67122619D01*
X68184523Y-67217857D01*
X68184523Y-67313095D01*
X68136904Y-67455952D01*
X67565476Y-68027380D01*
X68184523Y-68027380D01*
X52658095Y-39462380D02*
X52658095Y-40271904D01*
X52705714Y-40367142D01*
X52753333Y-40414761D01*
X52848571Y-40462380D01*
X53039047Y-40462380D01*
X53134285Y-40414761D01*
X53181904Y-40367142D01*
X53229523Y-40271904D01*
X53229523Y-39462380D01*
X54229523Y-40462380D02*
X53658095Y-40462380D01*
X53943809Y-40462380D02*
X53943809Y-39462380D01*
X53848571Y-39605238D01*
X53753333Y-39700476D01*
X53658095Y-39748095D01*
X109971904Y-33212380D02*
X109971904Y-32212380D01*
X110352857Y-32212380D01*
X110448095Y-32260000D01*
X110495714Y-32307619D01*
X110543333Y-32402857D01*
X110543333Y-32545714D01*
X110495714Y-32640952D01*
X110448095Y-32688571D01*
X110352857Y-32736190D01*
X109971904Y-32736190D01*
X111495714Y-33212380D02*
X110924285Y-33212380D01*
X111210000Y-33212380D02*
X111210000Y-32212380D01*
X111114761Y-32355238D01*
X111019523Y-32450476D01*
X110924285Y-32498095D01*
X133361904Y-55742380D02*
X133361904Y-54742380D01*
X133742857Y-54742380D01*
X133838095Y-54790000D01*
X133885714Y-54837619D01*
X133933333Y-54932857D01*
X133933333Y-55075714D01*
X133885714Y-55170952D01*
X133838095Y-55218571D01*
X133742857Y-55266190D01*
X133361904Y-55266190D01*
X134409523Y-55742380D02*
X134600000Y-55742380D01*
X134695238Y-55694761D01*
X134742857Y-55647142D01*
X134838095Y-55504285D01*
X134885714Y-55313809D01*
X134885714Y-54932857D01*
X134838095Y-54837619D01*
X134790476Y-54790000D01*
X134695238Y-54742380D01*
X134504761Y-54742380D01*
X134409523Y-54790000D01*
X134361904Y-54837619D01*
X134314285Y-54932857D01*
X134314285Y-55170952D01*
X134361904Y-55266190D01*
X134409523Y-55313809D01*
X134504761Y-55361428D01*
X134695238Y-55361428D01*
X134790476Y-55313809D01*
X134838095Y-55266190D01*
X134885714Y-55170952D01*
X128552380Y-34808095D02*
X127552380Y-34808095D01*
X127552380Y-34427142D01*
X127600000Y-34331904D01*
X127647619Y-34284285D01*
X127742857Y-34236666D01*
X127885714Y-34236666D01*
X127980952Y-34284285D01*
X128028571Y-34331904D01*
X128076190Y-34427142D01*
X128076190Y-34808095D01*
X127552380Y-33379523D02*
X127552380Y-33570000D01*
X127600000Y-33665238D01*
X127647619Y-33712857D01*
X127790476Y-33808095D01*
X127980952Y-33855714D01*
X128361904Y-33855714D01*
X128457142Y-33808095D01*
X128504761Y-33760476D01*
X128552380Y-33665238D01*
X128552380Y-33474761D01*
X128504761Y-33379523D01*
X128457142Y-33331904D01*
X128361904Y-33284285D01*
X128123809Y-33284285D01*
X128028571Y-33331904D01*
X127980952Y-33379523D01*
X127933333Y-33474761D01*
X127933333Y-33665238D01*
X127980952Y-33760476D01*
X128028571Y-33808095D01*
X128123809Y-33855714D01*
X128552380Y-38008095D02*
X127552380Y-38008095D01*
X127552380Y-37627142D01*
X127600000Y-37531904D01*
X127647619Y-37484285D01*
X127742857Y-37436666D01*
X127885714Y-37436666D01*
X127980952Y-37484285D01*
X128028571Y-37531904D01*
X128076190Y-37627142D01*
X128076190Y-38008095D01*
X127552380Y-37103333D02*
X127552380Y-36436666D01*
X128552380Y-36865238D01*
X128552380Y-28408095D02*
X127552380Y-28408095D01*
X127552380Y-28027142D01*
X127600000Y-27931904D01*
X127647619Y-27884285D01*
X127742857Y-27836666D01*
X127885714Y-27836666D01*
X127980952Y-27884285D01*
X128028571Y-27931904D01*
X128076190Y-28027142D01*
X128076190Y-28408095D01*
X127885714Y-26979523D02*
X128552380Y-26979523D01*
X127504761Y-27217619D02*
X128219047Y-27455714D01*
X128219047Y-26836666D01*
X128552380Y-31608095D02*
X127552380Y-31608095D01*
X127552380Y-31227142D01*
X127600000Y-31131904D01*
X127647619Y-31084285D01*
X127742857Y-31036666D01*
X127885714Y-31036666D01*
X127980952Y-31084285D01*
X128028571Y-31131904D01*
X128076190Y-31227142D01*
X128076190Y-31608095D01*
X127552380Y-30131904D02*
X127552380Y-30608095D01*
X128028571Y-30655714D01*
X127980952Y-30608095D01*
X127933333Y-30512857D01*
X127933333Y-30274761D01*
X127980952Y-30179523D01*
X128028571Y-30131904D01*
X128123809Y-30084285D01*
X128361904Y-30084285D01*
X128457142Y-30131904D01*
X128504761Y-30179523D01*
X128552380Y-30274761D01*
X128552380Y-30512857D01*
X128504761Y-30608095D01*
X128457142Y-30655714D01*
X76290238Y-68598571D02*
X76433095Y-68646190D01*
X76480714Y-68693809D01*
X76528333Y-68789047D01*
X76528333Y-68931904D01*
X76480714Y-69027142D01*
X76433095Y-69074761D01*
X76337857Y-69122380D01*
X75956904Y-69122380D01*
X75956904Y-68122380D01*
X76290238Y-68122380D01*
X76385476Y-68170000D01*
X76433095Y-68217619D01*
X76480714Y-68312857D01*
X76480714Y-68408095D01*
X76433095Y-68503333D01*
X76385476Y-68550952D01*
X76290238Y-68598571D01*
X75956904Y-68598571D01*
X77480714Y-69122380D02*
X76909285Y-69122380D01*
X77195000Y-69122380D02*
X77195000Y-68122380D01*
X77099761Y-68265238D01*
X77004523Y-68360476D01*
X76909285Y-68408095D01*
M02*
