M48
;DRILL file {KiCad no-vcs-found-7516~57~ubuntu14.04.1} date Tue Jan 24 20:05:13 2017
;FORMAT={-:-/ absolute / metric / decimal}
FMAT,2
METRIC,TZ
T1C0.400
T2C0.600
T3C0.700
T4C1.000
T5C1.100
T6C1.800
T7C2.500
T8C3.200
%
G90
G05
M71
T1
X53.54Y-37.15
X64.13Y-40.56
X71.21Y-66.46
X71.72Y-48.88
X79.39Y-53.41
X80.147Y-58.303
X80.185Y-54.74
X81.27Y-32.78
X81.8Y-44.15
X84.18Y-49.36
X84.27Y-57.98
X85.54Y-47.27
X87.8Y-51.51
X87.908Y-59.81
X88.261Y-58.899
X89.04Y-46.44
X89.38Y-39.19
X89.4Y-67.15
X89.49Y-68.3
X90.78Y-36.37
X90.87Y-30.91
X91.05Y-61.33
X91.11Y-55.95
X91.22Y-54.74
X91.68Y-67.71
X91.87Y-58.15
X91.938Y-62.474
X92.53Y-39.31
X92.67Y-65.977
X92.71Y-38.14
X92.94Y-56.58
X93.09Y-59.315
X93.67Y-61.62
X93.71Y-55.9
X93.88Y-58.58
X94.Y-64.36
X94.49Y-71.05
X95.2Y-39.24
X95.45Y-46.95
X96.03Y-43.55
X96.37Y-64.34
X103.12Y-59.58
X103.17Y-71.05
X105.54Y-53.83
X106.92Y-68.634
X108.4Y-60.13
X108.44Y-49.17
X108.66Y-44.76
X108.67Y-57.2
X108.912Y-65.33
X109.74Y-52.66
X111.54Y-63.73
X111.59Y-71.05
X113.98Y-61.07
X114.018Y-42.799
X114.255Y-39.73
X114.42Y-52.35
X114.51Y-68.625
X114.96Y-41.49
X115.302Y-57.034
X116.47Y-65.2
X116.72Y-61.4
X117.52Y-52.61
X117.83Y-44.48
X118.27Y-68.35
X119.05Y-51.84
X119.2Y-40.66
X120.1Y-71.05
X120.81Y-40.1
X121.98Y-68.27
X122.Y-58.05
X123.68Y-52.18
X124.4Y-60.4
X124.48Y-59.25
X125.895Y-41.56
X126.73Y-58.07
X127.14Y-39.94
X128.19Y-58.6
X128.5Y-40.8
X129.43Y-65.78
X135.865Y-56.82
X137.89Y-27.3
X137.9Y-34.005
X137.925Y-30.73
X137.95Y-37.205
X137.99Y-43.32
X139.69Y-57.67
X140.32Y-46.33
X143.6Y-57.18
X144.11Y-66.95
X144.67Y-35.21
T2
X90.93Y-50.78
X94.33Y-50.78
X116.39Y-27.75
X116.39Y-30.29
X116.39Y-32.83
X116.39Y-35.37
X116.39Y-37.91
X116.39Y-40.45
X124.01Y-27.75
X124.01Y-30.29
X124.01Y-32.83
X124.01Y-35.37
X124.01Y-37.91
X124.01Y-40.45
X141.62Y-28.53
X142.89Y-28.53
X144.16Y-28.53
X145.43Y-28.53
T3
X58.565Y-63.845
X60.565Y-63.845
X65.415Y-63.845
X67.415Y-63.845
X82.52Y-67.275
T4
X55.15Y-27.03
X55.15Y-42.27
X57.69Y-27.03
X57.69Y-42.27
X60.23Y-27.03
X60.23Y-42.27
X62.77Y-27.03
X62.77Y-42.27
X65.31Y-27.03
X65.31Y-42.27
X67.85Y-27.03
X67.85Y-42.27
X70.39Y-27.03
X70.39Y-42.27
X72.93Y-27.03
X72.93Y-42.27
X74.215Y-72.17
X75.47Y-27.03
X75.47Y-42.27
X76.715Y-72.17
X77.98Y-48.66
X77.98Y-58.66
X78.01Y-27.03
X78.01Y-42.27
X79.215Y-72.17
X80.55Y-27.03
X80.55Y-42.27
X83.09Y-27.03
X83.09Y-42.27
X85.63Y-27.03
X85.63Y-42.27
X88.17Y-27.03
X88.17Y-42.27
X90.71Y-27.03
X90.71Y-42.27
X97.75Y-37.07
X100.29Y-37.07
X101.11Y-29.57
X101.11Y-32.11
X102.83Y-37.07
X103.65Y-29.57
X103.65Y-32.11
X105.37Y-37.07
X106.19Y-29.57
X106.19Y-32.11
X107.91Y-37.07
X108.73Y-29.57
X108.73Y-32.11
X110.45Y-37.07
X110.96Y-40.5
X130.49Y-27.67
X130.49Y-30.87
X130.49Y-34.07
X130.49Y-37.27
X130.59Y-47.79
X130.59Y-50.33
X130.59Y-52.87
X133.03Y-27.67
X133.03Y-30.87
X133.03Y-34.07
X133.03Y-37.27
X134.09Y-45.25
X134.09Y-47.79
X134.09Y-50.33
X134.09Y-52.87
X135.06Y-71.2
X135.57Y-27.67
X135.57Y-30.87
X135.57Y-34.07
X135.57Y-37.27
X137.56Y-71.2
X140.06Y-71.2
X148.09Y-34.03
X148.09Y-36.57
X148.09Y-39.11
X148.09Y-41.65
X148.09Y-57.69
X148.09Y-60.23
X148.09Y-62.77
X148.09Y-65.31
X149.29Y-45.83
X149.29Y-48.37
X149.29Y-50.91
X149.29Y-53.45
T5
X60.325Y-70.72
X62.865Y-70.72
X65.405Y-70.72
T7
X90.62Y-72.5
X99.137Y-72.5
X107.655Y-72.5
X116.172Y-72.5
X124.69Y-72.5
T8
X54.34Y-33.38
X54.63Y-72.23
X149.55Y-27.31
X149.55Y-72.23
T4
X57.49Y-53.17G85X57.49Y-51.17
G05
X59.79Y-57.17G85X61.79Y-57.17
G05
X63.64Y-53.17G85X63.64Y-51.17
G05
T6
X70.615Y-69.52G85X70.615Y-69.82
G05
X82.815Y-69.52G85X82.815Y-69.82
G05
X132.96Y-67.75G85X132.96Y-68.05
G05
X142.16Y-67.75G85X142.16Y-68.05
G05
T0
M30
