M48
;DRILL file {KiCad no-vcs-found-7434~57~ubuntu14.04.1} date Sat Jan 14 00:24:08 2017
;FORMAT={-:-/ absolute / metric / decimal}
FMAT,2
METRIC,TZ
T1C0.400
T2C0.600
T3C0.700
T4C1.000
T5C1.016
T6C1.100
T7C1.800
T8C3.200
%
G90
G05
M71
T1
X64.13Y-40.56
X67.74Y-48.095
X68.125Y-40.325
X68.59Y-50.995
X72.35Y-54.3
X73.75Y-45.85
X75.025Y-56.925
X78.9Y-55.025
X79.89Y-56.695
X80.325Y-46.625
X81.605Y-29.88
X83.275Y-62.625
X83.9Y-66.3
X84.5Y-53.5
X85.35Y-48.425
X86.165Y-56.137
X86.165Y-59.47
X87.965Y-70.195
X88.015Y-68.77
X89.35Y-30.825
X89.375Y-36.5
X90.925Y-37.625
X91.24Y-67.22
X91.288Y-63.572
X91.55Y-31.275
X91.93Y-38.87
X92.475Y-50.625
X93.1Y-29.125
X93.15Y-44.95
X93.75Y-41.15
X94.275Y-44.95
X95.45Y-42.675
X97.725Y-42.725
X100.065Y-63.17
X100.15Y-53.85
X100.525Y-60.15
X102.6Y-56.75
X103.2Y-55.85
X103.71Y-58.42
X106.175Y-52.125
X107.09Y-56.27
X107.54Y-64.095
X110.765Y-69.1
X110.875Y-66.375
X113.515Y-56.595
X113.865Y-68.045
X114.425Y-39.85
X114.56Y-40.91
X115.115Y-58.045
X115.29Y-41.65
X115.86Y-42.45
X116.29Y-67.895
X117.09Y-58.67
X117.44Y-72.42
X117.84Y-56.32
X118.515Y-33.52
X119.14Y-35.195
X119.865Y-37.395
X121.55Y-65.75
X122.45Y-63.375
X122.65Y-68.525
X124.965Y-70.845
X125.89Y-41.56
X127.14Y-39.94
X128.5Y-40.8
X135.865Y-56.82
X136.99Y-26.72
X137.Y-33.425
X137.025Y-30.15
X137.05Y-36.625
X137.99Y-43.32
X140.39Y-25.37
T2
X89.49Y-58.37
X92.89Y-58.37
X116.39Y-27.75
X116.39Y-30.29
X116.39Y-32.83
X116.39Y-35.37
X116.39Y-37.91
X116.39Y-40.45
X124.01Y-27.75
X124.01Y-30.29
X124.01Y-32.83
X124.01Y-35.37
X124.01Y-37.91
X124.01Y-40.45
X142.47Y-28.545
X143.74Y-28.545
X145.01Y-28.545
X146.28Y-28.545
T3
X58.565Y-63.845
X60.565Y-63.845
X65.415Y-63.845
X67.415Y-63.845
T4
X55.15Y-27.03
X55.15Y-42.27
X57.69Y-27.03
X57.69Y-42.27
X60.23Y-27.03
X60.23Y-42.27
X62.77Y-27.03
X62.77Y-42.27
X65.31Y-27.03
X65.31Y-42.27
X67.85Y-27.03
X67.85Y-42.27
X70.39Y-27.03
X70.39Y-42.27
X72.93Y-27.03
X72.93Y-42.27
X74.215Y-72.17
X75.47Y-27.03
X75.47Y-42.27
X76.715Y-72.17
X77.99Y-49.77
X77.99Y-59.77
X78.01Y-27.03
X78.01Y-42.27
X79.215Y-72.17
X80.55Y-27.03
X80.55Y-42.27
X83.09Y-27.03
X83.09Y-42.27
X85.63Y-27.03
X85.63Y-42.27
X88.17Y-27.03
X88.17Y-42.27
X90.71Y-27.03
X90.71Y-42.27
X98.22Y-37.07
X100.76Y-37.07
X103.3Y-37.07
X105.84Y-37.07
X108.38Y-37.07
X110.92Y-37.07
X110.96Y-40.5
X130.49Y-27.67
X130.49Y-30.87
X130.49Y-34.07
X130.49Y-37.27
X130.59Y-47.79
X130.59Y-50.33
X130.59Y-52.87
X133.03Y-27.67
X133.03Y-30.87
X133.03Y-34.07
X133.03Y-37.27
X135.09Y-70.47
X135.57Y-27.67
X135.57Y-30.87
X135.57Y-34.07
X135.57Y-37.27
X137.59Y-70.47
X140.09Y-70.47
X148.09Y-34.03
X148.09Y-36.57
X148.09Y-39.11
X148.09Y-41.65
X148.09Y-57.69
X148.09Y-60.23
X148.09Y-62.77
X148.09Y-65.31
X149.29Y-45.83
X149.29Y-48.37
X149.29Y-50.91
X149.29Y-53.45
T5
X101.11Y-29.57
X101.11Y-32.11
X103.65Y-29.57
X103.65Y-32.11
X106.19Y-29.57
X106.19Y-32.11
X108.73Y-29.57
X108.73Y-32.11
X134.09Y-45.25
X134.09Y-47.79
X134.09Y-50.33
X134.09Y-52.87
T6
X60.325Y-70.72
X62.865Y-70.72
X65.405Y-70.72
T8
X54.575Y-31.55
X54.665Y-72.195
X149.49Y-72.195
X149.59Y-27.245
T4
X57.49Y-53.17G85X57.49Y-51.17
G05
X59.79Y-57.17G85X61.79Y-57.17
G05
X63.64Y-53.17G85X63.64Y-51.17
G05
T7
X70.515Y-69.52G85X70.515Y-69.82
G05
X82.915Y-69.52G85X82.915Y-69.82
G05
X132.99Y-67.02G85X132.99Y-67.32
G05
X142.19Y-67.02G85X142.19Y-67.32
G05
T0
M30
